  0
SECTION
  2
HEADER
  9
$ANGBASE
  50
0.0
  9
$ANGDIR
  70
1
  9
$MEASUREMENT
  70
0
  0
ENDSEC
  0
SECTION
  2
TABLES
  0
TABLE
  2
LTYPE
  70
4
  0
LTYPE
  5
40F
  2
CONTINUOUS
  70
0
  3
Solid line
  72
65
  73
0
  40
0.0
  0
LTYPE
  5
410
  2
DASHDOT
 70
0
  3
Dash Dot ____ _ ____ _
 72
65
 73
4
 40
2.0
 49
1.25
 49
-0.25
 49
0.25
 49
-0.25
  0
LTYPE
  5
411
  2
DASHED
 70
0
  3
Dashed __ __ __ __ __
 72
65
 73
2
 40
0.75
 49
0.5
 49
-0.25
  0
LTYPE
  5
43B
  2
DOTTED
 70
0
  3
Dotted .  .  .  .
 72
65
 73
2
 40
0.2
 49
0.0
 49
-0.2
  0
ENDTAB
  0
TABLE
  2
STYLE
  70
4
  0
STYLE
  2
KICAD
  70
0
  40
0
  41
1
  42
1
  50
0
  71
0
  3
isocp.shx
  0
STYLE
  2
KICADB
  70
0
  40
0
  41
1
  42
1
  50
0
  71
0
  3
isocp.shx
  0
STYLE
  2
KICADI
  70
0
  40
0
  41
1
  42
1
  50
15
  71
0
  3
isocp.shx
  0
STYLE
  2
KICADBI
  70
0
  40
0
  41
1
  42
1
  50
15
  71
0
  3
isocp.shx
  0
ENDTAB
  0
TABLE
  2
LAYER
  70
1
  0
LAYER
  2
BLACK
  70
0
  62
7
  6
CONTINUOUS
  0
ENDTAB
  0
ENDSEC
  0
SECTION
  2
ENTITIES
0
LINE
8
BLACK
6
CONTINUOUS
10
5.5559919685039372
20
-4.5273532677165349
11
5.5545223228346456
21
-4.5309012992125988
0
LINE
8
BLACK
6
CONTINUOUS
10
5.5545223228346456
20
-4.5309012992125988
11
5.5518068110236216
21
-4.5336168110236219
0
LINE
8
BLACK
6
CONTINUOUS
10
5.5518068110236216
20
-4.5336168110236219
11
5.5482587795275586
21
-4.5350864566929134
0
LINE
8
BLACK
6
CONTINUOUS
10
5.5482587795275586
20
-4.5350864566929134
11
5.5444183858267717
21
-4.5350864566929134
0
LINE
8
BLACK
6
CONTINUOUS
10
5.5444183858267717
20
-4.5350864566929134
11
5.5408703543307087
21
-4.5336168110236219
0
LINE
8
BLACK
6
CONTINUOUS
10
5.5408703543307087
20
-4.5336168110236219
11
5.5381548425196847
21
-4.5309012992125988
0
LINE
8
BLACK
6
CONTINUOUS
10
5.5381548425196847
20
-4.5309012992125988
11
5.5366851968503932
21
-4.5273532677165349
0
LINE
8
BLACK
6
CONTINUOUS
10
5.5366851968503932
20
-4.5273532677165349
11
5.5364960629921258
21
-4.5254330708661419
0
LINE
8
BLACK
6
CONTINUOUS
10
5.5364960629921258
20
-4.5254330708661419
11
5.5364960629921258
21
-4.5096850393700789
0
LINE
8
BLACK
6
CONTINUOUS
10
5.5364960629921258
20
-4.5096850393700789
11
5.5366851968503932
21
-4.507764842519685
0
LINE
8
BLACK
6
CONTINUOUS
10
5.5366851968503932
20
-4.507764842519685
11
5.5381548425196847
21
-4.504216811023622
0
LINE
8
BLACK
6
CONTINUOUS
10
5.5381548425196847
20
-4.504216811023622
11
5.5408703543307087
21
-4.501501299212598
0
LINE
8
BLACK
6
CONTINUOUS
10
5.5408703543307087
20
-4.501501299212598
11
5.5444183858267717
21
-4.5000316535433074
0
LINE
8
BLACK
6
CONTINUOUS
10
5.5444183858267717
20
-4.5000316535433074
11
5.5482587795275586
21
-4.5000316535433074
0
LINE
8
BLACK
6
CONTINUOUS
10
5.5482587795275586
20
-4.5000316535433074
11
5.5518068110236216
21
-4.501501299212598
0
LINE
8
BLACK
6
CONTINUOUS
10
5.5518068110236216
20
-4.501501299212598
11
5.5545223228346456
21
-4.504216811023622
0
LINE
8
BLACK
6
CONTINUOUS
10
5.5545223228346456
20
-4.504216811023622
11
5.5559919685039372
21
-4.507764842519685
0
LINE
8
BLACK
6
CONTINUOUS
10
5.5559919685039372
20
-4.507764842519685
11
5.5561811023622045
21
-4.5096850393700789
0
LINE
8
BLACK
6
CONTINUOUS
10
5.5561811023622045
20
-4.5096850393700789
11
5.5561811023622045
21
-4.5254330708661419
0
LINE
8
BLACK
6
CONTINUOUS
10
5.5561811023622045
20
-4.5254330708661419
11
5.5559919685039372
21
-4.5273532677165349
0
LINE
8
BLACK
6
CONTINUOUS
10
5.7233148031496066
20
-4.5273532677165349
11
5.7218451574803151
21
-4.5309012992125988
0
LINE
8
BLACK
6
CONTINUOUS
10
5.7218451574803151
20
-4.5309012992125988
11
5.7191296456692911
21
-4.5336168110236219
0
LINE
8
BLACK
6
CONTINUOUS
10
5.7191296456692911
20
-4.5336168110236219
11
5.7155816141732281
21
-4.5350864566929134
0
LINE
8
BLACK
6
CONTINUOUS
10
5.7155816141732281
20
-4.5350864566929134
11
5.7117412204724411
21
-4.5350864566929134
0
LINE
8
BLACK
6
CONTINUOUS
10
5.7117412204724411
20
-4.5350864566929134
11
5.7081931889763782
21
-4.5336168110236219
0
LINE
8
BLACK
6
CONTINUOUS
10
5.7081931889763782
20
-4.5336168110236219
11
5.7054776771653541
21
-4.5309012992125988
0
LINE
8
BLACK
6
CONTINUOUS
10
5.7054776771653541
20
-4.5309012992125988
11
5.7040080314960626
21
-4.5273532677165349
0
LINE
8
BLACK
6
CONTINUOUS
10
5.7040080314960626
20
-4.5273532677165349
11
5.7038188976377953
21
-4.5254330708661419
0
LINE
8
BLACK
6
CONTINUOUS
10
5.7038188976377953
20
-4.5254330708661419
11
5.7038188976377953
21
-4.5096850393700789
0
LINE
8
BLACK
6
CONTINUOUS
10
5.7038188976377953
20
-4.5096850393700789
11
5.7040080314960626
21
-4.507764842519685
0
LINE
8
BLACK
6
CONTINUOUS
10
5.7040080314960626
20
-4.507764842519685
11
5.7054776771653541
21
-4.504216811023622
0
LINE
8
BLACK
6
CONTINUOUS
10
5.7054776771653541
20
-4.504216811023622
11
5.7081931889763782
21
-4.501501299212598
0
LINE
8
BLACK
6
CONTINUOUS
10
5.7081931889763782
20
-4.501501299212598
11
5.7117412204724411
21
-4.5000316535433074
0
LINE
8
BLACK
6
CONTINUOUS
10
5.7117412204724411
20
-4.5000316535433074
11
5.7155816141732281
21
-4.5000316535433074
0
LINE
8
BLACK
6
CONTINUOUS
10
5.7155816141732281
20
-4.5000316535433074
11
5.7191296456692911
21
-4.501501299212598
0
LINE
8
BLACK
6
CONTINUOUS
10
5.7191296456692911
20
-4.501501299212598
11
5.7218451574803151
21
-4.504216811023622
0
LINE
8
BLACK
6
CONTINUOUS
10
5.7218451574803151
20
-4.504216811023622
11
5.7233148031496066
21
-4.507764842519685
0
LINE
8
BLACK
6
CONTINUOUS
10
5.7233148031496066
20
-4.507764842519685
11
5.723503937007874
21
-4.5096850393700789
0
LINE
8
BLACK
6
CONTINUOUS
10
5.723503937007874
20
-4.5096850393700789
11
5.723503937007874
21
-4.5254330708661419
0
LINE
8
BLACK
6
CONTINUOUS
10
5.723503937007874
20
-4.5254330708661419
11
5.7233148031496066
21
-4.5273532677165349
0
CIRCLE
8
BLACK
10
3.4950000000000001
20
-3.4899999999999998
40
0.0068897637795276
0
CIRCLE
8
BLACK
10
3.8720574803149606
20
-4.583062204724409
40
0.0068897637795276
0
CIRCLE
8
BLACK
10
4.0996165354330705
20
-4.583062204724409
40
0.0068897637795276
0
LINE
8
BLACK
6
CONTINUOUS
10
3.8274682283464565
20
-4.7452337795275588
11
3.8266702362204725
21
-4.7482120078740158
0
LINE
8
BLACK
6
CONTINUOUS
10
3.8266702362204725
20
-4.7482120078740158
11
3.825128582677165
21
-4.7508822047244097
0
LINE
8
BLACK
6
CONTINUOUS
10
3.825128582677165
20
-4.7508822047244097
11
3.8229483464566929
21
-4.7530624409448814
0
LINE
8
BLACK
6
CONTINUOUS
10
3.8229483464566929
20
-4.7530624409448814
11
3.820278149606299
21
-4.7546040944881884
0
LINE
8
BLACK
6
CONTINUOUS
10
3.820278149606299
20
-4.7546040944881884
11
3.8172999212598424
21
-4.7554020866141729
0
LINE
8
BLACK
6
CONTINUOUS
10
3.8172999212598424
20
-4.7554020866141729
11
3.8142166141732283
21
-4.7554020866141729
0
LINE
8
BLACK
6
CONTINUOUS
10
3.8142166141732283
20
-4.7554020866141729
11
3.8112383858267718
21
-4.7546040944881884
0
LINE
8
BLACK
6
CONTINUOUS
10
3.8112383858267718
20
-4.7546040944881884
11
3.8085681889763778
21
-4.7530624409448814
0
LINE
8
BLACK
6
CONTINUOUS
10
3.8085681889763778
20
-4.7530624409448814
11
3.8063879527559052
21
-4.7508822047244097
0
LINE
8
BLACK
6
CONTINUOUS
10
3.8063879527559052
20
-4.7508822047244097
11
3.8048462992125982
21
-4.7482120078740158
0
LINE
8
BLACK
6
CONTINUOUS
10
3.8048462992125982
20
-4.7482120078740158
11
3.8040483070866142
21
-4.7452337795275588
0
LINE
8
BLACK
6
CONTINUOUS
10
3.8040483070866142
20
-4.7452337795275588
11
3.8039472440944881
21
-4.7436921259842517
0
LINE
8
BLACK
6
CONTINUOUS
10
3.8039472440944881
20
-4.7436921259842517
11
3.8039472440944881
21
-4.7121960629921258
0
LINE
8
BLACK
6
CONTINUOUS
10
3.8039472440944881
20
-4.7121960629921258
11
3.8040483070866142
21
-4.7106544094488187
0
LINE
8
BLACK
6
CONTINUOUS
10
3.8040483070866142
20
-4.7106544094488187
11
3.8048462992125982
21
-4.7076761811023617
0
LINE
8
BLACK
6
CONTINUOUS
10
3.8048462992125982
20
-4.7076761811023617
11
3.8063879527559052
21
-4.7050059842519687
0
LINE
8
BLACK
6
CONTINUOUS
10
3.8063879527559052
20
-4.7050059842519687
11
3.8085681889763778
21
-4.7028257480314961
0
LINE
8
BLACK
6
CONTINUOUS
10
3.8085681889763778
20
-4.7028257480314961
11
3.8112383858267718
21
-4.7012840944881891
0
LINE
8
BLACK
6
CONTINUOUS
10
3.8112383858267718
20
-4.7012840944881891
11
3.8142166141732283
21
-4.7004861023622047
0
LINE
8
BLACK
6
CONTINUOUS
10
3.8142166141732283
20
-4.7004861023622047
11
3.8172999212598424
21
-4.7004861023622047
0
LINE
8
BLACK
6
CONTINUOUS
10
3.8172999212598424
20
-4.7004861023622047
11
3.820278149606299
21
-4.7012840944881891
0
LINE
8
BLACK
6
CONTINUOUS
10
3.820278149606299
20
-4.7012840944881891
11
3.8229483464566929
21
-4.7028257480314961
0
LINE
8
BLACK
6
CONTINUOUS
10
3.8229483464566929
20
-4.7028257480314961
11
3.825128582677165
21
-4.7050059842519687
0
LINE
8
BLACK
6
CONTINUOUS
10
3.825128582677165
20
-4.7050059842519687
11
3.8266702362204725
21
-4.7076761811023617
0
LINE
8
BLACK
6
CONTINUOUS
10
3.8266702362204725
20
-4.7076761811023617
11
3.8274682283464565
21
-4.7106544094488187
0
LINE
8
BLACK
6
CONTINUOUS
10
3.8274682283464565
20
-4.7106544094488187
11
3.8275692913385826
21
-4.7121960629921258
0
LINE
8
BLACK
6
CONTINUOUS
10
3.8275692913385826
20
-4.7121960629921258
11
3.8275692913385826
21
-4.7436921259842517
0
LINE
8
BLACK
6
CONTINUOUS
10
3.8275692913385826
20
-4.7436921259842517
11
3.8274682283464565
21
-4.7452337795275588
0
LINE
8
BLACK
6
CONTINUOUS
10
4.1676257086614168
20
-4.7452337795275588
11
4.1668277165354333
21
-4.7482120078740158
0
LINE
8
BLACK
6
CONTINUOUS
10
4.1668277165354333
20
-4.7482120078740158
11
4.1652860629921262
21
-4.7508822047244097
0
LINE
8
BLACK
6
CONTINUOUS
10
4.1652860629921262
20
-4.7508822047244097
11
4.1631058267716536
21
-4.7530624409448814
0
LINE
8
BLACK
6
CONTINUOUS
10
4.1631058267716536
20
-4.7530624409448814
11
4.1604356299212597
21
-4.7546040944881884
0
LINE
8
BLACK
6
CONTINUOUS
10
4.1604356299212597
20
-4.7546040944881884
11
4.1574574015748027
21
-4.7554020866141729
0
LINE
8
BLACK
6
CONTINUOUS
10
4.1574574015748027
20
-4.7554020866141729
11
4.1543740944881886
21
-4.7554020866141729
0
LINE
8
BLACK
6
CONTINUOUS
10
4.1543740944881886
20
-4.7554020866141729
11
4.1513958661417325
21
-4.7546040944881884
0
LINE
8
BLACK
6
CONTINUOUS
10
4.1513958661417325
20
-4.7546040944881884
11
4.1487256692913386
21
-4.7530624409448814
0
LINE
8
BLACK
6
CONTINUOUS
10
4.1487256692913386
20
-4.7530624409448814
11
4.146545433070866
21
-4.7508822047244097
0
LINE
8
BLACK
6
CONTINUOUS
10
4.146545433070866
20
-4.7508822047244097
11
4.1450037795275589
21
-4.7482120078740158
0
LINE
8
BLACK
6
CONTINUOUS
10
4.1450037795275589
20
-4.7482120078740158
11
4.1442057874015745
21
-4.7452337795275588
0
LINE
8
BLACK
6
CONTINUOUS
10
4.1442057874015745
20
-4.7452337795275588
11
4.1441047244094484
21
-4.7436921259842517
0
LINE
8
BLACK
6
CONTINUOUS
10
4.1441047244094484
20
-4.7436921259842517
11
4.1441047244094484
21
-4.7121960629921258
0
LINE
8
BLACK
6
CONTINUOUS
10
4.1441047244094484
20
-4.7121960629921258
11
4.1442057874015745
21
-4.7106544094488187
0
LINE
8
BLACK
6
CONTINUOUS
10
4.1442057874015745
20
-4.7106544094488187
11
4.1450037795275589
21
-4.7076761811023617
0
LINE
8
BLACK
6
CONTINUOUS
10
4.1450037795275589
20
-4.7076761811023617
11
4.146545433070866
21
-4.7050059842519687
0
LINE
8
BLACK
6
CONTINUOUS
10
4.146545433070866
20
-4.7050059842519687
11
4.1487256692913386
21
-4.7028257480314961
0
LINE
8
BLACK
6
CONTINUOUS
10
4.1487256692913386
20
-4.7028257480314961
11
4.1513958661417325
21
-4.7012840944881891
0
LINE
8
BLACK
6
CONTINUOUS
10
4.1513958661417325
20
-4.7012840944881891
11
4.1543740944881886
21
-4.7004861023622047
0
LINE
8
BLACK
6
CONTINUOUS
10
4.1543740944881886
20
-4.7004861023622047
11
4.1574574015748027
21
-4.7004861023622047
0
LINE
8
BLACK
6
CONTINUOUS
10
4.1574574015748027
20
-4.7004861023622047
11
4.1604356299212597
21
-4.7012840944881891
0
LINE
8
BLACK
6
CONTINUOUS
10
4.1604356299212597
20
-4.7012840944881891
11
4.1631058267716536
21
-4.7028257480314961
0
LINE
8
BLACK
6
CONTINUOUS
10
4.1631058267716536
20
-4.7028257480314961
11
4.1652860629921262
21
-4.7050059842519687
0
LINE
8
BLACK
6
CONTINUOUS
10
4.1652860629921262
20
-4.7050059842519687
11
4.1668277165354333
21
-4.7076761811023617
0
LINE
8
BLACK
6
CONTINUOUS
10
4.1668277165354333
20
-4.7076761811023617
11
4.1676257086614168
21
-4.7106544094488187
0
LINE
8
BLACK
6
CONTINUOUS
10
4.1676257086614168
20
-4.7106544094488187
11
4.1677267716535429
21
-4.7121960629921258
0
LINE
8
BLACK
6
CONTINUOUS
10
4.1677267716535429
20
-4.7121960629921258
11
4.1677267716535429
21
-4.7436921259842517
0
LINE
8
BLACK
6
CONTINUOUS
10
4.1677267716535429
20
-4.7436921259842517
11
4.1676257086614168
21
-4.7452337795275588
0
LINE
8
BLACK
6
CONTINUOUS
10
3.8274682283464565
20
-4.5865723622047243
11
3.8266702362204725
21
-4.5895505905511813
0
LINE
8
BLACK
6
CONTINUOUS
10
3.8266702362204725
20
-4.5895505905511813
11
3.825128582677165
21
-4.5922207874015744
0
LINE
8
BLACK
6
CONTINUOUS
10
3.825128582677165
20
-4.5922207874015744
11
3.8229483464566929
21
-4.5944010236220469
0
LINE
8
BLACK
6
CONTINUOUS
10
3.8229483464566929
20
-4.5944010236220469
11
3.820278149606299
21
-4.595942677165354
0
LINE
8
BLACK
6
CONTINUOUS
10
3.820278149606299
20
-4.595942677165354
11
3.8172999212598424
21
-4.5967406692913384
0
LINE
8
BLACK
6
CONTINUOUS
10
3.8172999212598424
20
-4.5967406692913384
11
3.8142166141732283
21
-4.5967406692913384
0
LINE
8
BLACK
6
CONTINUOUS
10
3.8142166141732283
20
-4.5967406692913384
11
3.8112383858267718
21
-4.595942677165354
0
LINE
8
BLACK
6
CONTINUOUS
10
3.8112383858267718
20
-4.595942677165354
11
3.8085681889763778
21
-4.5944010236220469
0
LINE
8
BLACK
6
CONTINUOUS
10
3.8085681889763778
20
-4.5944010236220469
11
3.8063879527559052
21
-4.5922207874015744
0
LINE
8
BLACK
6
CONTINUOUS
10
3.8063879527559052
20
-4.5922207874015744
11
3.8048462992125982
21
-4.5895505905511813
0
LINE
8
BLACK
6
CONTINUOUS
10
3.8048462992125982
20
-4.5895505905511813
11
3.8040483070866142
21
-4.5865723622047243
0
LINE
8
BLACK
6
CONTINUOUS
10
3.8040483070866142
20
-4.5865723622047243
11
3.8039472440944881
21
-4.5850307086614173
0
LINE
8
BLACK
6
CONTINUOUS
10
3.8039472440944881
20
-4.5850307086614173
11
3.8039472440944881
21
-4.5417236220472441
0
LINE
8
BLACK
6
CONTINUOUS
10
3.8039472440944881
20
-4.5417236220472441
11
3.8040483070866142
21
-4.5401819685039371
0
LINE
8
BLACK
6
CONTINUOUS
10
3.8040483070866142
20
-4.5401819685039371
11
3.8048462992125982
21
-4.5372037401574801
0
LINE
8
BLACK
6
CONTINUOUS
10
3.8048462992125982
20
-4.5372037401574801
11
3.8063879527559052
21
-4.5345335433070861
0
LINE
8
BLACK
6
CONTINUOUS
10
3.8063879527559052
20
-4.5345335433070861
11
3.8085681889763778
21
-4.5323533070866144
0
LINE
8
BLACK
6
CONTINUOUS
10
3.8085681889763778
20
-4.5323533070866144
11
3.8112383858267718
21
-4.5308116535433074
0
LINE
8
BLACK
6
CONTINUOUS
10
3.8112383858267718
20
-4.5308116535433074
11
3.8142166141732283
21
-4.530013661417323
0
LINE
8
BLACK
6
CONTINUOUS
10
3.8142166141732283
20
-4.530013661417323
11
3.8172999212598424
21
-4.530013661417323
0
LINE
8
BLACK
6
CONTINUOUS
10
3.8172999212598424
20
-4.530013661417323
11
3.820278149606299
21
-4.5308116535433074
0
LINE
8
BLACK
6
CONTINUOUS
10
3.820278149606299
20
-4.5308116535433074
11
3.8229483464566929
21
-4.5323533070866144
0
LINE
8
BLACK
6
CONTINUOUS
10
3.8229483464566929
20
-4.5323533070866144
11
3.825128582677165
21
-4.5345335433070861
0
LINE
8
BLACK
6
CONTINUOUS
10
3.825128582677165
20
-4.5345335433070861
11
3.8266702362204725
21
-4.5372037401574801
0
LINE
8
BLACK
6
CONTINUOUS
10
3.8266702362204725
20
-4.5372037401574801
11
3.8274682283464565
21
-4.5401819685039371
0
LINE
8
BLACK
6
CONTINUOUS
10
3.8274682283464565
20
-4.5401819685039371
11
3.8275692913385826
21
-4.5417236220472441
0
LINE
8
BLACK
6
CONTINUOUS
10
3.8275692913385826
20
-4.5417236220472441
11
3.8275692913385826
21
-4.5850307086614173
0
LINE
8
BLACK
6
CONTINUOUS
10
3.8275692913385826
20
-4.5850307086614173
11
3.8274682283464565
21
-4.5865723622047243
0
LINE
8
BLACK
6
CONTINUOUS
10
4.1676257086614168
20
-4.5865723622047243
11
4.1668277165354333
21
-4.5895505905511813
0
LINE
8
BLACK
6
CONTINUOUS
10
4.1668277165354333
20
-4.5895505905511813
11
4.1652860629921262
21
-4.5922207874015744
0
LINE
8
BLACK
6
CONTINUOUS
10
4.1652860629921262
20
-4.5922207874015744
11
4.1631058267716536
21
-4.5944010236220469
0
LINE
8
BLACK
6
CONTINUOUS
10
4.1631058267716536
20
-4.5944010236220469
11
4.1604356299212597
21
-4.595942677165354
0
LINE
8
BLACK
6
CONTINUOUS
10
4.1604356299212597
20
-4.595942677165354
11
4.1574574015748027
21
-4.5967406692913384
0
LINE
8
BLACK
6
CONTINUOUS
10
4.1574574015748027
20
-4.5967406692913384
11
4.1543740944881886
21
-4.5967406692913384
0
LINE
8
BLACK
6
CONTINUOUS
10
4.1543740944881886
20
-4.5967406692913384
11
4.1513958661417325
21
-4.595942677165354
0
LINE
8
BLACK
6
CONTINUOUS
10
4.1513958661417325
20
-4.595942677165354
11
4.1487256692913386
21
-4.5944010236220469
0
LINE
8
BLACK
6
CONTINUOUS
10
4.1487256692913386
20
-4.5944010236220469
11
4.146545433070866
21
-4.5922207874015744
0
LINE
8
BLACK
6
CONTINUOUS
10
4.146545433070866
20
-4.5922207874015744
11
4.1450037795275589
21
-4.5895505905511813
0
LINE
8
BLACK
6
CONTINUOUS
10
4.1450037795275589
20
-4.5895505905511813
11
4.1442057874015745
21
-4.5865723622047243
0
LINE
8
BLACK
6
CONTINUOUS
10
4.1442057874015745
20
-4.5865723622047243
11
4.1441047244094484
21
-4.5850307086614173
0
LINE
8
BLACK
6
CONTINUOUS
10
4.1441047244094484
20
-4.5850307086614173
11
4.1441047244094484
21
-4.5417236220472441
0
LINE
8
BLACK
6
CONTINUOUS
10
4.1441047244094484
20
-4.5417236220472441
11
4.1442057874015745
21
-4.5401819685039371
0
LINE
8
BLACK
6
CONTINUOUS
10
4.1442057874015745
20
-4.5401819685039371
11
4.1450037795275589
21
-4.5372037401574801
0
LINE
8
BLACK
6
CONTINUOUS
10
4.1450037795275589
20
-4.5372037401574801
11
4.146545433070866
21
-4.5345335433070861
0
LINE
8
BLACK
6
CONTINUOUS
10
4.146545433070866
20
-4.5345335433070861
11
4.1487256692913386
21
-4.5323533070866144
0
LINE
8
BLACK
6
CONTINUOUS
10
4.1487256692913386
20
-4.5323533070866144
11
4.1513958661417325
21
-4.5308116535433074
0
LINE
8
BLACK
6
CONTINUOUS
10
4.1513958661417325
20
-4.5308116535433074
11
4.1543740944881886
21
-4.530013661417323
0
LINE
8
BLACK
6
CONTINUOUS
10
4.1543740944881886
20
-4.530013661417323
11
4.1574574015748027
21
-4.530013661417323
0
LINE
8
BLACK
6
CONTINUOUS
10
4.1574574015748027
20
-4.530013661417323
11
4.1604356299212597
21
-4.5308116535433074
0
LINE
8
BLACK
6
CONTINUOUS
10
4.1604356299212597
20
-4.5308116535433074
11
4.1631058267716536
21
-4.5323533070866144
0
LINE
8
BLACK
6
CONTINUOUS
10
4.1631058267716536
20
-4.5323533070866144
11
4.1652860629921262
21
-4.5345335433070861
0
LINE
8
BLACK
6
CONTINUOUS
10
4.1652860629921262
20
-4.5345335433070861
11
4.1668277165354333
21
-4.5372037401574801
0
LINE
8
BLACK
6
CONTINUOUS
10
4.1668277165354333
20
-4.5372037401574801
11
4.1676257086614168
21
-4.5401819685039371
0
LINE
8
BLACK
6
CONTINUOUS
10
4.1676257086614168
20
-4.5401819685039371
11
4.1677267716535429
21
-4.5417236220472441
0
LINE
8
BLACK
6
CONTINUOUS
10
4.1677267716535429
20
-4.5417236220472441
11
4.1677267716535429
21
-4.5850307086614173
0
LINE
8
BLACK
6
CONTINUOUS
10
4.1677267716535429
20
-4.5850307086614173
11
4.1676257086614168
21
-4.5865723622047243
0
CIRCLE
8
BLACK
10
3.48
20
-1.6099999999999999
40
0.0068897637795276
0
CIRCLE
8
BLACK
10
7.1899999999999995
20
-3.4699999999999998
40
0.0068897637795276
0
CIRCLE
8
BLACK
10
4.2976480314960632
20
-4.5779440944881893
40
0.0068897637795276
0
CIRCLE
8
BLACK
10
4.3976480314960629
20
-4.5779440944881893
40
0.0068897637795276
0
CIRCLE
8
BLACK
10
4.2976480314960632
20
-4.6779440944881889
40
0.0068897637795276
0
CIRCLE
8
BLACK
10
4.3976480314960629
20
-4.6779440944881889
40
0.0068897637795276
0
CIRCLE
8
BLACK
10
4.2976480314960632
20
-4.7779440944881886
40
0.0068897637795276
0
CIRCLE
8
BLACK
10
4.3976480314960629
20
-4.7779440944881886
40
0.0068897637795276
0
CIRCLE
8
BLACK
10
7.21
20
-1.5999999999999999
40
0.0068897637795276
0
CIRCLE
8
BLACK
10
4.1986614173228345
20
-2.2016535433070867
40
0.0068897637795276
0
CIRCLE
8
BLACK
10
4.1986614173228345
20
-2.9614960629921261
40
0.0068897637795276
0
CIRCLE
8
BLACK
10
6.3884251968503936
20
-2.2016535433070867
40
0.0068897637795276
0
CIRCLE
8
BLACK
10
6.3884251968503936
20
-2.9614960629921261
40
0.0068897637795276
0
CIRCLE
8
BLACK
10
3.8644094488188974
20
-2.2016535433070867
40
0.0068897637795276
0
CIRCLE
8
BLACK
10
6.7226771653543302
20
-2.2016535433070867
40
0.0068897637795276
0
CIRCLE
8
BLACK
10
3.8644094488188974
20
-2.9614960629921261
40
0.0068897637795276
0
CIRCLE
8
BLACK
10
6.7226771653543302
20
-2.9614960629921261
40
0.0068897637795276
0
CIRCLE
8
BLACK
10
4.54
20
-5.0249999999999995
40
0.0068897637795276
0
CIRCLE
8
BLACK
10
4.4399999999999995
20
-5.0249999999999995
40
0.0068897637795276
0
CIRCLE
8
BLACK
10
4.3399999999999999
20
-5.0249999999999995
40
0.0068897637795276
0
CIRCLE
8
BLACK
10
4.2400000000000002
20
-5.0249999999999995
40
0.0068897637795276
0
LINE
8
BLACK
6
CONTINUOUS
10
5.5364960629921258
20
-4.5096850393700789
11
5.5364960629921258
21
-4.5254330708661419
0
ARC
8
BLACK
10
5.5463385826771656
20
-4.5254330708661419
40
0.0098425196850394
50
-180.00000000
51
0.00000000
0
LINE
8
BLACK
6
CONTINUOUS
10
5.5561811023622045
20
-4.5254330708661419
11
5.5561811023622045
21
-4.5096850393700789
0
ARC
8
BLACK
10
5.5463385826771656
20
-4.5096850393700789
40
0.0098425196850394
50
0.00000000
51
180.00000000
0
LINE
8
BLACK
6
CONTINUOUS
10
5.7038188976377953
20
-4.5096850393700789
11
5.7038188976377953
21
-4.5254330708661419
0
ARC
8
BLACK
10
5.7136614173228342
20
-4.5254330708661419
40
0.0098425196850394
50
-180.00000000
51
0.00000000
0
LINE
8
BLACK
6
CONTINUOUS
10
5.723503937007874
20
-4.5254330708661419
11
5.723503937007874
21
-4.5096850393700789
0
ARC
8
BLACK
10
5.7136614173228342
20
-4.5096850393700789
40
0.0098425196850394
50
0.00000000
51
180.00000000
0
CIRCLE
8
BLACK
10
3.4950000000000001
20
-3.4899999999999998
40
0.0068897637795276
0
CIRCLE
8
BLACK
10
3.8720574803149606
20
-4.583062204724409
40
0.0068897637795276
0
CIRCLE
8
BLACK
10
4.0996165354330705
20
-4.583062204724409
40
0.0068897637795276
0
LINE
8
BLACK
6
CONTINUOUS
10
3.8039472440944881
20
-4.7121960629921258
11
3.8039472440944881
21
-4.7436921259842517
0
ARC
8
BLACK
10
3.8157582677165354
20
-4.7436921259842517
40
0.0118110236220472
50
-180.00000000
51
0.00000000
0
LINE
8
BLACK
6
CONTINUOUS
10
3.8275692913385826
20
-4.7436921259842517
11
3.8275692913385826
21
-4.7121960629921258
0
ARC
8
BLACK
10
3.8157582677165354
20
-4.7121960629921258
40
0.0118110236220472
50
0.00000000
51
180.00000000
0
LINE
8
BLACK
6
CONTINUOUS
10
4.1441047244094484
20
-4.7121960629921258
11
4.1441047244094484
21
-4.7436921259842517
0
ARC
8
BLACK
10
4.1559157480314957
20
-4.7436921259842517
40
0.0118110236220472
50
-180.00000000
51
0.00000000
0
LINE
8
BLACK
6
CONTINUOUS
10
4.1677267716535429
20
-4.7436921259842517
11
4.1677267716535429
21
-4.7121960629921258
0
ARC
8
BLACK
10
4.1559157480314957
20
-4.7121960629921258
40
0.0118110236220472
50
0.00000000
51
180.00000000
0
LINE
8
BLACK
6
CONTINUOUS
10
3.8039472440944881
20
-4.5417236220472441
11
3.8039472440944881
21
-4.5850307086614173
0
ARC
8
BLACK
10
3.8157582677165354
20
-4.5850307086614173
40
0.0118110236220472
50
-180.00000000
51
0.00000000
0
LINE
8
BLACK
6
CONTINUOUS
10
3.8275692913385826
20
-4.5850307086614173
11
3.8275692913385826
21
-4.5417236220472441
0
ARC
8
BLACK
10
3.8157582677165354
20
-4.5417236220472441
40
0.0118110236220472
50
0.00000000
51
180.00000000
0
LINE
8
BLACK
6
CONTINUOUS
10
4.1441047244094484
20
-4.5417236220472441
11
4.1441047244094484
21
-4.5850307086614173
0
ARC
8
BLACK
10
4.1559157480314957
20
-4.5850307086614173
40
0.0118110236220472
50
-180.00000000
51
0.00000000
0
LINE
8
BLACK
6
CONTINUOUS
10
4.1677267716535429
20
-4.5850307086614173
11
4.1677267716535429
21
-4.5417236220472441
0
ARC
8
BLACK
10
4.1559157480314957
20
-4.5417236220472441
40
0.0118110236220472
50
0.00000000
51
180.00000000
0
CIRCLE
8
BLACK
10
3.48
20
-1.6099999999999999
40
0.0068897637795276
0
CIRCLE
8
BLACK
10
7.1899999999999995
20
-3.4699999999999998
40
0.0068897637795276
0
CIRCLE
8
BLACK
10
4.2976480314960632
20
-4.5779440944881893
40
0.0068897637795276
0
CIRCLE
8
BLACK
10
4.3976480314960629
20
-4.5779440944881893
40
0.0068897637795276
0
CIRCLE
8
BLACK
10
4.2976480314960632
20
-4.6779440944881889
40
0.0068897637795276
0
CIRCLE
8
BLACK
10
4.3976480314960629
20
-4.6779440944881889
40
0.0068897637795276
0
CIRCLE
8
BLACK
10
4.2976480314960632
20
-4.7779440944881886
40
0.0068897637795276
0
CIRCLE
8
BLACK
10
4.3976480314960629
20
-4.7779440944881886
40
0.0068897637795276
0
CIRCLE
8
BLACK
10
7.21
20
-1.5999999999999999
40
0.0068897637795276
0
CIRCLE
8
BLACK
10
4.1986614173228345
20
-2.2016535433070867
40
0.0068897637795276
0
CIRCLE
8
BLACK
10
4.1986614173228345
20
-2.9614960629921261
40
0.0068897637795276
0
CIRCLE
8
BLACK
10
6.3884251968503936
20
-2.2016535433070867
40
0.0068897637795276
0
CIRCLE
8
BLACK
10
6.3884251968503936
20
-2.9614960629921261
40
0.0068897637795276
0
CIRCLE
8
BLACK
10
3.8644094488188974
20
-2.2016535433070867
40
0.0068897637795276
0
CIRCLE
8
BLACK
10
6.7226771653543302
20
-2.2016535433070867
40
0.0068897637795276
0
CIRCLE
8
BLACK
10
3.8644094488188974
20
-2.9614960629921261
40
0.0068897637795276
0
CIRCLE
8
BLACK
10
6.7226771653543302
20
-2.9614960629921261
40
0.0068897637795276
0
CIRCLE
8
BLACK
10
4.54
20
-5.0249999999999995
40
0.0068897637795276
0
CIRCLE
8
BLACK
10
4.4399999999999995
20
-5.0249999999999995
40
0.0068897637795276
0
CIRCLE
8
BLACK
10
4.3399999999999999
20
-5.0249999999999995
40
0.0068897637795276
0
CIRCLE
8
BLACK
10
4.2400000000000002
20
-5.0249999999999995
40
0.0068897637795276
  0
ENDSEC
  0
EOF
