  0
SECTION
  2
HEADER
  9
$ANGBASE
  50
0.0
  9
$ANGDIR
  70
1
  9
$MEASUREMENT
  70
0
  9
$INSUNITS
  70
1
  0
ENDSEC
  0
SECTION
  2
TABLES
  0
TABLE
  2
LTYPE
  70
4
  0
LTYPE
  5
40F
  2
CONTINUOUS
  70
0
  3
Solid line
  72
65
  73
0
  40
0.0
  0
LTYPE
  5
410
  2
DASHDOT
 70
0
  3
Dash Dot ____ _ ____ _
 72
65
 73
4
 40
2.0
 49
1.25
 49
-0.25
 49
0.25
 49
-0.25
  0
LTYPE
  5
411
  2
DASHED
 70
0
  3
Dashed __ __ __ __ __
 72
65
 73
2
 40
0.75
 49
0.5
 49
-0.25
  0
LTYPE
  5
43B
  2
DOTTED
 70
0
  3
Dotted .  .  .  .
 72
65
 73
2
 40
0.2
 49
0.0
 49
-0.2
  0
ENDTAB
  0
TABLE
  2
STYLE
  70
4
  0
STYLE
  2
KICAD
  70
0
  40
0
  41
1
  42
1
  50
0
  71
0
  3
isocp.shx
  0
STYLE
  2
KICADB
  70
0
  40
0
  41
1
  42
1
  50
0
  71
0
  3
isocp.shx
  0
STYLE
  2
KICADI
  70
0
  40
0
  41
1
  42
1
  50
15
  71
0
  3
isocp.shx
  0
STYLE
  2
KICADBI
  70
0
  40
0
  41
1
  42
1
  50
15
  71
0
  3
isocp.shx
  0
ENDTAB
  0
TABLE
  2
LAYER
  70
1
  0
LAYER
  2
BLACK
  70
0
  62
250
  6
CONTINUOUS
  0
ENDTAB
  0
ENDSEC
  0
SECTION
  2
ENTITIES
0
LINE
8
BLACK
6
CONTINUOUS
10
5.7852626377952756
20
-6.0243712598425194
11
5.788455787401575
21
-6.0265048425196852
0
LINE
8
BLACK
6
CONTINUOUS
10
5.788455787401575
20
-6.0265048425196852
11
5.7905893700787399
21
-6.0296979921259837
0
LINE
8
BLACK
6
CONTINUOUS
10
5.7905893700787399
20
-6.0296979921259837
11
5.7913385826771648
21
-6.0334645669291334
0
LINE
8
BLACK
6
CONTINUOUS
10
5.7913385826771648
20
-6.0334645669291334
11
5.7913385826771648
21
-6.068897637795275
0
LINE
8
BLACK
6
CONTINUOUS
10
5.7913385826771648
20
-6.068897637795275
11
5.7905893700787399
21
-6.0726642125984247
0
LINE
8
BLACK
6
CONTINUOUS
10
5.7905893700787399
20
-6.0726642125984247
11
5.788455787401575
21
-6.0758573622047241
0
LINE
8
BLACK
6
CONTINUOUS
10
5.788455787401575
20
-6.0758573622047241
11
5.7852626377952756
21
-6.0779909448818898
0
LINE
8
BLACK
6
CONTINUOUS
10
5.7852626377952756
20
-6.0779909448818898
11
5.7814960629921259
21
-6.0787401574803148
0
LINE
8
BLACK
6
CONTINUOUS
10
5.7814960629921259
20
-6.0787401574803148
11
5.7608267716535435
21
-6.0787401574803148
0
LINE
8
BLACK
6
CONTINUOUS
10
5.7608267716535435
20
-6.0787401574803148
11
5.7570601968503938
21
-6.0779909448818898
0
LINE
8
BLACK
6
CONTINUOUS
10
5.7570601968503938
20
-6.0779909448818898
11
5.7538670472440945
21
-6.0758573622047241
0
LINE
8
BLACK
6
CONTINUOUS
10
5.7538670472440945
20
-6.0758573622047241
11
5.7517334645669287
21
-6.0726642125984247
0
LINE
8
BLACK
6
CONTINUOUS
10
5.7517334645669287
20
-6.0726642125984247
11
5.7509842519685037
21
-6.068897637795275
0
LINE
8
BLACK
6
CONTINUOUS
10
5.7509842519685037
20
-6.068897637795275
11
5.7509842519685037
21
-6.0334645669291334
0
LINE
8
BLACK
6
CONTINUOUS
10
5.7509842519685037
20
-6.0334645669291334
11
5.7517334645669287
21
-6.0296979921259837
0
LINE
8
BLACK
6
CONTINUOUS
10
5.7517334645669287
20
-6.0296979921259837
11
5.7538670472440945
21
-6.0265048425196852
0
LINE
8
BLACK
6
CONTINUOUS
10
5.7538670472440945
20
-6.0265048425196852
11
5.7570601968503938
21
-6.0243712598425194
0
LINE
8
BLACK
6
CONTINUOUS
10
5.7570601968503938
20
-6.0243712598425194
11
5.7608267716535435
21
-6.0236220472440944
0
LINE
8
BLACK
6
CONTINUOUS
10
5.7608267716535435
20
-6.0236220472440944
11
5.7814960629921259
21
-6.0236220472440944
0
LINE
8
BLACK
6
CONTINUOUS
10
5.7814960629921259
20
-6.0236220472440944
11
5.7852626377952756
21
-6.0243712598425194
0
LINE
8
BLACK
6
CONTINUOUS
10
5.8571130314960627
20
-6.0243712598425194
11
5.860306181102362
21
-6.0265048425196852
0
LINE
8
BLACK
6
CONTINUOUS
10
5.860306181102362
20
-6.0265048425196852
11
5.8624397637795278
21
-6.0296979921259837
0
LINE
8
BLACK
6
CONTINUOUS
10
5.8624397637795278
20
-6.0296979921259837
11
5.8631889763779528
21
-6.0334645669291334
0
LINE
8
BLACK
6
CONTINUOUS
10
5.8631889763779528
20
-6.0334645669291334
11
5.8631889763779528
21
-6.068897637795275
0
LINE
8
BLACK
6
CONTINUOUS
10
5.8631889763779528
20
-6.068897637795275
11
5.8624397637795278
21
-6.0726642125984247
0
LINE
8
BLACK
6
CONTINUOUS
10
5.8624397637795278
20
-6.0726642125984247
11
5.860306181102362
21
-6.0758573622047241
0
LINE
8
BLACK
6
CONTINUOUS
10
5.860306181102362
20
-6.0758573622047241
11
5.8571130314960627
21
-6.0779909448818898
0
LINE
8
BLACK
6
CONTINUOUS
10
5.8571130314960627
20
-6.0779909448818898
11
5.853346456692913
21
-6.0787401574803148
0
LINE
8
BLACK
6
CONTINUOUS
10
5.853346456692913
20
-6.0787401574803148
11
5.8326771653543306
21
-6.0787401574803148
0
LINE
8
BLACK
6
CONTINUOUS
10
5.8326771653543306
20
-6.0787401574803148
11
5.8289105905511809
21
-6.0779909448818898
0
LINE
8
BLACK
6
CONTINUOUS
10
5.8289105905511809
20
-6.0779909448818898
11
5.8257174409448815
21
-6.0758573622047241
0
LINE
8
BLACK
6
CONTINUOUS
10
5.8257174409448815
20
-6.0758573622047241
11
5.8235838582677166
21
-6.0726642125984247
0
LINE
8
BLACK
6
CONTINUOUS
10
5.8235838582677166
20
-6.0726642125984247
11
5.8228346456692908
21
-6.068897637795275
0
LINE
8
BLACK
6
CONTINUOUS
10
5.8228346456692908
20
-6.068897637795275
11
5.8228346456692908
21
-6.0334645669291334
0
LINE
8
BLACK
6
CONTINUOUS
10
5.8228346456692908
20
-6.0334645669291334
11
5.8235838582677166
21
-6.0296979921259837
0
LINE
8
BLACK
6
CONTINUOUS
10
5.8235838582677166
20
-6.0296979921259837
11
5.8257174409448815
21
-6.0265048425196852
0
LINE
8
BLACK
6
CONTINUOUS
10
5.8257174409448815
20
-6.0265048425196852
11
5.8289105905511809
21
-6.0243712598425194
0
LINE
8
BLACK
6
CONTINUOUS
10
5.8289105905511809
20
-6.0243712598425194
11
5.8326771653543306
21
-6.0236220472440944
0
LINE
8
BLACK
6
CONTINUOUS
10
5.8326771653543306
20
-6.0236220472440944
11
5.853346456692913
21
-6.0236220472440944
0
LINE
8
BLACK
6
CONTINUOUS
10
5.853346456692913
20
-6.0236220472440944
11
5.8571130314960627
21
-6.0243712598425194
0
LINE
8
BLACK
6
CONTINUOUS
10
5.7212560236220469
20
-6.0398196062992122
11
5.7231718897637798
21
-6.0410997637795276
0
LINE
8
BLACK
6
CONTINUOUS
10
5.7231718897637798
20
-6.0410997637795276
11
5.7244520472440943
21
-6.0430156299212596
0
LINE
8
BLACK
6
CONTINUOUS
10
5.7244520472440943
20
-6.0430156299212596
11
5.7249015748031491
21
-6.0452755905511806
0
LINE
8
BLACK
6
CONTINUOUS
10
5.7249015748031491
20
-6.0452755905511806
11
5.7249015748031491
21
-6.0570866141732278
0
LINE
8
BLACK
6
CONTINUOUS
10
5.7249015748031491
20
-6.0570866141732278
11
5.7244520472440943
21
-6.0593465748031496
0
LINE
8
BLACK
6
CONTINUOUS
10
5.7244520472440943
20
-6.0593465748031496
11
5.7231718897637798
21
-6.0612624409448816
0
LINE
8
BLACK
6
CONTINUOUS
10
5.7231718897637798
20
-6.0612624409448816
11
5.7212560236220469
21
-6.062542598425197
0
LINE
8
BLACK
6
CONTINUOUS
10
5.7212560236220469
20
-6.062542598425197
11
5.7189960629921259
21
-6.0629921259842519
0
LINE
8
BLACK
6
CONTINUOUS
10
5.7189960629921259
20
-6.0629921259842519
11
5.6786417322834648
21
-6.0629921259842519
0
LINE
8
BLACK
6
CONTINUOUS
10
5.6786417322834648
20
-6.0629921259842519
11
5.676381771653543
21
-6.062542598425197
0
LINE
8
BLACK
6
CONTINUOUS
10
5.676381771653543
20
-6.062542598425197
11
5.674465905511811
21
-6.0612624409448816
0
LINE
8
BLACK
6
CONTINUOUS
10
5.674465905511811
20
-6.0612624409448816
11
5.6731857480314956
21
-6.0593465748031496
0
LINE
8
BLACK
6
CONTINUOUS
10
5.6731857480314956
20
-6.0593465748031496
11
5.6727362204724407
21
-6.0570866141732278
0
LINE
8
BLACK
6
CONTINUOUS
10
5.6727362204724407
20
-6.0570866141732278
11
5.6727362204724407
21
-6.0452755905511806
0
LINE
8
BLACK
6
CONTINUOUS
10
5.6727362204724407
20
-6.0452755905511806
11
5.6731857480314956
21
-6.0430156299212596
0
LINE
8
BLACK
6
CONTINUOUS
10
5.6731857480314956
20
-6.0430156299212596
11
5.674465905511811
21
-6.0410997637795276
0
LINE
8
BLACK
6
CONTINUOUS
10
5.674465905511811
20
-6.0410997637795276
11
5.676381771653543
21
-6.0398196062992122
0
LINE
8
BLACK
6
CONTINUOUS
10
5.676381771653543
20
-6.0398196062992122
11
5.6786417322834648
21
-6.0393700787401574
0
LINE
8
BLACK
6
CONTINUOUS
10
5.6786417322834648
20
-6.0393700787401574
11
5.7189960629921259
21
-6.0393700787401574
0
LINE
8
BLACK
6
CONTINUOUS
10
5.7189960629921259
20
-6.0393700787401574
11
5.7212560236220469
21
-6.0398196062992122
0
LINE
8
BLACK
6
CONTINUOUS
10
5.6316890944881886
20
-6.0024180314960631
11
5.6336049606299214
21
-6.0036981889763776
0
LINE
8
BLACK
6
CONTINUOUS
10
5.6336049606299214
20
-6.0036981889763776
11
5.634885118110236
21
-6.0056140551181105
0
LINE
8
BLACK
6
CONTINUOUS
10
5.634885118110236
20
-6.0056140551181105
11
5.6353346456692917
21
-6.0078740157480315
0
LINE
8
BLACK
6
CONTINUOUS
10
5.6353346456692917
20
-6.0078740157480315
11
5.6353346456692917
21
-6.0196850393700787
0
LINE
8
BLACK
6
CONTINUOUS
10
5.6353346456692917
20
-6.0196850393700787
11
5.634885118110236
21
-6.0219449999999997
0
LINE
8
BLACK
6
CONTINUOUS
10
5.634885118110236
20
-6.0219449999999997
11
5.6336049606299214
21
-6.0238608661417326
0
LINE
8
BLACK
6
CONTINUOUS
10
5.6336049606299214
20
-6.0238608661417326
11
5.6316890944881886
21
-6.0251410236220471
0
LINE
8
BLACK
6
CONTINUOUS
10
5.6316890944881886
20
-6.0251410236220471
11
5.6294291338582676
21
-6.0255905511811019
0
LINE
8
BLACK
6
CONTINUOUS
10
5.6294291338582676
20
-6.0255905511811019
11
5.5890748031496065
21
-6.0255905511811019
0
LINE
8
BLACK
6
CONTINUOUS
10
5.5890748031496065
20
-6.0255905511811019
11
5.5868148425196846
21
-6.0251410236220471
0
LINE
8
BLACK
6
CONTINUOUS
10
5.5868148425196846
20
-6.0251410236220471
11
5.5848989763779526
21
-6.0238608661417326
0
LINE
8
BLACK
6
CONTINUOUS
10
5.5848989763779526
20
-6.0238608661417326
11
5.5836188188976372
21
-6.0219449999999997
0
LINE
8
BLACK
6
CONTINUOUS
10
5.5836188188976372
20
-6.0219449999999997
11
5.5831692913385824
21
-6.0196850393700787
0
LINE
8
BLACK
6
CONTINUOUS
10
5.5831692913385824
20
-6.0196850393700787
11
5.5831692913385824
21
-6.0078740157480315
0
LINE
8
BLACK
6
CONTINUOUS
10
5.5831692913385824
20
-6.0078740157480315
11
5.5836188188976372
21
-6.0056140551181105
0
LINE
8
BLACK
6
CONTINUOUS
10
5.5836188188976372
20
-6.0056140551181105
11
5.5848989763779526
21
-6.0036981889763776
0
LINE
8
BLACK
6
CONTINUOUS
10
5.5848989763779526
20
-6.0036981889763776
11
5.5868148425196846
21
-6.0024180314960631
0
LINE
8
BLACK
6
CONTINUOUS
10
5.5868148425196846
20
-6.0024180314960631
11
5.5890748031496065
21
-6.0019685039370074
0
LINE
8
BLACK
6
CONTINUOUS
10
5.5890748031496065
20
-6.0019685039370074
11
5.6294291338582676
21
-6.0019685039370074
0
LINE
8
BLACK
6
CONTINUOUS
10
5.6294291338582676
20
-6.0019685039370074
11
5.6316890944881886
21
-6.0024180314960631
0
LINE
8
BLACK
6
CONTINUOUS
10
5.1919291338582676
20
-6.0216535433070861
11
5.1525590551181102
21
-6.0216535433070861
0
LINE
8
BLACK
6
CONTINUOUS
10
5.1525590551181102
20
-6.0216535433070861
11
5.1525590551181102
21
-5.9862204724409445
0
LINE
8
BLACK
6
CONTINUOUS
10
5.1525590551181102
20
-5.9862204724409445
11
5.1919291338582676
21
-5.9862204724409445
0
LINE
8
BLACK
6
CONTINUOUS
10
5.1919291338582676
20
-5.9862204724409445
11
5.1919291338582676
21
-6.0216535433070861
0
LINE
8
BLACK
6
CONTINUOUS
10
5.3359516141732284
20
-5.9554736220472444
11
5.3391447637795277
21
-5.9576072047244093
0
LINE
8
BLACK
6
CONTINUOUS
10
5.3391447637795277
20
-5.9576072047244093
11
5.3412783464566926
21
-5.9608003543307087
0
LINE
8
BLACK
6
CONTINUOUS
10
5.3412783464566926
20
-5.9608003543307087
11
5.3420275590551176
21
-5.9645669291338583
0
LINE
8
BLACK
6
CONTINUOUS
10
5.3420275590551176
20
-5.9645669291338583
11
5.3420275590551176
21
-6.
0
LINE
8
BLACK
6
CONTINUOUS
10
5.3420275590551176
20
-6.
11
5.3412783464566926
21
-6.0037665748031497
0
LINE
8
BLACK
6
CONTINUOUS
10
5.3412783464566926
20
-6.0037665748031497
11
5.3391447637795277
21
-6.006959724409449
0
LINE
8
BLACK
6
CONTINUOUS
10
5.3391447637795277
20
-6.006959724409449
11
5.3359516141732284
21
-6.0090933070866139
0
LINE
8
BLACK
6
CONTINUOUS
10
5.3359516141732284
20
-6.0090933070866139
11
5.3321850393700787
21
-6.0098425196850389
0
LINE
8
BLACK
6
CONTINUOUS
10
5.3321850393700787
20
-6.0098425196850389
11
5.3115157480314963
21
-6.0098425196850389
0
LINE
8
BLACK
6
CONTINUOUS
10
5.3115157480314963
20
-6.0098425196850389
11
5.3077491732283466
21
-6.0090933070866139
0
LINE
8
BLACK
6
CONTINUOUS
10
5.3077491732283466
20
-6.0090933070866139
11
5.3045560236220473
21
-6.006959724409449
0
LINE
8
BLACK
6
CONTINUOUS
10
5.3045560236220473
20
-6.006959724409449
11
5.3024224409448815
21
-6.0037665748031497
0
LINE
8
BLACK
6
CONTINUOUS
10
5.3024224409448815
20
-6.0037665748031497
11
5.3016732283464565
21
-6.
0
LINE
8
BLACK
6
CONTINUOUS
10
5.3016732283464565
20
-6.
11
5.3016732283464565
21
-5.9645669291338583
0
LINE
8
BLACK
6
CONTINUOUS
10
5.3016732283464565
20
-5.9645669291338583
11
5.3024224409448815
21
-5.9608003543307087
0
LINE
8
BLACK
6
CONTINUOUS
10
5.3024224409448815
20
-5.9608003543307087
11
5.3045560236220473
21
-5.9576072047244093
0
LINE
8
BLACK
6
CONTINUOUS
10
5.3045560236220473
20
-5.9576072047244093
11
5.3077491732283466
21
-5.9554736220472444
0
LINE
8
BLACK
6
CONTINUOUS
10
5.3077491732283466
20
-5.9554736220472444
11
5.3115157480314963
21
-5.9547244094488185
0
LINE
8
BLACK
6
CONTINUOUS
10
5.3115157480314963
20
-5.9547244094488185
11
5.3321850393700787
21
-5.9547244094488185
0
LINE
8
BLACK
6
CONTINUOUS
10
5.3321850393700787
20
-5.9547244094488185
11
5.3359516141732284
21
-5.9554736220472444
0
LINE
8
BLACK
6
CONTINUOUS
10
5.4078020078740154
20
-5.9554736220472444
11
5.4109951574803148
21
-5.9576072047244093
0
LINE
8
BLACK
6
CONTINUOUS
10
5.4109951574803148
20
-5.9576072047244093
11
5.4131287401574806
21
-5.9608003543307087
0
LINE
8
BLACK
6
CONTINUOUS
10
5.4131287401574806
20
-5.9608003543307087
11
5.4138779527559056
21
-5.9645669291338583
0
LINE
8
BLACK
6
CONTINUOUS
10
5.4138779527559056
20
-5.9645669291338583
11
5.4138779527559056
21
-6.
0
LINE
8
BLACK
6
CONTINUOUS
10
5.4138779527559056
20
-6.
11
5.4131287401574806
21
-6.0037665748031497
0
LINE
8
BLACK
6
CONTINUOUS
10
5.4131287401574806
20
-6.0037665748031497
11
5.4109951574803148
21
-6.006959724409449
0
LINE
8
BLACK
6
CONTINUOUS
10
5.4109951574803148
20
-6.006959724409449
11
5.4078020078740154
21
-6.0090933070866139
0
LINE
8
BLACK
6
CONTINUOUS
10
5.4078020078740154
20
-6.0090933070866139
11
5.4040354330708658
21
-6.0098425196850389
0
LINE
8
BLACK
6
CONTINUOUS
10
5.4040354330708658
20
-6.0098425196850389
11
5.3833661417322833
21
-6.0098425196850389
0
LINE
8
BLACK
6
CONTINUOUS
10
5.3833661417322833
20
-6.0098425196850389
11
5.3795995669291337
21
-6.0090933070866139
0
LINE
8
BLACK
6
CONTINUOUS
10
5.3795995669291337
20
-6.0090933070866139
11
5.3764064173228343
21
-6.006959724409449
0
LINE
8
BLACK
6
CONTINUOUS
10
5.3764064173228343
20
-6.006959724409449
11
5.3742728346456694
21
-6.0037665748031497
0
LINE
8
BLACK
6
CONTINUOUS
10
5.3742728346456694
20
-6.0037665748031497
11
5.3735236220472435
21
-6.
0
LINE
8
BLACK
6
CONTINUOUS
10
5.3735236220472435
20
-6.
11
5.3735236220472435
21
-5.9645669291338583
0
LINE
8
BLACK
6
CONTINUOUS
10
5.3735236220472435
20
-5.9645669291338583
11
5.3742728346456694
21
-5.9608003543307087
0
LINE
8
BLACK
6
CONTINUOUS
10
5.3742728346456694
20
-5.9608003543307087
11
5.3764064173228343
21
-5.9576072047244093
0
LINE
8
BLACK
6
CONTINUOUS
10
5.3764064173228343
20
-5.9576072047244093
11
5.3795995669291337
21
-5.9554736220472444
0
LINE
8
BLACK
6
CONTINUOUS
10
5.3795995669291337
20
-5.9554736220472444
11
5.3833661417322833
21
-5.9547244094488185
0
LINE
8
BLACK
6
CONTINUOUS
10
5.3833661417322833
20
-5.9547244094488185
11
5.4040354330708658
21
-5.9547244094488185
0
LINE
8
BLACK
6
CONTINUOUS
10
5.4040354330708658
20
-5.9547244094488185
11
5.4078020078740154
21
-5.9554736220472444
0
LINE
8
BLACK
6
CONTINUOUS
10
5.7212560236220469
20
-5.9650164566929131
11
5.7231718897637798
21
-5.9662966141732285
0
LINE
8
BLACK
6
CONTINUOUS
10
5.7231718897637798
20
-5.9662966141732285
11
5.7244520472440943
21
-5.9682124803149605
0
LINE
8
BLACK
6
CONTINUOUS
10
5.7244520472440943
20
-5.9682124803149605
11
5.7249015748031491
21
-5.9704724409448815
0
LINE
8
BLACK
6
CONTINUOUS
10
5.7249015748031491
20
-5.9704724409448815
11
5.7249015748031491
21
-5.9822834645669287
0
LINE
8
BLACK
6
CONTINUOUS
10
5.7249015748031491
20
-5.9822834645669287
11
5.7244520472440943
21
-5.9845434251968506
0
LINE
8
BLACK
6
CONTINUOUS
10
5.7244520472440943
20
-5.9845434251968506
11
5.7231718897637798
21
-5.9864592913385826
0
LINE
8
BLACK
6
CONTINUOUS
10
5.7231718897637798
20
-5.9864592913385826
11
5.7212560236220469
21
-5.9877394488188971
0
LINE
8
BLACK
6
CONTINUOUS
10
5.7212560236220469
20
-5.9877394488188971
11
5.7189960629921259
21
-5.9881889763779528
0
LINE
8
BLACK
6
CONTINUOUS
10
5.7189960629921259
20
-5.9881889763779528
11
5.6786417322834648
21
-5.9881889763779528
0
LINE
8
BLACK
6
CONTINUOUS
10
5.6786417322834648
20
-5.9881889763779528
11
5.676381771653543
21
-5.9877394488188971
0
LINE
8
BLACK
6
CONTINUOUS
10
5.676381771653543
20
-5.9877394488188971
11
5.674465905511811
21
-5.9864592913385826
0
LINE
8
BLACK
6
CONTINUOUS
10
5.674465905511811
20
-5.9864592913385826
11
5.6731857480314956
21
-5.9845434251968506
0
LINE
8
BLACK
6
CONTINUOUS
10
5.6731857480314956
20
-5.9845434251968506
11
5.6727362204724407
21
-5.9822834645669287
0
LINE
8
BLACK
6
CONTINUOUS
10
5.6727362204724407
20
-5.9822834645669287
11
5.6727362204724407
21
-5.9704724409448815
0
LINE
8
BLACK
6
CONTINUOUS
10
5.6727362204724407
20
-5.9704724409448815
11
5.6731857480314956
21
-5.9682124803149605
0
LINE
8
BLACK
6
CONTINUOUS
10
5.6731857480314956
20
-5.9682124803149605
11
5.674465905511811
21
-5.9662966141732285
0
LINE
8
BLACK
6
CONTINUOUS
10
5.674465905511811
20
-5.9662966141732285
11
5.676381771653543
21
-5.9650164566929131
0
LINE
8
BLACK
6
CONTINUOUS
10
5.676381771653543
20
-5.9650164566929131
11
5.6786417322834648
21
-5.9645669291338583
0
LINE
8
BLACK
6
CONTINUOUS
10
5.6786417322834648
20
-5.9645669291338583
11
5.7189960629921259
21
-5.9645669291338583
0
LINE
8
BLACK
6
CONTINUOUS
10
5.7189960629921259
20
-5.9645669291338583
11
5.7212560236220469
21
-5.9650164566929131
0
LINE
8
BLACK
6
CONTINUOUS
10
5.1919291338582676
20
-5.9586614173228343
11
5.1525590551181102
21
-5.9586614173228343
0
LINE
8
BLACK
6
CONTINUOUS
10
5.1525590551181102
20
-5.9586614173228343
11
5.1525590551181102
21
-5.9232283464566926
0
LINE
8
BLACK
6
CONTINUOUS
10
5.1525590551181102
20
-5.9232283464566926
11
5.1919291338582676
21
-5.9232283464566926
0
LINE
8
BLACK
6
CONTINUOUS
10
5.1919291338582676
20
-5.9232283464566926
11
5.1919291338582676
21
-5.9586614173228343
0
LINE
8
BLACK
6
CONTINUOUS
10
5.7163649999999997
20
-5.7684657480314963
11
5.719558149606299
21
-5.7705993307086612
0
LINE
8
BLACK
6
CONTINUOUS
10
5.719558149606299
20
-5.7705993307086612
11
5.7216917322834648
21
-5.7737924803149605
0
LINE
8
BLACK
6
CONTINUOUS
10
5.7216917322834648
20
-5.7737924803149605
11
5.7224409448818898
21
-5.7775590551181102
0
LINE
8
BLACK
6
CONTINUOUS
10
5.7224409448818898
20
-5.7775590551181102
11
5.7224409448818898
21
-5.8129921259842519
0
LINE
8
BLACK
6
CONTINUOUS
10
5.7224409448818898
20
-5.8129921259842519
11
5.7216917322834648
21
-5.8167587007874015
0
LINE
8
BLACK
6
CONTINUOUS
10
5.7216917322834648
20
-5.8167587007874015
11
5.719558149606299
21
-5.8199518503937009
0
LINE
8
BLACK
6
CONTINUOUS
10
5.719558149606299
20
-5.8199518503937009
11
5.7163649999999997
21
-5.8220854330708658
0
LINE
8
BLACK
6
CONTINUOUS
10
5.7163649999999997
20
-5.8220854330708658
11
5.71259842519685
21
-5.8228346456692908
0
LINE
8
BLACK
6
CONTINUOUS
10
5.71259842519685
20
-5.8228346456692908
11
5.6919291338582676
21
-5.8228346456692908
0
LINE
8
BLACK
6
CONTINUOUS
10
5.6919291338582676
20
-5.8228346456692908
11
5.6881625590551179
21
-5.8220854330708658
0
LINE
8
BLACK
6
CONTINUOUS
10
5.6881625590551179
20
-5.8220854330708658
11
5.6849694094488186
21
-5.8199518503937009
0
LINE
8
BLACK
6
CONTINUOUS
10
5.6849694094488186
20
-5.8199518503937009
11
5.6828358267716537
21
-5.8167587007874015
0
LINE
8
BLACK
6
CONTINUOUS
10
5.6828358267716537
20
-5.8167587007874015
11
5.6820866141732278
21
-5.8129921259842519
0
LINE
8
BLACK
6
CONTINUOUS
10
5.6820866141732278
20
-5.8129921259842519
11
5.6820866141732278
21
-5.7775590551181102
0
LINE
8
BLACK
6
CONTINUOUS
10
5.6820866141732278
20
-5.7775590551181102
11
5.6828358267716537
21
-5.7737924803149605
0
LINE
8
BLACK
6
CONTINUOUS
10
5.6828358267716537
20
-5.7737924803149605
11
5.6849694094488186
21
-5.7705993307086612
0
LINE
8
BLACK
6
CONTINUOUS
10
5.6849694094488186
20
-5.7705993307086612
11
5.6881625590551179
21
-5.7684657480314963
0
LINE
8
BLACK
6
CONTINUOUS
10
5.6881625590551179
20
-5.7684657480314963
11
5.6919291338582676
21
-5.7677165354330704
0
LINE
8
BLACK
6
CONTINUOUS
10
5.6919291338582676
20
-5.7677165354330704
11
5.71259842519685
21
-5.7677165354330704
0
LINE
8
BLACK
6
CONTINUOUS
10
5.71259842519685
20
-5.7677165354330704
11
5.7163649999999997
21
-5.7684657480314963
0
LINE
8
BLACK
6
CONTINUOUS
10
5.7882153937007876
20
-5.7684657480314963
11
5.7914085433070861
21
-5.7705993307086612
0
LINE
8
BLACK
6
CONTINUOUS
10
5.7914085433070861
20
-5.7705993307086612
11
5.7935421259842519
21
-5.7737924803149605
0
LINE
8
BLACK
6
CONTINUOUS
10
5.7935421259842519
20
-5.7737924803149605
11
5.7942913385826769
21
-5.7775590551181102
0
LINE
8
BLACK
6
CONTINUOUS
10
5.7942913385826769
20
-5.7775590551181102
11
5.7942913385826769
21
-5.8129921259842519
0
LINE
8
BLACK
6
CONTINUOUS
10
5.7942913385826769
20
-5.8129921259842519
11
5.7935421259842519
21
-5.8167587007874015
0
LINE
8
BLACK
6
CONTINUOUS
10
5.7935421259842519
20
-5.8167587007874015
11
5.7914085433070861
21
-5.8199518503937009
0
LINE
8
BLACK
6
CONTINUOUS
10
5.7914085433070861
20
-5.8199518503937009
11
5.7882153937007876
21
-5.8220854330708658
0
LINE
8
BLACK
6
CONTINUOUS
10
5.7882153937007876
20
-5.8220854330708658
11
5.784448818897638
21
-5.8228346456692908
0
LINE
8
BLACK
6
CONTINUOUS
10
5.784448818897638
20
-5.8228346456692908
11
5.7637795275590546
21
-5.8228346456692908
0
LINE
8
BLACK
6
CONTINUOUS
10
5.7637795275590546
20
-5.8228346456692908
11
5.760012952755905
21
-5.8220854330708658
0
LINE
8
BLACK
6
CONTINUOUS
10
5.760012952755905
20
-5.8220854330708658
11
5.7568198031496065
21
-5.8199518503937009
0
LINE
8
BLACK
6
CONTINUOUS
10
5.7568198031496065
20
-5.8199518503937009
11
5.7546862204724407
21
-5.8167587007874015
0
LINE
8
BLACK
6
CONTINUOUS
10
5.7546862204724407
20
-5.8167587007874015
11
5.7539370078740157
21
-5.8129921259842519
0
LINE
8
BLACK
6
CONTINUOUS
10
5.7539370078740157
20
-5.8129921259842519
11
5.7539370078740157
21
-5.7775590551181102
0
LINE
8
BLACK
6
CONTINUOUS
10
5.7539370078740157
20
-5.7775590551181102
11
5.7546862204724407
21
-5.7737924803149605
0
LINE
8
BLACK
6
CONTINUOUS
10
5.7546862204724407
20
-5.7737924803149605
11
5.7568198031496065
21
-5.7705993307086612
0
LINE
8
BLACK
6
CONTINUOUS
10
5.7568198031496065
20
-5.7705993307086612
11
5.760012952755905
21
-5.7684657480314963
0
LINE
8
BLACK
6
CONTINUOUS
10
5.760012952755905
20
-5.7684657480314963
11
5.7637795275590546
21
-5.7677165354330704
0
LINE
8
BLACK
6
CONTINUOUS
10
5.7637795275590546
20
-5.7677165354330704
11
5.784448818897638
21
-5.7677165354330704
0
LINE
8
BLACK
6
CONTINUOUS
10
5.784448818897638
20
-5.7677165354330704
11
5.7882153937007876
21
-5.7684657480314963
0
LINE
8
BLACK
6
CONTINUOUS
10
5.6479292519685034
20
-5.7858825984251965
11
5.6498451181102363
21
-5.7871627559055119
0
LINE
8
BLACK
6
CONTINUOUS
10
5.6498451181102363
20
-5.7871627559055119
11
5.6511252755905508
21
-5.7890786220472439
0
LINE
8
BLACK
6
CONTINUOUS
10
5.6511252755905508
20
-5.7890786220472439
11
5.6515748031496065
21
-5.7913385826771648
0
LINE
8
BLACK
6
CONTINUOUS
10
5.6515748031496065
20
-5.7913385826771648
11
5.6515748031496065
21
-5.8031496062992121
0
LINE
8
BLACK
6
CONTINUOUS
10
5.6515748031496065
20
-5.8031496062992121
11
5.6511252755905508
21
-5.8054095669291339
0
LINE
8
BLACK
6
CONTINUOUS
10
5.6511252755905508
20
-5.8054095669291339
11
5.6498451181102363
21
-5.8073254330708659
0
LINE
8
BLACK
6
CONTINUOUS
10
5.6498451181102363
20
-5.8073254330708659
11
5.6479292519685034
21
-5.8086055905511813
0
LINE
8
BLACK
6
CONTINUOUS
10
5.6479292519685034
20
-5.8086055905511813
11
5.6456692913385824
21
-5.8090551181102361
0
LINE
8
BLACK
6
CONTINUOUS
10
5.6456692913385824
20
-5.8090551181102361
11
5.6053149606299213
21
-5.8090551181102361
0
LINE
8
BLACK
6
CONTINUOUS
10
5.6053149606299213
20
-5.8090551181102361
11
5.6030549999999995
21
-5.8086055905511813
0
LINE
8
BLACK
6
CONTINUOUS
10
5.6030549999999995
20
-5.8086055905511813
11
5.6011391338582674
21
-5.8073254330708659
0
LINE
8
BLACK
6
CONTINUOUS
10
5.6011391338582674
20
-5.8073254330708659
11
5.5998589763779529
21
-5.8054095669291339
0
LINE
8
BLACK
6
CONTINUOUS
10
5.5998589763779529
20
-5.8054095669291339
11
5.5994094488188972
21
-5.8031496062992121
0
LINE
8
BLACK
6
CONTINUOUS
10
5.5994094488188972
20
-5.8031496062992121
11
5.5994094488188972
21
-5.7913385826771648
0
LINE
8
BLACK
6
CONTINUOUS
10
5.5994094488188972
20
-5.7913385826771648
11
5.5998589763779529
21
-5.7890786220472439
0
LINE
8
BLACK
6
CONTINUOUS
10
5.5998589763779529
20
-5.7890786220472439
11
5.6011391338582674
21
-5.7871627559055119
0
LINE
8
BLACK
6
CONTINUOUS
10
5.6011391338582674
20
-5.7871627559055119
11
5.6030549999999995
21
-5.7858825984251965
0
LINE
8
BLACK
6
CONTINUOUS
10
5.6030549999999995
20
-5.7858825984251965
11
5.6053149606299213
21
-5.7854330708661417
0
LINE
8
BLACK
6
CONTINUOUS
10
5.6053149606299213
20
-5.7854330708661417
11
5.6456692913385824
21
-5.7854330708661417
0
LINE
8
BLACK
6
CONTINUOUS
10
5.6456692913385824
20
-5.7854330708661417
11
5.6479292519685034
21
-5.7858825984251965
0
LINE
8
BLACK
6
CONTINUOUS
10
5.1870078740157481
20
-5.7854330708661417
11
5.1476377952755907
21
-5.7854330708661417
0
LINE
8
BLACK
6
CONTINUOUS
10
5.1476377952755907
20
-5.7854330708661417
11
5.1476377952755907
21
-5.75
0
LINE
8
BLACK
6
CONTINUOUS
10
5.1476377952755907
20
-5.75
11
5.1870078740157481
21
-5.75
0
LINE
8
BLACK
6
CONTINUOUS
10
5.1870078740157481
20
-5.75
11
5.1870078740157481
21
-5.7854330708661417
0
LINE
8
BLACK
6
CONTINUOUS
10
5.3226642125984247
20
-5.719253149606299
11
5.3258573622047241
21
-5.7213867322834648
0
LINE
8
BLACK
6
CONTINUOUS
10
5.3258573622047241
20
-5.7213867322834648
11
5.3279909448818898
21
-5.7245798818897633
0
LINE
8
BLACK
6
CONTINUOUS
10
5.3279909448818898
20
-5.7245798818897633
11
5.3287401574803148
21
-5.728346456692913
0
LINE
8
BLACK
6
CONTINUOUS
10
5.3287401574803148
20
-5.728346456692913
11
5.3287401574803148
21
-5.7637795275590546
0
LINE
8
BLACK
6
CONTINUOUS
10
5.3287401574803148
20
-5.7637795275590546
11
5.3279909448818898
21
-5.7675461023622043
0
LINE
8
BLACK
6
CONTINUOUS
10
5.3279909448818898
20
-5.7675461023622043
11
5.3258573622047241
21
-5.7707392519685037
0
LINE
8
BLACK
6
CONTINUOUS
10
5.3258573622047241
20
-5.7707392519685037
11
5.3226642125984247
21
-5.7728728346456695
0
LINE
8
BLACK
6
CONTINUOUS
10
5.3226642125984247
20
-5.7728728346456695
11
5.3188976377952759
21
-5.7736220472440944
0
LINE
8
BLACK
6
CONTINUOUS
10
5.3188976377952759
20
-5.7736220472440944
11
5.2982283464566926
21
-5.7736220472440944
0
LINE
8
BLACK
6
CONTINUOUS
10
5.2982283464566926
20
-5.7736220472440944
11
5.2944617716535429
21
-5.7728728346456695
0
LINE
8
BLACK
6
CONTINUOUS
10
5.2944617716535429
20
-5.7728728346456695
11
5.2912686220472436
21
-5.7707392519685037
0
LINE
8
BLACK
6
CONTINUOUS
10
5.2912686220472436
20
-5.7707392519685037
11
5.2891350393700787
21
-5.7675461023622043
0
LINE
8
BLACK
6
CONTINUOUS
10
5.2891350393700787
20
-5.7675461023622043
11
5.2883858267716537
21
-5.7637795275590546
0
LINE
8
BLACK
6
CONTINUOUS
10
5.2883858267716537
20
-5.7637795275590546
11
5.2883858267716537
21
-5.728346456692913
0
LINE
8
BLACK
6
CONTINUOUS
10
5.2883858267716537
20
-5.728346456692913
11
5.2891350393700787
21
-5.7245798818897633
0
LINE
8
BLACK
6
CONTINUOUS
10
5.2891350393700787
20
-5.7245798818897633
11
5.2912686220472436
21
-5.7213867322834648
0
LINE
8
BLACK
6
CONTINUOUS
10
5.2912686220472436
20
-5.7213867322834648
11
5.2944617716535429
21
-5.719253149606299
0
LINE
8
BLACK
6
CONTINUOUS
10
5.2944617716535429
20
-5.719253149606299
11
5.2982283464566926
21
-5.7185039370078741
0
LINE
8
BLACK
6
CONTINUOUS
10
5.2982283464566926
20
-5.7185039370078741
11
5.3188976377952759
21
-5.7185039370078741
0
LINE
8
BLACK
6
CONTINUOUS
10
5.3188976377952759
20
-5.7185039370078741
11
5.3226642125984247
21
-5.719253149606299
0
LINE
8
BLACK
6
CONTINUOUS
10
5.3945146062992126
20
-5.719253149606299
11
5.397707755905512
21
-5.7213867322834648
0
LINE
8
BLACK
6
CONTINUOUS
10
5.397707755905512
20
-5.7213867322834648
11
5.3998413385826769
21
-5.7245798818897633
0
LINE
8
BLACK
6
CONTINUOUS
10
5.3998413385826769
20
-5.7245798818897633
11
5.4005905511811019
21
-5.728346456692913
0
LINE
8
BLACK
6
CONTINUOUS
10
5.4005905511811019
20
-5.728346456692913
11
5.4005905511811019
21
-5.7637795275590546
0
LINE
8
BLACK
6
CONTINUOUS
10
5.4005905511811019
20
-5.7637795275590546
11
5.3998413385826769
21
-5.7675461023622043
0
LINE
8
BLACK
6
CONTINUOUS
10
5.3998413385826769
20
-5.7675461023622043
11
5.397707755905512
21
-5.7707392519685037
0
LINE
8
BLACK
6
CONTINUOUS
10
5.397707755905512
20
-5.7707392519685037
11
5.3945146062992126
21
-5.7728728346456695
0
LINE
8
BLACK
6
CONTINUOUS
10
5.3945146062992126
20
-5.7728728346456695
11
5.390748031496063
21
-5.7736220472440944
0
LINE
8
BLACK
6
CONTINUOUS
10
5.390748031496063
20
-5.7736220472440944
11
5.3700787401574805
21
-5.7736220472440944
0
LINE
8
BLACK
6
CONTINUOUS
10
5.3700787401574805
20
-5.7736220472440944
11
5.3663121653543309
21
-5.7728728346456695
0
LINE
8
BLACK
6
CONTINUOUS
10
5.3663121653543309
20
-5.7728728346456695
11
5.3631190157480315
21
-5.7707392519685037
0
LINE
8
BLACK
6
CONTINUOUS
10
5.3631190157480315
20
-5.7707392519685037
11
5.3609854330708657
21
-5.7675461023622043
0
LINE
8
BLACK
6
CONTINUOUS
10
5.3609854330708657
20
-5.7675461023622043
11
5.3602362204724407
21
-5.7637795275590546
0
LINE
8
BLACK
6
CONTINUOUS
10
5.3602362204724407
20
-5.7637795275590546
11
5.3602362204724407
21
-5.728346456692913
0
LINE
8
BLACK
6
CONTINUOUS
10
5.3602362204724407
20
-5.728346456692913
11
5.3609854330708657
21
-5.7245798818897633
0
LINE
8
BLACK
6
CONTINUOUS
10
5.3609854330708657
20
-5.7245798818897633
11
5.3631190157480315
21
-5.7213867322834648
0
LINE
8
BLACK
6
CONTINUOUS
10
5.3631190157480315
20
-5.7213867322834648
11
5.3663121653543309
21
-5.719253149606299
0
LINE
8
BLACK
6
CONTINUOUS
10
5.3663121653543309
20
-5.719253149606299
11
5.3700787401574805
21
-5.7185039370078741
0
LINE
8
BLACK
6
CONTINUOUS
10
5.3700787401574805
20
-5.7185039370078741
11
5.390748031496063
21
-5.7185039370078741
0
LINE
8
BLACK
6
CONTINUOUS
10
5.390748031496063
20
-5.7185039370078741
11
5.3945146062992126
21
-5.719253149606299
0
LINE
8
BLACK
6
CONTINUOUS
10
5.5583623228346459
20
-5.7484810236220474
11
5.5602781889763779
21
-5.7497611811023619
0
LINE
8
BLACK
6
CONTINUOUS
10
5.5602781889763779
20
-5.7497611811023619
11
5.5615583464566924
21
-5.7516770472440948
0
LINE
8
BLACK
6
CONTINUOUS
10
5.5615583464566924
20
-5.7516770472440948
11
5.5620078740157481
21
-5.7539370078740157
0
LINE
8
BLACK
6
CONTINUOUS
10
5.5620078740157481
20
-5.7539370078740157
11
5.5620078740157481
21
-5.765748031496063
0
LINE
8
BLACK
6
CONTINUOUS
10
5.5620078740157481
20
-5.765748031496063
11
5.5615583464566924
21
-5.7680079921259839
0
LINE
8
BLACK
6
CONTINUOUS
10
5.5615583464566924
20
-5.7680079921259839
11
5.5602781889763779
21
-5.7699238582677168
0
LINE
8
BLACK
6
CONTINUOUS
10
5.5602781889763779
20
-5.7699238582677168
11
5.5583623228346459
21
-5.7712040157480313
0
LINE
8
BLACK
6
CONTINUOUS
10
5.5583623228346459
20
-5.7712040157480313
11
5.5561023622047241
21
-5.7716535433070861
0
LINE
8
BLACK
6
CONTINUOUS
10
5.5561023622047241
20
-5.7716535433070861
11
5.515748031496063
21
-5.7716535433070861
0
LINE
8
BLACK
6
CONTINUOUS
10
5.515748031496063
20
-5.7716535433070861
11
5.513488070866142
21
-5.7712040157480313
0
LINE
8
BLACK
6
CONTINUOUS
10
5.513488070866142
20
-5.7712040157480313
11
5.5115722047244091
21
-5.7699238582677168
0
LINE
8
BLACK
6
CONTINUOUS
10
5.5115722047244091
20
-5.7699238582677168
11
5.5102920472440946
21
-5.7680079921259839
0
LINE
8
BLACK
6
CONTINUOUS
10
5.5102920472440946
20
-5.7680079921259839
11
5.5098425196850389
21
-5.765748031496063
0
LINE
8
BLACK
6
CONTINUOUS
10
5.5098425196850389
20
-5.765748031496063
11
5.5098425196850389
21
-5.7539370078740157
0
LINE
8
BLACK
6
CONTINUOUS
10
5.5098425196850389
20
-5.7539370078740157
11
5.5102920472440946
21
-5.7516770472440948
0
LINE
8
BLACK
6
CONTINUOUS
10
5.5102920472440946
20
-5.7516770472440948
11
5.5115722047244091
21
-5.7497611811023619
0
LINE
8
BLACK
6
CONTINUOUS
10
5.5115722047244091
20
-5.7497611811023619
11
5.513488070866142
21
-5.7484810236220474
0
LINE
8
BLACK
6
CONTINUOUS
10
5.513488070866142
20
-5.7484810236220474
11
5.515748031496063
21
-5.7480314960629917
0
LINE
8
BLACK
6
CONTINUOUS
10
5.515748031496063
20
-5.7480314960629917
11
5.5561023622047241
21
-5.7480314960629917
0
LINE
8
BLACK
6
CONTINUOUS
10
5.5561023622047241
20
-5.7480314960629917
11
5.5583623228346459
21
-5.7484810236220474
0
LINE
8
BLACK
6
CONTINUOUS
10
5.6479292519685034
20
-5.7110794488188974
11
5.6498451181102363
21
-5.7123596062992128
0
LINE
8
BLACK
6
CONTINUOUS
10
5.6498451181102363
20
-5.7123596062992128
11
5.6511252755905508
21
-5.7142754724409448
0
LINE
8
BLACK
6
CONTINUOUS
10
5.6511252755905508
20
-5.7142754724409448
11
5.6515748031496065
21
-5.7165354330708658
0
LINE
8
BLACK
6
CONTINUOUS
10
5.6515748031496065
20
-5.7165354330708658
11
5.6515748031496065
21
-5.728346456692913
0
LINE
8
BLACK
6
CONTINUOUS
10
5.6515748031496065
20
-5.728346456692913
11
5.6511252755905508
21
-5.7306064173228348
0
LINE
8
BLACK
6
CONTINUOUS
10
5.6511252755905508
20
-5.7306064173228348
11
5.6498451181102363
21
-5.7325222834645668
0
LINE
8
BLACK
6
CONTINUOUS
10
5.6498451181102363
20
-5.7325222834645668
11
5.6479292519685034
21
-5.7338024409448813
0
LINE
8
BLACK
6
CONTINUOUS
10
5.6479292519685034
20
-5.7338024409448813
11
5.6456692913385824
21
-5.734251968503937
0
LINE
8
BLACK
6
CONTINUOUS
10
5.6456692913385824
20
-5.734251968503937
11
5.6053149606299213
21
-5.734251968503937
0
LINE
8
BLACK
6
CONTINUOUS
10
5.6053149606299213
20
-5.734251968503937
11
5.6030549999999995
21
-5.7338024409448813
0
LINE
8
BLACK
6
CONTINUOUS
10
5.6030549999999995
20
-5.7338024409448813
11
5.6011391338582674
21
-5.7325222834645668
0
LINE
8
BLACK
6
CONTINUOUS
10
5.6011391338582674
20
-5.7325222834645668
11
5.5998589763779529
21
-5.7306064173228348
0
LINE
8
BLACK
6
CONTINUOUS
10
5.5998589763779529
20
-5.7306064173228348
11
5.5994094488188972
21
-5.728346456692913
0
LINE
8
BLACK
6
CONTINUOUS
10
5.5994094488188972
20
-5.728346456692913
11
5.5994094488188972
21
-5.7165354330708658
0
LINE
8
BLACK
6
CONTINUOUS
10
5.5994094488188972
20
-5.7165354330708658
11
5.5998589763779529
21
-5.7142754724409448
0
LINE
8
BLACK
6
CONTINUOUS
10
5.5998589763779529
20
-5.7142754724409448
11
5.6011391338582674
21
-5.7123596062992128
0
LINE
8
BLACK
6
CONTINUOUS
10
5.6011391338582674
20
-5.7123596062992128
11
5.6030549999999995
21
-5.7110794488188974
0
LINE
8
BLACK
6
CONTINUOUS
10
5.6030549999999995
20
-5.7110794488188974
11
5.6053149606299213
21
-5.7106299212598426
0
LINE
8
BLACK
6
CONTINUOUS
10
5.6053149606299213
20
-5.7106299212598426
11
5.6456692913385824
21
-5.7106299212598426
0
LINE
8
BLACK
6
CONTINUOUS
10
5.6456692913385824
20
-5.7106299212598426
11
5.6479292519685034
21
-5.7110794488188974
0
LINE
8
BLACK
6
CONTINUOUS
10
5.1870078740157481
20
-5.7224409448818898
11
5.1476377952755907
21
-5.7224409448818898
0
LINE
8
BLACK
6
CONTINUOUS
10
5.1476377952755907
20
-5.7224409448818898
11
5.1476377952755907
21
-5.6870078740157481
0
LINE
8
BLACK
6
CONTINUOUS
10
5.1476377952755907
20
-5.6870078740157481
11
5.1870078740157481
21
-5.6870078740157481
0
LINE
8
BLACK
6
CONTINUOUS
10
5.1870078740157481
20
-5.6870078740157481
11
5.1870078740157481
21
-5.7224409448818898
0
LINE
8
BLACK
6
CONTINUOUS
10
6.1411851968503939
20
-5.6223278346456693
11
6.1440590157480317
21
-5.624248070866142
0
LINE
8
BLACK
6
CONTINUOUS
10
6.1440590157480317
20
-5.624248070866142
11
6.1459792519685035
21
-5.6271218897637798
0
LINE
8
BLACK
6
CONTINUOUS
10
6.1459792519685035
20
-5.6271218897637798
11
6.1466535433070861
21
-5.6305118110236219
0
LINE
8
BLACK
6
CONTINUOUS
10
6.1466535433070861
20
-5.6305118110236219
11
6.1466535433070861
21
-5.6482283464566931
0
LINE
8
BLACK
6
CONTINUOUS
10
6.1466535433070861
20
-5.6482283464566931
11
6.1459792519685035
21
-5.6516182677165352
0
LINE
8
BLACK
6
CONTINUOUS
10
6.1459792519685035
20
-5.6516182677165352
11
6.1440590157480317
21
-5.654492086614173
0
LINE
8
BLACK
6
CONTINUOUS
10
6.1440590157480317
20
-5.654492086614173
11
6.1411851968503939
21
-5.6564123228346457
0
LINE
8
BLACK
6
CONTINUOUS
10
6.1411851968503939
20
-5.6564123228346457
11
6.1377952755905509
21
-5.6570866141732283
0
LINE
8
BLACK
6
CONTINUOUS
10
6.1377952755905509
20
-5.6570866141732283
11
6.1043307086614176
21
-5.6570866141732283
0
LINE
8
BLACK
6
CONTINUOUS
10
6.1043307086614176
20
-5.6570866141732283
11
6.1009407874015746
21
-5.6564123228346457
0
LINE
8
BLACK
6
CONTINUOUS
10
6.1009407874015746
20
-5.6564123228346457
11
6.0980669685039368
21
-5.654492086614173
0
LINE
8
BLACK
6
CONTINUOUS
10
6.0980669685039368
20
-5.654492086614173
11
6.0961467322834642
21
-5.6516182677165352
0
LINE
8
BLACK
6
CONTINUOUS
10
6.0961467322834642
20
-5.6516182677165352
11
6.0954724409448815
21
-5.6482283464566931
0
LINE
8
BLACK
6
CONTINUOUS
10
6.0954724409448815
20
-5.6482283464566931
11
6.0954724409448815
21
-5.6305118110236219
0
LINE
8
BLACK
6
CONTINUOUS
10
6.0954724409448815
20
-5.6305118110236219
11
6.0961467322834642
21
-5.6271218897637798
0
LINE
8
BLACK
6
CONTINUOUS
10
6.0961467322834642
20
-5.6271218897637798
11
6.0980669685039368
21
-5.624248070866142
0
LINE
8
BLACK
6
CONTINUOUS
10
6.0980669685039368
20
-5.624248070866142
11
6.1009407874015746
21
-5.6223278346456693
0
LINE
8
BLACK
6
CONTINUOUS
10
6.1009407874015746
20
-5.6223278346456693
11
6.1043307086614176
21
-5.6216535433070867
0
LINE
8
BLACK
6
CONTINUOUS
10
6.1043307086614176
20
-5.6216535433070867
11
6.1377952755905509
21
-5.6216535433070867
0
LINE
8
BLACK
6
CONTINUOUS
10
6.1377952755905509
20
-5.6216535433070867
11
6.1411851968503939
21
-5.6223278346456693
0
LINE
8
BLACK
6
CONTINUOUS
10
6.2868544881889763
20
-5.6223278346456693
11
6.2897283070866141
21
-5.624248070866142
0
LINE
8
BLACK
6
CONTINUOUS
10
6.2897283070866141
20
-5.624248070866142
11
6.2916485433070868
21
-5.6271218897637798
0
LINE
8
BLACK
6
CONTINUOUS
10
6.2916485433070868
20
-5.6271218897637798
11
6.2923228346456694
21
-5.6305118110236219
0
LINE
8
BLACK
6
CONTINUOUS
10
6.2923228346456694
20
-5.6305118110236219
11
6.2923228346456694
21
-5.6482283464566931
0
LINE
8
BLACK
6
CONTINUOUS
10
6.2923228346456694
20
-5.6482283464566931
11
6.2916485433070868
21
-5.6516182677165352
0
LINE
8
BLACK
6
CONTINUOUS
10
6.2916485433070868
20
-5.6516182677165352
11
6.2897283070866141
21
-5.654492086614173
0
LINE
8
BLACK
6
CONTINUOUS
10
6.2897283070866141
20
-5.654492086614173
11
6.2868544881889763
21
-5.6564123228346457
0
LINE
8
BLACK
6
CONTINUOUS
10
6.2868544881889763
20
-5.6564123228346457
11
6.2834645669291334
21
-5.6570866141732283
0
LINE
8
BLACK
6
CONTINUOUS
10
6.2834645669291334
20
-5.6570866141732283
11
6.25
21
-5.6570866141732283
0
LINE
8
BLACK
6
CONTINUOUS
10
6.25
20
-5.6570866141732283
11
6.2466100787401571
21
-5.6564123228346457
0
LINE
8
BLACK
6
CONTINUOUS
10
6.2466100787401571
20
-5.6564123228346457
11
6.2437362598425192
21
-5.654492086614173
0
LINE
8
BLACK
6
CONTINUOUS
10
6.2437362598425192
20
-5.654492086614173
11
6.2418160236220475
21
-5.6516182677165352
0
LINE
8
BLACK
6
CONTINUOUS
10
6.2418160236220475
20
-5.6516182677165352
11
6.2411417322834648
21
-5.6482283464566931
0
LINE
8
BLACK
6
CONTINUOUS
10
6.2411417322834648
20
-5.6482283464566931
11
6.2411417322834648
21
-5.6305118110236219
0
LINE
8
BLACK
6
CONTINUOUS
10
6.2411417322834648
20
-5.6305118110236219
11
6.2418160236220475
21
-5.6271218897637798
0
LINE
8
BLACK
6
CONTINUOUS
10
6.2418160236220475
20
-5.6271218897637798
11
6.2437362598425192
21
-5.624248070866142
0
LINE
8
BLACK
6
CONTINUOUS
10
6.2437362598425192
20
-5.624248070866142
11
6.2466100787401571
21
-5.6223278346456693
0
LINE
8
BLACK
6
CONTINUOUS
10
6.2466100787401571
20
-5.6223278346456693
11
6.25
21
-5.6216535433070867
0
LINE
8
BLACK
6
CONTINUOUS
10
6.25
20
-5.6216535433070867
11
6.2834645669291334
21
-5.6216535433070867
0
LINE
8
BLACK
6
CONTINUOUS
10
6.2834645669291334
20
-5.6216535433070867
11
6.2868544881889763
21
-5.6223278346456693
0
LINE
8
BLACK
6
CONTINUOUS
10
6.1558761023622042
20
-5.527727283464567
11
6.1582709842519687
21
-5.5293274409448818
0
LINE
8
BLACK
6
CONTINUOUS
10
6.1582709842519687
20
-5.5293274409448818
11
6.1598711417322836
21
-5.5317223228346455
0
LINE
8
BLACK
6
CONTINUOUS
10
6.1598711417322836
20
-5.5317223228346455
11
6.1604330708661417
21
-5.5345472440944885
0
LINE
8
BLACK
6
CONTINUOUS
10
6.1604330708661417
20
-5.5345472440944885
11
6.1604330708661417
21
-5.5906496062992126
0
LINE
8
BLACK
6
CONTINUOUS
10
6.1604330708661417
20
-5.5906496062992126
11
6.1598711417322836
21
-5.5934745275590547
0
LINE
8
BLACK
6
CONTINUOUS
10
6.1598711417322836
20
-5.5934745275590547
11
6.1582709842519687
21
-5.5958694094488184
0
LINE
8
BLACK
6
CONTINUOUS
10
6.1582709842519687
20
-5.5958694094488184
11
6.1558761023622042
21
-5.5974695669291341
0
LINE
8
BLACK
6
CONTINUOUS
10
6.1558761023622042
20
-5.5974695669291341
11
6.153051181102362
21
-5.5980314960629922
0
LINE
8
BLACK
6
CONTINUOUS
10
6.153051181102362
20
-5.5980314960629922
11
6.1382874015748028
21
-5.5980314960629922
0
LINE
8
BLACK
6
CONTINUOUS
10
6.1382874015748028
20
-5.5980314960629922
11
6.1354624803149607
21
-5.5974695669291341
0
LINE
8
BLACK
6
CONTINUOUS
10
6.1354624803149607
20
-5.5974695669291341
11
6.133067598425197
21
-5.5958694094488184
0
LINE
8
BLACK
6
CONTINUOUS
10
6.133067598425197
20
-5.5958694094488184
11
6.1314674409448822
21
-5.5934745275590547
0
LINE
8
BLACK
6
CONTINUOUS
10
6.1314674409448822
20
-5.5934745275590547
11
6.1309055118110232
21
-5.5906496062992126
0
LINE
8
BLACK
6
CONTINUOUS
10
6.1309055118110232
20
-5.5906496062992126
11
6.1309055118110232
21
-5.5345472440944885
0
LINE
8
BLACK
6
CONTINUOUS
10
6.1309055118110232
20
-5.5345472440944885
11
6.1314674409448822
21
-5.5317223228346455
0
LINE
8
BLACK
6
CONTINUOUS
10
6.1314674409448822
20
-5.5317223228346455
11
6.133067598425197
21
-5.5293274409448818
0
LINE
8
BLACK
6
CONTINUOUS
10
6.133067598425197
20
-5.5293274409448818
11
6.1354624803149607
21
-5.527727283464567
0
LINE
8
BLACK
6
CONTINUOUS
10
6.1354624803149607
20
-5.527727283464567
11
6.1382874015748028
21
-5.5271653543307089
0
LINE
8
BLACK
6
CONTINUOUS
10
6.1382874015748028
20
-5.5271653543307089
11
6.153051181102362
21
-5.5271653543307089
0
LINE
8
BLACK
6
CONTINUOUS
10
6.153051181102362
20
-5.5271653543307089
11
6.1558761023622042
21
-5.527727283464567
0
LINE
8
BLACK
6
CONTINUOUS
10
6.20206311023622
20
-5.5276148818897637
11
6.2039789763779529
21
-5.5288950393700782
0
LINE
8
BLACK
6
CONTINUOUS
10
6.2039789763779529
20
-5.5288950393700782
11
6.2052591338582674
21
-5.5308109055118111
0
LINE
8
BLACK
6
CONTINUOUS
10
6.2052591338582674
20
-5.5308109055118111
11
6.2057086614173231
21
-5.533070866141732
0
LINE
8
BLACK
6
CONTINUOUS
10
6.2057086614173231
20
-5.533070866141732
11
6.2057086614173231
21
-5.5921259842519682
0
LINE
8
BLACK
6
CONTINUOUS
10
6.2057086614173231
20
-5.5921259842519682
11
6.2052591338582674
21
-5.59438594488189
0
LINE
8
BLACK
6
CONTINUOUS
10
6.2052591338582674
20
-5.59438594488189
11
6.2039789763779529
21
-5.596301811023622
0
LINE
8
BLACK
6
CONTINUOUS
10
6.2039789763779529
20
-5.596301811023622
11
6.20206311023622
21
-5.5975819685039365
0
LINE
8
BLACK
6
CONTINUOUS
10
6.20206311023622
20
-5.5975819685039365
11
6.1998031496062991
21
-5.5980314960629922
0
LINE
8
BLACK
6
CONTINUOUS
10
6.1998031496062991
20
-5.5980314960629922
11
6.1879921259842519
21
-5.5980314960629922
0
LINE
8
BLACK
6
CONTINUOUS
10
6.1879921259842519
20
-5.5980314960629922
11
6.1857321653543309
21
-5.5975819685039365
0
LINE
8
BLACK
6
CONTINUOUS
10
6.1857321653543309
20
-5.5975819685039365
11
6.183816299212598
21
-5.596301811023622
0
LINE
8
BLACK
6
CONTINUOUS
10
6.183816299212598
20
-5.596301811023622
11
6.1825361417322835
21
-5.59438594488189
0
LINE
8
BLACK
6
CONTINUOUS
10
6.1825361417322835
20
-5.59438594488189
11
6.1820866141732278
21
-5.5921259842519682
0
LINE
8
BLACK
6
CONTINUOUS
10
6.1820866141732278
20
-5.5921259842519682
11
6.1820866141732278
21
-5.533070866141732
0
LINE
8
BLACK
6
CONTINUOUS
10
6.1820866141732278
20
-5.533070866141732
11
6.1825361417322835
21
-5.5308109055118111
0
LINE
8
BLACK
6
CONTINUOUS
10
6.1825361417322835
20
-5.5308109055118111
11
6.183816299212598
21
-5.5288950393700782
0
LINE
8
BLACK
6
CONTINUOUS
10
6.183816299212598
20
-5.5288950393700782
11
6.1857321653543309
21
-5.5276148818897637
0
LINE
8
BLACK
6
CONTINUOUS
10
6.1857321653543309
20
-5.5276148818897637
11
6.1879921259842519
21
-5.5271653543307089
0
LINE
8
BLACK
6
CONTINUOUS
10
6.1879921259842519
20
-5.5271653543307089
11
6.1998031496062991
21
-5.5271653543307089
0
LINE
8
BLACK
6
CONTINUOUS
10
6.1998031496062991
20
-5.5271653543307089
11
6.20206311023622
21
-5.5276148818897637
0
LINE
8
BLACK
6
CONTINUOUS
10
6.2523327952755903
20
-5.527727283464567
11
6.2547276771653539
21
-5.5293274409448818
0
LINE
8
BLACK
6
CONTINUOUS
10
6.2547276771653539
20
-5.5293274409448818
11
6.2563278346456688
21
-5.5317223228346455
0
LINE
8
BLACK
6
CONTINUOUS
10
6.2563278346456688
20
-5.5317223228346455
11
6.2568897637795278
21
-5.5345472440944885
0
LINE
8
BLACK
6
CONTINUOUS
10
6.2568897637795278
20
-5.5345472440944885
11
6.2568897637795278
21
-5.5906496062992126
0
LINE
8
BLACK
6
CONTINUOUS
10
6.2568897637795278
20
-5.5906496062992126
11
6.2563278346456688
21
-5.5934745275590547
0
LINE
8
BLACK
6
CONTINUOUS
10
6.2563278346456688
20
-5.5934745275590547
11
6.2547276771653539
21
-5.5958694094488184
0
LINE
8
BLACK
6
CONTINUOUS
10
6.2547276771653539
20
-5.5958694094488184
11
6.2523327952755903
21
-5.5974695669291341
0
LINE
8
BLACK
6
CONTINUOUS
10
6.2523327952755903
20
-5.5974695669291341
11
6.2495078740157481
21
-5.5980314960629922
0
LINE
8
BLACK
6
CONTINUOUS
10
6.2495078740157481
20
-5.5980314960629922
11
6.2347440944881889
21
-5.5980314960629922
0
LINE
8
BLACK
6
CONTINUOUS
10
6.2347440944881889
20
-5.5980314960629922
11
6.2319191732283459
21
-5.5974695669291341
0
LINE
8
BLACK
6
CONTINUOUS
10
6.2319191732283459
20
-5.5974695669291341
11
6.2295242913385822
21
-5.5958694094488184
0
LINE
8
BLACK
6
CONTINUOUS
10
6.2295242913385822
20
-5.5958694094488184
11
6.2279241338582674
21
-5.5934745275590547
0
LINE
8
BLACK
6
CONTINUOUS
10
6.2279241338582674
20
-5.5934745275590547
11
6.2273622047244093
21
-5.5906496062992126
0
LINE
8
BLACK
6
CONTINUOUS
10
6.2273622047244093
20
-5.5906496062992126
11
6.2273622047244093
21
-5.5345472440944885
0
LINE
8
BLACK
6
CONTINUOUS
10
6.2273622047244093
20
-5.5345472440944885
11
6.2279241338582674
21
-5.5317223228346455
0
LINE
8
BLACK
6
CONTINUOUS
10
6.2279241338582674
20
-5.5317223228346455
11
6.2295242913385822
21
-5.5293274409448818
0
LINE
8
BLACK
6
CONTINUOUS
10
6.2295242913385822
20
-5.5293274409448818
11
6.2319191732283459
21
-5.527727283464567
0
LINE
8
BLACK
6
CONTINUOUS
10
6.2319191732283459
20
-5.527727283464567
11
6.2347440944881889
21
-5.5271653543307089
0
LINE
8
BLACK
6
CONTINUOUS
10
6.2347440944881889
20
-5.5271653543307089
11
6.2495078740157481
21
-5.5271653543307089
0
LINE
8
BLACK
6
CONTINUOUS
10
6.2495078740157481
20
-5.5271653543307089
11
6.2523327952755903
21
-5.527727283464567
0
LINE
8
BLACK
6
CONTINUOUS
10
6.6533728740157478
20
-5.4298830708661416
11
6.6565660236220472
21
-5.4320166535433065
0
LINE
8
BLACK
6
CONTINUOUS
10
6.6565660236220472
20
-5.4320166535433065
11
6.6586996062992121
21
-5.4352098031496059
0
LINE
8
BLACK
6
CONTINUOUS
10
6.6586996062992121
20
-5.4352098031496059
11
6.659448818897638
21
-5.4389763779527556
0
LINE
8
BLACK
6
CONTINUOUS
10
6.659448818897638
20
-5.4389763779527556
11
6.659448818897638
21
-5.4596456692913389
0
LINE
8
BLACK
6
CONTINUOUS
10
6.659448818897638
20
-5.4596456692913389
11
6.6586996062992121
21
-5.4634122440944877
0
LINE
8
BLACK
6
CONTINUOUS
10
6.6586996062992121
20
-5.4634122440944877
11
6.6565660236220472
21
-5.466605393700787
0
LINE
8
BLACK
6
CONTINUOUS
10
6.6565660236220472
20
-5.466605393700787
11
6.6533728740157478
21
-5.4687389763779528
0
LINE
8
BLACK
6
CONTINUOUS
10
6.6533728740157478
20
-5.4687389763779528
11
6.6496062992125982
21
-5.4694881889763778
0
LINE
8
BLACK
6
CONTINUOUS
10
6.6496062992125982
20
-5.4694881889763778
11
6.6141732283464565
21
-5.4694881889763778
0
LINE
8
BLACK
6
CONTINUOUS
10
6.6141732283464565
20
-5.4694881889763778
11
6.6104066535433068
21
-5.4687389763779528
0
LINE
8
BLACK
6
CONTINUOUS
10
6.6104066535433068
20
-5.4687389763779528
11
6.6072135039370075
21
-5.466605393700787
0
LINE
8
BLACK
6
CONTINUOUS
10
6.6072135039370075
20
-5.466605393700787
11
6.6050799212598426
21
-5.4634122440944877
0
LINE
8
BLACK
6
CONTINUOUS
10
6.6050799212598426
20
-5.4634122440944877
11
6.6043307086614176
21
-5.4596456692913389
0
LINE
8
BLACK
6
CONTINUOUS
10
6.6043307086614176
20
-5.4596456692913389
11
6.6043307086614176
21
-5.4389763779527556
0
LINE
8
BLACK
6
CONTINUOUS
10
6.6043307086614176
20
-5.4389763779527556
11
6.6050799212598426
21
-5.4352098031496059
0
LINE
8
BLACK
6
CONTINUOUS
10
6.6050799212598426
20
-5.4352098031496059
11
6.6072135039370075
21
-5.4320166535433065
0
LINE
8
BLACK
6
CONTINUOUS
10
6.6072135039370075
20
-5.4320166535433065
11
6.6104066535433068
21
-5.4298830708661416
0
LINE
8
BLACK
6
CONTINUOUS
10
6.6104066535433068
20
-5.4298830708661416
11
6.6141732283464565
21
-5.4291338582677167
0
LINE
8
BLACK
6
CONTINUOUS
10
6.6141732283464565
20
-5.4291338582677167
11
6.6496062992125982
21
-5.4291338582677167
0
LINE
8
BLACK
6
CONTINUOUS
10
6.6496062992125982
20
-5.4291338582677167
11
6.6533728740157478
21
-5.4298830708661416
0
LINE
8
BLACK
6
CONTINUOUS
10
6.7553413779527558
20
-5.4298830708661416
11
6.7585345275590551
21
-5.4320166535433065
0
LINE
8
BLACK
6
CONTINUOUS
10
6.7585345275590551
20
-5.4320166535433065
11
6.7606681102362201
21
-5.4352098031496059
0
LINE
8
BLACK
6
CONTINUOUS
10
6.7606681102362201
20
-5.4352098031496059
11
6.7614173228346459
21
-5.4389763779527556
0
LINE
8
BLACK
6
CONTINUOUS
10
6.7614173228346459
20
-5.4389763779527556
11
6.7614173228346459
21
-5.4596456692913389
0
LINE
8
BLACK
6
CONTINUOUS
10
6.7614173228346459
20
-5.4596456692913389
11
6.7606681102362201
21
-5.4634122440944877
0
LINE
8
BLACK
6
CONTINUOUS
10
6.7606681102362201
20
-5.4634122440944877
11
6.7585345275590551
21
-5.466605393700787
0
LINE
8
BLACK
6
CONTINUOUS
10
6.7585345275590551
20
-5.466605393700787
11
6.7553413779527558
21
-5.4687389763779528
0
LINE
8
BLACK
6
CONTINUOUS
10
6.7553413779527558
20
-5.4687389763779528
11
6.7515748031496061
21
-5.4694881889763778
0
LINE
8
BLACK
6
CONTINUOUS
10
6.7515748031496061
20
-5.4694881889763778
11
6.7161417322834644
21
-5.4694881889763778
0
LINE
8
BLACK
6
CONTINUOUS
10
6.7161417322834644
20
-5.4694881889763778
11
6.7123751574803148
21
-5.4687389763779528
0
LINE
8
BLACK
6
CONTINUOUS
10
6.7123751574803148
20
-5.4687389763779528
11
6.7091820078740154
21
-5.466605393700787
0
LINE
8
BLACK
6
CONTINUOUS
10
6.7091820078740154
20
-5.466605393700787
11
6.7070484251968505
21
-5.4634122440944877
0
LINE
8
BLACK
6
CONTINUOUS
10
6.7070484251968505
20
-5.4634122440944877
11
6.7062992125984247
21
-5.4596456692913389
0
LINE
8
BLACK
6
CONTINUOUS
10
6.7062992125984247
20
-5.4596456692913389
11
6.7062992125984247
21
-5.4389763779527556
0
LINE
8
BLACK
6
CONTINUOUS
10
6.7062992125984247
20
-5.4389763779527556
11
6.7070484251968505
21
-5.4352098031496059
0
LINE
8
BLACK
6
CONTINUOUS
10
6.7070484251968505
20
-5.4352098031496059
11
6.7091820078740154
21
-5.4320166535433065
0
LINE
8
BLACK
6
CONTINUOUS
10
6.7091820078740154
20
-5.4320166535433065
11
6.7123751574803148
21
-5.4298830708661416
0
LINE
8
BLACK
6
CONTINUOUS
10
6.7123751574803148
20
-5.4298830708661416
11
6.7161417322834644
21
-5.4291338582677167
0
LINE
8
BLACK
6
CONTINUOUS
10
6.7161417322834644
20
-5.4291338582677167
11
6.7515748031496061
21
-5.4291338582677167
0
LINE
8
BLACK
6
CONTINUOUS
10
6.7515748031496061
20
-5.4291338582677167
11
6.7553413779527558
21
-5.4298830708661416
0
LINE
8
BLACK
6
CONTINUOUS
10
5.2390027952755904
20
-5.4062610236220472
11
5.2421959448818898
21
-5.4083946062992121
0
LINE
8
BLACK
6
CONTINUOUS
10
5.2421959448818898
20
-5.4083946062992121
11
5.2443295275590547
21
-5.4115877559055114
0
LINE
8
BLACK
6
CONTINUOUS
10
5.2443295275590547
20
-5.4115877559055114
11
5.2450787401574805
21
-5.4153543307086611
0
LINE
8
BLACK
6
CONTINUOUS
10
5.2450787401574805
20
-5.4153543307086611
11
5.2450787401574805
21
-5.4507874015748028
0
LINE
8
BLACK
6
CONTINUOUS
10
5.2450787401574805
20
-5.4507874015748028
11
5.2443295275590547
21
-5.4545539763779525
0
LINE
8
BLACK
6
CONTINUOUS
10
5.2443295275590547
20
-5.4545539763779525
11
5.2421959448818898
21
-5.4577471259842518
0
LINE
8
BLACK
6
CONTINUOUS
10
5.2421959448818898
20
-5.4577471259842518
11
5.2390027952755904
21
-5.4598807086614176
0
LINE
8
BLACK
6
CONTINUOUS
10
5.2390027952755904
20
-5.4598807086614176
11
5.2352362204724407
21
-5.4606299212598426
0
LINE
8
BLACK
6
CONTINUOUS
10
5.2352362204724407
20
-5.4606299212598426
11
5.2145669291338583
21
-5.4606299212598426
0
LINE
8
BLACK
6
CONTINUOUS
10
5.2145669291338583
20
-5.4606299212598426
11
5.2108003543307087
21
-5.4598807086614176
0
LINE
8
BLACK
6
CONTINUOUS
10
5.2108003543307087
20
-5.4598807086614176
11
5.2076072047244093
21
-5.4577471259842518
0
LINE
8
BLACK
6
CONTINUOUS
10
5.2076072047244093
20
-5.4577471259842518
11
5.2054736220472444
21
-5.4545539763779525
0
LINE
8
BLACK
6
CONTINUOUS
10
5.2054736220472444
20
-5.4545539763779525
11
5.2047244094488185
21
-5.4507874015748028
0
LINE
8
BLACK
6
CONTINUOUS
10
5.2047244094488185
20
-5.4507874015748028
11
5.2047244094488185
21
-5.4153543307086611
0
LINE
8
BLACK
6
CONTINUOUS
10
5.2047244094488185
20
-5.4153543307086611
11
5.2054736220472444
21
-5.4115877559055114
0
LINE
8
BLACK
6
CONTINUOUS
10
5.2054736220472444
20
-5.4115877559055114
11
5.2076072047244093
21
-5.4083946062992121
0
LINE
8
BLACK
6
CONTINUOUS
10
5.2076072047244093
20
-5.4083946062992121
11
5.2108003543307087
21
-5.4062610236220472
0
LINE
8
BLACK
6
CONTINUOUS
10
5.2108003543307087
20
-5.4062610236220472
11
5.2145669291338583
21
-5.4055118110236222
0
LINE
8
BLACK
6
CONTINUOUS
10
5.2145669291338583
20
-5.4055118110236222
11
5.2352362204724407
21
-5.4055118110236222
0
LINE
8
BLACK
6
CONTINUOUS
10
5.2352362204724407
20
-5.4055118110236222
11
5.2390027952755904
21
-5.4062610236220472
0
LINE
8
BLACK
6
CONTINUOUS
10
5.3108531889763775
20
-5.4062610236220472
11
5.3140463385826768
21
-5.4083946062992121
0
LINE
8
BLACK
6
CONTINUOUS
10
5.3140463385826768
20
-5.4083946062992121
11
5.3161799212598426
21
-5.4115877559055114
0
LINE
8
BLACK
6
CONTINUOUS
10
5.3161799212598426
20
-5.4115877559055114
11
5.3169291338582676
21
-5.4153543307086611
0
LINE
8
BLACK
6
CONTINUOUS
10
5.3169291338582676
20
-5.4153543307086611
11
5.3169291338582676
21
-5.4507874015748028
0
LINE
8
BLACK
6
CONTINUOUS
10
5.3169291338582676
20
-5.4507874015748028
11
5.3161799212598426
21
-5.4545539763779525
0
LINE
8
BLACK
6
CONTINUOUS
10
5.3161799212598426
20
-5.4545539763779525
11
5.3140463385826768
21
-5.4577471259842518
0
LINE
8
BLACK
6
CONTINUOUS
10
5.3140463385826768
20
-5.4577471259842518
11
5.3108531889763775
21
-5.4598807086614176
0
LINE
8
BLACK
6
CONTINUOUS
10
5.3108531889763775
20
-5.4598807086614176
11
5.3070866141732278
21
-5.4606299212598426
0
LINE
8
BLACK
6
CONTINUOUS
10
5.3070866141732278
20
-5.4606299212598426
11
5.2864173228346454
21
-5.4606299212598426
0
LINE
8
BLACK
6
CONTINUOUS
10
5.2864173228346454
20
-5.4606299212598426
11
5.2826507480314957
21
-5.4598807086614176
0
LINE
8
BLACK
6
CONTINUOUS
10
5.2826507480314957
20
-5.4598807086614176
11
5.2794575984251964
21
-5.4577471259842518
0
LINE
8
BLACK
6
CONTINUOUS
10
5.2794575984251964
20
-5.4577471259842518
11
5.2773240157480314
21
-5.4545539763779525
0
LINE
8
BLACK
6
CONTINUOUS
10
5.2773240157480314
20
-5.4545539763779525
11
5.2765748031496065
21
-5.4507874015748028
0
LINE
8
BLACK
6
CONTINUOUS
10
5.2765748031496065
20
-5.4507874015748028
11
5.2765748031496065
21
-5.4153543307086611
0
LINE
8
BLACK
6
CONTINUOUS
10
5.2765748031496065
20
-5.4153543307086611
11
5.2773240157480314
21
-5.4115877559055114
0
LINE
8
BLACK
6
CONTINUOUS
10
5.2773240157480314
20
-5.4115877559055114
11
5.2794575984251964
21
-5.4083946062992121
0
LINE
8
BLACK
6
CONTINUOUS
10
5.2794575984251964
20
-5.4083946062992121
11
5.2826507480314957
21
-5.4062610236220472
0
LINE
8
BLACK
6
CONTINUOUS
10
5.2826507480314957
20
-5.4062610236220472
11
5.2864173228346454
21
-5.4055118110236222
0
LINE
8
BLACK
6
CONTINUOUS
10
5.2864173228346454
20
-5.4055118110236222
11
5.3070866141732278
21
-5.4055118110236222
0
LINE
8
BLACK
6
CONTINUOUS
10
5.3070866141732278
20
-5.4055118110236222
11
5.3108531889763775
21
-5.4062610236220472
0
LINE
8
BLACK
6
CONTINUOUS
10
5.1820866141732278
20
-5.4547244094488185
11
5.1427165354330704
21
-5.4547244094488185
0
LINE
8
BLACK
6
CONTINUOUS
10
5.1427165354330704
20
-5.4547244094488185
11
5.1427165354330704
21
-5.4192913385826769
0
LINE
8
BLACK
6
CONTINUOUS
10
5.1427165354330704
20
-5.4192913385826769
11
5.1820866141732278
21
-5.4192913385826769
0
LINE
8
BLACK
6
CONTINUOUS
10
5.1820866141732278
20
-5.4192913385826769
11
5.1820866141732278
21
-5.4547244094488185
0
LINE
8
BLACK
6
CONTINUOUS
10
6.6533728740157478
20
-5.3580326771653546
11
6.6565660236220472
21
-5.3601662598425195
0
LINE
8
BLACK
6
CONTINUOUS
10
6.6565660236220472
20
-5.3601662598425195
11
6.6586996062992121
21
-5.3633594094488188
0
LINE
8
BLACK
6
CONTINUOUS
10
6.6586996062992121
20
-5.3633594094488188
11
6.659448818897638
21
-5.3671259842519685
0
LINE
8
BLACK
6
CONTINUOUS
10
6.659448818897638
20
-5.3671259842519685
11
6.659448818897638
21
-5.3877952755905509
0
LINE
8
BLACK
6
CONTINUOUS
10
6.659448818897638
20
-5.3877952755905509
11
6.6586996062992121
21
-5.3915618503937006
0
LINE
8
BLACK
6
CONTINUOUS
10
6.6586996062992121
20
-5.3915618503937006
11
6.6565660236220472
21
-5.394755
0
LINE
8
BLACK
6
CONTINUOUS
10
6.6565660236220472
20
-5.394755
11
6.6533728740157478
21
-5.3968885826771649
0
LINE
8
BLACK
6
CONTINUOUS
10
6.6533728740157478
20
-5.3968885826771649
11
6.6496062992125982
21
-5.3976377952755907
0
LINE
8
BLACK
6
CONTINUOUS
10
6.6496062992125982
20
-5.3976377952755907
11
6.6141732283464565
21
-5.3976377952755907
0
LINE
8
BLACK
6
CONTINUOUS
10
6.6141732283464565
20
-5.3976377952755907
11
6.6104066535433068
21
-5.3968885826771649
0
LINE
8
BLACK
6
CONTINUOUS
10
6.6104066535433068
20
-5.3968885826771649
11
6.6072135039370075
21
-5.394755
0
LINE
8
BLACK
6
CONTINUOUS
10
6.6072135039370075
20
-5.394755
11
6.6050799212598426
21
-5.3915618503937006
0
LINE
8
BLACK
6
CONTINUOUS
10
6.6050799212598426
20
-5.3915618503937006
11
6.6043307086614176
21
-5.3877952755905509
0
LINE
8
BLACK
6
CONTINUOUS
10
6.6043307086614176
20
-5.3877952755905509
11
6.6043307086614176
21
-5.3671259842519685
0
LINE
8
BLACK
6
CONTINUOUS
10
6.6043307086614176
20
-5.3671259842519685
11
6.6050799212598426
21
-5.3633594094488188
0
LINE
8
BLACK
6
CONTINUOUS
10
6.6050799212598426
20
-5.3633594094488188
11
6.6072135039370075
21
-5.3601662598425195
0
LINE
8
BLACK
6
CONTINUOUS
10
6.6072135039370075
20
-5.3601662598425195
11
6.6104066535433068
21
-5.3580326771653546
0
LINE
8
BLACK
6
CONTINUOUS
10
6.6104066535433068
20
-5.3580326771653546
11
6.6141732283464565
21
-5.3572834645669287
0
LINE
8
BLACK
6
CONTINUOUS
10
6.6141732283464565
20
-5.3572834645669287
11
6.6496062992125982
21
-5.3572834645669287
0
LINE
8
BLACK
6
CONTINUOUS
10
6.6496062992125982
20
-5.3572834645669287
11
6.6533728740157478
21
-5.3580326771653546
0
LINE
8
BLACK
6
CONTINUOUS
10
6.7553413779527558
20
-5.3580326771653546
11
6.7585345275590551
21
-5.3601662598425195
0
LINE
8
BLACK
6
CONTINUOUS
10
6.7585345275590551
20
-5.3601662598425195
11
6.7606681102362201
21
-5.3633594094488188
0
LINE
8
BLACK
6
CONTINUOUS
10
6.7606681102362201
20
-5.3633594094488188
11
6.7614173228346459
21
-5.3671259842519685
0
LINE
8
BLACK
6
CONTINUOUS
10
6.7614173228346459
20
-5.3671259842519685
11
6.7614173228346459
21
-5.3877952755905509
0
LINE
8
BLACK
6
CONTINUOUS
10
6.7614173228346459
20
-5.3877952755905509
11
6.7606681102362201
21
-5.3915618503937006
0
LINE
8
BLACK
6
CONTINUOUS
10
6.7606681102362201
20
-5.3915618503937006
11
6.7585345275590551
21
-5.394755
0
LINE
8
BLACK
6
CONTINUOUS
10
6.7585345275590551
20
-5.394755
11
6.7553413779527558
21
-5.3968885826771649
0
LINE
8
BLACK
6
CONTINUOUS
10
6.7553413779527558
20
-5.3968885826771649
11
6.7515748031496061
21
-5.3976377952755907
0
LINE
8
BLACK
6
CONTINUOUS
10
6.7515748031496061
20
-5.3976377952755907
11
6.7161417322834644
21
-5.3976377952755907
0
LINE
8
BLACK
6
CONTINUOUS
10
6.7161417322834644
20
-5.3976377952755907
11
6.7123751574803148
21
-5.3968885826771649
0
LINE
8
BLACK
6
CONTINUOUS
10
6.7123751574803148
20
-5.3968885826771649
11
6.7091820078740154
21
-5.394755
0
LINE
8
BLACK
6
CONTINUOUS
10
6.7091820078740154
20
-5.394755
11
6.7070484251968505
21
-5.3915618503937006
0
LINE
8
BLACK
6
CONTINUOUS
10
6.7070484251968505
20
-5.3915618503937006
11
6.7062992125984247
21
-5.3877952755905509
0
LINE
8
BLACK
6
CONTINUOUS
10
6.7062992125984247
20
-5.3877952755905509
11
6.7062992125984247
21
-5.3671259842519685
0
LINE
8
BLACK
6
CONTINUOUS
10
6.7062992125984247
20
-5.3671259842519685
11
6.7070484251968505
21
-5.3633594094488188
0
LINE
8
BLACK
6
CONTINUOUS
10
6.7070484251968505
20
-5.3633594094488188
11
6.7091820078740154
21
-5.3601662598425195
0
LINE
8
BLACK
6
CONTINUOUS
10
6.7091820078740154
20
-5.3601662598425195
11
6.7123751574803148
21
-5.3580326771653546
0
LINE
8
BLACK
6
CONTINUOUS
10
6.7123751574803148
20
-5.3580326771653546
11
6.7161417322834644
21
-5.3572834645669287
0
LINE
8
BLACK
6
CONTINUOUS
10
6.7161417322834644
20
-5.3572834645669287
11
6.7515748031496061
21
-5.3572834645669287
0
LINE
8
BLACK
6
CONTINUOUS
10
6.7515748031496061
20
-5.3572834645669287
11
6.7553413779527558
21
-5.3580326771653546
0
LINE
8
BLACK
6
CONTINUOUS
10
5.1820866141732278
20
-5.3917322834645667
11
5.1427165354330704
21
-5.3917322834645667
0
LINE
8
BLACK
6
CONTINUOUS
10
5.1427165354330704
20
-5.3917322834645667
11
5.1427165354330704
21
-5.356299212598425
0
LINE
8
BLACK
6
CONTINUOUS
10
5.1427165354330704
20
-5.356299212598425
11
5.1820866141732278
21
-5.356299212598425
0
LINE
8
BLACK
6
CONTINUOUS
10
5.1820866141732278
20
-5.356299212598425
11
5.1820866141732278
21
-5.3917322834645667
0
LINE
8
BLACK
6
CONTINUOUS
10
5.2390027952755904
20
-5.2979933070866139
11
5.2421959448818898
21
-5.3001268897637797
0
LINE
8
BLACK
6
CONTINUOUS
10
5.2421959448818898
20
-5.3001268897637797
11
5.2443295275590547
21
-5.303320039370079
0
LINE
8
BLACK
6
CONTINUOUS
10
5.2443295275590547
20
-5.303320039370079
11
5.2450787401574805
21
-5.3070866141732278
0
LINE
8
BLACK
6
CONTINUOUS
10
5.2450787401574805
20
-5.3070866141732278
11
5.2450787401574805
21
-5.3425196850393704
0
LINE
8
BLACK
6
CONTINUOUS
10
5.2450787401574805
20
-5.3425196850393704
11
5.2443295275590547
21
-5.3462862598425192
0
LINE
8
BLACK
6
CONTINUOUS
10
5.2443295275590547
20
-5.3462862598425192
11
5.2421959448818898
21
-5.3494794094488185
0
LINE
8
BLACK
6
CONTINUOUS
10
5.2421959448818898
20
-5.3494794094488185
11
5.2390027952755904
21
-5.3516129921259843
0
LINE
8
BLACK
6
CONTINUOUS
10
5.2390027952755904
20
-5.3516129921259843
11
5.2352362204724407
21
-5.3523622047244093
0
LINE
8
BLACK
6
CONTINUOUS
10
5.2352362204724407
20
-5.3523622047244093
11
5.2145669291338583
21
-5.3523622047244093
0
LINE
8
BLACK
6
CONTINUOUS
10
5.2145669291338583
20
-5.3523622047244093
11
5.2108003543307087
21
-5.3516129921259843
0
LINE
8
BLACK
6
CONTINUOUS
10
5.2108003543307087
20
-5.3516129921259843
11
5.2076072047244093
21
-5.3494794094488185
0
LINE
8
BLACK
6
CONTINUOUS
10
5.2076072047244093
20
-5.3494794094488185
11
5.2054736220472444
21
-5.3462862598425192
0
LINE
8
BLACK
6
CONTINUOUS
10
5.2054736220472444
20
-5.3462862598425192
11
5.2047244094488185
21
-5.3425196850393704
0
LINE
8
BLACK
6
CONTINUOUS
10
5.2047244094488185
20
-5.3425196850393704
11
5.2047244094488185
21
-5.3070866141732278
0
LINE
8
BLACK
6
CONTINUOUS
10
5.2047244094488185
20
-5.3070866141732278
11
5.2054736220472444
21
-5.303320039370079
0
LINE
8
BLACK
6
CONTINUOUS
10
5.2054736220472444
20
-5.303320039370079
11
5.2076072047244093
21
-5.3001268897637797
0
LINE
8
BLACK
6
CONTINUOUS
10
5.2076072047244093
20
-5.3001268897637797
11
5.2108003543307087
21
-5.2979933070866139
0
LINE
8
BLACK
6
CONTINUOUS
10
5.2108003543307087
20
-5.2979933070866139
11
5.2145669291338583
21
-5.2972440944881889
0
LINE
8
BLACK
6
CONTINUOUS
10
5.2145669291338583
20
-5.2972440944881889
11
5.2352362204724407
21
-5.2972440944881889
0
LINE
8
BLACK
6
CONTINUOUS
10
5.2352362204724407
20
-5.2972440944881889
11
5.2390027952755904
21
-5.2979933070866139
0
LINE
8
BLACK
6
CONTINUOUS
10
5.3108531889763775
20
-5.2979933070866139
11
5.3140463385826768
21
-5.3001268897637797
0
LINE
8
BLACK
6
CONTINUOUS
10
5.3140463385826768
20
-5.3001268897637797
11
5.3161799212598426
21
-5.303320039370079
0
LINE
8
BLACK
6
CONTINUOUS
10
5.3161799212598426
20
-5.303320039370079
11
5.3169291338582676
21
-5.3070866141732278
0
LINE
8
BLACK
6
CONTINUOUS
10
5.3169291338582676
20
-5.3070866141732278
11
5.3169291338582676
21
-5.3425196850393704
0
LINE
8
BLACK
6
CONTINUOUS
10
5.3169291338582676
20
-5.3425196850393704
11
5.3161799212598426
21
-5.3462862598425192
0
LINE
8
BLACK
6
CONTINUOUS
10
5.3161799212598426
20
-5.3462862598425192
11
5.3140463385826768
21
-5.3494794094488185
0
LINE
8
BLACK
6
CONTINUOUS
10
5.3140463385826768
20
-5.3494794094488185
11
5.3108531889763775
21
-5.3516129921259843
0
LINE
8
BLACK
6
CONTINUOUS
10
5.3108531889763775
20
-5.3516129921259843
11
5.3070866141732278
21
-5.3523622047244093
0
LINE
8
BLACK
6
CONTINUOUS
10
5.3070866141732278
20
-5.3523622047244093
11
5.2864173228346454
21
-5.3523622047244093
0
LINE
8
BLACK
6
CONTINUOUS
10
5.2864173228346454
20
-5.3523622047244093
11
5.2826507480314957
21
-5.3516129921259843
0
LINE
8
BLACK
6
CONTINUOUS
10
5.2826507480314957
20
-5.3516129921259843
11
5.2794575984251964
21
-5.3494794094488185
0
LINE
8
BLACK
6
CONTINUOUS
10
5.2794575984251964
20
-5.3494794094488185
11
5.2773240157480314
21
-5.3462862598425192
0
LINE
8
BLACK
6
CONTINUOUS
10
5.2773240157480314
20
-5.3462862598425192
11
5.2765748031496065
21
-5.3425196850393704
0
LINE
8
BLACK
6
CONTINUOUS
10
5.2765748031496065
20
-5.3425196850393704
11
5.2765748031496065
21
-5.3070866141732278
0
LINE
8
BLACK
6
CONTINUOUS
10
5.2765748031496065
20
-5.3070866141732278
11
5.2773240157480314
21
-5.303320039370079
0
LINE
8
BLACK
6
CONTINUOUS
10
5.2773240157480314
20
-5.303320039370079
11
5.2794575984251964
21
-5.3001268897637797
0
LINE
8
BLACK
6
CONTINUOUS
10
5.2794575984251964
20
-5.3001268897637797
11
5.2826507480314957
21
-5.2979933070866139
0
LINE
8
BLACK
6
CONTINUOUS
10
5.2826507480314957
20
-5.2979933070866139
11
5.2864173228346454
21
-5.2972440944881889
0
LINE
8
BLACK
6
CONTINUOUS
10
5.2864173228346454
20
-5.2972440944881889
11
5.3070866141732278
21
-5.2972440944881889
0
LINE
8
BLACK
6
CONTINUOUS
10
5.3070866141732278
20
-5.2972440944881889
11
5.3108531889763775
21
-5.2979933070866139
0
LINE
8
BLACK
6
CONTINUOUS
10
5.1820866141732278
20
-5.3464566929133861
11
5.1427165354330704
21
-5.3464566929133861
0
LINE
8
BLACK
6
CONTINUOUS
10
5.1427165354330704
20
-5.3464566929133861
11
5.1427165354330704
21
-5.3110236220472435
0
LINE
8
BLACK
6
CONTINUOUS
10
5.1427165354330704
20
-5.3110236220472435
11
5.1820866141732278
21
-5.3110236220472435
0
LINE
8
BLACK
6
CONTINUOUS
10
5.1820866141732278
20
-5.3110236220472435
11
5.1820866141732278
21
-5.3464566929133861
0
LINE
8
BLACK
6
CONTINUOUS
10
5.1820866141732278
20
-5.2834645669291334
11
5.1427165354330704
21
-5.2834645669291334
0
LINE
8
BLACK
6
CONTINUOUS
10
5.1427165354330704
20
-5.2834645669291334
11
5.1427165354330704
21
-5.2480314960629917
0
LINE
8
BLACK
6
CONTINUOUS
10
5.1427165354330704
20
-5.2480314960629917
11
5.1820866141732278
21
-5.2480314960629917
0
LINE
8
BLACK
6
CONTINUOUS
10
5.1820866141732278
20
-5.2480314960629917
11
5.1820866141732278
21
-5.2834645669291334
0
LINE
8
BLACK
6
CONTINUOUS
10
5.2390027952755904
20
-5.1897255905511805
11
5.2421959448818898
21
-5.1918591732283463
0
LINE
8
BLACK
6
CONTINUOUS
10
5.2421959448818898
20
-5.1918591732283463
11
5.2443295275590547
21
-5.1950523228346457
0
LINE
8
BLACK
6
CONTINUOUS
10
5.2443295275590547
20
-5.1950523228346457
11
5.2450787401574805
21
-5.1988188976377954
0
LINE
8
BLACK
6
CONTINUOUS
10
5.2450787401574805
20
-5.1988188976377954
11
5.2450787401574805
21
-5.234251968503937
0
LINE
8
BLACK
6
CONTINUOUS
10
5.2450787401574805
20
-5.234251968503937
11
5.2443295275590547
21
-5.2380185433070867
0
LINE
8
BLACK
6
CONTINUOUS
10
5.2443295275590547
20
-5.2380185433070867
11
5.2421959448818898
21
-5.2412116929133861
0
LINE
8
BLACK
6
CONTINUOUS
10
5.2421959448818898
20
-5.2412116929133861
11
5.2390027952755904
21
-5.243345275590551
0
LINE
8
BLACK
6
CONTINUOUS
10
5.2390027952755904
20
-5.243345275590551
11
5.2352362204724407
21
-5.2440944881889759
0
LINE
8
BLACK
6
CONTINUOUS
10
5.2352362204724407
20
-5.2440944881889759
11
5.2145669291338583
21
-5.2440944881889759
0
LINE
8
BLACK
6
CONTINUOUS
10
5.2145669291338583
20
-5.2440944881889759
11
5.2108003543307087
21
-5.243345275590551
0
LINE
8
BLACK
6
CONTINUOUS
10
5.2108003543307087
20
-5.243345275590551
11
5.2076072047244093
21
-5.2412116929133861
0
LINE
8
BLACK
6
CONTINUOUS
10
5.2076072047244093
20
-5.2412116929133861
11
5.2054736220472444
21
-5.2380185433070867
0
LINE
8
BLACK
6
CONTINUOUS
10
5.2054736220472444
20
-5.2380185433070867
11
5.2047244094488185
21
-5.234251968503937
0
LINE
8
BLACK
6
CONTINUOUS
10
5.2047244094488185
20
-5.234251968503937
11
5.2047244094488185
21
-5.1988188976377954
0
LINE
8
BLACK
6
CONTINUOUS
10
5.2047244094488185
20
-5.1988188976377954
11
5.2054736220472444
21
-5.1950523228346457
0
LINE
8
BLACK
6
CONTINUOUS
10
5.2054736220472444
20
-5.1950523228346457
11
5.2076072047244093
21
-5.1918591732283463
0
LINE
8
BLACK
6
CONTINUOUS
10
5.2076072047244093
20
-5.1918591732283463
11
5.2108003543307087
21
-5.1897255905511805
0
LINE
8
BLACK
6
CONTINUOUS
10
5.2108003543307087
20
-5.1897255905511805
11
5.2145669291338583
21
-5.1889763779527556
0
LINE
8
BLACK
6
CONTINUOUS
10
5.2145669291338583
20
-5.1889763779527556
11
5.2352362204724407
21
-5.1889763779527556
0
LINE
8
BLACK
6
CONTINUOUS
10
5.2352362204724407
20
-5.1889763779527556
11
5.2390027952755904
21
-5.1897255905511805
0
LINE
8
BLACK
6
CONTINUOUS
10
5.3108531889763775
20
-5.1897255905511805
11
5.3140463385826768
21
-5.1918591732283463
0
LINE
8
BLACK
6
CONTINUOUS
10
5.3140463385826768
20
-5.1918591732283463
11
5.3161799212598426
21
-5.1950523228346457
0
LINE
8
BLACK
6
CONTINUOUS
10
5.3161799212598426
20
-5.1950523228346457
11
5.3169291338582676
21
-5.1988188976377954
0
LINE
8
BLACK
6
CONTINUOUS
10
5.3169291338582676
20
-5.1988188976377954
11
5.3169291338582676
21
-5.234251968503937
0
LINE
8
BLACK
6
CONTINUOUS
10
5.3169291338582676
20
-5.234251968503937
11
5.3161799212598426
21
-5.2380185433070867
0
LINE
8
BLACK
6
CONTINUOUS
10
5.3161799212598426
20
-5.2380185433070867
11
5.3140463385826768
21
-5.2412116929133861
0
LINE
8
BLACK
6
CONTINUOUS
10
5.3140463385826768
20
-5.2412116929133861
11
5.3108531889763775
21
-5.243345275590551
0
LINE
8
BLACK
6
CONTINUOUS
10
5.3108531889763775
20
-5.243345275590551
11
5.3070866141732278
21
-5.2440944881889759
0
LINE
8
BLACK
6
CONTINUOUS
10
5.3070866141732278
20
-5.2440944881889759
11
5.2864173228346454
21
-5.2440944881889759
0
LINE
8
BLACK
6
CONTINUOUS
10
5.2864173228346454
20
-5.2440944881889759
11
5.2826507480314957
21
-5.243345275590551
0
LINE
8
BLACK
6
CONTINUOUS
10
5.2826507480314957
20
-5.243345275590551
11
5.2794575984251964
21
-5.2412116929133861
0
LINE
8
BLACK
6
CONTINUOUS
10
5.2794575984251964
20
-5.2412116929133861
11
5.2773240157480314
21
-5.2380185433070867
0
LINE
8
BLACK
6
CONTINUOUS
10
5.2773240157480314
20
-5.2380185433070867
11
5.2765748031496065
21
-5.234251968503937
0
LINE
8
BLACK
6
CONTINUOUS
10
5.2765748031496065
20
-5.234251968503937
11
5.2765748031496065
21
-5.1988188976377954
0
LINE
8
BLACK
6
CONTINUOUS
10
5.2765748031496065
20
-5.1988188976377954
11
5.2773240157480314
21
-5.1950523228346457
0
LINE
8
BLACK
6
CONTINUOUS
10
5.2773240157480314
20
-5.1950523228346457
11
5.2794575984251964
21
-5.1918591732283463
0
LINE
8
BLACK
6
CONTINUOUS
10
5.2794575984251964
20
-5.1918591732283463
11
5.2826507480314957
21
-5.1897255905511805
0
LINE
8
BLACK
6
CONTINUOUS
10
5.2826507480314957
20
-5.1897255905511805
11
5.2864173228346454
21
-5.1889763779527556
0
LINE
8
BLACK
6
CONTINUOUS
10
5.2864173228346454
20
-5.1889763779527556
11
5.3070866141732278
21
-5.1889763779527556
0
LINE
8
BLACK
6
CONTINUOUS
10
5.3070866141732278
20
-5.1889763779527556
11
5.3108531889763775
21
-5.1897255905511805
0
LINE
8
BLACK
6
CONTINUOUS
10
5.1820866141732278
20
-5.2381889763779528
11
5.1427165354330704
21
-5.2381889763779528
0
LINE
8
BLACK
6
CONTINUOUS
10
5.1427165354330704
20
-5.2381889763779528
11
5.1427165354330704
21
-5.2027559055118111
0
LINE
8
BLACK
6
CONTINUOUS
10
5.1427165354330704
20
-5.2027559055118111
11
5.1820866141732278
21
-5.2027559055118111
0
LINE
8
BLACK
6
CONTINUOUS
10
5.1820866141732278
20
-5.2027559055118111
11
5.1820866141732278
21
-5.2381889763779528
0
LINE
8
BLACK
6
CONTINUOUS
10
5.1820866141732278
20
-5.1751968503937009
11
5.1427165354330704
21
-5.1751968503937009
0
LINE
8
BLACK
6
CONTINUOUS
10
5.1427165354330704
20
-5.1751968503937009
11
5.1427165354330704
21
-5.1397637795275593
0
LINE
8
BLACK
6
CONTINUOUS
10
5.1427165354330704
20
-5.1397637795275593
11
5.1820866141732278
21
-5.1397637795275593
0
LINE
8
BLACK
6
CONTINUOUS
10
5.1820866141732278
20
-5.1397637795275593
11
5.1820866141732278
21
-5.1751968503937009
0
LINE
8
BLACK
6
CONTINUOUS
10
5.2390027952755904
20
-5.0814578740157481
11
5.2421959448818898
21
-5.083591456692913
0
LINE
8
BLACK
6
CONTINUOUS
10
5.2421959448818898
20
-5.083591456692913
11
5.2443295275590547
21
-5.0867846062992124
0
LINE
8
BLACK
6
CONTINUOUS
10
5.2443295275590547
20
-5.0867846062992124
11
5.2450787401574805
21
-5.090551181102362
0
LINE
8
BLACK
6
CONTINUOUS
10
5.2450787401574805
20
-5.090551181102362
11
5.2450787401574805
21
-5.1259842519685037
0
LINE
8
BLACK
6
CONTINUOUS
10
5.2450787401574805
20
-5.1259842519685037
11
5.2443295275590547
21
-5.1297508267716534
0
LINE
8
BLACK
6
CONTINUOUS
10
5.2443295275590547
20
-5.1297508267716534
11
5.2421959448818898
21
-5.1329439763779527
0
LINE
8
BLACK
6
CONTINUOUS
10
5.2421959448818898
20
-5.1329439763779527
11
5.2390027952755904
21
-5.1350775590551176
0
LINE
8
BLACK
6
CONTINUOUS
10
5.2390027952755904
20
-5.1350775590551176
11
5.2352362204724407
21
-5.1358267716535435
0
LINE
8
BLACK
6
CONTINUOUS
10
5.2352362204724407
20
-5.1358267716535435
11
5.2145669291338583
21
-5.1358267716535435
0
LINE
8
BLACK
6
CONTINUOUS
10
5.2145669291338583
20
-5.1358267716535435
11
5.2108003543307087
21
-5.1350775590551176
0
LINE
8
BLACK
6
CONTINUOUS
10
5.2108003543307087
20
-5.1350775590551176
11
5.2076072047244093
21
-5.1329439763779527
0
LINE
8
BLACK
6
CONTINUOUS
10
5.2076072047244093
20
-5.1329439763779527
11
5.2054736220472444
21
-5.1297508267716534
0
LINE
8
BLACK
6
CONTINUOUS
10
5.2054736220472444
20
-5.1297508267716534
11
5.2047244094488185
21
-5.1259842519685037
0
LINE
8
BLACK
6
CONTINUOUS
10
5.2047244094488185
20
-5.1259842519685037
11
5.2047244094488185
21
-5.090551181102362
0
LINE
8
BLACK
6
CONTINUOUS
10
5.2047244094488185
20
-5.090551181102362
11
5.2054736220472444
21
-5.0867846062992124
0
LINE
8
BLACK
6
CONTINUOUS
10
5.2054736220472444
20
-5.0867846062992124
11
5.2076072047244093
21
-5.083591456692913
0
LINE
8
BLACK
6
CONTINUOUS
10
5.2076072047244093
20
-5.083591456692913
11
5.2108003543307087
21
-5.0814578740157481
0
LINE
8
BLACK
6
CONTINUOUS
10
5.2108003543307087
20
-5.0814578740157481
11
5.2145669291338583
21
-5.0807086614173231
0
LINE
8
BLACK
6
CONTINUOUS
10
5.2145669291338583
20
-5.0807086614173231
11
5.2352362204724407
21
-5.0807086614173231
0
LINE
8
BLACK
6
CONTINUOUS
10
5.2352362204724407
20
-5.0807086614173231
11
5.2390027952755904
21
-5.0814578740157481
0
LINE
8
BLACK
6
CONTINUOUS
10
5.3108531889763775
20
-5.0814578740157481
11
5.3140463385826768
21
-5.083591456692913
0
LINE
8
BLACK
6
CONTINUOUS
10
5.3140463385826768
20
-5.083591456692913
11
5.3161799212598426
21
-5.0867846062992124
0
LINE
8
BLACK
6
CONTINUOUS
10
5.3161799212598426
20
-5.0867846062992124
11
5.3169291338582676
21
-5.090551181102362
0
LINE
8
BLACK
6
CONTINUOUS
10
5.3169291338582676
20
-5.090551181102362
11
5.3169291338582676
21
-5.1259842519685037
0
LINE
8
BLACK
6
CONTINUOUS
10
5.3169291338582676
20
-5.1259842519685037
11
5.3161799212598426
21
-5.1297508267716534
0
LINE
8
BLACK
6
CONTINUOUS
10
5.3161799212598426
20
-5.1297508267716534
11
5.3140463385826768
21
-5.1329439763779527
0
LINE
8
BLACK
6
CONTINUOUS
10
5.3140463385826768
20
-5.1329439763779527
11
5.3108531889763775
21
-5.1350775590551176
0
LINE
8
BLACK
6
CONTINUOUS
10
5.3108531889763775
20
-5.1350775590551176
11
5.3070866141732278
21
-5.1358267716535435
0
LINE
8
BLACK
6
CONTINUOUS
10
5.3070866141732278
20
-5.1358267716535435
11
5.2864173228346454
21
-5.1358267716535435
0
LINE
8
BLACK
6
CONTINUOUS
10
5.2864173228346454
20
-5.1358267716535435
11
5.2826507480314957
21
-5.1350775590551176
0
LINE
8
BLACK
6
CONTINUOUS
10
5.2826507480314957
20
-5.1350775590551176
11
5.2794575984251964
21
-5.1329439763779527
0
LINE
8
BLACK
6
CONTINUOUS
10
5.2794575984251964
20
-5.1329439763779527
11
5.2773240157480314
21
-5.1297508267716534
0
LINE
8
BLACK
6
CONTINUOUS
10
5.2773240157480314
20
-5.1297508267716534
11
5.2765748031496065
21
-5.1259842519685037
0
LINE
8
BLACK
6
CONTINUOUS
10
5.2765748031496065
20
-5.1259842519685037
11
5.2765748031496065
21
-5.090551181102362
0
LINE
8
BLACK
6
CONTINUOUS
10
5.2765748031496065
20
-5.090551181102362
11
5.2773240157480314
21
-5.0867846062992124
0
LINE
8
BLACK
6
CONTINUOUS
10
5.2773240157480314
20
-5.0867846062992124
11
5.2794575984251964
21
-5.083591456692913
0
LINE
8
BLACK
6
CONTINUOUS
10
5.2794575984251964
20
-5.083591456692913
11
5.2826507480314957
21
-5.0814578740157481
0
LINE
8
BLACK
6
CONTINUOUS
10
5.2826507480314957
20
-5.0814578740157481
11
5.2864173228346454
21
-5.0807086614173231
0
LINE
8
BLACK
6
CONTINUOUS
10
5.2864173228346454
20
-5.0807086614173231
11
5.3070866141732278
21
-5.0807086614173231
0
LINE
8
BLACK
6
CONTINUOUS
10
5.3070866141732278
20
-5.0807086614173231
11
5.3108531889763775
21
-5.0814578740157481
0
LINE
8
BLACK
6
CONTINUOUS
10
5.1820866141732278
20
-5.1299212598425195
11
5.1427165354330704
21
-5.1299212598425195
0
LINE
8
BLACK
6
CONTINUOUS
10
5.1427165354330704
20
-5.1299212598425195
11
5.1427165354330704
21
-5.0944881889763778
0
LINE
8
BLACK
6
CONTINUOUS
10
5.1427165354330704
20
-5.0944881889763778
11
5.1820866141732278
21
-5.0944881889763778
0
LINE
8
BLACK
6
CONTINUOUS
10
5.1820866141732278
20
-5.0944881889763778
11
5.1820866141732278
21
-5.1299212598425195
0
LINE
8
BLACK
6
CONTINUOUS
10
5.1820866141732278
20
-5.0669291338582676
11
5.1427165354330704
21
-5.0669291338582676
0
LINE
8
BLACK
6
CONTINUOUS
10
5.1427165354330704
20
-5.0669291338582676
11
5.1427165354330704
21
-5.0314960629921259
0
LINE
8
BLACK
6
CONTINUOUS
10
5.1427165354330704
20
-5.0314960629921259
11
5.1820866141732278
21
-5.0314960629921259
0
LINE
8
BLACK
6
CONTINUOUS
10
5.1820866141732278
20
-5.0314960629921259
11
5.1820866141732278
21
-5.0669291338582676
0
LINE
8
BLACK
6
CONTINUOUS
10
5.2424476771653543
20
-4.9771271653543305
11
5.2456408267716537
21
-4.9792607480314963
0
LINE
8
BLACK
6
CONTINUOUS
10
5.2456408267716537
20
-4.9792607480314963
11
5.2477744094488186
21
-4.9824538976377948
0
LINE
8
BLACK
6
CONTINUOUS
10
5.2477744094488186
20
-4.9824538976377948
11
5.2485236220472435
21
-4.9862204724409445
0
LINE
8
BLACK
6
CONTINUOUS
10
5.2485236220472435
20
-4.9862204724409445
11
5.2485236220472435
21
-5.0216535433070861
0
LINE
8
BLACK
6
CONTINUOUS
10
5.2485236220472435
20
-5.0216535433070861
11
5.2477744094488186
21
-5.0254201181102358
0
LINE
8
BLACK
6
CONTINUOUS
10
5.2477744094488186
20
-5.0254201181102358
11
5.2456408267716537
21
-5.0286132677165352
0
LINE
8
BLACK
6
CONTINUOUS
10
5.2456408267716537
20
-5.0286132677165352
11
5.2424476771653543
21
-5.030746850393701
0
LINE
8
BLACK
6
CONTINUOUS
10
5.2424476771653543
20
-5.030746850393701
11
5.2386811023622046
21
-5.0314960629921259
0
LINE
8
BLACK
6
CONTINUOUS
10
5.2386811023622046
20
-5.0314960629921259
11
5.2180118110236222
21
-5.0314960629921259
0
LINE
8
BLACK
6
CONTINUOUS
10
5.2180118110236222
20
-5.0314960629921259
11
5.2142452362204725
21
-5.030746850393701
0
LINE
8
BLACK
6
CONTINUOUS
10
5.2142452362204725
20
-5.030746850393701
11
5.2110520866141732
21
-5.0286132677165352
0
LINE
8
BLACK
6
CONTINUOUS
10
5.2110520866141732
20
-5.0286132677165352
11
5.2089185039370074
21
-5.0254201181102358
0
LINE
8
BLACK
6
CONTINUOUS
10
5.2089185039370074
20
-5.0254201181102358
11
5.2081692913385824
21
-5.0216535433070861
0
LINE
8
BLACK
6
CONTINUOUS
10
5.2081692913385824
20
-5.0216535433070861
11
5.2081692913385824
21
-4.9862204724409445
0
LINE
8
BLACK
6
CONTINUOUS
10
5.2081692913385824
20
-4.9862204724409445
11
5.2089185039370074
21
-4.9824538976377948
0
LINE
8
BLACK
6
CONTINUOUS
10
5.2089185039370074
20
-4.9824538976377948
11
5.2110520866141732
21
-4.9792607480314963
0
LINE
8
BLACK
6
CONTINUOUS
10
5.2110520866141732
20
-4.9792607480314963
11
5.2142452362204725
21
-4.9771271653543305
0
LINE
8
BLACK
6
CONTINUOUS
10
5.2142452362204725
20
-4.9771271653543305
11
5.2180118110236222
21
-4.9763779527559056
0
LINE
8
BLACK
6
CONTINUOUS
10
5.2180118110236222
20
-4.9763779527559056
11
5.2386811023622046
21
-4.9763779527559056
0
LINE
8
BLACK
6
CONTINUOUS
10
5.2386811023622046
20
-4.9763779527559056
11
5.2424476771653543
21
-4.9771271653543305
0
LINE
8
BLACK
6
CONTINUOUS
10
5.3142980708661414
20
-4.9771271653543305
11
5.3174912204724407
21
-4.9792607480314963
0
LINE
8
BLACK
6
CONTINUOUS
10
5.3174912204724407
20
-4.9792607480314963
11
5.3196248031496065
21
-4.9824538976377948
0
LINE
8
BLACK
6
CONTINUOUS
10
5.3196248031496065
20
-4.9824538976377948
11
5.3203740157480315
21
-4.9862204724409445
0
LINE
8
BLACK
6
CONTINUOUS
10
5.3203740157480315
20
-4.9862204724409445
11
5.3203740157480315
21
-5.0216535433070861
0
LINE
8
BLACK
6
CONTINUOUS
10
5.3203740157480315
20
-5.0216535433070861
11
5.3196248031496065
21
-5.0254201181102358
0
LINE
8
BLACK
6
CONTINUOUS
10
5.3196248031496065
20
-5.0254201181102358
11
5.3174912204724407
21
-5.0286132677165352
0
LINE
8
BLACK
6
CONTINUOUS
10
5.3174912204724407
20
-5.0286132677165352
11
5.3142980708661414
21
-5.030746850393701
0
LINE
8
BLACK
6
CONTINUOUS
10
5.3142980708661414
20
-5.030746850393701
11
5.3105314960629917
21
-5.0314960629921259
0
LINE
8
BLACK
6
CONTINUOUS
10
5.3105314960629917
20
-5.0314960629921259
11
5.2898622047244093
21
-5.0314960629921259
0
LINE
8
BLACK
6
CONTINUOUS
10
5.2898622047244093
20
-5.0314960629921259
11
5.2860956299212596
21
-5.030746850393701
0
LINE
8
BLACK
6
CONTINUOUS
10
5.2860956299212596
20
-5.030746850393701
11
5.2829024803149602
21
-5.0286132677165352
0
LINE
8
BLACK
6
CONTINUOUS
10
5.2829024803149602
20
-5.0286132677165352
11
5.2807688976377953
21
-5.0254201181102358
0
LINE
8
BLACK
6
CONTINUOUS
10
5.2807688976377953
20
-5.0254201181102358
11
5.2800196850393704
21
-5.0216535433070861
0
LINE
8
BLACK
6
CONTINUOUS
10
5.2800196850393704
20
-5.0216535433070861
11
5.2800196850393704
21
-4.9862204724409445
0
LINE
8
BLACK
6
CONTINUOUS
10
5.2800196850393704
20
-4.9862204724409445
11
5.2807688976377953
21
-4.9824538976377948
0
LINE
8
BLACK
6
CONTINUOUS
10
5.2807688976377953
20
-4.9824538976377948
11
5.2829024803149602
21
-4.9792607480314963
0
LINE
8
BLACK
6
CONTINUOUS
10
5.2829024803149602
20
-4.9792607480314963
11
5.2860956299212596
21
-4.9771271653543305
0
LINE
8
BLACK
6
CONTINUOUS
10
5.2860956299212596
20
-4.9771271653543305
11
5.2898622047244093
21
-4.9763779527559056
0
LINE
8
BLACK
6
CONTINUOUS
10
5.2898622047244093
20
-4.9763779527559056
11
5.3105314960629917
21
-4.9763779527559056
0
LINE
8
BLACK
6
CONTINUOUS
10
5.3105314960629917
20
-4.9763779527559056
11
5.3142980708661414
21
-4.9771271653543305
0
LINE
8
BLACK
6
CONTINUOUS
10
5.1820866141732278
20
-5.0216535433070861
11
5.1427165354330704
21
-5.0216535433070861
0
LINE
8
BLACK
6
CONTINUOUS
10
5.1427165354330704
20
-5.0216535433070861
11
5.1427165354330704
21
-4.9862204724409445
0
LINE
8
BLACK
6
CONTINUOUS
10
5.1427165354330704
20
-4.9862204724409445
11
5.1820866141732278
21
-4.9862204724409445
0
LINE
8
BLACK
6
CONTINUOUS
10
5.1820866141732278
20
-4.9862204724409445
11
5.1820866141732278
21
-5.0216535433070861
0
LINE
8
BLACK
6
CONTINUOUS
10
5.1820866141732278
20
-4.9586614173228343
11
5.1427165354330704
21
-4.9586614173228343
0
LINE
8
BLACK
6
CONTINUOUS
10
5.1427165354330704
20
-4.9586614173228343
11
5.1427165354330704
21
-4.9232283464566926
0
LINE
8
BLACK
6
CONTINUOUS
10
5.1427165354330704
20
-4.9232283464566926
11
5.1820866141732278
21
-4.9232283464566926
0
LINE
8
BLACK
6
CONTINUOUS
10
5.1820866141732278
20
-4.9232283464566926
11
5.1820866141732278
21
-4.9586614173228343
0
LINE
8
BLACK
6
CONTINUOUS
10
5.2454004330708663
20
-4.8649224409448815
11
5.2485935826771648
21
-4.8670560236220473
0
LINE
8
BLACK
6
CONTINUOUS
10
5.2485935826771648
20
-4.8670560236220473
11
5.2507271653543306
21
-4.8702491732283466
0
LINE
8
BLACK
6
CONTINUOUS
10
5.2507271653543306
20
-4.8702491732283466
11
5.2514763779527556
21
-4.8740157480314963
0
LINE
8
BLACK
6
CONTINUOUS
10
5.2514763779527556
20
-4.8740157480314963
11
5.2514763779527556
21
-4.909448818897638
0
LINE
8
BLACK
6
CONTINUOUS
10
5.2514763779527556
20
-4.909448818897638
11
5.2507271653543306
21
-4.9132153937007876
0
LINE
8
BLACK
6
CONTINUOUS
10
5.2507271653543306
20
-4.9132153937007876
11
5.2485935826771648
21
-4.9164085433070861
0
LINE
8
BLACK
6
CONTINUOUS
10
5.2485935826771648
20
-4.9164085433070861
11
5.2454004330708663
21
-4.9185421259842519
0
LINE
8
BLACK
6
CONTINUOUS
10
5.2454004330708663
20
-4.9185421259842519
11
5.2416338582677167
21
-4.9192913385826769
0
LINE
8
BLACK
6
CONTINUOUS
10
5.2416338582677167
20
-4.9192913385826769
11
5.2209645669291334
21
-4.9192913385826769
0
LINE
8
BLACK
6
CONTINUOUS
10
5.2209645669291334
20
-4.9192913385826769
11
5.2171979921259846
21
-4.9185421259842519
0
LINE
8
BLACK
6
CONTINUOUS
10
5.2171979921259846
20
-4.9185421259842519
11
5.2140048425196852
21
-4.9164085433070861
0
LINE
8
BLACK
6
CONTINUOUS
10
5.2140048425196852
20
-4.9164085433070861
11
5.2118712598425194
21
-4.9132153937007876
0
LINE
8
BLACK
6
CONTINUOUS
10
5.2118712598425194
20
-4.9132153937007876
11
5.2111220472440944
21
-4.909448818897638
0
LINE
8
BLACK
6
CONTINUOUS
10
5.2111220472440944
20
-4.909448818897638
11
5.2111220472440944
21
-4.8740157480314963
0
LINE
8
BLACK
6
CONTINUOUS
10
5.2111220472440944
20
-4.8740157480314963
11
5.2118712598425194
21
-4.8702491732283466
0
LINE
8
BLACK
6
CONTINUOUS
10
5.2118712598425194
20
-4.8702491732283466
11
5.2140048425196852
21
-4.8670560236220473
0
LINE
8
BLACK
6
CONTINUOUS
10
5.2140048425196852
20
-4.8670560236220473
11
5.2171979921259846
21
-4.8649224409448815
0
LINE
8
BLACK
6
CONTINUOUS
10
5.2171979921259846
20
-4.8649224409448815
11
5.2209645669291334
21
-4.8641732283464565
0
LINE
8
BLACK
6
CONTINUOUS
10
5.2209645669291334
20
-4.8641732283464565
11
5.2416338582677167
21
-4.8641732283464565
0
LINE
8
BLACK
6
CONTINUOUS
10
5.2416338582677167
20
-4.8641732283464565
11
5.2454004330708663
21
-4.8649224409448815
0
LINE
8
BLACK
6
CONTINUOUS
10
5.3172508267716534
20
-4.8649224409448815
11
5.3204439763779527
21
-4.8670560236220473
0
LINE
8
BLACK
6
CONTINUOUS
10
5.3204439763779527
20
-4.8670560236220473
11
5.3225775590551176
21
-4.8702491732283466
0
LINE
8
BLACK
6
CONTINUOUS
10
5.3225775590551176
20
-4.8702491732283466
11
5.3233267716535435
21
-4.8740157480314963
0
LINE
8
BLACK
6
CONTINUOUS
10
5.3233267716535435
20
-4.8740157480314963
11
5.3233267716535435
21
-4.909448818897638
0
LINE
8
BLACK
6
CONTINUOUS
10
5.3233267716535435
20
-4.909448818897638
11
5.3225775590551176
21
-4.9132153937007876
0
LINE
8
BLACK
6
CONTINUOUS
10
5.3225775590551176
20
-4.9132153937007876
11
5.3204439763779527
21
-4.9164085433070861
0
LINE
8
BLACK
6
CONTINUOUS
10
5.3204439763779527
20
-4.9164085433070861
11
5.3172508267716534
21
-4.9185421259842519
0
LINE
8
BLACK
6
CONTINUOUS
10
5.3172508267716534
20
-4.9185421259842519
11
5.3134842519685037
21
-4.9192913385826769
0
LINE
8
BLACK
6
CONTINUOUS
10
5.3134842519685037
20
-4.9192913385826769
11
5.2928149606299213
21
-4.9192913385826769
0
LINE
8
BLACK
6
CONTINUOUS
10
5.2928149606299213
20
-4.9192913385826769
11
5.2890483858267716
21
-4.9185421259842519
0
LINE
8
BLACK
6
CONTINUOUS
10
5.2890483858267716
20
-4.9185421259842519
11
5.2858552362204723
21
-4.9164085433070861
0
LINE
8
BLACK
6
CONTINUOUS
10
5.2858552362204723
20
-4.9164085433070861
11
5.2837216535433074
21
-4.9132153937007876
0
LINE
8
BLACK
6
CONTINUOUS
10
5.2837216535433074
20
-4.9132153937007876
11
5.2829724409448815
21
-4.909448818897638
0
LINE
8
BLACK
6
CONTINUOUS
10
5.2829724409448815
20
-4.909448818897638
11
5.2829724409448815
21
-4.8740157480314963
0
LINE
8
BLACK
6
CONTINUOUS
10
5.2829724409448815
20
-4.8740157480314963
11
5.2837216535433074
21
-4.8702491732283466
0
LINE
8
BLACK
6
CONTINUOUS
10
5.2837216535433074
20
-4.8702491732283466
11
5.2858552362204723
21
-4.8670560236220473
0
LINE
8
BLACK
6
CONTINUOUS
10
5.2858552362204723
20
-4.8670560236220473
11
5.2890483858267716
21
-4.8649224409448815
0
LINE
8
BLACK
6
CONTINUOUS
10
5.2890483858267716
20
-4.8649224409448815
11
5.2928149606299213
21
-4.8641732283464565
0
LINE
8
BLACK
6
CONTINUOUS
10
5.2928149606299213
20
-4.8641732283464565
11
5.3134842519685037
21
-4.8641732283464565
0
LINE
8
BLACK
6
CONTINUOUS
10
5.3134842519685037
20
-4.8641732283464565
11
5.3172508267716534
21
-4.8649224409448815
0
LINE
8
BLACK
6
CONTINUOUS
10
5.1820866141732278
20
-4.9133858267716537
11
5.1427165354330704
21
-4.9133858267716537
0
LINE
8
BLACK
6
CONTINUOUS
10
5.1427165354330704
20
-4.9133858267716537
11
5.1427165354330704
21
-4.877952755905512
0
LINE
8
BLACK
6
CONTINUOUS
10
5.1427165354330704
20
-4.877952755905512
11
5.1820866141732278
21
-4.877952755905512
0
LINE
8
BLACK
6
CONTINUOUS
10
5.1820866141732278
20
-4.877952755905512
11
5.1820866141732278
21
-4.9133858267716537
0
LINE
8
BLACK
6
CONTINUOUS
10
5.1820866141732278
20
-4.7372047244094491
11
5.1948818897637796
21
-4.7372047244094491
0
LINE
8
BLACK
6
CONTINUOUS
10
5.1948818897637796
20
-4.7372047244094491
11
5.1948818897637796
21
-4.7726377952755907
0
LINE
8
BLACK
6
CONTINUOUS
10
5.1948818897637796
20
-4.7726377952755907
11
5.1820866141732278
21
-4.7726377952755907
0
LINE
8
BLACK
6
CONTINUOUS
10
5.1820866141732278
20
-4.7726377952755907
11
5.1820866141732278
21
-4.8001968503937009
0
LINE
8
BLACK
6
CONTINUOUS
10
5.1820866141732278
20
-4.8001968503937009
11
5.1948818897637796
21
-4.8001968503937009
0
LINE
8
BLACK
6
CONTINUOUS
10
5.1948818897637796
20
-4.8001968503937009
11
5.1948818897637796
21
-4.8356299212598426
0
LINE
8
BLACK
6
CONTINUOUS
10
5.1948818897637796
20
-4.8356299212598426
11
5.1820866141732278
21
-4.8356299212598426
0
LINE
8
BLACK
6
CONTINUOUS
10
5.1820866141732278
20
-4.8356299212598426
11
5.1820866141732278
21
-4.8503937007874018
0
LINE
8
BLACK
6
CONTINUOUS
10
5.1820866141732278
20
-4.8503937007874018
11
5.1427165354330704
21
-4.8503937007874018
0
LINE
8
BLACK
6
CONTINUOUS
10
5.1427165354330704
20
-4.8503937007874018
11
5.1427165354330704
21
-4.8149606299212602
0
LINE
8
BLACK
6
CONTINUOUS
10
5.1427165354330704
20
-4.8149606299212602
11
5.1555118110236222
21
-4.8149606299212602
0
LINE
8
BLACK
6
CONTINUOUS
10
5.1555118110236222
20
-4.8149606299212602
11
5.1555118110236222
21
-4.8051181102362204
0
LINE
8
BLACK
6
CONTINUOUS
10
5.1555118110236222
20
-4.8051181102362204
11
5.1427165354330704
21
-4.8051181102362204
0
LINE
8
BLACK
6
CONTINUOUS
10
5.1427165354330704
20
-4.8051181102362204
11
5.1427165354330704
21
-4.7696850393700787
0
LINE
8
BLACK
6
CONTINUOUS
10
5.1427165354330704
20
-4.7696850393700787
11
5.1555118110236222
21
-4.7696850393700787
0
LINE
8
BLACK
6
CONTINUOUS
10
5.1555118110236222
20
-4.7696850393700787
11
5.1555118110236222
21
-4.7421259842519685
0
LINE
8
BLACK
6
CONTINUOUS
10
5.1555118110236222
20
-4.7421259842519685
11
5.1427165354330704
21
-4.7421259842519685
0
LINE
8
BLACK
6
CONTINUOUS
10
5.1427165354330704
20
-4.7421259842519685
11
5.1427165354330704
21
-4.7066929133858268
0
LINE
8
BLACK
6
CONTINUOUS
10
5.1427165354330704
20
-4.7066929133858268
11
5.1820866141732278
21
-4.7066929133858268
0
LINE
8
BLACK
6
CONTINUOUS
10
5.1820866141732278
20
-4.7066929133858268
11
5.1820866141732278
21
-4.7372047244094491
0
LINE
8
BLACK
6
CONTINUOUS
10
5.2390027952755904
20
-4.756654724409449
11
5.2421959448818898
21
-4.7587883070866139
0
LINE
8
BLACK
6
CONTINUOUS
10
5.2421959448818898
20
-4.7587883070866139
11
5.2443295275590547
21
-4.7619814566929133
0
LINE
8
BLACK
6
CONTINUOUS
10
5.2443295275590547
20
-4.7619814566929133
11
5.2450787401574805
21
-4.765748031496063
0
LINE
8
BLACK
6
CONTINUOUS
10
5.2450787401574805
20
-4.765748031496063
11
5.2450787401574805
21
-4.8011811023622046
0
LINE
8
BLACK
6
CONTINUOUS
10
5.2450787401574805
20
-4.8011811023622046
11
5.2443295275590547
21
-4.8049476771653543
0
LINE
8
BLACK
6
CONTINUOUS
10
5.2443295275590547
20
-4.8049476771653543
11
5.2421959448818898
21
-4.8081408267716537
0
LINE
8
BLACK
6
CONTINUOUS
10
5.2421959448818898
20
-4.8081408267716537
11
5.2390027952755904
21
-4.8102744094488186
0
LINE
8
BLACK
6
CONTINUOUS
10
5.2390027952755904
20
-4.8102744094488186
11
5.2352362204724407
21
-4.8110236220472435
0
LINE
8
BLACK
6
CONTINUOUS
10
5.2352362204724407
20
-4.8110236220472435
11
5.2145669291338583
21
-4.8110236220472435
0
LINE
8
BLACK
6
CONTINUOUS
10
5.2145669291338583
20
-4.8110236220472435
11
5.2108003543307087
21
-4.8102744094488186
0
LINE
8
BLACK
6
CONTINUOUS
10
5.2108003543307087
20
-4.8102744094488186
11
5.2076072047244093
21
-4.8081408267716537
0
LINE
8
BLACK
6
CONTINUOUS
10
5.2076072047244093
20
-4.8081408267716537
11
5.2054736220472444
21
-4.8049476771653543
0
LINE
8
BLACK
6
CONTINUOUS
10
5.2054736220472444
20
-4.8049476771653543
11
5.2047244094488185
21
-4.8011811023622046
0
LINE
8
BLACK
6
CONTINUOUS
10
5.2047244094488185
20
-4.8011811023622046
11
5.2047244094488185
21
-4.765748031496063
0
LINE
8
BLACK
6
CONTINUOUS
10
5.2047244094488185
20
-4.765748031496063
11
5.2054736220472444
21
-4.7619814566929133
0
LINE
8
BLACK
6
CONTINUOUS
10
5.2054736220472444
20
-4.7619814566929133
11
5.2076072047244093
21
-4.7587883070866139
0
LINE
8
BLACK
6
CONTINUOUS
10
5.2076072047244093
20
-4.7587883070866139
11
5.2108003543307087
21
-4.756654724409449
0
LINE
8
BLACK
6
CONTINUOUS
10
5.2108003543307087
20
-4.756654724409449
11
5.2145669291338583
21
-4.7559055118110232
0
LINE
8
BLACK
6
CONTINUOUS
10
5.2145669291338583
20
-4.7559055118110232
11
5.2352362204724407
21
-4.7559055118110232
0
LINE
8
BLACK
6
CONTINUOUS
10
5.2352362204724407
20
-4.7559055118110232
11
5.2390027952755904
21
-4.756654724409449
0
LINE
8
BLACK
6
CONTINUOUS
10
5.3108531889763775
20
-4.756654724409449
11
5.3140463385826768
21
-4.7587883070866139
0
LINE
8
BLACK
6
CONTINUOUS
10
5.3140463385826768
20
-4.7587883070866139
11
5.3161799212598426
21
-4.7619814566929133
0
LINE
8
BLACK
6
CONTINUOUS
10
5.3161799212598426
20
-4.7619814566929133
11
5.3169291338582676
21
-4.765748031496063
0
LINE
8
BLACK
6
CONTINUOUS
10
5.3169291338582676
20
-4.765748031496063
11
5.3169291338582676
21
-4.8011811023622046
0
LINE
8
BLACK
6
CONTINUOUS
10
5.3169291338582676
20
-4.8011811023622046
11
5.3161799212598426
21
-4.8049476771653543
0
LINE
8
BLACK
6
CONTINUOUS
10
5.3161799212598426
20
-4.8049476771653543
11
5.3140463385826768
21
-4.8081408267716537
0
LINE
8
BLACK
6
CONTINUOUS
10
5.3140463385826768
20
-4.8081408267716537
11
5.3108531889763775
21
-4.8102744094488186
0
LINE
8
BLACK
6
CONTINUOUS
10
5.3108531889763775
20
-4.8102744094488186
11
5.3070866141732278
21
-4.8110236220472435
0
LINE
8
BLACK
6
CONTINUOUS
10
5.3070866141732278
20
-4.8110236220472435
11
5.2864173228346454
21
-4.8110236220472435
0
LINE
8
BLACK
6
CONTINUOUS
10
5.2864173228346454
20
-4.8110236220472435
11
5.2826507480314957
21
-4.8102744094488186
0
LINE
8
BLACK
6
CONTINUOUS
10
5.2826507480314957
20
-4.8102744094488186
11
5.2794575984251964
21
-4.8081408267716537
0
LINE
8
BLACK
6
CONTINUOUS
10
5.2794575984251964
20
-4.8081408267716537
11
5.2773240157480314
21
-4.8049476771653543
0
LINE
8
BLACK
6
CONTINUOUS
10
5.2773240157480314
20
-4.8049476771653543
11
5.2765748031496065
21
-4.8011811023622046
0
LINE
8
BLACK
6
CONTINUOUS
10
5.2765748031496065
20
-4.8011811023622046
11
5.2765748031496065
21
-4.765748031496063
0
LINE
8
BLACK
6
CONTINUOUS
10
5.2765748031496065
20
-4.765748031496063
11
5.2773240157480314
21
-4.7619814566929133
0
LINE
8
BLACK
6
CONTINUOUS
10
5.2773240157480314
20
-4.7619814566929133
11
5.2794575984251964
21
-4.7587883070866139
0
LINE
8
BLACK
6
CONTINUOUS
10
5.2794575984251964
20
-4.7587883070866139
11
5.2826507480314957
21
-4.756654724409449
0
LINE
8
BLACK
6
CONTINUOUS
10
5.2826507480314957
20
-4.756654724409449
11
5.2864173228346454
21
-4.7559055118110232
0
LINE
8
BLACK
6
CONTINUOUS
10
5.2864173228346454
20
-4.7559055118110232
11
5.3070866141732278
21
-4.7559055118110232
0
LINE
8
BLACK
6
CONTINUOUS
10
5.3070866141732278
20
-4.7559055118110232
11
5.3108531889763775
21
-4.756654724409449
0
LINE
8
BLACK
6
CONTINUOUS
10
5.2390027952755904
20
-4.6523240157480314
11
5.2421959448818898
21
-4.6544575984251964
0
LINE
8
BLACK
6
CONTINUOUS
10
5.2421959448818898
20
-4.6544575984251964
11
5.2443295275590547
21
-4.6576507480314957
0
LINE
8
BLACK
6
CONTINUOUS
10
5.2443295275590547
20
-4.6576507480314957
11
5.2450787401574805
21
-4.6614173228346454
0
LINE
8
BLACK
6
CONTINUOUS
10
5.2450787401574805
20
-4.6614173228346454
11
5.2450787401574805
21
-4.6968503937007871
0
LINE
8
BLACK
6
CONTINUOUS
10
5.2450787401574805
20
-4.6968503937007871
11
5.2443295275590547
21
-4.7006169685039367
0
LINE
8
BLACK
6
CONTINUOUS
10
5.2443295275590547
20
-4.7006169685039367
11
5.2421959448818898
21
-4.7038101181102361
0
LINE
8
BLACK
6
CONTINUOUS
10
5.2421959448818898
20
-4.7038101181102361
11
5.2390027952755904
21
-4.7059437007874019
0
LINE
8
BLACK
6
CONTINUOUS
10
5.2390027952755904
20
-4.7059437007874019
11
5.2352362204724407
21
-4.7066929133858268
0
LINE
8
BLACK
6
CONTINUOUS
10
5.2352362204724407
20
-4.7066929133858268
11
5.2145669291338583
21
-4.7066929133858268
0
LINE
8
BLACK
6
CONTINUOUS
10
5.2145669291338583
20
-4.7066929133858268
11
5.2108003543307087
21
-4.7059437007874019
0
LINE
8
BLACK
6
CONTINUOUS
10
5.2108003543307087
20
-4.7059437007874019
11
5.2076072047244093
21
-4.7038101181102361
0
LINE
8
BLACK
6
CONTINUOUS
10
5.2076072047244093
20
-4.7038101181102361
11
5.2054736220472444
21
-4.7006169685039367
0
LINE
8
BLACK
6
CONTINUOUS
10
5.2054736220472444
20
-4.7006169685039367
11
5.2047244094488185
21
-4.6968503937007871
0
LINE
8
BLACK
6
CONTINUOUS
10
5.2047244094488185
20
-4.6968503937007871
11
5.2047244094488185
21
-4.6614173228346454
0
LINE
8
BLACK
6
CONTINUOUS
10
5.2047244094488185
20
-4.6614173228346454
11
5.2054736220472444
21
-4.6576507480314957
0
LINE
8
BLACK
6
CONTINUOUS
10
5.2054736220472444
20
-4.6576507480314957
11
5.2076072047244093
21
-4.6544575984251964
0
LINE
8
BLACK
6
CONTINUOUS
10
5.2076072047244093
20
-4.6544575984251964
11
5.2108003543307087
21
-4.6523240157480314
0
LINE
8
BLACK
6
CONTINUOUS
10
5.2108003543307087
20
-4.6523240157480314
11
5.2145669291338583
21
-4.6515748031496065
0
LINE
8
BLACK
6
CONTINUOUS
10
5.2145669291338583
20
-4.6515748031496065
11
5.2352362204724407
21
-4.6515748031496065
0
LINE
8
BLACK
6
CONTINUOUS
10
5.2352362204724407
20
-4.6515748031496065
11
5.2390027952755904
21
-4.6523240157480314
0
LINE
8
BLACK
6
CONTINUOUS
10
5.3108531889763775
20
-4.6523240157480314
11
5.3140463385826768
21
-4.6544575984251964
0
LINE
8
BLACK
6
CONTINUOUS
10
5.3140463385826768
20
-4.6544575984251964
11
5.3161799212598426
21
-4.6576507480314957
0
LINE
8
BLACK
6
CONTINUOUS
10
5.3161799212598426
20
-4.6576507480314957
11
5.3169291338582676
21
-4.6614173228346454
0
LINE
8
BLACK
6
CONTINUOUS
10
5.3169291338582676
20
-4.6614173228346454
11
5.3169291338582676
21
-4.6968503937007871
0
LINE
8
BLACK
6
CONTINUOUS
10
5.3169291338582676
20
-4.6968503937007871
11
5.3161799212598426
21
-4.7006169685039367
0
LINE
8
BLACK
6
CONTINUOUS
10
5.3161799212598426
20
-4.7006169685039367
11
5.3140463385826768
21
-4.7038101181102361
0
LINE
8
BLACK
6
CONTINUOUS
10
5.3140463385826768
20
-4.7038101181102361
11
5.3108531889763775
21
-4.7059437007874019
0
LINE
8
BLACK
6
CONTINUOUS
10
5.3108531889763775
20
-4.7059437007874019
11
5.3070866141732278
21
-4.7066929133858268
0
LINE
8
BLACK
6
CONTINUOUS
10
5.3070866141732278
20
-4.7066929133858268
11
5.2864173228346454
21
-4.7066929133858268
0
LINE
8
BLACK
6
CONTINUOUS
10
5.2864173228346454
20
-4.7066929133858268
11
5.2826507480314957
21
-4.7059437007874019
0
LINE
8
BLACK
6
CONTINUOUS
10
5.2826507480314957
20
-4.7059437007874019
11
5.2794575984251964
21
-4.7038101181102361
0
LINE
8
BLACK
6
CONTINUOUS
10
5.2794575984251964
20
-4.7038101181102361
11
5.2773240157480314
21
-4.7006169685039367
0
LINE
8
BLACK
6
CONTINUOUS
10
5.2773240157480314
20
-4.7006169685039367
11
5.2765748031496065
21
-4.6968503937007871
0
LINE
8
BLACK
6
CONTINUOUS
10
5.2765748031496065
20
-4.6968503937007871
11
5.2765748031496065
21
-4.6614173228346454
0
LINE
8
BLACK
6
CONTINUOUS
10
5.2765748031496065
20
-4.6614173228346454
11
5.2773240157480314
21
-4.6576507480314957
0
LINE
8
BLACK
6
CONTINUOUS
10
5.2773240157480314
20
-4.6576507480314957
11
5.2794575984251964
21
-4.6544575984251964
0
LINE
8
BLACK
6
CONTINUOUS
10
5.2794575984251964
20
-4.6544575984251964
11
5.2826507480314957
21
-4.6523240157480314
0
LINE
8
BLACK
6
CONTINUOUS
10
5.2826507480314957
20
-4.6523240157480314
11
5.2864173228346454
21
-4.6515748031496065
0
LINE
8
BLACK
6
CONTINUOUS
10
5.2864173228346454
20
-4.6515748031496065
11
5.3070866141732278
21
-4.6515748031496065
0
LINE
8
BLACK
6
CONTINUOUS
10
5.3070866141732278
20
-4.6515748031496065
11
5.3108531889763775
21
-4.6523240157480314
0
LINE
8
BLACK
6
CONTINUOUS
10
6.1003937007874018
20
-5.5901574803149607
11
6.1003937007874018
21
-5.6059055118110237
0
ARC
8
BLACK
10
6.1102362204724407
20
-5.6059055118110237
40
0.0098425196850394
50
-180.00000000
51
0.00000000
0
LINE
8
BLACK
6
CONTINUOUS
10
6.1200787401574805
20
-5.6059055118110237
11
6.1200787401574805
21
-5.5901574803149607
0
ARC
8
BLACK
10
6.1102362204724407
20
-5.5901574803149607
40
0.0098425196850394
50
0.00000000
51
180.00000000
0
LINE
8
BLACK
6
CONTINUOUS
10
6.2677165354330704
20
-5.5901574803149607
11
6.2677165354330704
21
-5.6059055118110237
0
ARC
8
BLACK
10
6.2775590551181102
20
-5.6059055118110237
40
0.0098425196850394
50
-180.00000000
51
0.00000000
0
LINE
8
BLACK
6
CONTINUOUS
10
6.2874015748031491
20
-5.6059055118110237
11
6.2874015748031491
21
-5.5901574803149607
0
ARC
8
BLACK
10
6.2775590551181102
20
-5.5901574803149607
40
0.0098425196850394
50
0.00000000
51
180.00000000
0
CIRCLE
8
BLACK
10
5.5651181102362202
20
-3.5463779527559054
40
0.0068897637795276
0
CIRCLE
8
BLACK
10
5.506062992125984
20
-1.4696062992125984
40
0.0068897637795276
0
CIRCLE
8
BLACK
10
9.1477952755905516
20
-3.507007874015748
40
0.0068897637795276
0
CIRCLE
8
BLACK
10
7.1354330708661413
20
-5.7086614173228343
40
0.0068897637795276
0
CIRCLE
8
BLACK
10
7.1354330708661413
20
-5.6086614173228346
40
0.0068897637795276
0
CIRCLE
8
BLACK
10
7.2354330708661418
20
-5.7086614173228343
40
0.0068897637795276
0
CIRCLE
8
BLACK
10
7.2354330708661418
20
-5.6086614173228346
40
0.0068897637795276
0
CIRCLE
8
BLACK
10
7.3354330708661415
20
-5.7086614173228343
40
0.0068897637795276
0
CIRCLE
8
BLACK
10
7.3354330708661415
20
-5.6086614173228346
40
0.0068897637795276
0
CIRCLE
8
BLACK
10
9.1576377952755905
20
-1.4696062992125984
40
0.0068897637795276
0
CIRCLE
8
BLACK
10
6.2204724409448815
20
-2.0964566929133857
40
0.0068897637795276
0
CIRCLE
8
BLACK
10
6.2204724409448815
20
-2.856299212598425
40
0.0068897637795276
0
CIRCLE
8
BLACK
10
8.4102362204724415
20
-2.0964566929133857
40
0.0068897637795276
0
CIRCLE
8
BLACK
10
8.4102362204724415
20
-2.856299212598425
40
0.0068897637795276
0
CIRCLE
8
BLACK
10
5.8862204724409448
20
-2.0964566929133857
40
0.0068897637795276
0
CIRCLE
8
BLACK
10
8.7444881889763781
20
-2.0964566929133857
40
0.0068897637795276
0
CIRCLE
8
BLACK
10
5.8862204724409448
20
-2.856299212598425
40
0.0068897637795276
0
CIRCLE
8
BLACK
10
8.7444881889763781
20
-2.856299212598425
40
0.0068897637795276
0
CIRCLE
8
BLACK
10
6.8334645669291341
20
-5.590551181102362
40
0.0068897637795276
0
CIRCLE
8
BLACK
10
6.7334645669291335
20
-5.590551181102362
40
0.0068897637795276
0
CIRCLE
8
BLACK
10
6.6334645669291339
20
-5.590551181102362
40
0.0068897637795276
0
CIRCLE
8
BLACK
10
6.5334645669291334
20
-5.590551181102362
40
0.0068897637795276
0
CIRCLE
8
BLACK
10
9.3123622047244101
20
-2.2849606299212599
40
0.0068897637795276
0
CIRCLE
8
BLACK
10
9.3123622047244101
20
-2.0574015748031496
40
0.0068897637795276
0
LINE
8
BLACK
6
CONTINUOUS
10
9.1517322834645665
20
-2.3530708661417323
11
9.1832283464566924
21
-2.3530708661417323
0
ARC
8
BLACK
10
9.1832283464566924
20
-2.3412598425196851
40
0.0118110236220472
50
-90.00000000
51
90.00000000
0
LINE
8
BLACK
6
CONTINUOUS
10
9.1832283464566924
20
-2.3294488188976379
11
9.1517322834645665
21
-2.3294488188976379
0
ARC
8
BLACK
10
9.1517322834645665
20
-2.3412598425196851
40
0.0118110236220472
50
90.00000000
51
270.00000000
0
LINE
8
BLACK
6
CONTINUOUS
10
9.1517322834645665
20
-2.0129133858267716
11
9.1832283464566924
21
-2.0129133858267716
0
ARC
8
BLACK
10
9.1832283464566924
20
-2.0011023622047244
40
0.0118110236220472
50
-90.00000000
51
90.00000000
0
LINE
8
BLACK
6
CONTINUOUS
10
9.1832283464566924
20
-1.9892913385826771
11
9.1517322834645665
21
-1.9892913385826771
0
ARC
8
BLACK
10
9.1517322834645665
20
-2.0011023622047244
40
0.0118110236220472
50
90.00000000
51
270.00000000
0
LINE
8
BLACK
6
CONTINUOUS
10
9.3103937007874009
20
-2.3530708661417323
11
9.353700787401575
21
-2.3530708661417323
0
ARC
8
BLACK
10
9.353700787401575
20
-2.3412598425196851
40
0.0118110236220472
50
-90.00000000
51
90.00000000
0
LINE
8
BLACK
6
CONTINUOUS
10
9.353700787401575
20
-2.3294488188976379
11
9.3103937007874009
21
-2.3294488188976379
0
ARC
8
BLACK
10
9.3103937007874009
20
-2.3412598425196851
40
0.0118110236220472
50
90.00000000
51
270.00000000
0
LINE
8
BLACK
6
CONTINUOUS
10
9.3103937007874009
20
-2.0129133858267716
11
9.353700787401575
21
-2.0129133858267716
0
ARC
8
BLACK
10
9.353700787401575
20
-2.0011023622047244
40
0.0118110236220472
50
-90.00000000
51
90.00000000
0
LINE
8
BLACK
6
CONTINUOUS
10
9.353700787401575
20
-1.9892913385826771
11
9.3103937007874009
21
-1.9892913385826771
0
ARC
8
BLACK
10
9.3103937007874009
20
-2.0011023622047244
40
0.0118110236220472
50
90.00000000
51
270.00000000
  0
ENDSEC
  0
EOF
