  0
SECTION
  2
HEADER
  9
$ANGBASE
  50
0.0
  9
$ANGDIR
  70
1
  9
$MEASUREMENT
  70
0
  0
ENDSEC
  0
SECTION
  2
TABLES
  0
TABLE
  2
LTYPE
  70
4
  0
LTYPE
  5
40F
  2
CONTINUOUS
  70
0
  3
Solid line
  72
65
  73
0
  40
0.0
  0
LTYPE
  5
410
  2
DASHDOT
 70
0
  3
Dash Dot ____ _ ____ _
 72
65
 73
4
 40
2.0
 49
1.25
 49
-0.25
 49
0.25
 49
-0.25
  0
LTYPE
  5
411
  2
DASHED
 70
0
  3
Dashed __ __ __ __ __
 72
65
 73
2
 40
0.75
 49
0.5
 49
-0.25
  0
LTYPE
  5
43B
  2
DOTTED
 70
0
  3
Dotted .  .  .  .
 72
65
 73
2
 40
0.2
 49
0.0
 49
-0.2
  0
ENDTAB
  0
TABLE
  2
STYLE
  70
4
  0
STYLE
  2
KICAD
  70
0
  40
0
  41
1
  42
1
  50
0
  71
0
  3
isocp.shx
  0
STYLE
  2
KICADB
  70
0
  40
0
  41
1
  42
1
  50
0
  71
0
  3
isocp.shx
  0
STYLE
  2
KICADI
  70
0
  40
0
  41
1
  42
1
  50
15
  71
0
  3
isocp.shx
  0
STYLE
  2
KICADBI
  70
0
  40
0
  41
1
  42
1
  50
15
  71
0
  3
isocp.shx
  0
ENDTAB
  0
TABLE
  2
LAYER
  70
1
  0
LAYER
  2
BLACK
  70
0
  62
7
  6
CONTINUOUS
  0
ENDTAB
  0
ENDSEC
  0
SECTION
  2
ENTITIES
0
LINE
8
BLACK
6
CONTINUOUS
10
5.5559919685039372
20
-4.5273532677165349
11
5.5545223228346456
21
-4.5309012992125988
0
LINE
8
BLACK
6
CONTINUOUS
10
5.5545223228346456
20
-4.5309012992125988
11
5.5518068110236216
21
-4.5336168110236219
0
LINE
8
BLACK
6
CONTINUOUS
10
5.5518068110236216
20
-4.5336168110236219
11
5.5482587795275586
21
-4.5350864566929134
0
LINE
8
BLACK
6
CONTINUOUS
10
5.5482587795275586
20
-4.5350864566929134
11
5.5444183858267717
21
-4.5350864566929134
0
LINE
8
BLACK
6
CONTINUOUS
10
5.5444183858267717
20
-4.5350864566929134
11
5.5408703543307087
21
-4.5336168110236219
0
LINE
8
BLACK
6
CONTINUOUS
10
5.5408703543307087
20
-4.5336168110236219
11
5.5381548425196847
21
-4.5309012992125988
0
LINE
8
BLACK
6
CONTINUOUS
10
5.5381548425196847
20
-4.5309012992125988
11
5.5366851968503932
21
-4.5273532677165349
0
LINE
8
BLACK
6
CONTINUOUS
10
5.5366851968503932
20
-4.5273532677165349
11
5.5364960629921258
21
-4.5254330708661419
0
LINE
8
BLACK
6
CONTINUOUS
10
5.5364960629921258
20
-4.5254330708661419
11
5.5364960629921258
21
-4.5096850393700789
0
LINE
8
BLACK
6
CONTINUOUS
10
5.5364960629921258
20
-4.5096850393700789
11
5.5366851968503932
21
-4.507764842519685
0
LINE
8
BLACK
6
CONTINUOUS
10
5.5366851968503932
20
-4.507764842519685
11
5.5381548425196847
21
-4.504216811023622
0
LINE
8
BLACK
6
CONTINUOUS
10
5.5381548425196847
20
-4.504216811023622
11
5.5408703543307087
21
-4.501501299212598
0
LINE
8
BLACK
6
CONTINUOUS
10
5.5408703543307087
20
-4.501501299212598
11
5.5444183858267717
21
-4.5000316535433074
0
LINE
8
BLACK
6
CONTINUOUS
10
5.5444183858267717
20
-4.5000316535433074
11
5.5482587795275586
21
-4.5000316535433074
0
LINE
8
BLACK
6
CONTINUOUS
10
5.5482587795275586
20
-4.5000316535433074
11
5.5518068110236216
21
-4.501501299212598
0
LINE
8
BLACK
6
CONTINUOUS
10
5.5518068110236216
20
-4.501501299212598
11
5.5545223228346456
21
-4.504216811023622
0
LINE
8
BLACK
6
CONTINUOUS
10
5.5545223228346456
20
-4.504216811023622
11
5.5559919685039372
21
-4.507764842519685
0
LINE
8
BLACK
6
CONTINUOUS
10
5.5559919685039372
20
-4.507764842519685
11
5.5561811023622045
21
-4.5096850393700789
0
LINE
8
BLACK
6
CONTINUOUS
10
5.5561811023622045
20
-4.5096850393700789
11
5.5561811023622045
21
-4.5254330708661419
0
LINE
8
BLACK
6
CONTINUOUS
10
5.5561811023622045
20
-4.5254330708661419
11
5.5559919685039372
21
-4.5273532677165349
0
LINE
8
BLACK
6
CONTINUOUS
10
5.7233148031496066
20
-4.5273532677165349
11
5.7218451574803151
21
-4.5309012992125988
0
LINE
8
BLACK
6
CONTINUOUS
10
5.7218451574803151
20
-4.5309012992125988
11
5.7191296456692911
21
-4.5336168110236219
0
LINE
8
BLACK
6
CONTINUOUS
10
5.7191296456692911
20
-4.5336168110236219
11
5.7155816141732281
21
-4.5350864566929134
0
LINE
8
BLACK
6
CONTINUOUS
10
5.7155816141732281
20
-4.5350864566929134
11
5.7117412204724411
21
-4.5350864566929134
0
LINE
8
BLACK
6
CONTINUOUS
10
5.7117412204724411
20
-4.5350864566929134
11
5.7081931889763782
21
-4.5336168110236219
0
LINE
8
BLACK
6
CONTINUOUS
10
5.7081931889763782
20
-4.5336168110236219
11
5.7054776771653541
21
-4.5309012992125988
0
LINE
8
BLACK
6
CONTINUOUS
10
5.7054776771653541
20
-4.5309012992125988
11
5.7040080314960626
21
-4.5273532677165349
0
LINE
8
BLACK
6
CONTINUOUS
10
5.7040080314960626
20
-4.5273532677165349
11
5.7038188976377953
21
-4.5254330708661419
0
LINE
8
BLACK
6
CONTINUOUS
10
5.7038188976377953
20
-4.5254330708661419
11
5.7038188976377953
21
-4.5096850393700789
0
LINE
8
BLACK
6
CONTINUOUS
10
5.7038188976377953
20
-4.5096850393700789
11
5.7040080314960626
21
-4.507764842519685
0
LINE
8
BLACK
6
CONTINUOUS
10
5.7040080314960626
20
-4.507764842519685
11
5.7054776771653541
21
-4.504216811023622
0
LINE
8
BLACK
6
CONTINUOUS
10
5.7054776771653541
20
-4.504216811023622
11
5.7081931889763782
21
-4.501501299212598
0
LINE
8
BLACK
6
CONTINUOUS
10
5.7081931889763782
20
-4.501501299212598
11
5.7117412204724411
21
-4.5000316535433074
0
LINE
8
BLACK
6
CONTINUOUS
10
5.7117412204724411
20
-4.5000316535433074
11
5.7155816141732281
21
-4.5000316535433074
0
LINE
8
BLACK
6
CONTINUOUS
10
5.7155816141732281
20
-4.5000316535433074
11
5.7191296456692911
21
-4.501501299212598
0
LINE
8
BLACK
6
CONTINUOUS
10
5.7191296456692911
20
-4.501501299212598
11
5.7218451574803151
21
-4.504216811023622
0
LINE
8
BLACK
6
CONTINUOUS
10
5.7218451574803151
20
-4.504216811023622
11
5.7233148031496066
21
-4.507764842519685
0
LINE
8
BLACK
6
CONTINUOUS
10
5.7233148031496066
20
-4.507764842519685
11
5.723503937007874
21
-4.5096850393700789
0
LINE
8
BLACK
6
CONTINUOUS
10
5.723503937007874
20
-4.5096850393700789
11
5.723503937007874
21
-4.5254330708661419
0
LINE
8
BLACK
6
CONTINUOUS
10
5.723503937007874
20
-4.5254330708661419
11
5.7233148031496066
21
-4.5273532677165349
0
CIRCLE
8
BLACK
10
3.4950000000000001
20
-3.4899999999999998
40
0.0068897637795276
0
CIRCLE
8
BLACK
10
7.2698818897637798
20
-2.4962204724409447
40
0.0068897637795276
0
CIRCLE
8
BLACK
10
7.2698818897637798
20
-2.7237795275590551
40
0.0068897637795276
0
LINE
8
BLACK
6
CONTINUOUS
10
7.14228968503937
20
-2.4282112992125984
11
7.145267913385827
21
-2.4290092913385828
0
LINE
8
BLACK
6
CONTINUOUS
10
7.145267913385827
20
-2.4290092913385828
11
7.1479381102362201
21
-2.4305509448818898
0
LINE
8
BLACK
6
CONTINUOUS
10
7.1479381102362201
20
-2.4305509448818898
11
7.1501183464566926
21
-2.432731181102362
0
LINE
8
BLACK
6
CONTINUOUS
10
7.1501183464566926
20
-2.432731181102362
11
7.1516599999999997
21
-2.4354013779527559
0
LINE
8
BLACK
6
CONTINUOUS
10
7.1516599999999997
20
-2.4354013779527559
11
7.1524579921259841
21
-2.4383796062992125
0
LINE
8
BLACK
6
CONTINUOUS
10
7.1524579921259841
20
-2.4383796062992125
11
7.1524579921259841
21
-2.4414629133858265
0
LINE
8
BLACK
6
CONTINUOUS
10
7.1524579921259841
20
-2.4414629133858265
11
7.1516599999999997
21
-2.4444411417322836
0
LINE
8
BLACK
6
CONTINUOUS
10
7.1516599999999997
20
-2.4444411417322836
11
7.1501183464566926
21
-2.447111338582677
0
LINE
8
BLACK
6
CONTINUOUS
10
7.1501183464566926
20
-2.447111338582677
11
7.1479381102362201
21
-2.4492915748031496
0
LINE
8
BLACK
6
CONTINUOUS
10
7.1479381102362201
20
-2.4492915748031496
11
7.145267913385827
21
-2.4508332283464567
0
LINE
8
BLACK
6
CONTINUOUS
10
7.145267913385827
20
-2.4508332283464567
11
7.14228968503937
21
-2.4516312204724411
0
LINE
8
BLACK
6
CONTINUOUS
10
7.14228968503937
20
-2.4516312204724411
11
7.140748031496063
21
-2.4517322834645667
0
LINE
8
BLACK
6
CONTINUOUS
10
7.140748031496063
20
-2.4517322834645667
11
7.109251968503937
21
-2.4517322834645667
0
LINE
8
BLACK
6
CONTINUOUS
10
7.109251968503937
20
-2.4517322834645667
11
7.10771031496063
21
-2.4516312204724411
0
LINE
8
BLACK
6
CONTINUOUS
10
7.10771031496063
20
-2.4516312204724411
11
7.104732086614173
21
-2.4508332283464567
0
LINE
8
BLACK
6
CONTINUOUS
10
7.104732086614173
20
-2.4508332283464567
11
7.1020618897637791
21
-2.4492915748031496
0
LINE
8
BLACK
6
CONTINUOUS
10
7.1020618897637791
20
-2.4492915748031496
11
7.0998816535433074
21
-2.447111338582677
0
LINE
8
BLACK
6
CONTINUOUS
10
7.0998816535433074
20
-2.447111338582677
11
7.0983399999999994
21
-2.4444411417322836
0
LINE
8
BLACK
6
CONTINUOUS
10
7.0983399999999994
20
-2.4444411417322836
11
7.0975420078740159
21
-2.4414629133858265
0
LINE
8
BLACK
6
CONTINUOUS
10
7.0975420078740159
20
-2.4414629133858265
11
7.0975420078740159
21
-2.4383796062992125
0
LINE
8
BLACK
6
CONTINUOUS
10
7.0975420078740159
20
-2.4383796062992125
11
7.0983399999999994
21
-2.4354013779527559
0
LINE
8
BLACK
6
CONTINUOUS
10
7.0983399999999994
20
-2.4354013779527559
11
7.0998816535433074
21
-2.432731181102362
0
LINE
8
BLACK
6
CONTINUOUS
10
7.0998816535433074
20
-2.432731181102362
11
7.1020618897637791
21
-2.4305509448818898
0
LINE
8
BLACK
6
CONTINUOUS
10
7.1020618897637791
20
-2.4305509448818898
11
7.104732086614173
21
-2.4290092913385828
0
LINE
8
BLACK
6
CONTINUOUS
10
7.104732086614173
20
-2.4290092913385828
11
7.10771031496063
21
-2.4282112992125984
0
LINE
8
BLACK
6
CONTINUOUS
10
7.10771031496063
20
-2.4282112992125984
11
7.109251968503937
21
-2.4281102362204723
0
LINE
8
BLACK
6
CONTINUOUS
10
7.109251968503937
20
-2.4281102362204723
11
7.140748031496063
21
-2.4281102362204723
0
LINE
8
BLACK
6
CONTINUOUS
10
7.140748031496063
20
-2.4281102362204723
11
7.14228968503937
21
-2.4282112992125984
0
LINE
8
BLACK
6
CONTINUOUS
10
7.14228968503937
20
-2.7683687795275591
11
7.145267913385827
21
-2.7691667716535431
0
LINE
8
BLACK
6
CONTINUOUS
10
7.145267913385827
20
-2.7691667716535431
11
7.1479381102362201
21
-2.7707084251968501
0
LINE
8
BLACK
6
CONTINUOUS
10
7.1479381102362201
20
-2.7707084251968501
11
7.1501183464566926
21
-2.7728886614173227
0
LINE
8
BLACK
6
CONTINUOUS
10
7.1501183464566926
20
-2.7728886614173227
11
7.1516599999999997
21
-2.7755588582677166
0
LINE
8
BLACK
6
CONTINUOUS
10
7.1516599999999997
20
-2.7755588582677166
11
7.1524579921259841
21
-2.7785370866141732
0
LINE
8
BLACK
6
CONTINUOUS
10
7.1524579921259841
20
-2.7785370866141732
11
7.1524579921259841
21
-2.7816203937007873
0
LINE
8
BLACK
6
CONTINUOUS
10
7.1524579921259841
20
-2.7816203937007873
11
7.1516599999999997
21
-2.7845986220472438
0
LINE
8
BLACK
6
CONTINUOUS
10
7.1516599999999997
20
-2.7845986220472438
11
7.1501183464566926
21
-2.7872688188976378
0
LINE
8
BLACK
6
CONTINUOUS
10
7.1501183464566926
20
-2.7872688188976378
11
7.1479381102362201
21
-2.7894490551181104
0
LINE
8
BLACK
6
CONTINUOUS
10
7.1479381102362201
20
-2.7894490551181104
11
7.145267913385827
21
-2.7909907086614174
0
LINE
8
BLACK
6
CONTINUOUS
10
7.145267913385827
20
-2.7909907086614174
11
7.14228968503937
21
-2.7917887007874014
0
LINE
8
BLACK
6
CONTINUOUS
10
7.14228968503937
20
-2.7917887007874014
11
7.140748031496063
21
-2.7918897637795275
0
LINE
8
BLACK
6
CONTINUOUS
10
7.140748031496063
20
-2.7918897637795275
11
7.109251968503937
21
-2.7918897637795275
0
LINE
8
BLACK
6
CONTINUOUS
10
7.109251968503937
20
-2.7918897637795275
11
7.10771031496063
21
-2.7917887007874014
0
LINE
8
BLACK
6
CONTINUOUS
10
7.10771031496063
20
-2.7917887007874014
11
7.104732086614173
21
-2.7909907086614174
0
LINE
8
BLACK
6
CONTINUOUS
10
7.104732086614173
20
-2.7909907086614174
11
7.1020618897637791
21
-2.7894490551181104
0
LINE
8
BLACK
6
CONTINUOUS
10
7.1020618897637791
20
-2.7894490551181104
11
7.0998816535433074
21
-2.7872688188976378
0
LINE
8
BLACK
6
CONTINUOUS
10
7.0998816535433074
20
-2.7872688188976378
11
7.0983399999999994
21
-2.7845986220472438
0
LINE
8
BLACK
6
CONTINUOUS
10
7.0983399999999994
20
-2.7845986220472438
11
7.0975420078740159
21
-2.7816203937007873
0
LINE
8
BLACK
6
CONTINUOUS
10
7.0975420078740159
20
-2.7816203937007873
11
7.0975420078740159
21
-2.7785370866141732
0
LINE
8
BLACK
6
CONTINUOUS
10
7.0975420078740159
20
-2.7785370866141732
11
7.0983399999999994
21
-2.7755588582677166
0
LINE
8
BLACK
6
CONTINUOUS
10
7.0983399999999994
20
-2.7755588582677166
11
7.0998816535433074
21
-2.7728886614173227
0
LINE
8
BLACK
6
CONTINUOUS
10
7.0998816535433074
20
-2.7728886614173227
11
7.1020618897637791
21
-2.7707084251968501
0
LINE
8
BLACK
6
CONTINUOUS
10
7.1020618897637791
20
-2.7707084251968501
11
7.104732086614173
21
-2.7691667716535431
0
LINE
8
BLACK
6
CONTINUOUS
10
7.104732086614173
20
-2.7691667716535431
11
7.10771031496063
21
-2.7683687795275591
0
LINE
8
BLACK
6
CONTINUOUS
10
7.10771031496063
20
-2.7683687795275591
11
7.109251968503937
21
-2.768267716535433
0
LINE
8
BLACK
6
CONTINUOUS
10
7.109251968503937
20
-2.768267716535433
11
7.140748031496063
21
-2.768267716535433
0
LINE
8
BLACK
6
CONTINUOUS
10
7.140748031496063
20
-2.768267716535433
11
7.14228968503937
21
-2.7683687795275591
0
LINE
8
BLACK
6
CONTINUOUS
10
7.3127621259842517
20
-2.4282112992125984
11
7.3157403543307087
21
-2.4290092913385828
0
LINE
8
BLACK
6
CONTINUOUS
10
7.3157403543307087
20
-2.4290092913385828
11
7.3184105511811026
21
-2.4305509448818898
0
LINE
8
BLACK
6
CONTINUOUS
10
7.3184105511811026
20
-2.4305509448818898
11
7.3205907874015743
21
-2.432731181102362
0
LINE
8
BLACK
6
CONTINUOUS
10
7.3205907874015743
20
-2.432731181102362
11
7.3221324409448814
21
-2.4354013779527559
0
LINE
8
BLACK
6
CONTINUOUS
10
7.3221324409448814
20
-2.4354013779527559
11
7.3229304330708658
21
-2.4383796062992125
0
LINE
8
BLACK
6
CONTINUOUS
10
7.3229304330708658
20
-2.4383796062992125
11
7.3229304330708658
21
-2.4414629133858265
0
LINE
8
BLACK
6
CONTINUOUS
10
7.3229304330708658
20
-2.4414629133858265
11
7.3221324409448814
21
-2.4444411417322836
0
LINE
8
BLACK
6
CONTINUOUS
10
7.3221324409448814
20
-2.4444411417322836
11
7.3205907874015743
21
-2.447111338582677
0
LINE
8
BLACK
6
CONTINUOUS
10
7.3205907874015743
20
-2.447111338582677
11
7.3184105511811026
21
-2.4492915748031496
0
LINE
8
BLACK
6
CONTINUOUS
10
7.3184105511811026
20
-2.4492915748031496
11
7.3157403543307087
21
-2.4508332283464567
0
LINE
8
BLACK
6
CONTINUOUS
10
7.3157403543307087
20
-2.4508332283464567
11
7.3127621259842517
21
-2.4516312204724411
0
LINE
8
BLACK
6
CONTINUOUS
10
7.3127621259842517
20
-2.4516312204724411
11
7.3112204724409446
21
-2.4517322834645667
0
LINE
8
BLACK
6
CONTINUOUS
10
7.3112204724409446
20
-2.4517322834645667
11
7.2679133858267715
21
-2.4517322834645667
0
LINE
8
BLACK
6
CONTINUOUS
10
7.2679133858267715
20
-2.4517322834645667
11
7.2663717322834644
21
-2.4516312204724411
0
LINE
8
BLACK
6
CONTINUOUS
10
7.2663717322834644
20
-2.4516312204724411
11
7.2633935039370074
21
-2.4508332283464567
0
LINE
8
BLACK
6
CONTINUOUS
10
7.2633935039370074
20
-2.4508332283464567
11
7.2607233070866144
21
-2.4492915748031496
0
LINE
8
BLACK
6
CONTINUOUS
10
7.2607233070866144
20
-2.4492915748031496
11
7.2585430708661418
21
-2.447111338582677
0
LINE
8
BLACK
6
CONTINUOUS
10
7.2585430708661418
20
-2.447111338582677
11
7.2570014173228348
21
-2.4444411417322836
0
LINE
8
BLACK
6
CONTINUOUS
10
7.2570014173228348
20
-2.4444411417322836
11
7.2562034251968504
21
-2.4414629133858265
0
LINE
8
BLACK
6
CONTINUOUS
10
7.2562034251968504
20
-2.4414629133858265
11
7.2562034251968504
21
-2.4383796062992125
0
LINE
8
BLACK
6
CONTINUOUS
10
7.2562034251968504
20
-2.4383796062992125
11
7.2570014173228348
21
-2.4354013779527559
0
LINE
8
BLACK
6
CONTINUOUS
10
7.2570014173228348
20
-2.4354013779527559
11
7.2585430708661418
21
-2.432731181102362
0
LINE
8
BLACK
6
CONTINUOUS
10
7.2585430708661418
20
-2.432731181102362
11
7.2607233070866144
21
-2.4305509448818898
0
LINE
8
BLACK
6
CONTINUOUS
10
7.2607233070866144
20
-2.4305509448818898
11
7.2633935039370074
21
-2.4290092913385828
0
LINE
8
BLACK
6
CONTINUOUS
10
7.2633935039370074
20
-2.4290092913385828
11
7.2663717322834644
21
-2.4282112992125984
0
LINE
8
BLACK
6
CONTINUOUS
10
7.2663717322834644
20
-2.4282112992125984
11
7.2679133858267715
21
-2.4281102362204723
0
LINE
8
BLACK
6
CONTINUOUS
10
7.2679133858267715
20
-2.4281102362204723
11
7.3112204724409446
21
-2.4281102362204723
0
LINE
8
BLACK
6
CONTINUOUS
10
7.3112204724409446
20
-2.4281102362204723
11
7.3127621259842517
21
-2.4282112992125984
0
LINE
8
BLACK
6
CONTINUOUS
10
7.3127621259842517
20
-2.7683687795275591
11
7.3157403543307087
21
-2.7691667716535431
0
LINE
8
BLACK
6
CONTINUOUS
10
7.3157403543307087
20
-2.7691667716535431
11
7.3184105511811026
21
-2.7707084251968501
0
LINE
8
BLACK
6
CONTINUOUS
10
7.3184105511811026
20
-2.7707084251968501
11
7.3205907874015743
21
-2.7728886614173227
0
LINE
8
BLACK
6
CONTINUOUS
10
7.3205907874015743
20
-2.7728886614173227
11
7.3221324409448814
21
-2.7755588582677166
0
LINE
8
BLACK
6
CONTINUOUS
10
7.3221324409448814
20
-2.7755588582677166
11
7.3229304330708658
21
-2.7785370866141732
0
LINE
8
BLACK
6
CONTINUOUS
10
7.3229304330708658
20
-2.7785370866141732
11
7.3229304330708658
21
-2.7816203937007873
0
LINE
8
BLACK
6
CONTINUOUS
10
7.3229304330708658
20
-2.7816203937007873
11
7.3221324409448814
21
-2.7845986220472438
0
LINE
8
BLACK
6
CONTINUOUS
10
7.3221324409448814
20
-2.7845986220472438
11
7.3205907874015743
21
-2.7872688188976378
0
LINE
8
BLACK
6
CONTINUOUS
10
7.3205907874015743
20
-2.7872688188976378
11
7.3184105511811026
21
-2.7894490551181104
0
LINE
8
BLACK
6
CONTINUOUS
10
7.3184105511811026
20
-2.7894490551181104
11
7.3157403543307087
21
-2.7909907086614174
0
LINE
8
BLACK
6
CONTINUOUS
10
7.3157403543307087
20
-2.7909907086614174
11
7.3127621259842517
21
-2.7917887007874014
0
LINE
8
BLACK
6
CONTINUOUS
10
7.3127621259842517
20
-2.7917887007874014
11
7.3112204724409446
21
-2.7918897637795275
0
LINE
8
BLACK
6
CONTINUOUS
10
7.3112204724409446
20
-2.7918897637795275
11
7.2679133858267715
21
-2.7918897637795275
0
LINE
8
BLACK
6
CONTINUOUS
10
7.2679133858267715
20
-2.7918897637795275
11
7.2663717322834644
21
-2.7917887007874014
0
LINE
8
BLACK
6
CONTINUOUS
10
7.2663717322834644
20
-2.7917887007874014
11
7.2633935039370074
21
-2.7909907086614174
0
LINE
8
BLACK
6
CONTINUOUS
10
7.2633935039370074
20
-2.7909907086614174
11
7.2607233070866144
21
-2.7894490551181104
0
LINE
8
BLACK
6
CONTINUOUS
10
7.2607233070866144
20
-2.7894490551181104
11
7.2585430708661418
21
-2.7872688188976378
0
LINE
8
BLACK
6
CONTINUOUS
10
7.2585430708661418
20
-2.7872688188976378
11
7.2570014173228348
21
-2.7845986220472438
0
LINE
8
BLACK
6
CONTINUOUS
10
7.2570014173228348
20
-2.7845986220472438
11
7.2562034251968504
21
-2.7816203937007873
0
LINE
8
BLACK
6
CONTINUOUS
10
7.2562034251968504
20
-2.7816203937007873
11
7.2562034251968504
21
-2.7785370866141732
0
LINE
8
BLACK
6
CONTINUOUS
10
7.2562034251968504
20
-2.7785370866141732
11
7.2570014173228348
21
-2.7755588582677166
0
LINE
8
BLACK
6
CONTINUOUS
10
7.2570014173228348
20
-2.7755588582677166
11
7.2585430708661418
21
-2.7728886614173227
0
LINE
8
BLACK
6
CONTINUOUS
10
7.2585430708661418
20
-2.7728886614173227
11
7.2607233070866144
21
-2.7707084251968501
0
LINE
8
BLACK
6
CONTINUOUS
10
7.2607233070866144
20
-2.7707084251968501
11
7.2633935039370074
21
-2.7691667716535431
0
LINE
8
BLACK
6
CONTINUOUS
10
7.2633935039370074
20
-2.7691667716535431
11
7.2663717322834644
21
-2.7683687795275591
0
LINE
8
BLACK
6
CONTINUOUS
10
7.2663717322834644
20
-2.7683687795275591
11
7.2679133858267715
21
-2.768267716535433
0
LINE
8
BLACK
6
CONTINUOUS
10
7.2679133858267715
20
-2.768267716535433
11
7.3112204724409446
21
-2.768267716535433
0
LINE
8
BLACK
6
CONTINUOUS
10
7.3112204724409446
20
-2.768267716535433
11
7.3127621259842517
21
-2.7683687795275591
0
CIRCLE
8
BLACK
10
3.48
20
-1.6099999999999999
40
0.0068897637795276
0
CIRCLE
8
BLACK
10
7.1899999999999995
20
-3.4699999999999998
40
0.0068897637795276
0
CIRCLE
8
BLACK
10
3.96
20
-4.6600000000000001
40
0.0068897637795276
0
CIRCLE
8
BLACK
10
4.0599999999999996
20
-4.6600000000000001
40
0.0068897637795276
0
CIRCLE
8
BLACK
10
3.96
20
-4.7599999999999998
40
0.0068897637795276
0
CIRCLE
8
BLACK
10
4.0599999999999996
20
-4.7599999999999998
40
0.0068897637795276
0
CIRCLE
8
BLACK
10
3.96
20
-4.8600000000000003
40
0.0068897637795276
0
CIRCLE
8
BLACK
10
4.0599999999999996
20
-4.8600000000000003
40
0.0068897637795276
0
CIRCLE
8
BLACK
10
7.21
20
-1.5999999999999999
40
0.0068897637795276
0
CIRCLE
8
BLACK
10
4.1986614173228345
20
-2.2016535433070867
40
0.0068897637795276
0
CIRCLE
8
BLACK
10
4.1986614173228345
20
-2.9614960629921261
40
0.0068897637795276
0
CIRCLE
8
BLACK
10
6.3884251968503936
20
-2.2016535433070867
40
0.0068897637795276
0
CIRCLE
8
BLACK
10
6.3884251968503936
20
-2.9614960629921261
40
0.0068897637795276
0
CIRCLE
8
BLACK
10
3.8644094488188974
20
-2.2016535433070867
40
0.0068897637795276
0
CIRCLE
8
BLACK
10
6.7226771653543302
20
-2.2016535433070867
40
0.0068897637795276
0
CIRCLE
8
BLACK
10
3.8644094488188974
20
-2.9614960629921261
40
0.0068897637795276
0
CIRCLE
8
BLACK
10
6.7226771653543302
20
-2.9614960629921261
40
0.0068897637795276
0
CIRCLE
8
BLACK
10
4.1699999999999999
20
-5.0899999999999999
40
0.0068897637795276
0
CIRCLE
8
BLACK
10
4.0700000000000003
20
-5.0899999999999999
40
0.0068897637795276
0
CIRCLE
8
BLACK
10
3.9699999999999998
20
-5.0899999999999999
40
0.0068897637795276
0
CIRCLE
8
BLACK
10
3.8700000000000001
20
-5.0899999999999999
40
0.0068897637795276
0
LINE
8
BLACK
6
CONTINUOUS
10
5.5364960629921258
20
-4.5096850393700789
11
5.5364960629921258
21
-4.5254330708661419
0
ARC
8
BLACK
10
5.5463385826771656
20
-4.5254330708661419
40
0.0098425196850394
50
-180.00000000
51
0.00000000
0
LINE
8
BLACK
6
CONTINUOUS
10
5.5561811023622045
20
-4.5254330708661419
11
5.5561811023622045
21
-4.5096850393700789
0
ARC
8
BLACK
10
5.5463385826771656
20
-4.5096850393700789
40
0.0098425196850394
50
0.00000000
51
180.00000000
0
LINE
8
BLACK
6
CONTINUOUS
10
5.7038188976377953
20
-4.5096850393700789
11
5.7038188976377953
21
-4.5254330708661419
0
ARC
8
BLACK
10
5.7136614173228342
20
-4.5254330708661419
40
0.0098425196850394
50
-180.00000000
51
0.00000000
0
LINE
8
BLACK
6
CONTINUOUS
10
5.723503937007874
20
-4.5254330708661419
11
5.723503937007874
21
-4.5096850393700789
0
ARC
8
BLACK
10
5.7136614173228342
20
-4.5096850393700789
40
0.0098425196850394
50
0.00000000
51
180.00000000
0
CIRCLE
8
BLACK
10
3.4950000000000001
20
-3.4899999999999998
40
0.0068897637795276
0
CIRCLE
8
BLACK
10
7.2698818897637798
20
-2.4962204724409447
40
0.0068897637795276
0
CIRCLE
8
BLACK
10
7.2698818897637798
20
-2.7237795275590551
40
0.0068897637795276
0
LINE
8
BLACK
6
CONTINUOUS
10
7.140748031496063
20
-2.4281102362204723
11
7.109251968503937
21
-2.4281102362204723
0
ARC
8
BLACK
10
7.109251968503937
20
-2.4399212598425195
40
0.0118110236220472
50
90.00000000
51
270.00000000
0
LINE
8
BLACK
6
CONTINUOUS
10
7.109251968503937
20
-2.4517322834645667
11
7.140748031496063
21
-2.4517322834645667
0
ARC
8
BLACK
10
7.140748031496063
20
-2.4399212598425195
40
0.0118110236220472
50
270.00000000
51
450.00000000
0
LINE
8
BLACK
6
CONTINUOUS
10
7.140748031496063
20
-2.768267716535433
11
7.109251968503937
21
-2.768267716535433
0
ARC
8
BLACK
10
7.109251968503937
20
-2.7800787401574802
40
0.0118110236220472
50
90.00000000
51
270.00000000
0
LINE
8
BLACK
6
CONTINUOUS
10
7.109251968503937
20
-2.7918897637795275
11
7.140748031496063
21
-2.7918897637795275
0
ARC
8
BLACK
10
7.140748031496063
20
-2.7800787401574802
40
0.0118110236220472
50
270.00000000
51
450.00000000
0
LINE
8
BLACK
6
CONTINUOUS
10
7.3112204724409446
20
-2.4281102362204723
11
7.2679133858267715
21
-2.4281102362204723
0
ARC
8
BLACK
10
7.2679133858267715
20
-2.4399212598425195
40
0.0118110236220472
50
90.00000000
51
270.00000000
0
LINE
8
BLACK
6
CONTINUOUS
10
7.2679133858267715
20
-2.4517322834645667
11
7.3112204724409446
21
-2.4517322834645667
0
ARC
8
BLACK
10
7.3112204724409446
20
-2.4399212598425195
40
0.0118110236220472
50
270.00000000
51
450.00000000
0
LINE
8
BLACK
6
CONTINUOUS
10
7.3112204724409446
20
-2.768267716535433
11
7.2679133858267715
21
-2.768267716535433
0
ARC
8
BLACK
10
7.2679133858267715
20
-2.7800787401574802
40
0.0118110236220472
50
90.00000000
51
270.00000000
0
LINE
8
BLACK
6
CONTINUOUS
10
7.2679133858267715
20
-2.7918897637795275
11
7.3112204724409446
21
-2.7918897637795275
0
ARC
8
BLACK
10
7.3112204724409446
20
-2.7800787401574802
40
0.0118110236220472
50
270.00000000
51
450.00000000
0
CIRCLE
8
BLACK
10
3.48
20
-1.6099999999999999
40
0.0068897637795276
0
CIRCLE
8
BLACK
10
7.1899999999999995
20
-3.4699999999999998
40
0.0068897637795276
0
CIRCLE
8
BLACK
10
3.96
20
-4.6600000000000001
40
0.0068897637795276
0
CIRCLE
8
BLACK
10
4.0599999999999996
20
-4.6600000000000001
40
0.0068897637795276
0
CIRCLE
8
BLACK
10
3.96
20
-4.7599999999999998
40
0.0068897637795276
0
CIRCLE
8
BLACK
10
4.0599999999999996
20
-4.7599999999999998
40
0.0068897637795276
0
CIRCLE
8
BLACK
10
3.96
20
-4.8600000000000003
40
0.0068897637795276
0
CIRCLE
8
BLACK
10
4.0599999999999996
20
-4.8600000000000003
40
0.0068897637795276
0
CIRCLE
8
BLACK
10
7.21
20
-1.5999999999999999
40
0.0068897637795276
0
CIRCLE
8
BLACK
10
4.1986614173228345
20
-2.2016535433070867
40
0.0068897637795276
0
CIRCLE
8
BLACK
10
4.1986614173228345
20
-2.9614960629921261
40
0.0068897637795276
0
CIRCLE
8
BLACK
10
6.3884251968503936
20
-2.2016535433070867
40
0.0068897637795276
0
CIRCLE
8
BLACK
10
6.3884251968503936
20
-2.9614960629921261
40
0.0068897637795276
0
CIRCLE
8
BLACK
10
3.8644094488188974
20
-2.2016535433070867
40
0.0068897637795276
0
CIRCLE
8
BLACK
10
6.7226771653543302
20
-2.2016535433070867
40
0.0068897637795276
0
CIRCLE
8
BLACK
10
3.8644094488188974
20
-2.9614960629921261
40
0.0068897637795276
0
CIRCLE
8
BLACK
10
6.7226771653543302
20
-2.9614960629921261
40
0.0068897637795276
0
CIRCLE
8
BLACK
10
4.1699999999999999
20
-5.0899999999999999
40
0.0068897637795276
0
CIRCLE
8
BLACK
10
4.0700000000000003
20
-5.0899999999999999
40
0.0068897637795276
0
CIRCLE
8
BLACK
10
3.9699999999999998
20
-5.0899999999999999
40
0.0068897637795276
0
CIRCLE
8
BLACK
10
3.8700000000000001
20
-5.0899999999999999
40
0.0068897637795276
  0
ENDSEC
  0
EOF
