  0
SECTION
  2
HEADER
  9
$ANGBASE
  50
0.0
  9
$ANGDIR
  70
1
  9
$MEASUREMENT
  70
0
  0
ENDSEC
  0
SECTION
  2
TABLES
  0
TABLE
  2
LTYPE
  70
4
  0
LTYPE
  5
40F
  2
CONTINUOUS
  70
0
  3
Solid line
  72
65
  73
0
  40
0.0
  0
LTYPE
  5
410
  2
DASHDOT
 70
0
  3
Dash Dot ____ _ ____ _
 72
65
 73
4
 40
2.0
 49
1.25
 49
-0.25
 49
0.25
 49
-0.25
  0
LTYPE
  5
411
  2
DASHED
 70
0
  3
Dashed __ __ __ __ __
 72
65
 73
2
 40
0.75
 49
0.5
 49
-0.25
  0
LTYPE
  5
43B
  2
DOTTED
 70
0
  3
Dotted .  .  .  .
 72
65
 73
2
 40
0.2
 49
0.0
 49
-0.2
  0
ENDTAB
  0
TABLE
  2
STYLE
  70
4
  0
STYLE
  2
KICAD
  70
0
  40
0
  41
1
  42
1
  50
0
  71
0
  3
isocp.shx
  0
STYLE
  2
KICADB
  70
0
  40
0
  41
1
  42
1
  50
0
  71
0
  3
isocp.shx
  0
STYLE
  2
KICADI
  70
0
  40
0
  41
1
  42
1
  50
15
  71
0
  3
isocp.shx
  0
STYLE
  2
KICADBI
  70
0
  40
0
  41
1
  42
1
  50
15
  71
0
  3
isocp.shx
  0
ENDTAB
  0
TABLE
  2
LAYER
  70
1
  0
LAYER
  2
BLACK
  70
0
  62
7
  6
CONTINUOUS
  0
ENDTAB
  0
ENDSEC
  0
SECTION
  2
ENTITIES
0
LINE
8
BLACK
6
CONTINUOUS
10
4.2034645669291342
20
-5.1234645669291341
11
4.1365354330708657
21
-5.1234645669291341
0
LINE
8
BLACK
6
CONTINUOUS
10
4.1365354330708657
20
-5.1234645669291341
11
4.1365354330708657
21
-5.0565354330708656
0
LINE
8
BLACK
6
CONTINUOUS
10
4.1365354330708657
20
-5.0565354330708656
11
4.2034645669291342
21
-5.0565354330708656
0
LINE
8
BLACK
6
CONTINUOUS
10
4.2034645669291342
20
-5.0565354330708656
11
4.2034645669291342
21
-5.1234645669291341
0
LINE
8
BLACK
6
CONTINUOUS
10
3.8797142519685037
20
-5.0579764173228341
11
3.8857750787401573
21
-5.0604868897637791
0
LINE
8
BLACK
6
CONTINUOUS
10
3.8857750787401573
20
-5.0604868897637791
11
3.8912296850393702
21
-5.0641315354330709
0
LINE
8
BLACK
6
CONTINUOUS
10
3.8912296850393702
20
-5.0641315354330709
11
3.895868464566929
21
-5.0687703149606298
0
LINE
8
BLACK
6
CONTINUOUS
10
3.895868464566929
20
-5.0687703149606298
11
3.8995131102362204
21
-5.0742249212598427
0
LINE
8
BLACK
6
CONTINUOUS
10
3.8995131102362204
20
-5.0742249212598427
11
3.9020235826771654
21
-5.0802857480314962
0
LINE
8
BLACK
6
CONTINUOUS
10
3.9020235826771654
20
-5.0802857480314962
11
3.9033034251968504
21
-5.0867198818897634
0
LINE
8
BLACK
6
CONTINUOUS
10
3.9033034251968504
20
-5.0867198818897634
11
3.9033034251968504
21
-5.0932801181102363
0
LINE
8
BLACK
6
CONTINUOUS
10
3.9033034251968504
20
-5.0932801181102363
11
3.9020235826771654
21
-5.0997142519685035
0
LINE
8
BLACK
6
CONTINUOUS
10
3.9020235826771654
20
-5.0997142519685035
11
3.8995131102362204
21
-5.105775078740157
0
LINE
8
BLACK
6
CONTINUOUS
10
3.8995131102362204
20
-5.105775078740157
11
3.895868464566929
21
-5.1112296850393699
0
LINE
8
BLACK
6
CONTINUOUS
10
3.895868464566929
20
-5.1112296850393699
11
3.8912296850393702
21
-5.1158684645669288
0
LINE
8
BLACK
6
CONTINUOUS
10
3.8912296850393702
20
-5.1158684645669288
11
3.8857750787401573
21
-5.1195131102362206
0
LINE
8
BLACK
6
CONTINUOUS
10
3.8857750787401573
20
-5.1195131102362206
11
3.8797142519685037
21
-5.1220235826771656
0
LINE
8
BLACK
6
CONTINUOUS
10
3.8797142519685037
20
-5.1220235826771656
11
3.8732801181102361
21
-5.1233034251968501
0
LINE
8
BLACK
6
CONTINUOUS
10
3.8732801181102361
20
-5.1233034251968501
11
3.8667198818897637
21
-5.1233034251968501
0
LINE
8
BLACK
6
CONTINUOUS
10
3.8667198818897637
20
-5.1233034251968501
11
3.860285748031496
21
-5.1220235826771656
0
LINE
8
BLACK
6
CONTINUOUS
10
3.860285748031496
20
-5.1220235826771656
11
3.8542249212598425
21
-5.1195131102362206
0
LINE
8
BLACK
6
CONTINUOUS
10
3.8542249212598425
20
-5.1195131102362206
11
3.84877031496063
21
-5.1158684645669288
0
LINE
8
BLACK
6
CONTINUOUS
10
3.84877031496063
20
-5.1158684645669288
11
3.8441315354330707
21
-5.1112296850393699
0
LINE
8
BLACK
6
CONTINUOUS
10
3.8441315354330707
20
-5.1112296850393699
11
3.8404868897637794
21
-5.105775078740157
0
LINE
8
BLACK
6
CONTINUOUS
10
3.8404868897637794
20
-5.105775078740157
11
3.8379764173228343
21
-5.0997142519685035
0
LINE
8
BLACK
6
CONTINUOUS
10
3.8379764173228343
20
-5.0997142519685035
11
3.8366965748031494
21
-5.0932801181102363
0
LINE
8
BLACK
6
CONTINUOUS
10
3.8366965748031494
20
-5.0932801181102363
11
3.8366965748031494
21
-5.0867198818897634
0
LINE
8
BLACK
6
CONTINUOUS
10
3.8366965748031494
20
-5.0867198818897634
11
3.8379764173228343
21
-5.0802857480314962
0
LINE
8
BLACK
6
CONTINUOUS
10
3.8379764173228343
20
-5.0802857480314962
11
3.8404868897637794
21
-5.0742249212598427
0
LINE
8
BLACK
6
CONTINUOUS
10
3.8404868897637794
20
-5.0742249212598427
11
3.8441315354330707
21
-5.0687703149606298
0
LINE
8
BLACK
6
CONTINUOUS
10
3.8441315354330707
20
-5.0687703149606298
11
3.84877031496063
21
-5.0641315354330709
0
LINE
8
BLACK
6
CONTINUOUS
10
3.84877031496063
20
-5.0641315354330709
11
3.8542249212598425
21
-5.0604868897637791
0
LINE
8
BLACK
6
CONTINUOUS
10
3.8542249212598425
20
-5.0604868897637791
11
3.860285748031496
21
-5.0579764173228341
0
LINE
8
BLACK
6
CONTINUOUS
10
3.860285748031496
20
-5.0579764173228341
11
3.8667198818897637
21
-5.0566965748031496
0
LINE
8
BLACK
6
CONTINUOUS
10
3.8667198818897637
20
-5.0566965748031496
11
3.8732801181102361
21
-5.0566965748031496
0
LINE
8
BLACK
6
CONTINUOUS
10
3.8732801181102361
20
-5.0566965748031496
11
3.8797142519685037
21
-5.0579764173228341
0
LINE
8
BLACK
6
CONTINUOUS
10
3.9797142519685038
20
-5.0579764173228341
11
3.9857750787401574
21
-5.0604868897637791
0
LINE
8
BLACK
6
CONTINUOUS
10
3.9857750787401574
20
-5.0604868897637791
11
3.9912296850393698
21
-5.0641315354330709
0
LINE
8
BLACK
6
CONTINUOUS
10
3.9912296850393698
20
-5.0641315354330709
11
3.9958684645669291
21
-5.0687703149606298
0
LINE
8
BLACK
6
CONTINUOUS
10
3.9958684645669291
20
-5.0687703149606298
11
3.9995131102362205
21
-5.0742249212598427
0
LINE
8
BLACK
6
CONTINUOUS
10
3.9995131102362205
20
-5.0742249212598427
11
4.0020235826771655
21
-5.0802857480314962
0
LINE
8
BLACK
6
CONTINUOUS
10
4.0020235826771655
20
-5.0802857480314962
11
4.00330342519685
21
-5.0867198818897634
0
LINE
8
BLACK
6
CONTINUOUS
10
4.00330342519685
20
-5.0867198818897634
11
4.00330342519685
21
-5.0932801181102363
0
LINE
8
BLACK
6
CONTINUOUS
10
4.00330342519685
20
-5.0932801181102363
11
4.0020235826771655
21
-5.0997142519685035
0
LINE
8
BLACK
6
CONTINUOUS
10
4.0020235826771655
20
-5.0997142519685035
11
3.9995131102362205
21
-5.105775078740157
0
LINE
8
BLACK
6
CONTINUOUS
10
3.9995131102362205
20
-5.105775078740157
11
3.9958684645669291
21
-5.1112296850393699
0
LINE
8
BLACK
6
CONTINUOUS
10
3.9958684645669291
20
-5.1112296850393699
11
3.9912296850393698
21
-5.1158684645669288
0
LINE
8
BLACK
6
CONTINUOUS
10
3.9912296850393698
20
-5.1158684645669288
11
3.9857750787401574
21
-5.1195131102362206
0
LINE
8
BLACK
6
CONTINUOUS
10
3.9857750787401574
20
-5.1195131102362206
11
3.9797142519685038
21
-5.1220235826771656
0
LINE
8
BLACK
6
CONTINUOUS
10
3.9797142519685038
20
-5.1220235826771656
11
3.9732801181102362
21
-5.1233034251968501
0
LINE
8
BLACK
6
CONTINUOUS
10
3.9732801181102362
20
-5.1233034251968501
11
3.9667198818897638
21
-5.1233034251968501
0
LINE
8
BLACK
6
CONTINUOUS
10
3.9667198818897638
20
-5.1233034251968501
11
3.9602857480314961
21
-5.1220235826771656
0
LINE
8
BLACK
6
CONTINUOUS
10
3.9602857480314961
20
-5.1220235826771656
11
3.9542249212598426
21
-5.1195131102362206
0
LINE
8
BLACK
6
CONTINUOUS
10
3.9542249212598426
20
-5.1195131102362206
11
3.9487703149606297
21
-5.1158684645669288
0
LINE
8
BLACK
6
CONTINUOUS
10
3.9487703149606297
20
-5.1158684645669288
11
3.9441315354330708
21
-5.1112296850393699
0
LINE
8
BLACK
6
CONTINUOUS
10
3.9441315354330708
20
-5.1112296850393699
11
3.9404868897637795
21
-5.105775078740157
0
LINE
8
BLACK
6
CONTINUOUS
10
3.9404868897637795
20
-5.105775078740157
11
3.9379764173228344
21
-5.0997142519685035
0
LINE
8
BLACK
6
CONTINUOUS
10
3.9379764173228344
20
-5.0997142519685035
11
3.9366965748031495
21
-5.0932801181102363
0
LINE
8
BLACK
6
CONTINUOUS
10
3.9366965748031495
20
-5.0932801181102363
11
3.9366965748031495
21
-5.0867198818897634
0
LINE
8
BLACK
6
CONTINUOUS
10
3.9366965748031495
20
-5.0867198818897634
11
3.9379764173228344
21
-5.0802857480314962
0
LINE
8
BLACK
6
CONTINUOUS
10
3.9379764173228344
20
-5.0802857480314962
11
3.9404868897637795
21
-5.0742249212598427
0
LINE
8
BLACK
6
CONTINUOUS
10
3.9404868897637795
20
-5.0742249212598427
11
3.9441315354330708
21
-5.0687703149606298
0
LINE
8
BLACK
6
CONTINUOUS
10
3.9441315354330708
20
-5.0687703149606298
11
3.9487703149606297
21
-5.0641315354330709
0
LINE
8
BLACK
6
CONTINUOUS
10
3.9487703149606297
20
-5.0641315354330709
11
3.9542249212598426
21
-5.0604868897637791
0
LINE
8
BLACK
6
CONTINUOUS
10
3.9542249212598426
20
-5.0604868897637791
11
3.9602857480314961
21
-5.0579764173228341
0
LINE
8
BLACK
6
CONTINUOUS
10
3.9602857480314961
20
-5.0579764173228341
11
3.9667198818897638
21
-5.0566965748031496
0
LINE
8
BLACK
6
CONTINUOUS
10
3.9667198818897638
20
-5.0566965748031496
11
3.9732801181102362
21
-5.0566965748031496
0
LINE
8
BLACK
6
CONTINUOUS
10
3.9732801181102362
20
-5.0566965748031496
11
3.9797142519685038
21
-5.0579764173228341
0
LINE
8
BLACK
6
CONTINUOUS
10
4.0797142519685039
20
-5.0579764173228341
11
4.0857750787401574
21
-5.0604868897637791
0
LINE
8
BLACK
6
CONTINUOUS
10
4.0857750787401574
20
-5.0604868897637791
11
4.0912296850393703
21
-5.0641315354330709
0
LINE
8
BLACK
6
CONTINUOUS
10
4.0912296850393703
20
-5.0641315354330709
11
4.0958684645669292
21
-5.0687703149606298
0
LINE
8
BLACK
6
CONTINUOUS
10
4.0958684645669292
20
-5.0687703149606298
11
4.0995131102362201
21
-5.0742249212598427
0
LINE
8
BLACK
6
CONTINUOUS
10
4.0995131102362201
20
-5.0742249212598427
11
4.1020235826771652
21
-5.0802857480314962
0
LINE
8
BLACK
6
CONTINUOUS
10
4.1020235826771652
20
-5.0802857480314962
11
4.1033034251968505
21
-5.0867198818897634
0
LINE
8
BLACK
6
CONTINUOUS
10
4.1033034251968505
20
-5.0867198818897634
11
4.1033034251968505
21
-5.0932801181102363
0
LINE
8
BLACK
6
CONTINUOUS
10
4.1033034251968505
20
-5.0932801181102363
11
4.1020235826771652
21
-5.0997142519685035
0
LINE
8
BLACK
6
CONTINUOUS
10
4.1020235826771652
20
-5.0997142519685035
11
4.0995131102362201
21
-5.105775078740157
0
LINE
8
BLACK
6
CONTINUOUS
10
4.0995131102362201
20
-5.105775078740157
11
4.0958684645669292
21
-5.1112296850393699
0
LINE
8
BLACK
6
CONTINUOUS
10
4.0958684645669292
20
-5.1112296850393699
11
4.0912296850393703
21
-5.1158684645669288
0
LINE
8
BLACK
6
CONTINUOUS
10
4.0912296850393703
20
-5.1158684645669288
11
4.0857750787401574
21
-5.1195131102362206
0
LINE
8
BLACK
6
CONTINUOUS
10
4.0857750787401574
20
-5.1195131102362206
11
4.0797142519685039
21
-5.1220235826771656
0
LINE
8
BLACK
6
CONTINUOUS
10
4.0797142519685039
20
-5.1220235826771656
11
4.0732801181102358
21
-5.1233034251968501
0
LINE
8
BLACK
6
CONTINUOUS
10
4.0732801181102358
20
-5.1233034251968501
11
4.0667198818897639
21
-5.1233034251968501
0
LINE
8
BLACK
6
CONTINUOUS
10
4.0667198818897639
20
-5.1233034251968501
11
4.0602857480314958
21
-5.1220235826771656
0
LINE
8
BLACK
6
CONTINUOUS
10
4.0602857480314958
20
-5.1220235826771656
11
4.0542249212598422
21
-5.1195131102362206
0
LINE
8
BLACK
6
CONTINUOUS
10
4.0542249212598422
20
-5.1195131102362206
11
4.0487703149606302
21
-5.1158684645669288
0
LINE
8
BLACK
6
CONTINUOUS
10
4.0487703149606302
20
-5.1158684645669288
11
4.0441315354330705
21
-5.1112296850393699
0
LINE
8
BLACK
6
CONTINUOUS
10
4.0441315354330705
20
-5.1112296850393699
11
4.0404868897637796
21
-5.105775078740157
0
LINE
8
BLACK
6
CONTINUOUS
10
4.0404868897637796
20
-5.105775078740157
11
4.0379764173228345
21
-5.0997142519685035
0
LINE
8
BLACK
6
CONTINUOUS
10
4.0379764173228345
20
-5.0997142519685035
11
4.0366965748031491
21
-5.0932801181102363
0
LINE
8
BLACK
6
CONTINUOUS
10
4.0366965748031491
20
-5.0932801181102363
11
4.0366965748031491
21
-5.0867198818897634
0
LINE
8
BLACK
6
CONTINUOUS
10
4.0366965748031491
20
-5.0867198818897634
11
4.0379764173228345
21
-5.0802857480314962
0
LINE
8
BLACK
6
CONTINUOUS
10
4.0379764173228345
20
-5.0802857480314962
11
4.0404868897637796
21
-5.0742249212598427
0
LINE
8
BLACK
6
CONTINUOUS
10
4.0404868897637796
20
-5.0742249212598427
11
4.0441315354330705
21
-5.0687703149606298
0
LINE
8
BLACK
6
CONTINUOUS
10
4.0441315354330705
20
-5.0687703149606298
11
4.0487703149606302
21
-5.0641315354330709
0
LINE
8
BLACK
6
CONTINUOUS
10
4.0487703149606302
20
-5.0641315354330709
11
4.0542249212598422
21
-5.0604868897637791
0
LINE
8
BLACK
6
CONTINUOUS
10
4.0542249212598422
20
-5.0604868897637791
11
4.0602857480314958
21
-5.0579764173228341
0
LINE
8
BLACK
6
CONTINUOUS
10
4.0602857480314958
20
-5.0579764173228341
11
4.0667198818897639
21
-5.0566965748031496
0
LINE
8
BLACK
6
CONTINUOUS
10
4.0667198818897639
20
-5.0566965748031496
11
4.0732801181102358
21
-5.0566965748031496
0
LINE
8
BLACK
6
CONTINUOUS
10
4.0732801181102358
20
-5.0566965748031496
11
4.0797142519685039
21
-5.0579764173228341
0
LINE
8
BLACK
6
CONTINUOUS
10
3.969714251968504
20
-4.8279764173228346
11
3.9757750787401576
21
-4.8304868897637796
0
LINE
8
BLACK
6
CONTINUOUS
10
3.9757750787401576
20
-4.8304868897637796
11
3.98122968503937
21
-4.8341315354330705
0
LINE
8
BLACK
6
CONTINUOUS
10
3.98122968503937
20
-4.8341315354330705
11
3.9858684645669289
21
-4.8387703149606294
0
LINE
8
BLACK
6
CONTINUOUS
10
3.9858684645669289
20
-4.8387703149606294
11
3.9895131102362202
21
-4.8442249212598423
0
LINE
8
BLACK
6
CONTINUOUS
10
3.9895131102362202
20
-4.8442249212598423
11
3.9920235826771653
21
-4.8502857480314958
0
LINE
8
BLACK
6
CONTINUOUS
10
3.9920235826771653
20
-4.8502857480314958
11
3.9933034251968502
21
-4.8567198818897639
0
LINE
8
BLACK
6
CONTINUOUS
10
3.9933034251968502
20
-4.8567198818897639
11
3.9933034251968502
21
-4.8632801181102359
0
LINE
8
BLACK
6
CONTINUOUS
10
3.9933034251968502
20
-4.8632801181102359
11
3.9920235826771653
21
-4.8697142519685039
0
LINE
8
BLACK
6
CONTINUOUS
10
3.9920235826771653
20
-4.8697142519685039
11
3.9895131102362202
21
-4.8757750787401575
0
LINE
8
BLACK
6
CONTINUOUS
10
3.9895131102362202
20
-4.8757750787401575
11
3.9858684645669289
21
-4.8812296850393704
0
LINE
8
BLACK
6
CONTINUOUS
10
3.9858684645669289
20
-4.8812296850393704
11
3.98122968503937
21
-4.8858684645669292
0
LINE
8
BLACK
6
CONTINUOUS
10
3.98122968503937
20
-4.8858684645669292
11
3.9757750787401576
21
-4.8895131102362202
0
LINE
8
BLACK
6
CONTINUOUS
10
3.9757750787401576
20
-4.8895131102362202
11
3.969714251968504
21
-4.8920235826771652
0
LINE
8
BLACK
6
CONTINUOUS
10
3.969714251968504
20
-4.8920235826771652
11
3.963280118110236
21
-4.8933034251968506
0
LINE
8
BLACK
6
CONTINUOUS
10
3.963280118110236
20
-4.8933034251968506
11
3.9567198818897635
21
-4.8933034251968506
0
LINE
8
BLACK
6
CONTINUOUS
10
3.9567198818897635
20
-4.8933034251968506
11
3.9502857480314959
21
-4.8920235826771652
0
LINE
8
BLACK
6
CONTINUOUS
10
3.9502857480314959
20
-4.8920235826771652
11
3.9442249212598424
21
-4.8895131102362202
0
LINE
8
BLACK
6
CONTINUOUS
10
3.9442249212598424
20
-4.8895131102362202
11
3.9387703149606299
21
-4.8858684645669292
0
LINE
8
BLACK
6
CONTINUOUS
10
3.9387703149606299
20
-4.8858684645669292
11
3.9341315354330706
21
-4.8812296850393704
0
LINE
8
BLACK
6
CONTINUOUS
10
3.9341315354330706
20
-4.8812296850393704
11
3.9304868897637792
21
-4.8757750787401575
0
LINE
8
BLACK
6
CONTINUOUS
10
3.9304868897637792
20
-4.8757750787401575
11
3.9279764173228346
21
-4.8697142519685039
0
LINE
8
BLACK
6
CONTINUOUS
10
3.9279764173228346
20
-4.8697142519685039
11
3.9266965748031497
21
-4.8632801181102359
0
LINE
8
BLACK
6
CONTINUOUS
10
3.9266965748031497
20
-4.8632801181102359
11
3.9266965748031497
21
-4.8567198818897639
0
LINE
8
BLACK
6
CONTINUOUS
10
3.9266965748031497
20
-4.8567198818897639
11
3.9279764173228346
21
-4.8502857480314958
0
LINE
8
BLACK
6
CONTINUOUS
10
3.9279764173228346
20
-4.8502857480314958
11
3.9304868897637792
21
-4.8442249212598423
0
LINE
8
BLACK
6
CONTINUOUS
10
3.9304868897637792
20
-4.8442249212598423
11
3.9341315354330706
21
-4.8387703149606294
0
LINE
8
BLACK
6
CONTINUOUS
10
3.9341315354330706
20
-4.8387703149606294
11
3.9387703149606299
21
-4.8341315354330705
0
LINE
8
BLACK
6
CONTINUOUS
10
3.9387703149606299
20
-4.8341315354330705
11
3.9442249212598424
21
-4.8304868897637796
0
LINE
8
BLACK
6
CONTINUOUS
10
3.9442249212598424
20
-4.8304868897637796
11
3.9502857480314959
21
-4.8279764173228346
0
LINE
8
BLACK
6
CONTINUOUS
10
3.9502857480314959
20
-4.8279764173228346
11
3.9567198818897635
21
-4.8266965748031492
0
LINE
8
BLACK
6
CONTINUOUS
10
3.9567198818897635
20
-4.8266965748031492
11
3.963280118110236
21
-4.8266965748031492
0
LINE
8
BLACK
6
CONTINUOUS
10
3.963280118110236
20
-4.8266965748031492
11
3.969714251968504
21
-4.8279764173228346
0
LINE
8
BLACK
6
CONTINUOUS
10
4.0697142519685041
20
-4.8279764173228346
11
4.0757750787401577
21
-4.8304868897637796
0
LINE
8
BLACK
6
CONTINUOUS
10
4.0757750787401577
20
-4.8304868897637796
11
4.0812296850393697
21
-4.8341315354330705
0
LINE
8
BLACK
6
CONTINUOUS
10
4.0812296850393697
20
-4.8341315354330705
11
4.0858684645669294
21
-4.8387703149606294
0
LINE
8
BLACK
6
CONTINUOUS
10
4.0858684645669294
20
-4.8387703149606294
11
4.0895131102362203
21
-4.8442249212598423
0
LINE
8
BLACK
6
CONTINUOUS
10
4.0895131102362203
20
-4.8442249212598423
11
4.0920235826771654
21
-4.8502857480314958
0
LINE
8
BLACK
6
CONTINUOUS
10
4.0920235826771654
20
-4.8502857480314958
11
4.0933034251968499
21
-4.8567198818897639
0
LINE
8
BLACK
6
CONTINUOUS
10
4.0933034251968499
20
-4.8567198818897639
11
4.0933034251968499
21
-4.8632801181102359
0
LINE
8
BLACK
6
CONTINUOUS
10
4.0933034251968499
20
-4.8632801181102359
11
4.0920235826771654
21
-4.8697142519685039
0
LINE
8
BLACK
6
CONTINUOUS
10
4.0920235826771654
20
-4.8697142519685039
11
4.0895131102362203
21
-4.8757750787401575
0
LINE
8
BLACK
6
CONTINUOUS
10
4.0895131102362203
20
-4.8757750787401575
11
4.0858684645669294
21
-4.8812296850393704
0
LINE
8
BLACK
6
CONTINUOUS
10
4.0858684645669294
20
-4.8812296850393704
11
4.0812296850393697
21
-4.8858684645669292
0
LINE
8
BLACK
6
CONTINUOUS
10
4.0812296850393697
20
-4.8858684645669292
11
4.0757750787401577
21
-4.8895131102362202
0
LINE
8
BLACK
6
CONTINUOUS
10
4.0757750787401577
20
-4.8895131102362202
11
4.0697142519685041
21
-4.8920235826771652
0
LINE
8
BLACK
6
CONTINUOUS
10
4.0697142519685041
20
-4.8920235826771652
11
4.063280118110236
21
-4.8933034251968506
0
LINE
8
BLACK
6
CONTINUOUS
10
4.063280118110236
20
-4.8933034251968506
11
4.0567198818897641
21
-4.8933034251968506
0
LINE
8
BLACK
6
CONTINUOUS
10
4.0567198818897641
20
-4.8933034251968506
11
4.050285748031496
21
-4.8920235826771652
0
LINE
8
BLACK
6
CONTINUOUS
10
4.050285748031496
20
-4.8920235826771652
11
4.0442249212598425
21
-4.8895131102362202
0
LINE
8
BLACK
6
CONTINUOUS
10
4.0442249212598425
20
-4.8895131102362202
11
4.0387703149606295
21
-4.8858684645669292
0
LINE
8
BLACK
6
CONTINUOUS
10
4.0387703149606295
20
-4.8858684645669292
11
4.0341315354330707
21
-4.8812296850393704
0
LINE
8
BLACK
6
CONTINUOUS
10
4.0341315354330707
20
-4.8812296850393704
11
4.0304868897637798
21
-4.8757750787401575
0
LINE
8
BLACK
6
CONTINUOUS
10
4.0304868897637798
20
-4.8757750787401575
11
4.0279764173228347
21
-4.8697142519685039
0
LINE
8
BLACK
6
CONTINUOUS
10
4.0279764173228347
20
-4.8697142519685039
11
4.0266965748031494
21
-4.8632801181102359
0
LINE
8
BLACK
6
CONTINUOUS
10
4.0266965748031494
20
-4.8632801181102359
11
4.0266965748031494
21
-4.8567198818897639
0
LINE
8
BLACK
6
CONTINUOUS
10
4.0266965748031494
20
-4.8567198818897639
11
4.0279764173228347
21
-4.8502857480314958
0
LINE
8
BLACK
6
CONTINUOUS
10
4.0279764173228347
20
-4.8502857480314958
11
4.0304868897637798
21
-4.8442249212598423
0
LINE
8
BLACK
6
CONTINUOUS
10
4.0304868897637798
20
-4.8442249212598423
11
4.0341315354330707
21
-4.8387703149606294
0
LINE
8
BLACK
6
CONTINUOUS
10
4.0341315354330707
20
-4.8387703149606294
11
4.0387703149606295
21
-4.8341315354330705
0
LINE
8
BLACK
6
CONTINUOUS
10
4.0387703149606295
20
-4.8341315354330705
11
4.0442249212598425
21
-4.8304868897637796
0
LINE
8
BLACK
6
CONTINUOUS
10
4.0442249212598425
20
-4.8304868897637796
11
4.050285748031496
21
-4.8279764173228346
0
LINE
8
BLACK
6
CONTINUOUS
10
4.050285748031496
20
-4.8279764173228346
11
4.0567198818897641
21
-4.8266965748031492
0
LINE
8
BLACK
6
CONTINUOUS
10
4.0567198818897641
20
-4.8266965748031492
11
4.063280118110236
21
-4.8266965748031492
0
LINE
8
BLACK
6
CONTINUOUS
10
4.063280118110236
20
-4.8266965748031492
11
4.0697142519685041
21
-4.8279764173228346
0
LINE
8
BLACK
6
CONTINUOUS
10
3.969714251968504
20
-4.7279764173228349
11
3.9757750787401576
21
-4.7304868897637791
0
LINE
8
BLACK
6
CONTINUOUS
10
3.9757750787401576
20
-4.7304868897637791
11
3.98122968503937
21
-4.7341315354330709
0
LINE
8
BLACK
6
CONTINUOUS
10
3.98122968503937
20
-4.7341315354330709
11
3.9858684645669289
21
-4.7387703149606297
0
LINE
8
BLACK
6
CONTINUOUS
10
3.9858684645669289
20
-4.7387703149606297
11
3.9895131102362202
21
-4.7442249212598426
0
LINE
8
BLACK
6
CONTINUOUS
10
3.9895131102362202
20
-4.7442249212598426
11
3.9920235826771653
21
-4.7502857480314962
0
LINE
8
BLACK
6
CONTINUOUS
10
3.9920235826771653
20
-4.7502857480314962
11
3.9933034251968502
21
-4.7567198818897634
0
LINE
8
BLACK
6
CONTINUOUS
10
3.9933034251968502
20
-4.7567198818897634
11
3.9933034251968502
21
-4.7632801181102362
0
LINE
8
BLACK
6
CONTINUOUS
10
3.9933034251968502
20
-4.7632801181102362
11
3.9920235826771653
21
-4.7697142519685034
0
LINE
8
BLACK
6
CONTINUOUS
10
3.9920235826771653
20
-4.7697142519685034
11
3.9895131102362202
21
-4.7757750787401569
0
LINE
8
BLACK
6
CONTINUOUS
10
3.9895131102362202
20
-4.7757750787401569
11
3.9858684645669289
21
-4.7812296850393698
0
LINE
8
BLACK
6
CONTINUOUS
10
3.9858684645669289
20
-4.7812296850393698
11
3.98122968503937
21
-4.7858684645669287
0
LINE
8
BLACK
6
CONTINUOUS
10
3.98122968503937
20
-4.7858684645669287
11
3.9757750787401576
21
-4.7895131102362205
0
LINE
8
BLACK
6
CONTINUOUS
10
3.9757750787401576
20
-4.7895131102362205
11
3.969714251968504
21
-4.7920235826771655
0
LINE
8
BLACK
6
CONTINUOUS
10
3.969714251968504
20
-4.7920235826771655
11
3.963280118110236
21
-4.79330342519685
0
LINE
8
BLACK
6
CONTINUOUS
10
3.963280118110236
20
-4.79330342519685
11
3.9567198818897635
21
-4.79330342519685
0
LINE
8
BLACK
6
CONTINUOUS
10
3.9567198818897635
20
-4.79330342519685
11
3.9502857480314959
21
-4.7920235826771655
0
LINE
8
BLACK
6
CONTINUOUS
10
3.9502857480314959
20
-4.7920235826771655
11
3.9442249212598424
21
-4.7895131102362205
0
LINE
8
BLACK
6
CONTINUOUS
10
3.9442249212598424
20
-4.7895131102362205
11
3.9387703149606299
21
-4.7858684645669287
0
LINE
8
BLACK
6
CONTINUOUS
10
3.9387703149606299
20
-4.7858684645669287
11
3.9341315354330706
21
-4.7812296850393698
0
LINE
8
BLACK
6
CONTINUOUS
10
3.9341315354330706
20
-4.7812296850393698
11
3.9304868897637792
21
-4.7757750787401569
0
LINE
8
BLACK
6
CONTINUOUS
10
3.9304868897637792
20
-4.7757750787401569
11
3.9279764173228346
21
-4.7697142519685034
0
LINE
8
BLACK
6
CONTINUOUS
10
3.9279764173228346
20
-4.7697142519685034
11
3.9266965748031497
21
-4.7632801181102362
0
LINE
8
BLACK
6
CONTINUOUS
10
3.9266965748031497
20
-4.7632801181102362
11
3.9266965748031497
21
-4.7567198818897634
0
LINE
8
BLACK
6
CONTINUOUS
10
3.9266965748031497
20
-4.7567198818897634
11
3.9279764173228346
21
-4.7502857480314962
0
LINE
8
BLACK
6
CONTINUOUS
10
3.9279764173228346
20
-4.7502857480314962
11
3.9304868897637792
21
-4.7442249212598426
0
LINE
8
BLACK
6
CONTINUOUS
10
3.9304868897637792
20
-4.7442249212598426
11
3.9341315354330706
21
-4.7387703149606297
0
LINE
8
BLACK
6
CONTINUOUS
10
3.9341315354330706
20
-4.7387703149606297
11
3.9387703149606299
21
-4.7341315354330709
0
LINE
8
BLACK
6
CONTINUOUS
10
3.9387703149606299
20
-4.7341315354330709
11
3.9442249212598424
21
-4.7304868897637791
0
LINE
8
BLACK
6
CONTINUOUS
10
3.9442249212598424
20
-4.7304868897637791
11
3.9502857480314959
21
-4.7279764173228349
0
LINE
8
BLACK
6
CONTINUOUS
10
3.9502857480314959
20
-4.7279764173228349
11
3.9567198818897635
21
-4.7266965748031495
0
LINE
8
BLACK
6
CONTINUOUS
10
3.9567198818897635
20
-4.7266965748031495
11
3.963280118110236
21
-4.7266965748031495
0
LINE
8
BLACK
6
CONTINUOUS
10
3.963280118110236
20
-4.7266965748031495
11
3.969714251968504
21
-4.7279764173228349
0
LINE
8
BLACK
6
CONTINUOUS
10
4.0697142519685041
20
-4.7279764173228349
11
4.0757750787401577
21
-4.7304868897637791
0
LINE
8
BLACK
6
CONTINUOUS
10
4.0757750787401577
20
-4.7304868897637791
11
4.0812296850393697
21
-4.7341315354330709
0
LINE
8
BLACK
6
CONTINUOUS
10
4.0812296850393697
20
-4.7341315354330709
11
4.0858684645669294
21
-4.7387703149606297
0
LINE
8
BLACK
6
CONTINUOUS
10
4.0858684645669294
20
-4.7387703149606297
11
4.0895131102362203
21
-4.7442249212598426
0
LINE
8
BLACK
6
CONTINUOUS
10
4.0895131102362203
20
-4.7442249212598426
11
4.0920235826771654
21
-4.7502857480314962
0
LINE
8
BLACK
6
CONTINUOUS
10
4.0920235826771654
20
-4.7502857480314962
11
4.0933034251968499
21
-4.7567198818897634
0
LINE
8
BLACK
6
CONTINUOUS
10
4.0933034251968499
20
-4.7567198818897634
11
4.0933034251968499
21
-4.7632801181102362
0
LINE
8
BLACK
6
CONTINUOUS
10
4.0933034251968499
20
-4.7632801181102362
11
4.0920235826771654
21
-4.7697142519685034
0
LINE
8
BLACK
6
CONTINUOUS
10
4.0920235826771654
20
-4.7697142519685034
11
4.0895131102362203
21
-4.7757750787401569
0
LINE
8
BLACK
6
CONTINUOUS
10
4.0895131102362203
20
-4.7757750787401569
11
4.0858684645669294
21
-4.7812296850393698
0
LINE
8
BLACK
6
CONTINUOUS
10
4.0858684645669294
20
-4.7812296850393698
11
4.0812296850393697
21
-4.7858684645669287
0
LINE
8
BLACK
6
CONTINUOUS
10
4.0812296850393697
20
-4.7858684645669287
11
4.0757750787401577
21
-4.7895131102362205
0
LINE
8
BLACK
6
CONTINUOUS
10
4.0757750787401577
20
-4.7895131102362205
11
4.0697142519685041
21
-4.7920235826771655
0
LINE
8
BLACK
6
CONTINUOUS
10
4.0697142519685041
20
-4.7920235826771655
11
4.063280118110236
21
-4.79330342519685
0
LINE
8
BLACK
6
CONTINUOUS
10
4.063280118110236
20
-4.79330342519685
11
4.0567198818897641
21
-4.79330342519685
0
LINE
8
BLACK
6
CONTINUOUS
10
4.0567198818897641
20
-4.79330342519685
11
4.050285748031496
21
-4.7920235826771655
0
LINE
8
BLACK
6
CONTINUOUS
10
4.050285748031496
20
-4.7920235826771655
11
4.0442249212598425
21
-4.7895131102362205
0
LINE
8
BLACK
6
CONTINUOUS
10
4.0442249212598425
20
-4.7895131102362205
11
4.0387703149606295
21
-4.7858684645669287
0
LINE
8
BLACK
6
CONTINUOUS
10
4.0387703149606295
20
-4.7858684645669287
11
4.0341315354330707
21
-4.7812296850393698
0
LINE
8
BLACK
6
CONTINUOUS
10
4.0341315354330707
20
-4.7812296850393698
11
4.0304868897637798
21
-4.7757750787401569
0
LINE
8
BLACK
6
CONTINUOUS
10
4.0304868897637798
20
-4.7757750787401569
11
4.0279764173228347
21
-4.7697142519685034
0
LINE
8
BLACK
6
CONTINUOUS
10
4.0279764173228347
20
-4.7697142519685034
11
4.0266965748031494
21
-4.7632801181102362
0
LINE
8
BLACK
6
CONTINUOUS
10
4.0266965748031494
20
-4.7632801181102362
11
4.0266965748031494
21
-4.7567198818897634
0
LINE
8
BLACK
6
CONTINUOUS
10
4.0266965748031494
20
-4.7567198818897634
11
4.0279764173228347
21
-4.7502857480314962
0
LINE
8
BLACK
6
CONTINUOUS
10
4.0279764173228347
20
-4.7502857480314962
11
4.0304868897637798
21
-4.7442249212598426
0
LINE
8
BLACK
6
CONTINUOUS
10
4.0304868897637798
20
-4.7442249212598426
11
4.0341315354330707
21
-4.7387703149606297
0
LINE
8
BLACK
6
CONTINUOUS
10
4.0341315354330707
20
-4.7387703149606297
11
4.0387703149606295
21
-4.7341315354330709
0
LINE
8
BLACK
6
CONTINUOUS
10
4.0387703149606295
20
-4.7341315354330709
11
4.0442249212598425
21
-4.7304868897637791
0
LINE
8
BLACK
6
CONTINUOUS
10
4.0442249212598425
20
-4.7304868897637791
11
4.050285748031496
21
-4.7279764173228349
0
LINE
8
BLACK
6
CONTINUOUS
10
4.050285748031496
20
-4.7279764173228349
11
4.0567198818897641
21
-4.7266965748031495
0
LINE
8
BLACK
6
CONTINUOUS
10
4.0567198818897641
20
-4.7266965748031495
11
4.063280118110236
21
-4.7266965748031495
0
LINE
8
BLACK
6
CONTINUOUS
10
4.063280118110236
20
-4.7266965748031495
11
4.0697142519685041
21
-4.7279764173228349
0
LINE
8
BLACK
6
CONTINUOUS
10
3.9934645669291338
20
-4.6934645669291335
11
3.9265354330708662
21
-4.6934645669291335
0
LINE
8
BLACK
6
CONTINUOUS
10
3.9265354330708662
20
-4.6934645669291335
11
3.9265354330708662
21
-4.6265354330708659
0
LINE
8
BLACK
6
CONTINUOUS
10
3.9265354330708662
20
-4.6265354330708659
11
3.9934645669291338
21
-4.6265354330708659
0
LINE
8
BLACK
6
CONTINUOUS
10
3.9934645669291338
20
-4.6265354330708659
11
3.9934645669291338
21
-4.6934645669291335
0
LINE
8
BLACK
6
CONTINUOUS
10
4.0697142519685041
20
-4.6279764173228344
11
4.0757750787401577
21
-4.6304868897637794
0
LINE
8
BLACK
6
CONTINUOUS
10
4.0757750787401577
20
-4.6304868897637794
11
4.0812296850393697
21
-4.6341315354330703
0
LINE
8
BLACK
6
CONTINUOUS
10
4.0812296850393697
20
-4.6341315354330703
11
4.0858684645669294
21
-4.6387703149606301
0
LINE
8
BLACK
6
CONTINUOUS
10
4.0858684645669294
20
-4.6387703149606301
11
4.0895131102362203
21
-4.6442249212598421
0
LINE
8
BLACK
6
CONTINUOUS
10
4.0895131102362203
20
-4.6442249212598421
11
4.0920235826771654
21
-4.6502857480314956
0
LINE
8
BLACK
6
CONTINUOUS
10
4.0920235826771654
20
-4.6502857480314956
11
4.0933034251968499
21
-4.6567198818897637
0
LINE
8
BLACK
6
CONTINUOUS
10
4.0933034251968499
20
-4.6567198818897637
11
4.0933034251968499
21
-4.6632801181102357
0
LINE
8
BLACK
6
CONTINUOUS
10
4.0933034251968499
20
-4.6632801181102357
11
4.0920235826771654
21
-4.6697142519685038
0
LINE
8
BLACK
6
CONTINUOUS
10
4.0920235826771654
20
-4.6697142519685038
11
4.0895131102362203
21
-4.6757750787401573
0
LINE
8
BLACK
6
CONTINUOUS
10
4.0895131102362203
20
-4.6757750787401573
11
4.0858684645669294
21
-4.6812296850393702
0
LINE
8
BLACK
6
CONTINUOUS
10
4.0858684645669294
20
-4.6812296850393702
11
4.0812296850393697
21
-4.6858684645669291
0
LINE
8
BLACK
6
CONTINUOUS
10
4.0812296850393697
20
-4.6858684645669291
11
4.0757750787401577
21
-4.68951311023622
0
LINE
8
BLACK
6
CONTINUOUS
10
4.0757750787401577
20
-4.68951311023622
11
4.0697142519685041
21
-4.692023582677165
0
LINE
8
BLACK
6
CONTINUOUS
10
4.0697142519685041
20
-4.692023582677165
11
4.063280118110236
21
-4.6933034251968504
0
LINE
8
BLACK
6
CONTINUOUS
10
4.063280118110236
20
-4.6933034251968504
11
4.0567198818897641
21
-4.6933034251968504
0
LINE
8
BLACK
6
CONTINUOUS
10
4.0567198818897641
20
-4.6933034251968504
11
4.050285748031496
21
-4.692023582677165
0
LINE
8
BLACK
6
CONTINUOUS
10
4.050285748031496
20
-4.692023582677165
11
4.0442249212598425
21
-4.68951311023622
0
LINE
8
BLACK
6
CONTINUOUS
10
4.0442249212598425
20
-4.68951311023622
11
4.0387703149606295
21
-4.6858684645669291
0
LINE
8
BLACK
6
CONTINUOUS
10
4.0387703149606295
20
-4.6858684645669291
11
4.0341315354330707
21
-4.6812296850393702
0
LINE
8
BLACK
6
CONTINUOUS
10
4.0341315354330707
20
-4.6812296850393702
11
4.0304868897637798
21
-4.6757750787401573
0
LINE
8
BLACK
6
CONTINUOUS
10
4.0304868897637798
20
-4.6757750787401573
11
4.0279764173228347
21
-4.6697142519685038
0
LINE
8
BLACK
6
CONTINUOUS
10
4.0279764173228347
20
-4.6697142519685038
11
4.0266965748031494
21
-4.6632801181102357
0
LINE
8
BLACK
6
CONTINUOUS
10
4.0266965748031494
20
-4.6632801181102357
11
4.0266965748031494
21
-4.6567198818897637
0
LINE
8
BLACK
6
CONTINUOUS
10
4.0266965748031494
20
-4.6567198818897637
11
4.0279764173228347
21
-4.6502857480314956
0
LINE
8
BLACK
6
CONTINUOUS
10
4.0279764173228347
20
-4.6502857480314956
11
4.0304868897637798
21
-4.6442249212598421
0
LINE
8
BLACK
6
CONTINUOUS
10
4.0304868897637798
20
-4.6442249212598421
11
4.0341315354330707
21
-4.6387703149606301
0
LINE
8
BLACK
6
CONTINUOUS
10
4.0341315354330707
20
-4.6387703149606301
11
4.0387703149606295
21
-4.6341315354330703
0
LINE
8
BLACK
6
CONTINUOUS
10
4.0387703149606295
20
-4.6341315354330703
11
4.0442249212598425
21
-4.6304868897637794
0
LINE
8
BLACK
6
CONTINUOUS
10
4.0442249212598425
20
-4.6304868897637794
11
4.050285748031496
21
-4.6279764173228344
0
LINE
8
BLACK
6
CONTINUOUS
10
4.050285748031496
20
-4.6279764173228344
11
4.0567198818897641
21
-4.6266965748031499
0
LINE
8
BLACK
6
CONTINUOUS
10
4.0567198818897641
20
-4.6266965748031499
11
4.063280118110236
21
-4.6266965748031499
0
LINE
8
BLACK
6
CONTINUOUS
10
4.063280118110236
20
-4.6266965748031499
11
4.0697142519685041
21
-4.6279764173228344
0
LINE
8
BLACK
6
CONTINUOUS
10
5.5531184251968506
20
-4.493317086614173
11
5.55712374015748
21
-4.495629566929134
0
LINE
8
BLACK
6
CONTINUOUS
10
5.55712374015748
20
-4.495629566929134
11
5.5603940551181097
21
-4.4988998818897636
0
LINE
8
BLACK
6
CONTINUOUS
10
5.5603940551181097
20
-4.4988998818897636
11
5.5627065354330707
21
-4.5029051968503939
0
LINE
8
BLACK
6
CONTINUOUS
10
5.5627065354330707
20
-4.5029051968503939
11
5.5639035433070863
21
-4.5073725590551179
0
LINE
8
BLACK
6
CONTINUOUS
10
5.5639035433070863
20
-4.5073725590551179
11
5.564055118110236
21
-4.5096850393700789
0
LINE
8
BLACK
6
CONTINUOUS
10
5.564055118110236
20
-4.5096850393700789
11
5.564055118110236
21
-4.5254330708661419
0
LINE
8
BLACK
6
CONTINUOUS
10
5.564055118110236
20
-4.5254330708661419
11
5.5639035433070863
21
-4.527745551181102
0
LINE
8
BLACK
6
CONTINUOUS
10
5.5639035433070863
20
-4.527745551181102
11
5.5627065354330707
21
-4.5322129133858269
0
LINE
8
BLACK
6
CONTINUOUS
10
5.5627065354330707
20
-4.5322129133858269
11
5.5603940551181097
21
-4.5362182283464563
0
LINE
8
BLACK
6
CONTINUOUS
10
5.5603940551181097
20
-4.5362182283464563
11
5.55712374015748
21
-4.5394885433070868
0
LINE
8
BLACK
6
CONTINUOUS
10
5.55712374015748
20
-4.5394885433070868
11
5.5531184251968506
21
-4.541801023622047
0
LINE
8
BLACK
6
CONTINUOUS
10
5.5531184251968506
20
-4.541801023622047
11
5.5486510629921257
21
-4.5429980314960625
0
LINE
8
BLACK
6
CONTINUOUS
10
5.5486510629921257
20
-4.5429980314960625
11
5.5440261023622046
21
-4.5429980314960625
0
LINE
8
BLACK
6
CONTINUOUS
10
5.5440261023622046
20
-4.5429980314960625
11
5.5395587401574806
21
-4.541801023622047
0
LINE
8
BLACK
6
CONTINUOUS
10
5.5395587401574806
20
-4.541801023622047
11
5.5355534251968503
21
-4.5394885433070868
0
LINE
8
BLACK
6
CONTINUOUS
10
5.5355534251968503
20
-4.5394885433070868
11
5.5322831102362207
21
-4.5362182283464563
0
LINE
8
BLACK
6
CONTINUOUS
10
5.5322831102362207
20
-4.5362182283464563
11
5.5299706299212597
21
-4.5322129133858269
0
LINE
8
BLACK
6
CONTINUOUS
10
5.5299706299212597
20
-4.5322129133858269
11
5.5287736220472441
21
-4.527745551181102
0
LINE
8
BLACK
6
CONTINUOUS
10
5.5287736220472441
20
-4.527745551181102
11
5.5286220472440943
21
-4.5254330708661419
0
LINE
8
BLACK
6
CONTINUOUS
10
5.5286220472440943
20
-4.5254330708661419
11
5.5286220472440943
21
-4.5096850393700789
0
LINE
8
BLACK
6
CONTINUOUS
10
5.5286220472440943
20
-4.5096850393700789
11
5.5287736220472441
21
-4.5073725590551179
0
LINE
8
BLACK
6
CONTINUOUS
10
5.5287736220472441
20
-4.5073725590551179
11
5.5299706299212597
21
-4.5029051968503939
0
LINE
8
BLACK
6
CONTINUOUS
10
5.5299706299212597
20
-4.5029051968503939
11
5.5322831102362207
21
-4.4988998818897636
0
LINE
8
BLACK
6
CONTINUOUS
10
5.5322831102362207
20
-4.4988998818897636
11
5.5355534251968503
21
-4.495629566929134
0
LINE
8
BLACK
6
CONTINUOUS
10
5.5355534251968503
20
-4.495629566929134
11
5.5395587401574806
21
-4.493317086614173
0
LINE
8
BLACK
6
CONTINUOUS
10
5.5395587401574806
20
-4.493317086614173
11
5.5440261023622046
21
-4.4921200787401574
0
LINE
8
BLACK
6
CONTINUOUS
10
5.5440261023622046
20
-4.4921200787401574
11
5.5486510629921257
21
-4.4921200787401574
0
LINE
8
BLACK
6
CONTINUOUS
10
5.5486510629921257
20
-4.4921200787401574
11
5.5531184251968506
21
-4.493317086614173
0
LINE
8
BLACK
6
CONTINUOUS
10
5.7204412598425192
20
-4.493317086614173
11
5.7244465748031494
21
-4.495629566929134
0
LINE
8
BLACK
6
CONTINUOUS
10
5.7244465748031494
20
-4.495629566929134
11
5.7277168897637791
21
-4.4988998818897636
0
LINE
8
BLACK
6
CONTINUOUS
10
5.7277168897637791
20
-4.4988998818897636
11
5.7300293700787401
21
-4.5029051968503939
0
LINE
8
BLACK
6
CONTINUOUS
10
5.7300293700787401
20
-4.5029051968503939
11
5.7312263779527557
21
-4.5073725590551179
0
LINE
8
BLACK
6
CONTINUOUS
10
5.7312263779527557
20
-4.5073725590551179
11
5.7313779527559054
21
-4.5096850393700789
0
LINE
8
BLACK
6
CONTINUOUS
10
5.7313779527559054
20
-4.5096850393700789
11
5.7313779527559054
21
-4.5254330708661419
0
LINE
8
BLACK
6
CONTINUOUS
10
5.7313779527559054
20
-4.5254330708661419
11
5.7312263779527557
21
-4.527745551181102
0
LINE
8
BLACK
6
CONTINUOUS
10
5.7312263779527557
20
-4.527745551181102
11
5.7300293700787401
21
-4.5322129133858269
0
LINE
8
BLACK
6
CONTINUOUS
10
5.7300293700787401
20
-4.5322129133858269
11
5.7277168897637791
21
-4.5362182283464563
0
LINE
8
BLACK
6
CONTINUOUS
10
5.7277168897637791
20
-4.5362182283464563
11
5.7244465748031494
21
-4.5394885433070868
0
LINE
8
BLACK
6
CONTINUOUS
10
5.7244465748031494
20
-4.5394885433070868
11
5.7204412598425192
21
-4.541801023622047
0
LINE
8
BLACK
6
CONTINUOUS
10
5.7204412598425192
20
-4.541801023622047
11
5.7159738976377952
21
-4.5429980314960625
0
LINE
8
BLACK
6
CONTINUOUS
10
5.7159738976377952
20
-4.5429980314960625
11
5.711348937007874
21
-4.5429980314960625
0
LINE
8
BLACK
6
CONTINUOUS
10
5.711348937007874
20
-4.5429980314960625
11
5.7068815748031492
21
-4.541801023622047
0
LINE
8
BLACK
6
CONTINUOUS
10
5.7068815748031492
20
-4.541801023622047
11
5.7028762598425198
21
-4.5394885433070868
0
LINE
8
BLACK
6
CONTINUOUS
10
5.7028762598425198
20
-4.5394885433070868
11
5.6996059448818892
21
-4.5362182283464563
0
LINE
8
BLACK
6
CONTINUOUS
10
5.6996059448818892
20
-4.5362182283464563
11
5.6972934645669291
21
-4.5322129133858269
0
LINE
8
BLACK
6
CONTINUOUS
10
5.6972934645669291
20
-4.5322129133858269
11
5.6960964566929135
21
-4.527745551181102
0
LINE
8
BLACK
6
CONTINUOUS
10
5.6960964566929135
20
-4.527745551181102
11
5.6959448818897638
21
-4.5254330708661419
0
LINE
8
BLACK
6
CONTINUOUS
10
5.6959448818897638
20
-4.5254330708661419
11
5.6959448818897638
21
-4.5096850393700789
0
LINE
8
BLACK
6
CONTINUOUS
10
5.6959448818897638
20
-4.5096850393700789
11
5.6960964566929135
21
-4.5073725590551179
0
LINE
8
BLACK
6
CONTINUOUS
10
5.6960964566929135
20
-4.5073725590551179
11
5.6972934645669291
21
-4.5029051968503939
0
LINE
8
BLACK
6
CONTINUOUS
10
5.6972934645669291
20
-4.5029051968503939
11
5.6996059448818892
21
-4.4988998818897636
0
LINE
8
BLACK
6
CONTINUOUS
10
5.6996059448818892
20
-4.4988998818897636
11
5.7028762598425198
21
-4.495629566929134
0
LINE
8
BLACK
6
CONTINUOUS
10
5.7028762598425198
20
-4.495629566929134
11
5.7068815748031492
21
-4.493317086614173
0
LINE
8
BLACK
6
CONTINUOUS
10
5.7068815748031492
20
-4.493317086614173
11
5.711348937007874
21
-4.4921200787401574
0
LINE
8
BLACK
6
CONTINUOUS
10
5.711348937007874
20
-4.4921200787401574
11
5.7159738976377952
21
-4.4921200787401574
0
LINE
8
BLACK
6
CONTINUOUS
10
5.7159738976377952
20
-4.4921200787401574
11
5.7204412598425192
21
-4.493317086614173
0
LINE
8
BLACK
6
CONTINUOUS
10
3.5147842125984252
20
-3.3735585433070865
11
3.5276971259842518
21
-3.3765058267716537
0
LINE
8
BLACK
6
CONTINUOUS
10
3.5276971259842518
20
-3.3765058267716537
11
3.5401988188976379
21
-3.3808803543307087
0
LINE
8
BLACK
6
CONTINUOUS
10
3.5401988188976379
20
-3.3808803543307087
11
3.5521321653543305
21
-3.3866271653543305
0
LINE
8
BLACK
6
CONTINUOUS
10
3.5521321653543305
20
-3.3866271653543305
11
3.5633470078740155
21
-3.3936738976377954
0
LINE
8
BLACK
6
CONTINUOUS
10
3.5633470078740155
20
-3.3936738976377954
11
3.5737023622047244
21
-3.4019320472440944
0
LINE
8
BLACK
6
CONTINUOUS
10
3.5737023622047244
20
-3.4019320472440944
11
3.5830679527559055
21
-3.4112976377952755
0
LINE
8
BLACK
6
CONTINUOUS
10
3.5830679527559055
20
-3.4112976377952755
11
3.5913261023622045
21
-3.4216529921259844
0
LINE
8
BLACK
6
CONTINUOUS
10
3.5913261023622045
20
-3.4216529921259844
11
3.5983728346456694
21
-3.4328678346456694
0
LINE
8
BLACK
6
CONTINUOUS
10
3.5983728346456694
20
-3.4328678346456694
11
3.6041196456692912
21
-3.444801181102362
0
LINE
8
BLACK
6
CONTINUOUS
10
3.6041196456692912
20
-3.444801181102362
11
3.6084941732283462
21
-3.4573028740157481
0
LINE
8
BLACK
6
CONTINUOUS
10
3.6084941732283462
20
-3.4573028740157481
11
3.6114414566929134
21
-3.4702157874015747
0
LINE
8
BLACK
6
CONTINUOUS
10
3.6114414566929134
20
-3.4702157874015747
11
3.6129244094488189
21
-3.4833775196850394
0
LINE
8
BLACK
6
CONTINUOUS
10
3.6129244094488189
20
-3.4833775196850394
11
3.6129244094488189
21
-3.4966224803149606
0
LINE
8
BLACK
6
CONTINUOUS
10
3.6129244094488189
20
-3.4966224803149606
11
3.6114414566929134
21
-3.5097842125984253
0
LINE
8
BLACK
6
CONTINUOUS
10
3.6114414566929134
20
-3.5097842125984253
11
3.6084941732283462
21
-3.5226971259842519
0
LINE
8
BLACK
6
CONTINUOUS
10
3.6084941732283462
20
-3.5226971259842519
11
3.6041196456692912
21
-3.5351988188976375
0
LINE
8
BLACK
6
CONTINUOUS
10
3.6041196456692912
20
-3.5351988188976375
11
3.5983728346456694
21
-3.5471321653543306
0
LINE
8
BLACK
6
CONTINUOUS
10
3.5983728346456694
20
-3.5471321653543306
11
3.5913261023622045
21
-3.5583470078740156
0
LINE
8
BLACK
6
CONTINUOUS
10
3.5913261023622045
20
-3.5583470078740156
11
3.5830679527559055
21
-3.5687023622047245
0
LINE
8
BLACK
6
CONTINUOUS
10
3.5830679527559055
20
-3.5687023622047245
11
3.5737023622047244
21
-3.5780679527559056
0
LINE
8
BLACK
6
CONTINUOUS
10
3.5737023622047244
20
-3.5780679527559056
11
3.5633470078740155
21
-3.5863261023622046
0
LINE
8
BLACK
6
CONTINUOUS
10
3.5633470078740155
20
-3.5863261023622046
11
3.5521321653543305
21
-3.593372834645669
0
LINE
8
BLACK
6
CONTINUOUS
10
3.5521321653543305
20
-3.593372834645669
11
3.5401988188976379
21
-3.5991196456692913
0
LINE
8
BLACK
6
CONTINUOUS
10
3.5401988188976379
20
-3.5991196456692913
11
3.5276971259842518
21
-3.6034941732283463
0
LINE
8
BLACK
6
CONTINUOUS
10
3.5276971259842518
20
-3.6034941732283463
11
3.5147842125984252
21
-3.6064414566929135
0
LINE
8
BLACK
6
CONTINUOUS
10
3.5147842125984252
20
-3.6064414566929135
11
3.5016224803149605
21
-3.607924409448819
0
LINE
8
BLACK
6
CONTINUOUS
10
3.5016224803149605
20
-3.607924409448819
11
3.4883775196850393
21
-3.607924409448819
0
LINE
8
BLACK
6
CONTINUOUS
10
3.4883775196850393
20
-3.607924409448819
11
3.4752157874015746
21
-3.6064414566929135
0
LINE
8
BLACK
6
CONTINUOUS
10
3.4752157874015746
20
-3.6064414566929135
11
3.462302874015748
21
-3.6034941732283463
0
LINE
8
BLACK
6
CONTINUOUS
10
3.462302874015748
20
-3.6034941732283463
11
3.4498011811023623
21
-3.5991196456692913
0
LINE
8
BLACK
6
CONTINUOUS
10
3.4498011811023623
20
-3.5991196456692913
11
3.4378678346456693
21
-3.593372834645669
0
LINE
8
BLACK
6
CONTINUOUS
10
3.4378678346456693
20
-3.593372834645669
11
3.4266529921259843
21
-3.5863261023622046
0
LINE
8
BLACK
6
CONTINUOUS
10
3.4266529921259843
20
-3.5863261023622046
11
3.4162976377952754
21
-3.5780679527559056
0
LINE
8
BLACK
6
CONTINUOUS
10
3.4162976377952754
20
-3.5780679527559056
11
3.4069320472440943
21
-3.5687023622047245
0
LINE
8
BLACK
6
CONTINUOUS
10
3.4069320472440943
20
-3.5687023622047245
11
3.3986738976377953
21
-3.5583470078740156
0
LINE
8
BLACK
6
CONTINUOUS
10
3.3986738976377953
20
-3.5583470078740156
11
3.3916271653543308
21
-3.5471321653543306
0
LINE
8
BLACK
6
CONTINUOUS
10
3.3916271653543308
20
-3.5471321653543306
11
3.3858803543307086
21
-3.5351988188976375
0
LINE
8
BLACK
6
CONTINUOUS
10
3.3858803543307086
20
-3.5351988188976375
11
3.3815058267716536
21
-3.5226971259842519
0
LINE
8
BLACK
6
CONTINUOUS
10
3.3815058267716536
20
-3.5226971259842519
11
3.3785585433070864
21
-3.5097842125984253
0
LINE
8
BLACK
6
CONTINUOUS
10
3.3785585433070864
20
-3.5097842125984253
11
3.3770755905511809
21
-3.4966224803149606
0
LINE
8
BLACK
6
CONTINUOUS
10
3.3770755905511809
20
-3.4966224803149606
11
3.3770755905511809
21
-3.4833775196850394
0
LINE
8
BLACK
6
CONTINUOUS
10
3.3770755905511809
20
-3.4833775196850394
11
3.3785585433070864
21
-3.4702157874015747
0
LINE
8
BLACK
6
CONTINUOUS
10
3.3785585433070864
20
-3.4702157874015747
11
3.3815058267716536
21
-3.4573028740157481
0
LINE
8
BLACK
6
CONTINUOUS
10
3.3815058267716536
20
-3.4573028740157481
11
3.3858803543307086
21
-3.444801181102362
0
LINE
8
BLACK
6
CONTINUOUS
10
3.3858803543307086
20
-3.444801181102362
11
3.3916271653543308
21
-3.4328678346456694
0
LINE
8
BLACK
6
CONTINUOUS
10
3.3916271653543308
20
-3.4328678346456694
11
3.3986738976377953
21
-3.4216529921259844
0
LINE
8
BLACK
6
CONTINUOUS
10
3.3986738976377953
20
-3.4216529921259844
11
3.4069320472440943
21
-3.4112976377952755
0
LINE
8
BLACK
6
CONTINUOUS
10
3.4069320472440943
20
-3.4112976377952755
11
3.4162976377952754
21
-3.4019320472440944
0
LINE
8
BLACK
6
CONTINUOUS
10
3.4162976377952754
20
-3.4019320472440944
11
3.4266529921259843
21
-3.3936738976377954
0
LINE
8
BLACK
6
CONTINUOUS
10
3.4266529921259843
20
-3.3936738976377954
11
3.4378678346456693
21
-3.3866271653543305
0
LINE
8
BLACK
6
CONTINUOUS
10
3.4378678346456693
20
-3.3866271653543305
11
3.4498011811023623
21
-3.3808803543307087
0
LINE
8
BLACK
6
CONTINUOUS
10
3.4498011811023623
20
-3.3808803543307087
11
3.462302874015748
21
-3.3765058267716537
0
LINE
8
BLACK
6
CONTINUOUS
10
3.462302874015748
20
-3.3765058267716537
11
3.4752157874015746
21
-3.3735585433070865
0
LINE
8
BLACK
6
CONTINUOUS
10
3.4752157874015746
20
-3.3735585433070865
11
3.4883775196850393
21
-3.372075590551181
0
LINE
8
BLACK
6
CONTINUOUS
10
3.4883775196850393
20
-3.372075590551181
11
3.5016224803149605
21
-3.372075590551181
0
LINE
8
BLACK
6
CONTINUOUS
10
3.5016224803149605
20
-3.372075590551181
11
3.5147842125984252
21
-3.3735585433070865
0
LINE
8
BLACK
6
CONTINUOUS
10
7.2097842125984251
20
-3.3535585433070865
11
7.2226971259842516
21
-3.3565058267716537
0
LINE
8
BLACK
6
CONTINUOUS
10
7.2226971259842516
20
-3.3565058267716537
11
7.2351988188976373
21
-3.3608803543307086
0
LINE
8
BLACK
6
CONTINUOUS
10
7.2351988188976373
20
-3.3608803543307086
11
7.2471321653543308
21
-3.3666271653543305
0
LINE
8
BLACK
6
CONTINUOUS
10
7.2471321653543308
20
-3.3666271653543305
11
7.2583470078740158
21
-3.3736738976377953
0
LINE
8
BLACK
6
CONTINUOUS
10
7.2583470078740158
20
-3.3736738976377953
11
7.2687023622047242
21
-3.3819320472440944
0
LINE
8
BLACK
6
CONTINUOUS
10
7.2687023622047242
20
-3.3819320472440944
11
7.2780679527559053
21
-3.3912976377952755
0
LINE
8
BLACK
6
CONTINUOUS
10
7.2780679527559053
20
-3.3912976377952755
11
7.2863261023622048
21
-3.4016529921259844
0
LINE
8
BLACK
6
CONTINUOUS
10
7.2863261023622048
20
-3.4016529921259844
11
7.2933728346456688
21
-3.4128678346456693
0
LINE
8
BLACK
6
CONTINUOUS
10
7.2933728346456688
20
-3.4128678346456693
11
7.2991196456692915
21
-3.424801181102362
0
LINE
8
BLACK
6
CONTINUOUS
10
7.2991196456692915
20
-3.424801181102362
11
7.303494173228346
21
-3.4373028740157481
0
LINE
8
BLACK
6
CONTINUOUS
10
7.303494173228346
20
-3.4373028740157481
11
7.3064414566929132
21
-3.4502157874015746
0
LINE
8
BLACK
6
CONTINUOUS
10
7.3064414566929132
20
-3.4502157874015746
11
7.3079244094488187
21
-3.4633775196850394
0
LINE
8
BLACK
6
CONTINUOUS
10
7.3079244094488187
20
-3.4633775196850394
11
7.3079244094488187
21
-3.4766224803149606
0
LINE
8
BLACK
6
CONTINUOUS
10
7.3079244094488187
20
-3.4766224803149606
11
7.3064414566929132
21
-3.4897842125984253
0
LINE
8
BLACK
6
CONTINUOUS
10
7.3064414566929132
20
-3.4897842125984253
11
7.303494173228346
21
-3.5026971259842519
0
LINE
8
BLACK
6
CONTINUOUS
10
7.303494173228346
20
-3.5026971259842519
11
7.2991196456692915
21
-3.5151988188976375
0
LINE
8
BLACK
6
CONTINUOUS
10
7.2991196456692915
20
-3.5151988188976375
11
7.2933728346456688
21
-3.5271321653543306
0
LINE
8
BLACK
6
CONTINUOUS
10
7.2933728346456688
20
-3.5271321653543306
11
7.2863261023622048
21
-3.5383470078740156
0
LINE
8
BLACK
6
CONTINUOUS
10
7.2863261023622048
20
-3.5383470078740156
11
7.2780679527559053
21
-3.5487023622047245
0
LINE
8
BLACK
6
CONTINUOUS
10
7.2780679527559053
20
-3.5487023622047245
11
7.2687023622047242
21
-3.5580679527559056
0
LINE
8
BLACK
6
CONTINUOUS
10
7.2687023622047242
20
-3.5580679527559056
11
7.2583470078740158
21
-3.5663261023622046
0
LINE
8
BLACK
6
CONTINUOUS
10
7.2583470078740158
20
-3.5663261023622046
11
7.2471321653543308
21
-3.573372834645669
0
LINE
8
BLACK
6
CONTINUOUS
10
7.2471321653543308
20
-3.573372834645669
11
7.2351988188976373
21
-3.5791196456692913
0
LINE
8
BLACK
6
CONTINUOUS
10
7.2351988188976373
20
-3.5791196456692913
11
7.2226971259842516
21
-3.5834941732283463
0
LINE
8
BLACK
6
CONTINUOUS
10
7.2226971259842516
20
-3.5834941732283463
11
7.2097842125984251
21
-3.5864414566929135
0
LINE
8
BLACK
6
CONTINUOUS
10
7.2097842125984251
20
-3.5864414566929135
11
7.1966224803149608
21
-3.587924409448819
0
LINE
8
BLACK
6
CONTINUOUS
10
7.1966224803149608
20
-3.587924409448819
11
7.1833775196850391
21
-3.587924409448819
0
LINE
8
BLACK
6
CONTINUOUS
10
7.1833775196850391
20
-3.587924409448819
11
7.1702157874015748
21
-3.5864414566929135
0
LINE
8
BLACK
6
CONTINUOUS
10
7.1702157874015748
20
-3.5864414566929135
11
7.1573028740157483
21
-3.5834941732283463
0
LINE
8
BLACK
6
CONTINUOUS
10
7.1573028740157483
20
-3.5834941732283463
11
7.1448011811023617
21
-3.5791196456692913
0
LINE
8
BLACK
6
CONTINUOUS
10
7.1448011811023617
20
-3.5791196456692913
11
7.1328678346456691
21
-3.573372834645669
0
LINE
8
BLACK
6
CONTINUOUS
10
7.1328678346456691
20
-3.573372834645669
11
7.1216529921259841
21
-3.5663261023622046
0
LINE
8
BLACK
6
CONTINUOUS
10
7.1216529921259841
20
-3.5663261023622046
11
7.1112976377952757
21
-3.5580679527559056
0
LINE
8
BLACK
6
CONTINUOUS
10
7.1112976377952757
20
-3.5580679527559056
11
7.1019320472440945
21
-3.5487023622047245
0
LINE
8
BLACK
6
CONTINUOUS
10
7.1019320472440945
20
-3.5487023622047245
11
7.0936738976377951
21
-3.5383470078740156
0
LINE
8
BLACK
6
CONTINUOUS
10
7.0936738976377951
20
-3.5383470078740156
11
7.0866271653543302
21
-3.5271321653543306
0
LINE
8
BLACK
6
CONTINUOUS
10
7.0866271653543302
20
-3.5271321653543306
11
7.0808803543307084
21
-3.5151988188976375
0
LINE
8
BLACK
6
CONTINUOUS
10
7.0808803543307084
20
-3.5151988188976375
11
7.076505826771653
21
-3.5026971259842519
0
LINE
8
BLACK
6
CONTINUOUS
10
7.076505826771653
20
-3.5026971259842519
11
7.0735585433070867
21
-3.4897842125984253
0
LINE
8
BLACK
6
CONTINUOUS
10
7.0735585433070867
20
-3.4897842125984253
11
7.0720755905511812
21
-3.4766224803149606
0
LINE
8
BLACK
6
CONTINUOUS
10
7.0720755905511812
20
-3.4766224803149606
11
7.0720755905511812
21
-3.4633775196850394
0
LINE
8
BLACK
6
CONTINUOUS
10
7.0720755905511812
20
-3.4633775196850394
11
7.0735585433070867
21
-3.4502157874015746
0
LINE
8
BLACK
6
CONTINUOUS
10
7.0735585433070867
20
-3.4502157874015746
11
7.076505826771653
21
-3.4373028740157481
0
LINE
8
BLACK
6
CONTINUOUS
10
7.076505826771653
20
-3.4373028740157481
11
7.0808803543307084
21
-3.424801181102362
0
LINE
8
BLACK
6
CONTINUOUS
10
7.0808803543307084
20
-3.424801181102362
11
7.0866271653543302
21
-3.4128678346456693
0
LINE
8
BLACK
6
CONTINUOUS
10
7.0866271653543302
20
-3.4128678346456693
11
7.0936738976377951
21
-3.4016529921259844
0
LINE
8
BLACK
6
CONTINUOUS
10
7.0936738976377951
20
-3.4016529921259844
11
7.1019320472440945
21
-3.3912976377952755
0
LINE
8
BLACK
6
CONTINUOUS
10
7.1019320472440945
20
-3.3912976377952755
11
7.1112976377952757
21
-3.3819320472440944
0
LINE
8
BLACK
6
CONTINUOUS
10
7.1112976377952757
20
-3.3819320472440944
11
7.1216529921259841
21
-3.3736738976377953
0
LINE
8
BLACK
6
CONTINUOUS
10
7.1216529921259841
20
-3.3736738976377953
11
7.1328678346456691
21
-3.3666271653543305
0
LINE
8
BLACK
6
CONTINUOUS
10
7.1328678346456691
20
-3.3666271653543305
11
7.1448011811023617
21
-3.3608803543307086
0
LINE
8
BLACK
6
CONTINUOUS
10
7.1448011811023617
20
-3.3608803543307086
11
7.1573028740157483
21
-3.3565058267716537
0
LINE
8
BLACK
6
CONTINUOUS
10
7.1573028740157483
20
-3.3565058267716537
11
7.1702157874015748
21
-3.3535585433070865
0
LINE
8
BLACK
6
CONTINUOUS
10
7.1702157874015748
20
-3.3535585433070865
11
7.1833775196850391
21
-3.352075590551181
0
LINE
8
BLACK
6
CONTINUOUS
10
7.1833775196850391
20
-3.352075590551181
11
7.1966224803149608
21
-3.352075590551181
0
LINE
8
BLACK
6
CONTINUOUS
10
7.1966224803149608
20
-3.352075590551181
11
7.2097842125984251
21
-3.3535585433070865
0
LINE
8
BLACK
6
CONTINUOUS
10
3.9431496062992126
20
-3.0402362204724409
11
3.7856692913385825
21
-3.0402362204724409
0
LINE
8
BLACK
6
CONTINUOUS
10
3.7856692913385825
20
-3.0402362204724409
11
3.7856692913385825
21
-2.8827559055118108
0
LINE
8
BLACK
6
CONTINUOUS
10
3.7856692913385825
20
-2.8827559055118108
11
3.9431496062992126
21
-2.8827559055118108
0
LINE
8
BLACK
6
CONTINUOUS
10
3.9431496062992126
20
-2.8827559055118108
11
3.9431496062992126
21
-3.0402362204724409
0
LINE
8
BLACK
6
CONTINUOUS
10
6.801417322834646
20
-3.0402362204724409
11
6.6439370078740154
21
-3.0402362204724409
0
LINE
8
BLACK
6
CONTINUOUS
10
6.6439370078740154
20
-3.0402362204724409
11
6.6439370078740154
21
-2.8827559055118108
0
LINE
8
BLACK
6
CONTINUOUS
10
6.6439370078740154
20
-2.8827559055118108
11
6.801417322834646
21
-2.8827559055118108
0
LINE
8
BLACK
6
CONTINUOUS
10
6.801417322834646
20
-2.8827559055118108
11
6.801417322834646
21
-3.0402362204724409
0
LINE
8
BLACK
6
CONTINUOUS
10
4.2133666535433072
20
-2.9002444094488187
11
4.2227674409448817
21
-2.9032989370078739
0
LINE
8
BLACK
6
CONTINUOUS
10
4.2227674409448817
20
-2.9032989370078739
11
4.231574724409449
21
-2.9077864566929135
0
LINE
8
BLACK
6
CONTINUOUS
10
4.231574724409449
20
-2.9077864566929135
11
4.239571535433071
21
-2.9135964566929133
0
LINE
8
BLACK
6
CONTINUOUS
10
4.239571535433071
20
-2.9135964566929133
11
4.2465610236220472
21
-2.9205859448818896
0
LINE
8
BLACK
6
CONTINUOUS
10
4.2465610236220472
20
-2.9205859448818896
11
4.2523710236220476
21
-2.9285827559055115
0
LINE
8
BLACK
6
CONTINUOUS
10
4.2523710236220476
20
-2.9285827559055115
11
4.2568585433070867
21
-2.9373900393700785
0
LINE
8
BLACK
6
CONTINUOUS
10
4.2568585433070867
20
-2.9373900393700785
11
4.2599130708661415
21
-2.9467908267716534
0
LINE
8
BLACK
6
CONTINUOUS
10
4.2599130708661415
20
-2.9467908267716534
11
4.2614593700787404
21
-2.9565537401574802
0
LINE
8
BLACK
6
CONTINUOUS
10
4.2614593700787404
20
-2.9565537401574802
11
4.2614593700787404
21
-2.9664383858267716
0
LINE
8
BLACK
6
CONTINUOUS
10
4.2614593700787404
20
-2.9664383858267716
11
4.2599130708661415
21
-2.9762012992125984
0
LINE
8
BLACK
6
CONTINUOUS
10
4.2599130708661415
20
-2.9762012992125984
11
4.2568585433070867
21
-2.9856020866141733
0
LINE
8
BLACK
6
CONTINUOUS
10
4.2568585433070867
20
-2.9856020866141733
11
4.2523710236220476
21
-2.9944093700787402
0
LINE
8
BLACK
6
CONTINUOUS
10
4.2523710236220476
20
-2.9944093700787402
11
4.2465610236220472
21
-3.0024061811023621
0
LINE
8
BLACK
6
CONTINUOUS
10
4.2465610236220472
20
-3.0024061811023621
11
4.239571535433071
21
-3.0093956692913384
0
LINE
8
BLACK
6
CONTINUOUS
10
4.239571535433071
20
-3.0093956692913384
11
4.231574724409449
21
-3.0152056692913387
0
LINE
8
BLACK
6
CONTINUOUS
10
4.231574724409449
20
-3.0152056692913387
11
4.2227674409448817
21
-3.0196931889763778
0
LINE
8
BLACK
6
CONTINUOUS
10
4.2227674409448817
20
-3.0196931889763778
11
4.2133666535433072
21
-3.0227477165354331
0
LINE
8
BLACK
6
CONTINUOUS
10
4.2133666535433072
20
-3.0227477165354331
11
4.2036037401574804
21
-3.0242940157480316
0
LINE
8
BLACK
6
CONTINUOUS
10
4.2036037401574804
20
-3.0242940157480316
11
4.1937190944881886
21
-3.0242940157480316
0
LINE
8
BLACK
6
CONTINUOUS
10
4.1937190944881886
20
-3.0242940157480316
11
4.1839561811023618
21
-3.0227477165354331
0
LINE
8
BLACK
6
CONTINUOUS
10
4.1839561811023618
20
-3.0227477165354331
11
4.1745553937007873
21
-3.0196931889763778
0
LINE
8
BLACK
6
CONTINUOUS
10
4.1745553937007873
20
-3.0196931889763778
11
4.1657481102362199
21
-3.0152056692913387
0
LINE
8
BLACK
6
CONTINUOUS
10
4.1657481102362199
20
-3.0152056692913387
11
4.157751299212598
21
-3.0093956692913384
0
LINE
8
BLACK
6
CONTINUOUS
10
4.157751299212598
20
-3.0093956692913384
11
4.1507618110236217
21
-3.0024061811023621
0
LINE
8
BLACK
6
CONTINUOUS
10
4.1507618110236217
20
-3.0024061811023621
11
4.1449518110236223
21
-2.9944093700787402
0
LINE
8
BLACK
6
CONTINUOUS
10
4.1449518110236223
20
-2.9944093700787402
11
4.1404642913385823
21
-2.9856020866141733
0
LINE
8
BLACK
6
CONTINUOUS
10
4.1404642913385823
20
-2.9856020866141733
11
4.1374097637795275
21
-2.9762012992125984
0
LINE
8
BLACK
6
CONTINUOUS
10
4.1374097637795275
20
-2.9762012992125984
11
4.1358634645669294
21
-2.9664383858267716
0
LINE
8
BLACK
6
CONTINUOUS
10
4.1358634645669294
20
-2.9664383858267716
11
4.1358634645669294
21
-2.9565537401574802
0
LINE
8
BLACK
6
CONTINUOUS
10
4.1358634645669294
20
-2.9565537401574802
11
4.1374097637795275
21
-2.9467908267716534
0
LINE
8
BLACK
6
CONTINUOUS
10
4.1374097637795275
20
-2.9467908267716534
11
4.1404642913385823
21
-2.9373900393700785
0
LINE
8
BLACK
6
CONTINUOUS
10
4.1404642913385823
20
-2.9373900393700785
11
4.1449518110236223
21
-2.9285827559055115
0
LINE
8
BLACK
6
CONTINUOUS
10
4.1449518110236223
20
-2.9285827559055115
11
4.1507618110236217
21
-2.9205859448818896
0
LINE
8
BLACK
6
CONTINUOUS
10
4.1507618110236217
20
-2.9205859448818896
11
4.157751299212598
21
-2.9135964566929133
0
LINE
8
BLACK
6
CONTINUOUS
10
4.157751299212598
20
-2.9135964566929133
11
4.1657481102362199
21
-2.9077864566929135
0
LINE
8
BLACK
6
CONTINUOUS
10
4.1657481102362199
20
-2.9077864566929135
11
4.1745553937007873
21
-2.9032989370078739
0
LINE
8
BLACK
6
CONTINUOUS
10
4.1745553937007873
20
-2.9032989370078739
11
4.1839561811023618
21
-2.9002444094488187
0
LINE
8
BLACK
6
CONTINUOUS
10
4.1839561811023618
20
-2.9002444094488187
11
4.1937190944881886
21
-2.8986981102362206
0
LINE
8
BLACK
6
CONTINUOUS
10
4.1937190944881886
20
-2.8986981102362206
11
4.2036037401574804
21
-2.8986981102362206
0
LINE
8
BLACK
6
CONTINUOUS
10
4.2036037401574804
20
-2.8986981102362206
11
4.2133666535433072
21
-2.9002444094488187
0
LINE
8
BLACK
6
CONTINUOUS
10
6.4031304330708663
20
-2.9002444094488187
11
6.4125312204724407
21
-2.9032989370078739
0
LINE
8
BLACK
6
CONTINUOUS
10
6.4125312204724407
20
-2.9032989370078739
11
6.4213385039370081
21
-2.9077864566929135
0
LINE
8
BLACK
6
CONTINUOUS
10
6.4213385039370081
20
-2.9077864566929135
11
6.42933531496063
21
-2.9135964566929133
0
LINE
8
BLACK
6
CONTINUOUS
10
6.42933531496063
20
-2.9135964566929133
11
6.4363248031496063
21
-2.9205859448818896
0
LINE
8
BLACK
6
CONTINUOUS
10
6.4363248031496063
20
-2.9205859448818896
11
6.4421348031496057
21
-2.9285827559055115
0
LINE
8
BLACK
6
CONTINUOUS
10
6.4421348031496057
20
-2.9285827559055115
11
6.4466223228346458
21
-2.9373900393700785
0
LINE
8
BLACK
6
CONTINUOUS
10
6.4466223228346458
20
-2.9373900393700785
11
6.4496768503937005
21
-2.9467908267716534
0
LINE
8
BLACK
6
CONTINUOUS
10
6.4496768503937005
20
-2.9467908267716534
11
6.4512231496062995
21
-2.9565537401574802
0
LINE
8
BLACK
6
CONTINUOUS
10
6.4512231496062995
20
-2.9565537401574802
11
6.4512231496062995
21
-2.9664383858267716
0
LINE
8
BLACK
6
CONTINUOUS
10
6.4512231496062995
20
-2.9664383858267716
11
6.4496768503937005
21
-2.9762012992125984
0
LINE
8
BLACK
6
CONTINUOUS
10
6.4496768503937005
20
-2.9762012992125984
11
6.4466223228346458
21
-2.9856020866141733
0
LINE
8
BLACK
6
CONTINUOUS
10
6.4466223228346458
20
-2.9856020866141733
11
6.4421348031496057
21
-2.9944093700787402
0
LINE
8
BLACK
6
CONTINUOUS
10
6.4421348031496057
20
-2.9944093700787402
11
6.4363248031496063
21
-3.0024061811023621
0
LINE
8
BLACK
6
CONTINUOUS
10
6.4363248031496063
20
-3.0024061811023621
11
6.42933531496063
21
-3.0093956692913384
0
LINE
8
BLACK
6
CONTINUOUS
10
6.42933531496063
20
-3.0093956692913384
11
6.4213385039370081
21
-3.0152056692913387
0
LINE
8
BLACK
6
CONTINUOUS
10
6.4213385039370081
20
-3.0152056692913387
11
6.4125312204724407
21
-3.0196931889763778
0
LINE
8
BLACK
6
CONTINUOUS
10
6.4125312204724407
20
-3.0196931889763778
11
6.4031304330708663
21
-3.0227477165354331
0
LINE
8
BLACK
6
CONTINUOUS
10
6.4031304330708663
20
-3.0227477165354331
11
6.3933675196850395
21
-3.0242940157480316
0
LINE
8
BLACK
6
CONTINUOUS
10
6.3933675196850395
20
-3.0242940157480316
11
6.3834828740157477
21
-3.0242940157480316
0
LINE
8
BLACK
6
CONTINUOUS
10
6.3834828740157477
20
-3.0242940157480316
11
6.3737199606299209
21
-3.0227477165354331
0
LINE
8
BLACK
6
CONTINUOUS
10
6.3737199606299209
20
-3.0227477165354331
11
6.3643191732283464
21
-3.0196931889763778
0
LINE
8
BLACK
6
CONTINUOUS
10
6.3643191732283464
20
-3.0196931889763778
11
6.355511889763779
21
-3.0152056692913387
0
LINE
8
BLACK
6
CONTINUOUS
10
6.355511889763779
20
-3.0152056692913387
11
6.3475150787401571
21
-3.0093956692913384
0
LINE
8
BLACK
6
CONTINUOUS
10
6.3475150787401571
20
-3.0093956692913384
11
6.3405255905511808
21
-3.0024061811023621
0
LINE
8
BLACK
6
CONTINUOUS
10
6.3405255905511808
20
-3.0024061811023621
11
6.3347155905511814
21
-2.9944093700787402
0
LINE
8
BLACK
6
CONTINUOUS
10
6.3347155905511814
20
-2.9944093700787402
11
6.3302280708661414
21
-2.9856020866141733
0
LINE
8
BLACK
6
CONTINUOUS
10
6.3302280708661414
20
-2.9856020866141733
11
6.3271735433070866
21
-2.9762012992125984
0
LINE
8
BLACK
6
CONTINUOUS
10
6.3271735433070866
20
-2.9762012992125984
11
6.3256272440944876
21
-2.9664383858267716
0
LINE
8
BLACK
6
CONTINUOUS
10
6.3256272440944876
20
-2.9664383858267716
11
6.3256272440944876
21
-2.9565537401574802
0
LINE
8
BLACK
6
CONTINUOUS
10
6.3256272440944876
20
-2.9565537401574802
11
6.3271735433070866
21
-2.9467908267716534
0
LINE
8
BLACK
6
CONTINUOUS
10
6.3271735433070866
20
-2.9467908267716534
11
6.3302280708661414
21
-2.9373900393700785
0
LINE
8
BLACK
6
CONTINUOUS
10
6.3302280708661414
20
-2.9373900393700785
11
6.3347155905511814
21
-2.9285827559055115
0
LINE
8
BLACK
6
CONTINUOUS
10
6.3347155905511814
20
-2.9285827559055115
11
6.3405255905511808
21
-2.9205859448818896
0
LINE
8
BLACK
6
CONTINUOUS
10
6.3405255905511808
20
-2.9205859448818896
11
6.3475150787401571
21
-2.9135964566929133
0
LINE
8
BLACK
6
CONTINUOUS
10
6.3475150787401571
20
-2.9135964566929133
11
6.355511889763779
21
-2.9077864566929135
0
LINE
8
BLACK
6
CONTINUOUS
10
6.355511889763779
20
-2.9077864566929135
11
6.3643191732283464
21
-2.9032989370078739
0
LINE
8
BLACK
6
CONTINUOUS
10
6.3643191732283464
20
-2.9032989370078739
11
6.3737199606299209
21
-2.9002444094488187
0
LINE
8
BLACK
6
CONTINUOUS
10
6.3737199606299209
20
-2.9002444094488187
11
6.3834828740157477
21
-2.8986981102362206
0
LINE
8
BLACK
6
CONTINUOUS
10
6.3834828740157477
20
-2.8986981102362206
11
6.3933675196850395
21
-2.8986981102362206
0
LINE
8
BLACK
6
CONTINUOUS
10
6.3933675196850395
20
-2.8986981102362206
11
6.4031304330708663
21
-2.9002444094488187
0
LINE
8
BLACK
6
CONTINUOUS
10
7.3129340944881891
20
-2.7595862598425196
11
7.318146023622047
21
-2.7609827952755905
0
LINE
8
BLACK
6
CONTINUOUS
10
7.318146023622047
20
-2.7609827952755905
11
7.322818897637795
21
-2.7636806692913387
0
LINE
8
BLACK
6
CONTINUOUS
10
7.322818897637795
20
-2.7636806692913387
11
7.3266342913385829
21
-2.7674960629921261
0
LINE
8
BLACK
6
CONTINUOUS
10
7.3266342913385829
20
-2.7674960629921261
11
7.3293321653543302
21
-2.7721689370078741
0
LINE
8
BLACK
6
CONTINUOUS
10
7.3293321653543302
20
-2.7721689370078741
11
7.3307287007874011
21
-2.7773808661417321
0
LINE
8
BLACK
6
CONTINUOUS
10
7.3307287007874011
20
-2.7773808661417321
11
7.3307287007874011
21
-2.7827766141732284
0
LINE
8
BLACK
6
CONTINUOUS
10
7.3307287007874011
20
-2.7827766141732284
11
7.3293321653543302
21
-2.7879885433070863
0
LINE
8
BLACK
6
CONTINUOUS
10
7.3293321653543302
20
-2.7879885433070863
11
7.3266342913385829
21
-2.7926614173228348
0
LINE
8
BLACK
6
CONTINUOUS
10
7.3266342913385829
20
-2.7926614173228348
11
7.322818897637795
21
-2.7964768110236218
0
LINE
8
BLACK
6
CONTINUOUS
10
7.322818897637795
20
-2.7964768110236218
11
7.318146023622047
21
-2.7991746850393699
0
LINE
8
BLACK
6
CONTINUOUS
10
7.318146023622047
20
-2.7991746850393699
11
7.3129340944881891
21
-2.8005712204724409
0
LINE
8
BLACK
6
CONTINUOUS
10
7.3129340944881891
20
-2.8005712204724409
11
7.3102362204724409
21
-2.8007480314960631
0
LINE
8
BLACK
6
CONTINUOUS
10
7.3102362204724409
20
-2.8007480314960631
11
7.2688976377952752
21
-2.8007480314960631
0
LINE
8
BLACK
6
CONTINUOUS
10
7.2688976377952752
20
-2.8007480314960631
11
7.266199763779527
21
-2.8005712204724409
0
LINE
8
BLACK
6
CONTINUOUS
10
7.266199763779527
20
-2.8005712204724409
11
7.2609878346456691
21
-2.7991746850393699
0
LINE
8
BLACK
6
CONTINUOUS
10
7.2609878346456691
20
-2.7991746850393699
11
7.2563149606299211
21
-2.7964768110236218
0
LINE
8
BLACK
6
CONTINUOUS
10
7.2563149606299211
20
-2.7964768110236218
11
7.2524995669291341
21
-2.7926614173228348
0
LINE
8
BLACK
6
CONTINUOUS
10
7.2524995669291341
20
-2.7926614173228348
11
7.2498016929133859
21
-2.7879885433070863
0
LINE
8
BLACK
6
CONTINUOUS
10
7.2498016929133859
20
-2.7879885433070863
11
7.248405157480315
21
-2.7827766141732284
0
LINE
8
BLACK
6
CONTINUOUS
10
7.248405157480315
20
-2.7827766141732284
11
7.248405157480315
21
-2.7773808661417321
0
LINE
8
BLACK
6
CONTINUOUS
10
7.248405157480315
20
-2.7773808661417321
11
7.2498016929133859
21
-2.7721689370078741
0
LINE
8
BLACK
6
CONTINUOUS
10
7.2498016929133859
20
-2.7721689370078741
11
7.2524995669291341
21
-2.7674960629921261
0
LINE
8
BLACK
6
CONTINUOUS
10
7.2524995669291341
20
-2.7674960629921261
11
7.2563149606299211
21
-2.7636806692913387
0
LINE
8
BLACK
6
CONTINUOUS
10
7.2563149606299211
20
-2.7636806692913387
11
7.2609878346456691
21
-2.7609827952755905
0
LINE
8
BLACK
6
CONTINUOUS
10
7.2609878346456691
20
-2.7609827952755905
11
7.266199763779527
21
-2.7595862598425196
0
LINE
8
BLACK
6
CONTINUOUS
10
7.266199763779527
20
-2.7595862598425196
11
7.2688976377952752
21
-2.7594094488188974
0
LINE
8
BLACK
6
CONTINUOUS
10
7.2688976377952752
20
-2.7594094488188974
11
7.3102362204724409
21
-2.7594094488188974
0
LINE
8
BLACK
6
CONTINUOUS
10
7.3102362204724409
20
-2.7594094488188974
11
7.3129340944881891
21
-2.7595862598425196
0
LINE
8
BLACK
6
CONTINUOUS
10
7.1472544488188978
20
-2.7605621259842521
11
7.1522181889763781
21
-2.7618921259842519
0
LINE
8
BLACK
6
CONTINUOUS
10
7.1522181889763781
20
-2.7618921259842519
11
7.1566685433070862
21
-2.7644615354330706
0
LINE
8
BLACK
6
CONTINUOUS
10
7.1566685433070862
20
-2.7644615354330706
11
7.1603022440944883
21
-2.7680952362204723
0
LINE
8
BLACK
6
CONTINUOUS
10
7.1603022440944883
20
-2.7680952362204723
11
7.1628716535433066
21
-2.7725455905511809
0
LINE
8
BLACK
6
CONTINUOUS
10
7.1628716535433066
20
-2.7725455905511809
11
7.1642016535433068
21
-2.7775093307086616
0
LINE
8
BLACK
6
CONTINUOUS
10
7.1642016535433068
20
-2.7775093307086616
11
7.1642016535433068
21
-2.7826481496062994
0
LINE
8
BLACK
6
CONTINUOUS
10
7.1642016535433068
20
-2.7826481496062994
11
7.1628716535433066
21
-2.7876118897637796
0
LINE
8
BLACK
6
CONTINUOUS
10
7.1628716535433066
20
-2.7876118897637796
11
7.1603022440944883
21
-2.7920622440944882
0
LINE
8
BLACK
6
CONTINUOUS
10
7.1603022440944883
20
-2.7920622440944882
11
7.1566685433070862
21
-2.7956959448818899
0
LINE
8
BLACK
6
CONTINUOUS
10
7.1566685433070862
20
-2.7956959448818899
11
7.1522181889763781
21
-2.7982653543307086
0
LINE
8
BLACK
6
CONTINUOUS
10
7.1522181889763781
20
-2.7982653543307086
11
7.1472544488188978
21
-2.7995953543307084
0
LINE
8
BLACK
6
CONTINUOUS
10
7.1472544488188978
20
-2.7995953543307084
11
7.1446850393700787
21
-2.7997637795275589
0
LINE
8
BLACK
6
CONTINUOUS
10
7.1446850393700787
20
-2.7997637795275589
11
7.1053149606299213
21
-2.7997637795275589
0
LINE
8
BLACK
6
CONTINUOUS
10
7.1053149606299213
20
-2.7997637795275589
11
7.1027455511811022
21
-2.7995953543307084
0
LINE
8
BLACK
6
CONTINUOUS
10
7.1027455511811022
20
-2.7995953543307084
11
7.0977818110236219
21
-2.7982653543307086
0
LINE
8
BLACK
6
CONTINUOUS
10
7.0977818110236219
20
-2.7982653543307086
11
7.0933314566929129
21
-2.7956959448818899
0
LINE
8
BLACK
6
CONTINUOUS
10
7.0933314566929129
20
-2.7956959448818899
11
7.0896977559055117
21
-2.7920622440944882
0
LINE
8
BLACK
6
CONTINUOUS
10
7.0896977559055117
20
-2.7920622440944882
11
7.0871283464566925
21
-2.7876118897637796
0
LINE
8
BLACK
6
CONTINUOUS
10
7.0871283464566925
20
-2.7876118897637796
11
7.0857983464566932
21
-2.7826481496062994
0
LINE
8
BLACK
6
CONTINUOUS
10
7.0857983464566932
20
-2.7826481496062994
11
7.0857983464566932
21
-2.7775093307086616
0
LINE
8
BLACK
6
CONTINUOUS
10
7.0857983464566932
20
-2.7775093307086616
11
7.0871283464566925
21
-2.7725455905511809
0
LINE
8
BLACK
6
CONTINUOUS
10
7.0871283464566925
20
-2.7725455905511809
11
7.0896977559055117
21
-2.7680952362204723
0
LINE
8
BLACK
6
CONTINUOUS
10
7.0896977559055117
20
-2.7680952362204723
11
7.0933314566929129
21
-2.7644615354330706
0
LINE
8
BLACK
6
CONTINUOUS
10
7.0933314566929129
20
-2.7644615354330706
11
7.0977818110236219
21
-2.7618921259842519
0
LINE
8
BLACK
6
CONTINUOUS
10
7.0977818110236219
20
-2.7618921259842519
11
7.1027455511811022
21
-2.7605621259842521
0
LINE
8
BLACK
6
CONTINUOUS
10
7.1027455511811022
20
-2.7605621259842521
11
7.1053149606299213
21
-2.7603937007874015
0
LINE
8
BLACK
6
CONTINUOUS
10
7.1053149606299213
20
-2.7603937007874015
11
7.1446850393700787
21
-2.7603937007874015
0
LINE
8
BLACK
6
CONTINUOUS
10
7.1446850393700787
20
-2.7603937007874015
11
7.1472544488188978
21
-2.7605621259842521
0
LINE
8
BLACK
6
CONTINUOUS
10
7.2747784251968506
20
-2.7119582283464565
11
7.2776711417322835
21
-2.713628346456693
0
LINE
8
BLACK
6
CONTINUOUS
10
7.2776711417322835
20
-2.713628346456693
11
7.2800330708661418
21
-2.715990275590551
0
LINE
8
BLACK
6
CONTINUOUS
10
7.2800330708661418
20
-2.715990275590551
11
7.2817031889763779
21
-2.7188829921259843
0
LINE
8
BLACK
6
CONTINUOUS
10
7.2817031889763779
20
-2.7188829921259843
11
7.282567716535433
21
-2.722109409448819
0
LINE
8
BLACK
6
CONTINUOUS
10
7.282567716535433
20
-2.722109409448819
11
7.282567716535433
21
-2.7254496456692912
0
LINE
8
BLACK
6
CONTINUOUS
10
7.282567716535433
20
-2.7254496456692912
11
7.2817031889763779
21
-2.7286760629921258
0
LINE
8
BLACK
6
CONTINUOUS
10
7.2817031889763779
20
-2.7286760629921258
11
7.2800330708661418
21
-2.7315687795275592
0
LINE
8
BLACK
6
CONTINUOUS
10
7.2800330708661418
20
-2.7315687795275592
11
7.2776711417322835
21
-2.7339307086614171
0
LINE
8
BLACK
6
CONTINUOUS
10
7.2776711417322835
20
-2.7339307086614171
11
7.2747784251968506
21
-2.7356008267716536
0
LINE
8
BLACK
6
CONTINUOUS
10
7.2747784251968506
20
-2.7356008267716536
11
7.2715520078740159
21
-2.7364653543307087
0
LINE
8
BLACK
6
CONTINUOUS
10
7.2715520078740159
20
-2.7364653543307087
11
7.2682117716535428
21
-2.7364653543307087
0
LINE
8
BLACK
6
CONTINUOUS
10
7.2682117716535428
20
-2.7364653543307087
11
7.2649853543307081
21
-2.7356008267716536
0
LINE
8
BLACK
6
CONTINUOUS
10
7.2649853543307081
20
-2.7356008267716536
11
7.2620926377952753
21
-2.7339307086614171
0
LINE
8
BLACK
6
CONTINUOUS
10
7.2620926377952753
20
-2.7339307086614171
11
7.2597307086614169
21
-2.7315687795275592
0
LINE
8
BLACK
6
CONTINUOUS
10
7.2597307086614169
20
-2.7315687795275592
11
7.2580605905511808
21
-2.7286760629921258
0
LINE
8
BLACK
6
CONTINUOUS
10
7.2580605905511808
20
-2.7286760629921258
11
7.2571960629921257
21
-2.7254496456692912
0
LINE
8
BLACK
6
CONTINUOUS
10
7.2571960629921257
20
-2.7254496456692912
11
7.2571960629921257
21
-2.722109409448819
0
LINE
8
BLACK
6
CONTINUOUS
10
7.2571960629921257
20
-2.722109409448819
11
7.2580605905511808
21
-2.7188829921259843
0
LINE
8
BLACK
6
CONTINUOUS
10
7.2580605905511808
20
-2.7188829921259843
11
7.2597307086614169
21
-2.715990275590551
0
LINE
8
BLACK
6
CONTINUOUS
10
7.2597307086614169
20
-2.715990275590551
11
7.2620926377952753
21
-2.713628346456693
0
LINE
8
BLACK
6
CONTINUOUS
10
7.2620926377952753
20
-2.713628346456693
11
7.2649853543307081
21
-2.7119582283464565
0
LINE
8
BLACK
6
CONTINUOUS
10
7.2649853543307081
20
-2.7119582283464565
11
7.2682117716535428
21
-2.7110937007874014
0
LINE
8
BLACK
6
CONTINUOUS
10
7.2682117716535428
20
-2.7110937007874014
11
7.2715520078740159
21
-2.7110937007874014
0
LINE
8
BLACK
6
CONTINUOUS
10
7.2715520078740159
20
-2.7110937007874014
11
7.2747784251968506
21
-2.7119582283464565
0
LINE
8
BLACK
6
CONTINUOUS
10
7.2747784251968506
20
-2.4843991732283466
11
7.2776711417322835
21
-2.4860692913385827
0
LINE
8
BLACK
6
CONTINUOUS
10
7.2776711417322835
20
-2.4860692913385827
11
7.2800330708661418
21
-2.488431220472441
0
LINE
8
BLACK
6
CONTINUOUS
10
7.2800330708661418
20
-2.488431220472441
11
7.2817031889763779
21
-2.4913239370078739
0
LINE
8
BLACK
6
CONTINUOUS
10
7.2817031889763779
20
-2.4913239370078739
11
7.282567716535433
21
-2.4945503543307086
0
LINE
8
BLACK
6
CONTINUOUS
10
7.282567716535433
20
-2.4945503543307086
11
7.282567716535433
21
-2.4978905905511812
0
LINE
8
BLACK
6
CONTINUOUS
10
7.282567716535433
20
-2.4978905905511812
11
7.2817031889763779
21
-2.5011170078740155
0
LINE
8
BLACK
6
CONTINUOUS
10
7.2817031889763779
20
-2.5011170078740155
11
7.2800330708661418
21
-2.5040097244094488
0
LINE
8
BLACK
6
CONTINUOUS
10
7.2800330708661418
20
-2.5040097244094488
11
7.2776711417322835
21
-2.5063716535433072
0
LINE
8
BLACK
6
CONTINUOUS
10
7.2776711417322835
20
-2.5063716535433072
11
7.2747784251968506
21
-2.5080417716535433
0
LINE
8
BLACK
6
CONTINUOUS
10
7.2747784251968506
20
-2.5080417716535433
11
7.2715520078740159
21
-2.5089062992125983
0
LINE
8
BLACK
6
CONTINUOUS
10
7.2715520078740159
20
-2.5089062992125983
11
7.2682117716535428
21
-2.5089062992125983
0
LINE
8
BLACK
6
CONTINUOUS
10
7.2682117716535428
20
-2.5089062992125983
11
7.2649853543307081
21
-2.5080417716535433
0
LINE
8
BLACK
6
CONTINUOUS
10
7.2649853543307081
20
-2.5080417716535433
11
7.2620926377952753
21
-2.5063716535433072
0
LINE
8
BLACK
6
CONTINUOUS
10
7.2620926377952753
20
-2.5063716535433072
11
7.2597307086614169
21
-2.5040097244094488
0
LINE
8
BLACK
6
CONTINUOUS
10
7.2597307086614169
20
-2.5040097244094488
11
7.2580605905511808
21
-2.5011170078740155
0
LINE
8
BLACK
6
CONTINUOUS
10
7.2580605905511808
20
-2.5011170078740155
11
7.2571960629921257
21
-2.4978905905511812
0
LINE
8
BLACK
6
CONTINUOUS
10
7.2571960629921257
20
-2.4978905905511812
11
7.2571960629921257
21
-2.4945503543307086
0
LINE
8
BLACK
6
CONTINUOUS
10
7.2571960629921257
20
-2.4945503543307086
11
7.2580605905511808
21
-2.4913239370078739
0
LINE
8
BLACK
6
CONTINUOUS
10
7.2580605905511808
20
-2.4913239370078739
11
7.2597307086614169
21
-2.488431220472441
0
LINE
8
BLACK
6
CONTINUOUS
10
7.2597307086614169
20
-2.488431220472441
11
7.2620926377952753
21
-2.4860692913385827
0
LINE
8
BLACK
6
CONTINUOUS
10
7.2620926377952753
20
-2.4860692913385827
11
7.2649853543307081
21
-2.4843991732283466
0
LINE
8
BLACK
6
CONTINUOUS
10
7.2649853543307081
20
-2.4843991732283466
11
7.2682117716535428
21
-2.4835346456692915
0
LINE
8
BLACK
6
CONTINUOUS
10
7.2682117716535428
20
-2.4835346456692915
11
7.2715520078740159
21
-2.4835346456692915
0
LINE
8
BLACK
6
CONTINUOUS
10
7.2715520078740159
20
-2.4835346456692915
11
7.2747784251968506
21
-2.4843991732283466
0
LINE
8
BLACK
6
CONTINUOUS
10
7.3129340944881891
20
-2.4194287795275589
11
7.318146023622047
21
-2.4208253149606298
0
LINE
8
BLACK
6
CONTINUOUS
10
7.318146023622047
20
-2.4208253149606298
11
7.322818897637795
21
-2.423523188976378
0
LINE
8
BLACK
6
CONTINUOUS
10
7.322818897637795
20
-2.423523188976378
11
7.3266342913385829
21
-2.4273385826771654
0
LINE
8
BLACK
6
CONTINUOUS
10
7.3266342913385829
20
-2.4273385826771654
11
7.3293321653543302
21
-2.4320114566929134
0
LINE
8
BLACK
6
CONTINUOUS
10
7.3293321653543302
20
-2.4320114566929134
11
7.3307287007874011
21
-2.4372233858267718
0
LINE
8
BLACK
6
CONTINUOUS
10
7.3307287007874011
20
-2.4372233858267718
11
7.3307287007874011
21
-2.4426191338582677
0
LINE
8
BLACK
6
CONTINUOUS
10
7.3307287007874011
20
-2.4426191338582677
11
7.3293321653543302
21
-2.447831062992126
0
LINE
8
BLACK
6
CONTINUOUS
10
7.3293321653543302
20
-2.447831062992126
11
7.3266342913385829
21
-2.4525039370078741
0
LINE
8
BLACK
6
CONTINUOUS
10
7.3266342913385829
20
-2.4525039370078741
11
7.322818897637795
21
-2.4563193307086615
0
LINE
8
BLACK
6
CONTINUOUS
10
7.322818897637795
20
-2.4563193307086615
11
7.318146023622047
21
-2.4590172047244092
0
LINE
8
BLACK
6
CONTINUOUS
10
7.318146023622047
20
-2.4590172047244092
11
7.3129340944881891
21
-2.4604137401574802
0
LINE
8
BLACK
6
CONTINUOUS
10
7.3129340944881891
20
-2.4604137401574802
11
7.3102362204724409
21
-2.4605905511811024
0
LINE
8
BLACK
6
CONTINUOUS
10
7.3102362204724409
20
-2.4605905511811024
11
7.2688976377952752
21
-2.4605905511811024
0
LINE
8
BLACK
6
CONTINUOUS
10
7.2688976377952752
20
-2.4605905511811024
11
7.266199763779527
21
-2.4604137401574802
0
LINE
8
BLACK
6
CONTINUOUS
10
7.266199763779527
20
-2.4604137401574802
11
7.2609878346456691
21
-2.4590172047244092
0
LINE
8
BLACK
6
CONTINUOUS
10
7.2609878346456691
20
-2.4590172047244092
11
7.2563149606299211
21
-2.4563193307086615
0
LINE
8
BLACK
6
CONTINUOUS
10
7.2563149606299211
20
-2.4563193307086615
11
7.2524995669291341
21
-2.4525039370078741
0
LINE
8
BLACK
6
CONTINUOUS
10
7.2524995669291341
20
-2.4525039370078741
11
7.2498016929133859
21
-2.447831062992126
0
LINE
8
BLACK
6
CONTINUOUS
10
7.2498016929133859
20
-2.447831062992126
11
7.248405157480315
21
-2.4426191338582677
0
LINE
8
BLACK
6
CONTINUOUS
10
7.248405157480315
20
-2.4426191338582677
11
7.248405157480315
21
-2.4372233858267718
0
LINE
8
BLACK
6
CONTINUOUS
10
7.248405157480315
20
-2.4372233858267718
11
7.2498016929133859
21
-2.4320114566929134
0
LINE
8
BLACK
6
CONTINUOUS
10
7.2498016929133859
20
-2.4320114566929134
11
7.2524995669291341
21
-2.4273385826771654
0
LINE
8
BLACK
6
CONTINUOUS
10
7.2524995669291341
20
-2.4273385826771654
11
7.2563149606299211
21
-2.423523188976378
0
LINE
8
BLACK
6
CONTINUOUS
10
7.2563149606299211
20
-2.423523188976378
11
7.2609878346456691
21
-2.4208253149606298
0
LINE
8
BLACK
6
CONTINUOUS
10
7.2609878346456691
20
-2.4208253149606298
11
7.266199763779527
21
-2.4194287795275589
0
LINE
8
BLACK
6
CONTINUOUS
10
7.266199763779527
20
-2.4194287795275589
11
7.2688976377952752
21
-2.4192519685039371
0
LINE
8
BLACK
6
CONTINUOUS
10
7.2688976377952752
20
-2.4192519685039371
11
7.3102362204724409
21
-2.4192519685039371
0
LINE
8
BLACK
6
CONTINUOUS
10
7.3102362204724409
20
-2.4192519685039371
11
7.3129340944881891
21
-2.4194287795275589
0
LINE
8
BLACK
6
CONTINUOUS
10
7.1472544488188978
20
-2.4204046456692914
11
7.1522181889763781
21
-2.4217346456692912
0
LINE
8
BLACK
6
CONTINUOUS
10
7.1522181889763781
20
-2.4217346456692912
11
7.1566685433070862
21
-2.4243040551181103
0
LINE
8
BLACK
6
CONTINUOUS
10
7.1566685433070862
20
-2.4243040551181103
11
7.1603022440944883
21
-2.427937755905512
0
LINE
8
BLACK
6
CONTINUOUS
10
7.1603022440944883
20
-2.427937755905512
11
7.1628716535433066
21
-2.4323881102362206
0
LINE
8
BLACK
6
CONTINUOUS
10
7.1628716535433066
20
-2.4323881102362206
11
7.1642016535433068
21
-2.4373518503937008
0
LINE
8
BLACK
6
CONTINUOUS
10
7.1642016535433068
20
-2.4373518503937008
11
7.1642016535433068
21
-2.4424906692913386
0
LINE
8
BLACK
6
CONTINUOUS
10
7.1642016535433068
20
-2.4424906692913386
11
7.1628716535433066
21
-2.4474544094488189
0
LINE
8
BLACK
6
CONTINUOUS
10
7.1628716535433066
20
-2.4474544094488189
11
7.1603022440944883
21
-2.4519047637795275
0
LINE
8
BLACK
6
CONTINUOUS
10
7.1603022440944883
20
-2.4519047637795275
11
7.1566685433070862
21
-2.4555384645669291
0
LINE
8
BLACK
6
CONTINUOUS
10
7.1566685433070862
20
-2.4555384645669291
11
7.1522181889763781
21
-2.4581078740157478
0
LINE
8
BLACK
6
CONTINUOUS
10
7.1522181889763781
20
-2.4581078740157478
11
7.1472544488188978
21
-2.4594378740157481
0
LINE
8
BLACK
6
CONTINUOUS
10
7.1472544488188978
20
-2.4594378740157481
11
7.1446850393700787
21
-2.4596062992125982
0
LINE
8
BLACK
6
CONTINUOUS
10
7.1446850393700787
20
-2.4596062992125982
11
7.1053149606299213
21
-2.4596062992125982
0
LINE
8
BLACK
6
CONTINUOUS
10
7.1053149606299213
20
-2.4596062992125982
11
7.1027455511811022
21
-2.4594378740157481
0
LINE
8
BLACK
6
CONTINUOUS
10
7.1027455511811022
20
-2.4594378740157481
11
7.0977818110236219
21
-2.4581078740157478
0
LINE
8
BLACK
6
CONTINUOUS
10
7.0977818110236219
20
-2.4581078740157478
11
7.0933314566929129
21
-2.4555384645669291
0
LINE
8
BLACK
6
CONTINUOUS
10
7.0933314566929129
20
-2.4555384645669291
11
7.0896977559055117
21
-2.4519047637795275
0
LINE
8
BLACK
6
CONTINUOUS
10
7.0896977559055117
20
-2.4519047637795275
11
7.0871283464566925
21
-2.4474544094488189
0
LINE
8
BLACK
6
CONTINUOUS
10
7.0871283464566925
20
-2.4474544094488189
11
7.0857983464566932
21
-2.4424906692913386
0
LINE
8
BLACK
6
CONTINUOUS
10
7.0857983464566932
20
-2.4424906692913386
11
7.0857983464566932
21
-2.4373518503937008
0
LINE
8
BLACK
6
CONTINUOUS
10
7.0857983464566932
20
-2.4373518503937008
11
7.0871283464566925
21
-2.4323881102362206
0
LINE
8
BLACK
6
CONTINUOUS
10
7.0871283464566925
20
-2.4323881102362206
11
7.0896977559055117
21
-2.427937755905512
0
LINE
8
BLACK
6
CONTINUOUS
10
7.0896977559055117
20
-2.427937755905512
11
7.0933314566929129
21
-2.4243040551181103
0
LINE
8
BLACK
6
CONTINUOUS
10
7.0933314566929129
20
-2.4243040551181103
11
7.0977818110236219
21
-2.4217346456692912
0
LINE
8
BLACK
6
CONTINUOUS
10
7.0977818110236219
20
-2.4217346456692912
11
7.1027455511811022
21
-2.4204046456692914
0
LINE
8
BLACK
6
CONTINUOUS
10
7.1027455511811022
20
-2.4204046456692914
11
7.1053149606299213
21
-2.4202362204724408
0
LINE
8
BLACK
6
CONTINUOUS
10
7.1053149606299213
20
-2.4202362204724408
11
7.1446850393700787
21
-2.4202362204724408
0
LINE
8
BLACK
6
CONTINUOUS
10
7.1446850393700787
20
-2.4202362204724408
11
7.1472544488188978
21
-2.4204046456692914
0
LINE
8
BLACK
6
CONTINUOUS
10
3.9431496062992126
20
-2.2803937007874016
11
3.7856692913385825
21
-2.2803937007874016
0
LINE
8
BLACK
6
CONTINUOUS
10
3.7856692913385825
20
-2.2803937007874016
11
3.7856692913385825
21
-2.1229133858267715
0
LINE
8
BLACK
6
CONTINUOUS
10
3.7856692913385825
20
-2.1229133858267715
11
3.9431496062992126
21
-2.1229133858267715
0
LINE
8
BLACK
6
CONTINUOUS
10
3.9431496062992126
20
-2.1229133858267715
11
3.9431496062992126
21
-2.2803937007874016
0
LINE
8
BLACK
6
CONTINUOUS
10
6.801417322834646
20
-2.2803937007874016
11
6.6439370078740154
21
-2.2803937007874016
0
LINE
8
BLACK
6
CONTINUOUS
10
6.6439370078740154
20
-2.2803937007874016
11
6.6439370078740154
21
-2.1229133858267715
0
LINE
8
BLACK
6
CONTINUOUS
10
6.6439370078740154
20
-2.1229133858267715
11
6.801417322834646
21
-2.1229133858267715
0
LINE
8
BLACK
6
CONTINUOUS
10
6.801417322834646
20
-2.1229133858267715
11
6.801417322834646
21
-2.2803937007874016
0
LINE
8
BLACK
6
CONTINUOUS
10
4.2133666535433072
20
-2.1404018897637793
11
4.2227674409448817
21
-2.1434564173228345
0
LINE
8
BLACK
6
CONTINUOUS
10
4.2227674409448817
20
-2.1434564173228345
11
4.231574724409449
21
-2.1479439370078741
0
LINE
8
BLACK
6
CONTINUOUS
10
4.231574724409449
20
-2.1479439370078741
11
4.239571535433071
21
-2.153753937007874
0
LINE
8
BLACK
6
CONTINUOUS
10
4.239571535433071
20
-2.153753937007874
11
4.2465610236220472
21
-2.1607434251968503
0
LINE
8
BLACK
6
CONTINUOUS
10
4.2465610236220472
20
-2.1607434251968503
11
4.2523710236220476
21
-2.1687402362204722
0
LINE
8
BLACK
6
CONTINUOUS
10
4.2523710236220476
20
-2.1687402362204722
11
4.2568585433070867
21
-2.1775475196850391
0
LINE
8
BLACK
6
CONTINUOUS
10
4.2568585433070867
20
-2.1775475196850391
11
4.2599130708661415
21
-2.186948307086614
0
LINE
8
BLACK
6
CONTINUOUS
10
4.2599130708661415
20
-2.186948307086614
11
4.2614593700787404
21
-2.1967112204724408
0
LINE
8
BLACK
6
CONTINUOUS
10
4.2614593700787404
20
-2.1967112204724408
11
4.2614593700787404
21
-2.2065958661417322
0
LINE
8
BLACK
6
CONTINUOUS
10
4.2614593700787404
20
-2.2065958661417322
11
4.2599130708661415
21
-2.216358779527559
0
LINE
8
BLACK
6
CONTINUOUS
10
4.2599130708661415
20
-2.216358779527559
11
4.2568585433070867
21
-2.2257595669291339
0
LINE
8
BLACK
6
CONTINUOUS
10
4.2568585433070867
20
-2.2257595669291339
11
4.2523710236220476
21
-2.2345668503937008
0
LINE
8
BLACK
6
CONTINUOUS
10
4.2523710236220476
20
-2.2345668503937008
11
4.2465610236220472
21
-2.2425636614173228
0
LINE
8
BLACK
6
CONTINUOUS
10
4.2465610236220472
20
-2.2425636614173228
11
4.239571535433071
21
-2.249553149606299
0
LINE
8
BLACK
6
CONTINUOUS
10
4.239571535433071
20
-2.249553149606299
11
4.231574724409449
21
-2.2553631496062994
0
LINE
8
BLACK
6
CONTINUOUS
10
4.231574724409449
20
-2.2553631496062994
11
4.2227674409448817
21
-2.2598506692913385
0
LINE
8
BLACK
6
CONTINUOUS
10
4.2227674409448817
20
-2.2598506692913385
11
4.2133666535433072
21
-2.2629051968503937
0
LINE
8
BLACK
6
CONTINUOUS
10
4.2133666535433072
20
-2.2629051968503937
11
4.2036037401574804
21
-2.2644514960629922
0
LINE
8
BLACK
6
CONTINUOUS
10
4.2036037401574804
20
-2.2644514960629922
11
4.1937190944881886
21
-2.2644514960629922
0
LINE
8
BLACK
6
CONTINUOUS
10
4.1937190944881886
20
-2.2644514960629922
11
4.1839561811023618
21
-2.2629051968503937
0
LINE
8
BLACK
6
CONTINUOUS
10
4.1839561811023618
20
-2.2629051968503937
11
4.1745553937007873
21
-2.2598506692913385
0
LINE
8
BLACK
6
CONTINUOUS
10
4.1745553937007873
20
-2.2598506692913385
11
4.1657481102362199
21
-2.2553631496062994
0
LINE
8
BLACK
6
CONTINUOUS
10
4.1657481102362199
20
-2.2553631496062994
11
4.157751299212598
21
-2.249553149606299
0
LINE
8
BLACK
6
CONTINUOUS
10
4.157751299212598
20
-2.249553149606299
11
4.1507618110236217
21
-2.2425636614173228
0
LINE
8
BLACK
6
CONTINUOUS
10
4.1507618110236217
20
-2.2425636614173228
11
4.1449518110236223
21
-2.2345668503937008
0
LINE
8
BLACK
6
CONTINUOUS
10
4.1449518110236223
20
-2.2345668503937008
11
4.1404642913385823
21
-2.2257595669291339
0
LINE
8
BLACK
6
CONTINUOUS
10
4.1404642913385823
20
-2.2257595669291339
11
4.1374097637795275
21
-2.216358779527559
0
LINE
8
BLACK
6
CONTINUOUS
10
4.1374097637795275
20
-2.216358779527559
11
4.1358634645669294
21
-2.2065958661417322
0
LINE
8
BLACK
6
CONTINUOUS
10
4.1358634645669294
20
-2.2065958661417322
11
4.1358634645669294
21
-2.1967112204724408
0
LINE
8
BLACK
6
CONTINUOUS
10
4.1358634645669294
20
-2.1967112204724408
11
4.1374097637795275
21
-2.186948307086614
0
LINE
8
BLACK
6
CONTINUOUS
10
4.1374097637795275
20
-2.186948307086614
11
4.1404642913385823
21
-2.1775475196850391
0
LINE
8
BLACK
6
CONTINUOUS
10
4.1404642913385823
20
-2.1775475196850391
11
4.1449518110236223
21
-2.1687402362204722
0
LINE
8
BLACK
6
CONTINUOUS
10
4.1449518110236223
20
-2.1687402362204722
11
4.1507618110236217
21
-2.1607434251968503
0
LINE
8
BLACK
6
CONTINUOUS
10
4.1507618110236217
20
-2.1607434251968503
11
4.157751299212598
21
-2.153753937007874
0
LINE
8
BLACK
6
CONTINUOUS
10
4.157751299212598
20
-2.153753937007874
11
4.1657481102362199
21
-2.1479439370078741
0
LINE
8
BLACK
6
CONTINUOUS
10
4.1657481102362199
20
-2.1479439370078741
11
4.1745553937007873
21
-2.1434564173228345
0
LINE
8
BLACK
6
CONTINUOUS
10
4.1745553937007873
20
-2.1434564173228345
11
4.1839561811023618
21
-2.1404018897637793
0
LINE
8
BLACK
6
CONTINUOUS
10
4.1839561811023618
20
-2.1404018897637793
11
4.1937190944881886
21
-2.1388555905511812
0
LINE
8
BLACK
6
CONTINUOUS
10
4.1937190944881886
20
-2.1388555905511812
11
4.2036037401574804
21
-2.1388555905511812
0
LINE
8
BLACK
6
CONTINUOUS
10
4.2036037401574804
20
-2.1388555905511812
11
4.2133666535433072
21
-2.1404018897637793
0
LINE
8
BLACK
6
CONTINUOUS
10
6.4031304330708663
20
-2.1404018897637793
11
6.4125312204724407
21
-2.1434564173228345
0
LINE
8
BLACK
6
CONTINUOUS
10
6.4125312204724407
20
-2.1434564173228345
11
6.4213385039370081
21
-2.1479439370078741
0
LINE
8
BLACK
6
CONTINUOUS
10
6.4213385039370081
20
-2.1479439370078741
11
6.42933531496063
21
-2.153753937007874
0
LINE
8
BLACK
6
CONTINUOUS
10
6.42933531496063
20
-2.153753937007874
11
6.4363248031496063
21
-2.1607434251968503
0
LINE
8
BLACK
6
CONTINUOUS
10
6.4363248031496063
20
-2.1607434251968503
11
6.4421348031496057
21
-2.1687402362204722
0
LINE
8
BLACK
6
CONTINUOUS
10
6.4421348031496057
20
-2.1687402362204722
11
6.4466223228346458
21
-2.1775475196850391
0
LINE
8
BLACK
6
CONTINUOUS
10
6.4466223228346458
20
-2.1775475196850391
11
6.4496768503937005
21
-2.186948307086614
0
LINE
8
BLACK
6
CONTINUOUS
10
6.4496768503937005
20
-2.186948307086614
11
6.4512231496062995
21
-2.1967112204724408
0
LINE
8
BLACK
6
CONTINUOUS
10
6.4512231496062995
20
-2.1967112204724408
11
6.4512231496062995
21
-2.2065958661417322
0
LINE
8
BLACK
6
CONTINUOUS
10
6.4512231496062995
20
-2.2065958661417322
11
6.4496768503937005
21
-2.216358779527559
0
LINE
8
BLACK
6
CONTINUOUS
10
6.4496768503937005
20
-2.216358779527559
11
6.4466223228346458
21
-2.2257595669291339
0
LINE
8
BLACK
6
CONTINUOUS
10
6.4466223228346458
20
-2.2257595669291339
11
6.4421348031496057
21
-2.2345668503937008
0
LINE
8
BLACK
6
CONTINUOUS
10
6.4421348031496057
20
-2.2345668503937008
11
6.4363248031496063
21
-2.2425636614173228
0
LINE
8
BLACK
6
CONTINUOUS
10
6.4363248031496063
20
-2.2425636614173228
11
6.42933531496063
21
-2.249553149606299
0
LINE
8
BLACK
6
CONTINUOUS
10
6.42933531496063
20
-2.249553149606299
11
6.4213385039370081
21
-2.2553631496062994
0
LINE
8
BLACK
6
CONTINUOUS
10
6.4213385039370081
20
-2.2553631496062994
11
6.4125312204724407
21
-2.2598506692913385
0
LINE
8
BLACK
6
CONTINUOUS
10
6.4125312204724407
20
-2.2598506692913385
11
6.4031304330708663
21
-2.2629051968503937
0
LINE
8
BLACK
6
CONTINUOUS
10
6.4031304330708663
20
-2.2629051968503937
11
6.3933675196850395
21
-2.2644514960629922
0
LINE
8
BLACK
6
CONTINUOUS
10
6.3933675196850395
20
-2.2644514960629922
11
6.3834828740157477
21
-2.2644514960629922
0
LINE
8
BLACK
6
CONTINUOUS
10
6.3834828740157477
20
-2.2644514960629922
11
6.3737199606299209
21
-2.2629051968503937
0
LINE
8
BLACK
6
CONTINUOUS
10
6.3737199606299209
20
-2.2629051968503937
11
6.3643191732283464
21
-2.2598506692913385
0
LINE
8
BLACK
6
CONTINUOUS
10
6.3643191732283464
20
-2.2598506692913385
11
6.355511889763779
21
-2.2553631496062994
0
LINE
8
BLACK
6
CONTINUOUS
10
6.355511889763779
20
-2.2553631496062994
11
6.3475150787401571
21
-2.249553149606299
0
LINE
8
BLACK
6
CONTINUOUS
10
6.3475150787401571
20
-2.249553149606299
11
6.3405255905511808
21
-2.2425636614173228
0
LINE
8
BLACK
6
CONTINUOUS
10
6.3405255905511808
20
-2.2425636614173228
11
6.3347155905511814
21
-2.2345668503937008
0
LINE
8
BLACK
6
CONTINUOUS
10
6.3347155905511814
20
-2.2345668503937008
11
6.3302280708661414
21
-2.2257595669291339
0
LINE
8
BLACK
6
CONTINUOUS
10
6.3302280708661414
20
-2.2257595669291339
11
6.3271735433070866
21
-2.216358779527559
0
LINE
8
BLACK
6
CONTINUOUS
10
6.3271735433070866
20
-2.216358779527559
11
6.3256272440944876
21
-2.2065958661417322
0
LINE
8
BLACK
6
CONTINUOUS
10
6.3256272440944876
20
-2.2065958661417322
11
6.3256272440944876
21
-2.1967112204724408
0
LINE
8
BLACK
6
CONTINUOUS
10
6.3256272440944876
20
-2.1967112204724408
11
6.3271735433070866
21
-2.186948307086614
0
LINE
8
BLACK
6
CONTINUOUS
10
6.3271735433070866
20
-2.186948307086614
11
6.3302280708661414
21
-2.1775475196850391
0
LINE
8
BLACK
6
CONTINUOUS
10
6.3302280708661414
20
-2.1775475196850391
11
6.3347155905511814
21
-2.1687402362204722
0
LINE
8
BLACK
6
CONTINUOUS
10
6.3347155905511814
20
-2.1687402362204722
11
6.3405255905511808
21
-2.1607434251968503
0
LINE
8
BLACK
6
CONTINUOUS
10
6.3405255905511808
20
-2.1607434251968503
11
6.3475150787401571
21
-2.153753937007874
0
LINE
8
BLACK
6
CONTINUOUS
10
6.3475150787401571
20
-2.153753937007874
11
6.355511889763779
21
-2.1479439370078741
0
LINE
8
BLACK
6
CONTINUOUS
10
6.355511889763779
20
-2.1479439370078741
11
6.3643191732283464
21
-2.1434564173228345
0
LINE
8
BLACK
6
CONTINUOUS
10
6.3643191732283464
20
-2.1434564173228345
11
6.3737199606299209
21
-2.1404018897637793
0
LINE
8
BLACK
6
CONTINUOUS
10
6.3737199606299209
20
-2.1404018897637793
11
6.3834828740157477
21
-2.1388555905511812
0
LINE
8
BLACK
6
CONTINUOUS
10
6.3834828740157477
20
-2.1388555905511812
11
6.3933675196850395
21
-2.1388555905511812
0
LINE
8
BLACK
6
CONTINUOUS
10
6.3933675196850395
20
-2.1388555905511812
11
6.4031304330708663
21
-2.1404018897637793
0
LINE
8
BLACK
6
CONTINUOUS
10
3.4997842125984251
20
-1.4935585433070866
11
3.5126971259842521
21
-1.4965058267716536
0
LINE
8
BLACK
6
CONTINUOUS
10
3.5126971259842521
20
-1.4965058267716536
11
3.5251988188976378
21
-1.5008803543307085
0
LINE
8
BLACK
6
CONTINUOUS
10
3.5251988188976378
20
-1.5008803543307085
11
3.5371321653543308
21
-1.5066271653543306
0
LINE
8
BLACK
6
CONTINUOUS
10
3.5371321653543308
20
-1.5066271653543306
11
3.5483470078740158
21
-1.5136738976377953
0
LINE
8
BLACK
6
CONTINUOUS
10
3.5483470078740158
20
-1.5136738976377953
11
3.5587023622047242
21
-1.5219320472440945
0
LINE
8
BLACK
6
CONTINUOUS
10
3.5587023622047242
20
-1.5219320472440945
11
3.5680679527559054
21
-1.5312976377952756
0
LINE
8
BLACK
6
CONTINUOUS
10
3.5680679527559054
20
-1.5312976377952756
11
3.5763261023622048
21
-1.5416529921259843
0
LINE
8
BLACK
6
CONTINUOUS
10
3.5763261023622048
20
-1.5416529921259843
11
3.5833728346456692
21
-1.5528678346456692
0
LINE
8
BLACK
6
CONTINUOUS
10
3.5833728346456692
20
-1.5528678346456692
11
3.5891196456692911
21
-1.5648011811023621
0
LINE
8
BLACK
6
CONTINUOUS
10
3.5891196456692911
20
-1.5648011811023621
11
3.5934941732283465
21
-1.577302874015748
0
LINE
8
BLACK
6
CONTINUOUS
10
3.5934941732283465
20
-1.577302874015748
11
3.5964414566929133
21
-1.5902157874015748
0
LINE
8
BLACK
6
CONTINUOUS
10
3.5964414566929133
20
-1.5902157874015748
11
3.5979244094488187
21
-1.6033775196850393
0
LINE
8
BLACK
6
CONTINUOUS
10
3.5979244094488187
20
-1.6033775196850393
11
3.5979244094488187
21
-1.6166224803149607
0
LINE
8
BLACK
6
CONTINUOUS
10
3.5979244094488187
20
-1.6166224803149607
11
3.5964414566929133
21
-1.6297842125984252
0
LINE
8
BLACK
6
CONTINUOUS
10
3.5964414566929133
20
-1.6297842125984252
11
3.5934941732283465
21
-1.642697125984252
0
LINE
8
BLACK
6
CONTINUOUS
10
3.5934941732283465
20
-1.642697125984252
11
3.5891196456692911
21
-1.6551988188976376
0
LINE
8
BLACK
6
CONTINUOUS
10
3.5891196456692911
20
-1.6551988188976376
11
3.5833728346456692
21
-1.6671321653543307
0
LINE
8
BLACK
6
CONTINUOUS
10
3.5833728346456692
20
-1.6671321653543307
11
3.5763261023622048
21
-1.6783470078740157
0
LINE
8
BLACK
6
CONTINUOUS
10
3.5763261023622048
20
-1.6783470078740157
11
3.5680679527559054
21
-1.6887023622047244
0
LINE
8
BLACK
6
CONTINUOUS
10
3.5680679527559054
20
-1.6887023622047244
11
3.5587023622047242
21
-1.6980679527559055
0
LINE
8
BLACK
6
CONTINUOUS
10
3.5587023622047242
20
-1.6980679527559055
11
3.5483470078740158
21
-1.7063261023622047
0
LINE
8
BLACK
6
CONTINUOUS
10
3.5483470078740158
20
-1.7063261023622047
11
3.5371321653543308
21
-1.7133728346456694
0
LINE
8
BLACK
6
CONTINUOUS
10
3.5371321653543308
20
-1.7133728346456694
11
3.5251988188976378
21
-1.7191196456692912
0
LINE
8
BLACK
6
CONTINUOUS
10
3.5251988188976378
20
-1.7191196456692912
11
3.5126971259842521
21
-1.7234941732283464
0
LINE
8
BLACK
6
CONTINUOUS
10
3.5126971259842521
20
-1.7234941732283464
11
3.4997842125984251
21
-1.7264414566929134
0
LINE
8
BLACK
6
CONTINUOUS
10
3.4997842125984251
20
-1.7264414566929134
11
3.4866224803149604
21
-1.7279244094488189
0
LINE
8
BLACK
6
CONTINUOUS
10
3.4866224803149604
20
-1.7279244094488189
11
3.4733775196850392
21
-1.7279244094488189
0
LINE
8
BLACK
6
CONTINUOUS
10
3.4733775196850392
20
-1.7279244094488189
11
3.4602157874015749
21
-1.7264414566929134
0
LINE
8
BLACK
6
CONTINUOUS
10
3.4602157874015749
20
-1.7264414566929134
11
3.4473028740157479
21
-1.7234941732283464
0
LINE
8
BLACK
6
CONTINUOUS
10
3.4473028740157479
20
-1.7234941732283464
11
3.4348011811023622
21
-1.7191196456692912
0
LINE
8
BLACK
6
CONTINUOUS
10
3.4348011811023622
20
-1.7191196456692912
11
3.4228678346456691
21
-1.7133728346456694
0
LINE
8
BLACK
6
CONTINUOUS
10
3.4228678346456691
20
-1.7133728346456694
11
3.4116529921259842
21
-1.7063261023622047
0
LINE
8
BLACK
6
CONTINUOUS
10
3.4116529921259842
20
-1.7063261023622047
11
3.4012976377952757
21
-1.6980679527559055
0
LINE
8
BLACK
6
CONTINUOUS
10
3.4012976377952757
20
-1.6980679527559055
11
3.3919320472440946
21
-1.6887023622047244
0
LINE
8
BLACK
6
CONTINUOUS
10
3.3919320472440946
20
-1.6887023622047244
11
3.3836738976377951
21
-1.6783470078740157
0
LINE
8
BLACK
6
CONTINUOUS
10
3.3836738976377951
20
-1.6783470078740157
11
3.3766271653543307
21
-1.6671321653543307
0
LINE
8
BLACK
6
CONTINUOUS
10
3.3766271653543307
20
-1.6671321653543307
11
3.3708803543307084
21
-1.6551988188976376
0
LINE
8
BLACK
6
CONTINUOUS
10
3.3708803543307084
20
-1.6551988188976376
11
3.3665058267716534
21
-1.642697125984252
0
LINE
8
BLACK
6
CONTINUOUS
10
3.3665058267716534
20
-1.642697125984252
11
3.3635585433070867
21
-1.6297842125984252
0
LINE
8
BLACK
6
CONTINUOUS
10
3.3635585433070867
20
-1.6297842125984252
11
3.3620755905511812
21
-1.6166224803149607
0
LINE
8
BLACK
6
CONTINUOUS
10
3.3620755905511812
20
-1.6166224803149607
11
3.3620755905511812
21
-1.6033775196850393
0
LINE
8
BLACK
6
CONTINUOUS
10
3.3620755905511812
20
-1.6033775196850393
11
3.3635585433070867
21
-1.5902157874015748
0
LINE
8
BLACK
6
CONTINUOUS
10
3.3635585433070867
20
-1.5902157874015748
11
3.3665058267716534
21
-1.577302874015748
0
LINE
8
BLACK
6
CONTINUOUS
10
3.3665058267716534
20
-1.577302874015748
11
3.3708803543307084
21
-1.5648011811023621
0
LINE
8
BLACK
6
CONTINUOUS
10
3.3708803543307084
20
-1.5648011811023621
11
3.3766271653543307
21
-1.5528678346456692
0
LINE
8
BLACK
6
CONTINUOUS
10
3.3766271653543307
20
-1.5528678346456692
11
3.3836738976377951
21
-1.5416529921259843
0
LINE
8
BLACK
6
CONTINUOUS
10
3.3836738976377951
20
-1.5416529921259843
11
3.3919320472440946
21
-1.5312976377952756
0
LINE
8
BLACK
6
CONTINUOUS
10
3.3919320472440946
20
-1.5312976377952756
11
3.4012976377952757
21
-1.5219320472440945
0
LINE
8
BLACK
6
CONTINUOUS
10
3.4012976377952757
20
-1.5219320472440945
11
3.4116529921259842
21
-1.5136738976377953
0
LINE
8
BLACK
6
CONTINUOUS
10
3.4116529921259842
20
-1.5136738976377953
11
3.4228678346456691
21
-1.5066271653543306
0
LINE
8
BLACK
6
CONTINUOUS
10
3.4228678346456691
20
-1.5066271653543306
11
3.4348011811023622
21
-1.5008803543307085
0
LINE
8
BLACK
6
CONTINUOUS
10
3.4348011811023622
20
-1.5008803543307085
11
3.4473028740157479
21
-1.4965058267716536
0
LINE
8
BLACK
6
CONTINUOUS
10
3.4473028740157479
20
-1.4965058267716536
11
3.4602157874015749
21
-1.4935585433070866
0
LINE
8
BLACK
6
CONTINUOUS
10
3.4602157874015749
20
-1.4935585433070866
11
3.4733775196850392
21
-1.4920755905511811
0
LINE
8
BLACK
6
CONTINUOUS
10
3.4733775196850392
20
-1.4920755905511811
11
3.4866224803149604
21
-1.4920755905511811
0
LINE
8
BLACK
6
CONTINUOUS
10
3.4866224803149604
20
-1.4920755905511811
11
3.4997842125984251
21
-1.4935585433070866
0
LINE
8
BLACK
6
CONTINUOUS
10
7.2297842125984246
20
-1.4835585433070866
11
7.2426971259842521
21
-1.4865058267716535
0
LINE
8
BLACK
6
CONTINUOUS
10
7.2426971259842521
20
-1.4865058267716535
11
7.2551988188976377
21
-1.4908803543307085
0
LINE
8
BLACK
6
CONTINUOUS
10
7.2551988188976377
20
-1.4908803543307085
11
7.2671321653543304
21
-1.4966271653543306
0
LINE
8
BLACK
6
CONTINUOUS
10
7.2671321653543304
20
-1.4966271653543306
11
7.2783470078740153
21
-1.5036738976377952
0
LINE
8
BLACK
6
CONTINUOUS
10
7.2783470078740153
20
-1.5036738976377952
11
7.2887023622047247
21
-1.5119320472440945
0
LINE
8
BLACK
6
CONTINUOUS
10
7.2887023622047247
20
-1.5119320472440945
11
7.2980679527559049
21
-1.5212976377952756
0
LINE
8
BLACK
6
CONTINUOUS
10
7.2980679527559049
20
-1.5212976377952756
11
7.3063261023622044
21
-1.5316529921259843
0
LINE
8
BLACK
6
CONTINUOUS
10
7.3063261023622044
20
-1.5316529921259843
11
7.3133728346456692
21
-1.5428678346456692
0
LINE
8
BLACK
6
CONTINUOUS
10
7.3133728346456692
20
-1.5428678346456692
11
7.3191196456692911
21
-1.5548011811023621
0
LINE
8
BLACK
6
CONTINUOUS
10
7.3191196456692911
20
-1.5548011811023621
11
7.3234941732283465
21
-1.567302874015748
0
LINE
8
BLACK
6
CONTINUOUS
10
7.3234941732283465
20
-1.567302874015748
11
7.3264414566929128
21
-1.5802157874015748
0
LINE
8
BLACK
6
CONTINUOUS
10
7.3264414566929128
20
-1.5802157874015748
11
7.3279244094488183
21
-1.5933775196850393
0
LINE
8
BLACK
6
CONTINUOUS
10
7.3279244094488183
20
-1.5933775196850393
11
7.3279244094488183
21
-1.6066224803149607
0
LINE
8
BLACK
6
CONTINUOUS
10
7.3279244094488183
20
-1.6066224803149607
11
7.3264414566929128
21
-1.6197842125984252
0
LINE
8
BLACK
6
CONTINUOUS
10
7.3264414566929128
20
-1.6197842125984252
11
7.3234941732283465
21
-1.632697125984252
0
LINE
8
BLACK
6
CONTINUOUS
10
7.3234941732283465
20
-1.632697125984252
11
7.3191196456692911
21
-1.6451988188976379
0
LINE
8
BLACK
6
CONTINUOUS
10
7.3191196456692911
20
-1.6451988188976379
11
7.3133728346456692
21
-1.6571321653543307
0
LINE
8
BLACK
6
CONTINUOUS
10
7.3133728346456692
20
-1.6571321653543307
11
7.3063261023622044
21
-1.6683470078740157
0
LINE
8
BLACK
6
CONTINUOUS
10
7.3063261023622044
20
-1.6683470078740157
11
7.2980679527559049
21
-1.6787023622047244
0
LINE
8
BLACK
6
CONTINUOUS
10
7.2980679527559049
20
-1.6787023622047244
11
7.2887023622047247
21
-1.6880679527559055
0
LINE
8
BLACK
6
CONTINUOUS
10
7.2887023622047247
20
-1.6880679527559055
11
7.2783470078740153
21
-1.6963261023622047
0
LINE
8
BLACK
6
CONTINUOUS
10
7.2783470078740153
20
-1.6963261023622047
11
7.2671321653543304
21
-1.7033728346456694
0
LINE
8
BLACK
6
CONTINUOUS
10
7.2671321653543304
20
-1.7033728346456694
11
7.2551988188976377
21
-1.7091196456692912
0
LINE
8
BLACK
6
CONTINUOUS
10
7.2551988188976377
20
-1.7091196456692912
11
7.2426971259842521
21
-1.7134941732283464
0
LINE
8
BLACK
6
CONTINUOUS
10
7.2426971259842521
20
-1.7134941732283464
11
7.2297842125984246
21
-1.7164414566929134
0
LINE
8
BLACK
6
CONTINUOUS
10
7.2297842125984246
20
-1.7164414566929134
11
7.2166224803149603
21
-1.7179244094488189
0
LINE
8
BLACK
6
CONTINUOUS
10
7.2166224803149603
20
-1.7179244094488189
11
7.2033775196850396
21
-1.7179244094488189
0
LINE
8
BLACK
6
CONTINUOUS
10
7.2033775196850396
20
-1.7179244094488189
11
7.1902157874015744
21
-1.7164414566929134
0
LINE
8
BLACK
6
CONTINUOUS
10
7.1902157874015744
20
-1.7164414566929134
11
7.1773028740157478
21
-1.7134941732283464
0
LINE
8
BLACK
6
CONTINUOUS
10
7.1773028740157478
20
-1.7134941732283464
11
7.1648011811023622
21
-1.7091196456692912
0
LINE
8
BLACK
6
CONTINUOUS
10
7.1648011811023622
20
-1.7091196456692912
11
7.1528678346456696
21
-1.7033728346456694
0
LINE
8
BLACK
6
CONTINUOUS
10
7.1528678346456696
20
-1.7033728346456694
11
7.1416529921259837
21
-1.6963261023622047
0
LINE
8
BLACK
6
CONTINUOUS
10
7.1416529921259837
20
-1.6963261023622047
11
7.1312976377952753
21
-1.6880679527559055
0
LINE
8
BLACK
6
CONTINUOUS
10
7.1312976377952753
20
-1.6880679527559055
11
7.1219320472440941
21
-1.6787023622047244
0
LINE
8
BLACK
6
CONTINUOUS
10
7.1219320472440941
20
-1.6787023622047244
11
7.1136738976377947
21
-1.6683470078740157
0
LINE
8
BLACK
6
CONTINUOUS
10
7.1136738976377947
20
-1.6683470078740157
11
7.1066271653543307
21
-1.6571321653543307
0
LINE
8
BLACK
6
CONTINUOUS
10
7.1066271653543307
20
-1.6571321653543307
11
7.1008803543307089
21
-1.6451988188976379
0
LINE
8
BLACK
6
CONTINUOUS
10
7.1008803543307089
20
-1.6451988188976379
11
7.0965058267716534
21
-1.632697125984252
0
LINE
8
BLACK
6
CONTINUOUS
10
7.0965058267716534
20
-1.632697125984252
11
7.0935585433070862
21
-1.6197842125984252
0
LINE
8
BLACK
6
CONTINUOUS
10
7.0935585433070862
20
-1.6197842125984252
11
7.0920755905511808
21
-1.6066224803149607
0
LINE
8
BLACK
6
CONTINUOUS
10
7.0920755905511808
20
-1.6066224803149607
11
7.0920755905511808
21
-1.5933775196850393
0
LINE
8
BLACK
6
CONTINUOUS
10
7.0920755905511808
20
-1.5933775196850393
11
7.0935585433070862
21
-1.5802157874015748
0
LINE
8
BLACK
6
CONTINUOUS
10
7.0935585433070862
20
-1.5802157874015748
11
7.0965058267716534
21
-1.567302874015748
0
LINE
8
BLACK
6
CONTINUOUS
10
7.0965058267716534
20
-1.567302874015748
11
7.1008803543307089
21
-1.5548011811023621
0
LINE
8
BLACK
6
CONTINUOUS
10
7.1008803543307089
20
-1.5548011811023621
11
7.1066271653543307
21
-1.5428678346456692
0
LINE
8
BLACK
6
CONTINUOUS
10
7.1066271653543307
20
-1.5428678346456692
11
7.1136738976377947
21
-1.5316529921259843
0
LINE
8
BLACK
6
CONTINUOUS
10
7.1136738976377947
20
-1.5316529921259843
11
7.1219320472440941
21
-1.5212976377952756
0
LINE
8
BLACK
6
CONTINUOUS
10
7.1219320472440941
20
-1.5212976377952756
11
7.1312976377952753
21
-1.5119320472440945
0
LINE
8
BLACK
6
CONTINUOUS
10
7.1312976377952753
20
-1.5119320472440945
11
7.1416529921259837
21
-1.5036738976377952
0
LINE
8
BLACK
6
CONTINUOUS
10
7.1416529921259837
20
-1.5036738976377952
11
7.1528678346456696
21
-1.4966271653543306
0
LINE
8
BLACK
6
CONTINUOUS
10
7.1528678346456696
20
-1.4966271653543306
11
7.1648011811023622
21
-1.4908803543307085
0
LINE
8
BLACK
6
CONTINUOUS
10
7.1648011811023622
20
-1.4908803543307085
11
7.1773028740157478
21
-1.4865058267716535
0
LINE
8
BLACK
6
CONTINUOUS
10
7.1773028740157478
20
-1.4865058267716535
11
7.1902157874015744
21
-1.4835585433070866
0
LINE
8
BLACK
6
CONTINUOUS
10
7.1902157874015744
20
-1.4835585433070866
11
7.2033775196850396
21
-1.4820755905511811
0
LINE
8
BLACK
6
CONTINUOUS
10
7.2033775196850396
20
-1.4820755905511811
11
7.2166224803149603
21
-1.4820755905511811
0
LINE
8
BLACK
6
CONTINUOUS
10
7.2166224803149603
20
-1.4820755905511811
11
7.2297842125984246
21
-1.4835585433070866
0
LINE
8
BLACK
6
CONTINUOUS
10
5.5559919685039372
20
-4.5273532677165349
11
5.5545223228346456
21
-4.5309012992125988
0
LINE
8
BLACK
6
CONTINUOUS
10
5.5545223228346456
20
-4.5309012992125988
11
5.5518068110236216
21
-4.5336168110236219
0
LINE
8
BLACK
6
CONTINUOUS
10
5.5518068110236216
20
-4.5336168110236219
11
5.5482587795275586
21
-4.5350864566929134
0
LINE
8
BLACK
6
CONTINUOUS
10
5.5482587795275586
20
-4.5350864566929134
11
5.5444183858267717
21
-4.5350864566929134
0
LINE
8
BLACK
6
CONTINUOUS
10
5.5444183858267717
20
-4.5350864566929134
11
5.5408703543307087
21
-4.5336168110236219
0
LINE
8
BLACK
6
CONTINUOUS
10
5.5408703543307087
20
-4.5336168110236219
11
5.5381548425196847
21
-4.5309012992125988
0
LINE
8
BLACK
6
CONTINUOUS
10
5.5381548425196847
20
-4.5309012992125988
11
5.5366851968503932
21
-4.5273532677165349
0
LINE
8
BLACK
6
CONTINUOUS
10
5.5366851968503932
20
-4.5273532677165349
11
5.5364960629921258
21
-4.5254330708661419
0
LINE
8
BLACK
6
CONTINUOUS
10
5.5364960629921258
20
-4.5254330708661419
11
5.5364960629921258
21
-4.5096850393700789
0
LINE
8
BLACK
6
CONTINUOUS
10
5.5364960629921258
20
-4.5096850393700789
11
5.5366851968503932
21
-4.507764842519685
0
LINE
8
BLACK
6
CONTINUOUS
10
5.5366851968503932
20
-4.507764842519685
11
5.5381548425196847
21
-4.504216811023622
0
LINE
8
BLACK
6
CONTINUOUS
10
5.5381548425196847
20
-4.504216811023622
11
5.5408703543307087
21
-4.501501299212598
0
LINE
8
BLACK
6
CONTINUOUS
10
5.5408703543307087
20
-4.501501299212598
11
5.5444183858267717
21
-4.5000316535433074
0
LINE
8
BLACK
6
CONTINUOUS
10
5.5444183858267717
20
-4.5000316535433074
11
5.5482587795275586
21
-4.5000316535433074
0
LINE
8
BLACK
6
CONTINUOUS
10
5.5482587795275586
20
-4.5000316535433074
11
5.5518068110236216
21
-4.501501299212598
0
LINE
8
BLACK
6
CONTINUOUS
10
5.5518068110236216
20
-4.501501299212598
11
5.5545223228346456
21
-4.504216811023622
0
LINE
8
BLACK
6
CONTINUOUS
10
5.5545223228346456
20
-4.504216811023622
11
5.5559919685039372
21
-4.507764842519685
0
LINE
8
BLACK
6
CONTINUOUS
10
5.5559919685039372
20
-4.507764842519685
11
5.5561811023622045
21
-4.5096850393700789
0
LINE
8
BLACK
6
CONTINUOUS
10
5.5561811023622045
20
-4.5096850393700789
11
5.5561811023622045
21
-4.5254330708661419
0
LINE
8
BLACK
6
CONTINUOUS
10
5.5561811023622045
20
-4.5254330708661419
11
5.5559919685039372
21
-4.5273532677165349
0
LINE
8
BLACK
6
CONTINUOUS
10
5.7233148031496066
20
-4.5273532677165349
11
5.7218451574803151
21
-4.5309012992125988
0
LINE
8
BLACK
6
CONTINUOUS
10
5.7218451574803151
20
-4.5309012992125988
11
5.7191296456692911
21
-4.5336168110236219
0
LINE
8
BLACK
6
CONTINUOUS
10
5.7191296456692911
20
-4.5336168110236219
11
5.7155816141732281
21
-4.5350864566929134
0
LINE
8
BLACK
6
CONTINUOUS
10
5.7155816141732281
20
-4.5350864566929134
11
5.7117412204724411
21
-4.5350864566929134
0
LINE
8
BLACK
6
CONTINUOUS
10
5.7117412204724411
20
-4.5350864566929134
11
5.7081931889763782
21
-4.5336168110236219
0
LINE
8
BLACK
6
CONTINUOUS
10
5.7081931889763782
20
-4.5336168110236219
11
5.7054776771653541
21
-4.5309012992125988
0
LINE
8
BLACK
6
CONTINUOUS
10
5.7054776771653541
20
-4.5309012992125988
11
5.7040080314960626
21
-4.5273532677165349
0
LINE
8
BLACK
6
CONTINUOUS
10
5.7040080314960626
20
-4.5273532677165349
11
5.7038188976377953
21
-4.5254330708661419
0
LINE
8
BLACK
6
CONTINUOUS
10
5.7038188976377953
20
-4.5254330708661419
11
5.7038188976377953
21
-4.5096850393700789
0
LINE
8
BLACK
6
CONTINUOUS
10
5.7038188976377953
20
-4.5096850393700789
11
5.7040080314960626
21
-4.507764842519685
0
LINE
8
BLACK
6
CONTINUOUS
10
5.7040080314960626
20
-4.507764842519685
11
5.7054776771653541
21
-4.504216811023622
0
LINE
8
BLACK
6
CONTINUOUS
10
5.7054776771653541
20
-4.504216811023622
11
5.7081931889763782
21
-4.501501299212598
0
LINE
8
BLACK
6
CONTINUOUS
10
5.7081931889763782
20
-4.501501299212598
11
5.7117412204724411
21
-4.5000316535433074
0
LINE
8
BLACK
6
CONTINUOUS
10
5.7117412204724411
20
-4.5000316535433074
11
5.7155816141732281
21
-4.5000316535433074
0
LINE
8
BLACK
6
CONTINUOUS
10
5.7155816141732281
20
-4.5000316535433074
11
5.7191296456692911
21
-4.501501299212598
0
LINE
8
BLACK
6
CONTINUOUS
10
5.7191296456692911
20
-4.501501299212598
11
5.7218451574803151
21
-4.504216811023622
0
LINE
8
BLACK
6
CONTINUOUS
10
5.7218451574803151
20
-4.504216811023622
11
5.7233148031496066
21
-4.507764842519685
0
LINE
8
BLACK
6
CONTINUOUS
10
5.7233148031496066
20
-4.507764842519685
11
5.723503937007874
21
-4.5096850393700789
0
LINE
8
BLACK
6
CONTINUOUS
10
5.723503937007874
20
-4.5096850393700789
11
5.723503937007874
21
-4.5254330708661419
0
LINE
8
BLACK
6
CONTINUOUS
10
5.723503937007874
20
-4.5254330708661419
11
5.7233148031496066
21
-4.5273532677165349
0
CIRCLE
8
BLACK
10
3.4950000000000001
20
-3.4899999999999998
40
0.0068897637795276
0
CIRCLE
8
BLACK
10
7.2698818897637798
20
-2.4962204724409447
40
0.0068897637795276
0
CIRCLE
8
BLACK
10
7.2698818897637798
20
-2.7237795275590551
40
0.0068897637795276
0
LINE
8
BLACK
6
CONTINUOUS
10
7.14228968503937
20
-2.4282112992125984
11
7.145267913385827
21
-2.4290092913385828
0
LINE
8
BLACK
6
CONTINUOUS
10
7.145267913385827
20
-2.4290092913385828
11
7.1479381102362201
21
-2.4305509448818898
0
LINE
8
BLACK
6
CONTINUOUS
10
7.1479381102362201
20
-2.4305509448818898
11
7.1501183464566926
21
-2.432731181102362
0
LINE
8
BLACK
6
CONTINUOUS
10
7.1501183464566926
20
-2.432731181102362
11
7.1516599999999997
21
-2.4354013779527559
0
LINE
8
BLACK
6
CONTINUOUS
10
7.1516599999999997
20
-2.4354013779527559
11
7.1524579921259841
21
-2.4383796062992125
0
LINE
8
BLACK
6
CONTINUOUS
10
7.1524579921259841
20
-2.4383796062992125
11
7.1524579921259841
21
-2.4414629133858265
0
LINE
8
BLACK
6
CONTINUOUS
10
7.1524579921259841
20
-2.4414629133858265
11
7.1516599999999997
21
-2.4444411417322836
0
LINE
8
BLACK
6
CONTINUOUS
10
7.1516599999999997
20
-2.4444411417322836
11
7.1501183464566926
21
-2.447111338582677
0
LINE
8
BLACK
6
CONTINUOUS
10
7.1501183464566926
20
-2.447111338582677
11
7.1479381102362201
21
-2.4492915748031496
0
LINE
8
BLACK
6
CONTINUOUS
10
7.1479381102362201
20
-2.4492915748031496
11
7.145267913385827
21
-2.4508332283464567
0
LINE
8
BLACK
6
CONTINUOUS
10
7.145267913385827
20
-2.4508332283464567
11
7.14228968503937
21
-2.4516312204724411
0
LINE
8
BLACK
6
CONTINUOUS
10
7.14228968503937
20
-2.4516312204724411
11
7.140748031496063
21
-2.4517322834645667
0
LINE
8
BLACK
6
CONTINUOUS
10
7.140748031496063
20
-2.4517322834645667
11
7.109251968503937
21
-2.4517322834645667
0
LINE
8
BLACK
6
CONTINUOUS
10
7.109251968503937
20
-2.4517322834645667
11
7.10771031496063
21
-2.4516312204724411
0
LINE
8
BLACK
6
CONTINUOUS
10
7.10771031496063
20
-2.4516312204724411
11
7.104732086614173
21
-2.4508332283464567
0
LINE
8
BLACK
6
CONTINUOUS
10
7.104732086614173
20
-2.4508332283464567
11
7.1020618897637791
21
-2.4492915748031496
0
LINE
8
BLACK
6
CONTINUOUS
10
7.1020618897637791
20
-2.4492915748031496
11
7.0998816535433074
21
-2.447111338582677
0
LINE
8
BLACK
6
CONTINUOUS
10
7.0998816535433074
20
-2.447111338582677
11
7.0983399999999994
21
-2.4444411417322836
0
LINE
8
BLACK
6
CONTINUOUS
10
7.0983399999999994
20
-2.4444411417322836
11
7.0975420078740159
21
-2.4414629133858265
0
LINE
8
BLACK
6
CONTINUOUS
10
7.0975420078740159
20
-2.4414629133858265
11
7.0975420078740159
21
-2.4383796062992125
0
LINE
8
BLACK
6
CONTINUOUS
10
7.0975420078740159
20
-2.4383796062992125
11
7.0983399999999994
21
-2.4354013779527559
0
LINE
8
BLACK
6
CONTINUOUS
10
7.0983399999999994
20
-2.4354013779527559
11
7.0998816535433074
21
-2.432731181102362
0
LINE
8
BLACK
6
CONTINUOUS
10
7.0998816535433074
20
-2.432731181102362
11
7.1020618897637791
21
-2.4305509448818898
0
LINE
8
BLACK
6
CONTINUOUS
10
7.1020618897637791
20
-2.4305509448818898
11
7.104732086614173
21
-2.4290092913385828
0
LINE
8
BLACK
6
CONTINUOUS
10
7.104732086614173
20
-2.4290092913385828
11
7.10771031496063
21
-2.4282112992125984
0
LINE
8
BLACK
6
CONTINUOUS
10
7.10771031496063
20
-2.4282112992125984
11
7.109251968503937
21
-2.4281102362204723
0
LINE
8
BLACK
6
CONTINUOUS
10
7.109251968503937
20
-2.4281102362204723
11
7.140748031496063
21
-2.4281102362204723
0
LINE
8
BLACK
6
CONTINUOUS
10
7.140748031496063
20
-2.4281102362204723
11
7.14228968503937
21
-2.4282112992125984
0
LINE
8
BLACK
6
CONTINUOUS
10
7.14228968503937
20
-2.7683687795275591
11
7.145267913385827
21
-2.7691667716535431
0
LINE
8
BLACK
6
CONTINUOUS
10
7.145267913385827
20
-2.7691667716535431
11
7.1479381102362201
21
-2.7707084251968501
0
LINE
8
BLACK
6
CONTINUOUS
10
7.1479381102362201
20
-2.7707084251968501
11
7.1501183464566926
21
-2.7728886614173227
0
LINE
8
BLACK
6
CONTINUOUS
10
7.1501183464566926
20
-2.7728886614173227
11
7.1516599999999997
21
-2.7755588582677166
0
LINE
8
BLACK
6
CONTINUOUS
10
7.1516599999999997
20
-2.7755588582677166
11
7.1524579921259841
21
-2.7785370866141732
0
LINE
8
BLACK
6
CONTINUOUS
10
7.1524579921259841
20
-2.7785370866141732
11
7.1524579921259841
21
-2.7816203937007873
0
LINE
8
BLACK
6
CONTINUOUS
10
7.1524579921259841
20
-2.7816203937007873
11
7.1516599999999997
21
-2.7845986220472438
0
LINE
8
BLACK
6
CONTINUOUS
10
7.1516599999999997
20
-2.7845986220472438
11
7.1501183464566926
21
-2.7872688188976378
0
LINE
8
BLACK
6
CONTINUOUS
10
7.1501183464566926
20
-2.7872688188976378
11
7.1479381102362201
21
-2.7894490551181104
0
LINE
8
BLACK
6
CONTINUOUS
10
7.1479381102362201
20
-2.7894490551181104
11
7.145267913385827
21
-2.7909907086614174
0
LINE
8
BLACK
6
CONTINUOUS
10
7.145267913385827
20
-2.7909907086614174
11
7.14228968503937
21
-2.7917887007874014
0
LINE
8
BLACK
6
CONTINUOUS
10
7.14228968503937
20
-2.7917887007874014
11
7.140748031496063
21
-2.7918897637795275
0
LINE
8
BLACK
6
CONTINUOUS
10
7.140748031496063
20
-2.7918897637795275
11
7.109251968503937
21
-2.7918897637795275
0
LINE
8
BLACK
6
CONTINUOUS
10
7.109251968503937
20
-2.7918897637795275
11
7.10771031496063
21
-2.7917887007874014
0
LINE
8
BLACK
6
CONTINUOUS
10
7.10771031496063
20
-2.7917887007874014
11
7.104732086614173
21
-2.7909907086614174
0
LINE
8
BLACK
6
CONTINUOUS
10
7.104732086614173
20
-2.7909907086614174
11
7.1020618897637791
21
-2.7894490551181104
0
LINE
8
BLACK
6
CONTINUOUS
10
7.1020618897637791
20
-2.7894490551181104
11
7.0998816535433074
21
-2.7872688188976378
0
LINE
8
BLACK
6
CONTINUOUS
10
7.0998816535433074
20
-2.7872688188976378
11
7.0983399999999994
21
-2.7845986220472438
0
LINE
8
BLACK
6
CONTINUOUS
10
7.0983399999999994
20
-2.7845986220472438
11
7.0975420078740159
21
-2.7816203937007873
0
LINE
8
BLACK
6
CONTINUOUS
10
7.0975420078740159
20
-2.7816203937007873
11
7.0975420078740159
21
-2.7785370866141732
0
LINE
8
BLACK
6
CONTINUOUS
10
7.0975420078740159
20
-2.7785370866141732
11
7.0983399999999994
21
-2.7755588582677166
0
LINE
8
BLACK
6
CONTINUOUS
10
7.0983399999999994
20
-2.7755588582677166
11
7.0998816535433074
21
-2.7728886614173227
0
LINE
8
BLACK
6
CONTINUOUS
10
7.0998816535433074
20
-2.7728886614173227
11
7.1020618897637791
21
-2.7707084251968501
0
LINE
8
BLACK
6
CONTINUOUS
10
7.1020618897637791
20
-2.7707084251968501
11
7.104732086614173
21
-2.7691667716535431
0
LINE
8
BLACK
6
CONTINUOUS
10
7.104732086614173
20
-2.7691667716535431
11
7.10771031496063
21
-2.7683687795275591
0
LINE
8
BLACK
6
CONTINUOUS
10
7.10771031496063
20
-2.7683687795275591
11
7.109251968503937
21
-2.768267716535433
0
LINE
8
BLACK
6
CONTINUOUS
10
7.109251968503937
20
-2.768267716535433
11
7.140748031496063
21
-2.768267716535433
0
LINE
8
BLACK
6
CONTINUOUS
10
7.140748031496063
20
-2.768267716535433
11
7.14228968503937
21
-2.7683687795275591
0
LINE
8
BLACK
6
CONTINUOUS
10
7.3127621259842517
20
-2.4282112992125984
11
7.3157403543307087
21
-2.4290092913385828
0
LINE
8
BLACK
6
CONTINUOUS
10
7.3157403543307087
20
-2.4290092913385828
11
7.3184105511811026
21
-2.4305509448818898
0
LINE
8
BLACK
6
CONTINUOUS
10
7.3184105511811026
20
-2.4305509448818898
11
7.3205907874015743
21
-2.432731181102362
0
LINE
8
BLACK
6
CONTINUOUS
10
7.3205907874015743
20
-2.432731181102362
11
7.3221324409448814
21
-2.4354013779527559
0
LINE
8
BLACK
6
CONTINUOUS
10
7.3221324409448814
20
-2.4354013779527559
11
7.3229304330708658
21
-2.4383796062992125
0
LINE
8
BLACK
6
CONTINUOUS
10
7.3229304330708658
20
-2.4383796062992125
11
7.3229304330708658
21
-2.4414629133858265
0
LINE
8
BLACK
6
CONTINUOUS
10
7.3229304330708658
20
-2.4414629133858265
11
7.3221324409448814
21
-2.4444411417322836
0
LINE
8
BLACK
6
CONTINUOUS
10
7.3221324409448814
20
-2.4444411417322836
11
7.3205907874015743
21
-2.447111338582677
0
LINE
8
BLACK
6
CONTINUOUS
10
7.3205907874015743
20
-2.447111338582677
11
7.3184105511811026
21
-2.4492915748031496
0
LINE
8
BLACK
6
CONTINUOUS
10
7.3184105511811026
20
-2.4492915748031496
11
7.3157403543307087
21
-2.4508332283464567
0
LINE
8
BLACK
6
CONTINUOUS
10
7.3157403543307087
20
-2.4508332283464567
11
7.3127621259842517
21
-2.4516312204724411
0
LINE
8
BLACK
6
CONTINUOUS
10
7.3127621259842517
20
-2.4516312204724411
11
7.3112204724409446
21
-2.4517322834645667
0
LINE
8
BLACK
6
CONTINUOUS
10
7.3112204724409446
20
-2.4517322834645667
11
7.2679133858267715
21
-2.4517322834645667
0
LINE
8
BLACK
6
CONTINUOUS
10
7.2679133858267715
20
-2.4517322834645667
11
7.2663717322834644
21
-2.4516312204724411
0
LINE
8
BLACK
6
CONTINUOUS
10
7.2663717322834644
20
-2.4516312204724411
11
7.2633935039370074
21
-2.4508332283464567
0
LINE
8
BLACK
6
CONTINUOUS
10
7.2633935039370074
20
-2.4508332283464567
11
7.2607233070866144
21
-2.4492915748031496
0
LINE
8
BLACK
6
CONTINUOUS
10
7.2607233070866144
20
-2.4492915748031496
11
7.2585430708661418
21
-2.447111338582677
0
LINE
8
BLACK
6
CONTINUOUS
10
7.2585430708661418
20
-2.447111338582677
11
7.2570014173228348
21
-2.4444411417322836
0
LINE
8
BLACK
6
CONTINUOUS
10
7.2570014173228348
20
-2.4444411417322836
11
7.2562034251968504
21
-2.4414629133858265
0
LINE
8
BLACK
6
CONTINUOUS
10
7.2562034251968504
20
-2.4414629133858265
11
7.2562034251968504
21
-2.4383796062992125
0
LINE
8
BLACK
6
CONTINUOUS
10
7.2562034251968504
20
-2.4383796062992125
11
7.2570014173228348
21
-2.4354013779527559
0
LINE
8
BLACK
6
CONTINUOUS
10
7.2570014173228348
20
-2.4354013779527559
11
7.2585430708661418
21
-2.432731181102362
0
LINE
8
BLACK
6
CONTINUOUS
10
7.2585430708661418
20
-2.432731181102362
11
7.2607233070866144
21
-2.4305509448818898
0
LINE
8
BLACK
6
CONTINUOUS
10
7.2607233070866144
20
-2.4305509448818898
11
7.2633935039370074
21
-2.4290092913385828
0
LINE
8
BLACK
6
CONTINUOUS
10
7.2633935039370074
20
-2.4290092913385828
11
7.2663717322834644
21
-2.4282112992125984
0
LINE
8
BLACK
6
CONTINUOUS
10
7.2663717322834644
20
-2.4282112992125984
11
7.2679133858267715
21
-2.4281102362204723
0
LINE
8
BLACK
6
CONTINUOUS
10
7.2679133858267715
20
-2.4281102362204723
11
7.3112204724409446
21
-2.4281102362204723
0
LINE
8
BLACK
6
CONTINUOUS
10
7.3112204724409446
20
-2.4281102362204723
11
7.3127621259842517
21
-2.4282112992125984
0
LINE
8
BLACK
6
CONTINUOUS
10
7.3127621259842517
20
-2.7683687795275591
11
7.3157403543307087
21
-2.7691667716535431
0
LINE
8
BLACK
6
CONTINUOUS
10
7.3157403543307087
20
-2.7691667716535431
11
7.3184105511811026
21
-2.7707084251968501
0
LINE
8
BLACK
6
CONTINUOUS
10
7.3184105511811026
20
-2.7707084251968501
11
7.3205907874015743
21
-2.7728886614173227
0
LINE
8
BLACK
6
CONTINUOUS
10
7.3205907874015743
20
-2.7728886614173227
11
7.3221324409448814
21
-2.7755588582677166
0
LINE
8
BLACK
6
CONTINUOUS
10
7.3221324409448814
20
-2.7755588582677166
11
7.3229304330708658
21
-2.7785370866141732
0
LINE
8
BLACK
6
CONTINUOUS
10
7.3229304330708658
20
-2.7785370866141732
11
7.3229304330708658
21
-2.7816203937007873
0
LINE
8
BLACK
6
CONTINUOUS
10
7.3229304330708658
20
-2.7816203937007873
11
7.3221324409448814
21
-2.7845986220472438
0
LINE
8
BLACK
6
CONTINUOUS
10
7.3221324409448814
20
-2.7845986220472438
11
7.3205907874015743
21
-2.7872688188976378
0
LINE
8
BLACK
6
CONTINUOUS
10
7.3205907874015743
20
-2.7872688188976378
11
7.3184105511811026
21
-2.7894490551181104
0
LINE
8
BLACK
6
CONTINUOUS
10
7.3184105511811026
20
-2.7894490551181104
11
7.3157403543307087
21
-2.7909907086614174
0
LINE
8
BLACK
6
CONTINUOUS
10
7.3157403543307087
20
-2.7909907086614174
11
7.3127621259842517
21
-2.7917887007874014
0
LINE
8
BLACK
6
CONTINUOUS
10
7.3127621259842517
20
-2.7917887007874014
11
7.3112204724409446
21
-2.7918897637795275
0
LINE
8
BLACK
6
CONTINUOUS
10
7.3112204724409446
20
-2.7918897637795275
11
7.2679133858267715
21
-2.7918897637795275
0
LINE
8
BLACK
6
CONTINUOUS
10
7.2679133858267715
20
-2.7918897637795275
11
7.2663717322834644
21
-2.7917887007874014
0
LINE
8
BLACK
6
CONTINUOUS
10
7.2663717322834644
20
-2.7917887007874014
11
7.2633935039370074
21
-2.7909907086614174
0
LINE
8
BLACK
6
CONTINUOUS
10
7.2633935039370074
20
-2.7909907086614174
11
7.2607233070866144
21
-2.7894490551181104
0
LINE
8
BLACK
6
CONTINUOUS
10
7.2607233070866144
20
-2.7894490551181104
11
7.2585430708661418
21
-2.7872688188976378
0
LINE
8
BLACK
6
CONTINUOUS
10
7.2585430708661418
20
-2.7872688188976378
11
7.2570014173228348
21
-2.7845986220472438
0
LINE
8
BLACK
6
CONTINUOUS
10
7.2570014173228348
20
-2.7845986220472438
11
7.2562034251968504
21
-2.7816203937007873
0
LINE
8
BLACK
6
CONTINUOUS
10
7.2562034251968504
20
-2.7816203937007873
11
7.2562034251968504
21
-2.7785370866141732
0
LINE
8
BLACK
6
CONTINUOUS
10
7.2562034251968504
20
-2.7785370866141732
11
7.2570014173228348
21
-2.7755588582677166
0
LINE
8
BLACK
6
CONTINUOUS
10
7.2570014173228348
20
-2.7755588582677166
11
7.2585430708661418
21
-2.7728886614173227
0
LINE
8
BLACK
6
CONTINUOUS
10
7.2585430708661418
20
-2.7728886614173227
11
7.2607233070866144
21
-2.7707084251968501
0
LINE
8
BLACK
6
CONTINUOUS
10
7.2607233070866144
20
-2.7707084251968501
11
7.2633935039370074
21
-2.7691667716535431
0
LINE
8
BLACK
6
CONTINUOUS
10
7.2633935039370074
20
-2.7691667716535431
11
7.2663717322834644
21
-2.7683687795275591
0
LINE
8
BLACK
6
CONTINUOUS
10
7.2663717322834644
20
-2.7683687795275591
11
7.2679133858267715
21
-2.768267716535433
0
LINE
8
BLACK
6
CONTINUOUS
10
7.2679133858267715
20
-2.768267716535433
11
7.3112204724409446
21
-2.768267716535433
0
LINE
8
BLACK
6
CONTINUOUS
10
7.3112204724409446
20
-2.768267716535433
11
7.3127621259842517
21
-2.7683687795275591
0
CIRCLE
8
BLACK
10
3.48
20
-1.6099999999999999
40
0.0068897637795276
0
CIRCLE
8
BLACK
10
7.1899999999999995
20
-3.4699999999999998
40
0.0068897637795276
0
CIRCLE
8
BLACK
10
3.96
20
-4.6600000000000001
40
0.0068897637795276
0
CIRCLE
8
BLACK
10
4.0599999999999996
20
-4.6600000000000001
40
0.0068897637795276
0
CIRCLE
8
BLACK
10
3.96
20
-4.7599999999999998
40
0.0068897637795276
0
CIRCLE
8
BLACK
10
4.0599999999999996
20
-4.7599999999999998
40
0.0068897637795276
0
CIRCLE
8
BLACK
10
3.96
20
-4.8600000000000003
40
0.0068897637795276
0
CIRCLE
8
BLACK
10
4.0599999999999996
20
-4.8600000000000003
40
0.0068897637795276
0
CIRCLE
8
BLACK
10
7.21
20
-1.5999999999999999
40
0.0068897637795276
0
CIRCLE
8
BLACK
10
4.1986614173228345
20
-2.2016535433070867
40
0.0068897637795276
0
CIRCLE
8
BLACK
10
4.1986614173228345
20
-2.9614960629921261
40
0.0068897637795276
0
CIRCLE
8
BLACK
10
6.3884251968503936
20
-2.2016535433070867
40
0.0068897637795276
0
CIRCLE
8
BLACK
10
6.3884251968503936
20
-2.9614960629921261
40
0.0068897637795276
0
CIRCLE
8
BLACK
10
3.8644094488188974
20
-2.2016535433070867
40
0.0068897637795276
0
CIRCLE
8
BLACK
10
6.7226771653543302
20
-2.2016535433070867
40
0.0068897637795276
0
CIRCLE
8
BLACK
10
3.8644094488188974
20
-2.9614960629921261
40
0.0068897637795276
0
CIRCLE
8
BLACK
10
6.7226771653543302
20
-2.9614960629921261
40
0.0068897637795276
0
CIRCLE
8
BLACK
10
4.1699999999999999
20
-5.0899999999999999
40
0.0068897637795276
0
CIRCLE
8
BLACK
10
4.0700000000000003
20
-5.0899999999999999
40
0.0068897637795276
0
CIRCLE
8
BLACK
10
3.9699999999999998
20
-5.0899999999999999
40
0.0068897637795276
0
CIRCLE
8
BLACK
10
3.8700000000000001
20
-5.0899999999999999
40
0.0068897637795276
0
LINE
8
WHITE
6
CONTINUOUS
10
5.5364960629921258
20
-4.5096850393700789
11
5.5364960629921258
21
-4.5254330708661419
0
ARC
8
WHITE
10
5.5463385826771656
20
-4.5254330708661419
40
0.0098425196850394
50
-180.00000000
51
0.00000000
0
LINE
8
WHITE
6
CONTINUOUS
10
5.5561811023622045
20
-4.5254330708661419
11
5.5561811023622045
21
-4.5096850393700789
0
ARC
8
WHITE
10
5.5463385826771656
20
-4.5096850393700789
40
0.0098425196850394
50
0.00000000
51
180.00000000
0
LINE
8
WHITE
6
CONTINUOUS
10
5.7038188976377953
20
-4.5096850393700789
11
5.7038188976377953
21
-4.5254330708661419
0
ARC
8
WHITE
10
5.7136614173228342
20
-4.5254330708661419
40
0.0098425196850394
50
-180.00000000
51
0.00000000
0
LINE
8
WHITE
6
CONTINUOUS
10
5.723503937007874
20
-4.5254330708661419
11
5.723503937007874
21
-4.5096850393700789
0
ARC
8
WHITE
10
5.7136614173228342
20
-4.5096850393700789
40
0.0098425196850394
50
0.00000000
51
180.00000000
0
CIRCLE
8
WHITE
10
3.4950000000000001
20
-3.4899999999999998
40
0.0068897637795276
0
CIRCLE
8
WHITE
10
7.2698818897637798
20
-2.4962204724409447
40
0.0068897637795276
0
CIRCLE
8
WHITE
10
7.2698818897637798
20
-2.7237795275590551
40
0.0068897637795276
0
LINE
8
WHITE
6
CONTINUOUS
10
7.140748031496063
20
-2.4281102362204723
11
7.109251968503937
21
-2.4281102362204723
0
ARC
8
WHITE
10
7.109251968503937
20
-2.4399212598425195
40
0.0118110236220472
50
90.00000000
51
270.00000000
0
LINE
8
WHITE
6
CONTINUOUS
10
7.109251968503937
20
-2.4517322834645667
11
7.140748031496063
21
-2.4517322834645667
0
ARC
8
WHITE
10
7.140748031496063
20
-2.4399212598425195
40
0.0118110236220472
50
270.00000000
51
450.00000000
0
LINE
8
WHITE
6
CONTINUOUS
10
7.140748031496063
20
-2.768267716535433
11
7.109251968503937
21
-2.768267716535433
0
ARC
8
WHITE
10
7.109251968503937
20
-2.7800787401574802
40
0.0118110236220472
50
90.00000000
51
270.00000000
0
LINE
8
WHITE
6
CONTINUOUS
10
7.109251968503937
20
-2.7918897637795275
11
7.140748031496063
21
-2.7918897637795275
0
ARC
8
WHITE
10
7.140748031496063
20
-2.7800787401574802
40
0.0118110236220472
50
270.00000000
51
450.00000000
0
LINE
8
WHITE
6
CONTINUOUS
10
7.3112204724409446
20
-2.4281102362204723
11
7.2679133858267715
21
-2.4281102362204723
0
ARC
8
WHITE
10
7.2679133858267715
20
-2.4399212598425195
40
0.0118110236220472
50
90.00000000
51
270.00000000
0
LINE
8
WHITE
6
CONTINUOUS
10
7.2679133858267715
20
-2.4517322834645667
11
7.3112204724409446
21
-2.4517322834645667
0
ARC
8
WHITE
10
7.3112204724409446
20
-2.4399212598425195
40
0.0118110236220472
50
270.00000000
51
450.00000000
0
LINE
8
WHITE
6
CONTINUOUS
10
7.3112204724409446
20
-2.768267716535433
11
7.2679133858267715
21
-2.768267716535433
0
ARC
8
WHITE
10
7.2679133858267715
20
-2.7800787401574802
40
0.0118110236220472
50
90.00000000
51
270.00000000
0
LINE
8
WHITE
6
CONTINUOUS
10
7.2679133858267715
20
-2.7918897637795275
11
7.3112204724409446
21
-2.7918897637795275
0
ARC
8
WHITE
10
7.3112204724409446
20
-2.7800787401574802
40
0.0118110236220472
50
270.00000000
51
450.00000000
0
CIRCLE
8
WHITE
10
3.48
20
-1.6099999999999999
40
0.0068897637795276
0
CIRCLE
8
WHITE
10
7.1899999999999995
20
-3.4699999999999998
40
0.0068897637795276
0
CIRCLE
8
WHITE
10
3.96
20
-4.6600000000000001
40
0.0068897637795276
0
CIRCLE
8
WHITE
10
4.0599999999999996
20
-4.6600000000000001
40
0.0068897637795276
0
CIRCLE
8
WHITE
10
3.96
20
-4.7599999999999998
40
0.0068897637795276
0
CIRCLE
8
WHITE
10
4.0599999999999996
20
-4.7599999999999998
40
0.0068897637795276
0
CIRCLE
8
WHITE
10
3.96
20
-4.8600000000000003
40
0.0068897637795276
0
CIRCLE
8
WHITE
10
4.0599999999999996
20
-4.8600000000000003
40
0.0068897637795276
0
CIRCLE
8
WHITE
10
7.21
20
-1.5999999999999999
40
0.0068897637795276
0
CIRCLE
8
WHITE
10
4.1986614173228345
20
-2.2016535433070867
40
0.0068897637795276
0
CIRCLE
8
WHITE
10
4.1986614173228345
20
-2.9614960629921261
40
0.0068897637795276
0
CIRCLE
8
WHITE
10
6.3884251968503936
20
-2.2016535433070867
40
0.0068897637795276
0
CIRCLE
8
WHITE
10
6.3884251968503936
20
-2.9614960629921261
40
0.0068897637795276
0
CIRCLE
8
WHITE
10
3.8644094488188974
20
-2.2016535433070867
40
0.0068897637795276
0
CIRCLE
8
WHITE
10
6.7226771653543302
20
-2.2016535433070867
40
0.0068897637795276
0
CIRCLE
8
WHITE
10
3.8644094488188974
20
-2.9614960629921261
40
0.0068897637795276
0
CIRCLE
8
WHITE
10
6.7226771653543302
20
-2.9614960629921261
40
0.0068897637795276
0
CIRCLE
8
WHITE
10
4.1699999999999999
20
-5.0899999999999999
40
0.0068897637795276
0
CIRCLE
8
WHITE
10
4.0700000000000003
20
-5.0899999999999999
40
0.0068897637795276
0
CIRCLE
8
WHITE
10
3.9699999999999998
20
-5.0899999999999999
40
0.0068897637795276
0
CIRCLE
8
WHITE
10
3.8700000000000001
20
-5.0899999999999999
40
0.0068897637795276
  0
ENDSEC
  0
EOF
