  0
SECTION
  2
HEADER
  9
$ANGBASE
  50
0.0
  9
$ANGDIR
  70
1
  9
$MEASUREMENT
  70
0
  0
ENDSEC
  0
SECTION
  2
TABLES
  0
TABLE
  2
LTYPE
  70
4
  0
LTYPE
  5
40F
  2
CONTINUOUS
  70
0
  3
Solid line
  72
65
  73
0
  40
0.0
  0
LTYPE
  5
410
  2
DASHDOT
 70
0
  3
Dash Dot ____ _ ____ _
 72
65
 73
4
 40
2.0
 49
1.25
 49
-0.25
 49
0.25
 49
-0.25
  0
LTYPE
  5
411
  2
DASHED
 70
0
  3
Dashed __ __ __ __ __
 72
65
 73
2
 40
0.75
 49
0.5
 49
-0.25
  0
LTYPE
  5
43B
  2
DOTTED
 70
0
  3
Dotted .  .  .  .
 72
65
 73
2
 40
0.2
 49
0.0
 49
-0.2
  0
ENDTAB
  0
TABLE
  2
STYLE
  70
4
  0
STYLE
  2
KICAD
  70
0
  40
0
  41
1
  42
1
  50
0
  71
0
  3
isocp.shx
  0
STYLE
  2
KICADB
  70
0
  40
0
  41
1
  42
1
  50
0
  71
0
  3
isocp.shx
  0
STYLE
  2
KICADI
  70
0
  40
0
  41
1
  42
1
  50
15
  71
0
  3
isocp.shx
  0
STYLE
  2
KICADBI
  70
0
  40
0
  41
1
  42
1
  50
15
  71
0
  3
isocp.shx
  0
ENDTAB
  0
TABLE
  2
LAYER
  70
1
  0
LAYER
  2
BLACK
  70
0
  62
7
  6
CONTINUOUS
  0
ENDTAB
  0
ENDSEC
  0
SECTION
  2
ENTITIES
0
LINE
8
BLACK
6
CONTINUOUS
10
5.5364960629921258
20
-4.5096850393700789
11
5.5364960629921258
21
-4.5254330708661419
0
ARC
8
BLACK
10
5.5463385826771656
20
-4.5254330708661419
40
0.0098425196850394
50
-180.00000000
51
0.00000000
0
LINE
8
BLACK
6
CONTINUOUS
10
5.5561811023622045
20
-4.5254330708661419
11
5.5561811023622045
21
-4.5096850393700789
0
ARC
8
BLACK
10
5.5463385826771656
20
-4.5096850393700789
40
0.0098425196850394
50
0.00000000
51
180.00000000
0
LINE
8
BLACK
6
CONTINUOUS
10
5.7038188976377953
20
-4.5096850393700789
11
5.7038188976377953
21
-4.5254330708661419
0
ARC
8
BLACK
10
5.7136614173228342
20
-4.5254330708661419
40
0.0098425196850394
50
-180.00000000
51
0.00000000
0
LINE
8
BLACK
6
CONTINUOUS
10
5.723503937007874
20
-4.5254330708661419
11
5.723503937007874
21
-4.5096850393700789
0
ARC
8
BLACK
10
5.7136614173228342
20
-4.5096850393700789
40
0.0098425196850394
50
0.00000000
51
180.00000000
0
CIRCLE
8
BLACK
10
3.4950000000000001
20
-3.4899999999999998
40
0.0068897637795276
0
CIRCLE
8
BLACK
10
7.2698818897637798
20
-2.4962204724409447
40
0.0068897637795276
0
CIRCLE
8
BLACK
10
7.2698818897637798
20
-2.7237795275590551
40
0.0068897637795276
0
LINE
8
BLACK
6
CONTINUOUS
10
7.140748031496063
20
-2.4281102362204723
11
7.109251968503937
21
-2.4281102362204723
0
ARC
8
BLACK
10
7.109251968503937
20
-2.4399212598425195
40
0.0118110236220472
50
90.00000000
51
270.00000000
0
LINE
8
BLACK
6
CONTINUOUS
10
7.109251968503937
20
-2.4517322834645667
11
7.140748031496063
21
-2.4517322834645667
0
ARC
8
BLACK
10
7.140748031496063
20
-2.4399212598425195
40
0.0118110236220472
50
270.00000000
51
450.00000000
0
LINE
8
BLACK
6
CONTINUOUS
10
7.140748031496063
20
-2.768267716535433
11
7.109251968503937
21
-2.768267716535433
0
ARC
8
BLACK
10
7.109251968503937
20
-2.7800787401574802
40
0.0118110236220472
50
90.00000000
51
270.00000000
0
LINE
8
BLACK
6
CONTINUOUS
10
7.109251968503937
20
-2.7918897637795275
11
7.140748031496063
21
-2.7918897637795275
0
ARC
8
BLACK
10
7.140748031496063
20
-2.7800787401574802
40
0.0118110236220472
50
270.00000000
51
450.00000000
0
LINE
8
BLACK
6
CONTINUOUS
10
7.3112204724409446
20
-2.4281102362204723
11
7.2679133858267715
21
-2.4281102362204723
0
ARC
8
BLACK
10
7.2679133858267715
20
-2.4399212598425195
40
0.0118110236220472
50
90.00000000
51
270.00000000
0
LINE
8
BLACK
6
CONTINUOUS
10
7.2679133858267715
20
-2.4517322834645667
11
7.3112204724409446
21
-2.4517322834645667
0
ARC
8
BLACK
10
7.3112204724409446
20
-2.4399212598425195
40
0.0118110236220472
50
270.00000000
51
450.00000000
0
LINE
8
BLACK
6
CONTINUOUS
10
7.3112204724409446
20
-2.768267716535433
11
7.2679133858267715
21
-2.768267716535433
0
ARC
8
BLACK
10
7.2679133858267715
20
-2.7800787401574802
40
0.0118110236220472
50
90.00000000
51
270.00000000
0
LINE
8
BLACK
6
CONTINUOUS
10
7.2679133858267715
20
-2.7918897637795275
11
7.3112204724409446
21
-2.7918897637795275
0
ARC
8
BLACK
10
7.3112204724409446
20
-2.7800787401574802
40
0.0118110236220472
50
270.00000000
51
450.00000000
0
CIRCLE
8
BLACK
10
3.48
20
-1.6099999999999999
40
0.0068897637795276
0
CIRCLE
8
BLACK
10
7.1899999999999995
20
-3.4699999999999998
40
0.0068897637795276
0
CIRCLE
8
BLACK
10
3.96
20
-4.6600000000000001
40
0.0068897637795276
0
CIRCLE
8
BLACK
10
4.0599999999999996
20
-4.6600000000000001
40
0.0068897637795276
0
CIRCLE
8
BLACK
10
3.96
20
-4.7599999999999998
40
0.0068897637795276
0
CIRCLE
8
BLACK
10
4.0599999999999996
20
-4.7599999999999998
40
0.0068897637795276
0
CIRCLE
8
BLACK
10
3.96
20
-4.8600000000000003
40
0.0068897637795276
0
CIRCLE
8
BLACK
10
4.0599999999999996
20
-4.8600000000000003
40
0.0068897637795276
0
CIRCLE
8
BLACK
10
7.21
20
-1.5999999999999999
40
0.0068897637795276
0
CIRCLE
8
BLACK
10
4.1986614173228345
20
-2.2016535433070867
40
0.0068897637795276
0
CIRCLE
8
BLACK
10
4.1986614173228345
20
-2.9614960629921261
40
0.0068897637795276
0
CIRCLE
8
BLACK
10
6.3884251968503936
20
-2.2016535433070867
40
0.0068897637795276
0
CIRCLE
8
BLACK
10
6.3884251968503936
20
-2.9614960629921261
40
0.0068897637795276
0
CIRCLE
8
BLACK
10
3.8644094488188974
20
-2.2016535433070867
40
0.0068897637795276
0
CIRCLE
8
BLACK
10
6.7226771653543302
20
-2.2016535433070867
40
0.0068897637795276
0
CIRCLE
8
BLACK
10
3.8644094488188974
20
-2.9614960629921261
40
0.0068897637795276
0
CIRCLE
8
BLACK
10
6.7226771653543302
20
-2.9614960629921261
40
0.0068897637795276
0
CIRCLE
8
BLACK
10
4.1699999999999999
20
-5.0899999999999999
40
0.0068897637795276
0
CIRCLE
8
BLACK
10
4.0700000000000003
20
-5.0899999999999999
40
0.0068897637795276
0
CIRCLE
8
BLACK
10
3.9699999999999998
20
-5.0899999999999999
40
0.0068897637795276
0
CIRCLE
8
BLACK
10
3.8700000000000001
20
-5.0899999999999999
40
0.0068897637795276
  0
ENDSEC
  0
EOF
