  0
SECTION
  2
HEADER
  9
$ANGBASE
  50
0.0
  9
$ANGDIR
  70
1
  9
$MEASUREMENT
  70
0
  9
$INSUNITS
  70
1
  0
ENDSEC
  0
SECTION
  2
TABLES
  0
TABLE
  2
LTYPE
  70
4
  0
LTYPE
  5
40F
  2
CONTINUOUS
  70
0
  3
Solid line
  72
65
  73
0
  40
0.0
  0
LTYPE
  5
410
  2
DASHDOT
 70
0
  3
Dash Dot ____ _ ____ _
 72
65
 73
4
 40
2.0
 49
1.25
 49
-0.25
 49
0.25
 49
-0.25
  0
LTYPE
  5
411
  2
DASHED
 70
0
  3
Dashed __ __ __ __ __
 72
65
 73
2
 40
0.75
 49
0.5
 49
-0.25
  0
LTYPE
  5
43B
  2
DOTTED
 70
0
  3
Dotted .  .  .  .
 72
65
 73
2
 40
0.2
 49
0.0
 49
-0.2
  0
ENDTAB
  0
TABLE
  2
STYLE
  70
4
  0
STYLE
  2
KICAD
  70
0
  40
0
  41
1
  42
1
  50
0
  71
0
  3
isocp.shx
  0
STYLE
  2
KICADB
  70
0
  40
0
  41
1
  42
1
  50
0
  71
0
  3
isocp.shx
  0
STYLE
  2
KICADI
  70
0
  40
0
  41
1
  42
1
  50
15
  71
0
  3
isocp.shx
  0
STYLE
  2
KICADBI
  70
0
  40
0
  41
1
  42
1
  50
15
  71
0
  3
isocp.shx
  0
ENDTAB
  0
TABLE
  2
LAYER
  70
1
  0
LAYER
  2
BLACK
  70
0
  62
250
  6
CONTINUOUS
  0
ENDTAB
  0
ENDSEC
  0
SECTION
  2
ENTITIES
0
LINE
8
BLACK
6
CONTINUOUS
10
9.4859701968503938
20
-6.3094577952755904
11
9.4934614566929127
21
-6.3118918897637792
0
LINE
8
BLACK
6
CONTINUOUS
10
9.4934614566929127
20
-6.3118918897637792
11
9.5004797637795271
21
-6.3154678740157477
0
LINE
8
BLACK
6
CONTINUOUS
10
9.5004797637795271
20
-6.3154678740157477
11
9.5068522047244084
21
-6.3200977165354333
0
LINE
8
BLACK
6
CONTINUOUS
10
9.5068522047244084
20
-6.3200977165354333
11
9.5124219685039364
21
-6.3256674803149604
0
LINE
8
BLACK
6
CONTINUOUS
10
9.5124219685039364
20
-6.3256674803149604
11
9.517051811023622
21
-6.3320399212598426
0
LINE
8
BLACK
6
CONTINUOUS
10
9.517051811023622
20
-6.3320399212598426
11
9.5206277952755904
21
-6.3390582283464569
0
LINE
8
BLACK
6
CONTINUOUS
10
9.5206277952755904
20
-6.3390582283464569
11
9.5230618897637793
21
-6.3465494881889759
0
LINE
8
BLACK
6
CONTINUOUS
10
9.5230618897637793
20
-6.3465494881889759
11
9.5242940944881891
21
-6.3543293307086612
0
LINE
8
BLACK
6
CONTINUOUS
10
9.5242940944881891
20
-6.3543293307086612
11
9.5242940944881891
21
-6.3622061023622045
0
LINE
8
BLACK
6
CONTINUOUS
10
9.5242940944881891
20
-6.3622061023622045
11
9.5230618897637793
21
-6.3699859448818898
0
LINE
8
BLACK
6
CONTINUOUS
10
9.5230618897637793
20
-6.3699859448818898
11
9.5206277952755904
21
-6.3774772047244097
0
LINE
8
BLACK
6
CONTINUOUS
10
9.5206277952755904
20
-6.3774772047244097
11
9.517051811023622
21
-6.3844955118110231
0
LINE
8
BLACK
6
CONTINUOUS
10
9.517051811023622
20
-6.3844955118110231
11
9.5124219685039364
21
-6.3908679527559054
0
LINE
8
BLACK
6
CONTINUOUS
10
9.5124219685039364
20
-6.3908679527559054
11
9.5068522047244084
21
-6.3964377165354334
0
LINE
8
BLACK
6
CONTINUOUS
10
9.5068522047244084
20
-6.3964377165354334
11
9.5004797637795271
21
-6.401067559055118
0
LINE
8
BLACK
6
CONTINUOUS
10
9.5004797637795271
20
-6.401067559055118
11
9.4934614566929127
21
-6.4046435433070865
0
LINE
8
BLACK
6
CONTINUOUS
10
9.4934614566929127
20
-6.4046435433070865
11
9.4859701968503938
21
-6.4070776377952754
0
LINE
8
BLACK
6
CONTINUOUS
10
9.4859701968503938
20
-6.4070776377952754
11
9.4781903543307084
21
-6.4083098425196852
0
LINE
8
BLACK
6
CONTINUOUS
10
9.4781903543307084
20
-6.4083098425196852
11
9.4703135826771643
21
-6.4083098425196852
0
LINE
8
BLACK
6
CONTINUOUS
10
9.4703135826771643
20
-6.4083098425196852
11
9.4625337401574807
21
-6.4070776377952754
0
LINE
8
BLACK
6
CONTINUOUS
10
9.4625337401574807
20
-6.4070776377952754
11
9.45504248031496
21
-6.4046435433070865
0
LINE
8
BLACK
6
CONTINUOUS
10
9.45504248031496
20
-6.4046435433070865
11
9.4480241732283456
21
-6.401067559055118
0
LINE
8
BLACK
6
CONTINUOUS
10
9.4480241732283456
20
-6.401067559055118
11
9.4416517322834643
21
-6.3964377165354334
0
LINE
8
BLACK
6
CONTINUOUS
10
9.4416517322834643
20
-6.3964377165354334
11
9.4360819685039363
21
-6.3908679527559054
0
LINE
8
BLACK
6
CONTINUOUS
10
9.4360819685039363
20
-6.3908679527559054
11
9.4314521259842525
21
-6.3844955118110231
0
LINE
8
BLACK
6
CONTINUOUS
10
9.4314521259842525
20
-6.3844955118110231
11
9.4278761417322841
21
-6.3774772047244097
0
LINE
8
BLACK
6
CONTINUOUS
10
9.4278761417322841
20
-6.3774772047244097
11
9.4254420472440934
21
-6.3699859448818898
0
LINE
8
BLACK
6
CONTINUOUS
10
9.4254420472440934
20
-6.3699859448818898
11
9.4242098425196854
21
-6.3622061023622045
0
LINE
8
BLACK
6
CONTINUOUS
10
9.4242098425196854
20
-6.3622061023622045
11
9.4242098425196854
21
-6.3544720472440943
0
LINE
8
BLACK
6
CONTINUOUS
10
9.4242098425196854
20
-6.3544720472440943
11
9.4242098425196854
21
-6.3543293307086612
0
LINE
8
BLACK
6
CONTINUOUS
10
9.4242098425196854
20
-6.3543293307086612
11
9.4254420472440934
21
-6.3465494881889759
0
LINE
8
BLACK
6
CONTINUOUS
10
9.4254420472440934
20
-6.3465494881889759
11
9.4278761417322841
21
-6.3390582283464569
0
LINE
8
BLACK
6
CONTINUOUS
10
9.4278761417322841
20
-6.3390582283464569
11
9.4314521259842525
21
-6.3320399212598426
0
LINE
8
BLACK
6
CONTINUOUS
10
9.4314521259842525
20
-6.3320399212598426
11
9.4360819685039363
21
-6.3256674803149604
0
LINE
8
BLACK
6
CONTINUOUS
10
9.4360819685039363
20
-6.3256674803149604
11
9.4416517322834643
21
-6.3200977165354333
0
LINE
8
BLACK
6
CONTINUOUS
10
9.4416517322834643
20
-6.3200977165354333
11
9.4480241732283456
21
-6.3154678740157477
0
LINE
8
BLACK
6
CONTINUOUS
10
9.4480241732283456
20
-6.3154678740157477
11
9.45504248031496
21
-6.3118918897637792
0
LINE
8
BLACK
6
CONTINUOUS
10
9.45504248031496
20
-6.3118918897637792
11
9.4625337401574807
21
-6.3094577952755904
0
LINE
8
BLACK
6
CONTINUOUS
10
9.4625337401574807
20
-6.3094577952755904
11
9.4703135826771643
21
-6.3082255905511806
0
LINE
8
BLACK
6
CONTINUOUS
10
9.4703135826771643
20
-6.3082255905511806
11
9.4781903543307084
21
-6.3082255905511806
0
LINE
8
BLACK
6
CONTINUOUS
10
9.4781903543307084
20
-6.3082255905511806
11
9.4859701968503938
21
-6.3094577952755904
0
LINE
8
BLACK
6
CONTINUOUS
10
9.4260236220472446
20
-6.3620633858267714
11
9.4272111811023613
21
-6.3695612204724412
0
LINE
8
BLACK
6
CONTINUOUS
10
9.4272111811023613
20
-6.3695612204724412
11
9.4295570078740152
21
-6.376780984251968
0
LINE
8
BLACK
6
CONTINUOUS
10
9.4295570078740152
20
-6.376780984251968
11
9.4330033858267708
21
-6.3835448818897635
0
LINE
8
BLACK
6
CONTINUOUS
10
9.4330033858267708
20
-6.3835448818897635
11
9.4374654330708658
21
-6.3896863779527555
0
LINE
8
BLACK
6
CONTINUOUS
10
9.4374654330708658
20
-6.3896863779527555
11
9.4428333070866142
21
-6.3950542519685039
0
LINE
8
BLACK
6
CONTINUOUS
10
9.4428333070866142
20
-6.3950542519685039
11
9.4489748031496053
21
-6.399516299212598
0
LINE
8
BLACK
6
CONTINUOUS
10
9.4489748031496053
20
-6.399516299212598
11
9.4557387007874016
21
-6.4029626771653545
0
LINE
8
BLACK
6
CONTINUOUS
10
9.4557387007874016
20
-6.4029626771653545
11
9.4629584645669294
21
-6.4053085039370075
0
LINE
8
BLACK
6
CONTINUOUS
10
9.4629584645669294
20
-6.4053085039370075
11
9.4704562992125982
21
-6.4064960629921259
0
LINE
8
BLACK
6
CONTINUOUS
10
9.4704562992125982
20
-6.4064960629921259
11
9.4780476377952763
21
-6.4064960629921259
0
LINE
8
BLACK
6
CONTINUOUS
10
9.4780476377952763
20
-6.4064960629921259
11
9.4855454724409451
21
-6.4053085039370075
0
LINE
8
BLACK
6
CONTINUOUS
10
9.4855454724409451
20
-6.4053085039370075
11
9.4927652362204729
21
-6.4029626771653545
0
LINE
8
BLACK
6
CONTINUOUS
10
9.4927652362204729
20
-6.4029626771653545
11
9.4995291338582675
21
-6.399516299212598
0
LINE
8
BLACK
6
CONTINUOUS
10
9.4995291338582675
20
-6.399516299212598
11
9.5056706299212603
21
-6.3950542519685039
0
LINE
8
BLACK
6
CONTINUOUS
10
9.5056706299212603
20
-6.3950542519685039
11
9.5110385039370069
21
-6.3896863779527555
0
LINE
8
BLACK
6
CONTINUOUS
10
9.5110385039370069
20
-6.3896863779527555
11
9.5155005511811019
21
-6.3835448818897635
0
LINE
8
BLACK
6
CONTINUOUS
10
9.5155005511811019
20
-6.3835448818897635
11
9.5189469291338575
21
-6.376780984251968
0
LINE
8
BLACK
6
CONTINUOUS
10
9.5189469291338575
20
-6.376780984251968
11
9.5212927559055114
21
-6.3695612204724412
0
LINE
8
BLACK
6
CONTINUOUS
10
9.5212927559055114
20
-6.3695612204724412
11
9.5224803149606299
21
-6.3620633858267714
0
LINE
8
BLACK
6
CONTINUOUS
10
9.5224803149606299
20
-6.3620633858267714
11
9.5224803149606299
21
-6.3544720472440943
0
LINE
8
BLACK
6
CONTINUOUS
10
9.5224803149606299
20
-6.3544720472440943
11
9.5212927559055114
21
-6.3469742125984254
0
LINE
8
BLACK
6
CONTINUOUS
10
9.5212927559055114
20
-6.3469742125984254
11
9.5189469291338575
21
-6.3397544488188977
0
LINE
8
BLACK
6
CONTINUOUS
10
9.5189469291338575
20
-6.3397544488188977
11
9.5155005511811019
21
-6.3329905511811022
0
LINE
8
BLACK
6
CONTINUOUS
10
9.5155005511811019
20
-6.3329905511811022
11
9.5110385039370069
21
-6.3268490551181102
0
LINE
8
BLACK
6
CONTINUOUS
10
9.5110385039370069
20
-6.3268490551181102
11
9.5056706299212603
21
-6.3214811811023619
0
LINE
8
BLACK
6
CONTINUOUS
10
9.5056706299212603
20
-6.3214811811023619
11
9.4995291338582675
21
-6.3170191338582677
0
LINE
8
BLACK
6
CONTINUOUS
10
9.4995291338582675
20
-6.3170191338582677
11
9.4927652362204729
21
-6.3135727559055113
0
LINE
8
BLACK
6
CONTINUOUS
10
9.4927652362204729
20
-6.3135727559055113
11
9.4855454724409451
21
-6.3112269291338583
0
LINE
8
BLACK
6
CONTINUOUS
10
9.4855454724409451
20
-6.3112269291338583
11
9.4780476377952763
21
-6.3100393700787398
0
LINE
8
BLACK
6
CONTINUOUS
10
9.4780476377952763
20
-6.3100393700787398
11
9.4704562992125982
21
-6.3100393700787398
0
LINE
8
BLACK
6
CONTINUOUS
10
9.4704562992125982
20
-6.3100393700787398
11
9.4629584645669294
21
-6.3112269291338583
0
LINE
8
BLACK
6
CONTINUOUS
10
9.4629584645669294
20
-6.3112269291338583
11
9.4557387007874016
21
-6.3135727559055113
0
LINE
8
BLACK
6
CONTINUOUS
10
9.4557387007874016
20
-6.3135727559055113
11
9.4489748031496053
21
-6.3170191338582677
0
LINE
8
BLACK
6
CONTINUOUS
10
9.4489748031496053
20
-6.3170191338582677
11
9.4428333070866142
21
-6.3214811811023619
0
LINE
8
BLACK
6
CONTINUOUS
10
9.4428333070866142
20
-6.3214811811023619
11
9.4374654330708658
21
-6.3268490551181102
0
LINE
8
BLACK
6
CONTINUOUS
10
9.4374654330708658
20
-6.3268490551181102
11
9.4330033858267708
21
-6.3329905511811022
0
LINE
8
BLACK
6
CONTINUOUS
10
9.4330033858267708
20
-6.3329905511811022
11
9.4295570078740152
21
-6.3397544488188977
0
LINE
8
BLACK
6
CONTINUOUS
10
9.4295570078740152
20
-6.3397544488188977
11
9.4272111811023613
21
-6.3469742125984254
0
LINE
8
BLACK
6
CONTINUOUS
10
9.4272111811023613
20
-6.3469742125984254
11
9.4260236220472446
21
-6.3544720472440943
0
LINE
8
BLACK
6
CONTINUOUS
10
9.4260236220472446
20
-6.3544720472440943
11
9.4260236220472446
21
-6.3620633858267714
0
LINE
8
BLACK
6
CONTINUOUS
10
9.7459701968503936
20
-6.3094577952755904
11
9.7534614566929125
21
-6.3118918897637792
0
LINE
8
BLACK
6
CONTINUOUS
10
9.7534614566929125
20
-6.3118918897637792
11
9.7604797637795269
21
-6.3154678740157477
0
LINE
8
BLACK
6
CONTINUOUS
10
9.7604797637795269
20
-6.3154678740157477
11
9.76685220472441
21
-6.3200977165354333
0
LINE
8
BLACK
6
CONTINUOUS
10
9.76685220472441
20
-6.3200977165354333
11
9.7724219685039362
21
-6.3256674803149604
0
LINE
8
BLACK
6
CONTINUOUS
10
9.7724219685039362
20
-6.3256674803149604
11
9.7770518110236218
21
-6.3320399212598426
0
LINE
8
BLACK
6
CONTINUOUS
10
9.7770518110236218
20
-6.3320399212598426
11
9.7806277952755902
21
-6.3390582283464569
0
LINE
8
BLACK
6
CONTINUOUS
10
9.7806277952755902
20
-6.3390582283464569
11
9.7830618897637791
21
-6.3465494881889759
0
LINE
8
BLACK
6
CONTINUOUS
10
9.7830618897637791
20
-6.3465494881889759
11
9.7842940944881889
21
-6.3543293307086612
0
LINE
8
BLACK
6
CONTINUOUS
10
9.7842940944881889
20
-6.3543293307086612
11
9.7842940944881889
21
-6.3622061023622045
0
LINE
8
BLACK
6
CONTINUOUS
10
9.7842940944881889
20
-6.3622061023622045
11
9.7830618897637791
21
-6.3699859448818898
0
LINE
8
BLACK
6
CONTINUOUS
10
9.7830618897637791
20
-6.3699859448818898
11
9.7806277952755902
21
-6.3774772047244097
0
LINE
8
BLACK
6
CONTINUOUS
10
9.7806277952755902
20
-6.3774772047244097
11
9.7770518110236218
21
-6.3844955118110231
0
LINE
8
BLACK
6
CONTINUOUS
10
9.7770518110236218
20
-6.3844955118110231
11
9.7724219685039362
21
-6.3908679527559054
0
LINE
8
BLACK
6
CONTINUOUS
10
9.7724219685039362
20
-6.3908679527559054
11
9.76685220472441
21
-6.3964377165354334
0
LINE
8
BLACK
6
CONTINUOUS
10
9.76685220472441
20
-6.3964377165354334
11
9.7604797637795269
21
-6.401067559055118
0
LINE
8
BLACK
6
CONTINUOUS
10
9.7604797637795269
20
-6.401067559055118
11
9.7534614566929125
21
-6.4046435433070865
0
LINE
8
BLACK
6
CONTINUOUS
10
9.7534614566929125
20
-6.4046435433070865
11
9.7459701968503936
21
-6.4070776377952754
0
LINE
8
BLACK
6
CONTINUOUS
10
9.7459701968503936
20
-6.4070776377952754
11
9.7381903543307082
21
-6.4083098425196852
0
LINE
8
BLACK
6
CONTINUOUS
10
9.7381903543307082
20
-6.4083098425196852
11
9.7303135826771658
21
-6.4083098425196852
0
LINE
8
BLACK
6
CONTINUOUS
10
9.7303135826771658
20
-6.4083098425196852
11
9.7225337401574805
21
-6.4070776377952754
0
LINE
8
BLACK
6
CONTINUOUS
10
9.7225337401574805
20
-6.4070776377952754
11
9.7150424803149598
21
-6.4046435433070865
0
LINE
8
BLACK
6
CONTINUOUS
10
9.7150424803149598
20
-6.4046435433070865
11
9.7080241732283454
21
-6.401067559055118
0
LINE
8
BLACK
6
CONTINUOUS
10
9.7080241732283454
20
-6.401067559055118
11
9.7016517322834641
21
-6.3964377165354334
0
LINE
8
BLACK
6
CONTINUOUS
10
9.7016517322834641
20
-6.3964377165354334
11
9.6960819685039361
21
-6.3908679527559054
0
LINE
8
BLACK
6
CONTINUOUS
10
9.6960819685039361
20
-6.3908679527559054
11
9.6914521259842523
21
-6.3844955118110231
0
LINE
8
BLACK
6
CONTINUOUS
10
9.6914521259842523
20
-6.3844955118110231
11
9.6878761417322838
21
-6.3774772047244097
0
LINE
8
BLACK
6
CONTINUOUS
10
9.6878761417322838
20
-6.3774772047244097
11
9.685442047244095
21
-6.3699859448818898
0
LINE
8
BLACK
6
CONTINUOUS
10
9.685442047244095
20
-6.3699859448818898
11
9.6842098425196852
21
-6.3622061023622045
0
LINE
8
BLACK
6
CONTINUOUS
10
9.6842098425196852
20
-6.3622061023622045
11
9.6842098425196852
21
-6.3544720472440943
0
LINE
8
BLACK
6
CONTINUOUS
10
9.6842098425196852
20
-6.3544720472440943
11
9.6842098425196852
21
-6.3543293307086612
0
LINE
8
BLACK
6
CONTINUOUS
10
9.6842098425196852
20
-6.3543293307086612
11
9.685442047244095
21
-6.3465494881889759
0
LINE
8
BLACK
6
CONTINUOUS
10
9.685442047244095
20
-6.3465494881889759
11
9.6878761417322838
21
-6.3390582283464569
0
LINE
8
BLACK
6
CONTINUOUS
10
9.6878761417322838
20
-6.3390582283464569
11
9.6914521259842523
21
-6.3320399212598426
0
LINE
8
BLACK
6
CONTINUOUS
10
9.6914521259842523
20
-6.3320399212598426
11
9.6960819685039361
21
-6.3256674803149604
0
LINE
8
BLACK
6
CONTINUOUS
10
9.6960819685039361
20
-6.3256674803149604
11
9.7016517322834641
21
-6.3200977165354333
0
LINE
8
BLACK
6
CONTINUOUS
10
9.7016517322834641
20
-6.3200977165354333
11
9.7080241732283454
21
-6.3154678740157477
0
LINE
8
BLACK
6
CONTINUOUS
10
9.7080241732283454
20
-6.3154678740157477
11
9.7150424803149598
21
-6.3118918897637792
0
LINE
8
BLACK
6
CONTINUOUS
10
9.7150424803149598
20
-6.3118918897637792
11
9.7225337401574805
21
-6.3094577952755904
0
LINE
8
BLACK
6
CONTINUOUS
10
9.7225337401574805
20
-6.3094577952755904
11
9.7303135826771658
21
-6.3082255905511806
0
LINE
8
BLACK
6
CONTINUOUS
10
9.7303135826771658
20
-6.3082255905511806
11
9.7381903543307082
21
-6.3082255905511806
0
LINE
8
BLACK
6
CONTINUOUS
10
9.7381903543307082
20
-6.3082255905511806
11
9.7459701968503936
21
-6.3094577952755904
0
LINE
8
BLACK
6
CONTINUOUS
10
9.6860236220472444
20
-6.3620633858267714
11
9.6872111811023611
21
-6.3695612204724412
0
LINE
8
BLACK
6
CONTINUOUS
10
9.6872111811023611
20
-6.3695612204724412
11
9.689557007874015
21
-6.376780984251968
0
LINE
8
BLACK
6
CONTINUOUS
10
9.689557007874015
20
-6.376780984251968
11
9.6930033858267706
21
-6.3835448818897635
0
LINE
8
BLACK
6
CONTINUOUS
10
9.6930033858267706
20
-6.3835448818897635
11
9.6974654330708656
21
-6.3896863779527555
0
LINE
8
BLACK
6
CONTINUOUS
10
9.6974654330708656
20
-6.3896863779527555
11
9.702833307086614
21
-6.3950542519685039
0
LINE
8
BLACK
6
CONTINUOUS
10
9.702833307086614
20
-6.3950542519685039
11
9.7089748031496068
21
-6.399516299212598
0
LINE
8
BLACK
6
CONTINUOUS
10
9.7089748031496068
20
-6.399516299212598
11
9.7157387007874014
21
-6.4029626771653545
0
LINE
8
BLACK
6
CONTINUOUS
10
9.7157387007874014
20
-6.4029626771653545
11
9.7229584645669291
21
-6.4053085039370075
0
LINE
8
BLACK
6
CONTINUOUS
10
9.7229584645669291
20
-6.4053085039370075
11
9.730456299212598
21
-6.4064960629921259
0
LINE
8
BLACK
6
CONTINUOUS
10
9.730456299212598
20
-6.4064960629921259
11
9.738047637795276
21
-6.4064960629921259
0
LINE
8
BLACK
6
CONTINUOUS
10
9.738047637795276
20
-6.4064960629921259
11
9.7455454724409449
21
-6.4053085039370075
0
LINE
8
BLACK
6
CONTINUOUS
10
9.7455454724409449
20
-6.4053085039370075
11
9.7527652362204726
21
-6.4029626771653545
0
LINE
8
BLACK
6
CONTINUOUS
10
9.7527652362204726
20
-6.4029626771653545
11
9.7595291338582673
21
-6.399516299212598
0
LINE
8
BLACK
6
CONTINUOUS
10
9.7595291338582673
20
-6.399516299212598
11
9.7656706299212601
21
-6.3950542519685039
0
LINE
8
BLACK
6
CONTINUOUS
10
9.7656706299212601
20
-6.3950542519685039
11
9.7710385039370085
21
-6.3896863779527555
0
LINE
8
BLACK
6
CONTINUOUS
10
9.7710385039370085
20
-6.3896863779527555
11
9.7755005511811017
21
-6.3835448818897635
0
LINE
8
BLACK
6
CONTINUOUS
10
9.7755005511811017
20
-6.3835448818897635
11
9.7789469291338573
21
-6.376780984251968
0
LINE
8
BLACK
6
CONTINUOUS
10
9.7789469291338573
20
-6.376780984251968
11
9.7812927559055112
21
-6.3695612204724412
0
LINE
8
BLACK
6
CONTINUOUS
10
9.7812927559055112
20
-6.3695612204724412
11
9.7824803149606296
21
-6.3620633858267714
0
LINE
8
BLACK
6
CONTINUOUS
10
9.7824803149606296
20
-6.3620633858267714
11
9.7824803149606296
21
-6.3544720472440943
0
LINE
8
BLACK
6
CONTINUOUS
10
9.7824803149606296
20
-6.3544720472440943
11
9.7812927559055112
21
-6.3469742125984254
0
LINE
8
BLACK
6
CONTINUOUS
10
9.7812927559055112
20
-6.3469742125984254
11
9.7789469291338573
21
-6.3397544488188977
0
LINE
8
BLACK
6
CONTINUOUS
10
9.7789469291338573
20
-6.3397544488188977
11
9.7755005511811017
21
-6.3329905511811022
0
LINE
8
BLACK
6
CONTINUOUS
10
9.7755005511811017
20
-6.3329905511811022
11
9.7710385039370085
21
-6.3268490551181102
0
LINE
8
BLACK
6
CONTINUOUS
10
9.7710385039370085
20
-6.3268490551181102
11
9.7656706299212601
21
-6.3214811811023619
0
LINE
8
BLACK
6
CONTINUOUS
10
9.7656706299212601
20
-6.3214811811023619
11
9.7595291338582673
21
-6.3170191338582677
0
LINE
8
BLACK
6
CONTINUOUS
10
9.7595291338582673
20
-6.3170191338582677
11
9.7527652362204726
21
-6.3135727559055113
0
LINE
8
BLACK
6
CONTINUOUS
10
9.7527652362204726
20
-6.3135727559055113
11
9.7455454724409449
21
-6.3112269291338583
0
LINE
8
BLACK
6
CONTINUOUS
10
9.7455454724409449
20
-6.3112269291338583
11
9.738047637795276
21
-6.3100393700787398
0
LINE
8
BLACK
6
CONTINUOUS
10
9.738047637795276
20
-6.3100393700787398
11
9.730456299212598
21
-6.3100393700787398
0
LINE
8
BLACK
6
CONTINUOUS
10
9.730456299212598
20
-6.3100393700787398
11
9.7229584645669291
21
-6.3112269291338583
0
LINE
8
BLACK
6
CONTINUOUS
10
9.7229584645669291
20
-6.3112269291338583
11
9.7157387007874014
21
-6.3135727559055113
0
LINE
8
BLACK
6
CONTINUOUS
10
9.7157387007874014
20
-6.3135727559055113
11
9.7089748031496068
21
-6.3170191338582677
0
LINE
8
BLACK
6
CONTINUOUS
10
9.7089748031496068
20
-6.3170191338582677
11
9.702833307086614
21
-6.3214811811023619
0
LINE
8
BLACK
6
CONTINUOUS
10
9.702833307086614
20
-6.3214811811023619
11
9.6974654330708656
21
-6.3268490551181102
0
LINE
8
BLACK
6
CONTINUOUS
10
9.6974654330708656
20
-6.3268490551181102
11
9.6930033858267706
21
-6.3329905511811022
0
LINE
8
BLACK
6
CONTINUOUS
10
9.6930033858267706
20
-6.3329905511811022
11
9.689557007874015
21
-6.3397544488188977
0
LINE
8
BLACK
6
CONTINUOUS
10
9.689557007874015
20
-6.3397544488188977
11
9.6872111811023611
21
-6.3469742125984254
0
LINE
8
BLACK
6
CONTINUOUS
10
9.6872111811023611
20
-6.3469742125984254
11
9.6860236220472444
21
-6.3544720472440943
0
LINE
8
BLACK
6
CONTINUOUS
10
9.6860236220472444
20
-6.3544720472440943
11
9.6860236220472444
21
-6.3620633858267714
0
LINE
8
BLACK
6
CONTINUOUS
10
9.9059701968503937
20
-6.3044577952755905
11
9.9134614566929127
21
-6.3068918897637793
0
LINE
8
BLACK
6
CONTINUOUS
10
9.9134614566929127
20
-6.3068918897637793
11
9.920479763779527
21
-6.3104678740157478
0
LINE
8
BLACK
6
CONTINUOUS
10
9.920479763779527
20
-6.3104678740157478
11
9.9268522047244101
21
-6.3150977165354325
0
LINE
8
BLACK
6
CONTINUOUS
10
9.9268522047244101
20
-6.3150977165354325
11
9.9324219685039363
21
-6.3206674803149605
0
LINE
8
BLACK
6
CONTINUOUS
10
9.9324219685039363
20
-6.3206674803149605
11
9.9370518110236219
21
-6.3270399212598427
0
LINE
8
BLACK
6
CONTINUOUS
10
9.9370518110236219
20
-6.3270399212598427
11
9.9406277952755904
21
-6.3340582283464562
0
LINE
8
BLACK
6
CONTINUOUS
10
9.9406277952755904
20
-6.3340582283464562
11
9.9430618897637792
21
-6.341549488188976
0
LINE
8
BLACK
6
CONTINUOUS
10
9.9430618897637792
20
-6.341549488188976
11
9.944294094488189
21
-6.3493293307086613
0
LINE
8
BLACK
6
CONTINUOUS
10
9.944294094488189
20
-6.3493293307086613
11
9.944294094488189
21
-6.3572061023622046
0
LINE
8
BLACK
6
CONTINUOUS
10
9.944294094488189
20
-6.3572061023622046
11
9.9430618897637792
21
-6.36498594488189
0
LINE
8
BLACK
6
CONTINUOUS
10
9.9430618897637792
20
-6.36498594488189
11
9.9406277952755904
21
-6.3724772047244089
0
LINE
8
BLACK
6
CONTINUOUS
10
9.9406277952755904
20
-6.3724772047244089
11
9.9370518110236219
21
-6.3794955118110233
0
LINE
8
BLACK
6
CONTINUOUS
10
9.9370518110236219
20
-6.3794955118110233
11
9.9324219685039363
21
-6.3858679527559055
0
LINE
8
BLACK
6
CONTINUOUS
10
9.9324219685039363
20
-6.3858679527559055
11
9.9268522047244101
21
-6.3914377165354326
0
LINE
8
BLACK
6
CONTINUOUS
10
9.9268522047244101
20
-6.3914377165354326
11
9.920479763779527
21
-6.3960675590551181
0
LINE
8
BLACK
6
CONTINUOUS
10
9.920479763779527
20
-6.3960675590551181
11
9.9134614566929127
21
-6.3996435433070866
0
LINE
8
BLACK
6
CONTINUOUS
10
9.9134614566929127
20
-6.3996435433070866
11
9.9059701968503937
21
-6.4020776377952755
0
LINE
8
BLACK
6
CONTINUOUS
10
9.9059701968503937
20
-6.4020776377952755
11
9.8981903543307084
21
-6.4033098425196853
0
LINE
8
BLACK
6
CONTINUOUS
10
9.8981903543307084
20
-6.4033098425196853
11
9.890313582677166
21
-6.4033098425196853
0
LINE
8
BLACK
6
CONTINUOUS
10
9.890313582677166
20
-6.4033098425196853
11
9.8825337401574807
21
-6.4020776377952755
0
LINE
8
BLACK
6
CONTINUOUS
10
9.8825337401574807
20
-6.4020776377952755
11
9.8750424803149599
21
-6.3996435433070866
0
LINE
8
BLACK
6
CONTINUOUS
10
9.8750424803149599
20
-6.3996435433070866
11
9.8680241732283456
21
-6.3960675590551181
0
LINE
8
BLACK
6
CONTINUOUS
10
9.8680241732283456
20
-6.3960675590551181
11
9.8616517322834643
21
-6.3914377165354326
0
LINE
8
BLACK
6
CONTINUOUS
10
9.8616517322834643
20
-6.3914377165354326
11
9.8560819685039363
21
-6.3858679527559055
0
LINE
8
BLACK
6
CONTINUOUS
10
9.8560819685039363
20
-6.3858679527559055
11
9.8514521259842525
21
-6.3794955118110233
0
LINE
8
BLACK
6
CONTINUOUS
10
9.8514521259842525
20
-6.3794955118110233
11
9.847876141732284
21
-6.3724772047244089
0
LINE
8
BLACK
6
CONTINUOUS
10
9.847876141732284
20
-6.3724772047244089
11
9.8454420472440951
21
-6.36498594488189
0
LINE
8
BLACK
6
CONTINUOUS
10
9.8454420472440951
20
-6.36498594488189
11
9.8442098425196853
21
-6.3572061023622046
0
LINE
8
BLACK
6
CONTINUOUS
10
9.8442098425196853
20
-6.3572061023622046
11
9.8442098425196853
21
-6.3494720472440944
0
LINE
8
BLACK
6
CONTINUOUS
10
9.8442098425196853
20
-6.3494720472440944
11
9.8442098425196853
21
-6.3493293307086613
0
LINE
8
BLACK
6
CONTINUOUS
10
9.8442098425196853
20
-6.3493293307086613
11
9.8454420472440951
21
-6.341549488188976
0
LINE
8
BLACK
6
CONTINUOUS
10
9.8454420472440951
20
-6.341549488188976
11
9.847876141732284
21
-6.3340582283464562
0
LINE
8
BLACK
6
CONTINUOUS
10
9.847876141732284
20
-6.3340582283464562
11
9.8514521259842525
21
-6.3270399212598427
0
LINE
8
BLACK
6
CONTINUOUS
10
9.8514521259842525
20
-6.3270399212598427
11
9.8560819685039363
21
-6.3206674803149605
0
LINE
8
BLACK
6
CONTINUOUS
10
9.8560819685039363
20
-6.3206674803149605
11
9.8616517322834643
21
-6.3150977165354325
0
LINE
8
BLACK
6
CONTINUOUS
10
9.8616517322834643
20
-6.3150977165354325
11
9.8680241732283456
21
-6.3104678740157478
0
LINE
8
BLACK
6
CONTINUOUS
10
9.8680241732283456
20
-6.3104678740157478
11
9.8750424803149599
21
-6.3068918897637793
0
LINE
8
BLACK
6
CONTINUOUS
10
9.8750424803149599
20
-6.3068918897637793
11
9.8825337401574807
21
-6.3044577952755905
0
LINE
8
BLACK
6
CONTINUOUS
10
9.8825337401574807
20
-6.3044577952755905
11
9.890313582677166
21
-6.3032255905511807
0
LINE
8
BLACK
6
CONTINUOUS
10
9.890313582677166
20
-6.3032255905511807
11
9.8981903543307084
21
-6.3032255905511807
0
LINE
8
BLACK
6
CONTINUOUS
10
9.8981903543307084
20
-6.3032255905511807
11
9.9059701968503937
21
-6.3044577952755905
0
LINE
8
BLACK
6
CONTINUOUS
10
9.8460236220472446
20
-6.3570633858267716
11
9.8472111811023613
21
-6.3645612204724404
0
LINE
8
BLACK
6
CONTINUOUS
10
9.8472111811023613
20
-6.3645612204724404
11
9.8495570078740151
21
-6.3717809842519681
0
LINE
8
BLACK
6
CONTINUOUS
10
9.8495570078740151
20
-6.3717809842519681
11
9.8530033858267707
21
-6.3785448818897637
0
LINE
8
BLACK
6
CONTINUOUS
10
9.8530033858267707
20
-6.3785448818897637
11
9.8574654330708658
21
-6.3846863779527556
0
LINE
8
BLACK
6
CONTINUOUS
10
9.8574654330708658
20
-6.3846863779527556
11
9.8628333070866141
21
-6.390054251968504
0
LINE
8
BLACK
6
CONTINUOUS
10
9.8628333070866141
20
-6.390054251968504
11
9.868974803149607
21
-6.3945162992125981
0
LINE
8
BLACK
6
CONTINUOUS
10
9.868974803149607
20
-6.3945162992125981
11
9.8757387007874016
21
-6.3979626771653546
0
LINE
8
BLACK
6
CONTINUOUS
10
9.8757387007874016
20
-6.3979626771653546
11
9.8829584645669293
21
-6.4003085039370076
0
LINE
8
BLACK
6
CONTINUOUS
10
9.8829584645669293
20
-6.4003085039370076
11
9.8904562992125982
21
-6.401496062992126
0
LINE
8
BLACK
6
CONTINUOUS
10
9.8904562992125982
20
-6.401496062992126
11
9.8980476377952762
21
-6.401496062992126
0
LINE
8
BLACK
6
CONTINUOUS
10
9.8980476377952762
20
-6.401496062992126
11
9.9055454724409451
21
-6.4003085039370076
0
LINE
8
BLACK
6
CONTINUOUS
10
9.9055454724409451
20
-6.4003085039370076
11
9.9127652362204728
21
-6.3979626771653546
0
LINE
8
BLACK
6
CONTINUOUS
10
9.9127652362204728
20
-6.3979626771653546
11
9.9195291338582674
21
-6.3945162992125981
0
LINE
8
BLACK
6
CONTINUOUS
10
9.9195291338582674
20
-6.3945162992125981
11
9.9256706299212603
21
-6.390054251968504
0
LINE
8
BLACK
6
CONTINUOUS
10
9.9256706299212603
20
-6.390054251968504
11
9.9310385039370068
21
-6.3846863779527556
0
LINE
8
BLACK
6
CONTINUOUS
10
9.9310385039370068
20
-6.3846863779527556
11
9.9355005511811019
21
-6.3785448818897637
0
LINE
8
BLACK
6
CONTINUOUS
10
9.9355005511811019
20
-6.3785448818897637
11
9.9389469291338575
21
-6.3717809842519681
0
LINE
8
BLACK
6
CONTINUOUS
10
9.9389469291338575
20
-6.3717809842519681
11
9.9412927559055113
21
-6.3645612204724404
0
LINE
8
BLACK
6
CONTINUOUS
10
9.9412927559055113
20
-6.3645612204724404
11
9.9424803149606298
21
-6.3570633858267716
0
LINE
8
BLACK
6
CONTINUOUS
10
9.9424803149606298
20
-6.3570633858267716
11
9.9424803149606298
21
-6.3494720472440944
0
LINE
8
BLACK
6
CONTINUOUS
10
9.9424803149606298
20
-6.3494720472440944
11
9.9412927559055113
21
-6.3419742125984246
0
LINE
8
BLACK
6
CONTINUOUS
10
9.9412927559055113
20
-6.3419742125984246
11
9.9389469291338575
21
-6.3347544488188978
0
LINE
8
BLACK
6
CONTINUOUS
10
9.9389469291338575
20
-6.3347544488188978
11
9.9355005511811019
21
-6.3279905511811023
0
LINE
8
BLACK
6
CONTINUOUS
10
9.9355005511811019
20
-6.3279905511811023
11
9.9310385039370068
21
-6.3218490551181103
0
LINE
8
BLACK
6
CONTINUOUS
10
9.9310385039370068
20
-6.3218490551181103
11
9.9256706299212603
21
-6.316481181102362
0
LINE
8
BLACK
6
CONTINUOUS
10
9.9256706299212603
20
-6.316481181102362
11
9.9195291338582674
21
-6.3120191338582678
0
LINE
8
BLACK
6
CONTINUOUS
10
9.9195291338582674
20
-6.3120191338582678
11
9.9127652362204728
21
-6.3085727559055114
0
LINE
8
BLACK
6
CONTINUOUS
10
9.9127652362204728
20
-6.3085727559055114
11
9.9055454724409451
21
-6.3062269291338584
0
LINE
8
BLACK
6
CONTINUOUS
10
9.9055454724409451
20
-6.3062269291338584
11
9.8980476377952762
21
-6.3050393700787399
0
LINE
8
BLACK
6
CONTINUOUS
10
9.8980476377952762
20
-6.3050393700787399
11
9.8904562992125982
21
-6.3050393700787399
0
LINE
8
BLACK
6
CONTINUOUS
10
9.8904562992125982
20
-6.3050393700787399
11
9.8829584645669293
21
-6.3062269291338584
0
LINE
8
BLACK
6
CONTINUOUS
10
9.8829584645669293
20
-6.3062269291338584
11
9.8757387007874016
21
-6.3085727559055114
0
LINE
8
BLACK
6
CONTINUOUS
10
9.8757387007874016
20
-6.3085727559055114
11
9.868974803149607
21
-6.3120191338582678
0
LINE
8
BLACK
6
CONTINUOUS
10
9.868974803149607
20
-6.3120191338582678
11
9.8628333070866141
21
-6.316481181102362
0
LINE
8
BLACK
6
CONTINUOUS
10
9.8628333070866141
20
-6.316481181102362
11
9.8574654330708658
21
-6.3218490551181103
0
LINE
8
BLACK
6
CONTINUOUS
10
9.8574654330708658
20
-6.3218490551181103
11
9.8530033858267707
21
-6.3279905511811023
0
LINE
8
BLACK
6
CONTINUOUS
10
9.8530033858267707
20
-6.3279905511811023
11
9.8495570078740151
21
-6.3347544488188978
0
LINE
8
BLACK
6
CONTINUOUS
10
9.8495570078740151
20
-6.3347544488188978
11
9.8472111811023613
21
-6.3419742125984246
0
LINE
8
BLACK
6
CONTINUOUS
10
9.8472111811023613
20
-6.3419742125984246
11
9.8460236220472446
21
-6.3494720472440944
0
LINE
8
BLACK
6
CONTINUOUS
10
9.8460236220472446
20
-6.3494720472440944
11
9.8460236220472446
21
-6.3570633858267716
0
LINE
8
BLACK
6
CONTINUOUS
10
10.1465434251968496
20
-6.2891971653543308
11
10.1540346850393703
21
-6.2916312598425197
0
LINE
8
BLACK
6
CONTINUOUS
10
10.1540346850393703
20
-6.2916312598425197
11
10.1610529921259847
21
-6.2952072440944882
0
LINE
8
BLACK
6
CONTINUOUS
10
10.1610529921259847
20
-6.2952072440944882
11
10.167425433070866
21
-6.2998370866141729
0
LINE
8
BLACK
6
CONTINUOUS
10
10.167425433070866
20
-6.2998370866141729
11
10.172995196850394
21
-6.3054068503937009
0
LINE
8
BLACK
6
CONTINUOUS
10
10.172995196850394
20
-6.3054068503937009
11
10.1776250393700778
21
-6.3117792913385822
0
LINE
8
BLACK
6
CONTINUOUS
10
10.1776250393700778
20
-6.3117792913385822
11
10.1812010236220463
21
-6.3187975984251965
0
LINE
8
BLACK
6
CONTINUOUS
10
10.1812010236220463
20
-6.3187975984251965
11
10.1836351181102351
21
-6.3262888582677164
0
LINE
8
BLACK
6
CONTINUOUS
10
10.1836351181102351
20
-6.3262888582677164
11
10.1848673228346449
21
-6.3340687007874017
0
LINE
8
BLACK
6
CONTINUOUS
10
10.1848673228346449
20
-6.3340687007874017
11
10.1848673228346449
21
-6.341945472440945
0
LINE
8
BLACK
6
CONTINUOUS
10
10.1848673228346449
20
-6.341945472440945
11
10.1836351181102351
21
-6.3497253149606294
0
LINE
8
BLACK
6
CONTINUOUS
10
10.1836351181102351
20
-6.3497253149606294
11
10.1812010236220463
21
-6.3572165748031493
0
LINE
8
BLACK
6
CONTINUOUS
10
10.1812010236220463
20
-6.3572165748031493
11
10.1776250393700778
21
-6.3642348818897636
0
LINE
8
BLACK
6
CONTINUOUS
10
10.1776250393700778
20
-6.3642348818897636
11
10.172995196850394
21
-6.3706073228346458
0
LINE
8
BLACK
6
CONTINUOUS
10
10.172995196850394
20
-6.3706073228346458
11
10.167425433070866
21
-6.3761770866141729
0
LINE
8
BLACK
6
CONTINUOUS
10
10.167425433070866
20
-6.3761770866141729
11
10.1610529921259847
21
-6.3808069291338585
0
LINE
8
BLACK
6
CONTINUOUS
10
10.1610529921259847
20
-6.3808069291338585
11
10.1540346850393703
21
-6.384382913385827
0
LINE
8
BLACK
6
CONTINUOUS
10
10.1540346850393703
20
-6.384382913385827
11
10.1465434251968496
21
-6.3868170078740159
0
LINE
8
BLACK
6
CONTINUOUS
10
10.1465434251968496
20
-6.3868170078740159
11
10.1387635826771643
21
-6.3880492125984247
0
LINE
8
BLACK
6
CONTINUOUS
10
10.1387635826771643
20
-6.3880492125984247
11
10.1308868110236219
21
-6.3880492125984247
0
LINE
8
BLACK
6
CONTINUOUS
10
10.1308868110236219
20
-6.3880492125984247
11
10.1231069685039365
21
-6.3868170078740159
0
LINE
8
BLACK
6
CONTINUOUS
10
10.1231069685039365
20
-6.3868170078740159
11
10.1156157086614176
21
-6.384382913385827
0
LINE
8
BLACK
6
CONTINUOUS
10
10.1156157086614176
20
-6.384382913385827
11
10.1085974015748032
21
-6.3808069291338585
0
LINE
8
BLACK
6
CONTINUOUS
10
10.1085974015748032
20
-6.3808069291338585
11
10.1022249606299201
21
-6.3761770866141729
0
LINE
8
BLACK
6
CONTINUOUS
10
10.1022249606299201
20
-6.3761770866141729
11
10.0966551968503939
21
-6.3706073228346458
0
LINE
8
BLACK
6
CONTINUOUS
10
10.0966551968503939
20
-6.3706073228346458
11
10.0920253543307084
21
-6.3642348818897636
0
LINE
8
BLACK
6
CONTINUOUS
10
10.0920253543307084
20
-6.3642348818897636
11
10.0884493700787399
21
-6.3572165748031493
0
LINE
8
BLACK
6
CONTINUOUS
10
10.0884493700787399
20
-6.3572165748031493
11
10.086015275590551
21
-6.3497253149606294
0
LINE
8
BLACK
6
CONTINUOUS
10
10.086015275590551
20
-6.3497253149606294
11
10.0847830708661412
21
-6.341945472440945
0
LINE
8
BLACK
6
CONTINUOUS
10
10.0847830708661412
20
-6.341945472440945
11
10.0847830708661412
21
-6.3342114173228348
0
LINE
8
BLACK
6
CONTINUOUS
10
10.0847830708661412
20
-6.3342114173228348
11
10.0847830708661412
21
-6.3340687007874017
0
LINE
8
BLACK
6
CONTINUOUS
10
10.0847830708661412
20
-6.3340687007874017
11
10.086015275590551
21
-6.3262888582677164
0
LINE
8
BLACK
6
CONTINUOUS
10
10.086015275590551
20
-6.3262888582677164
11
10.0884493700787399
21
-6.3187975984251965
0
LINE
8
BLACK
6
CONTINUOUS
10
10.0884493700787399
20
-6.3187975984251965
11
10.0920253543307084
21
-6.3117792913385822
0
LINE
8
BLACK
6
CONTINUOUS
10
10.0920253543307084
20
-6.3117792913385822
11
10.0966551968503939
21
-6.3054068503937009
0
LINE
8
BLACK
6
CONTINUOUS
10
10.0966551968503939
20
-6.3054068503937009
11
10.1022249606299201
21
-6.2998370866141729
0
LINE
8
BLACK
6
CONTINUOUS
10
10.1022249606299201
20
-6.2998370866141729
11
10.1085974015748032
21
-6.2952072440944882
0
LINE
8
BLACK
6
CONTINUOUS
10
10.1085974015748032
20
-6.2952072440944882
11
10.1156157086614176
21
-6.2916312598425197
0
LINE
8
BLACK
6
CONTINUOUS
10
10.1156157086614176
20
-6.2916312598425197
11
10.1231069685039365
21
-6.2891971653543308
0
LINE
8
BLACK
6
CONTINUOUS
10
10.1231069685039365
20
-6.2891971653543308
11
10.1308868110236219
21
-6.2879649606299211
0
LINE
8
BLACK
6
CONTINUOUS
10
10.1308868110236219
20
-6.2879649606299211
11
10.1387635826771643
21
-6.2879649606299211
0
LINE
8
BLACK
6
CONTINUOUS
10
10.1387635826771643
20
-6.2879649606299211
11
10.1465434251968496
21
-6.2891971653543308
0
LINE
8
BLACK
6
CONTINUOUS
10
10.0865968503937005
20
-6.3418027559055119
11
10.0877844094488189
21
-6.3493005905511808
0
LINE
8
BLACK
6
CONTINUOUS
10
10.0877844094488189
20
-6.3493005905511808
11
10.0901302362204728
21
-6.3565203543307085
0
LINE
8
BLACK
6
CONTINUOUS
10
10.0901302362204728
20
-6.3565203543307085
11
10.0935766141732284
21
-6.363284251968504
0
LINE
8
BLACK
6
CONTINUOUS
10
10.0935766141732284
20
-6.363284251968504
11
10.0980386614173234
21
-6.369425748031496
0
LINE
8
BLACK
6
CONTINUOUS
10
10.0980386614173234
20
-6.369425748031496
11
10.10340653543307
21
-6.3747936220472443
0
LINE
8
BLACK
6
CONTINUOUS
10
10.10340653543307
20
-6.3747936220472443
11
10.1095480314960628
21
-6.3792556692913385
0
LINE
8
BLACK
6
CONTINUOUS
10
10.1095480314960628
20
-6.3792556692913385
11
10.1163119291338575
21
-6.3827020472440941
0
LINE
8
BLACK
6
CONTINUOUS
10
10.1163119291338575
20
-6.3827020472440941
11
10.1235316929133852
21
-6.3850478740157479
0
LINE
8
BLACK
6
CONTINUOUS
10
10.1235316929133852
20
-6.3850478740157479
11
10.1310295275590541
21
-6.3862354330708664
0
LINE
8
BLACK
6
CONTINUOUS
10
10.1310295275590541
20
-6.3862354330708664
11
10.1386208661417321
21
-6.3862354330708664
0
LINE
8
BLACK
6
CONTINUOUS
10
10.1386208661417321
20
-6.3862354330708664
11
10.146118700787401
21
-6.3850478740157479
0
LINE
8
BLACK
6
CONTINUOUS
10
10.146118700787401
20
-6.3850478740157479
11
10.1533384645669287
21
-6.3827020472440941
0
LINE
8
BLACK
6
CONTINUOUS
10
10.1533384645669287
20
-6.3827020472440941
11
10.1601023622047233
21
-6.3792556692913385
0
LINE
8
BLACK
6
CONTINUOUS
10
10.1601023622047233
20
-6.3792556692913385
11
10.1662438582677161
21
-6.3747936220472443
0
LINE
8
BLACK
6
CONTINUOUS
10
10.1662438582677161
20
-6.3747936220472443
11
10.1716117322834645
21
-6.369425748031496
0
LINE
8
BLACK
6
CONTINUOUS
10
10.1716117322834645
20
-6.369425748031496
11
10.1760737795275595
21
-6.363284251968504
0
LINE
8
BLACK
6
CONTINUOUS
10
10.1760737795275595
20
-6.363284251968504
11
10.1795201574803151
21
-6.3565203543307085
0
LINE
8
BLACK
6
CONTINUOUS
10
10.1795201574803151
20
-6.3565203543307085
11
10.181865984251969
21
-6.3493005905511808
0
LINE
8
BLACK
6
CONTINUOUS
10
10.181865984251969
20
-6.3493005905511808
11
10.1830535433070857
21
-6.3418027559055119
0
LINE
8
BLACK
6
CONTINUOUS
10
10.1830535433070857
20
-6.3418027559055119
11
10.1830535433070857
21
-6.3342114173228348
0
LINE
8
BLACK
6
CONTINUOUS
10
10.1830535433070857
20
-6.3342114173228348
11
10.181865984251969
21
-6.326713582677165
0
LINE
8
BLACK
6
CONTINUOUS
10
10.181865984251969
20
-6.326713582677165
11
10.1795201574803151
21
-6.3194938188976373
0
LINE
8
BLACK
6
CONTINUOUS
10
10.1795201574803151
20
-6.3194938188976373
11
10.1760737795275595
21
-6.3127299212598427
0
LINE
8
BLACK
6
CONTINUOUS
10
10.1760737795275595
20
-6.3127299212598427
11
10.1716117322834645
21
-6.3065884251968498
0
LINE
8
BLACK
6
CONTINUOUS
10
10.1716117322834645
20
-6.3065884251968498
11
10.1662438582677161
21
-6.3012205511811024
0
LINE
8
BLACK
6
CONTINUOUS
10
10.1662438582677161
20
-6.3012205511811024
11
10.1601023622047233
21
-6.2967585039370073
0
LINE
8
BLACK
6
CONTINUOUS
10
10.1601023622047233
20
-6.2967585039370073
11
10.1533384645669287
21
-6.2933121259842517
0
LINE
8
BLACK
6
CONTINUOUS
10
10.1533384645669287
20
-6.2933121259842517
11
10.146118700787401
21
-6.2909662992125979
0
LINE
8
BLACK
6
CONTINUOUS
10
10.146118700787401
20
-6.2909662992125979
11
10.1386208661417321
21
-6.2897787401574803
0
LINE
8
BLACK
6
CONTINUOUS
10
10.1386208661417321
20
-6.2897787401574803
11
10.1310295275590541
21
-6.2897787401574803
0
LINE
8
BLACK
6
CONTINUOUS
10
10.1310295275590541
20
-6.2897787401574803
11
10.1235316929133852
21
-6.2909662992125979
0
LINE
8
BLACK
6
CONTINUOUS
10
10.1235316929133852
20
-6.2909662992125979
11
10.1163119291338575
21
-6.2933121259842517
0
LINE
8
BLACK
6
CONTINUOUS
10
10.1163119291338575
20
-6.2933121259842517
11
10.1095480314960628
21
-6.2967585039370073
0
LINE
8
BLACK
6
CONTINUOUS
10
10.1095480314960628
20
-6.2967585039370073
11
10.10340653543307
21
-6.3012205511811024
0
LINE
8
BLACK
6
CONTINUOUS
10
10.10340653543307
20
-6.3012205511811024
11
10.0980386614173234
21
-6.3065884251968498
0
LINE
8
BLACK
6
CONTINUOUS
10
10.0980386614173234
20
-6.3065884251968498
11
10.0935766141732284
21
-6.3127299212598427
0
LINE
8
BLACK
6
CONTINUOUS
10
10.0935766141732284
20
-6.3127299212598427
11
10.0901302362204728
21
-6.3194938188976373
0
LINE
8
BLACK
6
CONTINUOUS
10
10.0901302362204728
20
-6.3194938188976373
11
10.0877844094488189
21
-6.326713582677165
0
LINE
8
BLACK
6
CONTINUOUS
10
10.0877844094488189
20
-6.326713582677165
11
10.0865968503937005
21
-6.3342114173228348
0
LINE
8
BLACK
6
CONTINUOUS
10
10.0865968503937005
20
-6.3342114173228348
11
10.0865968503937005
21
-6.3418027559055119
0
LINE
8
BLACK
6
CONTINUOUS
10
5.8736049999999995
20
-6.0128701968503933
11
5.8741376771653542
21
-6.0134028740157479
0
LINE
8
BLACK
6
CONTINUOUS
10
5.8741376771653542
20
-6.0134028740157479
11
5.8742125984251965
21
-6.0137795275590546
0
LINE
8
BLACK
6
CONTINUOUS
10
5.8742125984251965
20
-6.0137795275590546
11
5.8742125984251965
21
-6.0885826771653546
0
LINE
8
BLACK
6
CONTINUOUS
10
5.8742125984251965
20
-6.0885826771653546
11
5.8741376771653542
21
-6.0889593307086614
0
LINE
8
BLACK
6
CONTINUOUS
10
5.8741376771653542
20
-6.0889593307086614
11
5.8736049999999995
21
-6.089492007874016
0
LINE
8
BLACK
6
CONTINUOUS
10
5.8736049999999995
20
-6.089492007874016
11
5.8732283464566928
21
-6.0895669291338583
0
LINE
8
BLACK
6
CONTINUOUS
10
5.8732283464566928
20
-6.0895669291338583
11
5.7409448818897637
21
-6.0895669291338583
0
LINE
8
BLACK
6
CONTINUOUS
10
5.7409448818897637
20
-6.0895669291338583
11
5.740568228346457
21
-6.089492007874016
0
LINE
8
BLACK
6
CONTINUOUS
10
5.740568228346457
20
-6.089492007874016
11
5.7400355511811023
21
-6.0889593307086614
0
LINE
8
BLACK
6
CONTINUOUS
10
5.7400355511811023
20
-6.0889593307086614
11
5.73996062992126
21
-6.0885826771653546
0
LINE
8
BLACK
6
CONTINUOUS
10
5.73996062992126
20
-6.0885826771653546
11
5.73996062992126
21
-6.0137795275590546
0
LINE
8
BLACK
6
CONTINUOUS
10
5.73996062992126
20
-6.0137795275590546
11
5.7400355511811023
21
-6.0134028740157479
0
LINE
8
BLACK
6
CONTINUOUS
10
5.7400355511811023
20
-6.0134028740157479
11
5.740568228346457
21
-6.0128701968503933
0
LINE
8
BLACK
6
CONTINUOUS
10
5.740568228346457
20
-6.0128701968503933
11
5.7409448818897637
21
-6.0127952755905509
0
LINE
8
BLACK
6
CONTINUOUS
10
5.7409448818897637
20
-6.0127952755905509
11
5.8732283464566928
21
-6.0127952755905509
0
LINE
8
BLACK
6
CONTINUOUS
10
5.8732283464566928
20
-6.0127952755905509
11
5.8736049999999995
21
-6.0128701968503933
0
LINE
8
BLACK
6
CONTINUOUS
10
5.7419291338582674
20
-6.0147637795275593
11
5.7419291338582674
21
-6.08759842519685
0
LINE
8
BLACK
6
CONTINUOUS
10
5.7419291338582674
20
-6.08759842519685
11
5.8722440944881891
21
-6.08759842519685
0
LINE
8
BLACK
6
CONTINUOUS
10
5.8722440944881891
20
-6.08759842519685
11
5.8722440944881891
21
-6.0147637795275593
0
LINE
8
BLACK
6
CONTINUOUS
10
5.8722440944881891
20
-6.0147637795275593
11
5.7419291338582674
21
-6.0147637795275593
0
LINE
8
BLACK
6
CONTINUOUS
10
5.6957506692913382
20
-5.9459410629921257
11
5.6962833464566929
21
-5.9464737401574803
0
LINE
8
BLACK
6
CONTINUOUS
10
5.6962833464566929
20
-5.9464737401574803
11
5.6963582677165352
21
-5.9468503937007871
0
LINE
8
BLACK
6
CONTINUOUS
10
5.6963582677165352
20
-5.9468503937007871
11
5.6963582677165352
21
-5.9537401574803148
0
LINE
8
BLACK
6
CONTINUOUS
10
5.6963582677165352
20
-5.9537401574803148
11
5.7347440944881889
21
-5.9537401574803148
0
LINE
8
BLACK
6
CONTINUOUS
10
5.7347440944881889
20
-5.9537401574803148
11
5.7351207480314956
21
-5.9538150787401571
0
LINE
8
BLACK
6
CONTINUOUS
10
5.7351207480314956
20
-5.9538150787401571
11
5.7356534251968503
21
-5.9543477559055118
0
LINE
8
BLACK
6
CONTINUOUS
10
5.7356534251968503
20
-5.9543477559055118
11
5.7357283464566926
21
-5.9547244094488185
0
LINE
8
BLACK
6
CONTINUOUS
10
5.7357283464566926
20
-5.9547244094488185
11
5.7357283464566926
21
-5.9984251968503939
0
LINE
8
BLACK
6
CONTINUOUS
10
5.7357283464566926
20
-5.9984251968503939
11
5.7356534251968503
21
-5.9988018503937006
0
LINE
8
BLACK
6
CONTINUOUS
10
5.7356534251968503
20
-5.9988018503937006
11
5.7351207480314956
21
-5.9993345275590553
0
LINE
8
BLACK
6
CONTINUOUS
10
5.7351207480314956
20
-5.9993345275590553
11
5.7347440944881889
21
-5.9994094488188976
0
LINE
8
BLACK
6
CONTINUOUS
10
5.7347440944881889
20
-5.9994094488188976
11
5.6963582677165352
21
-5.9994094488188976
0
LINE
8
BLACK
6
CONTINUOUS
10
5.6963582677165352
20
-5.9994094488188976
11
5.6963582677165352
21
-6.0281496062992126
0
LINE
8
BLACK
6
CONTINUOUS
10
5.6963582677165352
20
-6.0281496062992126
11
5.7347440944881889
21
-6.0281496062992126
0
LINE
8
BLACK
6
CONTINUOUS
10
5.7347440944881889
20
-6.0281496062992126
11
5.7351207480314956
21
-6.0282245275590549
0
LINE
8
BLACK
6
CONTINUOUS
10
5.7351207480314956
20
-6.0282245275590549
11
5.7356534251968503
21
-6.0287572047244096
0
LINE
8
BLACK
6
CONTINUOUS
10
5.7356534251968503
20
-6.0287572047244096
11
5.7357283464566926
21
-6.0291338582677163
0
LINE
8
BLACK
6
CONTINUOUS
10
5.7357283464566926
20
-6.0291338582677163
11
5.7357283464566926
21
-6.0728346456692908
0
LINE
8
BLACK
6
CONTINUOUS
10
5.7357283464566926
20
-6.0728346456692908
11
5.7356534251968503
21
-6.0732112992125984
0
LINE
8
BLACK
6
CONTINUOUS
10
5.7356534251968503
20
-6.0732112992125984
11
5.7351207480314956
21
-6.073743976377953
0
LINE
8
BLACK
6
CONTINUOUS
10
5.7351207480314956
20
-6.073743976377953
11
5.7347440944881889
21
-6.0738188976377954
0
LINE
8
BLACK
6
CONTINUOUS
10
5.7347440944881889
20
-6.0738188976377954
11
5.6963582677165352
21
-6.0738188976377954
0
LINE
8
BLACK
6
CONTINUOUS
10
5.6963582677165352
20
-6.0738188976377954
11
5.6963582677165352
21
-6.0807086614173231
0
LINE
8
BLACK
6
CONTINUOUS
10
5.6963582677165352
20
-6.0807086614173231
11
5.6962833464566929
21
-6.0810853149606299
0
LINE
8
BLACK
6
CONTINUOUS
10
5.6962833464566929
20
-6.0810853149606299
11
5.6957506692913382
21
-6.0816179921259845
0
LINE
8
BLACK
6
CONTINUOUS
10
5.6957506692913382
20
-6.0816179921259845
11
5.6953740157480315
21
-6.0816929133858268
0
LINE
8
BLACK
6
CONTINUOUS
10
5.6953740157480315
20
-6.0816929133858268
11
5.6126968503937009
21
-6.0816929133858268
0
LINE
8
BLACK
6
CONTINUOUS
10
5.6126968503937009
20
-6.0816929133858268
11
5.6123201968503933
21
-6.0816179921259845
0
LINE
8
BLACK
6
CONTINUOUS
10
5.6123201968503933
20
-6.0816179921259845
11
5.6117875196850395
21
-6.0810853149606299
0
LINE
8
BLACK
6
CONTINUOUS
10
5.6117875196850395
20
-6.0810853149606299
11
5.6117125984251963
21
-6.0807086614173231
0
LINE
8
BLACK
6
CONTINUOUS
10
5.6117125984251963
20
-6.0807086614173231
11
5.6117125984251963
21
-6.0364173228346454
0
LINE
8
BLACK
6
CONTINUOUS
10
5.6117125984251963
20
-6.0364173228346454
11
5.5733267716535435
21
-6.0364173228346454
0
LINE
8
BLACK
6
CONTINUOUS
10
5.5733267716535435
20
-6.0364173228346454
11
5.5729501181102359
21
-6.0363424015748031
0
LINE
8
BLACK
6
CONTINUOUS
10
5.5729501181102359
20
-6.0363424015748031
11
5.5724174409448821
21
-6.0358097244094484
0
LINE
8
BLACK
6
CONTINUOUS
10
5.5724174409448821
20
-6.0358097244094484
11
5.5723425196850389
21
-6.0354330708661417
0
LINE
8
BLACK
6
CONTINUOUS
10
5.5723425196850389
20
-6.0354330708661417
11
5.5723425196850389
21
-5.9921259842519685
0
LINE
8
BLACK
6
CONTINUOUS
10
5.5723425196850389
20
-5.9921259842519685
11
5.5724174409448821
21
-5.9917493307086609
0
LINE
8
BLACK
6
CONTINUOUS
10
5.5724174409448821
20
-5.9917493307086609
11
5.5729501181102359
21
-5.9912166535433071
0
LINE
8
BLACK
6
CONTINUOUS
10
5.5729501181102359
20
-5.9912166535433071
11
5.5733267716535435
21
-5.9911417322834648
0
LINE
8
BLACK
6
CONTINUOUS
10
5.5733267716535435
20
-5.9911417322834648
11
5.6117125984251963
21
-5.9911417322834648
0
LINE
8
BLACK
6
CONTINUOUS
10
5.6117125984251963
20
-5.9911417322834648
11
5.6117125984251963
21
-5.9468503937007871
0
LINE
8
BLACK
6
CONTINUOUS
10
5.6117125984251963
20
-5.9468503937007871
11
5.6117875196850395
21
-5.9464737401574803
0
LINE
8
BLACK
6
CONTINUOUS
10
5.6117875196850395
20
-5.9464737401574803
11
5.6123201968503933
21
-5.9459410629921257
0
LINE
8
BLACK
6
CONTINUOUS
10
5.6123201968503933
20
-5.9459410629921257
11
5.6126968503937009
21
-5.9458661417322833
0
LINE
8
BLACK
6
CONTINUOUS
10
5.6126968503937009
20
-5.9458661417322833
11
5.6953740157480315
21
-5.9458661417322833
0
LINE
8
BLACK
6
CONTINUOUS
10
5.6953740157480315
20
-5.9458661417322833
11
5.6957506692913382
21
-5.9459410629921257
0
LINE
8
BLACK
6
CONTINUOUS
10
5.6136811023622046
20
-5.9478346456692908
11
5.6136811023622046
21
-5.9921259842519685
0
LINE
8
BLACK
6
CONTINUOUS
10
5.6136811023622046
20
-5.9921259842519685
11
5.6136061811023623
21
-5.9925026377952753
0
LINE
8
BLACK
6
CONTINUOUS
10
5.6136061811023623
20
-5.9925026377952753
11
5.6130735039370077
21
-5.9930353149606299
0
LINE
8
BLACK
6
CONTINUOUS
10
5.6130735039370077
20
-5.9930353149606299
11
5.6126968503937009
21
-5.9931102362204722
0
LINE
8
BLACK
6
CONTINUOUS
10
5.6126968503937009
20
-5.9931102362204722
11
5.5743110236220472
21
-5.9931102362204722
0
LINE
8
BLACK
6
CONTINUOUS
10
5.5743110236220472
20
-5.9931102362204722
11
5.5743110236220472
21
-6.034448818897638
0
LINE
8
BLACK
6
CONTINUOUS
10
5.5743110236220472
20
-6.034448818897638
11
5.6126968503937009
21
-6.034448818897638
0
LINE
8
BLACK
6
CONTINUOUS
10
5.6126968503937009
20
-6.034448818897638
11
5.6130735039370077
21
-6.0345237401574803
0
LINE
8
BLACK
6
CONTINUOUS
10
5.6130735039370077
20
-6.0345237401574803
11
5.6136061811023623
21
-6.0350564173228349
0
LINE
8
BLACK
6
CONTINUOUS
10
5.6136061811023623
20
-6.0350564173228349
11
5.6136811023622046
21
-6.0354330708661417
0
LINE
8
BLACK
6
CONTINUOUS
10
5.6136811023622046
20
-6.0354330708661417
11
5.6136811023622046
21
-6.0797244094488185
0
LINE
8
BLACK
6
CONTINUOUS
10
5.6136811023622046
20
-6.0797244094488185
11
5.6943897637795278
21
-6.0797244094488185
0
LINE
8
BLACK
6
CONTINUOUS
10
5.6943897637795278
20
-6.0797244094488185
11
5.6943897637795278
21
-6.0728346456692908
0
LINE
8
BLACK
6
CONTINUOUS
10
5.6943897637795278
20
-6.0728346456692908
11
5.6944646850393701
21
-6.072457992125984
0
LINE
8
BLACK
6
CONTINUOUS
10
5.6944646850393701
20
-6.072457992125984
11
5.6949973622047239
21
-6.0719253149606294
0
LINE
8
BLACK
6
CONTINUOUS
10
5.6949973622047239
20
-6.0719253149606294
11
5.6953740157480315
21
-6.0718503937007871
0
LINE
8
BLACK
6
CONTINUOUS
10
5.6953740157480315
20
-6.0718503937007871
11
5.7337598425196852
21
-6.0718503937007871
0
LINE
8
BLACK
6
CONTINUOUS
10
5.7337598425196852
20
-6.0718503937007871
11
5.7337598425196852
21
-6.03011811023622
0
LINE
8
BLACK
6
CONTINUOUS
10
5.7337598425196852
20
-6.03011811023622
11
5.6953740157480315
21
-6.03011811023622
0
LINE
8
BLACK
6
CONTINUOUS
10
5.6953740157480315
20
-6.03011811023622
11
5.6949973622047239
21
-6.0300431889763777
0
LINE
8
BLACK
6
CONTINUOUS
10
5.6949973622047239
20
-6.0300431889763777
11
5.6944646850393701
21
-6.029510511811023
0
LINE
8
BLACK
6
CONTINUOUS
10
5.6944646850393701
20
-6.029510511811023
11
5.6943897637795278
21
-6.0291338582677163
0
LINE
8
BLACK
6
CONTINUOUS
10
5.6943897637795278
20
-6.0291338582677163
11
5.6943897637795278
21
-5.9984251968503939
0
LINE
8
BLACK
6
CONTINUOUS
10
5.6943897637795278
20
-5.9984251968503939
11
5.6944646850393701
21
-5.9980485433070863
0
LINE
8
BLACK
6
CONTINUOUS
10
5.6944646850393701
20
-5.9980485433070863
11
5.6949973622047239
21
-5.9975158661417325
0
LINE
8
BLACK
6
CONTINUOUS
10
5.6949973622047239
20
-5.9975158661417325
11
5.6953740157480315
21
-5.9974409448818893
0
LINE
8
BLACK
6
CONTINUOUS
10
5.6953740157480315
20
-5.9974409448818893
11
5.7337598425196852
21
-5.9974409448818893
0
LINE
8
BLACK
6
CONTINUOUS
10
5.7337598425196852
20
-5.9974409448818893
11
5.7337598425196852
21
-5.9557086614173231
0
LINE
8
BLACK
6
CONTINUOUS
10
5.7337598425196852
20
-5.9557086614173231
11
5.6953740157480315
21
-5.9557086614173231
0
LINE
8
BLACK
6
CONTINUOUS
10
5.6953740157480315
20
-5.9557086614173231
11
5.6949973622047239
21
-5.9556337401574799
0
LINE
8
BLACK
6
CONTINUOUS
10
5.6949973622047239
20
-5.9556337401574799
11
5.6944646850393701
21
-5.9551010629921262
0
LINE
8
BLACK
6
CONTINUOUS
10
5.6944646850393701
20
-5.9551010629921262
11
5.6943897637795278
21
-5.9547244094488185
0
LINE
8
BLACK
6
CONTINUOUS
10
5.6943897637795278
20
-5.9547244094488185
11
5.6943897637795278
21
-5.9478346456692908
0
LINE
8
BLACK
6
CONTINUOUS
10
5.6943897637795278
20
-5.9478346456692908
11
5.6136811023622046
21
-5.9478346456692908
0
LINE
8
BLACK
6
CONTINUOUS
10
5.4242939763779523
20
-5.9439725590551182
11
5.424826653543307
21
-5.944505236220472
0
LINE
8
BLACK
6
CONTINUOUS
10
5.424826653543307
20
-5.944505236220472
11
5.4249015748031493
21
-5.9448818897637796
0
LINE
8
BLACK
6
CONTINUOUS
10
5.4249015748031493
20
-5.9448818897637796
11
5.4249015748031493
21
-6.0196850393700787
0
LINE
8
BLACK
6
CONTINUOUS
10
5.4249015748031493
20
-6.0196850393700787
11
5.424826653543307
21
-6.0200616929133854
0
LINE
8
BLACK
6
CONTINUOUS
10
5.424826653543307
20
-6.0200616929133854
11
5.4242939763779523
21
-6.0205943700787401
0
LINE
8
BLACK
6
CONTINUOUS
10
5.4242939763779523
20
-6.0205943700787401
11
5.4239173228346456
21
-6.0206692913385824
0
LINE
8
BLACK
6
CONTINUOUS
10
5.4239173228346456
20
-6.0206692913385824
11
5.2916338582677165
21
-6.0206692913385824
0
LINE
8
BLACK
6
CONTINUOUS
10
5.2916338582677165
20
-6.0206692913385824
11
5.2912572047244097
21
-6.0205943700787401
0
LINE
8
BLACK
6
CONTINUOUS
10
5.2912572047244097
20
-6.0205943700787401
11
5.2907245275590551
21
-6.0200616929133854
0
LINE
8
BLACK
6
CONTINUOUS
10
5.2907245275590551
20
-6.0200616929133854
11
5.2906496062992128
21
-6.0196850393700787
0
LINE
8
BLACK
6
CONTINUOUS
10
5.2906496062992128
20
-6.0196850393700787
11
5.2906496062992128
21
-5.9448818897637796
0
LINE
8
BLACK
6
CONTINUOUS
10
5.2906496062992128
20
-5.9448818897637796
11
5.2907245275590551
21
-5.944505236220472
0
LINE
8
BLACK
6
CONTINUOUS
10
5.2907245275590551
20
-5.944505236220472
11
5.2912572047244097
21
-5.9439725590551182
0
LINE
8
BLACK
6
CONTINUOUS
10
5.2912572047244097
20
-5.9439725590551182
11
5.2916338582677165
21
-5.943897637795275
0
LINE
8
BLACK
6
CONTINUOUS
10
5.2916338582677165
20
-5.943897637795275
11
5.4239173228346456
21
-5.943897637795275
0
LINE
8
BLACK
6
CONTINUOUS
10
5.4239173228346456
20
-5.943897637795275
11
5.4242939763779523
21
-5.9439725590551182
0
LINE
8
BLACK
6
CONTINUOUS
10
5.2926181102362202
20
-5.9458661417322833
11
5.2926181102362202
21
-6.018700787401575
0
LINE
8
BLACK
6
CONTINUOUS
10
5.2926181102362202
20
-6.018700787401575
11
5.4229330708661418
21
-6.018700787401575
0
LINE
8
BLACK
6
CONTINUOUS
10
5.4229330708661418
20
-6.018700787401575
11
5.4229330708661418
21
-5.9458661417322833
0
LINE
8
BLACK
6
CONTINUOUS
10
5.4229330708661418
20
-5.9458661417322833
11
5.2926181102362202
21
-5.9458661417322833
0
LINE
8
BLACK
6
CONTINUOUS
10
6.9035262598425193
20
-5.5199568110236221
11
6.904058937007874
21
-5.5204894881889759
0
LINE
8
BLACK
6
CONTINUOUS
10
6.904058937007874
20
-5.5204894881889759
11
6.9041338582677163
21
-5.5208661417322835
0
LINE
8
BLACK
6
CONTINUOUS
10
6.9041338582677163
20
-5.5208661417322835
11
6.9041338582677163
21
-6.0055118110236219
0
LINE
8
BLACK
6
CONTINUOUS
10
6.9041338582677163
20
-6.0055118110236219
11
6.904058937007874
21
-6.0058884645669286
0
LINE
8
BLACK
6
CONTINUOUS
10
6.904058937007874
20
-6.0058884645669286
11
6.9035262598425193
21
-6.0064211417322833
0
LINE
8
BLACK
6
CONTINUOUS
10
6.9035262598425193
20
-6.0064211417322833
11
6.9031496062992126
21
-6.0064960629921256
0
LINE
8
BLACK
6
CONTINUOUS
10
6.9031496062992126
20
-6.0064960629921256
11
6.4637795275590548
21
-6.0064960629921256
0
LINE
8
BLACK
6
CONTINUOUS
10
6.4637795275590548
20
-6.0064960629921256
11
6.4634028740157481
21
-6.0064211417322833
0
LINE
8
BLACK
6
CONTINUOUS
10
6.4634028740157481
20
-6.0064211417322833
11
6.4628701968503934
21
-6.0058884645669286
0
LINE
8
BLACK
6
CONTINUOUS
10
6.4628701968503934
20
-6.0058884645669286
11
6.4627952755905511
21
-6.0055118110236219
0
LINE
8
BLACK
6
CONTINUOUS
10
6.4627952755905511
20
-6.0055118110236219
11
6.4627952755905511
21
-5.5208661417322835
0
LINE
8
BLACK
6
CONTINUOUS
10
6.4627952755905511
20
-5.5208661417322835
11
6.4628701968503934
21
-5.5204894881889759
0
LINE
8
BLACK
6
CONTINUOUS
10
6.4628701968503934
20
-5.5204894881889759
11
6.4634028740157481
21
-5.5199568110236221
0
LINE
8
BLACK
6
CONTINUOUS
10
6.4634028740157481
20
-5.5199568110236221
11
6.4637795275590548
21
-5.5198818897637798
0
LINE
8
BLACK
6
CONTINUOUS
10
6.4637795275590548
20
-5.5198818897637798
11
6.9031496062992126
21
-5.5198818897637798
0
LINE
8
BLACK
6
CONTINUOUS
10
6.9031496062992126
20
-5.5198818897637798
11
6.9035262598425193
21
-5.5199568110236221
0
LINE
8
BLACK
6
CONTINUOUS
10
6.4647637795275585
20
-5.5218503937007872
11
6.4647637795275585
21
-6.0045275590551181
0
LINE
8
BLACK
6
CONTINUOUS
10
6.4647637795275585
20
-6.0045275590551181
11
6.9021653543307089
21
-6.0045275590551181
0
LINE
8
BLACK
6
CONTINUOUS
10
6.9021653543307089
20
-6.0045275590551181
11
6.9021653543307089
21
-5.5218503937007872
0
LINE
8
BLACK
6
CONTINUOUS
10
6.9021653543307089
20
-5.5218503937007872
11
6.4647637795275585
21
-5.5218503937007872
0
LINE
8
BLACK
6
CONTINUOUS
10
5.8047073622047245
20
-5.7569646850393701
11
5.8052400393700783
21
-5.7574973622047239
0
LINE
8
BLACK
6
CONTINUOUS
10
5.8052400393700783
20
-5.7574973622047239
11
5.8053149606299215
21
-5.7578740157480315
0
LINE
8
BLACK
6
CONTINUOUS
10
5.8053149606299215
20
-5.7578740157480315
11
5.8053149606299215
21
-5.8326771653543306
0
LINE
8
BLACK
6
CONTINUOUS
10
5.8053149606299215
20
-5.8326771653543306
11
5.8052400393700783
21
-5.8330538188976373
0
LINE
8
BLACK
6
CONTINUOUS
10
5.8052400393700783
20
-5.8330538188976373
11
5.8047073622047245
21
-5.833586496062992
0
LINE
8
BLACK
6
CONTINUOUS
10
5.8047073622047245
20
-5.833586496062992
11
5.8043307086614169
21
-5.8336614173228343
0
LINE
8
BLACK
6
CONTINUOUS
10
5.8043307086614169
20
-5.8336614173228343
11
5.6720472440944878
21
-5.8336614173228343
0
LINE
8
BLACK
6
CONTINUOUS
10
5.6720472440944878
20
-5.8336614173228343
11
5.6716705905511811
21
-5.833586496062992
0
LINE
8
BLACK
6
CONTINUOUS
10
5.6716705905511811
20
-5.833586496062992
11
5.6711379133858264
21
-5.8330538188976373
0
LINE
8
BLACK
6
CONTINUOUS
10
5.6711379133858264
20
-5.8330538188976373
11
5.6710629921259841
21
-5.8326771653543306
0
LINE
8
BLACK
6
CONTINUOUS
10
5.6710629921259841
20
-5.8326771653543306
11
5.6710629921259841
21
-5.7578740157480315
0
LINE
8
BLACK
6
CONTINUOUS
10
5.6710629921259841
20
-5.7578740157480315
11
5.6711379133858264
21
-5.7574973622047239
0
LINE
8
BLACK
6
CONTINUOUS
10
5.6711379133858264
20
-5.7574973622047239
11
5.6716705905511811
21
-5.7569646850393701
0
LINE
8
BLACK
6
CONTINUOUS
10
5.6716705905511811
20
-5.7569646850393701
11
5.6720472440944878
21
-5.7568897637795278
0
LINE
8
BLACK
6
CONTINUOUS
10
5.6720472440944878
20
-5.7568897637795278
11
5.8043307086614169
21
-5.7568897637795278
0
LINE
8
BLACK
6
CONTINUOUS
10
5.8043307086614169
20
-5.7568897637795278
11
5.8047073622047245
21
-5.7569646850393701
0
LINE
8
BLACK
6
CONTINUOUS
10
5.6730314960629924
20
-5.7588582677165352
11
5.6730314960629924
21
-5.8316929133858268
0
LINE
8
BLACK
6
CONTINUOUS
10
5.6730314960629924
20
-5.8316929133858268
11
5.8033464566929132
21
-5.8316929133858268
0
LINE
8
BLACK
6
CONTINUOUS
10
5.8033464566929132
20
-5.8316929133858268
11
5.8033464566929132
21
-5.7588582677165352
0
LINE
8
BLACK
6
CONTINUOUS
10
5.8033464566929132
20
-5.7588582677165352
11
5.6730314960629924
21
-5.7588582677165352
0
LINE
8
BLACK
6
CONTINUOUS
10
5.6224238976377947
20
-5.6920040551181099
11
5.6229565748031494
21
-5.6925367322834646
0
LINE
8
BLACK
6
CONTINUOUS
10
5.6229565748031494
20
-5.6925367322834646
11
5.6230314960629917
21
-5.6929133858267713
0
LINE
8
BLACK
6
CONTINUOUS
10
5.6230314960629917
20
-5.6929133858267713
11
5.6230314960629917
21
-5.6998031496062991
0
LINE
8
BLACK
6
CONTINUOUS
10
5.6230314960629917
20
-5.6998031496062991
11
5.6614173228346454
21
-5.6998031496062991
0
LINE
8
BLACK
6
CONTINUOUS
10
5.6614173228346454
20
-5.6998031496062991
11
5.661793976377953
21
-5.6998780708661414
0
LINE
8
BLACK
6
CONTINUOUS
10
5.661793976377953
20
-5.6998780708661414
11
5.6623266535433068
21
-5.7004107480314961
0
LINE
8
BLACK
6
CONTINUOUS
10
5.6623266535433068
20
-5.7004107480314961
11
5.6624015748031491
21
-5.7007874015748028
0
LINE
8
BLACK
6
CONTINUOUS
10
5.6624015748031491
20
-5.7007874015748028
11
5.6624015748031491
21
-5.7444881889763781
0
LINE
8
BLACK
6
CONTINUOUS
10
5.6624015748031491
20
-5.7444881889763781
11
5.6623266535433068
21
-5.7448648425196849
0
LINE
8
BLACK
6
CONTINUOUS
10
5.6623266535433068
20
-5.7448648425196849
11
5.661793976377953
21
-5.7453975196850395
0
LINE
8
BLACK
6
CONTINUOUS
10
5.661793976377953
20
-5.7453975196850395
11
5.6614173228346454
21
-5.7454724409448819
0
LINE
8
BLACK
6
CONTINUOUS
10
5.6614173228346454
20
-5.7454724409448819
11
5.6230314960629917
21
-5.7454724409448819
0
LINE
8
BLACK
6
CONTINUOUS
10
5.6230314960629917
20
-5.7454724409448819
11
5.6230314960629917
21
-5.7742125984251969
0
LINE
8
BLACK
6
CONTINUOUS
10
5.6230314960629917
20
-5.7742125984251969
11
5.6614173228346454
21
-5.7742125984251969
0
LINE
8
BLACK
6
CONTINUOUS
10
5.6614173228346454
20
-5.7742125984251969
11
5.661793976377953
21
-5.7742875196850392
0
LINE
8
BLACK
6
CONTINUOUS
10
5.661793976377953
20
-5.7742875196850392
11
5.6623266535433068
21
-5.7748201968503938
0
LINE
8
BLACK
6
CONTINUOUS
10
5.6623266535433068
20
-5.7748201968503938
11
5.6624015748031491
21
-5.7751968503937006
0
LINE
8
BLACK
6
CONTINUOUS
10
5.6624015748031491
20
-5.7751968503937006
11
5.6624015748031491
21
-5.818897637795275
0
LINE
8
BLACK
6
CONTINUOUS
10
5.6624015748031491
20
-5.818897637795275
11
5.6623266535433068
21
-5.8192742913385826
0
LINE
8
BLACK
6
CONTINUOUS
10
5.6623266535433068
20
-5.8192742913385826
11
5.661793976377953
21
-5.8198069685039373
0
LINE
8
BLACK
6
CONTINUOUS
10
5.661793976377953
20
-5.8198069685039373
11
5.6614173228346454
21
-5.8198818897637796
0
LINE
8
BLACK
6
CONTINUOUS
10
5.6614173228346454
20
-5.8198818897637796
11
5.6230314960629917
21
-5.8198818897637796
0
LINE
8
BLACK
6
CONTINUOUS
10
5.6230314960629917
20
-5.8198818897637796
11
5.6230314960629917
21
-5.8267716535433074
0
LINE
8
BLACK
6
CONTINUOUS
10
5.6230314960629917
20
-5.8267716535433074
11
5.6229565748031494
21
-5.8271483070866141
0
LINE
8
BLACK
6
CONTINUOUS
10
5.6229565748031494
20
-5.8271483070866141
11
5.6224238976377947
21
-5.8276809842519688
0
LINE
8
BLACK
6
CONTINUOUS
10
5.6224238976377947
20
-5.8276809842519688
11
5.622047244094488
21
-5.8277559055118111
0
LINE
8
BLACK
6
CONTINUOUS
10
5.622047244094488
20
-5.8277559055118111
11
5.5393700787401574
21
-5.8277559055118111
0
LINE
8
BLACK
6
CONTINUOUS
10
5.5393700787401574
20
-5.8277559055118111
11
5.5389934251968507
21
-5.8276809842519688
0
LINE
8
BLACK
6
CONTINUOUS
10
5.5389934251968507
20
-5.8276809842519688
11
5.538460748031496
21
-5.8271483070866141
0
LINE
8
BLACK
6
CONTINUOUS
10
5.538460748031496
20
-5.8271483070866141
11
5.5383858267716537
21
-5.8267716535433074
0
LINE
8
BLACK
6
CONTINUOUS
10
5.5383858267716537
20
-5.8267716535433074
11
5.5383858267716537
21
-5.7824803149606296
0
LINE
8
BLACK
6
CONTINUOUS
10
5.5383858267716537
20
-5.7824803149606296
11
5.5
21
-5.7824803149606296
0
LINE
8
BLACK
6
CONTINUOUS
10
5.5
20
-5.7824803149606296
11
5.4996233464566924
21
-5.7824053937007873
0
LINE
8
BLACK
6
CONTINUOUS
10
5.4996233464566924
20
-5.7824053937007873
11
5.4990906692913386
21
-5.7818727165354327
0
LINE
8
BLACK
6
CONTINUOUS
10
5.4990906692913386
20
-5.7818727165354327
11
5.4990157480314963
21
-5.7814960629921259
0
LINE
8
BLACK
6
CONTINUOUS
10
5.4990157480314963
20
-5.7814960629921259
11
5.4990157480314963
21
-5.7381889763779528
0
LINE
8
BLACK
6
CONTINUOUS
10
5.4990157480314963
20
-5.7381889763779528
11
5.4990906692913386
21
-5.7378123228346452
0
LINE
8
BLACK
6
CONTINUOUS
10
5.4990906692913386
20
-5.7378123228346452
11
5.4996233464566924
21
-5.7372796456692914
0
LINE
8
BLACK
6
CONTINUOUS
10
5.4996233464566924
20
-5.7372796456692914
11
5.5
21
-5.7372047244094491
0
LINE
8
BLACK
6
CONTINUOUS
10
5.5
20
-5.7372047244094491
11
5.5383858267716537
21
-5.7372047244094491
0
LINE
8
BLACK
6
CONTINUOUS
10
5.5383858267716537
20
-5.7372047244094491
11
5.5383858267716537
21
-5.6929133858267713
0
LINE
8
BLACK
6
CONTINUOUS
10
5.5383858267716537
20
-5.6929133858267713
11
5.538460748031496
21
-5.6925367322834646
0
LINE
8
BLACK
6
CONTINUOUS
10
5.538460748031496
20
-5.6925367322834646
11
5.5389934251968507
21
-5.6920040551181099
0
LINE
8
BLACK
6
CONTINUOUS
10
5.5389934251968507
20
-5.6920040551181099
11
5.5393700787401574
21
-5.6919291338582676
0
LINE
8
BLACK
6
CONTINUOUS
10
5.5393700787401574
20
-5.6919291338582676
11
5.622047244094488
21
-5.6919291338582676
0
LINE
8
BLACK
6
CONTINUOUS
10
5.622047244094488
20
-5.6919291338582676
11
5.6224238976377947
21
-5.6920040551181099
0
LINE
8
BLACK
6
CONTINUOUS
10
5.5403543307086611
20
-5.693897637795275
11
5.5403543307086611
21
-5.7381889763779528
0
LINE
8
BLACK
6
CONTINUOUS
10
5.5403543307086611
20
-5.7381889763779528
11
5.5402794094488188
21
-5.7385656299212595
0
LINE
8
BLACK
6
CONTINUOUS
10
5.5402794094488188
20
-5.7385656299212595
11
5.5397467322834641
21
-5.7390983070866142
0
LINE
8
BLACK
6
CONTINUOUS
10
5.5397467322834641
20
-5.7390983070866142
11
5.5393700787401574
21
-5.7391732283464565
0
LINE
8
BLACK
6
CONTINUOUS
10
5.5393700787401574
20
-5.7391732283464565
11
5.5009842519685037
21
-5.7391732283464565
0
LINE
8
BLACK
6
CONTINUOUS
10
5.5009842519685037
20
-5.7391732283464565
11
5.5009842519685037
21
-5.7805118110236222
0
LINE
8
BLACK
6
CONTINUOUS
10
5.5009842519685037
20
-5.7805118110236222
11
5.5393700787401574
21
-5.7805118110236222
0
LINE
8
BLACK
6
CONTINUOUS
10
5.5393700787401574
20
-5.7805118110236222
11
5.5397467322834641
21
-5.7805867322834645
0
LINE
8
BLACK
6
CONTINUOUS
10
5.5397467322834641
20
-5.7805867322834645
11
5.5402794094488188
21
-5.7811194094488192
0
LINE
8
BLACK
6
CONTINUOUS
10
5.5402794094488188
20
-5.7811194094488192
11
5.5403543307086611
21
-5.7814960629921259
0
LINE
8
BLACK
6
CONTINUOUS
10
5.5403543307086611
20
-5.7814960629921259
11
5.5403543307086611
21
-5.8257874015748028
0
LINE
8
BLACK
6
CONTINUOUS
10
5.5403543307086611
20
-5.8257874015748028
11
5.6210629921259843
21
-5.8257874015748028
0
LINE
8
BLACK
6
CONTINUOUS
10
5.6210629921259843
20
-5.8257874015748028
11
5.6210629921259843
21
-5.818897637795275
0
LINE
8
BLACK
6
CONTINUOUS
10
5.6210629921259843
20
-5.818897637795275
11
5.6211379133858266
21
-5.8185209842519683
0
LINE
8
BLACK
6
CONTINUOUS
10
5.6211379133858266
20
-5.8185209842519683
11
5.6216705905511812
21
-5.8179883070866136
0
LINE
8
BLACK
6
CONTINUOUS
10
5.6216705905511812
20
-5.8179883070866136
11
5.622047244094488
21
-5.8179133858267713
0
LINE
8
BLACK
6
CONTINUOUS
10
5.622047244094488
20
-5.8179133858267713
11
5.6604330708661417
21
-5.8179133858267713
0
LINE
8
BLACK
6
CONTINUOUS
10
5.6604330708661417
20
-5.8179133858267713
11
5.6604330708661417
21
-5.7761811023622043
0
LINE
8
BLACK
6
CONTINUOUS
10
5.6604330708661417
20
-5.7761811023622043
11
5.622047244094488
21
-5.7761811023622043
0
LINE
8
BLACK
6
CONTINUOUS
10
5.622047244094488
20
-5.7761811023622043
11
5.6216705905511812
21
-5.776106181102362
0
LINE
8
BLACK
6
CONTINUOUS
10
5.6216705905511812
20
-5.776106181102362
11
5.6211379133858266
21
-5.7755735039370073
0
LINE
8
BLACK
6
CONTINUOUS
10
5.6211379133858266
20
-5.7755735039370073
11
5.6210629921259843
21
-5.7751968503937006
0
LINE
8
BLACK
6
CONTINUOUS
10
5.6210629921259843
20
-5.7751968503937006
11
5.6210629921259843
21
-5.7444881889763781
0
LINE
8
BLACK
6
CONTINUOUS
10
5.6210629921259843
20
-5.7444881889763781
11
5.6211379133858266
21
-5.7441115354330705
0
LINE
8
BLACK
6
CONTINUOUS
10
5.6211379133858266
20
-5.7441115354330705
11
5.6216705905511812
21
-5.7435788582677167
0
LINE
8
BLACK
6
CONTINUOUS
10
5.6216705905511812
20
-5.7435788582677167
11
5.622047244094488
21
-5.7435039370078735
0
LINE
8
BLACK
6
CONTINUOUS
10
5.622047244094488
20
-5.7435039370078735
11
5.6604330708661417
21
-5.7435039370078735
0
LINE
8
BLACK
6
CONTINUOUS
10
5.6604330708661417
20
-5.7435039370078735
11
5.6604330708661417
21
-5.7017716535433074
0
LINE
8
BLACK
6
CONTINUOUS
10
5.6604330708661417
20
-5.7017716535433074
11
5.622047244094488
21
-5.7017716535433074
0
LINE
8
BLACK
6
CONTINUOUS
10
5.622047244094488
20
-5.7017716535433074
11
5.6216705905511812
21
-5.7016967322834642
0
LINE
8
BLACK
6
CONTINUOUS
10
5.6216705905511812
20
-5.7016967322834642
11
5.6211379133858266
21
-5.7011640551181104
0
LINE
8
BLACK
6
CONTINUOUS
10
5.6211379133858266
20
-5.7011640551181104
11
5.6210629921259843
21
-5.7007874015748028
0
LINE
8
BLACK
6
CONTINUOUS
10
5.6210629921259843
20
-5.7007874015748028
11
5.6210629921259843
21
-5.693897637795275
0
LINE
8
BLACK
6
CONTINUOUS
10
5.6210629921259843
20
-5.693897637795275
11
5.5403543307086611
21
-5.693897637795275
0
LINE
8
BLACK
6
CONTINUOUS
10
5.4110065748031495
20
-5.7077520866141729
11
5.4115392519685042
21
-5.7082847637795275
0
LINE
8
BLACK
6
CONTINUOUS
10
5.4115392519685042
20
-5.7082847637795275
11
5.4116141732283465
21
-5.7086614173228343
0
LINE
8
BLACK
6
CONTINUOUS
10
5.4116141732283465
20
-5.7086614173228343
11
5.4116141732283465
21
-5.7834645669291334
0
LINE
8
BLACK
6
CONTINUOUS
10
5.4116141732283465
20
-5.7834645669291334
11
5.4115392519685042
21
-5.783841220472441
0
LINE
8
BLACK
6
CONTINUOUS
10
5.4115392519685042
20
-5.783841220472441
11
5.4110065748031495
21
-5.7843738976377947
0
LINE
8
BLACK
6
CONTINUOUS
10
5.4110065748031495
20
-5.7843738976377947
11
5.4106299212598428
21
-5.784448818897638
0
LINE
8
BLACK
6
CONTINUOUS
10
5.4106299212598428
20
-5.784448818897638
11
5.2783464566929137
21
-5.784448818897638
0
LINE
8
BLACK
6
CONTINUOUS
10
5.2783464566929137
20
-5.784448818897638
11
5.2779698031496061
21
-5.7843738976377947
0
LINE
8
BLACK
6
CONTINUOUS
10
5.2779698031496061
20
-5.7843738976377947
11
5.2774371259842514
21
-5.783841220472441
0
LINE
8
BLACK
6
CONTINUOUS
10
5.2774371259842514
20
-5.783841220472441
11
5.2773622047244091
21
-5.7834645669291334
0
LINE
8
BLACK
6
CONTINUOUS
10
5.2773622047244091
20
-5.7834645669291334
11
5.2773622047244091
21
-5.7086614173228343
0
LINE
8
BLACK
6
CONTINUOUS
10
5.2773622047244091
20
-5.7086614173228343
11
5.2774371259842514
21
-5.7082847637795275
0
LINE
8
BLACK
6
CONTINUOUS
10
5.2774371259842514
20
-5.7082847637795275
11
5.2779698031496061
21
-5.7077520866141729
0
LINE
8
BLACK
6
CONTINUOUS
10
5.2779698031496061
20
-5.7077520866141729
11
5.2783464566929137
21
-5.7076771653543306
0
LINE
8
BLACK
6
CONTINUOUS
10
5.2783464566929137
20
-5.7076771653543306
11
5.4106299212598428
21
-5.7076771653543306
0
LINE
8
BLACK
6
CONTINUOUS
10
5.4106299212598428
20
-5.7076771653543306
11
5.4110065748031495
21
-5.7077520866141729
0
LINE
8
BLACK
6
CONTINUOUS
10
5.2793307086614174
20
-5.7096456692913389
11
5.2793307086614174
21
-5.7824803149606296
0
LINE
8
BLACK
6
CONTINUOUS
10
5.2793307086614174
20
-5.7824803149606296
11
5.4096456692913382
21
-5.7824803149606296
0
LINE
8
BLACK
6
CONTINUOUS
10
5.4096456692913382
20
-5.7824803149606296
11
5.4096456692913382
21
-5.7096456692913389
0
LINE
8
BLACK
6
CONTINUOUS
10
5.4096456692913382
20
-5.7096456692913389
11
5.2793307086614174
21
-5.7096456692913389
0
LINE
8
BLACK
6
CONTINUOUS
10
7.4054947637795276
20
-5.5376733464566925
11
7.4060274409448814
21
-5.5382060236220472
0
LINE
8
BLACK
6
CONTINUOUS
10
7.4060274409448814
20
-5.5382060236220472
11
7.4061023622047246
21
-5.5385826771653539
0
LINE
8
BLACK
6
CONTINUOUS
10
7.4061023622047246
20
-5.5385826771653539
11
7.4061023622047246
21
-5.7783464566929137
0
LINE
8
BLACK
6
CONTINUOUS
10
7.4061023622047246
20
-5.7783464566929137
11
7.4060274409448814
21
-5.7787231102362204
0
LINE
8
BLACK
6
CONTINUOUS
10
7.4060274409448814
20
-5.7787231102362204
11
7.4054947637795276
21
-5.7792557874015751
0
LINE
8
BLACK
6
CONTINUOUS
10
7.4054947637795276
20
-5.7792557874015751
11
7.40511811023622
21
-5.7793307086614174
0
LINE
8
BLACK
6
CONTINUOUS
10
7.40511811023622
20
-5.7793307086614174
11
7.0657480314960628
21
-5.7793307086614174
0
LINE
8
BLACK
6
CONTINUOUS
10
7.0657480314960628
20
-5.7793307086614174
11
7.065371377952756
21
-5.7792557874015751
0
LINE
8
BLACK
6
CONTINUOUS
10
7.065371377952756
20
-5.7792557874015751
11
7.0648387007874014
21
-5.7787231102362204
0
LINE
8
BLACK
6
CONTINUOUS
10
7.0648387007874014
20
-5.7787231102362204
11
7.0647637795275591
21
-5.7783464566929137
0
LINE
8
BLACK
6
CONTINUOUS
10
7.0647637795275591
20
-5.7783464566929137
11
7.0647637795275591
21
-5.5385826771653539
0
LINE
8
BLACK
6
CONTINUOUS
10
7.0647637795275591
20
-5.5385826771653539
11
7.0648387007874014
21
-5.5382060236220472
0
LINE
8
BLACK
6
CONTINUOUS
10
7.0648387007874014
20
-5.5382060236220472
11
7.065371377952756
21
-5.5376733464566925
0
LINE
8
BLACK
6
CONTINUOUS
10
7.065371377952756
20
-5.5376733464566925
11
7.0657480314960628
21
-5.5375984251968502
0
LINE
8
BLACK
6
CONTINUOUS
10
7.0657480314960628
20
-5.5375984251968502
11
7.40511811023622
21
-5.5375984251968502
0
LINE
8
BLACK
6
CONTINUOUS
10
7.40511811023622
20
-5.5375984251968502
11
7.4054947637795276
21
-5.5376733464566925
0
LINE
8
BLACK
6
CONTINUOUS
10
7.0667322834645665
20
-5.5395669291338585
11
7.0667322834645665
21
-5.7773622047244091
0
LINE
8
BLACK
6
CONTINUOUS
10
7.0667322834645665
20
-5.7773622047244091
11
7.4041338582677163
21
-5.7773622047244091
0
LINE
8
BLACK
6
CONTINUOUS
10
7.4041338582677163
20
-5.7773622047244091
11
7.4041338582677163
21
-5.5395669291338585
0
LINE
8
BLACK
6
CONTINUOUS
10
7.4041338582677163
20
-5.5395669291338585
11
7.0667322834645665
21
-5.5395669291338585
0
LINE
8
BLACK
6
CONTINUOUS
10
6.6696679921259845
20
-5.3463347637795273
11
6.6702006692913383
21
-5.346867440944882
0
LINE
8
BLACK
6
CONTINUOUS
10
6.6702006692913383
20
-5.346867440944882
11
6.6702755905511806
21
-5.3472440944881887
0
LINE
8
BLACK
6
CONTINUOUS
10
6.6702755905511806
20
-5.3472440944881887
11
6.6702755905511806
21
-5.4795275590551178
0
LINE
8
BLACK
6
CONTINUOUS
10
6.6702755905511806
20
-5.4795275590551178
11
6.6702006692913383
21
-5.4799042125984254
0
LINE
8
BLACK
6
CONTINUOUS
10
6.6702006692913383
20
-5.4799042125984254
11
6.6696679921259845
21
-5.4804368897637792
0
LINE
8
BLACK
6
CONTINUOUS
10
6.6696679921259845
20
-5.4804368897637792
11
6.6692913385826769
21
-5.4805118110236215
0
LINE
8
BLACK
6
CONTINUOUS
10
6.6692913385826769
20
-5.4805118110236215
11
6.5944881889763778
21
-5.4805118110236215
0
LINE
8
BLACK
6
CONTINUOUS
10
6.5944881889763778
20
-5.4805118110236215
11
6.594111535433071
21
-5.4804368897637792
0
LINE
8
BLACK
6
CONTINUOUS
10
6.594111535433071
20
-5.4804368897637792
11
6.5935788582677164
21
-5.4799042125984254
0
LINE
8
BLACK
6
CONTINUOUS
10
6.5935788582677164
20
-5.4799042125984254
11
6.5935039370078741
21
-5.4795275590551178
0
LINE
8
BLACK
6
CONTINUOUS
10
6.5935039370078741
20
-5.4795275590551178
11
6.5935039370078741
21
-5.3472440944881887
0
LINE
8
BLACK
6
CONTINUOUS
10
6.5935039370078741
20
-5.3472440944881887
11
6.5935788582677164
21
-5.346867440944882
0
LINE
8
BLACK
6
CONTINUOUS
10
6.5935788582677164
20
-5.346867440944882
11
6.594111535433071
21
-5.3463347637795273
0
LINE
8
BLACK
6
CONTINUOUS
10
6.594111535433071
20
-5.3463347637795273
11
6.5944881889763778
21
-5.346259842519685
0
LINE
8
BLACK
6
CONTINUOUS
10
6.5944881889763778
20
-5.346259842519685
11
6.6692913385826769
21
-5.346259842519685
0
LINE
8
BLACK
6
CONTINUOUS
10
6.6692913385826769
20
-5.346259842519685
11
6.6696679921259845
21
-5.3463347637795273
0
LINE
8
BLACK
6
CONTINUOUS
10
6.5954724409448815
20
-5.3482283464566924
11
6.5954724409448815
21
-5.4785433070866141
0
LINE
8
BLACK
6
CONTINUOUS
10
6.5954724409448815
20
-5.4785433070866141
11
6.6683070866141732
21
-5.4785433070866141
0
LINE
8
BLACK
6
CONTINUOUS
10
6.6683070866141732
20
-5.4785433070866141
11
6.6683070866141732
21
-5.3482283464566924
0
LINE
8
BLACK
6
CONTINUOUS
10
6.6683070866141732
20
-5.3482283464566924
11
6.5954724409448815
21
-5.3482283464566924
0
LINE
8
BLACK
6
CONTINUOUS
10
6.7716364960629916
20
-5.3463347637795273
11
6.7721691732283462
21
-5.346867440944882
0
LINE
8
BLACK
6
CONTINUOUS
10
6.7721691732283462
20
-5.346867440944882
11
6.7722440944881885
21
-5.3472440944881887
0
LINE
8
BLACK
6
CONTINUOUS
10
6.7722440944881885
20
-5.3472440944881887
11
6.7722440944881885
21
-5.4795275590551178
0
LINE
8
BLACK
6
CONTINUOUS
10
6.7722440944881885
20
-5.4795275590551178
11
6.7721691732283462
21
-5.4799042125984254
0
LINE
8
BLACK
6
CONTINUOUS
10
6.7721691732283462
20
-5.4799042125984254
11
6.7716364960629916
21
-5.4804368897637792
0
LINE
8
BLACK
6
CONTINUOUS
10
6.7716364960629916
20
-5.4804368897637792
11
6.7712598425196848
21
-5.4805118110236215
0
LINE
8
BLACK
6
CONTINUOUS
10
6.7712598425196848
20
-5.4805118110236215
11
6.6964566929133857
21
-5.4805118110236215
0
LINE
8
BLACK
6
CONTINUOUS
10
6.6964566929133857
20
-5.4805118110236215
11
6.696080039370079
21
-5.4804368897637792
0
LINE
8
BLACK
6
CONTINUOUS
10
6.696080039370079
20
-5.4804368897637792
11
6.6955473622047244
21
-5.4799042125984254
0
LINE
8
BLACK
6
CONTINUOUS
10
6.6955473622047244
20
-5.4799042125984254
11
6.695472440944882
21
-5.4795275590551178
0
LINE
8
BLACK
6
CONTINUOUS
10
6.695472440944882
20
-5.4795275590551178
11
6.695472440944882
21
-5.3472440944881887
0
LINE
8
BLACK
6
CONTINUOUS
10
6.695472440944882
20
-5.3472440944881887
11
6.6955473622047244
21
-5.346867440944882
0
LINE
8
BLACK
6
CONTINUOUS
10
6.6955473622047244
20
-5.346867440944882
11
6.696080039370079
21
-5.3463347637795273
0
LINE
8
BLACK
6
CONTINUOUS
10
6.696080039370079
20
-5.3463347637795273
11
6.6964566929133857
21
-5.346259842519685
0
LINE
8
BLACK
6
CONTINUOUS
10
6.6964566929133857
20
-5.346259842519685
11
6.7712598425196848
21
-5.346259842519685
0
LINE
8
BLACK
6
CONTINUOUS
10
6.7712598425196848
20
-5.346259842519685
11
6.7716364960629916
21
-5.3463347637795273
0
LINE
8
BLACK
6
CONTINUOUS
10
6.6974409448818895
20
-5.3482283464566924
11
6.6974409448818895
21
-5.4785433070866141
0
LINE
8
BLACK
6
CONTINUOUS
10
6.6974409448818895
20
-5.4785433070866141
11
6.7702755905511811
21
-5.4785433070866141
0
LINE
8
BLACK
6
CONTINUOUS
10
6.7702755905511811
20
-5.4785433070866141
11
6.7702755905511811
21
-5.3482283464566924
0
LINE
8
BLACK
6
CONTINUOUS
10
6.7702755905511811
20
-5.3482283464566924
11
6.6974409448818895
21
-5.3482283464566924
0
LINE
8
BLACK
6
CONTINUOUS
10
5.3273451574803152
20
-5.394759960629921
11
5.327877834645669
21
-5.3952926377952757
0
LINE
8
BLACK
6
CONTINUOUS
10
5.327877834645669
20
-5.3952926377952757
11
5.3279527559055113
21
-5.3956692913385824
0
LINE
8
BLACK
6
CONTINUOUS
10
5.3279527559055113
20
-5.3956692913385824
11
5.3279527559055113
21
-5.4704724409448815
0
LINE
8
BLACK
6
CONTINUOUS
10
5.3279527559055113
20
-5.4704724409448815
11
5.327877834645669
21
-5.4708490944881891
0
LINE
8
BLACK
6
CONTINUOUS
10
5.327877834645669
20
-5.4708490944881891
11
5.3273451574803152
21
-5.4713817716535429
0
LINE
8
BLACK
6
CONTINUOUS
10
5.3273451574803152
20
-5.4713817716535429
11
5.3269685039370076
21
-5.4714566929133861
0
LINE
8
BLACK
6
CONTINUOUS
10
5.3269685039370076
20
-5.4714566929133861
11
5.1946850393700785
21
-5.4714566929133861
0
LINE
8
BLACK
6
CONTINUOUS
10
5.1946850393700785
20
-5.4714566929133861
11
5.1943083858267718
21
-5.4713817716535429
0
LINE
8
BLACK
6
CONTINUOUS
10
5.1943083858267718
20
-5.4713817716535429
11
5.1937757086614171
21
-5.4708490944881891
0
LINE
8
BLACK
6
CONTINUOUS
10
5.1937757086614171
20
-5.4708490944881891
11
5.1937007874015748
21
-5.4704724409448815
0
LINE
8
BLACK
6
CONTINUOUS
10
5.1937007874015748
20
-5.4704724409448815
11
5.1937007874015748
21
-5.3956692913385824
0
LINE
8
BLACK
6
CONTINUOUS
10
5.1937007874015748
20
-5.3956692913385824
11
5.1937757086614171
21
-5.3952926377952757
0
LINE
8
BLACK
6
CONTINUOUS
10
5.1937757086614171
20
-5.3952926377952757
11
5.1943083858267718
21
-5.394759960629921
0
LINE
8
BLACK
6
CONTINUOUS
10
5.1943083858267718
20
-5.394759960629921
11
5.1946850393700785
21
-5.3946850393700787
0
LINE
8
BLACK
6
CONTINUOUS
10
5.1946850393700785
20
-5.3946850393700787
11
5.3269685039370076
21
-5.3946850393700787
0
LINE
8
BLACK
6
CONTINUOUS
10
5.3269685039370076
20
-5.3946850393700787
11
5.3273451574803152
21
-5.394759960629921
0
LINE
8
BLACK
6
CONTINUOUS
10
5.1956692913385822
20
-5.3966535433070861
11
5.1956692913385822
21
-5.4694881889763778
0
LINE
8
BLACK
6
CONTINUOUS
10
5.1956692913385822
20
-5.4694881889763778
11
5.3259842519685039
21
-5.4694881889763778
0
LINE
8
BLACK
6
CONTINUOUS
10
5.3259842519685039
20
-5.4694881889763778
11
5.3259842519685039
21
-5.3966535433070861
0
LINE
8
BLACK
6
CONTINUOUS
10
5.3259842519685039
20
-5.3966535433070861
11
5.1956692913385822
21
-5.3966535433070861
0
LINE
8
BLACK
6
CONTINUOUS
10
5.3273451574803152
20
-5.2864922440944877
11
5.327877834645669
21
-5.2870249212598424
0
LINE
8
BLACK
6
CONTINUOUS
10
5.327877834645669
20
-5.2870249212598424
11
5.3279527559055113
21
-5.2874015748031491
0
LINE
8
BLACK
6
CONTINUOUS
10
5.3279527559055113
20
-5.2874015748031491
11
5.3279527559055113
21
-5.3622047244094491
0
LINE
8
BLACK
6
CONTINUOUS
10
5.3279527559055113
20
-5.3622047244094491
11
5.327877834645669
21
-5.3625813779527558
0
LINE
8
BLACK
6
CONTINUOUS
10
5.327877834645669
20
-5.3625813779527558
11
5.3273451574803152
21
-5.3631140551181105
0
LINE
8
BLACK
6
CONTINUOUS
10
5.3273451574803152
20
-5.3631140551181105
11
5.3269685039370076
21
-5.3631889763779528
0
LINE
8
BLACK
6
CONTINUOUS
10
5.3269685039370076
20
-5.3631889763779528
11
5.1946850393700785
21
-5.3631889763779528
0
LINE
8
BLACK
6
CONTINUOUS
10
5.1946850393700785
20
-5.3631889763779528
11
5.1943083858267718
21
-5.3631140551181105
0
LINE
8
BLACK
6
CONTINUOUS
10
5.1943083858267718
20
-5.3631140551181105
11
5.1937757086614171
21
-5.3625813779527558
0
LINE
8
BLACK
6
CONTINUOUS
10
5.1937757086614171
20
-5.3625813779527558
11
5.1937007874015748
21
-5.3622047244094491
0
LINE
8
BLACK
6
CONTINUOUS
10
5.1937007874015748
20
-5.3622047244094491
11
5.1937007874015748
21
-5.2874015748031491
0
LINE
8
BLACK
6
CONTINUOUS
10
5.1937007874015748
20
-5.2874015748031491
11
5.1937757086614171
21
-5.2870249212598424
0
LINE
8
BLACK
6
CONTINUOUS
10
5.1937757086614171
20
-5.2870249212598424
11
5.1943083858267718
21
-5.2864922440944877
0
LINE
8
BLACK
6
CONTINUOUS
10
5.1943083858267718
20
-5.2864922440944877
11
5.1946850393700785
21
-5.2864173228346454
0
LINE
8
BLACK
6
CONTINUOUS
10
5.1946850393700785
20
-5.2864173228346454
11
5.3269685039370076
21
-5.2864173228346454
0
LINE
8
BLACK
6
CONTINUOUS
10
5.3269685039370076
20
-5.2864173228346454
11
5.3273451574803152
21
-5.2864922440944877
0
LINE
8
BLACK
6
CONTINUOUS
10
5.1956692913385822
20
-5.2883858267716537
11
5.1956692913385822
21
-5.3612204724409445
0
LINE
8
BLACK
6
CONTINUOUS
10
5.1956692913385822
20
-5.3612204724409445
11
5.3259842519685039
21
-5.3612204724409445
0
LINE
8
BLACK
6
CONTINUOUS
10
5.3259842519685039
20
-5.3612204724409445
11
5.3259842519685039
21
-5.2883858267716537
0
LINE
8
BLACK
6
CONTINUOUS
10
5.3259842519685039
20
-5.2883858267716537
11
5.1956692913385822
21
-5.2883858267716537
0
LINE
8
BLACK
6
CONTINUOUS
10
5.3273451574803152
20
-5.1782245275590553
11
5.327877834645669
21
-5.178757204724409
0
LINE
8
BLACK
6
CONTINUOUS
10
5.327877834645669
20
-5.178757204724409
11
5.3279527559055113
21
-5.1791338582677167
0
LINE
8
BLACK
6
CONTINUOUS
10
5.3279527559055113
20
-5.1791338582677167
11
5.3279527559055113
21
-5.2539370078740157
0
LINE
8
BLACK
6
CONTINUOUS
10
5.3279527559055113
20
-5.2539370078740157
11
5.327877834645669
21
-5.2543136614173225
0
LINE
8
BLACK
6
CONTINUOUS
10
5.327877834645669
20
-5.2543136614173225
11
5.3273451574803152
21
-5.2548463385826771
0
LINE
8
BLACK
6
CONTINUOUS
10
5.3273451574803152
20
-5.2548463385826771
11
5.3269685039370076
21
-5.2549212598425195
0
LINE
8
BLACK
6
CONTINUOUS
10
5.3269685039370076
20
-5.2549212598425195
11
5.1946850393700785
21
-5.2549212598425195
0
LINE
8
BLACK
6
CONTINUOUS
10
5.1946850393700785
20
-5.2549212598425195
11
5.1943083858267718
21
-5.2548463385826771
0
LINE
8
BLACK
6
CONTINUOUS
10
5.1943083858267718
20
-5.2548463385826771
11
5.1937757086614171
21
-5.2543136614173225
0
LINE
8
BLACK
6
CONTINUOUS
10
5.1937757086614171
20
-5.2543136614173225
11
5.1937007874015748
21
-5.2539370078740157
0
LINE
8
BLACK
6
CONTINUOUS
10
5.1937007874015748
20
-5.2539370078740157
11
5.1937007874015748
21
-5.1791338582677167
0
LINE
8
BLACK
6
CONTINUOUS
10
5.1937007874015748
20
-5.1791338582677167
11
5.1937757086614171
21
-5.178757204724409
0
LINE
8
BLACK
6
CONTINUOUS
10
5.1937757086614171
20
-5.178757204724409
11
5.1943083858267718
21
-5.1782245275590553
0
LINE
8
BLACK
6
CONTINUOUS
10
5.1943083858267718
20
-5.1782245275590553
11
5.1946850393700785
21
-5.1781496062992121
0
LINE
8
BLACK
6
CONTINUOUS
10
5.1946850393700785
20
-5.1781496062992121
11
5.3269685039370076
21
-5.1781496062992121
0
LINE
8
BLACK
6
CONTINUOUS
10
5.3269685039370076
20
-5.1781496062992121
11
5.3273451574803152
21
-5.1782245275590553
0
LINE
8
BLACK
6
CONTINUOUS
10
5.1956692913385822
20
-5.1801181102362204
11
5.1956692913385822
21
-5.252952755905512
0
LINE
8
BLACK
6
CONTINUOUS
10
5.1956692913385822
20
-5.252952755905512
11
5.3259842519685039
21
-5.252952755905512
0
LINE
8
BLACK
6
CONTINUOUS
10
5.3259842519685039
20
-5.252952755905512
11
5.3259842519685039
21
-5.1801181102362204
0
LINE
8
BLACK
6
CONTINUOUS
10
5.3259842519685039
20
-5.1801181102362204
11
5.1956692913385822
21
-5.1801181102362204
0
LINE
8
BLACK
6
CONTINUOUS
10
5.3273451574803152
20
-5.0699568110236219
11
5.327877834645669
21
-5.0704894881889766
0
LINE
8
BLACK
6
CONTINUOUS
10
5.327877834645669
20
-5.0704894881889766
11
5.3279527559055113
21
-5.0708661417322833
0
LINE
8
BLACK
6
CONTINUOUS
10
5.3279527559055113
20
-5.0708661417322833
11
5.3279527559055113
21
-5.1456692913385824
0
LINE
8
BLACK
6
CONTINUOUS
10
5.3279527559055113
20
-5.1456692913385824
11
5.327877834645669
21
-5.14604594488189
0
LINE
8
BLACK
6
CONTINUOUS
10
5.327877834645669
20
-5.14604594488189
11
5.3273451574803152
21
-5.1465786220472438
0
LINE
8
BLACK
6
CONTINUOUS
10
5.3273451574803152
20
-5.1465786220472438
11
5.3269685039370076
21
-5.1466535433070861
0
LINE
8
BLACK
6
CONTINUOUS
10
5.3269685039370076
20
-5.1466535433070861
11
5.1946850393700785
21
-5.1466535433070861
0
LINE
8
BLACK
6
CONTINUOUS
10
5.1946850393700785
20
-5.1466535433070861
11
5.1943083858267718
21
-5.1465786220472438
0
LINE
8
BLACK
6
CONTINUOUS
10
5.1943083858267718
20
-5.1465786220472438
11
5.1937757086614171
21
-5.14604594488189
0
LINE
8
BLACK
6
CONTINUOUS
10
5.1937757086614171
20
-5.14604594488189
11
5.1937007874015748
21
-5.1456692913385824
0
LINE
8
BLACK
6
CONTINUOUS
10
5.1937007874015748
20
-5.1456692913385824
11
5.1937007874015748
21
-5.0708661417322833
0
LINE
8
BLACK
6
CONTINUOUS
10
5.1937007874015748
20
-5.0708661417322833
11
5.1937757086614171
21
-5.0704894881889766
0
LINE
8
BLACK
6
CONTINUOUS
10
5.1937757086614171
20
-5.0704894881889766
11
5.1943083858267718
21
-5.0699568110236219
0
LINE
8
BLACK
6
CONTINUOUS
10
5.1943083858267718
20
-5.0699568110236219
11
5.1946850393700785
21
-5.0698818897637796
0
LINE
8
BLACK
6
CONTINUOUS
10
5.1946850393700785
20
-5.0698818897637796
11
5.3269685039370076
21
-5.0698818897637796
0
LINE
8
BLACK
6
CONTINUOUS
10
5.3269685039370076
20
-5.0698818897637796
11
5.3273451574803152
21
-5.0699568110236219
0
LINE
8
BLACK
6
CONTINUOUS
10
5.1956692913385822
20
-5.0718503937007871
11
5.1956692913385822
21
-5.1446850393700787
0
LINE
8
BLACK
6
CONTINUOUS
10
5.1956692913385822
20
-5.1446850393700787
11
5.3259842519685039
21
-5.1446850393700787
0
LINE
8
BLACK
6
CONTINUOUS
10
5.3259842519685039
20
-5.1446850393700787
11
5.3259842519685039
21
-5.0718503937007871
0
LINE
8
BLACK
6
CONTINUOUS
10
5.3259842519685039
20
-5.0718503937007871
11
5.1956692913385822
21
-5.0718503937007871
0
LINE
8
BLACK
6
CONTINUOUS
10
5.3307900393700782
20
-4.9656261023622044
11
5.3313227165354329
21
-4.966158779527559
0
LINE
8
BLACK
6
CONTINUOUS
10
5.3313227165354329
20
-4.966158779527559
11
5.3313976377952752
21
-4.9665354330708658
0
LINE
8
BLACK
6
CONTINUOUS
10
5.3313976377952752
20
-4.9665354330708658
11
5.3313976377952752
21
-5.0413385826771648
0
LINE
8
BLACK
6
CONTINUOUS
10
5.3313976377952752
20
-5.0413385826771648
11
5.3313227165354329
21
-5.0417152362204725
0
LINE
8
BLACK
6
CONTINUOUS
10
5.3313227165354329
20
-5.0417152362204725
11
5.3307900393700782
21
-5.0422479133858262
0
LINE
8
BLACK
6
CONTINUOUS
10
5.3307900393700782
20
-5.0422479133858262
11
5.3304133858267715
21
-5.0423228346456694
0
LINE
8
BLACK
6
CONTINUOUS
10
5.3304133858267715
20
-5.0423228346456694
11
5.1981299212598424
21
-5.0423228346456694
0
LINE
8
BLACK
6
CONTINUOUS
10
5.1981299212598424
20
-5.0423228346456694
11
5.1977532677165357
21
-5.0422479133858262
0
LINE
8
BLACK
6
CONTINUOUS
10
5.1977532677165357
20
-5.0422479133858262
11
5.197220590551181
21
-5.0417152362204725
0
LINE
8
BLACK
6
CONTINUOUS
10
5.197220590551181
20
-5.0417152362204725
11
5.1971456692913387
21
-5.0413385826771648
0
LINE
8
BLACK
6
CONTINUOUS
10
5.1971456692913387
20
-5.0413385826771648
11
5.1971456692913387
21
-4.9665354330708658
0
LINE
8
BLACK
6
CONTINUOUS
10
5.1971456692913387
20
-4.9665354330708658
11
5.197220590551181
21
-4.966158779527559
0
LINE
8
BLACK
6
CONTINUOUS
10
5.197220590551181
20
-4.966158779527559
11
5.1977532677165357
21
-4.9656261023622044
0
LINE
8
BLACK
6
CONTINUOUS
10
5.1977532677165357
20
-4.9656261023622044
11
5.1981299212598424
21
-4.965551181102362
0
LINE
8
BLACK
6
CONTINUOUS
10
5.1981299212598424
20
-4.965551181102362
11
5.3304133858267715
21
-4.965551181102362
0
LINE
8
BLACK
6
CONTINUOUS
10
5.3304133858267715
20
-4.965551181102362
11
5.3307900393700782
21
-4.9656261023622044
0
LINE
8
BLACK
6
CONTINUOUS
10
5.1991141732283461
20
-4.9675196850393704
11
5.1991141732283461
21
-5.0403543307086611
0
LINE
8
BLACK
6
CONTINUOUS
10
5.1991141732283461
20
-5.0403543307086611
11
5.3294291338582678
21
-5.0403543307086611
0
LINE
8
BLACK
6
CONTINUOUS
10
5.3294291338582678
20
-5.0403543307086611
11
5.3294291338582678
21
-4.9675196850393704
0
LINE
8
BLACK
6
CONTINUOUS
10
5.3294291338582678
20
-4.9675196850393704
11
5.1991141732283461
21
-4.9675196850393704
0
LINE
8
BLACK
6
CONTINUOUS
10
5.3337427952755903
20
-4.8534213779527562
11
5.3342754724409449
21
-4.85395405511811
0
LINE
8
BLACK
6
CONTINUOUS
10
5.3342754724409449
20
-4.85395405511811
11
5.3343503937007872
21
-4.8543307086614176
0
LINE
8
BLACK
6
CONTINUOUS
10
5.3343503937007872
20
-4.8543307086614176
11
5.3343503937007872
21
-4.9291338582677167
0
LINE
8
BLACK
6
CONTINUOUS
10
5.3343503937007872
20
-4.9291338582677167
11
5.3342754724409449
21
-4.9295105118110234
0
LINE
8
BLACK
6
CONTINUOUS
10
5.3342754724409449
20
-4.9295105118110234
11
5.3337427952755903
21
-4.9300431889763781
0
LINE
8
BLACK
6
CONTINUOUS
10
5.3337427952755903
20
-4.9300431889763781
11
5.3333661417322835
21
-4.9301181102362204
0
LINE
8
BLACK
6
CONTINUOUS
10
5.3333661417322835
20
-4.9301181102362204
11
5.2010826771653544
21
-4.9301181102362204
0
LINE
8
BLACK
6
CONTINUOUS
10
5.2010826771653544
20
-4.9301181102362204
11
5.2007060236220468
21
-4.9300431889763781
0
LINE
8
BLACK
6
CONTINUOUS
10
5.2007060236220468
20
-4.9300431889763781
11
5.200173346456693
21
-4.9295105118110234
0
LINE
8
BLACK
6
CONTINUOUS
10
5.200173346456693
20
-4.9295105118110234
11
5.2000984251968498
21
-4.9291338582677167
0
LINE
8
BLACK
6
CONTINUOUS
10
5.2000984251968498
20
-4.9291338582677167
11
5.2000984251968498
21
-4.8543307086614176
0
LINE
8
BLACK
6
CONTINUOUS
10
5.2000984251968498
20
-4.8543307086614176
11
5.200173346456693
21
-4.85395405511811
0
LINE
8
BLACK
6
CONTINUOUS
10
5.200173346456693
20
-4.85395405511811
11
5.2007060236220468
21
-4.8534213779527562
0
LINE
8
BLACK
6
CONTINUOUS
10
5.2007060236220468
20
-4.8534213779527562
11
5.2010826771653544
21
-4.853346456692913
0
LINE
8
BLACK
6
CONTINUOUS
10
5.2010826771653544
20
-4.853346456692913
11
5.3333661417322835
21
-4.853346456692913
0
LINE
8
BLACK
6
CONTINUOUS
10
5.3333661417322835
20
-4.853346456692913
11
5.3337427952755903
21
-4.8534213779527562
0
LINE
8
BLACK
6
CONTINUOUS
10
5.2020669291338582
20
-4.8553149606299213
11
5.2020669291338582
21
-4.9281496062992121
0
LINE
8
BLACK
6
CONTINUOUS
10
5.2020669291338582
20
-4.9281496062992121
11
5.3323818897637798
21
-4.9281496062992121
0
LINE
8
BLACK
6
CONTINUOUS
10
5.3323818897637798
20
-4.9281496062992121
11
5.3323818897637798
21
-4.8553149606299213
0
LINE
8
BLACK
6
CONTINUOUS
10
5.3323818897637798
20
-4.8553149606299213
11
5.2020669291338582
21
-4.8553149606299213
0
LINE
8
BLACK
6
CONTINUOUS
10
5.3273451574803152
20
-4.7451536614173229
11
5.327877834645669
21
-4.7456863385826766
0
LINE
8
BLACK
6
CONTINUOUS
10
5.327877834645669
20
-4.7456863385826766
11
5.3279527559055113
21
-4.7460629921259843
0
LINE
8
BLACK
6
CONTINUOUS
10
5.3279527559055113
20
-4.7460629921259843
11
5.3279527559055113
21
-4.8208661417322833
0
LINE
8
BLACK
6
CONTINUOUS
10
5.3279527559055113
20
-4.8208661417322833
11
5.327877834645669
21
-4.8212427952755901
0
LINE
8
BLACK
6
CONTINUOUS
10
5.327877834645669
20
-4.8212427952755901
11
5.3273451574803152
21
-4.8217754724409447
0
LINE
8
BLACK
6
CONTINUOUS
10
5.3273451574803152
20
-4.8217754724409447
11
5.3269685039370076
21
-4.8218503937007871
0
LINE
8
BLACK
6
CONTINUOUS
10
5.3269685039370076
20
-4.8218503937007871
11
5.1946850393700785
21
-4.8218503937007871
0
LINE
8
BLACK
6
CONTINUOUS
10
5.1946850393700785
20
-4.8218503937007871
11
5.1943083858267718
21
-4.8217754724409447
0
LINE
8
BLACK
6
CONTINUOUS
10
5.1943083858267718
20
-4.8217754724409447
11
5.1937757086614171
21
-4.8212427952755901
0
LINE
8
BLACK
6
CONTINUOUS
10
5.1937757086614171
20
-4.8212427952755901
11
5.1937007874015748
21
-4.8208661417322833
0
LINE
8
BLACK
6
CONTINUOUS
10
5.1937007874015748
20
-4.8208661417322833
11
5.1937007874015748
21
-4.7460629921259843
0
LINE
8
BLACK
6
CONTINUOUS
10
5.1937007874015748
20
-4.7460629921259843
11
5.1937757086614171
21
-4.7456863385826766
0
LINE
8
BLACK
6
CONTINUOUS
10
5.1937757086614171
20
-4.7456863385826766
11
5.1943083858267718
21
-4.7451536614173229
0
LINE
8
BLACK
6
CONTINUOUS
10
5.1943083858267718
20
-4.7451536614173229
11
5.1946850393700785
21
-4.7450787401574805
0
LINE
8
BLACK
6
CONTINUOUS
10
5.1946850393700785
20
-4.7450787401574805
11
5.3269685039370076
21
-4.7450787401574805
0
LINE
8
BLACK
6
CONTINUOUS
10
5.3269685039370076
20
-4.7450787401574805
11
5.3273451574803152
21
-4.7451536614173229
0
LINE
8
BLACK
6
CONTINUOUS
10
5.1956692913385822
20
-4.747047244094488
11
5.1956692913385822
21
-4.8198818897637796
0
LINE
8
BLACK
6
CONTINUOUS
10
5.1956692913385822
20
-4.8198818897637796
11
5.3259842519685039
21
-4.8198818897637796
0
LINE
8
BLACK
6
CONTINUOUS
10
5.3259842519685039
20
-4.8198818897637796
11
5.3259842519685039
21
-4.747047244094488
0
LINE
8
BLACK
6
CONTINUOUS
10
5.3259842519685039
20
-4.747047244094488
11
5.1956692913385822
21
-4.747047244094488
0
LINE
8
BLACK
6
CONTINUOUS
10
5.3273451574803152
20
-4.6408229527559053
11
5.327877834645669
21
-4.6413556299212599
0
LINE
8
BLACK
6
CONTINUOUS
10
5.327877834645669
20
-4.6413556299212599
11
5.3279527559055113
21
-4.6417322834645667
0
LINE
8
BLACK
6
CONTINUOUS
10
5.3279527559055113
20
-4.6417322834645667
11
5.3279527559055113
21
-4.7165354330708658
0
LINE
8
BLACK
6
CONTINUOUS
10
5.3279527559055113
20
-4.7165354330708658
11
5.327877834645669
21
-4.7169120866141734
0
LINE
8
BLACK
6
CONTINUOUS
10
5.327877834645669
20
-4.7169120866141734
11
5.3273451574803152
21
-4.7174447637795272
0
LINE
8
BLACK
6
CONTINUOUS
10
5.3273451574803152
20
-4.7174447637795272
11
5.3269685039370076
21
-4.7175196850393704
0
LINE
8
BLACK
6
CONTINUOUS
10
5.3269685039370076
20
-4.7175196850393704
11
5.1946850393700785
21
-4.7175196850393704
0
LINE
8
BLACK
6
CONTINUOUS
10
5.1946850393700785
20
-4.7175196850393704
11
5.1943083858267718
21
-4.7174447637795272
0
LINE
8
BLACK
6
CONTINUOUS
10
5.1943083858267718
20
-4.7174447637795272
11
5.1937757086614171
21
-4.7169120866141734
0
LINE
8
BLACK
6
CONTINUOUS
10
5.1937757086614171
20
-4.7169120866141734
11
5.1937007874015748
21
-4.7165354330708658
0
LINE
8
BLACK
6
CONTINUOUS
10
5.1937007874015748
20
-4.7165354330708658
11
5.1937007874015748
21
-4.6417322834645667
0
LINE
8
BLACK
6
CONTINUOUS
10
5.1937007874015748
20
-4.6417322834645667
11
5.1937757086614171
21
-4.6413556299212599
0
LINE
8
BLACK
6
CONTINUOUS
10
5.1937757086614171
20
-4.6413556299212599
11
5.1943083858267718
21
-4.6408229527559053
0
LINE
8
BLACK
6
CONTINUOUS
10
5.1943083858267718
20
-4.6408229527559053
11
5.1946850393700785
21
-4.640748031496063
0
LINE
8
BLACK
6
CONTINUOUS
10
5.1946850393700785
20
-4.640748031496063
11
5.3269685039370076
21
-4.640748031496063
0
LINE
8
BLACK
6
CONTINUOUS
10
5.3269685039370076
20
-4.640748031496063
11
5.3273451574803152
21
-4.6408229527559053
0
LINE
8
BLACK
6
CONTINUOUS
10
5.1956692913385822
20
-4.6427165354330704
11
5.1956692913385822
21
-4.715551181102362
0
LINE
8
BLACK
6
CONTINUOUS
10
5.1956692913385822
20
-4.715551181102362
11
5.3259842519685039
21
-4.715551181102362
0
LINE
8
BLACK
6
CONTINUOUS
10
5.3259842519685039
20
-4.715551181102362
11
5.3259842519685039
21
-4.6427165354330704
0
LINE
8
BLACK
6
CONTINUOUS
10
5.3259842519685039
20
-4.6427165354330704
11
5.1956692913385822
21
-4.6427165354330704
0
LINE
8
BLACK
6
CONTINUOUS
10
8.8551010629921265
20
-1.6740906692913387
11
8.8556337401574794
21
-1.6746233464566929
0
LINE
8
BLACK
6
CONTINUOUS
10
8.8556337401574794
20
-1.6746233464566929
11
8.8557086614173226
21
-1.675
0
LINE
8
BLACK
6
CONTINUOUS
10
8.8557086614173226
20
-1.675
11
8.8557086614173226
21
-3.2777559055118108
0
LINE
8
BLACK
6
CONTINUOUS
10
8.8557086614173226
20
-3.2777559055118108
11
8.8556337401574794
21
-3.278132559055118
0
LINE
8
BLACK
6
CONTINUOUS
10
8.8556337401574794
20
-3.278132559055118
11
8.8551010629921265
21
-3.2786652362204722
0
LINE
8
BLACK
6
CONTINUOUS
10
8.8551010629921265
20
-3.2786652362204722
11
8.8547244094488189
21
-3.278740157480315
0
LINE
8
BLACK
6
CONTINUOUS
10
8.8547244094488189
20
-3.278740157480315
11
5.7759842519685041
21
-3.278740157480315
0
LINE
8
BLACK
6
CONTINUOUS
10
5.7759842519685041
20
-3.278740157480315
11
5.7756075984251964
21
-3.2786652362204722
0
LINE
8
BLACK
6
CONTINUOUS
10
5.7756075984251964
20
-3.2786652362204722
11
5.7750749212598427
21
-3.278132559055118
0
LINE
8
BLACK
6
CONTINUOUS
10
5.7750749212598427
20
-3.278132559055118
11
5.7749999999999995
21
-3.2777559055118108
0
LINE
8
BLACK
6
CONTINUOUS
10
5.7749999999999995
20
-3.2777559055118108
11
5.7749999999999995
21
-1.675
0
LINE
8
BLACK
6
CONTINUOUS
10
5.7749999999999995
20
-1.675
11
5.7750749212598427
21
-1.6746233464566929
0
LINE
8
BLACK
6
CONTINUOUS
10
5.7750749212598427
20
-1.6746233464566929
11
5.7756075984251964
21
-1.6740906692913387
0
LINE
8
BLACK
6
CONTINUOUS
10
5.7756075984251964
20
-1.6740906692913387
11
5.7759842519685041
21
-1.6740157480314961
0
LINE
8
BLACK
6
CONTINUOUS
10
5.7759842519685041
20
-1.6740157480314961
11
8.8547244094488189
21
-1.6740157480314961
0
LINE
8
BLACK
6
CONTINUOUS
10
8.8547244094488189
20
-1.6740157480314961
11
8.8551010629921265
21
-1.6740906692913387
0
LINE
8
BLACK
6
CONTINUOUS
10
5.7769685039370078
20
-1.675984251968504
11
5.7769685039370078
21
-3.2767716535433071
0
LINE
8
BLACK
6
CONTINUOUS
10
5.7769685039370078
20
-3.2767716535433071
11
8.8537401574803152
21
-3.2767716535433071
0
LINE
8
BLACK
6
CONTINUOUS
10
8.8537401574803152
20
-3.2767716535433071
11
8.8537401574803152
21
-1.675984251968504
0
LINE
8
BLACK
6
CONTINUOUS
10
8.8537401574803152
20
-1.675984251968504
11
5.7769685039370078
21
-1.675984251968504
0
LINE
8
BLACK
6
CONTINUOUS
10
6.0925196850393704
20
-5.5901574803149607
11
6.0925196850393704
21
-5.6059055118110237
0
ARC
8
BLACK
10
6.1102362204724407
20
-5.6059055118110237
40
0.0177165354330709
50
-180.00000000
51
0.00000000
0
LINE
8
BLACK
6
CONTINUOUS
10
6.127952755905512
20
-5.6059055118110237
11
6.127952755905512
21
-5.5901574803149607
0
ARC
8
BLACK
10
6.1102362204724407
20
-5.5901574803149607
40
0.0177165354330709
50
0.00000000
51
180.00000000
0
LINE
8
BLACK
6
CONTINUOUS
10
6.2598425196850389
20
-5.5901574803149607
11
6.2598425196850389
21
-5.6059055118110237
0
ARC
8
BLACK
10
6.2775590551181102
20
-5.6059055118110237
40
0.0177165354330709
50
-180.00000000
51
0.00000000
0
LINE
8
BLACK
6
CONTINUOUS
10
6.2952755905511806
20
-5.6059055118110237
11
6.2952755905511806
21
-5.5901574803149607
0
ARC
8
BLACK
10
6.2775590551181102
20
-5.5901574803149607
40
0.0177165354330709
50
0.00000000
51
180.00000000
0
CIRCLE
8
BLACK
10
5.5651181102362202
20
-3.5463779527559054
40
0.0068897637795276
0
CIRCLE
8
BLACK
10
5.506062992125984
20
-1.4696062992125984
40
0.0068897637795276
0
CIRCLE
8
BLACK
10
9.1477952755905516
20
-3.507007874015748
40
0.0068897637795276
0
CIRCLE
8
BLACK
10
7.1354330708661413
20
-5.7086614173228343
40
0.0068897637795276
0
CIRCLE
8
BLACK
10
7.1354330708661413
20
-5.6086614173228346
40
0.0068897637795276
0
CIRCLE
8
BLACK
10
7.2354330708661418
20
-5.7086614173228343
40
0.0068897637795276
0
CIRCLE
8
BLACK
10
7.2354330708661418
20
-5.6086614173228346
40
0.0068897637795276
0
CIRCLE
8
BLACK
10
7.3354330708661415
20
-5.7086614173228343
40
0.0068897637795276
0
CIRCLE
8
BLACK
10
7.3354330708661415
20
-5.6086614173228346
40
0.0068897637795276
0
CIRCLE
8
BLACK
10
9.1576377952755905
20
-1.4696062992125984
40
0.0068897637795276
0
CIRCLE
8
BLACK
10
6.2204724409448815
20
-2.0964566929133857
40
0.0068897637795276
0
CIRCLE
8
BLACK
10
6.2204724409448815
20
-2.856299212598425
40
0.0068897637795276
0
CIRCLE
8
BLACK
10
8.4102362204724415
20
-2.0964566929133857
40
0.0068897637795276
0
CIRCLE
8
BLACK
10
8.4102362204724415
20
-2.856299212598425
40
0.0068897637795276
0
CIRCLE
8
BLACK
10
5.8862204724409448
20
-2.0964566929133857
40
0.0068897637795276
0
CIRCLE
8
BLACK
10
8.7444881889763781
20
-2.0964566929133857
40
0.0068897637795276
0
CIRCLE
8
BLACK
10
5.8862204724409448
20
-2.856299212598425
40
0.0068897637795276
0
CIRCLE
8
BLACK
10
8.7444881889763781
20
-2.856299212598425
40
0.0068897637795276
0
CIRCLE
8
BLACK
10
6.8334645669291341
20
-5.590551181102362
40
0.0068897637795276
0
CIRCLE
8
BLACK
10
6.7334645669291335
20
-5.590551181102362
40
0.0068897637795276
0
CIRCLE
8
BLACK
10
6.6334645669291339
20
-5.590551181102362
40
0.0068897637795276
0
CIRCLE
8
BLACK
10
6.5334645669291334
20
-5.590551181102362
40
0.0068897637795276
0
CIRCLE
8
BLACK
10
9.3123622047244101
20
-2.2849606299212599
40
0.0068897637795276
0
CIRCLE
8
BLACK
10
9.3123622047244101
20
-2.0574015748031496
40
0.0068897637795276
0
LINE
8
BLACK
6
CONTINUOUS
10
9.1477952755905516
20
-2.3609448818897638
11
9.187165354330709
21
-2.3609448818897638
0
ARC
8
BLACK
10
9.187165354330709
20
-2.3412598425196851
40
0.0196850393700787
50
-90.00000000
51
90.00000000
0
LINE
8
BLACK
6
CONTINUOUS
10
9.187165354330709
20
-2.3215748031496064
11
9.1477952755905516
21
-2.3215748031496064
0
ARC
8
BLACK
10
9.1477952755905516
20
-2.3412598425196851
40
0.0196850393700787
50
90.00000000
51
270.00000000
0
LINE
8
BLACK
6
CONTINUOUS
10
9.1477952755905516
20
-2.0207874015748031
11
9.187165354330709
21
-2.0207874015748031
0
ARC
8
BLACK
10
9.187165354330709
20
-2.0011023622047244
40
0.0196850393700787
50
-90.00000000
51
90.00000000
0
LINE
8
BLACK
6
CONTINUOUS
10
9.187165354330709
20
-1.9814173228346457
11
9.1477952755905516
21
-1.9814173228346457
0
ARC
8
BLACK
10
9.1477952755905516
20
-2.0011023622047244
40
0.0196850393700787
50
90.00000000
51
270.00000000
0
LINE
8
BLACK
6
CONTINUOUS
10
9.3113779527559046
20
-2.3619291338582675
11
9.3527165354330712
21
-2.3619291338582675
0
ARC
8
BLACK
10
9.3527165354330712
20
-2.3412598425196851
40
0.0206692913385827
50
-90.00000000
51
90.00000000
0
LINE
8
BLACK
6
CONTINUOUS
10
9.3527165354330712
20
-2.3205905511811022
11
9.3113779527559046
21
-2.3205905511811022
0
ARC
8
BLACK
10
9.3113779527559046
20
-2.3412598425196851
40
0.0206692913385827
50
90.00000000
51
270.00000000
0
LINE
8
BLACK
6
CONTINUOUS
10
9.3113779527559046
20
-2.0217716535433072
11
9.3527165354330712
21
-2.0217716535433072
0
ARC
8
BLACK
10
9.3527165354330712
20
-2.0011023622047244
40
0.0206692913385827
50
-90.00000000
51
90.00000000
0
LINE
8
BLACK
6
CONTINUOUS
10
9.3527165354330712
20
-1.9804330708661417
11
9.3113779527559046
21
-1.9804330708661417
0
ARC
8
BLACK
10
9.3113779527559046
20
-2.0011023622047244
40
0.0206692913385827
50
90.00000000
51
270.00000000
0
LINE
8
BLACK
6
CONTINUOUS
10
6.1003937007874018
20
-5.5901574803149607
11
6.1003937007874018
21
-5.6059055118110237
0
ARC
8
BLACK
10
6.1102362204724407
20
-5.6059055118110237
40
0.0098425196850394
50
-180.00000000
51
0.00000000
0
LINE
8
BLACK
6
CONTINUOUS
10
6.1200787401574805
20
-5.6059055118110237
11
6.1200787401574805
21
-5.5901574803149607
0
ARC
8
BLACK
10
6.1102362204724407
20
-5.5901574803149607
40
0.0098425196850394
50
0.00000000
51
180.00000000
0
LINE
8
BLACK
6
CONTINUOUS
10
6.2677165354330704
20
-5.5901574803149607
11
6.2677165354330704
21
-5.6059055118110237
0
ARC
8
BLACK
10
6.2775590551181102
20
-5.6059055118110237
40
0.0098425196850394
50
-180.00000000
51
0.00000000
0
LINE
8
BLACK
6
CONTINUOUS
10
6.2874015748031491
20
-5.6059055118110237
11
6.2874015748031491
21
-5.5901574803149607
0
ARC
8
BLACK
10
6.2775590551181102
20
-5.5901574803149607
40
0.0098425196850394
50
0.00000000
51
180.00000000
0
CIRCLE
8
BLACK
10
5.5651181102362202
20
-3.5463779527559054
40
0.0068897637795276
0
CIRCLE
8
BLACK
10
5.506062992125984
20
-1.4696062992125984
40
0.0068897637795276
0
CIRCLE
8
BLACK
10
9.1477952755905516
20
-3.507007874015748
40
0.0068897637795276
0
CIRCLE
8
BLACK
10
7.1354330708661413
20
-5.7086614173228343
40
0.0068897637795276
0
CIRCLE
8
BLACK
10
7.1354330708661413
20
-5.6086614173228346
40
0.0068897637795276
0
CIRCLE
8
BLACK
10
7.2354330708661418
20
-5.7086614173228343
40
0.0068897637795276
0
CIRCLE
8
BLACK
10
7.2354330708661418
20
-5.6086614173228346
40
0.0068897637795276
0
CIRCLE
8
BLACK
10
7.3354330708661415
20
-5.7086614173228343
40
0.0068897637795276
0
CIRCLE
8
BLACK
10
7.3354330708661415
20
-5.6086614173228346
40
0.0068897637795276
0
CIRCLE
8
BLACK
10
9.1576377952755905
20
-1.4696062992125984
40
0.0068897637795276
0
CIRCLE
8
BLACK
10
6.2204724409448815
20
-2.0964566929133857
40
0.0068897637795276
0
CIRCLE
8
BLACK
10
6.2204724409448815
20
-2.856299212598425
40
0.0068897637795276
0
CIRCLE
8
BLACK
10
8.4102362204724415
20
-2.0964566929133857
40
0.0068897637795276
0
CIRCLE
8
BLACK
10
8.4102362204724415
20
-2.856299212598425
40
0.0068897637795276
0
CIRCLE
8
BLACK
10
5.8862204724409448
20
-2.0964566929133857
40
0.0068897637795276
0
CIRCLE
8
BLACK
10
8.7444881889763781
20
-2.0964566929133857
40
0.0068897637795276
0
CIRCLE
8
BLACK
10
5.8862204724409448
20
-2.856299212598425
40
0.0068897637795276
0
CIRCLE
8
BLACK
10
8.7444881889763781
20
-2.856299212598425
40
0.0068897637795276
0
CIRCLE
8
BLACK
10
6.8334645669291341
20
-5.590551181102362
40
0.0068897637795276
0
CIRCLE
8
BLACK
10
6.7334645669291335
20
-5.590551181102362
40
0.0068897637795276
0
CIRCLE
8
BLACK
10
6.6334645669291339
20
-5.590551181102362
40
0.0068897637795276
0
CIRCLE
8
BLACK
10
6.5334645669291334
20
-5.590551181102362
40
0.0068897637795276
0
CIRCLE
8
BLACK
10
9.3123622047244101
20
-2.2849606299212599
40
0.0068897637795276
0
CIRCLE
8
BLACK
10
9.3123622047244101
20
-2.0574015748031496
40
0.0068897637795276
0
LINE
8
BLACK
6
CONTINUOUS
10
9.1517322834645665
20
-2.3530708661417323
11
9.1832283464566924
21
-2.3530708661417323
0
ARC
8
BLACK
10
9.1832283464566924
20
-2.3412598425196851
40
0.0118110236220472
50
-90.00000000
51
90.00000000
0
LINE
8
BLACK
6
CONTINUOUS
10
9.1832283464566924
20
-2.3294488188976379
11
9.1517322834645665
21
-2.3294488188976379
0
ARC
8
BLACK
10
9.1517322834645665
20
-2.3412598425196851
40
0.0118110236220472
50
90.00000000
51
270.00000000
0
LINE
8
BLACK
6
CONTINUOUS
10
9.1517322834645665
20
-2.0129133858267716
11
9.1832283464566924
21
-2.0129133858267716
0
ARC
8
BLACK
10
9.1832283464566924
20
-2.0011023622047244
40
0.0118110236220472
50
-90.00000000
51
90.00000000
0
LINE
8
BLACK
6
CONTINUOUS
10
9.1832283464566924
20
-1.9892913385826771
11
9.1517322834645665
21
-1.9892913385826771
0
ARC
8
BLACK
10
9.1517322834645665
20
-2.0011023622047244
40
0.0118110236220472
50
90.00000000
51
270.00000000
0
LINE
8
BLACK
6
CONTINUOUS
10
9.3103937007874009
20
-2.3530708661417323
11
9.353700787401575
21
-2.3530708661417323
0
ARC
8
BLACK
10
9.353700787401575
20
-2.3412598425196851
40
0.0118110236220472
50
-90.00000000
51
90.00000000
0
LINE
8
BLACK
6
CONTINUOUS
10
9.353700787401575
20
-2.3294488188976379
11
9.3103937007874009
21
-2.3294488188976379
0
ARC
8
BLACK
10
9.3103937007874009
20
-2.3412598425196851
40
0.0118110236220472
50
90.00000000
51
270.00000000
0
LINE
8
BLACK
6
CONTINUOUS
10
9.3103937007874009
20
-2.0129133858267716
11
9.353700787401575
21
-2.0129133858267716
0
ARC
8
BLACK
10
9.353700787401575
20
-2.0011023622047244
40
0.0118110236220472
50
-90.00000000
51
90.00000000
0
LINE
8
BLACK
6
CONTINUOUS
10
9.353700787401575
20
-1.9892913385826771
11
9.3103937007874009
21
-1.9892913385826771
0
ARC
8
BLACK
10
9.3103937007874009
20
-2.0011023622047244
40
0.0118110236220472
50
90.00000000
51
270.00000000
  0
ENDSEC
  0
EOF
