  0
SECTION
  2
HEADER
  9
$ANGBASE
  50
0.0
  9
$ANGDIR
  70
1
  9
$MEASUREMENT
  70
0
  0
ENDSEC
  0
SECTION
  2
TABLES
  0
TABLE
  2
LTYPE
  70
4
  0
LTYPE
  5
40F
  2
CONTINUOUS
  70
0
  3
Solid line
  72
65
  73
0
  40
0.0
  0
LTYPE
  5
410
  2
DASHDOT
 70
0
  3
Dash Dot ____ _ ____ _
 72
65
 73
4
 40
2.0
 49
1.25
 49
-0.25
 49
0.25
 49
-0.25
  0
LTYPE
  5
411
  2
DASHED
 70
0
  3
Dashed __ __ __ __ __
 72
65
 73
2
 40
0.75
 49
0.5
 49
-0.25
  0
LTYPE
  5
43B
  2
DOTTED
 70
0
  3
Dotted .  .  .  .
 72
65
 73
2
 40
0.2
 49
0.0
 49
-0.2
  0
ENDTAB
  0
TABLE
  2
STYLE
  70
4
  0
STYLE
  2
KICAD
  70
0
  40
0
  41
1
  42
1
  50
0
  71
0
  3
isocp.shx
  0
STYLE
  2
KICADB
  70
0
  40
0
  41
1
  42
1
  50
0
  71
0
  3
isocp.shx
  0
STYLE
  2
KICADI
  70
0
  40
0
  41
1
  42
1
  50
15
  71
0
  3
isocp.shx
  0
STYLE
  2
KICADBI
  70
0
  40
0
  41
1
  42
1
  50
15
  71
0
  3
isocp.shx
  0
ENDTAB
  0
TABLE
  2
LAYER
  70
1
  0
LAYER
  2
BLACK
  70
0
  62
7
  6
CONTINUOUS
  0
ENDTAB
  0
ENDSEC
  0
SECTION
  2
ENTITIES
0
LINE
8
BLACK
6
CONTINUOUS
10
4.5734645669291334
20
-5.0584645669291337
11
4.5065354330708658
21
-5.0584645669291337
0
LINE
8
BLACK
6
CONTINUOUS
10
4.5065354330708658
20
-5.0584645669291337
11
4.5065354330708658
21
-4.9915354330708661
0
LINE
8
BLACK
6
CONTINUOUS
10
4.5065354330708658
20
-4.9915354330708661
11
4.5734645669291334
21
-4.9915354330708661
0
LINE
8
BLACK
6
CONTINUOUS
10
4.5734645669291334
20
-4.9915354330708661
11
4.5734645669291334
21
-5.0584645669291337
0
LINE
8
BLACK
6
CONTINUOUS
10
4.2497142519685038
20
-4.9929764173228346
11
4.2557750787401574
21
-4.9954868897637796
0
LINE
8
BLACK
6
CONTINUOUS
10
4.2557750787401574
20
-4.9954868897637796
11
4.2612296850393703
21
-4.9991315354330705
0
LINE
8
BLACK
6
CONTINUOUS
10
4.2612296850393703
20
-4.9991315354330705
11
4.2658684645669291
21
-5.0037703149606294
0
LINE
8
BLACK
6
CONTINUOUS
10
4.2658684645669291
20
-5.0037703149606294
11
4.26951311023622
21
-5.0092249212598423
0
LINE
8
BLACK
6
CONTINUOUS
10
4.26951311023622
20
-5.0092249212598423
11
4.2720235826771651
21
-5.0152857480314958
0
LINE
8
BLACK
6
CONTINUOUS
10
4.2720235826771651
20
-5.0152857480314958
11
4.2733034251968505
21
-5.0217198818897639
0
LINE
8
BLACK
6
CONTINUOUS
10
4.2733034251968505
20
-5.0217198818897639
11
4.2733034251968505
21
-5.0282801181102359
0
LINE
8
BLACK
6
CONTINUOUS
10
4.2733034251968505
20
-5.0282801181102359
11
4.2720235826771651
21
-5.034714251968504
0
LINE
8
BLACK
6
CONTINUOUS
10
4.2720235826771651
20
-5.034714251968504
11
4.26951311023622
21
-5.0407750787401575
0
LINE
8
BLACK
6
CONTINUOUS
10
4.26951311023622
20
-5.0407750787401575
11
4.2658684645669291
21
-5.0462296850393695
0
LINE
8
BLACK
6
CONTINUOUS
10
4.2658684645669291
20
-5.0462296850393695
11
4.2612296850393703
21
-5.0508684645669293
0
LINE
8
BLACK
6
CONTINUOUS
10
4.2612296850393703
20
-5.0508684645669293
11
4.2557750787401574
21
-5.0545131102362202
0
LINE
8
BLACK
6
CONTINUOUS
10
4.2557750787401574
20
-5.0545131102362202
11
4.2497142519685038
21
-5.0570235826771652
0
LINE
8
BLACK
6
CONTINUOUS
10
4.2497142519685038
20
-5.0570235826771652
11
4.2432801181102358
21
-5.0583034251968506
0
LINE
8
BLACK
6
CONTINUOUS
10
4.2432801181102358
20
-5.0583034251968506
11
4.2367198818897638
21
-5.0583034251968506
0
LINE
8
BLACK
6
CONTINUOUS
10
4.2367198818897638
20
-5.0583034251968506
11
4.2302857480314957
21
-5.0570235826771652
0
LINE
8
BLACK
6
CONTINUOUS
10
4.2302857480314957
20
-5.0570235826771652
11
4.2242249212598422
21
-5.0545131102362202
0
LINE
8
BLACK
6
CONTINUOUS
10
4.2242249212598422
20
-5.0545131102362202
11
4.2187703149606302
21
-5.0508684645669293
0
LINE
8
BLACK
6
CONTINUOUS
10
4.2187703149606302
20
-5.0508684645669293
11
4.2141315354330704
21
-5.0462296850393695
0
LINE
8
BLACK
6
CONTINUOUS
10
4.2141315354330704
20
-5.0462296850393695
11
4.2104868897637795
21
-5.0407750787401575
0
LINE
8
BLACK
6
CONTINUOUS
10
4.2104868897637795
20
-5.0407750787401575
11
4.2079764173228345
21
-5.034714251968504
0
LINE
8
BLACK
6
CONTINUOUS
10
4.2079764173228345
20
-5.034714251968504
11
4.2066965748031491
21
-5.0282801181102359
0
LINE
8
BLACK
6
CONTINUOUS
10
4.2066965748031491
20
-5.0282801181102359
11
4.2066965748031491
21
-5.0217198818897639
0
LINE
8
BLACK
6
CONTINUOUS
10
4.2066965748031491
20
-5.0217198818897639
11
4.2079764173228345
21
-5.0152857480314958
0
LINE
8
BLACK
6
CONTINUOUS
10
4.2079764173228345
20
-5.0152857480314958
11
4.2104868897637795
21
-5.0092249212598423
0
LINE
8
BLACK
6
CONTINUOUS
10
4.2104868897637795
20
-5.0092249212598423
11
4.2141315354330704
21
-5.0037703149606294
0
LINE
8
BLACK
6
CONTINUOUS
10
4.2141315354330704
20
-5.0037703149606294
11
4.2187703149606302
21
-4.9991315354330705
0
LINE
8
BLACK
6
CONTINUOUS
10
4.2187703149606302
20
-4.9991315354330705
11
4.2242249212598422
21
-4.9954868897637796
0
LINE
8
BLACK
6
CONTINUOUS
10
4.2242249212598422
20
-4.9954868897637796
11
4.2302857480314957
21
-4.9929764173228346
0
LINE
8
BLACK
6
CONTINUOUS
10
4.2302857480314957
20
-4.9929764173228346
11
4.2367198818897638
21
-4.9916965748031492
0
LINE
8
BLACK
6
CONTINUOUS
10
4.2367198818897638
20
-4.9916965748031492
11
4.2432801181102358
21
-4.9916965748031492
0
LINE
8
BLACK
6
CONTINUOUS
10
4.2432801181102358
20
-4.9916965748031492
11
4.2497142519685038
21
-4.9929764173228346
0
LINE
8
BLACK
6
CONTINUOUS
10
4.3497142519685035
20
-4.9929764173228346
11
4.355775078740157
21
-4.9954868897637796
0
LINE
8
BLACK
6
CONTINUOUS
10
4.355775078740157
20
-4.9954868897637796
11
4.3612296850393699
21
-4.9991315354330705
0
LINE
8
BLACK
6
CONTINUOUS
10
4.3612296850393699
20
-4.9991315354330705
11
4.3658684645669288
21
-5.0037703149606294
0
LINE
8
BLACK
6
CONTINUOUS
10
4.3658684645669288
20
-5.0037703149606294
11
4.3695131102362206
21
-5.0092249212598423
0
LINE
8
BLACK
6
CONTINUOUS
10
4.3695131102362206
20
-5.0092249212598423
11
4.3720235826771656
21
-5.0152857480314958
0
LINE
8
BLACK
6
CONTINUOUS
10
4.3720235826771656
20
-5.0152857480314958
11
4.3733034251968501
21
-5.0217198818897639
0
LINE
8
BLACK
6
CONTINUOUS
10
4.3733034251968501
20
-5.0217198818897639
11
4.3733034251968501
21
-5.0282801181102359
0
LINE
8
BLACK
6
CONTINUOUS
10
4.3733034251968501
20
-5.0282801181102359
11
4.3720235826771656
21
-5.034714251968504
0
LINE
8
BLACK
6
CONTINUOUS
10
4.3720235826771656
20
-5.034714251968504
11
4.3695131102362206
21
-5.0407750787401575
0
LINE
8
BLACK
6
CONTINUOUS
10
4.3695131102362206
20
-5.0407750787401575
11
4.3658684645669288
21
-5.0462296850393695
0
LINE
8
BLACK
6
CONTINUOUS
10
4.3658684645669288
20
-5.0462296850393695
11
4.3612296850393699
21
-5.0508684645669293
0
LINE
8
BLACK
6
CONTINUOUS
10
4.3612296850393699
20
-5.0508684645669293
11
4.355775078740157
21
-5.0545131102362202
0
LINE
8
BLACK
6
CONTINUOUS
10
4.355775078740157
20
-5.0545131102362202
11
4.3497142519685035
21
-5.0570235826771652
0
LINE
8
BLACK
6
CONTINUOUS
10
4.3497142519685035
20
-5.0570235826771652
11
4.3432801181102363
21
-5.0583034251968506
0
LINE
8
BLACK
6
CONTINUOUS
10
4.3432801181102363
20
-5.0583034251968506
11
4.3367198818897634
21
-5.0583034251968506
0
LINE
8
BLACK
6
CONTINUOUS
10
4.3367198818897634
20
-5.0583034251968506
11
4.3302857480314962
21
-5.0570235826771652
0
LINE
8
BLACK
6
CONTINUOUS
10
4.3302857480314962
20
-5.0570235826771652
11
4.3242249212598427
21
-5.0545131102362202
0
LINE
8
BLACK
6
CONTINUOUS
10
4.3242249212598427
20
-5.0545131102362202
11
4.3187703149606298
21
-5.0508684645669293
0
LINE
8
BLACK
6
CONTINUOUS
10
4.3187703149606298
20
-5.0508684645669293
11
4.3141315354330709
21
-5.0462296850393695
0
LINE
8
BLACK
6
CONTINUOUS
10
4.3141315354330709
20
-5.0462296850393695
11
4.3104868897637791
21
-5.0407750787401575
0
LINE
8
BLACK
6
CONTINUOUS
10
4.3104868897637791
20
-5.0407750787401575
11
4.307976417322835
21
-5.034714251968504
0
LINE
8
BLACK
6
CONTINUOUS
10
4.307976417322835
20
-5.034714251968504
11
4.3066965748031496
21
-5.0282801181102359
0
LINE
8
BLACK
6
CONTINUOUS
10
4.3066965748031496
20
-5.0282801181102359
11
4.3066965748031496
21
-5.0217198818897639
0
LINE
8
BLACK
6
CONTINUOUS
10
4.3066965748031496
20
-5.0217198818897639
11
4.307976417322835
21
-5.0152857480314958
0
LINE
8
BLACK
6
CONTINUOUS
10
4.307976417322835
20
-5.0152857480314958
11
4.3104868897637791
21
-5.0092249212598423
0
LINE
8
BLACK
6
CONTINUOUS
10
4.3104868897637791
20
-5.0092249212598423
11
4.3141315354330709
21
-5.0037703149606294
0
LINE
8
BLACK
6
CONTINUOUS
10
4.3141315354330709
20
-5.0037703149606294
11
4.3187703149606298
21
-4.9991315354330705
0
LINE
8
BLACK
6
CONTINUOUS
10
4.3187703149606298
20
-4.9991315354330705
11
4.3242249212598427
21
-4.9954868897637796
0
LINE
8
BLACK
6
CONTINUOUS
10
4.3242249212598427
20
-4.9954868897637796
11
4.3302857480314962
21
-4.9929764173228346
0
LINE
8
BLACK
6
CONTINUOUS
10
4.3302857480314962
20
-4.9929764173228346
11
4.3367198818897634
21
-4.9916965748031492
0
LINE
8
BLACK
6
CONTINUOUS
10
4.3367198818897634
20
-4.9916965748031492
11
4.3432801181102363
21
-4.9916965748031492
0
LINE
8
BLACK
6
CONTINUOUS
10
4.3432801181102363
20
-4.9916965748031492
11
4.3497142519685035
21
-4.9929764173228346
0
LINE
8
BLACK
6
CONTINUOUS
10
4.449714251968504
20
-4.9929764173228346
11
4.4557750787401575
21
-4.9954868897637796
0
LINE
8
BLACK
6
CONTINUOUS
10
4.4557750787401575
20
-4.9954868897637796
11
4.4612296850393696
21
-4.9991315354330705
0
LINE
8
BLACK
6
CONTINUOUS
10
4.4612296850393696
20
-4.9991315354330705
11
4.4658684645669293
21
-5.0037703149606294
0
LINE
8
BLACK
6
CONTINUOUS
10
4.4658684645669293
20
-5.0037703149606294
11
4.4695131102362202
21
-5.0092249212598423
0
LINE
8
BLACK
6
CONTINUOUS
10
4.4695131102362202
20
-5.0092249212598423
11
4.4720235826771653
21
-5.0152857480314958
0
LINE
8
BLACK
6
CONTINUOUS
10
4.4720235826771653
20
-5.0152857480314958
11
4.4733034251968506
21
-5.0217198818897639
0
LINE
8
BLACK
6
CONTINUOUS
10
4.4733034251968506
20
-5.0217198818897639
11
4.4733034251968506
21
-5.0282801181102359
0
LINE
8
BLACK
6
CONTINUOUS
10
4.4733034251968506
20
-5.0282801181102359
11
4.4720235826771653
21
-5.034714251968504
0
LINE
8
BLACK
6
CONTINUOUS
10
4.4720235826771653
20
-5.034714251968504
11
4.4695131102362202
21
-5.0407750787401575
0
LINE
8
BLACK
6
CONTINUOUS
10
4.4695131102362202
20
-5.0407750787401575
11
4.4658684645669293
21
-5.0462296850393695
0
LINE
8
BLACK
6
CONTINUOUS
10
4.4658684645669293
20
-5.0462296850393695
11
4.4612296850393696
21
-5.0508684645669293
0
LINE
8
BLACK
6
CONTINUOUS
10
4.4612296850393696
20
-5.0508684645669293
11
4.4557750787401575
21
-5.0545131102362202
0
LINE
8
BLACK
6
CONTINUOUS
10
4.4557750787401575
20
-5.0545131102362202
11
4.449714251968504
21
-5.0570235826771652
0
LINE
8
BLACK
6
CONTINUOUS
10
4.449714251968504
20
-5.0570235826771652
11
4.4432801181102359
21
-5.0583034251968506
0
LINE
8
BLACK
6
CONTINUOUS
10
4.4432801181102359
20
-5.0583034251968506
11
4.436719881889764
21
-5.0583034251968506
0
LINE
8
BLACK
6
CONTINUOUS
10
4.436719881889764
20
-5.0583034251968506
11
4.4302857480314959
21
-5.0570235826771652
0
LINE
8
BLACK
6
CONTINUOUS
10
4.4302857480314959
20
-5.0570235826771652
11
4.4242249212598423
21
-5.0545131102362202
0
LINE
8
BLACK
6
CONTINUOUS
10
4.4242249212598423
20
-5.0545131102362202
11
4.4187703149606294
21
-5.0508684645669293
0
LINE
8
BLACK
6
CONTINUOUS
10
4.4187703149606294
20
-5.0508684645669293
11
4.4141315354330706
21
-5.0462296850393695
0
LINE
8
BLACK
6
CONTINUOUS
10
4.4141315354330706
20
-5.0462296850393695
11
4.4104868897637797
21
-5.0407750787401575
0
LINE
8
BLACK
6
CONTINUOUS
10
4.4104868897637797
20
-5.0407750787401575
11
4.4079764173228346
21
-5.034714251968504
0
LINE
8
BLACK
6
CONTINUOUS
10
4.4079764173228346
20
-5.034714251968504
11
4.4066965748031492
21
-5.0282801181102359
0
LINE
8
BLACK
6
CONTINUOUS
10
4.4066965748031492
20
-5.0282801181102359
11
4.4066965748031492
21
-5.0217198818897639
0
LINE
8
BLACK
6
CONTINUOUS
10
4.4066965748031492
20
-5.0217198818897639
11
4.4079764173228346
21
-5.0152857480314958
0
LINE
8
BLACK
6
CONTINUOUS
10
4.4079764173228346
20
-5.0152857480314958
11
4.4104868897637797
21
-5.0092249212598423
0
LINE
8
BLACK
6
CONTINUOUS
10
4.4104868897637797
20
-5.0092249212598423
11
4.4141315354330706
21
-5.0037703149606294
0
LINE
8
BLACK
6
CONTINUOUS
10
4.4141315354330706
20
-5.0037703149606294
11
4.4187703149606294
21
-4.9991315354330705
0
LINE
8
BLACK
6
CONTINUOUS
10
4.4187703149606294
20
-4.9991315354330705
11
4.4242249212598423
21
-4.9954868897637796
0
LINE
8
BLACK
6
CONTINUOUS
10
4.4242249212598423
20
-4.9954868897637796
11
4.4302857480314959
21
-4.9929764173228346
0
LINE
8
BLACK
6
CONTINUOUS
10
4.4302857480314959
20
-4.9929764173228346
11
4.436719881889764
21
-4.9916965748031492
0
LINE
8
BLACK
6
CONTINUOUS
10
4.436719881889764
20
-4.9916965748031492
11
4.4432801181102359
21
-4.9916965748031492
0
LINE
8
BLACK
6
CONTINUOUS
10
4.4432801181102359
20
-4.9916965748031492
11
4.449714251968504
21
-4.9929764173228346
0
LINE
8
BLACK
6
CONTINUOUS
10
4.3073622834645668
20
-4.7459205118110237
11
4.3134231102362204
21
-4.7484309842519687
0
LINE
8
BLACK
6
CONTINUOUS
10
4.3134231102362204
20
-4.7484309842519687
11
4.3188777165354333
21
-4.7520756299212596
0
LINE
8
BLACK
6
CONTINUOUS
10
4.3188777165354333
20
-4.7520756299212596
11
4.3235164960629922
21
-4.7567144094488185
0
LINE
8
BLACK
6
CONTINUOUS
10
4.3235164960629922
20
-4.7567144094488185
11
4.3271611417322831
21
-4.7621690157480314
0
LINE
8
BLACK
6
CONTINUOUS
10
4.3271611417322831
20
-4.7621690157480314
11
4.3296716141732281
21
-4.768229842519685
0
LINE
8
BLACK
6
CONTINUOUS
10
4.3296716141732281
20
-4.768229842519685
11
4.3309514566929135
21
-4.774663976377953
0
LINE
8
BLACK
6
CONTINUOUS
10
4.3309514566929135
20
-4.774663976377953
11
4.3309514566929135
21
-4.781224212598425
0
LINE
8
BLACK
6
CONTINUOUS
10
4.3309514566929135
20
-4.781224212598425
11
4.3296716141732281
21
-4.7876583464566931
0
LINE
8
BLACK
6
CONTINUOUS
10
4.3296716141732281
20
-4.7876583464566931
11
4.3271611417322831
21
-4.7937191732283466
0
LINE
8
BLACK
6
CONTINUOUS
10
4.3271611417322831
20
-4.7937191732283466
11
4.3235164960629922
21
-4.7991737795275586
0
LINE
8
BLACK
6
CONTINUOUS
10
4.3235164960629922
20
-4.7991737795275586
11
4.3188777165354333
21
-4.8038125590551184
0
LINE
8
BLACK
6
CONTINUOUS
10
4.3188777165354333
20
-4.8038125590551184
11
4.3134231102362204
21
-4.8074572047244093
0
LINE
8
BLACK
6
CONTINUOUS
10
4.3134231102362204
20
-4.8074572047244093
11
4.3073622834645668
21
-4.8099676771653543
0
LINE
8
BLACK
6
CONTINUOUS
10
4.3073622834645668
20
-4.8099676771653543
11
4.3009281496062988
21
-4.8112475196850388
0
LINE
8
BLACK
6
CONTINUOUS
10
4.3009281496062988
20
-4.8112475196850388
11
4.2943679133858268
21
-4.8112475196850388
0
LINE
8
BLACK
6
CONTINUOUS
10
4.2943679133858268
20
-4.8112475196850388
11
4.2879337795275587
21
-4.8099676771653543
0
LINE
8
BLACK
6
CONTINUOUS
10
4.2879337795275587
20
-4.8099676771653543
11
4.2818729527559052
21
-4.8074572047244093
0
LINE
8
BLACK
6
CONTINUOUS
10
4.2818729527559052
20
-4.8074572047244093
11
4.2764183464566932
21
-4.8038125590551184
0
LINE
8
BLACK
6
CONTINUOUS
10
4.2764183464566932
20
-4.8038125590551184
11
4.2717795669291334
21
-4.7991737795275586
0
LINE
8
BLACK
6
CONTINUOUS
10
4.2717795669291334
20
-4.7991737795275586
11
4.2681349212598425
21
-4.7937191732283466
0
LINE
8
BLACK
6
CONTINUOUS
10
4.2681349212598425
20
-4.7937191732283466
11
4.2656244488188975
21
-4.7876583464566931
0
LINE
8
BLACK
6
CONTINUOUS
10
4.2656244488188975
20
-4.7876583464566931
11
4.2643446062992121
21
-4.781224212598425
0
LINE
8
BLACK
6
CONTINUOUS
10
4.2643446062992121
20
-4.781224212598425
11
4.2643446062992121
21
-4.774663976377953
0
LINE
8
BLACK
6
CONTINUOUS
10
4.2643446062992121
20
-4.774663976377953
11
4.2656244488188975
21
-4.768229842519685
0
LINE
8
BLACK
6
CONTINUOUS
10
4.2656244488188975
20
-4.768229842519685
11
4.2681349212598425
21
-4.7621690157480314
0
LINE
8
BLACK
6
CONTINUOUS
10
4.2681349212598425
20
-4.7621690157480314
11
4.2717795669291334
21
-4.7567144094488185
0
LINE
8
BLACK
6
CONTINUOUS
10
4.2717795669291334
20
-4.7567144094488185
11
4.2764183464566932
21
-4.7520756299212596
0
LINE
8
BLACK
6
CONTINUOUS
10
4.2764183464566932
20
-4.7520756299212596
11
4.2818729527559052
21
-4.7484309842519687
0
LINE
8
BLACK
6
CONTINUOUS
10
4.2818729527559052
20
-4.7484309842519687
11
4.2879337795275587
21
-4.7459205118110237
0
LINE
8
BLACK
6
CONTINUOUS
10
4.2879337795275587
20
-4.7459205118110237
11
4.2943679133858268
21
-4.7446406692913383
0
LINE
8
BLACK
6
CONTINUOUS
10
4.2943679133858268
20
-4.7446406692913383
11
4.3009281496062988
21
-4.7446406692913383
0
LINE
8
BLACK
6
CONTINUOUS
10
4.3009281496062988
20
-4.7446406692913383
11
4.3073622834645668
21
-4.7459205118110237
0
LINE
8
BLACK
6
CONTINUOUS
10
4.4073622834645665
20
-4.7459205118110237
11
4.41342311023622
21
-4.7484309842519687
0
LINE
8
BLACK
6
CONTINUOUS
10
4.41342311023622
20
-4.7484309842519687
11
4.4188777165354329
21
-4.7520756299212596
0
LINE
8
BLACK
6
CONTINUOUS
10
4.4188777165354329
20
-4.7520756299212596
11
4.4235164960629918
21
-4.7567144094488185
0
LINE
8
BLACK
6
CONTINUOUS
10
4.4235164960629918
20
-4.7567144094488185
11
4.4271611417322836
21
-4.7621690157480314
0
LINE
8
BLACK
6
CONTINUOUS
10
4.4271611417322836
20
-4.7621690157480314
11
4.4296716141732286
21
-4.768229842519685
0
LINE
8
BLACK
6
CONTINUOUS
10
4.4296716141732286
20
-4.768229842519685
11
4.4309514566929131
21
-4.774663976377953
0
LINE
8
BLACK
6
CONTINUOUS
10
4.4309514566929131
20
-4.774663976377953
11
4.4309514566929131
21
-4.781224212598425
0
LINE
8
BLACK
6
CONTINUOUS
10
4.4309514566929131
20
-4.781224212598425
11
4.4296716141732286
21
-4.7876583464566931
0
LINE
8
BLACK
6
CONTINUOUS
10
4.4296716141732286
20
-4.7876583464566931
11
4.4271611417322836
21
-4.7937191732283466
0
LINE
8
BLACK
6
CONTINUOUS
10
4.4271611417322836
20
-4.7937191732283466
11
4.4235164960629918
21
-4.7991737795275586
0
LINE
8
BLACK
6
CONTINUOUS
10
4.4235164960629918
20
-4.7991737795275586
11
4.4188777165354329
21
-4.8038125590551184
0
LINE
8
BLACK
6
CONTINUOUS
10
4.4188777165354329
20
-4.8038125590551184
11
4.41342311023622
21
-4.8074572047244093
0
LINE
8
BLACK
6
CONTINUOUS
10
4.41342311023622
20
-4.8074572047244093
11
4.4073622834645665
21
-4.8099676771653543
0
LINE
8
BLACK
6
CONTINUOUS
10
4.4073622834645665
20
-4.8099676771653543
11
4.4009281496062993
21
-4.8112475196850388
0
LINE
8
BLACK
6
CONTINUOUS
10
4.4009281496062993
20
-4.8112475196850388
11
4.3943679133858264
21
-4.8112475196850388
0
LINE
8
BLACK
6
CONTINUOUS
10
4.3943679133858264
20
-4.8112475196850388
11
4.3879337795275593
21
-4.8099676771653543
0
LINE
8
BLACK
6
CONTINUOUS
10
4.3879337795275593
20
-4.8099676771653543
11
4.3818729527559057
21
-4.8074572047244093
0
LINE
8
BLACK
6
CONTINUOUS
10
4.3818729527559057
20
-4.8074572047244093
11
4.3764183464566928
21
-4.8038125590551184
0
LINE
8
BLACK
6
CONTINUOUS
10
4.3764183464566928
20
-4.8038125590551184
11
4.3717795669291339
21
-4.7991737795275586
0
LINE
8
BLACK
6
CONTINUOUS
10
4.3717795669291339
20
-4.7991737795275586
11
4.3681349212598422
21
-4.7937191732283466
0
LINE
8
BLACK
6
CONTINUOUS
10
4.3681349212598422
20
-4.7937191732283466
11
4.3656244488188971
21
-4.7876583464566931
0
LINE
8
BLACK
6
CONTINUOUS
10
4.3656244488188971
20
-4.7876583464566931
11
4.3643446062992126
21
-4.781224212598425
0
LINE
8
BLACK
6
CONTINUOUS
10
4.3643446062992126
20
-4.781224212598425
11
4.3643446062992126
21
-4.774663976377953
0
LINE
8
BLACK
6
CONTINUOUS
10
4.3643446062992126
20
-4.774663976377953
11
4.3656244488188971
21
-4.768229842519685
0
LINE
8
BLACK
6
CONTINUOUS
10
4.3656244488188971
20
-4.768229842519685
11
4.3681349212598422
21
-4.7621690157480314
0
LINE
8
BLACK
6
CONTINUOUS
10
4.3681349212598422
20
-4.7621690157480314
11
4.3717795669291339
21
-4.7567144094488185
0
LINE
8
BLACK
6
CONTINUOUS
10
4.3717795669291339
20
-4.7567144094488185
11
4.3764183464566928
21
-4.7520756299212596
0
LINE
8
BLACK
6
CONTINUOUS
10
4.3764183464566928
20
-4.7520756299212596
11
4.3818729527559057
21
-4.7484309842519687
0
LINE
8
BLACK
6
CONTINUOUS
10
4.3818729527559057
20
-4.7484309842519687
11
4.3879337795275593
21
-4.7459205118110237
0
LINE
8
BLACK
6
CONTINUOUS
10
4.3879337795275593
20
-4.7459205118110237
11
4.3943679133858264
21
-4.7446406692913383
0
LINE
8
BLACK
6
CONTINUOUS
10
4.3943679133858264
20
-4.7446406692913383
11
4.4009281496062993
21
-4.7446406692913383
0
LINE
8
BLACK
6
CONTINUOUS
10
4.4009281496062993
20
-4.7446406692913383
11
4.4073622834645665
21
-4.7459205118110237
0
LINE
8
BLACK
6
CONTINUOUS
10
3.8232914173228347
20
-4.6900724409448822
11
3.8277417716535433
21
-4.6926418503937004
0
LINE
8
BLACK
6
CONTINUOUS
10
3.8277417716535433
20
-4.6926418503937004
11
3.831375472440945
21
-4.6962755511811025
0
LINE
8
BLACK
6
CONTINUOUS
10
3.831375472440945
20
-4.6962755511811025
11
3.8339448818897637
21
-4.7007259055118107
0
LINE
8
BLACK
6
CONTINUOUS
10
3.8339448818897637
20
-4.7007259055118107
11
3.8352748818897635
21
-4.7056896456692909
0
LINE
8
BLACK
6
CONTINUOUS
10
3.8352748818897635
20
-4.7056896456692909
11
3.8354433070866141
21
-4.70825905511811
0
LINE
8
BLACK
6
CONTINUOUS
10
3.8354433070866141
20
-4.70825905511811
11
3.8354433070866141
21
-4.7476291338582675
0
LINE
8
BLACK
6
CONTINUOUS
10
3.8354433070866141
20
-4.7476291338582675
11
3.8352748818897635
21
-4.7501985433070866
0
LINE
8
BLACK
6
CONTINUOUS
10
3.8352748818897635
20
-4.7501985433070866
11
3.8339448818897637
21
-4.7551622834645668
0
LINE
8
BLACK
6
CONTINUOUS
10
3.8339448818897637
20
-4.7551622834645668
11
3.831375472440945
21
-4.7596126377952759
0
LINE
8
BLACK
6
CONTINUOUS
10
3.831375472440945
20
-4.7596126377952759
11
3.8277417716535433
21
-4.7632463385826771
0
LINE
8
BLACK
6
CONTINUOUS
10
3.8277417716535433
20
-4.7632463385826771
11
3.8232914173228347
21
-4.7658157480314962
0
LINE
8
BLACK
6
CONTINUOUS
10
3.8232914173228347
20
-4.7658157480314962
11
3.818327677165354
21
-4.7671457480314956
0
LINE
8
BLACK
6
CONTINUOUS
10
3.818327677165354
20
-4.7671457480314956
11
3.8131888582677163
21
-4.7671457480314956
0
LINE
8
BLACK
6
CONTINUOUS
10
3.8131888582677163
20
-4.7671457480314956
11
3.808225118110236
21
-4.7658157480314962
0
LINE
8
BLACK
6
CONTINUOUS
10
3.808225118110236
20
-4.7658157480314962
11
3.8037747637795274
21
-4.7632463385826771
0
LINE
8
BLACK
6
CONTINUOUS
10
3.8037747637795274
20
-4.7632463385826771
11
3.8001410629921257
21
-4.7596126377952759
0
LINE
8
BLACK
6
CONTINUOUS
10
3.8001410629921257
20
-4.7596126377952759
11
3.7975716535433071
21
-4.7551622834645668
0
LINE
8
BLACK
6
CONTINUOUS
10
3.7975716535433071
20
-4.7551622834645668
11
3.7962416535433068
21
-4.7501985433070866
0
LINE
8
BLACK
6
CONTINUOUS
10
3.7962416535433068
20
-4.7501985433070866
11
3.7960732283464567
21
-4.7476291338582675
0
LINE
8
BLACK
6
CONTINUOUS
10
3.7960732283464567
20
-4.7476291338582675
11
3.7960732283464567
21
-4.70825905511811
0
LINE
8
BLACK
6
CONTINUOUS
10
3.7960732283464567
20
-4.70825905511811
11
3.7962416535433068
21
-4.7056896456692909
0
LINE
8
BLACK
6
CONTINUOUS
10
3.7962416535433068
20
-4.7056896456692909
11
3.7975716535433071
21
-4.7007259055118107
0
LINE
8
BLACK
6
CONTINUOUS
10
3.7975716535433071
20
-4.7007259055118107
11
3.8001410629921257
21
-4.6962755511811025
0
LINE
8
BLACK
6
CONTINUOUS
10
3.8001410629921257
20
-4.6962755511811025
11
3.8037747637795274
21
-4.6926418503937004
0
LINE
8
BLACK
6
CONTINUOUS
10
3.8037747637795274
20
-4.6926418503937004
11
3.808225118110236
21
-4.6900724409448822
0
LINE
8
BLACK
6
CONTINUOUS
10
3.808225118110236
20
-4.6900724409448822
11
3.8131888582677163
21
-4.6887424409448819
0
LINE
8
BLACK
6
CONTINUOUS
10
3.8131888582677163
20
-4.6887424409448819
11
3.818327677165354
21
-4.6887424409448819
0
LINE
8
BLACK
6
CONTINUOUS
10
3.818327677165354
20
-4.6887424409448819
11
3.8232914173228347
21
-4.6900724409448822
0
LINE
8
BLACK
6
CONTINUOUS
10
4.163448897637795
20
-4.6900724409448822
11
4.1678992519685041
21
-4.6926418503937004
0
LINE
8
BLACK
6
CONTINUOUS
10
4.1678992519685041
20
-4.6926418503937004
11
4.1715329527559053
21
-4.6962755511811025
0
LINE
8
BLACK
6
CONTINUOUS
10
4.1715329527559053
20
-4.6962755511811025
11
4.1741023622047244
21
-4.7007259055118107
0
LINE
8
BLACK
6
CONTINUOUS
10
4.1741023622047244
20
-4.7007259055118107
11
4.1754323622047247
21
-4.7056896456692909
0
LINE
8
BLACK
6
CONTINUOUS
10
4.1754323622047247
20
-4.7056896456692909
11
4.1756007874015744
21
-4.70825905511811
0
LINE
8
BLACK
6
CONTINUOUS
10
4.1756007874015744
20
-4.70825905511811
11
4.1756007874015744
21
-4.7476291338582675
0
LINE
8
BLACK
6
CONTINUOUS
10
4.1756007874015744
20
-4.7476291338582675
11
4.1754323622047247
21
-4.7501985433070866
0
LINE
8
BLACK
6
CONTINUOUS
10
4.1754323622047247
20
-4.7501985433070866
11
4.1741023622047244
21
-4.7551622834645668
0
LINE
8
BLACK
6
CONTINUOUS
10
4.1741023622047244
20
-4.7551622834645668
11
4.1715329527559053
21
-4.7596126377952759
0
LINE
8
BLACK
6
CONTINUOUS
10
4.1715329527559053
20
-4.7596126377952759
11
4.1678992519685041
21
-4.7632463385826771
0
LINE
8
BLACK
6
CONTINUOUS
10
4.1678992519685041
20
-4.7632463385826771
11
4.163448897637795
21
-4.7658157480314962
0
LINE
8
BLACK
6
CONTINUOUS
10
4.163448897637795
20
-4.7658157480314962
11
4.1584851574803148
21
-4.7671457480314956
0
LINE
8
BLACK
6
CONTINUOUS
10
4.1584851574803148
20
-4.7671457480314956
11
4.1533463385826774
21
-4.7671457480314956
0
LINE
8
BLACK
6
CONTINUOUS
10
4.1533463385826774
20
-4.7671457480314956
11
4.1483825984251972
21
-4.7658157480314962
0
LINE
8
BLACK
6
CONTINUOUS
10
4.1483825984251972
20
-4.7658157480314962
11
4.1439322440944881
21
-4.7632463385826771
0
LINE
8
BLACK
6
CONTINUOUS
10
4.1439322440944881
20
-4.7632463385826771
11
4.1402985433070869
21
-4.7596126377952759
0
LINE
8
BLACK
6
CONTINUOUS
10
4.1402985433070869
20
-4.7596126377952759
11
4.1377291338582678
21
-4.7551622834645668
0
LINE
8
BLACK
6
CONTINUOUS
10
4.1377291338582678
20
-4.7551622834645668
11
4.1363991338582675
21
-4.7501985433070866
0
LINE
8
BLACK
6
CONTINUOUS
10
4.1363991338582675
20
-4.7501985433070866
11
4.136230708661417
21
-4.7476291338582675
0
LINE
8
BLACK
6
CONTINUOUS
10
4.136230708661417
20
-4.7476291338582675
11
4.136230708661417
21
-4.70825905511811
0
LINE
8
BLACK
6
CONTINUOUS
10
4.136230708661417
20
-4.70825905511811
11
4.1363991338582675
21
-4.7056896456692909
0
LINE
8
BLACK
6
CONTINUOUS
10
4.1363991338582675
20
-4.7056896456692909
11
4.1377291338582678
21
-4.7007259055118107
0
LINE
8
BLACK
6
CONTINUOUS
10
4.1377291338582678
20
-4.7007259055118107
11
4.1402985433070869
21
-4.6962755511811025
0
LINE
8
BLACK
6
CONTINUOUS
10
4.1402985433070869
20
-4.6962755511811025
11
4.1439322440944881
21
-4.6926418503937004
0
LINE
8
BLACK
6
CONTINUOUS
10
4.1439322440944881
20
-4.6926418503937004
11
4.1483825984251972
21
-4.6900724409448822
0
LINE
8
BLACK
6
CONTINUOUS
10
4.1483825984251972
20
-4.6900724409448822
11
4.1533463385826774
21
-4.6887424409448819
0
LINE
8
BLACK
6
CONTINUOUS
10
4.1533463385826774
20
-4.6887424409448819
11
4.1584851574803148
21
-4.6887424409448819
0
LINE
8
BLACK
6
CONTINUOUS
10
4.1584851574803148
20
-4.6887424409448819
11
4.163448897637795
21
-4.6900724409448822
0
LINE
8
BLACK
6
CONTINUOUS
10
4.3073622834645668
20
-4.6459205118110232
11
4.3134231102362204
21
-4.6484309842519682
0
LINE
8
BLACK
6
CONTINUOUS
10
4.3134231102362204
20
-4.6484309842519682
11
4.3188777165354333
21
-4.65207562992126
0
LINE
8
BLACK
6
CONTINUOUS
10
4.3188777165354333
20
-4.65207562992126
11
4.3235164960629922
21
-4.6567144094488189
0
LINE
8
BLACK
6
CONTINUOUS
10
4.3235164960629922
20
-4.6567144094488189
11
4.3271611417322831
21
-4.6621690157480318
0
LINE
8
BLACK
6
CONTINUOUS
10
4.3271611417322831
20
-4.6621690157480318
11
4.3296716141732281
21
-4.6682298425196853
0
LINE
8
BLACK
6
CONTINUOUS
10
4.3296716141732281
20
-4.6682298425196853
11
4.3309514566929135
21
-4.6746639763779525
0
LINE
8
BLACK
6
CONTINUOUS
10
4.3309514566929135
20
-4.6746639763779525
11
4.3309514566929135
21
-4.6812242125984254
0
LINE
8
BLACK
6
CONTINUOUS
10
4.3309514566929135
20
-4.6812242125984254
11
4.3296716141732281
21
-4.6876583464566925
0
LINE
8
BLACK
6
CONTINUOUS
10
4.3296716141732281
20
-4.6876583464566925
11
4.3271611417322831
21
-4.6937191732283461
0
LINE
8
BLACK
6
CONTINUOUS
10
4.3271611417322831
20
-4.6937191732283461
11
4.3235164960629922
21
-4.699173779527559
0
LINE
8
BLACK
6
CONTINUOUS
10
4.3235164960629922
20
-4.699173779527559
11
4.3188777165354333
21
-4.7038125590551179
0
LINE
8
BLACK
6
CONTINUOUS
10
4.3188777165354333
20
-4.7038125590551179
11
4.3134231102362204
21
-4.7074572047244096
0
LINE
8
BLACK
6
CONTINUOUS
10
4.3134231102362204
20
-4.7074572047244096
11
4.3073622834645668
21
-4.7099676771653538
0
LINE
8
BLACK
6
CONTINUOUS
10
4.3073622834645668
20
-4.7099676771653538
11
4.3009281496062988
21
-4.7112475196850392
0
LINE
8
BLACK
6
CONTINUOUS
10
4.3009281496062988
20
-4.7112475196850392
11
4.2943679133858268
21
-4.7112475196850392
0
LINE
8
BLACK
6
CONTINUOUS
10
4.2943679133858268
20
-4.7112475196850392
11
4.2879337795275587
21
-4.7099676771653538
0
LINE
8
BLACK
6
CONTINUOUS
10
4.2879337795275587
20
-4.7099676771653538
11
4.2818729527559052
21
-4.7074572047244096
0
LINE
8
BLACK
6
CONTINUOUS
10
4.2818729527559052
20
-4.7074572047244096
11
4.2764183464566932
21
-4.7038125590551179
0
LINE
8
BLACK
6
CONTINUOUS
10
4.2764183464566932
20
-4.7038125590551179
11
4.2717795669291334
21
-4.699173779527559
0
LINE
8
BLACK
6
CONTINUOUS
10
4.2717795669291334
20
-4.699173779527559
11
4.2681349212598425
21
-4.6937191732283461
0
LINE
8
BLACK
6
CONTINUOUS
10
4.2681349212598425
20
-4.6937191732283461
11
4.2656244488188975
21
-4.6876583464566925
0
LINE
8
BLACK
6
CONTINUOUS
10
4.2656244488188975
20
-4.6876583464566925
11
4.2643446062992121
21
-4.6812242125984254
0
LINE
8
BLACK
6
CONTINUOUS
10
4.2643446062992121
20
-4.6812242125984254
11
4.2643446062992121
21
-4.6746639763779525
0
LINE
8
BLACK
6
CONTINUOUS
10
4.2643446062992121
20
-4.6746639763779525
11
4.2656244488188975
21
-4.6682298425196853
0
LINE
8
BLACK
6
CONTINUOUS
10
4.2656244488188975
20
-4.6682298425196853
11
4.2681349212598425
21
-4.6621690157480318
0
LINE
8
BLACK
6
CONTINUOUS
10
4.2681349212598425
20
-4.6621690157480318
11
4.2717795669291334
21
-4.6567144094488189
0
LINE
8
BLACK
6
CONTINUOUS
10
4.2717795669291334
20
-4.6567144094488189
11
4.2764183464566932
21
-4.65207562992126
0
LINE
8
BLACK
6
CONTINUOUS
10
4.2764183464566932
20
-4.65207562992126
11
4.2818729527559052
21
-4.6484309842519682
0
LINE
8
BLACK
6
CONTINUOUS
10
4.2818729527559052
20
-4.6484309842519682
11
4.2879337795275587
21
-4.6459205118110232
0
LINE
8
BLACK
6
CONTINUOUS
10
4.2879337795275587
20
-4.6459205118110232
11
4.2943679133858268
21
-4.6446406692913387
0
LINE
8
BLACK
6
CONTINUOUS
10
4.2943679133858268
20
-4.6446406692913387
11
4.3009281496062988
21
-4.6446406692913387
0
LINE
8
BLACK
6
CONTINUOUS
10
4.3009281496062988
20
-4.6446406692913387
11
4.3073622834645668
21
-4.6459205118110232
0
LINE
8
BLACK
6
CONTINUOUS
10
4.4073622834645665
20
-4.6459205118110232
11
4.41342311023622
21
-4.6484309842519682
0
LINE
8
BLACK
6
CONTINUOUS
10
4.41342311023622
20
-4.6484309842519682
11
4.4188777165354329
21
-4.65207562992126
0
LINE
8
BLACK
6
CONTINUOUS
10
4.4188777165354329
20
-4.65207562992126
11
4.4235164960629918
21
-4.6567144094488189
0
LINE
8
BLACK
6
CONTINUOUS
10
4.4235164960629918
20
-4.6567144094488189
11
4.4271611417322836
21
-4.6621690157480318
0
LINE
8
BLACK
6
CONTINUOUS
10
4.4271611417322836
20
-4.6621690157480318
11
4.4296716141732286
21
-4.6682298425196853
0
LINE
8
BLACK
6
CONTINUOUS
10
4.4296716141732286
20
-4.6682298425196853
11
4.4309514566929131
21
-4.6746639763779525
0
LINE
8
BLACK
6
CONTINUOUS
10
4.4309514566929131
20
-4.6746639763779525
11
4.4309514566929131
21
-4.6812242125984254
0
LINE
8
BLACK
6
CONTINUOUS
10
4.4309514566929131
20
-4.6812242125984254
11
4.4296716141732286
21
-4.6876583464566925
0
LINE
8
BLACK
6
CONTINUOUS
10
4.4296716141732286
20
-4.6876583464566925
11
4.4271611417322836
21
-4.6937191732283461
0
LINE
8
BLACK
6
CONTINUOUS
10
4.4271611417322836
20
-4.6937191732283461
11
4.4235164960629918
21
-4.699173779527559
0
LINE
8
BLACK
6
CONTINUOUS
10
4.4235164960629918
20
-4.699173779527559
11
4.4188777165354329
21
-4.7038125590551179
0
LINE
8
BLACK
6
CONTINUOUS
10
4.4188777165354329
20
-4.7038125590551179
11
4.41342311023622
21
-4.7074572047244096
0
LINE
8
BLACK
6
CONTINUOUS
10
4.41342311023622
20
-4.7074572047244096
11
4.4073622834645665
21
-4.7099676771653538
0
LINE
8
BLACK
6
CONTINUOUS
10
4.4073622834645665
20
-4.7099676771653538
11
4.4009281496062993
21
-4.7112475196850392
0
LINE
8
BLACK
6
CONTINUOUS
10
4.4009281496062993
20
-4.7112475196850392
11
4.3943679133858264
21
-4.7112475196850392
0
LINE
8
BLACK
6
CONTINUOUS
10
4.3943679133858264
20
-4.7112475196850392
11
4.3879337795275593
21
-4.7099676771653538
0
LINE
8
BLACK
6
CONTINUOUS
10
4.3879337795275593
20
-4.7099676771653538
11
4.3818729527559057
21
-4.7074572047244096
0
LINE
8
BLACK
6
CONTINUOUS
10
4.3818729527559057
20
-4.7074572047244096
11
4.3764183464566928
21
-4.7038125590551179
0
LINE
8
BLACK
6
CONTINUOUS
10
4.3764183464566928
20
-4.7038125590551179
11
4.3717795669291339
21
-4.699173779527559
0
LINE
8
BLACK
6
CONTINUOUS
10
4.3717795669291339
20
-4.699173779527559
11
4.3681349212598422
21
-4.6937191732283461
0
LINE
8
BLACK
6
CONTINUOUS
10
4.3681349212598422
20
-4.6937191732283461
11
4.3656244488188971
21
-4.6876583464566925
0
LINE
8
BLACK
6
CONTINUOUS
10
4.3656244488188971
20
-4.6876583464566925
11
4.3643446062992126
21
-4.6812242125984254
0
LINE
8
BLACK
6
CONTINUOUS
10
4.3643446062992126
20
-4.6812242125984254
11
4.3643446062992126
21
-4.6746639763779525
0
LINE
8
BLACK
6
CONTINUOUS
10
4.3643446062992126
20
-4.6746639763779525
11
4.3656244488188971
21
-4.6682298425196853
0
LINE
8
BLACK
6
CONTINUOUS
10
4.3656244488188971
20
-4.6682298425196853
11
4.3681349212598422
21
-4.6621690157480318
0
LINE
8
BLACK
6
CONTINUOUS
10
4.3681349212598422
20
-4.6621690157480318
11
4.3717795669291339
21
-4.6567144094488189
0
LINE
8
BLACK
6
CONTINUOUS
10
4.3717795669291339
20
-4.6567144094488189
11
4.3764183464566928
21
-4.65207562992126
0
LINE
8
BLACK
6
CONTINUOUS
10
4.3764183464566928
20
-4.65207562992126
11
4.3818729527559057
21
-4.6484309842519682
0
LINE
8
BLACK
6
CONTINUOUS
10
4.3818729527559057
20
-4.6484309842519682
11
4.3879337795275593
21
-4.6459205118110232
0
LINE
8
BLACK
6
CONTINUOUS
10
4.3879337795275593
20
-4.6459205118110232
11
4.3943679133858264
21
-4.6446406692913387
0
LINE
8
BLACK
6
CONTINUOUS
10
4.3943679133858264
20
-4.6446406692913387
11
4.4009281496062993
21
-4.6446406692913387
0
LINE
8
BLACK
6
CONTINUOUS
10
4.4009281496062993
20
-4.6446406692913387
11
4.4073622834645665
21
-4.6459205118110232
0
LINE
8
BLACK
6
CONTINUOUS
10
4.3311125984251966
20
-4.6114086614173226
11
4.264183464566929
21
-4.6114086614173226
0
LINE
8
BLACK
6
CONTINUOUS
10
4.264183464566929
20
-4.6114086614173226
11
4.264183464566929
21
-4.544479527559055
0
LINE
8
BLACK
6
CONTINUOUS
10
4.264183464566929
20
-4.544479527559055
11
4.3311125984251966
21
-4.544479527559055
0
LINE
8
BLACK
6
CONTINUOUS
10
4.3311125984251966
20
-4.544479527559055
11
4.3311125984251966
21
-4.6114086614173226
0
LINE
8
BLACK
6
CONTINUOUS
10
4.4073622834645665
20
-4.5459205118110235
11
4.41342311023622
21
-4.5484309842519686
0
LINE
8
BLACK
6
CONTINUOUS
10
4.41342311023622
20
-4.5484309842519686
11
4.4188777165354329
21
-4.5520756299212595
0
LINE
8
BLACK
6
CONTINUOUS
10
4.4188777165354329
20
-4.5520756299212595
11
4.4235164960629918
21
-4.5567144094488192
0
LINE
8
BLACK
6
CONTINUOUS
10
4.4235164960629918
20
-4.5567144094488192
11
4.4271611417322836
21
-4.5621690157480312
0
LINE
8
BLACK
6
CONTINUOUS
10
4.4271611417322836
20
-4.5621690157480312
11
4.4296716141732286
21
-4.5682298425196848
0
LINE
8
BLACK
6
CONTINUOUS
10
4.4296716141732286
20
-4.5682298425196848
11
4.4309514566929131
21
-4.5746639763779529
0
LINE
8
BLACK
6
CONTINUOUS
10
4.4309514566929131
20
-4.5746639763779529
11
4.4309514566929131
21
-4.5812242125984248
0
LINE
8
BLACK
6
CONTINUOUS
10
4.4309514566929131
20
-4.5812242125984248
11
4.4296716141732286
21
-4.5876583464566929
0
LINE
8
BLACK
6
CONTINUOUS
10
4.4296716141732286
20
-4.5876583464566929
11
4.4271611417322836
21
-4.5937191732283464
0
LINE
8
BLACK
6
CONTINUOUS
10
4.4271611417322836
20
-4.5937191732283464
11
4.4235164960629918
21
-4.5991737795275593
0
LINE
8
BLACK
6
CONTINUOUS
10
4.4235164960629918
20
-4.5991737795275593
11
4.4188777165354329
21
-4.6038125590551182
0
LINE
8
BLACK
6
CONTINUOUS
10
4.4188777165354329
20
-4.6038125590551182
11
4.41342311023622
21
-4.6074572047244091
0
LINE
8
BLACK
6
CONTINUOUS
10
4.41342311023622
20
-4.6074572047244091
11
4.4073622834645665
21
-4.6099676771653542
0
LINE
8
BLACK
6
CONTINUOUS
10
4.4073622834645665
20
-4.6099676771653542
11
4.4009281496062993
21
-4.6112475196850395
0
LINE
8
BLACK
6
CONTINUOUS
10
4.4009281496062993
20
-4.6112475196850395
11
4.3943679133858264
21
-4.6112475196850395
0
LINE
8
BLACK
6
CONTINUOUS
10
4.3943679133858264
20
-4.6112475196850395
11
4.3879337795275593
21
-4.6099676771653542
0
LINE
8
BLACK
6
CONTINUOUS
10
4.3879337795275593
20
-4.6099676771653542
11
4.3818729527559057
21
-4.6074572047244091
0
LINE
8
BLACK
6
CONTINUOUS
10
4.3818729527559057
20
-4.6074572047244091
11
4.3764183464566928
21
-4.6038125590551182
0
LINE
8
BLACK
6
CONTINUOUS
10
4.3764183464566928
20
-4.6038125590551182
11
4.3717795669291339
21
-4.5991737795275593
0
LINE
8
BLACK
6
CONTINUOUS
10
4.3717795669291339
20
-4.5991737795275593
11
4.3681349212598422
21
-4.5937191732283464
0
LINE
8
BLACK
6
CONTINUOUS
10
4.3681349212598422
20
-4.5937191732283464
11
4.3656244488188971
21
-4.5876583464566929
0
LINE
8
BLACK
6
CONTINUOUS
10
4.3656244488188971
20
-4.5876583464566929
11
4.3643446062992126
21
-4.5812242125984248
0
LINE
8
BLACK
6
CONTINUOUS
10
4.3643446062992126
20
-4.5812242125984248
11
4.3643446062992126
21
-4.5746639763779529
0
LINE
8
BLACK
6
CONTINUOUS
10
4.3643446062992126
20
-4.5746639763779529
11
4.3656244488188971
21
-4.5682298425196848
0
LINE
8
BLACK
6
CONTINUOUS
10
4.3656244488188971
20
-4.5682298425196848
11
4.3681349212598422
21
-4.5621690157480312
0
LINE
8
BLACK
6
CONTINUOUS
10
4.3681349212598422
20
-4.5621690157480312
11
4.3717795669291339
21
-4.5567144094488192
0
LINE
8
BLACK
6
CONTINUOUS
10
4.3717795669291339
20
-4.5567144094488192
11
4.3764183464566928
21
-4.5520756299212595
0
LINE
8
BLACK
6
CONTINUOUS
10
4.3764183464566928
20
-4.5520756299212595
11
4.3818729527559057
21
-4.5484309842519686
0
LINE
8
BLACK
6
CONTINUOUS
10
4.3818729527559057
20
-4.5484309842519686
11
4.3879337795275593
21
-4.5459205118110235
0
LINE
8
BLACK
6
CONTINUOUS
10
4.3879337795275593
20
-4.5459205118110235
11
4.3943679133858264
21
-4.5446406692913381
0
LINE
8
BLACK
6
CONTINUOUS
10
4.3943679133858264
20
-4.5446406692913381
11
4.4009281496062993
21
-4.5446406692913381
0
LINE
8
BLACK
6
CONTINUOUS
10
4.4009281496062993
20
-4.5446406692913381
11
4.4073622834645665
21
-4.5459205118110235
0
LINE
8
BLACK
6
CONTINUOUS
10
3.8236680708661415
20
-4.5236119291338586
11
3.8283409448818895
21
-4.5263098031496058
0
LINE
8
BLACK
6
CONTINUOUS
10
3.8283409448818895
20
-4.5263098031496058
11
3.8321563385826769
21
-4.5301251968503937
0
LINE
8
BLACK
6
CONTINUOUS
10
3.8321563385826769
20
-4.5301251968503937
11
3.8348542125984251
21
-4.5347980708661417
0
LINE
8
BLACK
6
CONTINUOUS
10
3.8348542125984251
20
-4.5347980708661417
11
3.836250748031496
21
-4.5400099999999997
0
LINE
8
BLACK
6
CONTINUOUS
10
3.836250748031496
20
-4.5400099999999997
11
3.8364275590551182
21
-4.5427078740157478
0
LINE
8
BLACK
6
CONTINUOUS
10
3.8364275590551182
20
-4.5427078740157478
11
3.8364275590551182
21
-4.5840464566929136
0
LINE
8
BLACK
6
CONTINUOUS
10
3.8364275590551182
20
-4.5840464566929136
11
3.836250748031496
21
-4.5867443307086617
0
LINE
8
BLACK
6
CONTINUOUS
10
3.836250748031496
20
-4.5867443307086617
11
3.8348542125984251
21
-4.5919562598425196
0
LINE
8
BLACK
6
CONTINUOUS
10
3.8348542125984251
20
-4.5919562598425196
11
3.8321563385826769
21
-4.5966291338582677
0
LINE
8
BLACK
6
CONTINUOUS
10
3.8321563385826769
20
-4.5966291338582677
11
3.8283409448818895
21
-4.6004445275590546
0
LINE
8
BLACK
6
CONTINUOUS
10
3.8283409448818895
20
-4.6004445275590546
11
3.8236680708661415
21
-4.6031424015748028
0
LINE
8
BLACK
6
CONTINUOUS
10
3.8236680708661415
20
-4.6031424015748028
11
3.8184561417322835
21
-4.6045389370078738
0
LINE
8
BLACK
6
CONTINUOUS
10
3.8184561417322835
20
-4.6045389370078738
11
3.8130603937007872
21
-4.6045389370078738
0
LINE
8
BLACK
6
CONTINUOUS
10
3.8130603937007872
20
-4.6045389370078738
11
3.8078484645669288
21
-4.6031424015748028
0
LINE
8
BLACK
6
CONTINUOUS
10
3.8078484645669288
20
-4.6031424015748028
11
3.8031755905511808
21
-4.6004445275590546
0
LINE
8
BLACK
6
CONTINUOUS
10
3.8031755905511808
20
-4.6004445275590546
11
3.7993601968503938
21
-4.5966291338582677
0
LINE
8
BLACK
6
CONTINUOUS
10
3.7993601968503938
20
-4.5966291338582677
11
3.7966623228346457
21
-4.5919562598425196
0
LINE
8
BLACK
6
CONTINUOUS
10
3.7966623228346457
20
-4.5919562598425196
11
3.7952657874015747
21
-4.5867443307086617
0
LINE
8
BLACK
6
CONTINUOUS
10
3.7952657874015747
20
-4.5867443307086617
11
3.7950889763779525
21
-4.5840464566929136
0
LINE
8
BLACK
6
CONTINUOUS
10
3.7950889763779525
20
-4.5840464566929136
11
3.7950889763779525
21
-4.5427078740157478
0
LINE
8
BLACK
6
CONTINUOUS
10
3.7950889763779525
20
-4.5427078740157478
11
3.7952657874015747
21
-4.5400099999999997
0
LINE
8
BLACK
6
CONTINUOUS
10
3.7952657874015747
20
-4.5400099999999997
11
3.7966623228346457
21
-4.5347980708661417
0
LINE
8
BLACK
6
CONTINUOUS
10
3.7966623228346457
20
-4.5347980708661417
11
3.7993601968503938
21
-4.5301251968503937
0
LINE
8
BLACK
6
CONTINUOUS
10
3.7993601968503938
20
-4.5301251968503937
11
3.8031755905511808
21
-4.5263098031496058
0
LINE
8
BLACK
6
CONTINUOUS
10
3.8031755905511808
20
-4.5263098031496058
11
3.8078484645669288
21
-4.5236119291338586
0
LINE
8
BLACK
6
CONTINUOUS
10
3.8078484645669288
20
-4.5236119291338586
11
3.8130603937007872
21
-4.5222153937007876
0
LINE
8
BLACK
6
CONTINUOUS
10
3.8130603937007872
20
-4.5222153937007876
11
3.8184561417322835
21
-4.5222153937007876
0
LINE
8
BLACK
6
CONTINUOUS
10
3.8184561417322835
20
-4.5222153937007876
11
3.8236680708661415
21
-4.5236119291338586
0
LINE
8
BLACK
6
CONTINUOUS
10
4.1638255511811026
20
-4.5236119291338586
11
4.1684984251968507
21
-4.5263098031496058
0
LINE
8
BLACK
6
CONTINUOUS
10
4.1684984251968507
20
-4.5263098031496058
11
4.1723138188976376
21
-4.5301251968503937
0
LINE
8
BLACK
6
CONTINUOUS
10
4.1723138188976376
20
-4.5301251968503937
11
4.1750116929133858
21
-4.5347980708661417
0
LINE
8
BLACK
6
CONTINUOUS
10
4.1750116929133858
20
-4.5347980708661417
11
4.1764082283464568
21
-4.5400099999999997
0
LINE
8
BLACK
6
CONTINUOUS
10
4.1764082283464568
20
-4.5400099999999997
11
4.176585039370079
21
-4.5427078740157478
0
LINE
8
BLACK
6
CONTINUOUS
10
4.176585039370079
20
-4.5427078740157478
11
4.176585039370079
21
-4.5840464566929136
0
LINE
8
BLACK
6
CONTINUOUS
10
4.176585039370079
20
-4.5840464566929136
11
4.1764082283464568
21
-4.5867443307086617
0
LINE
8
BLACK
6
CONTINUOUS
10
4.1764082283464568
20
-4.5867443307086617
11
4.1750116929133858
21
-4.5919562598425196
0
LINE
8
BLACK
6
CONTINUOUS
10
4.1750116929133858
20
-4.5919562598425196
11
4.1723138188976376
21
-4.5966291338582677
0
LINE
8
BLACK
6
CONTINUOUS
10
4.1723138188976376
20
-4.5966291338582677
11
4.1684984251968507
21
-4.6004445275590546
0
LINE
8
BLACK
6
CONTINUOUS
10
4.1684984251968507
20
-4.6004445275590546
11
4.1638255511811026
21
-4.6031424015748028
0
LINE
8
BLACK
6
CONTINUOUS
10
4.1638255511811026
20
-4.6031424015748028
11
4.1586136220472438
21
-4.6045389370078738
0
LINE
8
BLACK
6
CONTINUOUS
10
4.1586136220472438
20
-4.6045389370078738
11
4.1532178740157484
21
-4.6045389370078738
0
LINE
8
BLACK
6
CONTINUOUS
10
4.1532178740157484
20
-4.6045389370078738
11
4.1480059448818896
21
-4.6031424015748028
0
LINE
8
BLACK
6
CONTINUOUS
10
4.1480059448818896
20
-4.6031424015748028
11
4.1433330708661416
21
-4.6004445275590546
0
LINE
8
BLACK
6
CONTINUOUS
10
4.1433330708661416
20
-4.6004445275590546
11
4.1395176771653546
21
-4.5966291338582677
0
LINE
8
BLACK
6
CONTINUOUS
10
4.1395176771653546
20
-4.5966291338582677
11
4.1368198031496064
21
-4.5919562598425196
0
LINE
8
BLACK
6
CONTINUOUS
10
4.1368198031496064
20
-4.5919562598425196
11
4.1354232677165355
21
-4.5867443307086617
0
LINE
8
BLACK
6
CONTINUOUS
10
4.1354232677165355
20
-4.5867443307086617
11
4.1352464566929132
21
-4.5840464566929136
0
LINE
8
BLACK
6
CONTINUOUS
10
4.1352464566929132
20
-4.5840464566929136
11
4.1352464566929132
21
-4.5427078740157478
0
LINE
8
BLACK
6
CONTINUOUS
10
4.1352464566929132
20
-4.5427078740157478
11
4.1354232677165355
21
-4.5400099999999997
0
LINE
8
BLACK
6
CONTINUOUS
10
4.1354232677165355
20
-4.5400099999999997
11
4.1368198031496064
21
-4.5347980708661417
0
LINE
8
BLACK
6
CONTINUOUS
10
4.1368198031496064
20
-4.5347980708661417
11
4.1395176771653546
21
-4.5301251968503937
0
LINE
8
BLACK
6
CONTINUOUS
10
4.1395176771653546
20
-4.5301251968503937
11
4.1433330708661416
21
-4.5263098031496058
0
LINE
8
BLACK
6
CONTINUOUS
10
4.1433330708661416
20
-4.5263098031496058
11
4.1480059448818896
21
-4.5236119291338586
0
LINE
8
BLACK
6
CONTINUOUS
10
4.1480059448818896
20
-4.5236119291338586
11
4.1532178740157484
21
-4.5222153937007876
0
LINE
8
BLACK
6
CONTINUOUS
10
4.1532178740157484
20
-4.5222153937007876
11
4.1586136220472438
21
-4.5222153937007876
0
LINE
8
BLACK
6
CONTINUOUS
10
4.1586136220472438
20
-4.5222153937007876
11
4.1638255511811026
21
-4.5236119291338586
0
LINE
8
BLACK
6
CONTINUOUS
10
3.8769540157480313
20
-4.5712409055118108
11
3.8798467322834647
21
-4.5729110236220469
0
LINE
8
BLACK
6
CONTINUOUS
10
3.8798467322834647
20
-4.5729110236220469
11
3.8822086614173226
21
-4.5752729527559053
0
LINE
8
BLACK
6
CONTINUOUS
10
3.8822086614173226
20
-4.5752729527559053
11
3.8838787795275591
21
-4.5781656692913382
0
LINE
8
BLACK
6
CONTINUOUS
10
3.8838787795275591
20
-4.5781656692913382
11
3.8847433070866142
21
-4.5813920866141729
0
LINE
8
BLACK
6
CONTINUOUS
10
3.8847433070866142
20
-4.5813920866141729
11
3.8847433070866142
21
-4.5847323228346459
0
LINE
8
BLACK
6
CONTINUOUS
10
3.8847433070866142
20
-4.5847323228346459
11
3.8838787795275591
21
-4.5879587401574806
0
LINE
8
BLACK
6
CONTINUOUS
10
3.8838787795275591
20
-4.5879587401574806
11
3.8822086614173226
21
-4.5908514566929135
0
LINE
8
BLACK
6
CONTINUOUS
10
3.8822086614173226
20
-4.5908514566929135
11
3.8798467322834647
21
-4.5932133858267719
0
LINE
8
BLACK
6
CONTINUOUS
10
3.8798467322834647
20
-4.5932133858267719
11
3.8769540157480313
21
-4.594883503937008
0
LINE
8
BLACK
6
CONTINUOUS
10
3.8769540157480313
20
-4.594883503937008
11
3.8737275984251966
21
-4.595748031496063
0
LINE
8
BLACK
6
CONTINUOUS
10
3.8737275984251966
20
-4.595748031496063
11
3.8703873622047245
21
-4.595748031496063
0
LINE
8
BLACK
6
CONTINUOUS
10
3.8703873622047245
20
-4.595748031496063
11
3.8671609448818898
21
-4.594883503937008
0
LINE
8
BLACK
6
CONTINUOUS
10
3.8671609448818898
20
-4.594883503937008
11
3.8642682283464564
21
-4.5932133858267719
0
LINE
8
BLACK
6
CONTINUOUS
10
3.8642682283464564
20
-4.5932133858267719
11
3.8619062992125985
21
-4.5908514566929135
0
LINE
8
BLACK
6
CONTINUOUS
10
3.8619062992125985
20
-4.5908514566929135
11
3.860236181102362
21
-4.5879587401574806
0
LINE
8
BLACK
6
CONTINUOUS
10
3.860236181102362
20
-4.5879587401574806
11
3.8593716535433069
21
-4.5847323228346459
0
LINE
8
BLACK
6
CONTINUOUS
10
3.8593716535433069
20
-4.5847323228346459
11
3.8593716535433069
21
-4.5813920866141729
0
LINE
8
BLACK
6
CONTINUOUS
10
3.8593716535433069
20
-4.5813920866141729
11
3.860236181102362
21
-4.5781656692913382
0
LINE
8
BLACK
6
CONTINUOUS
10
3.860236181102362
20
-4.5781656692913382
11
3.8619062992125985
21
-4.5752729527559053
0
LINE
8
BLACK
6
CONTINUOUS
10
3.8619062992125985
20
-4.5752729527559053
11
3.8642682283464564
21
-4.5729110236220469
0
LINE
8
BLACK
6
CONTINUOUS
10
3.8642682283464564
20
-4.5729110236220469
11
3.8671609448818898
21
-4.5712409055118108
0
LINE
8
BLACK
6
CONTINUOUS
10
3.8671609448818898
20
-4.5712409055118108
11
3.8703873622047245
21
-4.5703763779527558
0
LINE
8
BLACK
6
CONTINUOUS
10
3.8703873622047245
20
-4.5703763779527558
11
3.8737275984251966
21
-4.5703763779527558
0
LINE
8
BLACK
6
CONTINUOUS
10
3.8737275984251966
20
-4.5703763779527558
11
3.8769540157480313
21
-4.5712409055118108
0
LINE
8
BLACK
6
CONTINUOUS
10
4.1045130708661413
20
-4.5712409055118108
11
4.107405787401575
21
-4.5729110236220469
0
LINE
8
BLACK
6
CONTINUOUS
10
4.107405787401575
20
-4.5729110236220469
11
4.1097677165354334
21
-4.5752729527559053
0
LINE
8
BLACK
6
CONTINUOUS
10
4.1097677165354334
20
-4.5752729527559053
11
4.1114378346456695
21
-4.5781656692913382
0
LINE
8
BLACK
6
CONTINUOUS
10
4.1114378346456695
20
-4.5781656692913382
11
4.1123023622047246
21
-4.5813920866141729
0
LINE
8
BLACK
6
CONTINUOUS
10
4.1123023622047246
20
-4.5813920866141729
11
4.1123023622047246
21
-4.5847323228346459
0
LINE
8
BLACK
6
CONTINUOUS
10
4.1123023622047246
20
-4.5847323228346459
11
4.1114378346456695
21
-4.5879587401574806
0
LINE
8
BLACK
6
CONTINUOUS
10
4.1114378346456695
20
-4.5879587401574806
11
4.1097677165354334
21
-4.5908514566929135
0
LINE
8
BLACK
6
CONTINUOUS
10
4.1097677165354334
20
-4.5908514566929135
11
4.107405787401575
21
-4.5932133858267719
0
LINE
8
BLACK
6
CONTINUOUS
10
4.107405787401575
20
-4.5932133858267719
11
4.1045130708661413
21
-4.594883503937008
0
LINE
8
BLACK
6
CONTINUOUS
10
4.1045130708661413
20
-4.594883503937008
11
4.1012866535433066
21
-4.595748031496063
0
LINE
8
BLACK
6
CONTINUOUS
10
4.1012866535433066
20
-4.595748031496063
11
4.0979464173228344
21
-4.595748031496063
0
LINE
8
BLACK
6
CONTINUOUS
10
4.0979464173228344
20
-4.595748031496063
11
4.0947199999999997
21
-4.594883503937008
0
LINE
8
BLACK
6
CONTINUOUS
10
4.0947199999999997
20
-4.594883503937008
11
4.0918272834645668
21
-4.5932133858267719
0
LINE
8
BLACK
6
CONTINUOUS
10
4.0918272834645668
20
-4.5932133858267719
11
4.0894653543307085
21
-4.5908514566929135
0
LINE
8
BLACK
6
CONTINUOUS
10
4.0894653543307085
20
-4.5908514566929135
11
4.0877952362204724
21
-4.5879587401574806
0
LINE
8
BLACK
6
CONTINUOUS
10
4.0877952362204724
20
-4.5879587401574806
11
4.0869307086614173
21
-4.5847323228346459
0
LINE
8
BLACK
6
CONTINUOUS
10
4.0869307086614173
20
-4.5847323228346459
11
4.0869307086614173
21
-4.5813920866141729
0
LINE
8
BLACK
6
CONTINUOUS
10
4.0869307086614173
20
-4.5813920866141729
11
4.0877952362204724
21
-4.5781656692913382
0
LINE
8
BLACK
6
CONTINUOUS
10
4.0877952362204724
20
-4.5781656692913382
11
4.0894653543307085
21
-4.5752729527559053
0
LINE
8
BLACK
6
CONTINUOUS
10
4.0894653543307085
20
-4.5752729527559053
11
4.0918272834645668
21
-4.5729110236220469
0
LINE
8
BLACK
6
CONTINUOUS
10
4.0918272834645668
20
-4.5729110236220469
11
4.0947199999999997
21
-4.5712409055118108
0
LINE
8
BLACK
6
CONTINUOUS
10
4.0947199999999997
20
-4.5712409055118108
11
4.0979464173228344
21
-4.5703763779527558
0
LINE
8
BLACK
6
CONTINUOUS
10
4.0979464173228344
20
-4.5703763779527558
11
4.1012866535433066
21
-4.5703763779527558
0
LINE
8
BLACK
6
CONTINUOUS
10
4.1012866535433066
20
-4.5703763779527558
11
4.1045130708661413
21
-4.5712409055118108
0
LINE
8
BLACK
6
CONTINUOUS
10
5.5531184251968506
20
-4.493317086614173
11
5.55712374015748
21
-4.495629566929134
0
LINE
8
BLACK
6
CONTINUOUS
10
5.55712374015748
20
-4.495629566929134
11
5.5603940551181097
21
-4.4988998818897636
0
LINE
8
BLACK
6
CONTINUOUS
10
5.5603940551181097
20
-4.4988998818897636
11
5.5627065354330707
21
-4.5029051968503939
0
LINE
8
BLACK
6
CONTINUOUS
10
5.5627065354330707
20
-4.5029051968503939
11
5.5639035433070863
21
-4.5073725590551179
0
LINE
8
BLACK
6
CONTINUOUS
10
5.5639035433070863
20
-4.5073725590551179
11
5.564055118110236
21
-4.5096850393700789
0
LINE
8
BLACK
6
CONTINUOUS
10
5.564055118110236
20
-4.5096850393700789
11
5.564055118110236
21
-4.5254330708661419
0
LINE
8
BLACK
6
CONTINUOUS
10
5.564055118110236
20
-4.5254330708661419
11
5.5639035433070863
21
-4.527745551181102
0
LINE
8
BLACK
6
CONTINUOUS
10
5.5639035433070863
20
-4.527745551181102
11
5.5627065354330707
21
-4.5322129133858269
0
LINE
8
BLACK
6
CONTINUOUS
10
5.5627065354330707
20
-4.5322129133858269
11
5.5603940551181097
21
-4.5362182283464563
0
LINE
8
BLACK
6
CONTINUOUS
10
5.5603940551181097
20
-4.5362182283464563
11
5.55712374015748
21
-4.5394885433070868
0
LINE
8
BLACK
6
CONTINUOUS
10
5.55712374015748
20
-4.5394885433070868
11
5.5531184251968506
21
-4.541801023622047
0
LINE
8
BLACK
6
CONTINUOUS
10
5.5531184251968506
20
-4.541801023622047
11
5.5486510629921257
21
-4.5429980314960625
0
LINE
8
BLACK
6
CONTINUOUS
10
5.5486510629921257
20
-4.5429980314960625
11
5.5440261023622046
21
-4.5429980314960625
0
LINE
8
BLACK
6
CONTINUOUS
10
5.5440261023622046
20
-4.5429980314960625
11
5.5395587401574806
21
-4.541801023622047
0
LINE
8
BLACK
6
CONTINUOUS
10
5.5395587401574806
20
-4.541801023622047
11
5.5355534251968503
21
-4.5394885433070868
0
LINE
8
BLACK
6
CONTINUOUS
10
5.5355534251968503
20
-4.5394885433070868
11
5.5322831102362207
21
-4.5362182283464563
0
LINE
8
BLACK
6
CONTINUOUS
10
5.5322831102362207
20
-4.5362182283464563
11
5.5299706299212597
21
-4.5322129133858269
0
LINE
8
BLACK
6
CONTINUOUS
10
5.5299706299212597
20
-4.5322129133858269
11
5.5287736220472441
21
-4.527745551181102
0
LINE
8
BLACK
6
CONTINUOUS
10
5.5287736220472441
20
-4.527745551181102
11
5.5286220472440943
21
-4.5254330708661419
0
LINE
8
BLACK
6
CONTINUOUS
10
5.5286220472440943
20
-4.5254330708661419
11
5.5286220472440943
21
-4.5096850393700789
0
LINE
8
BLACK
6
CONTINUOUS
10
5.5286220472440943
20
-4.5096850393700789
11
5.5287736220472441
21
-4.5073725590551179
0
LINE
8
BLACK
6
CONTINUOUS
10
5.5287736220472441
20
-4.5073725590551179
11
5.5299706299212597
21
-4.5029051968503939
0
LINE
8
BLACK
6
CONTINUOUS
10
5.5299706299212597
20
-4.5029051968503939
11
5.5322831102362207
21
-4.4988998818897636
0
LINE
8
BLACK
6
CONTINUOUS
10
5.5322831102362207
20
-4.4988998818897636
11
5.5355534251968503
21
-4.495629566929134
0
LINE
8
BLACK
6
CONTINUOUS
10
5.5355534251968503
20
-4.495629566929134
11
5.5395587401574806
21
-4.493317086614173
0
LINE
8
BLACK
6
CONTINUOUS
10
5.5395587401574806
20
-4.493317086614173
11
5.5440261023622046
21
-4.4921200787401574
0
LINE
8
BLACK
6
CONTINUOUS
10
5.5440261023622046
20
-4.4921200787401574
11
5.5486510629921257
21
-4.4921200787401574
0
LINE
8
BLACK
6
CONTINUOUS
10
5.5486510629921257
20
-4.4921200787401574
11
5.5531184251968506
21
-4.493317086614173
0
LINE
8
BLACK
6
CONTINUOUS
10
5.7204412598425192
20
-4.493317086614173
11
5.7244465748031494
21
-4.495629566929134
0
LINE
8
BLACK
6
CONTINUOUS
10
5.7244465748031494
20
-4.495629566929134
11
5.7277168897637791
21
-4.4988998818897636
0
LINE
8
BLACK
6
CONTINUOUS
10
5.7277168897637791
20
-4.4988998818897636
11
5.7300293700787401
21
-4.5029051968503939
0
LINE
8
BLACK
6
CONTINUOUS
10
5.7300293700787401
20
-4.5029051968503939
11
5.7312263779527557
21
-4.5073725590551179
0
LINE
8
BLACK
6
CONTINUOUS
10
5.7312263779527557
20
-4.5073725590551179
11
5.7313779527559054
21
-4.5096850393700789
0
LINE
8
BLACK
6
CONTINUOUS
10
5.7313779527559054
20
-4.5096850393700789
11
5.7313779527559054
21
-4.5254330708661419
0
LINE
8
BLACK
6
CONTINUOUS
10
5.7313779527559054
20
-4.5254330708661419
11
5.7312263779527557
21
-4.527745551181102
0
LINE
8
BLACK
6
CONTINUOUS
10
5.7312263779527557
20
-4.527745551181102
11
5.7300293700787401
21
-4.5322129133858269
0
LINE
8
BLACK
6
CONTINUOUS
10
5.7300293700787401
20
-4.5322129133858269
11
5.7277168897637791
21
-4.5362182283464563
0
LINE
8
BLACK
6
CONTINUOUS
10
5.7277168897637791
20
-4.5362182283464563
11
5.7244465748031494
21
-4.5394885433070868
0
LINE
8
BLACK
6
CONTINUOUS
10
5.7244465748031494
20
-4.5394885433070868
11
5.7204412598425192
21
-4.541801023622047
0
LINE
8
BLACK
6
CONTINUOUS
10
5.7204412598425192
20
-4.541801023622047
11
5.7159738976377952
21
-4.5429980314960625
0
LINE
8
BLACK
6
CONTINUOUS
10
5.7159738976377952
20
-4.5429980314960625
11
5.711348937007874
21
-4.5429980314960625
0
LINE
8
BLACK
6
CONTINUOUS
10
5.711348937007874
20
-4.5429980314960625
11
5.7068815748031492
21
-4.541801023622047
0
LINE
8
BLACK
6
CONTINUOUS
10
5.7068815748031492
20
-4.541801023622047
11
5.7028762598425198
21
-4.5394885433070868
0
LINE
8
BLACK
6
CONTINUOUS
10
5.7028762598425198
20
-4.5394885433070868
11
5.6996059448818892
21
-4.5362182283464563
0
LINE
8
BLACK
6
CONTINUOUS
10
5.6996059448818892
20
-4.5362182283464563
11
5.6972934645669291
21
-4.5322129133858269
0
LINE
8
BLACK
6
CONTINUOUS
10
5.6972934645669291
20
-4.5322129133858269
11
5.6960964566929135
21
-4.527745551181102
0
LINE
8
BLACK
6
CONTINUOUS
10
5.6960964566929135
20
-4.527745551181102
11
5.6959448818897638
21
-4.5254330708661419
0
LINE
8
BLACK
6
CONTINUOUS
10
5.6959448818897638
20
-4.5254330708661419
11
5.6959448818897638
21
-4.5096850393700789
0
LINE
8
BLACK
6
CONTINUOUS
10
5.6959448818897638
20
-4.5096850393700789
11
5.6960964566929135
21
-4.5073725590551179
0
LINE
8
BLACK
6
CONTINUOUS
10
5.6960964566929135
20
-4.5073725590551179
11
5.6972934645669291
21
-4.5029051968503939
0
LINE
8
BLACK
6
CONTINUOUS
10
5.6972934645669291
20
-4.5029051968503939
11
5.6996059448818892
21
-4.4988998818897636
0
LINE
8
BLACK
6
CONTINUOUS
10
5.6996059448818892
20
-4.4988998818897636
11
5.7028762598425198
21
-4.495629566929134
0
LINE
8
BLACK
6
CONTINUOUS
10
5.7028762598425198
20
-4.495629566929134
11
5.7068815748031492
21
-4.493317086614173
0
LINE
8
BLACK
6
CONTINUOUS
10
5.7068815748031492
20
-4.493317086614173
11
5.711348937007874
21
-4.4921200787401574
0
LINE
8
BLACK
6
CONTINUOUS
10
5.711348937007874
20
-4.4921200787401574
11
5.7159738976377952
21
-4.4921200787401574
0
LINE
8
BLACK
6
CONTINUOUS
10
5.7159738976377952
20
-4.4921200787401574
11
5.7204412598425192
21
-4.493317086614173
0
LINE
8
BLACK
6
CONTINUOUS
10
3.5147842125984252
20
-3.3735585433070865
11
3.5276971259842518
21
-3.3765058267716537
0
LINE
8
BLACK
6
CONTINUOUS
10
3.5276971259842518
20
-3.3765058267716537
11
3.5401988188976379
21
-3.3808803543307087
0
LINE
8
BLACK
6
CONTINUOUS
10
3.5401988188976379
20
-3.3808803543307087
11
3.5521321653543305
21
-3.3866271653543305
0
LINE
8
BLACK
6
CONTINUOUS
10
3.5521321653543305
20
-3.3866271653543305
11
3.5633470078740155
21
-3.3936738976377954
0
LINE
8
BLACK
6
CONTINUOUS
10
3.5633470078740155
20
-3.3936738976377954
11
3.5737023622047244
21
-3.4019320472440944
0
LINE
8
BLACK
6
CONTINUOUS
10
3.5737023622047244
20
-3.4019320472440944
11
3.5830679527559055
21
-3.4112976377952755
0
LINE
8
BLACK
6
CONTINUOUS
10
3.5830679527559055
20
-3.4112976377952755
11
3.5913261023622045
21
-3.4216529921259844
0
LINE
8
BLACK
6
CONTINUOUS
10
3.5913261023622045
20
-3.4216529921259844
11
3.5983728346456694
21
-3.4328678346456694
0
LINE
8
BLACK
6
CONTINUOUS
10
3.5983728346456694
20
-3.4328678346456694
11
3.6041196456692912
21
-3.444801181102362
0
LINE
8
BLACK
6
CONTINUOUS
10
3.6041196456692912
20
-3.444801181102362
11
3.6084941732283462
21
-3.4573028740157481
0
LINE
8
BLACK
6
CONTINUOUS
10
3.6084941732283462
20
-3.4573028740157481
11
3.6114414566929134
21
-3.4702157874015747
0
LINE
8
BLACK
6
CONTINUOUS
10
3.6114414566929134
20
-3.4702157874015747
11
3.6129244094488189
21
-3.4833775196850394
0
LINE
8
BLACK
6
CONTINUOUS
10
3.6129244094488189
20
-3.4833775196850394
11
3.6129244094488189
21
-3.4966224803149606
0
LINE
8
BLACK
6
CONTINUOUS
10
3.6129244094488189
20
-3.4966224803149606
11
3.6114414566929134
21
-3.5097842125984253
0
LINE
8
BLACK
6
CONTINUOUS
10
3.6114414566929134
20
-3.5097842125984253
11
3.6084941732283462
21
-3.5226971259842519
0
LINE
8
BLACK
6
CONTINUOUS
10
3.6084941732283462
20
-3.5226971259842519
11
3.6041196456692912
21
-3.5351988188976375
0
LINE
8
BLACK
6
CONTINUOUS
10
3.6041196456692912
20
-3.5351988188976375
11
3.5983728346456694
21
-3.5471321653543306
0
LINE
8
BLACK
6
CONTINUOUS
10
3.5983728346456694
20
-3.5471321653543306
11
3.5913261023622045
21
-3.5583470078740156
0
LINE
8
BLACK
6
CONTINUOUS
10
3.5913261023622045
20
-3.5583470078740156
11
3.5830679527559055
21
-3.5687023622047245
0
LINE
8
BLACK
6
CONTINUOUS
10
3.5830679527559055
20
-3.5687023622047245
11
3.5737023622047244
21
-3.5780679527559056
0
LINE
8
BLACK
6
CONTINUOUS
10
3.5737023622047244
20
-3.5780679527559056
11
3.5633470078740155
21
-3.5863261023622046
0
LINE
8
BLACK
6
CONTINUOUS
10
3.5633470078740155
20
-3.5863261023622046
11
3.5521321653543305
21
-3.593372834645669
0
LINE
8
BLACK
6
CONTINUOUS
10
3.5521321653543305
20
-3.593372834645669
11
3.5401988188976379
21
-3.5991196456692913
0
LINE
8
BLACK
6
CONTINUOUS
10
3.5401988188976379
20
-3.5991196456692913
11
3.5276971259842518
21
-3.6034941732283463
0
LINE
8
BLACK
6
CONTINUOUS
10
3.5276971259842518
20
-3.6034941732283463
11
3.5147842125984252
21
-3.6064414566929135
0
LINE
8
BLACK
6
CONTINUOUS
10
3.5147842125984252
20
-3.6064414566929135
11
3.5016224803149605
21
-3.607924409448819
0
LINE
8
BLACK
6
CONTINUOUS
10
3.5016224803149605
20
-3.607924409448819
11
3.4883775196850393
21
-3.607924409448819
0
LINE
8
BLACK
6
CONTINUOUS
10
3.4883775196850393
20
-3.607924409448819
11
3.4752157874015746
21
-3.6064414566929135
0
LINE
8
BLACK
6
CONTINUOUS
10
3.4752157874015746
20
-3.6064414566929135
11
3.462302874015748
21
-3.6034941732283463
0
LINE
8
BLACK
6
CONTINUOUS
10
3.462302874015748
20
-3.6034941732283463
11
3.4498011811023623
21
-3.5991196456692913
0
LINE
8
BLACK
6
CONTINUOUS
10
3.4498011811023623
20
-3.5991196456692913
11
3.4378678346456693
21
-3.593372834645669
0
LINE
8
BLACK
6
CONTINUOUS
10
3.4378678346456693
20
-3.593372834645669
11
3.4266529921259843
21
-3.5863261023622046
0
LINE
8
BLACK
6
CONTINUOUS
10
3.4266529921259843
20
-3.5863261023622046
11
3.4162976377952754
21
-3.5780679527559056
0
LINE
8
BLACK
6
CONTINUOUS
10
3.4162976377952754
20
-3.5780679527559056
11
3.4069320472440943
21
-3.5687023622047245
0
LINE
8
BLACK
6
CONTINUOUS
10
3.4069320472440943
20
-3.5687023622047245
11
3.3986738976377953
21
-3.5583470078740156
0
LINE
8
BLACK
6
CONTINUOUS
10
3.3986738976377953
20
-3.5583470078740156
11
3.3916271653543308
21
-3.5471321653543306
0
LINE
8
BLACK
6
CONTINUOUS
10
3.3916271653543308
20
-3.5471321653543306
11
3.3858803543307086
21
-3.5351988188976375
0
LINE
8
BLACK
6
CONTINUOUS
10
3.3858803543307086
20
-3.5351988188976375
11
3.3815058267716536
21
-3.5226971259842519
0
LINE
8
BLACK
6
CONTINUOUS
10
3.3815058267716536
20
-3.5226971259842519
11
3.3785585433070864
21
-3.5097842125984253
0
LINE
8
BLACK
6
CONTINUOUS
10
3.3785585433070864
20
-3.5097842125984253
11
3.3770755905511809
21
-3.4966224803149606
0
LINE
8
BLACK
6
CONTINUOUS
10
3.3770755905511809
20
-3.4966224803149606
11
3.3770755905511809
21
-3.4833775196850394
0
LINE
8
BLACK
6
CONTINUOUS
10
3.3770755905511809
20
-3.4833775196850394
11
3.3785585433070864
21
-3.4702157874015747
0
LINE
8
BLACK
6
CONTINUOUS
10
3.3785585433070864
20
-3.4702157874015747
11
3.3815058267716536
21
-3.4573028740157481
0
LINE
8
BLACK
6
CONTINUOUS
10
3.3815058267716536
20
-3.4573028740157481
11
3.3858803543307086
21
-3.444801181102362
0
LINE
8
BLACK
6
CONTINUOUS
10
3.3858803543307086
20
-3.444801181102362
11
3.3916271653543308
21
-3.4328678346456694
0
LINE
8
BLACK
6
CONTINUOUS
10
3.3916271653543308
20
-3.4328678346456694
11
3.3986738976377953
21
-3.4216529921259844
0
LINE
8
BLACK
6
CONTINUOUS
10
3.3986738976377953
20
-3.4216529921259844
11
3.4069320472440943
21
-3.4112976377952755
0
LINE
8
BLACK
6
CONTINUOUS
10
3.4069320472440943
20
-3.4112976377952755
11
3.4162976377952754
21
-3.4019320472440944
0
LINE
8
BLACK
6
CONTINUOUS
10
3.4162976377952754
20
-3.4019320472440944
11
3.4266529921259843
21
-3.3936738976377954
0
LINE
8
BLACK
6
CONTINUOUS
10
3.4266529921259843
20
-3.3936738976377954
11
3.4378678346456693
21
-3.3866271653543305
0
LINE
8
BLACK
6
CONTINUOUS
10
3.4378678346456693
20
-3.3866271653543305
11
3.4498011811023623
21
-3.3808803543307087
0
LINE
8
BLACK
6
CONTINUOUS
10
3.4498011811023623
20
-3.3808803543307087
11
3.462302874015748
21
-3.3765058267716537
0
LINE
8
BLACK
6
CONTINUOUS
10
3.462302874015748
20
-3.3765058267716537
11
3.4752157874015746
21
-3.3735585433070865
0
LINE
8
BLACK
6
CONTINUOUS
10
3.4752157874015746
20
-3.3735585433070865
11
3.4883775196850393
21
-3.372075590551181
0
LINE
8
BLACK
6
CONTINUOUS
10
3.4883775196850393
20
-3.372075590551181
11
3.5016224803149605
21
-3.372075590551181
0
LINE
8
BLACK
6
CONTINUOUS
10
3.5016224803149605
20
-3.372075590551181
11
3.5147842125984252
21
-3.3735585433070865
0
LINE
8
BLACK
6
CONTINUOUS
10
7.2097842125984251
20
-3.3535585433070865
11
7.2226971259842516
21
-3.3565058267716537
0
LINE
8
BLACK
6
CONTINUOUS
10
7.2226971259842516
20
-3.3565058267716537
11
7.2351988188976373
21
-3.3608803543307086
0
LINE
8
BLACK
6
CONTINUOUS
10
7.2351988188976373
20
-3.3608803543307086
11
7.2471321653543308
21
-3.3666271653543305
0
LINE
8
BLACK
6
CONTINUOUS
10
7.2471321653543308
20
-3.3666271653543305
11
7.2583470078740158
21
-3.3736738976377953
0
LINE
8
BLACK
6
CONTINUOUS
10
7.2583470078740158
20
-3.3736738976377953
11
7.2687023622047242
21
-3.3819320472440944
0
LINE
8
BLACK
6
CONTINUOUS
10
7.2687023622047242
20
-3.3819320472440944
11
7.2780679527559053
21
-3.3912976377952755
0
LINE
8
BLACK
6
CONTINUOUS
10
7.2780679527559053
20
-3.3912976377952755
11
7.2863261023622048
21
-3.4016529921259844
0
LINE
8
BLACK
6
CONTINUOUS
10
7.2863261023622048
20
-3.4016529921259844
11
7.2933728346456688
21
-3.4128678346456693
0
LINE
8
BLACK
6
CONTINUOUS
10
7.2933728346456688
20
-3.4128678346456693
11
7.2991196456692915
21
-3.424801181102362
0
LINE
8
BLACK
6
CONTINUOUS
10
7.2991196456692915
20
-3.424801181102362
11
7.303494173228346
21
-3.4373028740157481
0
LINE
8
BLACK
6
CONTINUOUS
10
7.303494173228346
20
-3.4373028740157481
11
7.3064414566929132
21
-3.4502157874015746
0
LINE
8
BLACK
6
CONTINUOUS
10
7.3064414566929132
20
-3.4502157874015746
11
7.3079244094488187
21
-3.4633775196850394
0
LINE
8
BLACK
6
CONTINUOUS
10
7.3079244094488187
20
-3.4633775196850394
11
7.3079244094488187
21
-3.4766224803149606
0
LINE
8
BLACK
6
CONTINUOUS
10
7.3079244094488187
20
-3.4766224803149606
11
7.3064414566929132
21
-3.4897842125984253
0
LINE
8
BLACK
6
CONTINUOUS
10
7.3064414566929132
20
-3.4897842125984253
11
7.303494173228346
21
-3.5026971259842519
0
LINE
8
BLACK
6
CONTINUOUS
10
7.303494173228346
20
-3.5026971259842519
11
7.2991196456692915
21
-3.5151988188976375
0
LINE
8
BLACK
6
CONTINUOUS
10
7.2991196456692915
20
-3.5151988188976375
11
7.2933728346456688
21
-3.5271321653543306
0
LINE
8
BLACK
6
CONTINUOUS
10
7.2933728346456688
20
-3.5271321653543306
11
7.2863261023622048
21
-3.5383470078740156
0
LINE
8
BLACK
6
CONTINUOUS
10
7.2863261023622048
20
-3.5383470078740156
11
7.2780679527559053
21
-3.5487023622047245
0
LINE
8
BLACK
6
CONTINUOUS
10
7.2780679527559053
20
-3.5487023622047245
11
7.2687023622047242
21
-3.5580679527559056
0
LINE
8
BLACK
6
CONTINUOUS
10
7.2687023622047242
20
-3.5580679527559056
11
7.2583470078740158
21
-3.5663261023622046
0
LINE
8
BLACK
6
CONTINUOUS
10
7.2583470078740158
20
-3.5663261023622046
11
7.2471321653543308
21
-3.573372834645669
0
LINE
8
BLACK
6
CONTINUOUS
10
7.2471321653543308
20
-3.573372834645669
11
7.2351988188976373
21
-3.5791196456692913
0
LINE
8
BLACK
6
CONTINUOUS
10
7.2351988188976373
20
-3.5791196456692913
11
7.2226971259842516
21
-3.5834941732283463
0
LINE
8
BLACK
6
CONTINUOUS
10
7.2226971259842516
20
-3.5834941732283463
11
7.2097842125984251
21
-3.5864414566929135
0
LINE
8
BLACK
6
CONTINUOUS
10
7.2097842125984251
20
-3.5864414566929135
11
7.1966224803149608
21
-3.587924409448819
0
LINE
8
BLACK
6
CONTINUOUS
10
7.1966224803149608
20
-3.587924409448819
11
7.1833775196850391
21
-3.587924409448819
0
LINE
8
BLACK
6
CONTINUOUS
10
7.1833775196850391
20
-3.587924409448819
11
7.1702157874015748
21
-3.5864414566929135
0
LINE
8
BLACK
6
CONTINUOUS
10
7.1702157874015748
20
-3.5864414566929135
11
7.1573028740157483
21
-3.5834941732283463
0
LINE
8
BLACK
6
CONTINUOUS
10
7.1573028740157483
20
-3.5834941732283463
11
7.1448011811023617
21
-3.5791196456692913
0
LINE
8
BLACK
6
CONTINUOUS
10
7.1448011811023617
20
-3.5791196456692913
11
7.1328678346456691
21
-3.573372834645669
0
LINE
8
BLACK
6
CONTINUOUS
10
7.1328678346456691
20
-3.573372834645669
11
7.1216529921259841
21
-3.5663261023622046
0
LINE
8
BLACK
6
CONTINUOUS
10
7.1216529921259841
20
-3.5663261023622046
11
7.1112976377952757
21
-3.5580679527559056
0
LINE
8
BLACK
6
CONTINUOUS
10
7.1112976377952757
20
-3.5580679527559056
11
7.1019320472440945
21
-3.5487023622047245
0
LINE
8
BLACK
6
CONTINUOUS
10
7.1019320472440945
20
-3.5487023622047245
11
7.0936738976377951
21
-3.5383470078740156
0
LINE
8
BLACK
6
CONTINUOUS
10
7.0936738976377951
20
-3.5383470078740156
11
7.0866271653543302
21
-3.5271321653543306
0
LINE
8
BLACK
6
CONTINUOUS
10
7.0866271653543302
20
-3.5271321653543306
11
7.0808803543307084
21
-3.5151988188976375
0
LINE
8
BLACK
6
CONTINUOUS
10
7.0808803543307084
20
-3.5151988188976375
11
7.076505826771653
21
-3.5026971259842519
0
LINE
8
BLACK
6
CONTINUOUS
10
7.076505826771653
20
-3.5026971259842519
11
7.0735585433070867
21
-3.4897842125984253
0
LINE
8
BLACK
6
CONTINUOUS
10
7.0735585433070867
20
-3.4897842125984253
11
7.0720755905511812
21
-3.4766224803149606
0
LINE
8
BLACK
6
CONTINUOUS
10
7.0720755905511812
20
-3.4766224803149606
11
7.0720755905511812
21
-3.4633775196850394
0
LINE
8
BLACK
6
CONTINUOUS
10
7.0720755905511812
20
-3.4633775196850394
11
7.0735585433070867
21
-3.4502157874015746
0
LINE
8
BLACK
6
CONTINUOUS
10
7.0735585433070867
20
-3.4502157874015746
11
7.076505826771653
21
-3.4373028740157481
0
LINE
8
BLACK
6
CONTINUOUS
10
7.076505826771653
20
-3.4373028740157481
11
7.0808803543307084
21
-3.424801181102362
0
LINE
8
BLACK
6
CONTINUOUS
10
7.0808803543307084
20
-3.424801181102362
11
7.0866271653543302
21
-3.4128678346456693
0
LINE
8
BLACK
6
CONTINUOUS
10
7.0866271653543302
20
-3.4128678346456693
11
7.0936738976377951
21
-3.4016529921259844
0
LINE
8
BLACK
6
CONTINUOUS
10
7.0936738976377951
20
-3.4016529921259844
11
7.1019320472440945
21
-3.3912976377952755
0
LINE
8
BLACK
6
CONTINUOUS
10
7.1019320472440945
20
-3.3912976377952755
11
7.1112976377952757
21
-3.3819320472440944
0
LINE
8
BLACK
6
CONTINUOUS
10
7.1112976377952757
20
-3.3819320472440944
11
7.1216529921259841
21
-3.3736738976377953
0
LINE
8
BLACK
6
CONTINUOUS
10
7.1216529921259841
20
-3.3736738976377953
11
7.1328678346456691
21
-3.3666271653543305
0
LINE
8
BLACK
6
CONTINUOUS
10
7.1328678346456691
20
-3.3666271653543305
11
7.1448011811023617
21
-3.3608803543307086
0
LINE
8
BLACK
6
CONTINUOUS
10
7.1448011811023617
20
-3.3608803543307086
11
7.1573028740157483
21
-3.3565058267716537
0
LINE
8
BLACK
6
CONTINUOUS
10
7.1573028740157483
20
-3.3565058267716537
11
7.1702157874015748
21
-3.3535585433070865
0
LINE
8
BLACK
6
CONTINUOUS
10
7.1702157874015748
20
-3.3535585433070865
11
7.1833775196850391
21
-3.352075590551181
0
LINE
8
BLACK
6
CONTINUOUS
10
7.1833775196850391
20
-3.352075590551181
11
7.1966224803149608
21
-3.352075590551181
0
LINE
8
BLACK
6
CONTINUOUS
10
7.1966224803149608
20
-3.352075590551181
11
7.2097842125984251
21
-3.3535585433070865
0
LINE
8
BLACK
6
CONTINUOUS
10
3.9431496062992126
20
-3.0402362204724409
11
3.7856692913385825
21
-3.0402362204724409
0
LINE
8
BLACK
6
CONTINUOUS
10
3.7856692913385825
20
-3.0402362204724409
11
3.7856692913385825
21
-2.8827559055118108
0
LINE
8
BLACK
6
CONTINUOUS
10
3.7856692913385825
20
-2.8827559055118108
11
3.9431496062992126
21
-2.8827559055118108
0
LINE
8
BLACK
6
CONTINUOUS
10
3.9431496062992126
20
-2.8827559055118108
11
3.9431496062992126
21
-3.0402362204724409
0
LINE
8
BLACK
6
CONTINUOUS
10
6.801417322834646
20
-3.0402362204724409
11
6.6439370078740154
21
-3.0402362204724409
0
LINE
8
BLACK
6
CONTINUOUS
10
6.6439370078740154
20
-3.0402362204724409
11
6.6439370078740154
21
-2.8827559055118108
0
LINE
8
BLACK
6
CONTINUOUS
10
6.6439370078740154
20
-2.8827559055118108
11
6.801417322834646
21
-2.8827559055118108
0
LINE
8
BLACK
6
CONTINUOUS
10
6.801417322834646
20
-2.8827559055118108
11
6.801417322834646
21
-3.0402362204724409
0
LINE
8
BLACK
6
CONTINUOUS
10
4.2133666535433072
20
-2.9002444094488187
11
4.2227674409448817
21
-2.9032989370078739
0
LINE
8
BLACK
6
CONTINUOUS
10
4.2227674409448817
20
-2.9032989370078739
11
4.231574724409449
21
-2.9077864566929135
0
LINE
8
BLACK
6
CONTINUOUS
10
4.231574724409449
20
-2.9077864566929135
11
4.239571535433071
21
-2.9135964566929133
0
LINE
8
BLACK
6
CONTINUOUS
10
4.239571535433071
20
-2.9135964566929133
11
4.2465610236220472
21
-2.9205859448818896
0
LINE
8
BLACK
6
CONTINUOUS
10
4.2465610236220472
20
-2.9205859448818896
11
4.2523710236220476
21
-2.9285827559055115
0
LINE
8
BLACK
6
CONTINUOUS
10
4.2523710236220476
20
-2.9285827559055115
11
4.2568585433070867
21
-2.9373900393700785
0
LINE
8
BLACK
6
CONTINUOUS
10
4.2568585433070867
20
-2.9373900393700785
11
4.2599130708661415
21
-2.9467908267716534
0
LINE
8
BLACK
6
CONTINUOUS
10
4.2599130708661415
20
-2.9467908267716534
11
4.2614593700787404
21
-2.9565537401574802
0
LINE
8
BLACK
6
CONTINUOUS
10
4.2614593700787404
20
-2.9565537401574802
11
4.2614593700787404
21
-2.9664383858267716
0
LINE
8
BLACK
6
CONTINUOUS
10
4.2614593700787404
20
-2.9664383858267716
11
4.2599130708661415
21
-2.9762012992125984
0
LINE
8
BLACK
6
CONTINUOUS
10
4.2599130708661415
20
-2.9762012992125984
11
4.2568585433070867
21
-2.9856020866141733
0
LINE
8
BLACK
6
CONTINUOUS
10
4.2568585433070867
20
-2.9856020866141733
11
4.2523710236220476
21
-2.9944093700787402
0
LINE
8
BLACK
6
CONTINUOUS
10
4.2523710236220476
20
-2.9944093700787402
11
4.2465610236220472
21
-3.0024061811023621
0
LINE
8
BLACK
6
CONTINUOUS
10
4.2465610236220472
20
-3.0024061811023621
11
4.239571535433071
21
-3.0093956692913384
0
LINE
8
BLACK
6
CONTINUOUS
10
4.239571535433071
20
-3.0093956692913384
11
4.231574724409449
21
-3.0152056692913387
0
LINE
8
BLACK
6
CONTINUOUS
10
4.231574724409449
20
-3.0152056692913387
11
4.2227674409448817
21
-3.0196931889763778
0
LINE
8
BLACK
6
CONTINUOUS
10
4.2227674409448817
20
-3.0196931889763778
11
4.2133666535433072
21
-3.0227477165354331
0
LINE
8
BLACK
6
CONTINUOUS
10
4.2133666535433072
20
-3.0227477165354331
11
4.2036037401574804
21
-3.0242940157480316
0
LINE
8
BLACK
6
CONTINUOUS
10
4.2036037401574804
20
-3.0242940157480316
11
4.1937190944881886
21
-3.0242940157480316
0
LINE
8
BLACK
6
CONTINUOUS
10
4.1937190944881886
20
-3.0242940157480316
11
4.1839561811023618
21
-3.0227477165354331
0
LINE
8
BLACK
6
CONTINUOUS
10
4.1839561811023618
20
-3.0227477165354331
11
4.1745553937007873
21
-3.0196931889763778
0
LINE
8
BLACK
6
CONTINUOUS
10
4.1745553937007873
20
-3.0196931889763778
11
4.1657481102362199
21
-3.0152056692913387
0
LINE
8
BLACK
6
CONTINUOUS
10
4.1657481102362199
20
-3.0152056692913387
11
4.157751299212598
21
-3.0093956692913384
0
LINE
8
BLACK
6
CONTINUOUS
10
4.157751299212598
20
-3.0093956692913384
11
4.1507618110236217
21
-3.0024061811023621
0
LINE
8
BLACK
6
CONTINUOUS
10
4.1507618110236217
20
-3.0024061811023621
11
4.1449518110236223
21
-2.9944093700787402
0
LINE
8
BLACK
6
CONTINUOUS
10
4.1449518110236223
20
-2.9944093700787402
11
4.1404642913385823
21
-2.9856020866141733
0
LINE
8
BLACK
6
CONTINUOUS
10
4.1404642913385823
20
-2.9856020866141733
11
4.1374097637795275
21
-2.9762012992125984
0
LINE
8
BLACK
6
CONTINUOUS
10
4.1374097637795275
20
-2.9762012992125984
11
4.1358634645669294
21
-2.9664383858267716
0
LINE
8
BLACK
6
CONTINUOUS
10
4.1358634645669294
20
-2.9664383858267716
11
4.1358634645669294
21
-2.9565537401574802
0
LINE
8
BLACK
6
CONTINUOUS
10
4.1358634645669294
20
-2.9565537401574802
11
4.1374097637795275
21
-2.9467908267716534
0
LINE
8
BLACK
6
CONTINUOUS
10
4.1374097637795275
20
-2.9467908267716534
11
4.1404642913385823
21
-2.9373900393700785
0
LINE
8
BLACK
6
CONTINUOUS
10
4.1404642913385823
20
-2.9373900393700785
11
4.1449518110236223
21
-2.9285827559055115
0
LINE
8
BLACK
6
CONTINUOUS
10
4.1449518110236223
20
-2.9285827559055115
11
4.1507618110236217
21
-2.9205859448818896
0
LINE
8
BLACK
6
CONTINUOUS
10
4.1507618110236217
20
-2.9205859448818896
11
4.157751299212598
21
-2.9135964566929133
0
LINE
8
BLACK
6
CONTINUOUS
10
4.157751299212598
20
-2.9135964566929133
11
4.1657481102362199
21
-2.9077864566929135
0
LINE
8
BLACK
6
CONTINUOUS
10
4.1657481102362199
20
-2.9077864566929135
11
4.1745553937007873
21
-2.9032989370078739
0
LINE
8
BLACK
6
CONTINUOUS
10
4.1745553937007873
20
-2.9032989370078739
11
4.1839561811023618
21
-2.9002444094488187
0
LINE
8
BLACK
6
CONTINUOUS
10
4.1839561811023618
20
-2.9002444094488187
11
4.1937190944881886
21
-2.8986981102362206
0
LINE
8
BLACK
6
CONTINUOUS
10
4.1937190944881886
20
-2.8986981102362206
11
4.2036037401574804
21
-2.8986981102362206
0
LINE
8
BLACK
6
CONTINUOUS
10
4.2036037401574804
20
-2.8986981102362206
11
4.2133666535433072
21
-2.9002444094488187
0
LINE
8
BLACK
6
CONTINUOUS
10
6.4031304330708663
20
-2.9002444094488187
11
6.4125312204724407
21
-2.9032989370078739
0
LINE
8
BLACK
6
CONTINUOUS
10
6.4125312204724407
20
-2.9032989370078739
11
6.4213385039370081
21
-2.9077864566929135
0
LINE
8
BLACK
6
CONTINUOUS
10
6.4213385039370081
20
-2.9077864566929135
11
6.42933531496063
21
-2.9135964566929133
0
LINE
8
BLACK
6
CONTINUOUS
10
6.42933531496063
20
-2.9135964566929133
11
6.4363248031496063
21
-2.9205859448818896
0
LINE
8
BLACK
6
CONTINUOUS
10
6.4363248031496063
20
-2.9205859448818896
11
6.4421348031496057
21
-2.9285827559055115
0
LINE
8
BLACK
6
CONTINUOUS
10
6.4421348031496057
20
-2.9285827559055115
11
6.4466223228346458
21
-2.9373900393700785
0
LINE
8
BLACK
6
CONTINUOUS
10
6.4466223228346458
20
-2.9373900393700785
11
6.4496768503937005
21
-2.9467908267716534
0
LINE
8
BLACK
6
CONTINUOUS
10
6.4496768503937005
20
-2.9467908267716534
11
6.4512231496062995
21
-2.9565537401574802
0
LINE
8
BLACK
6
CONTINUOUS
10
6.4512231496062995
20
-2.9565537401574802
11
6.4512231496062995
21
-2.9664383858267716
0
LINE
8
BLACK
6
CONTINUOUS
10
6.4512231496062995
20
-2.9664383858267716
11
6.4496768503937005
21
-2.9762012992125984
0
LINE
8
BLACK
6
CONTINUOUS
10
6.4496768503937005
20
-2.9762012992125984
11
6.4466223228346458
21
-2.9856020866141733
0
LINE
8
BLACK
6
CONTINUOUS
10
6.4466223228346458
20
-2.9856020866141733
11
6.4421348031496057
21
-2.9944093700787402
0
LINE
8
BLACK
6
CONTINUOUS
10
6.4421348031496057
20
-2.9944093700787402
11
6.4363248031496063
21
-3.0024061811023621
0
LINE
8
BLACK
6
CONTINUOUS
10
6.4363248031496063
20
-3.0024061811023621
11
6.42933531496063
21
-3.0093956692913384
0
LINE
8
BLACK
6
CONTINUOUS
10
6.42933531496063
20
-3.0093956692913384
11
6.4213385039370081
21
-3.0152056692913387
0
LINE
8
BLACK
6
CONTINUOUS
10
6.4213385039370081
20
-3.0152056692913387
11
6.4125312204724407
21
-3.0196931889763778
0
LINE
8
BLACK
6
CONTINUOUS
10
6.4125312204724407
20
-3.0196931889763778
11
6.4031304330708663
21
-3.0227477165354331
0
LINE
8
BLACK
6
CONTINUOUS
10
6.4031304330708663
20
-3.0227477165354331
11
6.3933675196850395
21
-3.0242940157480316
0
LINE
8
BLACK
6
CONTINUOUS
10
6.3933675196850395
20
-3.0242940157480316
11
6.3834828740157477
21
-3.0242940157480316
0
LINE
8
BLACK
6
CONTINUOUS
10
6.3834828740157477
20
-3.0242940157480316
11
6.3737199606299209
21
-3.0227477165354331
0
LINE
8
BLACK
6
CONTINUOUS
10
6.3737199606299209
20
-3.0227477165354331
11
6.3643191732283464
21
-3.0196931889763778
0
LINE
8
BLACK
6
CONTINUOUS
10
6.3643191732283464
20
-3.0196931889763778
11
6.355511889763779
21
-3.0152056692913387
0
LINE
8
BLACK
6
CONTINUOUS
10
6.355511889763779
20
-3.0152056692913387
11
6.3475150787401571
21
-3.0093956692913384
0
LINE
8
BLACK
6
CONTINUOUS
10
6.3475150787401571
20
-3.0093956692913384
11
6.3405255905511808
21
-3.0024061811023621
0
LINE
8
BLACK
6
CONTINUOUS
10
6.3405255905511808
20
-3.0024061811023621
11
6.3347155905511814
21
-2.9944093700787402
0
LINE
8
BLACK
6
CONTINUOUS
10
6.3347155905511814
20
-2.9944093700787402
11
6.3302280708661414
21
-2.9856020866141733
0
LINE
8
BLACK
6
CONTINUOUS
10
6.3302280708661414
20
-2.9856020866141733
11
6.3271735433070866
21
-2.9762012992125984
0
LINE
8
BLACK
6
CONTINUOUS
10
6.3271735433070866
20
-2.9762012992125984
11
6.3256272440944876
21
-2.9664383858267716
0
LINE
8
BLACK
6
CONTINUOUS
10
6.3256272440944876
20
-2.9664383858267716
11
6.3256272440944876
21
-2.9565537401574802
0
LINE
8
BLACK
6
CONTINUOUS
10
6.3256272440944876
20
-2.9565537401574802
11
6.3271735433070866
21
-2.9467908267716534
0
LINE
8
BLACK
6
CONTINUOUS
10
6.3271735433070866
20
-2.9467908267716534
11
6.3302280708661414
21
-2.9373900393700785
0
LINE
8
BLACK
6
CONTINUOUS
10
6.3302280708661414
20
-2.9373900393700785
11
6.3347155905511814
21
-2.9285827559055115
0
LINE
8
BLACK
6
CONTINUOUS
10
6.3347155905511814
20
-2.9285827559055115
11
6.3405255905511808
21
-2.9205859448818896
0
LINE
8
BLACK
6
CONTINUOUS
10
6.3405255905511808
20
-2.9205859448818896
11
6.3475150787401571
21
-2.9135964566929133
0
LINE
8
BLACK
6
CONTINUOUS
10
6.3475150787401571
20
-2.9135964566929133
11
6.355511889763779
21
-2.9077864566929135
0
LINE
8
BLACK
6
CONTINUOUS
10
6.355511889763779
20
-2.9077864566929135
11
6.3643191732283464
21
-2.9032989370078739
0
LINE
8
BLACK
6
CONTINUOUS
10
6.3643191732283464
20
-2.9032989370078739
11
6.3737199606299209
21
-2.9002444094488187
0
LINE
8
BLACK
6
CONTINUOUS
10
6.3737199606299209
20
-2.9002444094488187
11
6.3834828740157477
21
-2.8986981102362206
0
LINE
8
BLACK
6
CONTINUOUS
10
6.3834828740157477
20
-2.8986981102362206
11
6.3933675196850395
21
-2.8986981102362206
0
LINE
8
BLACK
6
CONTINUOUS
10
6.3933675196850395
20
-2.8986981102362206
11
6.4031304330708663
21
-2.9002444094488187
0
LINE
8
BLACK
6
CONTINUOUS
10
3.9431496062992126
20
-2.2803937007874016
11
3.7856692913385825
21
-2.2803937007874016
0
LINE
8
BLACK
6
CONTINUOUS
10
3.7856692913385825
20
-2.2803937007874016
11
3.7856692913385825
21
-2.1229133858267715
0
LINE
8
BLACK
6
CONTINUOUS
10
3.7856692913385825
20
-2.1229133858267715
11
3.9431496062992126
21
-2.1229133858267715
0
LINE
8
BLACK
6
CONTINUOUS
10
3.9431496062992126
20
-2.1229133858267715
11
3.9431496062992126
21
-2.2803937007874016
0
LINE
8
BLACK
6
CONTINUOUS
10
6.801417322834646
20
-2.2803937007874016
11
6.6439370078740154
21
-2.2803937007874016
0
LINE
8
BLACK
6
CONTINUOUS
10
6.6439370078740154
20
-2.2803937007874016
11
6.6439370078740154
21
-2.1229133858267715
0
LINE
8
BLACK
6
CONTINUOUS
10
6.6439370078740154
20
-2.1229133858267715
11
6.801417322834646
21
-2.1229133858267715
0
LINE
8
BLACK
6
CONTINUOUS
10
6.801417322834646
20
-2.1229133858267715
11
6.801417322834646
21
-2.2803937007874016
0
LINE
8
BLACK
6
CONTINUOUS
10
4.2133666535433072
20
-2.1404018897637793
11
4.2227674409448817
21
-2.1434564173228345
0
LINE
8
BLACK
6
CONTINUOUS
10
4.2227674409448817
20
-2.1434564173228345
11
4.231574724409449
21
-2.1479439370078741
0
LINE
8
BLACK
6
CONTINUOUS
10
4.231574724409449
20
-2.1479439370078741
11
4.239571535433071
21
-2.153753937007874
0
LINE
8
BLACK
6
CONTINUOUS
10
4.239571535433071
20
-2.153753937007874
11
4.2465610236220472
21
-2.1607434251968503
0
LINE
8
BLACK
6
CONTINUOUS
10
4.2465610236220472
20
-2.1607434251968503
11
4.2523710236220476
21
-2.1687402362204722
0
LINE
8
BLACK
6
CONTINUOUS
10
4.2523710236220476
20
-2.1687402362204722
11
4.2568585433070867
21
-2.1775475196850391
0
LINE
8
BLACK
6
CONTINUOUS
10
4.2568585433070867
20
-2.1775475196850391
11
4.2599130708661415
21
-2.186948307086614
0
LINE
8
BLACK
6
CONTINUOUS
10
4.2599130708661415
20
-2.186948307086614
11
4.2614593700787404
21
-2.1967112204724408
0
LINE
8
BLACK
6
CONTINUOUS
10
4.2614593700787404
20
-2.1967112204724408
11
4.2614593700787404
21
-2.2065958661417322
0
LINE
8
BLACK
6
CONTINUOUS
10
4.2614593700787404
20
-2.2065958661417322
11
4.2599130708661415
21
-2.216358779527559
0
LINE
8
BLACK
6
CONTINUOUS
10
4.2599130708661415
20
-2.216358779527559
11
4.2568585433070867
21
-2.2257595669291339
0
LINE
8
BLACK
6
CONTINUOUS
10
4.2568585433070867
20
-2.2257595669291339
11
4.2523710236220476
21
-2.2345668503937008
0
LINE
8
BLACK
6
CONTINUOUS
10
4.2523710236220476
20
-2.2345668503937008
11
4.2465610236220472
21
-2.2425636614173228
0
LINE
8
BLACK
6
CONTINUOUS
10
4.2465610236220472
20
-2.2425636614173228
11
4.239571535433071
21
-2.249553149606299
0
LINE
8
BLACK
6
CONTINUOUS
10
4.239571535433071
20
-2.249553149606299
11
4.231574724409449
21
-2.2553631496062994
0
LINE
8
BLACK
6
CONTINUOUS
10
4.231574724409449
20
-2.2553631496062994
11
4.2227674409448817
21
-2.2598506692913385
0
LINE
8
BLACK
6
CONTINUOUS
10
4.2227674409448817
20
-2.2598506692913385
11
4.2133666535433072
21
-2.2629051968503937
0
LINE
8
BLACK
6
CONTINUOUS
10
4.2133666535433072
20
-2.2629051968503937
11
4.2036037401574804
21
-2.2644514960629922
0
LINE
8
BLACK
6
CONTINUOUS
10
4.2036037401574804
20
-2.2644514960629922
11
4.1937190944881886
21
-2.2644514960629922
0
LINE
8
BLACK
6
CONTINUOUS
10
4.1937190944881886
20
-2.2644514960629922
11
4.1839561811023618
21
-2.2629051968503937
0
LINE
8
BLACK
6
CONTINUOUS
10
4.1839561811023618
20
-2.2629051968503937
11
4.1745553937007873
21
-2.2598506692913385
0
LINE
8
BLACK
6
CONTINUOUS
10
4.1745553937007873
20
-2.2598506692913385
11
4.1657481102362199
21
-2.2553631496062994
0
LINE
8
BLACK
6
CONTINUOUS
10
4.1657481102362199
20
-2.2553631496062994
11
4.157751299212598
21
-2.249553149606299
0
LINE
8
BLACK
6
CONTINUOUS
10
4.157751299212598
20
-2.249553149606299
11
4.1507618110236217
21
-2.2425636614173228
0
LINE
8
BLACK
6
CONTINUOUS
10
4.1507618110236217
20
-2.2425636614173228
11
4.1449518110236223
21
-2.2345668503937008
0
LINE
8
BLACK
6
CONTINUOUS
10
4.1449518110236223
20
-2.2345668503937008
11
4.1404642913385823
21
-2.2257595669291339
0
LINE
8
BLACK
6
CONTINUOUS
10
4.1404642913385823
20
-2.2257595669291339
11
4.1374097637795275
21
-2.216358779527559
0
LINE
8
BLACK
6
CONTINUOUS
10
4.1374097637795275
20
-2.216358779527559
11
4.1358634645669294
21
-2.2065958661417322
0
LINE
8
BLACK
6
CONTINUOUS
10
4.1358634645669294
20
-2.2065958661417322
11
4.1358634645669294
21
-2.1967112204724408
0
LINE
8
BLACK
6
CONTINUOUS
10
4.1358634645669294
20
-2.1967112204724408
11
4.1374097637795275
21
-2.186948307086614
0
LINE
8
BLACK
6
CONTINUOUS
10
4.1374097637795275
20
-2.186948307086614
11
4.1404642913385823
21
-2.1775475196850391
0
LINE
8
BLACK
6
CONTINUOUS
10
4.1404642913385823
20
-2.1775475196850391
11
4.1449518110236223
21
-2.1687402362204722
0
LINE
8
BLACK
6
CONTINUOUS
10
4.1449518110236223
20
-2.1687402362204722
11
4.1507618110236217
21
-2.1607434251968503
0
LINE
8
BLACK
6
CONTINUOUS
10
4.1507618110236217
20
-2.1607434251968503
11
4.157751299212598
21
-2.153753937007874
0
LINE
8
BLACK
6
CONTINUOUS
10
4.157751299212598
20
-2.153753937007874
11
4.1657481102362199
21
-2.1479439370078741
0
LINE
8
BLACK
6
CONTINUOUS
10
4.1657481102362199
20
-2.1479439370078741
11
4.1745553937007873
21
-2.1434564173228345
0
LINE
8
BLACK
6
CONTINUOUS
10
4.1745553937007873
20
-2.1434564173228345
11
4.1839561811023618
21
-2.1404018897637793
0
LINE
8
BLACK
6
CONTINUOUS
10
4.1839561811023618
20
-2.1404018897637793
11
4.1937190944881886
21
-2.1388555905511812
0
LINE
8
BLACK
6
CONTINUOUS
10
4.1937190944881886
20
-2.1388555905511812
11
4.2036037401574804
21
-2.1388555905511812
0
LINE
8
BLACK
6
CONTINUOUS
10
4.2036037401574804
20
-2.1388555905511812
11
4.2133666535433072
21
-2.1404018897637793
0
LINE
8
BLACK
6
CONTINUOUS
10
6.4031304330708663
20
-2.1404018897637793
11
6.4125312204724407
21
-2.1434564173228345
0
LINE
8
BLACK
6
CONTINUOUS
10
6.4125312204724407
20
-2.1434564173228345
11
6.4213385039370081
21
-2.1479439370078741
0
LINE
8
BLACK
6
CONTINUOUS
10
6.4213385039370081
20
-2.1479439370078741
11
6.42933531496063
21
-2.153753937007874
0
LINE
8
BLACK
6
CONTINUOUS
10
6.42933531496063
20
-2.153753937007874
11
6.4363248031496063
21
-2.1607434251968503
0
LINE
8
BLACK
6
CONTINUOUS
10
6.4363248031496063
20
-2.1607434251968503
11
6.4421348031496057
21
-2.1687402362204722
0
LINE
8
BLACK
6
CONTINUOUS
10
6.4421348031496057
20
-2.1687402362204722
11
6.4466223228346458
21
-2.1775475196850391
0
LINE
8
BLACK
6
CONTINUOUS
10
6.4466223228346458
20
-2.1775475196850391
11
6.4496768503937005
21
-2.186948307086614
0
LINE
8
BLACK
6
CONTINUOUS
10
6.4496768503937005
20
-2.186948307086614
11
6.4512231496062995
21
-2.1967112204724408
0
LINE
8
BLACK
6
CONTINUOUS
10
6.4512231496062995
20
-2.1967112204724408
11
6.4512231496062995
21
-2.2065958661417322
0
LINE
8
BLACK
6
CONTINUOUS
10
6.4512231496062995
20
-2.2065958661417322
11
6.4496768503937005
21
-2.216358779527559
0
LINE
8
BLACK
6
CONTINUOUS
10
6.4496768503937005
20
-2.216358779527559
11
6.4466223228346458
21
-2.2257595669291339
0
LINE
8
BLACK
6
CONTINUOUS
10
6.4466223228346458
20
-2.2257595669291339
11
6.4421348031496057
21
-2.2345668503937008
0
LINE
8
BLACK
6
CONTINUOUS
10
6.4421348031496057
20
-2.2345668503937008
11
6.4363248031496063
21
-2.2425636614173228
0
LINE
8
BLACK
6
CONTINUOUS
10
6.4363248031496063
20
-2.2425636614173228
11
6.42933531496063
21
-2.249553149606299
0
LINE
8
BLACK
6
CONTINUOUS
10
6.42933531496063
20
-2.249553149606299
11
6.4213385039370081
21
-2.2553631496062994
0
LINE
8
BLACK
6
CONTINUOUS
10
6.4213385039370081
20
-2.2553631496062994
11
6.4125312204724407
21
-2.2598506692913385
0
LINE
8
BLACK
6
CONTINUOUS
10
6.4125312204724407
20
-2.2598506692913385
11
6.4031304330708663
21
-2.2629051968503937
0
LINE
8
BLACK
6
CONTINUOUS
10
6.4031304330708663
20
-2.2629051968503937
11
6.3933675196850395
21
-2.2644514960629922
0
LINE
8
BLACK
6
CONTINUOUS
10
6.3933675196850395
20
-2.2644514960629922
11
6.3834828740157477
21
-2.2644514960629922
0
LINE
8
BLACK
6
CONTINUOUS
10
6.3834828740157477
20
-2.2644514960629922
11
6.3737199606299209
21
-2.2629051968503937
0
LINE
8
BLACK
6
CONTINUOUS
10
6.3737199606299209
20
-2.2629051968503937
11
6.3643191732283464
21
-2.2598506692913385
0
LINE
8
BLACK
6
CONTINUOUS
10
6.3643191732283464
20
-2.2598506692913385
11
6.355511889763779
21
-2.2553631496062994
0
LINE
8
BLACK
6
CONTINUOUS
10
6.355511889763779
20
-2.2553631496062994
11
6.3475150787401571
21
-2.249553149606299
0
LINE
8
BLACK
6
CONTINUOUS
10
6.3475150787401571
20
-2.249553149606299
11
6.3405255905511808
21
-2.2425636614173228
0
LINE
8
BLACK
6
CONTINUOUS
10
6.3405255905511808
20
-2.2425636614173228
11
6.3347155905511814
21
-2.2345668503937008
0
LINE
8
BLACK
6
CONTINUOUS
10
6.3347155905511814
20
-2.2345668503937008
11
6.3302280708661414
21
-2.2257595669291339
0
LINE
8
BLACK
6
CONTINUOUS
10
6.3302280708661414
20
-2.2257595669291339
11
6.3271735433070866
21
-2.216358779527559
0
LINE
8
BLACK
6
CONTINUOUS
10
6.3271735433070866
20
-2.216358779527559
11
6.3256272440944876
21
-2.2065958661417322
0
LINE
8
BLACK
6
CONTINUOUS
10
6.3256272440944876
20
-2.2065958661417322
11
6.3256272440944876
21
-2.1967112204724408
0
LINE
8
BLACK
6
CONTINUOUS
10
6.3256272440944876
20
-2.1967112204724408
11
6.3271735433070866
21
-2.186948307086614
0
LINE
8
BLACK
6
CONTINUOUS
10
6.3271735433070866
20
-2.186948307086614
11
6.3302280708661414
21
-2.1775475196850391
0
LINE
8
BLACK
6
CONTINUOUS
10
6.3302280708661414
20
-2.1775475196850391
11
6.3347155905511814
21
-2.1687402362204722
0
LINE
8
BLACK
6
CONTINUOUS
10
6.3347155905511814
20
-2.1687402362204722
11
6.3405255905511808
21
-2.1607434251968503
0
LINE
8
BLACK
6
CONTINUOUS
10
6.3405255905511808
20
-2.1607434251968503
11
6.3475150787401571
21
-2.153753937007874
0
LINE
8
BLACK
6
CONTINUOUS
10
6.3475150787401571
20
-2.153753937007874
11
6.355511889763779
21
-2.1479439370078741
0
LINE
8
BLACK
6
CONTINUOUS
10
6.355511889763779
20
-2.1479439370078741
11
6.3643191732283464
21
-2.1434564173228345
0
LINE
8
BLACK
6
CONTINUOUS
10
6.3643191732283464
20
-2.1434564173228345
11
6.3737199606299209
21
-2.1404018897637793
0
LINE
8
BLACK
6
CONTINUOUS
10
6.3737199606299209
20
-2.1404018897637793
11
6.3834828740157477
21
-2.1388555905511812
0
LINE
8
BLACK
6
CONTINUOUS
10
6.3834828740157477
20
-2.1388555905511812
11
6.3933675196850395
21
-2.1388555905511812
0
LINE
8
BLACK
6
CONTINUOUS
10
6.3933675196850395
20
-2.1388555905511812
11
6.4031304330708663
21
-2.1404018897637793
0
LINE
8
BLACK
6
CONTINUOUS
10
3.4997842125984251
20
-1.4935585433070866
11
3.5126971259842521
21
-1.4965058267716536
0
LINE
8
BLACK
6
CONTINUOUS
10
3.5126971259842521
20
-1.4965058267716536
11
3.5251988188976378
21
-1.5008803543307085
0
LINE
8
BLACK
6
CONTINUOUS
10
3.5251988188976378
20
-1.5008803543307085
11
3.5371321653543308
21
-1.5066271653543306
0
LINE
8
BLACK
6
CONTINUOUS
10
3.5371321653543308
20
-1.5066271653543306
11
3.5483470078740158
21
-1.5136738976377953
0
LINE
8
BLACK
6
CONTINUOUS
10
3.5483470078740158
20
-1.5136738976377953
11
3.5587023622047242
21
-1.5219320472440945
0
LINE
8
BLACK
6
CONTINUOUS
10
3.5587023622047242
20
-1.5219320472440945
11
3.5680679527559054
21
-1.5312976377952756
0
LINE
8
BLACK
6
CONTINUOUS
10
3.5680679527559054
20
-1.5312976377952756
11
3.5763261023622048
21
-1.5416529921259843
0
LINE
8
BLACK
6
CONTINUOUS
10
3.5763261023622048
20
-1.5416529921259843
11
3.5833728346456692
21
-1.5528678346456692
0
LINE
8
BLACK
6
CONTINUOUS
10
3.5833728346456692
20
-1.5528678346456692
11
3.5891196456692911
21
-1.5648011811023621
0
LINE
8
BLACK
6
CONTINUOUS
10
3.5891196456692911
20
-1.5648011811023621
11
3.5934941732283465
21
-1.577302874015748
0
LINE
8
BLACK
6
CONTINUOUS
10
3.5934941732283465
20
-1.577302874015748
11
3.5964414566929133
21
-1.5902157874015748
0
LINE
8
BLACK
6
CONTINUOUS
10
3.5964414566929133
20
-1.5902157874015748
11
3.5979244094488187
21
-1.6033775196850393
0
LINE
8
BLACK
6
CONTINUOUS
10
3.5979244094488187
20
-1.6033775196850393
11
3.5979244094488187
21
-1.6166224803149607
0
LINE
8
BLACK
6
CONTINUOUS
10
3.5979244094488187
20
-1.6166224803149607
11
3.5964414566929133
21
-1.6297842125984252
0
LINE
8
BLACK
6
CONTINUOUS
10
3.5964414566929133
20
-1.6297842125984252
11
3.5934941732283465
21
-1.642697125984252
0
LINE
8
BLACK
6
CONTINUOUS
10
3.5934941732283465
20
-1.642697125984252
11
3.5891196456692911
21
-1.6551988188976376
0
LINE
8
BLACK
6
CONTINUOUS
10
3.5891196456692911
20
-1.6551988188976376
11
3.5833728346456692
21
-1.6671321653543307
0
LINE
8
BLACK
6
CONTINUOUS
10
3.5833728346456692
20
-1.6671321653543307
11
3.5763261023622048
21
-1.6783470078740157
0
LINE
8
BLACK
6
CONTINUOUS
10
3.5763261023622048
20
-1.6783470078740157
11
3.5680679527559054
21
-1.6887023622047244
0
LINE
8
BLACK
6
CONTINUOUS
10
3.5680679527559054
20
-1.6887023622047244
11
3.5587023622047242
21
-1.6980679527559055
0
LINE
8
BLACK
6
CONTINUOUS
10
3.5587023622047242
20
-1.6980679527559055
11
3.5483470078740158
21
-1.7063261023622047
0
LINE
8
BLACK
6
CONTINUOUS
10
3.5483470078740158
20
-1.7063261023622047
11
3.5371321653543308
21
-1.7133728346456694
0
LINE
8
BLACK
6
CONTINUOUS
10
3.5371321653543308
20
-1.7133728346456694
11
3.5251988188976378
21
-1.7191196456692912
0
LINE
8
BLACK
6
CONTINUOUS
10
3.5251988188976378
20
-1.7191196456692912
11
3.5126971259842521
21
-1.7234941732283464
0
LINE
8
BLACK
6
CONTINUOUS
10
3.5126971259842521
20
-1.7234941732283464
11
3.4997842125984251
21
-1.7264414566929134
0
LINE
8
BLACK
6
CONTINUOUS
10
3.4997842125984251
20
-1.7264414566929134
11
3.4866224803149604
21
-1.7279244094488189
0
LINE
8
BLACK
6
CONTINUOUS
10
3.4866224803149604
20
-1.7279244094488189
11
3.4733775196850392
21
-1.7279244094488189
0
LINE
8
BLACK
6
CONTINUOUS
10
3.4733775196850392
20
-1.7279244094488189
11
3.4602157874015749
21
-1.7264414566929134
0
LINE
8
BLACK
6
CONTINUOUS
10
3.4602157874015749
20
-1.7264414566929134
11
3.4473028740157479
21
-1.7234941732283464
0
LINE
8
BLACK
6
CONTINUOUS
10
3.4473028740157479
20
-1.7234941732283464
11
3.4348011811023622
21
-1.7191196456692912
0
LINE
8
BLACK
6
CONTINUOUS
10
3.4348011811023622
20
-1.7191196456692912
11
3.4228678346456691
21
-1.7133728346456694
0
LINE
8
BLACK
6
CONTINUOUS
10
3.4228678346456691
20
-1.7133728346456694
11
3.4116529921259842
21
-1.7063261023622047
0
LINE
8
BLACK
6
CONTINUOUS
10
3.4116529921259842
20
-1.7063261023622047
11
3.4012976377952757
21
-1.6980679527559055
0
LINE
8
BLACK
6
CONTINUOUS
10
3.4012976377952757
20
-1.6980679527559055
11
3.3919320472440946
21
-1.6887023622047244
0
LINE
8
BLACK
6
CONTINUOUS
10
3.3919320472440946
20
-1.6887023622047244
11
3.3836738976377951
21
-1.6783470078740157
0
LINE
8
BLACK
6
CONTINUOUS
10
3.3836738976377951
20
-1.6783470078740157
11
3.3766271653543307
21
-1.6671321653543307
0
LINE
8
BLACK
6
CONTINUOUS
10
3.3766271653543307
20
-1.6671321653543307
11
3.3708803543307084
21
-1.6551988188976376
0
LINE
8
BLACK
6
CONTINUOUS
10
3.3708803543307084
20
-1.6551988188976376
11
3.3665058267716534
21
-1.642697125984252
0
LINE
8
BLACK
6
CONTINUOUS
10
3.3665058267716534
20
-1.642697125984252
11
3.3635585433070867
21
-1.6297842125984252
0
LINE
8
BLACK
6
CONTINUOUS
10
3.3635585433070867
20
-1.6297842125984252
11
3.3620755905511812
21
-1.6166224803149607
0
LINE
8
BLACK
6
CONTINUOUS
10
3.3620755905511812
20
-1.6166224803149607
11
3.3620755905511812
21
-1.6033775196850393
0
LINE
8
BLACK
6
CONTINUOUS
10
3.3620755905511812
20
-1.6033775196850393
11
3.3635585433070867
21
-1.5902157874015748
0
LINE
8
BLACK
6
CONTINUOUS
10
3.3635585433070867
20
-1.5902157874015748
11
3.3665058267716534
21
-1.577302874015748
0
LINE
8
BLACK
6
CONTINUOUS
10
3.3665058267716534
20
-1.577302874015748
11
3.3708803543307084
21
-1.5648011811023621
0
LINE
8
BLACK
6
CONTINUOUS
10
3.3708803543307084
20
-1.5648011811023621
11
3.3766271653543307
21
-1.5528678346456692
0
LINE
8
BLACK
6
CONTINUOUS
10
3.3766271653543307
20
-1.5528678346456692
11
3.3836738976377951
21
-1.5416529921259843
0
LINE
8
BLACK
6
CONTINUOUS
10
3.3836738976377951
20
-1.5416529921259843
11
3.3919320472440946
21
-1.5312976377952756
0
LINE
8
BLACK
6
CONTINUOUS
10
3.3919320472440946
20
-1.5312976377952756
11
3.4012976377952757
21
-1.5219320472440945
0
LINE
8
BLACK
6
CONTINUOUS
10
3.4012976377952757
20
-1.5219320472440945
11
3.4116529921259842
21
-1.5136738976377953
0
LINE
8
BLACK
6
CONTINUOUS
10
3.4116529921259842
20
-1.5136738976377953
11
3.4228678346456691
21
-1.5066271653543306
0
LINE
8
BLACK
6
CONTINUOUS
10
3.4228678346456691
20
-1.5066271653543306
11
3.4348011811023622
21
-1.5008803543307085
0
LINE
8
BLACK
6
CONTINUOUS
10
3.4348011811023622
20
-1.5008803543307085
11
3.4473028740157479
21
-1.4965058267716536
0
LINE
8
BLACK
6
CONTINUOUS
10
3.4473028740157479
20
-1.4965058267716536
11
3.4602157874015749
21
-1.4935585433070866
0
LINE
8
BLACK
6
CONTINUOUS
10
3.4602157874015749
20
-1.4935585433070866
11
3.4733775196850392
21
-1.4920755905511811
0
LINE
8
BLACK
6
CONTINUOUS
10
3.4733775196850392
20
-1.4920755905511811
11
3.4866224803149604
21
-1.4920755905511811
0
LINE
8
BLACK
6
CONTINUOUS
10
3.4866224803149604
20
-1.4920755905511811
11
3.4997842125984251
21
-1.4935585433070866
0
LINE
8
BLACK
6
CONTINUOUS
10
7.2297842125984246
20
-1.4835585433070866
11
7.2426971259842521
21
-1.4865058267716535
0
LINE
8
BLACK
6
CONTINUOUS
10
7.2426971259842521
20
-1.4865058267716535
11
7.2551988188976377
21
-1.4908803543307085
0
LINE
8
BLACK
6
CONTINUOUS
10
7.2551988188976377
20
-1.4908803543307085
11
7.2671321653543304
21
-1.4966271653543306
0
LINE
8
BLACK
6
CONTINUOUS
10
7.2671321653543304
20
-1.4966271653543306
11
7.2783470078740153
21
-1.5036738976377952
0
LINE
8
BLACK
6
CONTINUOUS
10
7.2783470078740153
20
-1.5036738976377952
11
7.2887023622047247
21
-1.5119320472440945
0
LINE
8
BLACK
6
CONTINUOUS
10
7.2887023622047247
20
-1.5119320472440945
11
7.2980679527559049
21
-1.5212976377952756
0
LINE
8
BLACK
6
CONTINUOUS
10
7.2980679527559049
20
-1.5212976377952756
11
7.3063261023622044
21
-1.5316529921259843
0
LINE
8
BLACK
6
CONTINUOUS
10
7.3063261023622044
20
-1.5316529921259843
11
7.3133728346456692
21
-1.5428678346456692
0
LINE
8
BLACK
6
CONTINUOUS
10
7.3133728346456692
20
-1.5428678346456692
11
7.3191196456692911
21
-1.5548011811023621
0
LINE
8
BLACK
6
CONTINUOUS
10
7.3191196456692911
20
-1.5548011811023621
11
7.3234941732283465
21
-1.567302874015748
0
LINE
8
BLACK
6
CONTINUOUS
10
7.3234941732283465
20
-1.567302874015748
11
7.3264414566929128
21
-1.5802157874015748
0
LINE
8
BLACK
6
CONTINUOUS
10
7.3264414566929128
20
-1.5802157874015748
11
7.3279244094488183
21
-1.5933775196850393
0
LINE
8
BLACK
6
CONTINUOUS
10
7.3279244094488183
20
-1.5933775196850393
11
7.3279244094488183
21
-1.6066224803149607
0
LINE
8
BLACK
6
CONTINUOUS
10
7.3279244094488183
20
-1.6066224803149607
11
7.3264414566929128
21
-1.6197842125984252
0
LINE
8
BLACK
6
CONTINUOUS
10
7.3264414566929128
20
-1.6197842125984252
11
7.3234941732283465
21
-1.632697125984252
0
LINE
8
BLACK
6
CONTINUOUS
10
7.3234941732283465
20
-1.632697125984252
11
7.3191196456692911
21
-1.6451988188976379
0
LINE
8
BLACK
6
CONTINUOUS
10
7.3191196456692911
20
-1.6451988188976379
11
7.3133728346456692
21
-1.6571321653543307
0
LINE
8
BLACK
6
CONTINUOUS
10
7.3133728346456692
20
-1.6571321653543307
11
7.3063261023622044
21
-1.6683470078740157
0
LINE
8
BLACK
6
CONTINUOUS
10
7.3063261023622044
20
-1.6683470078740157
11
7.2980679527559049
21
-1.6787023622047244
0
LINE
8
BLACK
6
CONTINUOUS
10
7.2980679527559049
20
-1.6787023622047244
11
7.2887023622047247
21
-1.6880679527559055
0
LINE
8
BLACK
6
CONTINUOUS
10
7.2887023622047247
20
-1.6880679527559055
11
7.2783470078740153
21
-1.6963261023622047
0
LINE
8
BLACK
6
CONTINUOUS
10
7.2783470078740153
20
-1.6963261023622047
11
7.2671321653543304
21
-1.7033728346456694
0
LINE
8
BLACK
6
CONTINUOUS
10
7.2671321653543304
20
-1.7033728346456694
11
7.2551988188976377
21
-1.7091196456692912
0
LINE
8
BLACK
6
CONTINUOUS
10
7.2551988188976377
20
-1.7091196456692912
11
7.2426971259842521
21
-1.7134941732283464
0
LINE
8
BLACK
6
CONTINUOUS
10
7.2426971259842521
20
-1.7134941732283464
11
7.2297842125984246
21
-1.7164414566929134
0
LINE
8
BLACK
6
CONTINUOUS
10
7.2297842125984246
20
-1.7164414566929134
11
7.2166224803149603
21
-1.7179244094488189
0
LINE
8
BLACK
6
CONTINUOUS
10
7.2166224803149603
20
-1.7179244094488189
11
7.2033775196850396
21
-1.7179244094488189
0
LINE
8
BLACK
6
CONTINUOUS
10
7.2033775196850396
20
-1.7179244094488189
11
7.1902157874015744
21
-1.7164414566929134
0
LINE
8
BLACK
6
CONTINUOUS
10
7.1902157874015744
20
-1.7164414566929134
11
7.1773028740157478
21
-1.7134941732283464
0
LINE
8
BLACK
6
CONTINUOUS
10
7.1773028740157478
20
-1.7134941732283464
11
7.1648011811023622
21
-1.7091196456692912
0
LINE
8
BLACK
6
CONTINUOUS
10
7.1648011811023622
20
-1.7091196456692912
11
7.1528678346456696
21
-1.7033728346456694
0
LINE
8
BLACK
6
CONTINUOUS
10
7.1528678346456696
20
-1.7033728346456694
11
7.1416529921259837
21
-1.6963261023622047
0
LINE
8
BLACK
6
CONTINUOUS
10
7.1416529921259837
20
-1.6963261023622047
11
7.1312976377952753
21
-1.6880679527559055
0
LINE
8
BLACK
6
CONTINUOUS
10
7.1312976377952753
20
-1.6880679527559055
11
7.1219320472440941
21
-1.6787023622047244
0
LINE
8
BLACK
6
CONTINUOUS
10
7.1219320472440941
20
-1.6787023622047244
11
7.1136738976377947
21
-1.6683470078740157
0
LINE
8
BLACK
6
CONTINUOUS
10
7.1136738976377947
20
-1.6683470078740157
11
7.1066271653543307
21
-1.6571321653543307
0
LINE
8
BLACK
6
CONTINUOUS
10
7.1066271653543307
20
-1.6571321653543307
11
7.1008803543307089
21
-1.6451988188976379
0
LINE
8
BLACK
6
CONTINUOUS
10
7.1008803543307089
20
-1.6451988188976379
11
7.0965058267716534
21
-1.632697125984252
0
LINE
8
BLACK
6
CONTINUOUS
10
7.0965058267716534
20
-1.632697125984252
11
7.0935585433070862
21
-1.6197842125984252
0
LINE
8
BLACK
6
CONTINUOUS
10
7.0935585433070862
20
-1.6197842125984252
11
7.0920755905511808
21
-1.6066224803149607
0
LINE
8
BLACK
6
CONTINUOUS
10
7.0920755905511808
20
-1.6066224803149607
11
7.0920755905511808
21
-1.5933775196850393
0
LINE
8
BLACK
6
CONTINUOUS
10
7.0920755905511808
20
-1.5933775196850393
11
7.0935585433070862
21
-1.5802157874015748
0
LINE
8
BLACK
6
CONTINUOUS
10
7.0935585433070862
20
-1.5802157874015748
11
7.0965058267716534
21
-1.567302874015748
0
LINE
8
BLACK
6
CONTINUOUS
10
7.0965058267716534
20
-1.567302874015748
11
7.1008803543307089
21
-1.5548011811023621
0
LINE
8
BLACK
6
CONTINUOUS
10
7.1008803543307089
20
-1.5548011811023621
11
7.1066271653543307
21
-1.5428678346456692
0
LINE
8
BLACK
6
CONTINUOUS
10
7.1066271653543307
20
-1.5428678346456692
11
7.1136738976377947
21
-1.5316529921259843
0
LINE
8
BLACK
6
CONTINUOUS
10
7.1136738976377947
20
-1.5316529921259843
11
7.1219320472440941
21
-1.5212976377952756
0
LINE
8
BLACK
6
CONTINUOUS
10
7.1219320472440941
20
-1.5212976377952756
11
7.1312976377952753
21
-1.5119320472440945
0
LINE
8
BLACK
6
CONTINUOUS
10
7.1312976377952753
20
-1.5119320472440945
11
7.1416529921259837
21
-1.5036738976377952
0
LINE
8
BLACK
6
CONTINUOUS
10
7.1416529921259837
20
-1.5036738976377952
11
7.1528678346456696
21
-1.4966271653543306
0
LINE
8
BLACK
6
CONTINUOUS
10
7.1528678346456696
20
-1.4966271653543306
11
7.1648011811023622
21
-1.4908803543307085
0
LINE
8
BLACK
6
CONTINUOUS
10
7.1648011811023622
20
-1.4908803543307085
11
7.1773028740157478
21
-1.4865058267716535
0
LINE
8
BLACK
6
CONTINUOUS
10
7.1773028740157478
20
-1.4865058267716535
11
7.1902157874015744
21
-1.4835585433070866
0
LINE
8
BLACK
6
CONTINUOUS
10
7.1902157874015744
20
-1.4835585433070866
11
7.2033775196850396
21
-1.4820755905511811
0
LINE
8
BLACK
6
CONTINUOUS
10
7.2033775196850396
20
-1.4820755905511811
11
7.2166224803149603
21
-1.4820755905511811
0
LINE
8
BLACK
6
CONTINUOUS
10
7.2166224803149603
20
-1.4820755905511811
11
7.2297842125984246
21
-1.4835585433070866
0
LINE
8
BLACK
6
CONTINUOUS
10
5.5559919685039372
20
-4.5273532677165349
11
5.5545223228346456
21
-4.5309012992125988
0
LINE
8
BLACK
6
CONTINUOUS
10
5.5545223228346456
20
-4.5309012992125988
11
5.5518068110236216
21
-4.5336168110236219
0
LINE
8
BLACK
6
CONTINUOUS
10
5.5518068110236216
20
-4.5336168110236219
11
5.5482587795275586
21
-4.5350864566929134
0
LINE
8
BLACK
6
CONTINUOUS
10
5.5482587795275586
20
-4.5350864566929134
11
5.5444183858267717
21
-4.5350864566929134
0
LINE
8
BLACK
6
CONTINUOUS
10
5.5444183858267717
20
-4.5350864566929134
11
5.5408703543307087
21
-4.5336168110236219
0
LINE
8
BLACK
6
CONTINUOUS
10
5.5408703543307087
20
-4.5336168110236219
11
5.5381548425196847
21
-4.5309012992125988
0
LINE
8
BLACK
6
CONTINUOUS
10
5.5381548425196847
20
-4.5309012992125988
11
5.5366851968503932
21
-4.5273532677165349
0
LINE
8
BLACK
6
CONTINUOUS
10
5.5366851968503932
20
-4.5273532677165349
11
5.5364960629921258
21
-4.5254330708661419
0
LINE
8
BLACK
6
CONTINUOUS
10
5.5364960629921258
20
-4.5254330708661419
11
5.5364960629921258
21
-4.5096850393700789
0
LINE
8
BLACK
6
CONTINUOUS
10
5.5364960629921258
20
-4.5096850393700789
11
5.5366851968503932
21
-4.507764842519685
0
LINE
8
BLACK
6
CONTINUOUS
10
5.5366851968503932
20
-4.507764842519685
11
5.5381548425196847
21
-4.504216811023622
0
LINE
8
BLACK
6
CONTINUOUS
10
5.5381548425196847
20
-4.504216811023622
11
5.5408703543307087
21
-4.501501299212598
0
LINE
8
BLACK
6
CONTINUOUS
10
5.5408703543307087
20
-4.501501299212598
11
5.5444183858267717
21
-4.5000316535433074
0
LINE
8
BLACK
6
CONTINUOUS
10
5.5444183858267717
20
-4.5000316535433074
11
5.5482587795275586
21
-4.5000316535433074
0
LINE
8
BLACK
6
CONTINUOUS
10
5.5482587795275586
20
-4.5000316535433074
11
5.5518068110236216
21
-4.501501299212598
0
LINE
8
BLACK
6
CONTINUOUS
10
5.5518068110236216
20
-4.501501299212598
11
5.5545223228346456
21
-4.504216811023622
0
LINE
8
BLACK
6
CONTINUOUS
10
5.5545223228346456
20
-4.504216811023622
11
5.5559919685039372
21
-4.507764842519685
0
LINE
8
BLACK
6
CONTINUOUS
10
5.5559919685039372
20
-4.507764842519685
11
5.5561811023622045
21
-4.5096850393700789
0
LINE
8
BLACK
6
CONTINUOUS
10
5.5561811023622045
20
-4.5096850393700789
11
5.5561811023622045
21
-4.5254330708661419
0
LINE
8
BLACK
6
CONTINUOUS
10
5.5561811023622045
20
-4.5254330708661419
11
5.5559919685039372
21
-4.5273532677165349
0
LINE
8
BLACK
6
CONTINUOUS
10
5.7233148031496066
20
-4.5273532677165349
11
5.7218451574803151
21
-4.5309012992125988
0
LINE
8
BLACK
6
CONTINUOUS
10
5.7218451574803151
20
-4.5309012992125988
11
5.7191296456692911
21
-4.5336168110236219
0
LINE
8
BLACK
6
CONTINUOUS
10
5.7191296456692911
20
-4.5336168110236219
11
5.7155816141732281
21
-4.5350864566929134
0
LINE
8
BLACK
6
CONTINUOUS
10
5.7155816141732281
20
-4.5350864566929134
11
5.7117412204724411
21
-4.5350864566929134
0
LINE
8
BLACK
6
CONTINUOUS
10
5.7117412204724411
20
-4.5350864566929134
11
5.7081931889763782
21
-4.5336168110236219
0
LINE
8
BLACK
6
CONTINUOUS
10
5.7081931889763782
20
-4.5336168110236219
11
5.7054776771653541
21
-4.5309012992125988
0
LINE
8
BLACK
6
CONTINUOUS
10
5.7054776771653541
20
-4.5309012992125988
11
5.7040080314960626
21
-4.5273532677165349
0
LINE
8
BLACK
6
CONTINUOUS
10
5.7040080314960626
20
-4.5273532677165349
11
5.7038188976377953
21
-4.5254330708661419
0
LINE
8
BLACK
6
CONTINUOUS
10
5.7038188976377953
20
-4.5254330708661419
11
5.7038188976377953
21
-4.5096850393700789
0
LINE
8
BLACK
6
CONTINUOUS
10
5.7038188976377953
20
-4.5096850393700789
11
5.7040080314960626
21
-4.507764842519685
0
LINE
8
BLACK
6
CONTINUOUS
10
5.7040080314960626
20
-4.507764842519685
11
5.7054776771653541
21
-4.504216811023622
0
LINE
8
BLACK
6
CONTINUOUS
10
5.7054776771653541
20
-4.504216811023622
11
5.7081931889763782
21
-4.501501299212598
0
LINE
8
BLACK
6
CONTINUOUS
10
5.7081931889763782
20
-4.501501299212598
11
5.7117412204724411
21
-4.5000316535433074
0
LINE
8
BLACK
6
CONTINUOUS
10
5.7117412204724411
20
-4.5000316535433074
11
5.7155816141732281
21
-4.5000316535433074
0
LINE
8
BLACK
6
CONTINUOUS
10
5.7155816141732281
20
-4.5000316535433074
11
5.7191296456692911
21
-4.501501299212598
0
LINE
8
BLACK
6
CONTINUOUS
10
5.7191296456692911
20
-4.501501299212598
11
5.7218451574803151
21
-4.504216811023622
0
LINE
8
BLACK
6
CONTINUOUS
10
5.7218451574803151
20
-4.504216811023622
11
5.7233148031496066
21
-4.507764842519685
0
LINE
8
BLACK
6
CONTINUOUS
10
5.7233148031496066
20
-4.507764842519685
11
5.723503937007874
21
-4.5096850393700789
0
LINE
8
BLACK
6
CONTINUOUS
10
5.723503937007874
20
-4.5096850393700789
11
5.723503937007874
21
-4.5254330708661419
0
LINE
8
BLACK
6
CONTINUOUS
10
5.723503937007874
20
-4.5254330708661419
11
5.7233148031496066
21
-4.5273532677165349
0
CIRCLE
8
BLACK
10
3.4950000000000001
20
-3.4899999999999998
40
0.0068897637795276
0
CIRCLE
8
BLACK
10
3.8720574803149606
20
-4.583062204724409
40
0.0068897637795276
0
CIRCLE
8
BLACK
10
4.0996165354330705
20
-4.583062204724409
40
0.0068897637795276
0
LINE
8
BLACK
6
CONTINUOUS
10
3.8274682283464565
20
-4.7452337795275588
11
3.8266702362204725
21
-4.7482120078740158
0
LINE
8
BLACK
6
CONTINUOUS
10
3.8266702362204725
20
-4.7482120078740158
11
3.825128582677165
21
-4.7508822047244097
0
LINE
8
BLACK
6
CONTINUOUS
10
3.825128582677165
20
-4.7508822047244097
11
3.8229483464566929
21
-4.7530624409448814
0
LINE
8
BLACK
6
CONTINUOUS
10
3.8229483464566929
20
-4.7530624409448814
11
3.820278149606299
21
-4.7546040944881884
0
LINE
8
BLACK
6
CONTINUOUS
10
3.820278149606299
20
-4.7546040944881884
11
3.8172999212598424
21
-4.7554020866141729
0
LINE
8
BLACK
6
CONTINUOUS
10
3.8172999212598424
20
-4.7554020866141729
11
3.8142166141732283
21
-4.7554020866141729
0
LINE
8
BLACK
6
CONTINUOUS
10
3.8142166141732283
20
-4.7554020866141729
11
3.8112383858267718
21
-4.7546040944881884
0
LINE
8
BLACK
6
CONTINUOUS
10
3.8112383858267718
20
-4.7546040944881884
11
3.8085681889763778
21
-4.7530624409448814
0
LINE
8
BLACK
6
CONTINUOUS
10
3.8085681889763778
20
-4.7530624409448814
11
3.8063879527559052
21
-4.7508822047244097
0
LINE
8
BLACK
6
CONTINUOUS
10
3.8063879527559052
20
-4.7508822047244097
11
3.8048462992125982
21
-4.7482120078740158
0
LINE
8
BLACK
6
CONTINUOUS
10
3.8048462992125982
20
-4.7482120078740158
11
3.8040483070866142
21
-4.7452337795275588
0
LINE
8
BLACK
6
CONTINUOUS
10
3.8040483070866142
20
-4.7452337795275588
11
3.8039472440944881
21
-4.7436921259842517
0
LINE
8
BLACK
6
CONTINUOUS
10
3.8039472440944881
20
-4.7436921259842517
11
3.8039472440944881
21
-4.7121960629921258
0
LINE
8
BLACK
6
CONTINUOUS
10
3.8039472440944881
20
-4.7121960629921258
11
3.8040483070866142
21
-4.7106544094488187
0
LINE
8
BLACK
6
CONTINUOUS
10
3.8040483070866142
20
-4.7106544094488187
11
3.8048462992125982
21
-4.7076761811023617
0
LINE
8
BLACK
6
CONTINUOUS
10
3.8048462992125982
20
-4.7076761811023617
11
3.8063879527559052
21
-4.7050059842519687
0
LINE
8
BLACK
6
CONTINUOUS
10
3.8063879527559052
20
-4.7050059842519687
11
3.8085681889763778
21
-4.7028257480314961
0
LINE
8
BLACK
6
CONTINUOUS
10
3.8085681889763778
20
-4.7028257480314961
11
3.8112383858267718
21
-4.7012840944881891
0
LINE
8
BLACK
6
CONTINUOUS
10
3.8112383858267718
20
-4.7012840944881891
11
3.8142166141732283
21
-4.7004861023622047
0
LINE
8
BLACK
6
CONTINUOUS
10
3.8142166141732283
20
-4.7004861023622047
11
3.8172999212598424
21
-4.7004861023622047
0
LINE
8
BLACK
6
CONTINUOUS
10
3.8172999212598424
20
-4.7004861023622047
11
3.820278149606299
21
-4.7012840944881891
0
LINE
8
BLACK
6
CONTINUOUS
10
3.820278149606299
20
-4.7012840944881891
11
3.8229483464566929
21
-4.7028257480314961
0
LINE
8
BLACK
6
CONTINUOUS
10
3.8229483464566929
20
-4.7028257480314961
11
3.825128582677165
21
-4.7050059842519687
0
LINE
8
BLACK
6
CONTINUOUS
10
3.825128582677165
20
-4.7050059842519687
11
3.8266702362204725
21
-4.7076761811023617
0
LINE
8
BLACK
6
CONTINUOUS
10
3.8266702362204725
20
-4.7076761811023617
11
3.8274682283464565
21
-4.7106544094488187
0
LINE
8
BLACK
6
CONTINUOUS
10
3.8274682283464565
20
-4.7106544094488187
11
3.8275692913385826
21
-4.7121960629921258
0
LINE
8
BLACK
6
CONTINUOUS
10
3.8275692913385826
20
-4.7121960629921258
11
3.8275692913385826
21
-4.7436921259842517
0
LINE
8
BLACK
6
CONTINUOUS
10
3.8275692913385826
20
-4.7436921259842517
11
3.8274682283464565
21
-4.7452337795275588
0
LINE
8
BLACK
6
CONTINUOUS
10
4.1676257086614168
20
-4.7452337795275588
11
4.1668277165354333
21
-4.7482120078740158
0
LINE
8
BLACK
6
CONTINUOUS
10
4.1668277165354333
20
-4.7482120078740158
11
4.1652860629921262
21
-4.7508822047244097
0
LINE
8
BLACK
6
CONTINUOUS
10
4.1652860629921262
20
-4.7508822047244097
11
4.1631058267716536
21
-4.7530624409448814
0
LINE
8
BLACK
6
CONTINUOUS
10
4.1631058267716536
20
-4.7530624409448814
11
4.1604356299212597
21
-4.7546040944881884
0
LINE
8
BLACK
6
CONTINUOUS
10
4.1604356299212597
20
-4.7546040944881884
11
4.1574574015748027
21
-4.7554020866141729
0
LINE
8
BLACK
6
CONTINUOUS
10
4.1574574015748027
20
-4.7554020866141729
11
4.1543740944881886
21
-4.7554020866141729
0
LINE
8
BLACK
6
CONTINUOUS
10
4.1543740944881886
20
-4.7554020866141729
11
4.1513958661417325
21
-4.7546040944881884
0
LINE
8
BLACK
6
CONTINUOUS
10
4.1513958661417325
20
-4.7546040944881884
11
4.1487256692913386
21
-4.7530624409448814
0
LINE
8
BLACK
6
CONTINUOUS
10
4.1487256692913386
20
-4.7530624409448814
11
4.146545433070866
21
-4.7508822047244097
0
LINE
8
BLACK
6
CONTINUOUS
10
4.146545433070866
20
-4.7508822047244097
11
4.1450037795275589
21
-4.7482120078740158
0
LINE
8
BLACK
6
CONTINUOUS
10
4.1450037795275589
20
-4.7482120078740158
11
4.1442057874015745
21
-4.7452337795275588
0
LINE
8
BLACK
6
CONTINUOUS
10
4.1442057874015745
20
-4.7452337795275588
11
4.1441047244094484
21
-4.7436921259842517
0
LINE
8
BLACK
6
CONTINUOUS
10
4.1441047244094484
20
-4.7436921259842517
11
4.1441047244094484
21
-4.7121960629921258
0
LINE
8
BLACK
6
CONTINUOUS
10
4.1441047244094484
20
-4.7121960629921258
11
4.1442057874015745
21
-4.7106544094488187
0
LINE
8
BLACK
6
CONTINUOUS
10
4.1442057874015745
20
-4.7106544094488187
11
4.1450037795275589
21
-4.7076761811023617
0
LINE
8
BLACK
6
CONTINUOUS
10
4.1450037795275589
20
-4.7076761811023617
11
4.146545433070866
21
-4.7050059842519687
0
LINE
8
BLACK
6
CONTINUOUS
10
4.146545433070866
20
-4.7050059842519687
11
4.1487256692913386
21
-4.7028257480314961
0
LINE
8
BLACK
6
CONTINUOUS
10
4.1487256692913386
20
-4.7028257480314961
11
4.1513958661417325
21
-4.7012840944881891
0
LINE
8
BLACK
6
CONTINUOUS
10
4.1513958661417325
20
-4.7012840944881891
11
4.1543740944881886
21
-4.7004861023622047
0
LINE
8
BLACK
6
CONTINUOUS
10
4.1543740944881886
20
-4.7004861023622047
11
4.1574574015748027
21
-4.7004861023622047
0
LINE
8
BLACK
6
CONTINUOUS
10
4.1574574015748027
20
-4.7004861023622047
11
4.1604356299212597
21
-4.7012840944881891
0
LINE
8
BLACK
6
CONTINUOUS
10
4.1604356299212597
20
-4.7012840944881891
11
4.1631058267716536
21
-4.7028257480314961
0
LINE
8
BLACK
6
CONTINUOUS
10
4.1631058267716536
20
-4.7028257480314961
11
4.1652860629921262
21
-4.7050059842519687
0
LINE
8
BLACK
6
CONTINUOUS
10
4.1652860629921262
20
-4.7050059842519687
11
4.1668277165354333
21
-4.7076761811023617
0
LINE
8
BLACK
6
CONTINUOUS
10
4.1668277165354333
20
-4.7076761811023617
11
4.1676257086614168
21
-4.7106544094488187
0
LINE
8
BLACK
6
CONTINUOUS
10
4.1676257086614168
20
-4.7106544094488187
11
4.1677267716535429
21
-4.7121960629921258
0
LINE
8
BLACK
6
CONTINUOUS
10
4.1677267716535429
20
-4.7121960629921258
11
4.1677267716535429
21
-4.7436921259842517
0
LINE
8
BLACK
6
CONTINUOUS
10
4.1677267716535429
20
-4.7436921259842517
11
4.1676257086614168
21
-4.7452337795275588
0
LINE
8
BLACK
6
CONTINUOUS
10
3.8274682283464565
20
-4.5865723622047243
11
3.8266702362204725
21
-4.5895505905511813
0
LINE
8
BLACK
6
CONTINUOUS
10
3.8266702362204725
20
-4.5895505905511813
11
3.825128582677165
21
-4.5922207874015744
0
LINE
8
BLACK
6
CONTINUOUS
10
3.825128582677165
20
-4.5922207874015744
11
3.8229483464566929
21
-4.5944010236220469
0
LINE
8
BLACK
6
CONTINUOUS
10
3.8229483464566929
20
-4.5944010236220469
11
3.820278149606299
21
-4.595942677165354
0
LINE
8
BLACK
6
CONTINUOUS
10
3.820278149606299
20
-4.595942677165354
11
3.8172999212598424
21
-4.5967406692913384
0
LINE
8
BLACK
6
CONTINUOUS
10
3.8172999212598424
20
-4.5967406692913384
11
3.8142166141732283
21
-4.5967406692913384
0
LINE
8
BLACK
6
CONTINUOUS
10
3.8142166141732283
20
-4.5967406692913384
11
3.8112383858267718
21
-4.595942677165354
0
LINE
8
BLACK
6
CONTINUOUS
10
3.8112383858267718
20
-4.595942677165354
11
3.8085681889763778
21
-4.5944010236220469
0
LINE
8
BLACK
6
CONTINUOUS
10
3.8085681889763778
20
-4.5944010236220469
11
3.8063879527559052
21
-4.5922207874015744
0
LINE
8
BLACK
6
CONTINUOUS
10
3.8063879527559052
20
-4.5922207874015744
11
3.8048462992125982
21
-4.5895505905511813
0
LINE
8
BLACK
6
CONTINUOUS
10
3.8048462992125982
20
-4.5895505905511813
11
3.8040483070866142
21
-4.5865723622047243
0
LINE
8
BLACK
6
CONTINUOUS
10
3.8040483070866142
20
-4.5865723622047243
11
3.8039472440944881
21
-4.5850307086614173
0
LINE
8
BLACK
6
CONTINUOUS
10
3.8039472440944881
20
-4.5850307086614173
11
3.8039472440944881
21
-4.5417236220472441
0
LINE
8
BLACK
6
CONTINUOUS
10
3.8039472440944881
20
-4.5417236220472441
11
3.8040483070866142
21
-4.5401819685039371
0
LINE
8
BLACK
6
CONTINUOUS
10
3.8040483070866142
20
-4.5401819685039371
11
3.8048462992125982
21
-4.5372037401574801
0
LINE
8
BLACK
6
CONTINUOUS
10
3.8048462992125982
20
-4.5372037401574801
11
3.8063879527559052
21
-4.5345335433070861
0
LINE
8
BLACK
6
CONTINUOUS
10
3.8063879527559052
20
-4.5345335433070861
11
3.8085681889763778
21
-4.5323533070866144
0
LINE
8
BLACK
6
CONTINUOUS
10
3.8085681889763778
20
-4.5323533070866144
11
3.8112383858267718
21
-4.5308116535433074
0
LINE
8
BLACK
6
CONTINUOUS
10
3.8112383858267718
20
-4.5308116535433074
11
3.8142166141732283
21
-4.530013661417323
0
LINE
8
BLACK
6
CONTINUOUS
10
3.8142166141732283
20
-4.530013661417323
11
3.8172999212598424
21
-4.530013661417323
0
LINE
8
BLACK
6
CONTINUOUS
10
3.8172999212598424
20
-4.530013661417323
11
3.820278149606299
21
-4.5308116535433074
0
LINE
8
BLACK
6
CONTINUOUS
10
3.820278149606299
20
-4.5308116535433074
11
3.8229483464566929
21
-4.5323533070866144
0
LINE
8
BLACK
6
CONTINUOUS
10
3.8229483464566929
20
-4.5323533070866144
11
3.825128582677165
21
-4.5345335433070861
0
LINE
8
BLACK
6
CONTINUOUS
10
3.825128582677165
20
-4.5345335433070861
11
3.8266702362204725
21
-4.5372037401574801
0
LINE
8
BLACK
6
CONTINUOUS
10
3.8266702362204725
20
-4.5372037401574801
11
3.8274682283464565
21
-4.5401819685039371
0
LINE
8
BLACK
6
CONTINUOUS
10
3.8274682283464565
20
-4.5401819685039371
11
3.8275692913385826
21
-4.5417236220472441
0
LINE
8
BLACK
6
CONTINUOUS
10
3.8275692913385826
20
-4.5417236220472441
11
3.8275692913385826
21
-4.5850307086614173
0
LINE
8
BLACK
6
CONTINUOUS
10
3.8275692913385826
20
-4.5850307086614173
11
3.8274682283464565
21
-4.5865723622047243
0
LINE
8
BLACK
6
CONTINUOUS
10
4.1676257086614168
20
-4.5865723622047243
11
4.1668277165354333
21
-4.5895505905511813
0
LINE
8
BLACK
6
CONTINUOUS
10
4.1668277165354333
20
-4.5895505905511813
11
4.1652860629921262
21
-4.5922207874015744
0
LINE
8
BLACK
6
CONTINUOUS
10
4.1652860629921262
20
-4.5922207874015744
11
4.1631058267716536
21
-4.5944010236220469
0
LINE
8
BLACK
6
CONTINUOUS
10
4.1631058267716536
20
-4.5944010236220469
11
4.1604356299212597
21
-4.595942677165354
0
LINE
8
BLACK
6
CONTINUOUS
10
4.1604356299212597
20
-4.595942677165354
11
4.1574574015748027
21
-4.5967406692913384
0
LINE
8
BLACK
6
CONTINUOUS
10
4.1574574015748027
20
-4.5967406692913384
11
4.1543740944881886
21
-4.5967406692913384
0
LINE
8
BLACK
6
CONTINUOUS
10
4.1543740944881886
20
-4.5967406692913384
11
4.1513958661417325
21
-4.595942677165354
0
LINE
8
BLACK
6
CONTINUOUS
10
4.1513958661417325
20
-4.595942677165354
11
4.1487256692913386
21
-4.5944010236220469
0
LINE
8
BLACK
6
CONTINUOUS
10
4.1487256692913386
20
-4.5944010236220469
11
4.146545433070866
21
-4.5922207874015744
0
LINE
8
BLACK
6
CONTINUOUS
10
4.146545433070866
20
-4.5922207874015744
11
4.1450037795275589
21
-4.5895505905511813
0
LINE
8
BLACK
6
CONTINUOUS
10
4.1450037795275589
20
-4.5895505905511813
11
4.1442057874015745
21
-4.5865723622047243
0
LINE
8
BLACK
6
CONTINUOUS
10
4.1442057874015745
20
-4.5865723622047243
11
4.1441047244094484
21
-4.5850307086614173
0
LINE
8
BLACK
6
CONTINUOUS
10
4.1441047244094484
20
-4.5850307086614173
11
4.1441047244094484
21
-4.5417236220472441
0
LINE
8
BLACK
6
CONTINUOUS
10
4.1441047244094484
20
-4.5417236220472441
11
4.1442057874015745
21
-4.5401819685039371
0
LINE
8
BLACK
6
CONTINUOUS
10
4.1442057874015745
20
-4.5401819685039371
11
4.1450037795275589
21
-4.5372037401574801
0
LINE
8
BLACK
6
CONTINUOUS
10
4.1450037795275589
20
-4.5372037401574801
11
4.146545433070866
21
-4.5345335433070861
0
LINE
8
BLACK
6
CONTINUOUS
10
4.146545433070866
20
-4.5345335433070861
11
4.1487256692913386
21
-4.5323533070866144
0
LINE
8
BLACK
6
CONTINUOUS
10
4.1487256692913386
20
-4.5323533070866144
11
4.1513958661417325
21
-4.5308116535433074
0
LINE
8
BLACK
6
CONTINUOUS
10
4.1513958661417325
20
-4.5308116535433074
11
4.1543740944881886
21
-4.530013661417323
0
LINE
8
BLACK
6
CONTINUOUS
10
4.1543740944881886
20
-4.530013661417323
11
4.1574574015748027
21
-4.530013661417323
0
LINE
8
BLACK
6
CONTINUOUS
10
4.1574574015748027
20
-4.530013661417323
11
4.1604356299212597
21
-4.5308116535433074
0
LINE
8
BLACK
6
CONTINUOUS
10
4.1604356299212597
20
-4.5308116535433074
11
4.1631058267716536
21
-4.5323533070866144
0
LINE
8
BLACK
6
CONTINUOUS
10
4.1631058267716536
20
-4.5323533070866144
11
4.1652860629921262
21
-4.5345335433070861
0
LINE
8
BLACK
6
CONTINUOUS
10
4.1652860629921262
20
-4.5345335433070861
11
4.1668277165354333
21
-4.5372037401574801
0
LINE
8
BLACK
6
CONTINUOUS
10
4.1668277165354333
20
-4.5372037401574801
11
4.1676257086614168
21
-4.5401819685039371
0
LINE
8
BLACK
6
CONTINUOUS
10
4.1676257086614168
20
-4.5401819685039371
11
4.1677267716535429
21
-4.5417236220472441
0
LINE
8
BLACK
6
CONTINUOUS
10
4.1677267716535429
20
-4.5417236220472441
11
4.1677267716535429
21
-4.5850307086614173
0
LINE
8
BLACK
6
CONTINUOUS
10
4.1677267716535429
20
-4.5850307086614173
11
4.1676257086614168
21
-4.5865723622047243
0
CIRCLE
8
BLACK
10
3.48
20
-1.6099999999999999
40
0.0068897637795276
0
CIRCLE
8
BLACK
10
7.1899999999999995
20
-3.4699999999999998
40
0.0068897637795276
0
CIRCLE
8
BLACK
10
4.2976480314960632
20
-4.5779440944881893
40
0.0068897637795276
0
CIRCLE
8
BLACK
10
4.3976480314960629
20
-4.5779440944881893
40
0.0068897637795276
0
CIRCLE
8
BLACK
10
4.2976480314960632
20
-4.6779440944881889
40
0.0068897637795276
0
CIRCLE
8
BLACK
10
4.3976480314960629
20
-4.6779440944881889
40
0.0068897637795276
0
CIRCLE
8
BLACK
10
4.2976480314960632
20
-4.7779440944881886
40
0.0068897637795276
0
CIRCLE
8
BLACK
10
4.3976480314960629
20
-4.7779440944881886
40
0.0068897637795276
0
CIRCLE
8
BLACK
10
7.21
20
-1.5999999999999999
40
0.0068897637795276
0
CIRCLE
8
BLACK
10
4.1986614173228345
20
-2.2016535433070867
40
0.0068897637795276
0
CIRCLE
8
BLACK
10
4.1986614173228345
20
-2.9614960629921261
40
0.0068897637795276
0
CIRCLE
8
BLACK
10
6.3884251968503936
20
-2.2016535433070867
40
0.0068897637795276
0
CIRCLE
8
BLACK
10
6.3884251968503936
20
-2.9614960629921261
40
0.0068897637795276
0
CIRCLE
8
BLACK
10
3.8644094488188974
20
-2.2016535433070867
40
0.0068897637795276
0
CIRCLE
8
BLACK
10
6.7226771653543302
20
-2.2016535433070867
40
0.0068897637795276
0
CIRCLE
8
BLACK
10
3.8644094488188974
20
-2.9614960629921261
40
0.0068897637795276
0
CIRCLE
8
BLACK
10
6.7226771653543302
20
-2.9614960629921261
40
0.0068897637795276
0
CIRCLE
8
BLACK
10
4.54
20
-5.0249999999999995
40
0.0068897637795276
0
CIRCLE
8
BLACK
10
4.4399999999999995
20
-5.0249999999999995
40
0.0068897637795276
0
CIRCLE
8
BLACK
10
4.3399999999999999
20
-5.0249999999999995
40
0.0068897637795276
0
CIRCLE
8
BLACK
10
4.2400000000000002
20
-5.0249999999999995
40
0.0068897637795276
0
LINE
8
WHITE
6
CONTINUOUS
10
5.5364960629921258
20
-4.5096850393700789
11
5.5364960629921258
21
-4.5254330708661419
0
ARC
8
WHITE
10
5.5463385826771656
20
-4.5254330708661419
40
0.0098425196850394
50
-180.00000000
51
0.00000000
0
LINE
8
WHITE
6
CONTINUOUS
10
5.5561811023622045
20
-4.5254330708661419
11
5.5561811023622045
21
-4.5096850393700789
0
ARC
8
WHITE
10
5.5463385826771656
20
-4.5096850393700789
40
0.0098425196850394
50
0.00000000
51
180.00000000
0
LINE
8
WHITE
6
CONTINUOUS
10
5.7038188976377953
20
-4.5096850393700789
11
5.7038188976377953
21
-4.5254330708661419
0
ARC
8
WHITE
10
5.7136614173228342
20
-4.5254330708661419
40
0.0098425196850394
50
-180.00000000
51
0.00000000
0
LINE
8
WHITE
6
CONTINUOUS
10
5.723503937007874
20
-4.5254330708661419
11
5.723503937007874
21
-4.5096850393700789
0
ARC
8
WHITE
10
5.7136614173228342
20
-4.5096850393700789
40
0.0098425196850394
50
0.00000000
51
180.00000000
0
CIRCLE
8
WHITE
10
3.4950000000000001
20
-3.4899999999999998
40
0.0068897637795276
0
CIRCLE
8
WHITE
10
3.8720574803149606
20
-4.583062204724409
40
0.0068897637795276
0
CIRCLE
8
WHITE
10
4.0996165354330705
20
-4.583062204724409
40
0.0068897637795276
0
LINE
8
WHITE
6
CONTINUOUS
10
3.8039472440944881
20
-4.7121960629921258
11
3.8039472440944881
21
-4.7436921259842517
0
ARC
8
WHITE
10
3.8157582677165354
20
-4.7436921259842517
40
0.0118110236220472
50
-180.00000000
51
0.00000000
0
LINE
8
WHITE
6
CONTINUOUS
10
3.8275692913385826
20
-4.7436921259842517
11
3.8275692913385826
21
-4.7121960629921258
0
ARC
8
WHITE
10
3.8157582677165354
20
-4.7121960629921258
40
0.0118110236220472
50
0.00000000
51
180.00000000
0
LINE
8
WHITE
6
CONTINUOUS
10
4.1441047244094484
20
-4.7121960629921258
11
4.1441047244094484
21
-4.7436921259842517
0
ARC
8
WHITE
10
4.1559157480314957
20
-4.7436921259842517
40
0.0118110236220472
50
-180.00000000
51
0.00000000
0
LINE
8
WHITE
6
CONTINUOUS
10
4.1677267716535429
20
-4.7436921259842517
11
4.1677267716535429
21
-4.7121960629921258
0
ARC
8
WHITE
10
4.1559157480314957
20
-4.7121960629921258
40
0.0118110236220472
50
0.00000000
51
180.00000000
0
LINE
8
WHITE
6
CONTINUOUS
10
3.8039472440944881
20
-4.5417236220472441
11
3.8039472440944881
21
-4.5850307086614173
0
ARC
8
WHITE
10
3.8157582677165354
20
-4.5850307086614173
40
0.0118110236220472
50
-180.00000000
51
0.00000000
0
LINE
8
WHITE
6
CONTINUOUS
10
3.8275692913385826
20
-4.5850307086614173
11
3.8275692913385826
21
-4.5417236220472441
0
ARC
8
WHITE
10
3.8157582677165354
20
-4.5417236220472441
40
0.0118110236220472
50
0.00000000
51
180.00000000
0
LINE
8
WHITE
6
CONTINUOUS
10
4.1441047244094484
20
-4.5417236220472441
11
4.1441047244094484
21
-4.5850307086614173
0
ARC
8
WHITE
10
4.1559157480314957
20
-4.5850307086614173
40
0.0118110236220472
50
-180.00000000
51
0.00000000
0
LINE
8
WHITE
6
CONTINUOUS
10
4.1677267716535429
20
-4.5850307086614173
11
4.1677267716535429
21
-4.5417236220472441
0
ARC
8
WHITE
10
4.1559157480314957
20
-4.5417236220472441
40
0.0118110236220472
50
0.00000000
51
180.00000000
0
CIRCLE
8
WHITE
10
3.48
20
-1.6099999999999999
40
0.0068897637795276
0
CIRCLE
8
WHITE
10
7.1899999999999995
20
-3.4699999999999998
40
0.0068897637795276
0
CIRCLE
8
WHITE
10
4.2976480314960632
20
-4.5779440944881893
40
0.0068897637795276
0
CIRCLE
8
WHITE
10
4.3976480314960629
20
-4.5779440944881893
40
0.0068897637795276
0
CIRCLE
8
WHITE
10
4.2976480314960632
20
-4.6779440944881889
40
0.0068897637795276
0
CIRCLE
8
WHITE
10
4.3976480314960629
20
-4.6779440944881889
40
0.0068897637795276
0
CIRCLE
8
WHITE
10
4.2976480314960632
20
-4.7779440944881886
40
0.0068897637795276
0
CIRCLE
8
WHITE
10
4.3976480314960629
20
-4.7779440944881886
40
0.0068897637795276
0
CIRCLE
8
WHITE
10
7.21
20
-1.5999999999999999
40
0.0068897637795276
0
CIRCLE
8
WHITE
10
4.1986614173228345
20
-2.2016535433070867
40
0.0068897637795276
0
CIRCLE
8
WHITE
10
4.1986614173228345
20
-2.9614960629921261
40
0.0068897637795276
0
CIRCLE
8
WHITE
10
6.3884251968503936
20
-2.2016535433070867
40
0.0068897637795276
0
CIRCLE
8
WHITE
10
6.3884251968503936
20
-2.9614960629921261
40
0.0068897637795276
0
CIRCLE
8
WHITE
10
3.8644094488188974
20
-2.2016535433070867
40
0.0068897637795276
0
CIRCLE
8
WHITE
10
6.7226771653543302
20
-2.2016535433070867
40
0.0068897637795276
0
CIRCLE
8
WHITE
10
3.8644094488188974
20
-2.9614960629921261
40
0.0068897637795276
0
CIRCLE
8
WHITE
10
6.7226771653543302
20
-2.9614960629921261
40
0.0068897637795276
0
CIRCLE
8
WHITE
10
4.54
20
-5.0249999999999995
40
0.0068897637795276
0
CIRCLE
8
WHITE
10
4.4399999999999995
20
-5.0249999999999995
40
0.0068897637795276
0
CIRCLE
8
WHITE
10
4.3399999999999999
20
-5.0249999999999995
40
0.0068897637795276
0
CIRCLE
8
WHITE
10
4.2400000000000002
20
-5.0249999999999995
40
0.0068897637795276
  0
ENDSEC
  0
EOF
