  0
SECTION
  2
HEADER
  9
$ANGBASE
  50
0.0
  9
$ANGDIR
  70
1
  9
$MEASUREMENT
  70
0
  9
$INSUNITS
  70
1
  0
ENDSEC
  0
SECTION
  2
TABLES
  0
TABLE
  2
LTYPE
  70
4
  0
LTYPE
  5
40F
  2
CONTINUOUS
  70
0
  3
Solid line
  72
65
  73
0
  40
0.0
  0
LTYPE
  5
410
  2
DASHDOT
 70
0
  3
Dash Dot ____ _ ____ _
 72
65
 73
4
 40
2.0
 49
1.25
 49
-0.25
 49
0.25
 49
-0.25
  0
LTYPE
  5
411
  2
DASHED
 70
0
  3
Dashed __ __ __ __ __
 72
65
 73
2
 40
0.75
 49
0.5
 49
-0.25
  0
LTYPE
  5
43B
  2
DOTTED
 70
0
  3
Dotted .  .  .  .
 72
65
 73
2
 40
0.2
 49
0.0
 49
-0.2
  0
ENDTAB
  0
TABLE
  2
STYLE
  70
4
  0
STYLE
  2
KICAD
  70
0
  40
0
  41
1
  42
1
  50
0
  71
0
  3
isocp.shx
  0
STYLE
  2
KICADB
  70
0
  40
0
  41
1
  42
1
  50
0
  71
0
  3
isocp.shx
  0
STYLE
  2
KICADI
  70
0
  40
0
  41
1
  42
1
  50
15
  71
0
  3
isocp.shx
  0
STYLE
  2
KICADBI
  70
0
  40
0
  41
1
  42
1
  50
15
  71
0
  3
isocp.shx
  0
ENDTAB
  0
TABLE
  2
LAYER
  70
1
  0
LAYER
  2
BLACK
  70
0
  62
250
  6
CONTINUOUS
  0
ENDTAB
  0
ENDSEC
  0
SECTION
  2
ENTITIES
0
LINE
8
BLACK
6
CONTINUOUS
10
5.8428963385826771
20
-5.147515866141732
11
5.8434290157480318
21
-5.1480485433070866
0
LINE
8
BLACK
6
CONTINUOUS
10
5.8434290157480318
20
-5.1480485433070866
11
5.8435039370078741
21
-5.1484251968503933
0
LINE
8
BLACK
6
CONTINUOUS
10
5.8435039370078741
20
-5.1484251968503933
11
5.8435039370078741
21
-5.2255905511811021
0
LINE
8
BLACK
6
CONTINUOUS
10
5.8435039370078741
20
-5.2255905511811021
11
5.8434290157480318
21
-5.2259672047244097
0
LINE
8
BLACK
6
CONTINUOUS
10
5.8434290157480318
20
-5.2259672047244097
11
5.8428963385826771
21
-5.2264998818897634
0
LINE
8
BLACK
6
CONTINUOUS
10
5.8428963385826771
20
-5.2264998818897634
11
5.8425196850393704
21
-5.2265748031496058
0
LINE
8
BLACK
6
CONTINUOUS
10
5.8425196850393704
20
-5.2265748031496058
11
5.7086614173228343
21
-5.2265748031496058
0
LINE
8
BLACK
6
CONTINUOUS
10
5.7086614173228343
20
-5.2265748031496058
11
5.7082847637795275
21
-5.2264998818897634
0
LINE
8
BLACK
6
CONTINUOUS
10
5.7082847637795275
20
-5.2264998818897634
11
5.7077520866141729
21
-5.2259672047244097
0
LINE
8
BLACK
6
CONTINUOUS
10
5.7077520866141729
20
-5.2259672047244097
11
5.7076771653543306
21
-5.2255905511811021
0
LINE
8
BLACK
6
CONTINUOUS
10
5.7076771653543306
20
-5.2255905511811021
11
5.7076771653543306
21
-5.1484251968503933
0
LINE
8
BLACK
6
CONTINUOUS
10
5.7076771653543306
20
-5.1484251968503933
11
5.7077520866141729
21
-5.1480485433070866
0
LINE
8
BLACK
6
CONTINUOUS
10
5.7077520866141729
20
-5.1480485433070866
11
5.7082847637795275
21
-5.147515866141732
0
LINE
8
BLACK
6
CONTINUOUS
10
5.7082847637795275
20
-5.147515866141732
11
5.7086614173228343
21
-5.1474409448818896
0
LINE
8
BLACK
6
CONTINUOUS
10
5.7086614173228343
20
-5.1474409448818896
11
5.8425196850393704
21
-5.1474409448818896
0
LINE
8
BLACK
6
CONTINUOUS
10
5.8425196850393704
20
-5.1474409448818896
11
5.8428963385826771
21
-5.147515866141732
0
LINE
8
BLACK
6
CONTINUOUS
10
5.7096456692913389
20
-5.1494094488188979
11
5.7096456692913389
21
-5.2246062992125983
0
LINE
8
BLACK
6
CONTINUOUS
10
5.7096456692913389
20
-5.2246062992125983
11
5.8415354330708658
21
-5.2246062992125983
0
LINE
8
BLACK
6
CONTINUOUS
10
5.8415354330708658
20
-5.2246062992125983
11
5.8415354330708658
21
-5.1494094488188979
0
LINE
8
BLACK
6
CONTINUOUS
10
5.8415354330708658
20
-5.1494094488188979
11
5.7096456692913389
21
-5.1494094488188979
0
LINE
8
BLACK
6
CONTINUOUS
10
5.9098254724409447
20
-4.8376733464566932
11
5.9103581496062993
21
-4.838206023622047
0
LINE
8
BLACK
6
CONTINUOUS
10
5.9103581496062993
20
-4.838206023622047
11
5.9104330708661417
21
-4.8385826771653546
0
LINE
8
BLACK
6
CONTINUOUS
10
5.9104330708661417
20
-4.8385826771653546
11
5.9104330708661417
21
-4.8927165354330704
0
LINE
8
BLACK
6
CONTINUOUS
10
5.9104330708661417
20
-4.8927165354330704
11
5.9232283464566926
21
-4.8927165354330704
0
LINE
8
BLACK
6
CONTINUOUS
10
5.9232283464566926
20
-4.8927165354330704
11
5.9236050000000002
21
-4.8927914566929136
0
LINE
8
BLACK
6
CONTINUOUS
10
5.9236050000000002
20
-4.8927914566929136
11
5.924137677165354
21
-4.8933241338582674
0
LINE
8
BLACK
6
CONTINUOUS
10
5.924137677165354
20
-4.8933241338582674
11
5.9242125984251963
21
-4.893700787401575
0
LINE
8
BLACK
6
CONTINUOUS
10
5.9242125984251963
20
-4.893700787401575
11
5.9242125984251963
21
-5.0866141732283463
0
LINE
8
BLACK
6
CONTINUOUS
10
5.9242125984251963
20
-5.0866141732283463
11
5.924137677165354
21
-5.086990826771653
0
LINE
8
BLACK
6
CONTINUOUS
10
5.924137677165354
20
-5.086990826771653
11
5.9236050000000002
21
-5.0875235039370077
0
LINE
8
BLACK
6
CONTINUOUS
10
5.9236050000000002
20
-5.0875235039370077
11
5.9232283464566926
21
-5.08759842519685
0
LINE
8
BLACK
6
CONTINUOUS
10
5.9232283464566926
20
-5.08759842519685
11
5.9104330708661417
21
-5.08759842519685
0
LINE
8
BLACK
6
CONTINUOUS
10
5.9104330708661417
20
-5.08759842519685
11
5.9104330708661417
21
-5.1417322834645667
0
LINE
8
BLACK
6
CONTINUOUS
10
5.9104330708661417
20
-5.1417322834645667
11
5.9103581496062993
21
-5.1421089370078743
0
LINE
8
BLACK
6
CONTINUOUS
10
5.9103581496062993
20
-5.1421089370078743
11
5.9098254724409447
21
-5.1426416141732281
0
LINE
8
BLACK
6
CONTINUOUS
10
5.9098254724409447
20
-5.1426416141732281
11
5.909448818897638
21
-5.1427165354330704
0
LINE
8
BLACK
6
CONTINUOUS
10
5.909448818897638
20
-5.1427165354330704
11
5.7204724409448815
21
-5.1427165354330704
0
LINE
8
BLACK
6
CONTINUOUS
10
5.7204724409448815
20
-5.1427165354330704
11
5.7200957874015748
21
-5.1426416141732281
0
LINE
8
BLACK
6
CONTINUOUS
10
5.7200957874015748
20
-5.1426416141732281
11
5.7195631102362201
21
-5.1421089370078743
0
LINE
8
BLACK
6
CONTINUOUS
10
5.7195631102362201
20
-5.1421089370078743
11
5.7194881889763778
21
-5.1417322834645667
0
LINE
8
BLACK
6
CONTINUOUS
10
5.7194881889763778
20
-5.1417322834645667
11
5.7194881889763778
21
-5.08759842519685
0
LINE
8
BLACK
6
CONTINUOUS
10
5.7194881889763778
20
-5.08759842519685
11
5.7066929133858268
21
-5.08759842519685
0
LINE
8
BLACK
6
CONTINUOUS
10
5.7066929133858268
20
-5.08759842519685
11
5.7063162598425192
21
-5.0875235039370077
0
LINE
8
BLACK
6
CONTINUOUS
10
5.7063162598425192
20
-5.0875235039370077
11
5.7057835826771655
21
-5.086990826771653
0
LINE
8
BLACK
6
CONTINUOUS
10
5.7057835826771655
20
-5.086990826771653
11
5.7057086614173231
21
-5.0866141732283463
0
LINE
8
BLACK
6
CONTINUOUS
10
5.7057086614173231
20
-5.0866141732283463
11
5.7057086614173231
21
-4.893700787401575
0
LINE
8
BLACK
6
CONTINUOUS
10
5.7057086614173231
20
-4.893700787401575
11
5.7057835826771655
21
-4.8933241338582674
0
LINE
8
BLACK
6
CONTINUOUS
10
5.7057835826771655
20
-4.8933241338582674
11
5.7063162598425192
21
-4.8927914566929136
0
LINE
8
BLACK
6
CONTINUOUS
10
5.7063162598425192
20
-4.8927914566929136
11
5.7066929133858268
21
-4.8927165354330704
0
LINE
8
BLACK
6
CONTINUOUS
10
5.7066929133858268
20
-4.8927165354330704
11
5.7194881889763778
21
-4.8927165354330704
0
LINE
8
BLACK
6
CONTINUOUS
10
5.7194881889763778
20
-4.8927165354330704
11
5.7194881889763778
21
-4.8385826771653546
0
LINE
8
BLACK
6
CONTINUOUS
10
5.7194881889763778
20
-4.8385826771653546
11
5.7195631102362201
21
-4.838206023622047
0
LINE
8
BLACK
6
CONTINUOUS
10
5.7195631102362201
20
-4.838206023622047
11
5.7200957874015748
21
-4.8376733464566932
0
LINE
8
BLACK
6
CONTINUOUS
10
5.7200957874015748
20
-4.8376733464566932
11
5.7204724409448815
21
-4.83759842519685
0
LINE
8
BLACK
6
CONTINUOUS
10
5.7204724409448815
20
-4.83759842519685
11
5.909448818897638
21
-4.83759842519685
0
LINE
8
BLACK
6
CONTINUOUS
10
5.909448818897638
20
-4.83759842519685
11
5.9098254724409447
21
-4.8376733464566932
0
LINE
8
BLACK
6
CONTINUOUS
10
5.7214566929133861
20
-4.8395669291338583
11
5.7214566929133861
21
-4.893700787401575
0
LINE
8
BLACK
6
CONTINUOUS
10
5.7214566929133861
20
-4.893700787401575
11
5.7213817716535429
21
-4.8940774409448817
0
LINE
8
BLACK
6
CONTINUOUS
10
5.7213817716535429
20
-4.8940774409448817
11
5.7208490944881891
21
-4.8946101181102364
0
LINE
8
BLACK
6
CONTINUOUS
10
5.7208490944881891
20
-4.8946101181102364
11
5.7204724409448815
21
-4.8946850393700787
0
LINE
8
BLACK
6
CONTINUOUS
10
5.7204724409448815
20
-4.8946850393700787
11
5.7076771653543306
21
-4.8946850393700787
0
LINE
8
BLACK
6
CONTINUOUS
10
5.7076771653543306
20
-4.8946850393700787
11
5.7076771653543306
21
-5.0856299212598426
0
LINE
8
BLACK
6
CONTINUOUS
10
5.7076771653543306
20
-5.0856299212598426
11
5.7204724409448815
21
-5.0856299212598426
0
LINE
8
BLACK
6
CONTINUOUS
10
5.7204724409448815
20
-5.0856299212598426
11
5.7208490944881891
21
-5.0857048425196849
0
LINE
8
BLACK
6
CONTINUOUS
10
5.7208490944881891
20
-5.0857048425196849
11
5.7213817716535429
21
-5.0862375196850396
0
LINE
8
BLACK
6
CONTINUOUS
10
5.7213817716535429
20
-5.0862375196850396
11
5.7214566929133861
21
-5.0866141732283463
0
LINE
8
BLACK
6
CONTINUOUS
10
5.7214566929133861
20
-5.0866141732283463
11
5.7214566929133861
21
-5.140748031496063
0
LINE
8
BLACK
6
CONTINUOUS
10
5.7214566929133861
20
-5.140748031496063
11
5.9084645669291334
21
-5.140748031496063
0
LINE
8
BLACK
6
CONTINUOUS
10
5.9084645669291334
20
-5.140748031496063
11
5.9084645669291334
21
-5.0866141732283463
0
LINE
8
BLACK
6
CONTINUOUS
10
5.9084645669291334
20
-5.0866141732283463
11
5.9085394881889766
21
-5.0862375196850396
0
LINE
8
BLACK
6
CONTINUOUS
10
5.9085394881889766
20
-5.0862375196850396
11
5.9090721653543303
21
-5.0857048425196849
0
LINE
8
BLACK
6
CONTINUOUS
10
5.9090721653543303
20
-5.0857048425196849
11
5.909448818897638
21
-5.0856299212598426
0
LINE
8
BLACK
6
CONTINUOUS
10
5.909448818897638
20
-5.0856299212598426
11
5.9222440944881889
21
-5.0856299212598426
0
LINE
8
BLACK
6
CONTINUOUS
10
5.9222440944881889
20
-5.0856299212598426
11
5.9222440944881889
21
-4.8946850393700787
0
LINE
8
BLACK
6
CONTINUOUS
10
5.9222440944881889
20
-4.8946850393700787
11
5.909448818897638
21
-4.8946850393700787
0
LINE
8
BLACK
6
CONTINUOUS
10
5.909448818897638
20
-4.8946850393700787
11
5.9090721653543303
21
-4.8946101181102364
0
LINE
8
BLACK
6
CONTINUOUS
10
5.9090721653543303
20
-4.8946101181102364
11
5.9085394881889766
21
-4.8940774409448817
0
LINE
8
BLACK
6
CONTINUOUS
10
5.9085394881889766
20
-4.8940774409448817
11
5.9084645669291334
21
-4.893700787401575
0
LINE
8
BLACK
6
CONTINUOUS
10
5.9084645669291334
20
-4.893700787401575
11
5.9084645669291334
21
-4.8395669291338583
0
LINE
8
BLACK
6
CONTINUOUS
10
5.9084645669291334
20
-4.8395669291338583
11
5.7214566929133861
21
-4.8395669291338583
0
LINE
8
BLACK
6
CONTINUOUS
10
2.9117939763779526
20
-4.534130039370079
11
2.9123266535433072
21
-4.5346627165354327
0
LINE
8
BLACK
6
CONTINUOUS
10
2.9123266535433072
20
-4.5346627165354327
11
2.9124015748031495
21
-4.5350393700787404
0
LINE
8
BLACK
6
CONTINUOUS
10
2.9124015748031495
20
-4.5350393700787404
11
2.9124015748031495
21
-4.6122047244094491
0
LINE
8
BLACK
6
CONTINUOUS
10
2.9124015748031495
20
-4.6122047244094491
11
2.9123266535433072
21
-4.6125813779527558
0
LINE
8
BLACK
6
CONTINUOUS
10
2.9123266535433072
20
-4.6125813779527558
11
2.9119159055118109
21
-4.6129921259842517
0
LINE
8
BLACK
6
CONTINUOUS
10
2.9119159055118109
20
-4.6129921259842517
11
2.9123266535433072
21
-4.6134028740157476
0
LINE
8
BLACK
6
CONTINUOUS
10
2.9123266535433072
20
-4.6134028740157476
11
2.9124015748031495
21
-4.6137795275590552
0
LINE
8
BLACK
6
CONTINUOUS
10
2.9124015748031495
20
-4.6137795275590552
11
2.9124015748031495
21
-4.6909448818897639
0
LINE
8
BLACK
6
CONTINUOUS
10
2.9124015748031495
20
-4.6909448818897639
11
2.9123266535433072
21
-4.6913215354330706
0
LINE
8
BLACK
6
CONTINUOUS
10
2.9123266535433072
20
-4.6913215354330706
11
2.9117939763779526
21
-4.6918542125984253
0
LINE
8
BLACK
6
CONTINUOUS
10
2.9117939763779526
20
-4.6918542125984253
11
2.9114173228346454
21
-4.6919291338582676
0
LINE
8
BLACK
6
CONTINUOUS
10
2.9114173228346454
20
-4.6919291338582676
11
2.7775590551181102
21
-4.6919291338582676
0
LINE
8
BLACK
6
CONTINUOUS
10
2.7775590551181102
20
-4.6919291338582676
11
2.777182401574803
21
-4.6918542125984253
0
LINE
8
BLACK
6
CONTINUOUS
10
2.777182401574803
20
-4.6918542125984253
11
2.7766497244094488
21
-4.6913215354330706
0
LINE
8
BLACK
6
CONTINUOUS
10
2.7766497244094488
20
-4.6913215354330706
11
2.776574803149606
21
-4.6909448818897639
0
LINE
8
BLACK
6
CONTINUOUS
10
2.776574803149606
20
-4.6909448818897639
11
2.776574803149606
21
-4.6137795275590552
0
LINE
8
BLACK
6
CONTINUOUS
10
2.776574803149606
20
-4.6137795275590552
11
2.7766497244094488
21
-4.6134028740157476
0
LINE
8
BLACK
6
CONTINUOUS
10
2.7766497244094488
20
-4.6134028740157476
11
2.7770604724409447
21
-4.6129921259842517
0
LINE
8
BLACK
6
CONTINUOUS
10
2.7770604724409447
20
-4.6129921259842517
11
2.7766497244094488
21
-4.6125813779527558
0
LINE
8
BLACK
6
CONTINUOUS
10
2.7766497244094488
20
-4.6125813779527558
11
2.776574803149606
21
-4.6122047244094491
0
LINE
8
BLACK
6
CONTINUOUS
10
2.776574803149606
20
-4.6122047244094491
11
2.776574803149606
21
-4.5350393700787404
0
LINE
8
BLACK
6
CONTINUOUS
10
2.776574803149606
20
-4.5350393700787404
11
2.7766497244094488
21
-4.5346627165354327
0
LINE
8
BLACK
6
CONTINUOUS
10
2.7766497244094488
20
-4.5346627165354327
11
2.777182401574803
21
-4.534130039370079
0
LINE
8
BLACK
6
CONTINUOUS
10
2.777182401574803
20
-4.534130039370079
11
2.7775590551181102
21
-4.5340551181102358
0
LINE
8
BLACK
6
CONTINUOUS
10
2.7775590551181102
20
-4.5340551181102358
11
2.9114173228346454
21
-4.5340551181102358
0
LINE
8
BLACK
6
CONTINUOUS
10
2.9114173228346454
20
-4.5340551181102358
11
2.9117939763779526
21
-4.534130039370079
0
LINE
8
BLACK
6
CONTINUOUS
10
2.7785433070866139
20
-4.6147637795275589
11
2.7785433070866139
21
-4.6899606299212602
0
LINE
8
BLACK
6
CONTINUOUS
10
2.7785433070866139
20
-4.6899606299212602
11
2.9104330708661417
21
-4.6899606299212602
0
LINE
8
BLACK
6
CONTINUOUS
10
2.9104330708661417
20
-4.6899606299212602
11
2.9104330708661417
21
-4.6147637795275589
0
LINE
8
BLACK
6
CONTINUOUS
10
2.9104330708661417
20
-4.6147637795275589
11
2.7785433070866139
21
-4.6147637795275589
0
LINE
8
BLACK
6
CONTINUOUS
10
2.7785433070866139
20
-4.5360236220472441
11
2.7785433070866139
21
-4.6112204724409445
0
LINE
8
BLACK
6
CONTINUOUS
10
2.7785433070866139
20
-4.6112204724409445
11
2.9104330708661417
21
-4.6112204724409445
0
LINE
8
BLACK
6
CONTINUOUS
10
2.9104330708661417
20
-4.6112204724409445
11
2.9104330708661417
21
-4.5360236220472441
0
LINE
8
BLACK
6
CONTINUOUS
10
2.9104330708661417
20
-4.5360236220472441
11
2.7785433070866139
21
-4.5360236220472441
0
LINE
8
BLACK
6
CONTINUOUS
10
3.7746062992125982
20
-4.3839169685039368
11
3.7749015748031494
21
-4.3838582677165352
0
LINE
8
BLACK
6
CONTINUOUS
10
3.7749015748031494
20
-4.3838582677165352
11
3.9071850393700784
21
-4.3838582677165352
0
LINE
8
BLACK
6
CONTINUOUS
10
3.9071850393700784
20
-4.3838582677165352
11
3.9075616929133856
21
-4.3839331889763775
0
LINE
8
BLACK
6
CONTINUOUS
10
3.9075616929133856
20
-4.3839331889763775
11
3.9080943700787403
21
-4.3844658661417322
0
LINE
8
BLACK
6
CONTINUOUS
10
3.9080943700787403
20
-4.3844658661417322
11
3.9081692913385826
21
-4.3848425196850389
0
LINE
8
BLACK
6
CONTINUOUS
10
3.9081692913385826
20
-4.3848425196850389
11
3.9081692913385826
21
-4.4596456692913389
0
LINE
8
BLACK
6
CONTINUOUS
10
3.9081692913385826
20
-4.4596456692913389
11
3.9080943700787403
21
-4.4600223228346456
0
LINE
8
BLACK
6
CONTINUOUS
10
3.9080943700787403
20
-4.4600223228346456
11
3.9075616929133856
21
-4.4605550000000003
0
LINE
8
BLACK
6
CONTINUOUS
10
3.9075616929133856
20
-4.4605550000000003
11
3.9071850393700784
21
-4.4606299212598426
0
LINE
8
BLACK
6
CONTINUOUS
10
3.9071850393700784
20
-4.4606299212598426
11
3.776574803149606
21
-4.4606299212598426
0
LINE
8
BLACK
6
CONTINUOUS
10
3.776574803149606
20
-4.4606299212598426
11
3.776574803149606
21
-4.5375984251968502
0
LINE
8
BLACK
6
CONTINUOUS
10
3.776574803149606
20
-4.5375984251968502
11
3.7765160629921257
21
-4.5378937007874018
0
LINE
8
BLACK
6
CONTINUOUS
10
3.7765160629921257
20
-4.5378937007874018
11
3.776574803149606
21
-4.5381889763779526
0
LINE
8
BLACK
6
CONTINUOUS
10
3.776574803149606
20
-4.5381889763779526
11
3.776574803149606
21
-4.6153543307086613
0
LINE
8
BLACK
6
CONTINUOUS
10
3.776574803149606
20
-4.6153543307086613
11
3.7764998818897637
21
-4.615730984251968
0
LINE
8
BLACK
6
CONTINUOUS
10
3.7764998818897637
20
-4.615730984251968
11
3.7759672047244095
21
-4.6162636614173227
0
LINE
8
BLACK
6
CONTINUOUS
10
3.7759672047244095
20
-4.6162636614173227
11
3.7755905511811023
21
-4.616338582677165
0
LINE
8
BLACK
6
CONTINUOUS
10
3.7755905511811023
20
-4.616338582677165
11
3.6417322834645667
21
-4.616338582677165
0
LINE
8
BLACK
6
CONTINUOUS
10
3.6417322834645667
20
-4.616338582677165
11
3.6413556299212599
21
-4.6162636614173227
0
LINE
8
BLACK
6
CONTINUOUS
10
3.6413556299212599
20
-4.6162636614173227
11
3.6408229527559053
21
-4.615730984251968
0
LINE
8
BLACK
6
CONTINUOUS
10
3.6408229527559053
20
-4.615730984251968
11
3.640748031496063
21
-4.6153543307086613
0
LINE
8
BLACK
6
CONTINUOUS
10
3.640748031496063
20
-4.6153543307086613
11
3.640748031496063
21
-4.5381889763779526
0
LINE
8
BLACK
6
CONTINUOUS
10
3.640748031496063
20
-4.5381889763779526
11
3.6408067322834645
21
-4.5378937007874018
0
LINE
8
BLACK
6
CONTINUOUS
10
3.6408067322834645
20
-4.5378937007874018
11
3.640748031496063
21
-4.5375984251968502
0
LINE
8
BLACK
6
CONTINUOUS
10
3.640748031496063
20
-4.5375984251968502
11
3.640748031496063
21
-4.4604330708661415
0
LINE
8
BLACK
6
CONTINUOUS
10
3.640748031496063
20
-4.4604330708661415
11
3.6408229527559053
21
-4.4600564173228348
0
LINE
8
BLACK
6
CONTINUOUS
10
3.6408229527559053
20
-4.4600564173228348
11
3.6410748818897636
21
-4.4598044488188977
0
LINE
8
BLACK
6
CONTINUOUS
10
3.6410748818897636
20
-4.4598044488188977
11
3.6410433070866142
21
-4.4596456692913389
0
LINE
8
BLACK
6
CONTINUOUS
10
3.6410433070866142
20
-4.4596456692913389
11
3.6410433070866142
21
-4.3848425196850389
0
LINE
8
BLACK
6
CONTINUOUS
10
3.6410433070866142
20
-4.3848425196850389
11
3.6411182283464565
21
-4.3844658661417322
0
LINE
8
BLACK
6
CONTINUOUS
10
3.6411182283464565
20
-4.3844658661417322
11
3.6416509055118111
21
-4.3839331889763775
0
LINE
8
BLACK
6
CONTINUOUS
10
3.6416509055118111
20
-4.3839331889763775
11
3.6420275590551179
21
-4.3838582677165352
0
LINE
8
BLACK
6
CONTINUOUS
10
3.6420275590551179
20
-4.3838582677165352
11
3.774311023622047
21
-4.3838582677165352
0
LINE
8
BLACK
6
CONTINUOUS
10
3.774311023622047
20
-4.3838582677165352
11
3.7746062992125982
21
-4.3839169685039368
0
LINE
8
BLACK
6
CONTINUOUS
10
3.6427165354330708
20
-4.5391732283464563
11
3.6427165354330708
21
-4.6143700787401576
0
LINE
8
BLACK
6
CONTINUOUS
10
3.6427165354330708
20
-4.6143700787401576
11
3.7746062992125982
21
-4.6143700787401576
0
LINE
8
BLACK
6
CONTINUOUS
10
3.7746062992125982
20
-4.6143700787401576
11
3.7746062992125982
21
-4.5391732283464563
0
LINE
8
BLACK
6
CONTINUOUS
10
3.7746062992125982
20
-4.5391732283464563
11
3.6427165354330708
21
-4.5391732283464563
0
LINE
8
BLACK
6
CONTINUOUS
10
3.6427165354330708
20
-4.4614173228346452
11
3.6427165354330708
21
-4.5366141732283465
0
LINE
8
BLACK
6
CONTINUOUS
10
3.6427165354330708
20
-4.5366141732283465
11
3.7746062992125982
21
-4.5366141732283465
0
LINE
8
BLACK
6
CONTINUOUS
10
3.7746062992125982
20
-4.5366141732283465
11
3.7746062992125982
21
-4.4614173228346452
0
LINE
8
BLACK
6
CONTINUOUS
10
3.7746062992125982
20
-4.4614173228346452
11
3.6427165354330708
21
-4.4614173228346452
0
LINE
8
BLACK
6
CONTINUOUS
10
3.7758858267716535
20
-4.3858267716535435
11
3.7758858267716535
21
-4.4586614173228343
0
LINE
8
BLACK
6
CONTINUOUS
10
3.7758858267716535
20
-4.4586614173228343
11
3.9062007874015747
21
-4.4586614173228343
0
LINE
8
BLACK
6
CONTINUOUS
10
3.9062007874015747
20
-4.4586614173228343
11
3.9062007874015747
21
-4.3858267716535435
0
LINE
8
BLACK
6
CONTINUOUS
10
3.9062007874015747
20
-4.3858267716535435
11
3.7758858267716535
21
-4.3858267716535435
0
LINE
8
BLACK
6
CONTINUOUS
10
3.643011811023622
20
-4.3858267716535435
11
3.643011811023622
21
-4.4586614173228343
0
LINE
8
BLACK
6
CONTINUOUS
10
3.643011811023622
20
-4.4586614173228343
11
3.7733267716535432
21
-4.4586614173228343
0
LINE
8
BLACK
6
CONTINUOUS
10
3.7733267716535432
20
-4.4586614173228343
11
3.7733267716535432
21
-4.3858267716535435
0
LINE
8
BLACK
6
CONTINUOUS
10
3.7733267716535432
20
-4.3858267716535435
11
3.643011811023622
21
-4.3858267716535435
0
LINE
8
BLACK
6
CONTINUOUS
10
2.8783294094488188
20
-4.4526339763779523
11
2.878862086614173
21
-4.453166653543307
0
LINE
8
BLACK
6
CONTINUOUS
10
2.878862086614173
20
-4.453166653543307
11
2.8789370078740157
21
-4.4535433070866137
0
LINE
8
BLACK
6
CONTINUOUS
10
2.8789370078740157
20
-4.4535433070866137
11
2.8789370078740157
21
-4.5307086614173224
0
LINE
8
BLACK
6
CONTINUOUS
10
2.8789370078740157
20
-4.5307086614173224
11
2.878862086614173
21
-4.5310853149606301
0
LINE
8
BLACK
6
CONTINUOUS
10
2.878862086614173
20
-4.5310853149606301
11
2.8783294094488188
21
-4.5316179921259838
0
LINE
8
BLACK
6
CONTINUOUS
10
2.8783294094488188
20
-4.5316179921259838
11
2.8779527559055116
21
-4.531692913385827
0
LINE
8
BLACK
6
CONTINUOUS
10
2.8779527559055116
20
-4.531692913385827
11
2.7440944881889764
21
-4.531692913385827
0
LINE
8
BLACK
6
CONTINUOUS
10
2.7440944881889764
20
-4.531692913385827
11
2.7437178346456692
21
-4.5316179921259838
0
LINE
8
BLACK
6
CONTINUOUS
10
2.7437178346456692
20
-4.5316179921259838
11
2.743185157480315
21
-4.5310853149606301
0
LINE
8
BLACK
6
CONTINUOUS
10
2.743185157480315
20
-4.5310853149606301
11
2.7431102362204722
21
-4.5307086614173224
0
LINE
8
BLACK
6
CONTINUOUS
10
2.7431102362204722
20
-4.5307086614173224
11
2.7431102362204722
21
-4.4535433070866137
0
LINE
8
BLACK
6
CONTINUOUS
10
2.7431102362204722
20
-4.4535433070866137
11
2.743185157480315
21
-4.453166653543307
0
LINE
8
BLACK
6
CONTINUOUS
10
2.743185157480315
20
-4.453166653543307
11
2.7437178346456692
21
-4.4526339763779523
0
LINE
8
BLACK
6
CONTINUOUS
10
2.7437178346456692
20
-4.4526339763779523
11
2.7440944881889764
21
-4.45255905511811
0
LINE
8
BLACK
6
CONTINUOUS
10
2.7440944881889764
20
-4.45255905511811
11
2.8779527559055116
21
-4.45255905511811
0
LINE
8
BLACK
6
CONTINUOUS
10
2.8779527559055116
20
-4.45255905511811
11
2.8783294094488188
21
-4.4526339763779523
0
LINE
8
BLACK
6
CONTINUOUS
10
2.7450787401574801
20
-4.4545275590551183
11
2.7450787401574801
21
-4.5297244094488187
0
LINE
8
BLACK
6
CONTINUOUS
10
2.7450787401574801
20
-4.5297244094488187
11
2.8769685039370079
21
-4.5297244094488187
0
LINE
8
BLACK
6
CONTINUOUS
10
2.8769685039370079
20
-4.5297244094488187
11
2.8769685039370079
21
-4.4545275590551183
0
LINE
8
BLACK
6
CONTINUOUS
10
2.8769685039370079
20
-4.4545275590551183
11
2.7450787401574801
21
-4.4545275590551183
0
LINE
8
BLACK
6
CONTINUOUS
10
2.7338412204724407
20
-4.3927914566929136
11
2.7343738976377954
21
-4.3933241338582674
0
LINE
8
BLACK
6
CONTINUOUS
10
2.7343738976377954
20
-4.3933241338582674
11
2.7344488188976377
21
-4.393700787401575
0
LINE
8
BLACK
6
CONTINUOUS
10
2.7344488188976377
20
-4.393700787401575
11
2.7344488188976377
21
-4.5275590551181102
0
LINE
8
BLACK
6
CONTINUOUS
10
2.7344488188976377
20
-4.5275590551181102
11
2.7343738976377954
21
-4.5279357086614169
0
LINE
8
BLACK
6
CONTINUOUS
10
2.7343738976377954
20
-4.5279357086614169
11
2.7338412204724407
21
-4.5284683858267716
0
LINE
8
BLACK
6
CONTINUOUS
10
2.7338412204724407
20
-4.5284683858267716
11
2.733464566929134
21
-4.5285433070866139
0
LINE
8
BLACK
6
CONTINUOUS
10
2.733464566929134
20
-4.5285433070866139
11
2.6562992125984253
21
-4.5285433070866139
0
LINE
8
BLACK
6
CONTINUOUS
10
2.6562992125984253
20
-4.5285433070866139
11
2.6559225590551181
21
-4.5284683858267716
0
LINE
8
BLACK
6
CONTINUOUS
10
2.6559225590551181
20
-4.5284683858267716
11
2.6553898818897639
21
-4.5279357086614169
0
LINE
8
BLACK
6
CONTINUOUS
10
2.6553898818897639
20
-4.5279357086614169
11
2.6553149606299211
21
-4.5275590551181102
0
LINE
8
BLACK
6
CONTINUOUS
10
2.6553149606299211
20
-4.5275590551181102
11
2.6553149606299211
21
-4.393700787401575
0
LINE
8
BLACK
6
CONTINUOUS
10
2.6553149606299211
20
-4.393700787401575
11
2.6553898818897639
21
-4.3933241338582674
0
LINE
8
BLACK
6
CONTINUOUS
10
2.6553898818897639
20
-4.3933241338582674
11
2.6559225590551181
21
-4.3927914566929136
0
LINE
8
BLACK
6
CONTINUOUS
10
2.6559225590551181
20
-4.3927914566929136
11
2.6562992125984253
21
-4.3927165354330704
0
LINE
8
BLACK
6
CONTINUOUS
10
2.6562992125984253
20
-4.3927165354330704
11
2.733464566929134
21
-4.3927165354330704
0
LINE
8
BLACK
6
CONTINUOUS
10
2.733464566929134
20
-4.3927165354330704
11
2.7338412204724407
21
-4.3927914566929136
0
LINE
8
BLACK
6
CONTINUOUS
10
2.657283464566929
20
-4.3946850393700787
11
2.657283464566929
21
-4.5265748031496065
0
LINE
8
BLACK
6
CONTINUOUS
10
2.657283464566929
20
-4.5265748031496065
11
2.7324803149606298
21
-4.5265748031496065
0
LINE
8
BLACK
6
CONTINUOUS
10
2.7324803149606298
20
-4.5265748031496065
11
2.7324803149606298
21
-4.3946850393700787
0
LINE
8
BLACK
6
CONTINUOUS
10
2.7324803149606298
20
-4.3946850393700787
11
2.657283464566929
21
-4.3946850393700787
0
LINE
8
BLACK
6
CONTINUOUS
10
2.6440774409448817
20
-4.3232048425196847
11
2.6446101181102359
21
-4.3237375196850394
0
LINE
8
BLACK
6
CONTINUOUS
10
2.6446101181102359
20
-4.3237375196850394
11
2.6446850393700787
21
-4.3241141732283461
0
LINE
8
BLACK
6
CONTINUOUS
10
2.6446850393700787
20
-4.3241141732283461
11
2.6446850393700787
21
-4.4563976377952752
0
LINE
8
BLACK
6
CONTINUOUS
10
2.6446850393700787
20
-4.4563976377952752
11
2.6446101181102359
21
-4.4567742913385828
0
LINE
8
BLACK
6
CONTINUOUS
10
2.6446101181102359
20
-4.4567742913385828
11
2.6440774409448817
21
-4.4573069685039366
0
LINE
8
BLACK
6
CONTINUOUS
10
2.6440774409448817
20
-4.4573069685039366
11
2.6437007874015745
21
-4.4573818897637798
0
LINE
8
BLACK
6
CONTINUOUS
10
2.6437007874015745
20
-4.4573818897637798
11
2.5688976377952755
21
-4.4573818897637798
0
LINE
8
BLACK
6
CONTINUOUS
10
2.5688976377952755
20
-4.4573818897637798
11
2.5685209842519683
21
-4.4573069685039366
0
LINE
8
BLACK
6
CONTINUOUS
10
2.5685209842519683
20
-4.4573069685039366
11
2.5679883070866141
21
-4.4567742913385828
0
LINE
8
BLACK
6
CONTINUOUS
10
2.5679883070866141
20
-4.4567742913385828
11
2.5679133858267718
21
-4.4563976377952752
0
LINE
8
BLACK
6
CONTINUOUS
10
2.5679133858267718
20
-4.4563976377952752
11
2.5679133858267718
21
-4.3241141732283461
0
LINE
8
BLACK
6
CONTINUOUS
10
2.5679133858267718
20
-4.3241141732283461
11
2.5679883070866141
21
-4.3237375196850394
0
LINE
8
BLACK
6
CONTINUOUS
10
2.5679883070866141
20
-4.3237375196850394
11
2.5685209842519683
21
-4.3232048425196847
0
LINE
8
BLACK
6
CONTINUOUS
10
2.5685209842519683
20
-4.3232048425196847
11
2.5688976377952755
21
-4.3231299212598424
0
LINE
8
BLACK
6
CONTINUOUS
10
2.5688976377952755
20
-4.3231299212598424
11
2.6437007874015745
21
-4.3231299212598424
0
LINE
8
BLACK
6
CONTINUOUS
10
2.6437007874015745
20
-4.3231299212598424
11
2.6440774409448817
21
-4.3232048425196847
0
LINE
8
BLACK
6
CONTINUOUS
10
2.5698818897637796
20
-4.3250984251968507
11
2.5698818897637796
21
-4.4554133858267715
0
LINE
8
BLACK
6
CONTINUOUS
10
2.5698818897637796
20
-4.4554133858267715
11
2.6427165354330708
21
-4.4554133858267715
0
LINE
8
BLACK
6
CONTINUOUS
10
2.6427165354330708
20
-4.4554133858267715
11
2.6427165354330708
21
-4.3250984251968507
0
LINE
8
BLACK
6
CONTINUOUS
10
2.6427165354330708
20
-4.3250984251968507
11
2.5698818897637796
21
-4.3250984251968507
0
LINE
8
BLACK
6
CONTINUOUS
10
2.8921089370078739
20
-4.291413503937008
11
2.8926416141732281
21
-4.2919461811023618
0
LINE
8
BLACK
6
CONTINUOUS
10
2.8926416141732281
20
-4.2919461811023618
11
2.8927165354330708
21
-4.2923228346456694
0
LINE
8
BLACK
6
CONTINUOUS
10
2.8927165354330708
20
-4.2923228346456694
11
2.8927165354330708
21
-4.4458661417322833
0
LINE
8
BLACK
6
CONTINUOUS
10
2.8927165354330708
20
-4.4458661417322833
11
2.8926416141732281
21
-4.4462427952755901
0
LINE
8
BLACK
6
CONTINUOUS
10
2.8926416141732281
20
-4.4462427952755901
11
2.8921089370078739
21
-4.4467754724409447
0
LINE
8
BLACK
6
CONTINUOUS
10
2.8921089370078739
20
-4.4467754724409447
11
2.8917322834645667
21
-4.4468503937007871
0
LINE
8
BLACK
6
CONTINUOUS
10
2.8917322834645667
20
-4.4468503937007871
11
2.7381889763779528
21
-4.4468503937007871
0
LINE
8
BLACK
6
CONTINUOUS
10
2.7381889763779528
20
-4.4468503937007871
11
2.7378123228346456
21
-4.4467754724409447
0
LINE
8
BLACK
6
CONTINUOUS
10
2.7378123228346456
20
-4.4467754724409447
11
2.7372796456692914
21
-4.4462427952755901
0
LINE
8
BLACK
6
CONTINUOUS
10
2.7372796456692914
20
-4.4462427952755901
11
2.7372047244094486
21
-4.4458661417322833
0
LINE
8
BLACK
6
CONTINUOUS
10
2.7372047244094486
20
-4.4458661417322833
11
2.7372047244094486
21
-4.2923228346456694
0
LINE
8
BLACK
6
CONTINUOUS
10
2.7372047244094486
20
-4.2923228346456694
11
2.7372796456692914
21
-4.2919461811023618
0
LINE
8
BLACK
6
CONTINUOUS
10
2.7372796456692914
20
-4.2919461811023618
11
2.7378123228346456
21
-4.291413503937008
0
LINE
8
BLACK
6
CONTINUOUS
10
2.7378123228346456
20
-4.291413503937008
11
2.7381889763779528
21
-4.2913385826771648
0
LINE
8
BLACK
6
CONTINUOUS
10
2.7381889763779528
20
-4.2913385826771648
11
2.8917322834645667
21
-4.2913385826771648
0
LINE
8
BLACK
6
CONTINUOUS
10
2.8917322834645667
20
-4.2913385826771648
11
2.8921089370078739
21
-4.291413503937008
0
LINE
8
BLACK
6
CONTINUOUS
10
2.7391732283464565
20
-4.2933070866141732
11
2.7391732283464565
21
-4.4448818897637796
0
LINE
8
BLACK
6
CONTINUOUS
10
2.7391732283464565
20
-4.4448818897637796
11
2.890748031496063
21
-4.4448818897637796
0
LINE
8
BLACK
6
CONTINUOUS
10
2.890748031496063
20
-4.4448818897637796
11
2.890748031496063
21
-4.2933070866141732
0
LINE
8
BLACK
6
CONTINUOUS
10
2.890748031496063
20
-4.2933070866141732
11
2.7391732283464565
21
-4.2933070866141732
0
LINE
8
BLACK
6
CONTINUOUS
10
3.033841220472441
20
-4.2894449999999997
11
3.0343738976377952
21
-4.2899776771653544
0
LINE
8
BLACK
6
CONTINUOUS
10
3.0343738976377952
20
-4.2899776771653544
11
3.0344488188976375
21
-4.2903543307086611
0
LINE
8
BLACK
6
CONTINUOUS
10
3.0344488188976375
20
-4.2903543307086611
11
3.0344488188976375
21
-4.4438976377952759
0
LINE
8
BLACK
6
CONTINUOUS
10
3.0344488188976375
20
-4.4438976377952759
11
3.0343738976377952
21
-4.4442742913385826
0
LINE
8
BLACK
6
CONTINUOUS
10
3.0343738976377952
20
-4.4442742913385826
11
3.033841220472441
21
-4.4448069685039373
0
LINE
8
BLACK
6
CONTINUOUS
10
3.033841220472441
20
-4.4448069685039373
11
3.0334645669291338
21
-4.4448818897637796
0
LINE
8
BLACK
6
CONTINUOUS
10
3.0334645669291338
20
-4.4448818897637796
11
2.9271653543307088
21
-4.4448818897637796
0
LINE
8
BLACK
6
CONTINUOUS
10
2.9271653543307088
20
-4.4448818897637796
11
2.9267887007874016
21
-4.4448069685039373
0
LINE
8
BLACK
6
CONTINUOUS
10
2.9267887007874016
20
-4.4448069685039373
11
2.9262560236220474
21
-4.4442742913385826
0
LINE
8
BLACK
6
CONTINUOUS
10
2.9262560236220474
20
-4.4442742913385826
11
2.9261811023622046
21
-4.4438976377952759
0
LINE
8
BLACK
6
CONTINUOUS
10
2.9261811023622046
20
-4.4438976377952759
11
2.9261811023622046
21
-4.2903543307086611
0
LINE
8
BLACK
6
CONTINUOUS
10
2.9261811023622046
20
-4.2903543307086611
11
2.9262560236220474
21
-4.2899776771653544
0
LINE
8
BLACK
6
CONTINUOUS
10
2.9262560236220474
20
-4.2899776771653544
11
2.9267887007874016
21
-4.2894449999999997
0
LINE
8
BLACK
6
CONTINUOUS
10
2.9267887007874016
20
-4.2894449999999997
11
2.9271653543307088
21
-4.2893700787401574
0
LINE
8
BLACK
6
CONTINUOUS
10
2.9271653543307088
20
-4.2893700787401574
11
3.0334645669291338
21
-4.2893700787401574
0
LINE
8
BLACK
6
CONTINUOUS
10
3.0334645669291338
20
-4.2893700787401574
11
3.033841220472441
21
-4.2894449999999997
0
LINE
8
BLACK
6
CONTINUOUS
10
2.9281496062992125
20
-4.2913385826771648
11
2.9281496062992125
21
-4.4429133858267713
0
LINE
8
BLACK
6
CONTINUOUS
10
2.9281496062992125
20
-4.4429133858267713
11
3.0324803149606296
21
-4.4429133858267713
0
LINE
8
BLACK
6
CONTINUOUS
10
3.0324803149606296
20
-4.4429133858267713
11
3.0324803149606296
21
-4.2913385826771648
0
LINE
8
BLACK
6
CONTINUOUS
10
3.0324803149606296
20
-4.2913385826771648
11
2.9281496062992125
21
-4.2913385826771648
0
LINE
8
BLACK
6
CONTINUOUS
10
3.6362034251968502
20
-4.2589331889763775
11
3.6367361023622045
21
-4.2594658661417322
0
LINE
8
BLACK
6
CONTINUOUS
10
3.6367361023622045
20
-4.2594658661417322
11
3.6368110236220472
21
-4.2598425196850389
0
LINE
8
BLACK
6
CONTINUOUS
10
3.6368110236220472
20
-4.2598425196850389
11
3.6368110236220472
21
-4.4133858267716537
0
LINE
8
BLACK
6
CONTINUOUS
10
3.6368110236220472
20
-4.4133858267716537
11
3.6367361023622045
21
-4.4137624803149604
0
LINE
8
BLACK
6
CONTINUOUS
10
3.6367361023622045
20
-4.4137624803149604
11
3.6362034251968502
21
-4.4142951574803151
0
LINE
8
BLACK
6
CONTINUOUS
10
3.6362034251968502
20
-4.4142951574803151
11
3.6358267716535431
21
-4.4143700787401574
0
LINE
8
BLACK
6
CONTINUOUS
10
3.6358267716535431
20
-4.4143700787401574
11
3.5295275590551181
21
-4.4143700787401574
0
LINE
8
BLACK
6
CONTINUOUS
10
3.5295275590551181
20
-4.4143700787401574
11
3.5291509055118109
21
-4.4142951574803151
0
LINE
8
BLACK
6
CONTINUOUS
10
3.5291509055118109
20
-4.4142951574803151
11
3.5286182283464567
21
-4.4137624803149604
0
LINE
8
BLACK
6
CONTINUOUS
10
3.5286182283464567
20
-4.4137624803149604
11
3.5285433070866139
21
-4.4133858267716537
0
LINE
8
BLACK
6
CONTINUOUS
10
3.5285433070866139
20
-4.4133858267716537
11
3.5285433070866139
21
-4.2598425196850389
0
LINE
8
BLACK
6
CONTINUOUS
10
3.5285433070866139
20
-4.2598425196850389
11
3.5286182283464567
21
-4.2594658661417322
0
LINE
8
BLACK
6
CONTINUOUS
10
3.5286182283464567
20
-4.2594658661417322
11
3.5291509055118109
21
-4.2589331889763775
0
LINE
8
BLACK
6
CONTINUOUS
10
3.5291509055118109
20
-4.2589331889763775
11
3.5295275590551181
21
-4.2588582677165352
0
LINE
8
BLACK
6
CONTINUOUS
10
3.5295275590551181
20
-4.2588582677165352
11
3.6358267716535431
21
-4.2588582677165352
0
LINE
8
BLACK
6
CONTINUOUS
10
3.6358267716535431
20
-4.2588582677165352
11
3.6362034251968502
21
-4.2589331889763775
0
LINE
8
BLACK
6
CONTINUOUS
10
3.5305118110236218
20
-4.2608267716535435
11
3.5305118110236218
21
-4.4124015748031491
0
LINE
8
BLACK
6
CONTINUOUS
10
3.5305118110236218
20
-4.4124015748031491
11
3.6348425196850394
21
-4.4124015748031491
0
LINE
8
BLACK
6
CONTINUOUS
10
3.6348425196850394
20
-4.4124015748031491
11
3.6348425196850394
21
-4.2608267716535435
0
LINE
8
BLACK
6
CONTINUOUS
10
3.6348425196850394
20
-4.2608267716535435
11
3.5305118110236218
21
-4.2608267716535435
0
LINE
8
BLACK
6
CONTINUOUS
10
2.051112874015748
20
-4.3272875196850391
11
2.0516455511811023
21
-4.3278201968503938
0
LINE
8
BLACK
6
CONTINUOUS
10
2.0516455511811023
20
-4.3278201968503938
11
2.051720472440945
21
-4.3281968503937005
0
LINE
8
BLACK
6
CONTINUOUS
10
2.051720472440945
20
-4.3281968503937005
11
2.051720472440945
21
-4.4029999999999996
0
LINE
8
BLACK
6
CONTINUOUS
10
2.051720472440945
20
-4.4029999999999996
11
2.0516455511811023
21
-4.4033766535433072
0
LINE
8
BLACK
6
CONTINUOUS
10
2.0516455511811023
20
-4.4033766535433072
11
2.051112874015748
21
-4.403909330708661
0
LINE
8
BLACK
6
CONTINUOUS
10
2.051112874015748
20
-4.403909330708661
11
2.0507362204724409
21
-4.4039842519685042
0
LINE
8
BLACK
6
CONTINUOUS
10
2.0507362204724409
20
-4.4039842519685042
11
1.9184527559055118
21
-4.4039842519685042
0
LINE
8
BLACK
6
CONTINUOUS
10
1.9184527559055118
20
-4.4039842519685042
11
1.9180761023622046
21
-4.403909330708661
0
LINE
8
BLACK
6
CONTINUOUS
10
1.9180761023622046
20
-4.403909330708661
11
1.9175434251968504
21
-4.4033766535433072
0
LINE
8
BLACK
6
CONTINUOUS
10
1.9175434251968504
20
-4.4033766535433072
11
1.9174685039370079
21
-4.4029999999999996
0
LINE
8
BLACK
6
CONTINUOUS
10
1.9174685039370079
20
-4.4029999999999996
11
1.9174685039370079
21
-4.3281968503937005
0
LINE
8
BLACK
6
CONTINUOUS
10
1.9174685039370079
20
-4.3281968503937005
11
1.9175434251968504
21
-4.3278201968503938
0
LINE
8
BLACK
6
CONTINUOUS
10
1.9175434251968504
20
-4.3278201968503938
11
1.9180761023622046
21
-4.3272875196850391
0
LINE
8
BLACK
6
CONTINUOUS
10
1.9180761023622046
20
-4.3272875196850391
11
1.9184527559055118
21
-4.3272125984251968
0
LINE
8
BLACK
6
CONTINUOUS
10
1.9184527559055118
20
-4.3272125984251968
11
2.0507362204724409
21
-4.3272125984251968
0
LINE
8
BLACK
6
CONTINUOUS
10
2.0507362204724409
20
-4.3272125984251968
11
2.051112874015748
21
-4.3272875196850391
0
LINE
8
BLACK
6
CONTINUOUS
10
1.9194370078740157
20
-4.3291811023622042
11
1.9194370078740157
21
-4.4020157480314959
0
LINE
8
BLACK
6
CONTINUOUS
10
1.9194370078740157
20
-4.4020157480314959
11
2.0497519685039371
21
-4.4020157480314959
0
LINE
8
BLACK
6
CONTINUOUS
10
2.0497519685039371
20
-4.4020157480314959
11
2.0497519685039371
21
-4.3291811023622042
0
LINE
8
BLACK
6
CONTINUOUS
10
2.0497519685039371
20
-4.3291811023622042
11
1.9194370078740157
21
-4.3291811023622042
0
LINE
8
BLACK
6
CONTINUOUS
10
3.8381719291338583
20
-4.2461379133858266
11
3.8387046062992125
21
-4.2466705905511812
0
LINE
8
BLACK
6
CONTINUOUS
10
3.8387046062992125
20
-4.2466705905511812
11
3.8387795275590548
21
-4.247047244094488
0
LINE
8
BLACK
6
CONTINUOUS
10
3.8387795275590548
20
-4.247047244094488
11
3.8387795275590548
21
-4.3809055118110232
0
LINE
8
BLACK
6
CONTINUOUS
10
3.8387795275590548
20
-4.3809055118110232
11
3.8387046062992125
21
-4.3812821653543308
0
LINE
8
BLACK
6
CONTINUOUS
10
3.8387046062992125
20
-4.3812821653543308
11
3.8381719291338583
21
-4.3818148425196846
0
LINE
8
BLACK
6
CONTINUOUS
10
3.8381719291338583
20
-4.3818148425196846
11
3.8377952755905511
21
-4.3818897637795278
0
LINE
8
BLACK
6
CONTINUOUS
10
3.8377952755905511
20
-4.3818897637795278
11
3.7606299212598424
21
-4.3818897637795278
0
LINE
8
BLACK
6
CONTINUOUS
10
3.7606299212598424
20
-4.3818897637795278
11
3.7602532677165352
21
-4.3818148425196846
0
LINE
8
BLACK
6
CONTINUOUS
10
3.7602532677165352
20
-4.3818148425196846
11
3.759720590551181
21
-4.3812821653543308
0
LINE
8
BLACK
6
CONTINUOUS
10
3.759720590551181
20
-4.3812821653543308
11
3.7596456692913387
21
-4.3809055118110232
0
LINE
8
BLACK
6
CONTINUOUS
10
3.7596456692913387
20
-4.3809055118110232
11
3.7596456692913387
21
-4.247047244094488
0
LINE
8
BLACK
6
CONTINUOUS
10
3.7596456692913387
20
-4.247047244094488
11
3.759720590551181
21
-4.2466705905511812
0
LINE
8
BLACK
6
CONTINUOUS
10
3.759720590551181
20
-4.2466705905511812
11
3.7602532677165352
21
-4.2461379133858266
0
LINE
8
BLACK
6
CONTINUOUS
10
3.7602532677165352
20
-4.2461379133858266
11
3.7606299212598424
21
-4.2460629921259843
0
LINE
8
BLACK
6
CONTINUOUS
10
3.7606299212598424
20
-4.2460629921259843
11
3.8377952755905511
21
-4.2460629921259843
0
LINE
8
BLACK
6
CONTINUOUS
10
3.8377952755905511
20
-4.2460629921259843
11
3.8381719291338583
21
-4.2461379133858266
0
LINE
8
BLACK
6
CONTINUOUS
10
3.7616141732283466
20
-4.2480314960629917
11
3.7616141732283466
21
-4.3799212598425195
0
LINE
8
BLACK
6
CONTINUOUS
10
3.7616141732283466
20
-4.3799212598425195
11
3.836811023622047
21
-4.3799212598425195
0
LINE
8
BLACK
6
CONTINUOUS
10
3.836811023622047
20
-4.3799212598425195
11
3.836811023622047
21
-4.2480314960629917
0
LINE
8
BLACK
6
CONTINUOUS
10
3.836811023622047
20
-4.2480314960629917
11
3.7616141732283466
21
-4.2480314960629917
0
LINE
8
BLACK
6
CONTINUOUS
10
3.7527388582677164
20
-4.2540119291338581
11
3.7532715354330706
21
-4.2545446062992127
0
LINE
8
BLACK
6
CONTINUOUS
10
3.7532715354330706
20
-4.2545446062992127
11
3.7533464566929133
21
-4.2549212598425195
0
LINE
8
BLACK
6
CONTINUOUS
10
3.7533464566929133
20
-4.2549212598425195
11
3.7533464566929133
21
-4.3572834645669287
0
LINE
8
BLACK
6
CONTINUOUS
10
3.7533464566929133
20
-4.3572834645669287
11
3.7532715354330706
21
-4.3576601181102363
0
LINE
8
BLACK
6
CONTINUOUS
10
3.7532715354330706
20
-4.3576601181102363
11
3.7527388582677164
21
-4.3581927952755901
0
LINE
8
BLACK
6
CONTINUOUS
10
3.7527388582677164
20
-4.3581927952755901
11
3.7523622047244092
21
-4.3582677165354333
0
LINE
8
BLACK
6
CONTINUOUS
10
3.7523622047244092
20
-4.3582677165354333
11
3.6484251968503938
21
-4.3582677165354333
0
LINE
8
BLACK
6
CONTINUOUS
10
3.6484251968503938
20
-4.3582677165354333
11
3.6480485433070866
21
-4.3581927952755901
0
LINE
8
BLACK
6
CONTINUOUS
10
3.6480485433070866
20
-4.3581927952755901
11
3.6475158661417324
21
-4.3576601181102363
0
LINE
8
BLACK
6
CONTINUOUS
10
3.6475158661417324
20
-4.3576601181102363
11
3.6474409448818896
21
-4.3572834645669287
0
LINE
8
BLACK
6
CONTINUOUS
10
3.6474409448818896
20
-4.3572834645669287
11
3.6474409448818896
21
-4.2549212598425195
0
LINE
8
BLACK
6
CONTINUOUS
10
3.6474409448818896
20
-4.2549212598425195
11
3.6475158661417324
21
-4.2545446062992127
0
LINE
8
BLACK
6
CONTINUOUS
10
3.6475158661417324
20
-4.2545446062992127
11
3.6480485433070866
21
-4.2540119291338581
0
LINE
8
BLACK
6
CONTINUOUS
10
3.6480485433070866
20
-4.2540119291338581
11
3.6484251968503938
21
-4.2539370078740157
0
LINE
8
BLACK
6
CONTINUOUS
10
3.6484251968503938
20
-4.2539370078740157
11
3.7523622047244092
21
-4.2539370078740157
0
LINE
8
BLACK
6
CONTINUOUS
10
3.7523622047244092
20
-4.2539370078740157
11
3.7527388582677164
21
-4.2540119291338581
0
LINE
8
BLACK
6
CONTINUOUS
10
3.6494094488188975
20
-4.2559055118110232
11
3.6494094488188975
21
-4.356299212598425
0
LINE
8
BLACK
6
CONTINUOUS
10
3.6494094488188975
20
-4.356299212598425
11
3.7513779527559055
21
-4.356299212598425
0
LINE
8
BLACK
6
CONTINUOUS
10
3.7513779527559055
20
-4.356299212598425
11
3.7513779527559055
21
-4.2559055118110232
0
LINE
8
BLACK
6
CONTINUOUS
10
3.7513779527559055
20
-4.2559055118110232
11
3.6494094488188975
21
-4.2559055118110232
0
LINE
8
BLACK
6
CONTINUOUS
10
2.7326601181102363
20
-4.2119843700787403
11
2.7331927952755906
21
-4.212517047244094
0
LINE
8
BLACK
6
CONTINUOUS
10
2.7331927952755906
20
-4.212517047244094
11
2.7332677165354329
21
-4.2128937007874017
0
LINE
8
BLACK
6
CONTINUOUS
10
2.7332677165354329
20
-4.2128937007874017
11
2.7332677165354329
21
-4.3451771653543307
0
LINE
8
BLACK
6
CONTINUOUS
10
2.7332677165354329
20
-4.3451771653543307
11
2.7331927952755906
21
-4.3455538188976375
0
LINE
8
BLACK
6
CONTINUOUS
10
2.7331927952755906
20
-4.3455538188976375
11
2.7326601181102363
21
-4.3460864960629921
0
LINE
8
BLACK
6
CONTINUOUS
10
2.7326601181102363
20
-4.3460864960629921
11
2.7322834645669292
21
-4.3461614173228345
0
LINE
8
BLACK
6
CONTINUOUS
10
2.7322834645669292
20
-4.3461614173228345
11
2.6574803149606296
21
-4.3461614173228345
0
LINE
8
BLACK
6
CONTINUOUS
10
2.6574803149606296
20
-4.3461614173228345
11
2.6571036614173229
21
-4.3460864960629921
0
LINE
8
BLACK
6
CONTINUOUS
10
2.6571036614173229
20
-4.3460864960629921
11
2.6565709842519682
21
-4.3455538188976375
0
LINE
8
BLACK
6
CONTINUOUS
10
2.6565709842519682
20
-4.3455538188976375
11
2.6564960629921259
21
-4.3451771653543307
0
LINE
8
BLACK
6
CONTINUOUS
10
2.6564960629921259
20
-4.3451771653543307
11
2.6564960629921259
21
-4.2128937007874017
0
LINE
8
BLACK
6
CONTINUOUS
10
2.6564960629921259
20
-4.2128937007874017
11
2.6565709842519682
21
-4.212517047244094
0
LINE
8
BLACK
6
CONTINUOUS
10
2.6565709842519682
20
-4.212517047244094
11
2.6571036614173229
21
-4.2119843700787403
0
LINE
8
BLACK
6
CONTINUOUS
10
2.6571036614173229
20
-4.2119843700787403
11
2.6574803149606296
21
-4.2119094488188979
0
LINE
8
BLACK
6
CONTINUOUS
10
2.6574803149606296
20
-4.2119094488188979
11
2.7322834645669292
21
-4.2119094488188979
0
LINE
8
BLACK
6
CONTINUOUS
10
2.7322834645669292
20
-4.2119094488188979
11
2.7326601181102363
21
-4.2119843700787403
0
LINE
8
BLACK
6
CONTINUOUS
10
2.6584645669291338
20
-4.2138779527559054
11
2.6584645669291338
21
-4.344192913385827
0
LINE
8
BLACK
6
CONTINUOUS
10
2.6584645669291338
20
-4.344192913385827
11
2.731299212598425
21
-4.344192913385827
0
LINE
8
BLACK
6
CONTINUOUS
10
2.731299212598425
20
-4.344192913385827
11
2.731299212598425
21
-4.2138779527559054
0
LINE
8
BLACK
6
CONTINUOUS
10
2.731299212598425
20
-4.2138779527559054
11
2.6584645669291338
21
-4.2138779527559054
0
LINE
8
BLACK
6
CONTINUOUS
10
2.6452585433070865
20
-4.1801930314960627
11
2.6457912204724408
21
-4.1807257086614174
0
LINE
8
BLACK
6
CONTINUOUS
10
2.6457912204724408
20
-4.1807257086614174
11
2.6458661417322835
21
-4.1811023622047241
0
LINE
8
BLACK
6
CONTINUOUS
10
2.6458661417322835
20
-4.1811023622047241
11
2.6458661417322835
21
-4.3149606299212602
0
LINE
8
BLACK
6
CONTINUOUS
10
2.6458661417322835
20
-4.3149606299212602
11
2.6457912204724408
21
-4.3153372834645669
0
LINE
8
BLACK
6
CONTINUOUS
10
2.6457912204724408
20
-4.3153372834645669
11
2.6452585433070865
21
-4.3158699606299216
0
LINE
8
BLACK
6
CONTINUOUS
10
2.6452585433070865
20
-4.3158699606299216
11
2.6448818897637794
21
-4.3159448818897639
0
LINE
8
BLACK
6
CONTINUOUS
10
2.6448818897637794
20
-4.3159448818897639
11
2.5677165354330707
21
-4.3159448818897639
0
LINE
8
BLACK
6
CONTINUOUS
10
2.5677165354330707
20
-4.3159448818897639
11
2.5673398818897639
21
-4.3158699606299216
0
LINE
8
BLACK
6
CONTINUOUS
10
2.5673398818897639
20
-4.3158699606299216
11
2.5668072047244093
21
-4.3153372834645669
0
LINE
8
BLACK
6
CONTINUOUS
10
2.5668072047244093
20
-4.3153372834645669
11
2.5667322834645669
21
-4.3149606299212602
0
LINE
8
BLACK
6
CONTINUOUS
10
2.5667322834645669
20
-4.3149606299212602
11
2.5667322834645669
21
-4.1811023622047241
0
LINE
8
BLACK
6
CONTINUOUS
10
2.5667322834645669
20
-4.1811023622047241
11
2.5668072047244093
21
-4.1807257086614174
0
LINE
8
BLACK
6
CONTINUOUS
10
2.5668072047244093
20
-4.1807257086614174
11
2.5673398818897639
21
-4.1801930314960627
0
LINE
8
BLACK
6
CONTINUOUS
10
2.5673398818897639
20
-4.1801930314960627
11
2.5677165354330707
21
-4.1801181102362204
0
LINE
8
BLACK
6
CONTINUOUS
10
2.5677165354330707
20
-4.1801181102362204
11
2.6448818897637794
21
-4.1801181102362204
0
LINE
8
BLACK
6
CONTINUOUS
10
2.6448818897637794
20
-4.1801181102362204
11
2.6452585433070865
21
-4.1801930314960627
0
LINE
8
BLACK
6
CONTINUOUS
10
2.5687007874015748
20
-4.1820866141732287
11
2.5687007874015748
21
-4.3139763779527556
0
LINE
8
BLACK
6
CONTINUOUS
10
2.5687007874015748
20
-4.3139763779527556
11
2.6438976377952756
21
-4.3139763779527556
0
LINE
8
BLACK
6
CONTINUOUS
10
2.6438976377952756
20
-4.3139763779527556
11
2.6438976377952756
21
-4.1820866141732287
0
LINE
8
BLACK
6
CONTINUOUS
10
2.6438976377952756
20
-4.1820866141732287
11
2.5687007874015748
21
-4.1820866141732287
0
LINE
8
BLACK
6
CONTINUOUS
10
2.0512624803149606
20
-4.2235001181102358
11
2.0517951574803148
21
-4.2240327952755905
0
LINE
8
BLACK
6
CONTINUOUS
10
2.0517951574803148
20
-4.2240327952755905
11
2.0518700787401576
21
-4.2244094488188972
0
LINE
8
BLACK
6
CONTINUOUS
10
2.0518700787401576
20
-4.2244094488188972
11
2.0518700787401576
21
-4.2992125984251963
0
LINE
8
BLACK
6
CONTINUOUS
10
2.0518700787401576
20
-4.2992125984251963
11
2.0517951574803148
21
-4.2995892519685039
0
LINE
8
BLACK
6
CONTINUOUS
10
2.0517951574803148
20
-4.2995892519685039
11
2.0512624803149606
21
-4.3001219291338586
0
LINE
8
BLACK
6
CONTINUOUS
10
2.0512624803149606
20
-4.3001219291338586
11
2.0508858267716534
21
-4.3001968503937009
0
LINE
8
BLACK
6
CONTINUOUS
10
2.0508858267716534
20
-4.3001968503937009
11
1.9186023622047244
21
-4.3001968503937009
0
LINE
8
BLACK
6
CONTINUOUS
10
1.9186023622047244
20
-4.3001968503937009
11
1.9182257086614172
21
-4.3001219291338586
0
LINE
8
BLACK
6
CONTINUOUS
10
1.9182257086614172
20
-4.3001219291338586
11
1.917693031496063
21
-4.2995892519685039
0
LINE
8
BLACK
6
CONTINUOUS
10
1.917693031496063
20
-4.2995892519685039
11
1.9176181102362204
21
-4.2992125984251963
0
LINE
8
BLACK
6
CONTINUOUS
10
1.9176181102362204
20
-4.2992125984251963
11
1.9176181102362204
21
-4.2244094488188972
0
LINE
8
BLACK
6
CONTINUOUS
10
1.9176181102362204
20
-4.2244094488188972
11
1.917693031496063
21
-4.2240327952755905
0
LINE
8
BLACK
6
CONTINUOUS
10
1.917693031496063
20
-4.2240327952755905
11
1.9182257086614172
21
-4.2235001181102358
0
LINE
8
BLACK
6
CONTINUOUS
10
1.9182257086614172
20
-4.2235001181102358
11
1.9186023622047244
21
-4.2234251968503935
0
LINE
8
BLACK
6
CONTINUOUS
10
1.9186023622047244
20
-4.2234251968503935
11
2.0508858267716534
21
-4.2234251968503935
0
LINE
8
BLACK
6
CONTINUOUS
10
2.0508858267716534
20
-4.2234251968503935
11
2.0512624803149606
21
-4.2235001181102358
0
LINE
8
BLACK
6
CONTINUOUS
10
1.9195866141732283
20
-4.2253937007874018
11
1.9195866141732283
21
-4.2982283464566926
0
LINE
8
BLACK
6
CONTINUOUS
10
1.9195866141732283
20
-4.2982283464566926
11
2.0499015748031497
21
-4.2982283464566926
0
LINE
8
BLACK
6
CONTINUOUS
10
2.0499015748031497
20
-4.2982283464566926
11
2.0499015748031497
21
-4.2253937007874018
0
LINE
8
BLACK
6
CONTINUOUS
10
2.0499015748031497
20
-4.2253937007874018
11
1.9195866141732283
21
-4.2253937007874018
0
LINE
8
BLACK
6
CONTINUOUS
10
2.8724238976377952
20
-4.2007442125984253
11
2.8729565748031494
21
-4.2012768897637791
0
LINE
8
BLACK
6
CONTINUOUS
10
2.8729565748031494
20
-4.2012768897637791
11
2.8730314960629921
21
-4.2016535433070867
0
LINE
8
BLACK
6
CONTINUOUS
10
2.8730314960629921
20
-4.2016535433070867
11
2.8730314960629921
21
-4.2788188976377954
0
LINE
8
BLACK
6
CONTINUOUS
10
2.8730314960629921
20
-4.2788188976377954
11
2.8729565748031494
21
-4.2791955511811022
0
LINE
8
BLACK
6
CONTINUOUS
10
2.8729565748031494
20
-4.2791955511811022
11
2.8724238976377952
21
-4.2797282283464568
0
LINE
8
BLACK
6
CONTINUOUS
10
2.8724238976377952
20
-4.2797282283464568
11
2.872047244094488
21
-4.2798031496062992
0
LINE
8
BLACK
6
CONTINUOUS
10
2.872047244094488
20
-4.2798031496062992
11
2.7381889763779528
21
-4.2798031496062992
0
LINE
8
BLACK
6
CONTINUOUS
10
2.7381889763779528
20
-4.2798031496062992
11
2.7378123228346456
21
-4.2797282283464568
0
LINE
8
BLACK
6
CONTINUOUS
10
2.7378123228346456
20
-4.2797282283464568
11
2.7372796456692914
21
-4.2791955511811022
0
LINE
8
BLACK
6
CONTINUOUS
10
2.7372796456692914
20
-4.2791955511811022
11
2.7372047244094486
21
-4.2788188976377954
0
LINE
8
BLACK
6
CONTINUOUS
10
2.7372047244094486
20
-4.2788188976377954
11
2.7372047244094486
21
-4.2016535433070867
0
LINE
8
BLACK
6
CONTINUOUS
10
2.7372047244094486
20
-4.2016535433070867
11
2.7372796456692914
21
-4.2012768897637791
0
LINE
8
BLACK
6
CONTINUOUS
10
2.7372796456692914
20
-4.2012768897637791
11
2.7378123228346456
21
-4.2007442125984253
0
LINE
8
BLACK
6
CONTINUOUS
10
2.7378123228346456
20
-4.2007442125984253
11
2.7381889763779528
21
-4.200669291338583
0
LINE
8
BLACK
6
CONTINUOUS
10
2.7381889763779528
20
-4.200669291338583
11
2.872047244094488
21
-4.200669291338583
0
LINE
8
BLACK
6
CONTINUOUS
10
2.872047244094488
20
-4.200669291338583
11
2.8724238976377952
21
-4.2007442125984253
0
LINE
8
BLACK
6
CONTINUOUS
10
2.7391732283464565
20
-4.2026377952755904
11
2.7391732283464565
21
-4.2778346456692908
0
LINE
8
BLACK
6
CONTINUOUS
10
2.7391732283464565
20
-4.2778346456692908
11
2.8710629921259843
21
-4.2778346456692908
0
LINE
8
BLACK
6
CONTINUOUS
10
2.8710629921259843
20
-4.2778346456692908
11
2.8710629921259843
21
-4.2026377952755904
0
LINE
8
BLACK
6
CONTINUOUS
10
2.8710629921259843
20
-4.2026377952755904
11
2.7391732283464565
21
-4.2026377952755904
0
LINE
8
BLACK
6
CONTINUOUS
10
3.011825472440945
20
-4.2007442125984253
11
3.0123581496062992
21
-4.2012768897637791
0
LINE
8
BLACK
6
CONTINUOUS
10
3.0123581496062992
20
-4.2012768897637791
11
3.0124330708661415
21
-4.2016535433070867
0
LINE
8
BLACK
6
CONTINUOUS
10
3.0124330708661415
20
-4.2016535433070867
11
3.0124330708661415
21
-4.2788188976377954
0
LINE
8
BLACK
6
CONTINUOUS
10
3.0124330708661415
20
-4.2788188976377954
11
3.0123581496062992
21
-4.2791955511811022
0
LINE
8
BLACK
6
CONTINUOUS
10
3.0123581496062992
20
-4.2791955511811022
11
3.011825472440945
21
-4.2797282283464568
0
LINE
8
BLACK
6
CONTINUOUS
10
3.011825472440945
20
-4.2797282283464568
11
3.0114488188976378
21
-4.2798031496062992
0
LINE
8
BLACK
6
CONTINUOUS
10
3.0114488188976378
20
-4.2798031496062992
11
2.8775905511811022
21
-4.2798031496062992
0
LINE
8
BLACK
6
CONTINUOUS
10
2.8775905511811022
20
-4.2798031496062992
11
2.877213897637795
21
-4.2797282283464568
0
LINE
8
BLACK
6
CONTINUOUS
10
2.877213897637795
20
-4.2797282283464568
11
2.8766812204724408
21
-4.2791955511811022
0
LINE
8
BLACK
6
CONTINUOUS
10
2.8766812204724408
20
-4.2791955511811022
11
2.8766062992125985
21
-4.2788188976377954
0
LINE
8
BLACK
6
CONTINUOUS
10
2.8766062992125985
20
-4.2788188976377954
11
2.8766062992125985
21
-4.2016535433070867
0
LINE
8
BLACK
6
CONTINUOUS
10
2.8766062992125985
20
-4.2016535433070867
11
2.8766812204724408
21
-4.2012768897637791
0
LINE
8
BLACK
6
CONTINUOUS
10
2.8766812204724408
20
-4.2012768897637791
11
2.877213897637795
21
-4.2007442125984253
0
LINE
8
BLACK
6
CONTINUOUS
10
2.877213897637795
20
-4.2007442125984253
11
2.8775905511811022
21
-4.200669291338583
0
LINE
8
BLACK
6
CONTINUOUS
10
2.8775905511811022
20
-4.200669291338583
11
3.0114488188976378
21
-4.200669291338583
0
LINE
8
BLACK
6
CONTINUOUS
10
3.0114488188976378
20
-4.200669291338583
11
3.011825472440945
21
-4.2007442125984253
0
LINE
8
BLACK
6
CONTINUOUS
10
2.8785748031496063
20
-4.2026377952755904
11
2.8785748031496063
21
-4.2778346456692908
0
LINE
8
BLACK
6
CONTINUOUS
10
2.8785748031496063
20
-4.2778346456692908
11
3.0104645669291337
21
-4.2778346456692908
0
LINE
8
BLACK
6
CONTINUOUS
10
3.0104645669291337
20
-4.2778346456692908
11
3.0104645669291337
21
-4.2026377952755904
0
LINE
8
BLACK
6
CONTINUOUS
10
3.0104645669291337
20
-4.2026377952755904
11
2.8785748031496063
21
-4.2026377952755904
0
LINE
8
BLACK
6
CONTINUOUS
10
3.907364842519685
20
-3.2736969685039368
11
3.9078975196850392
21
-3.2742296456692914
0
LINE
8
BLACK
6
CONTINUOUS
10
3.9078975196850392
20
-3.2742296456692914
11
3.9079724409448819
21
-3.2746062992125982
0
LINE
8
BLACK
6
CONTINUOUS
10
3.9079724409448819
20
-3.2746062992125982
11
3.9079724409448819
21
-3.3188976377952755
0
LINE
8
BLACK
6
CONTINUOUS
10
3.9079724409448819
20
-3.3188976377952755
11
3.9463582677165352
21
-3.3188976377952755
0
LINE
8
BLACK
6
CONTINUOUS
10
3.9463582677165352
20
-3.3188976377952755
11
3.9467349212598424
21
-3.3189725590551182
0
LINE
8
BLACK
6
CONTINUOUS
10
3.9467349212598424
20
-3.3189725590551182
11
3.9472675984251966
21
-3.3195052362204724
0
LINE
8
BLACK
6
CONTINUOUS
10
3.9472675984251966
20
-3.3195052362204724
11
3.9473425196850394
21
-3.3198818897637796
0
LINE
8
BLACK
6
CONTINUOUS
10
3.9473425196850394
20
-3.3198818897637796
11
3.9473425196850394
21
-3.3631889763779528
0
LINE
8
BLACK
6
CONTINUOUS
10
3.9473425196850394
20
-3.3631889763779528
11
3.9472675984251966
21
-3.36356562992126
0
LINE
8
BLACK
6
CONTINUOUS
10
3.9472675984251966
20
-3.36356562992126
11
3.9467349212598424
21
-3.3640983070866142
0
LINE
8
BLACK
6
CONTINUOUS
10
3.9467349212598424
20
-3.3640983070866142
11
3.9463582677165352
21
-3.3641732283464565
0
LINE
8
BLACK
6
CONTINUOUS
10
3.9463582677165352
20
-3.3641732283464565
11
3.9079724409448819
21
-3.3641732283464565
0
LINE
8
BLACK
6
CONTINUOUS
10
3.9079724409448819
20
-3.3641732283464565
11
3.9079724409448819
21
-3.4084645669291338
0
LINE
8
BLACK
6
CONTINUOUS
10
3.9079724409448819
20
-3.4084645669291338
11
3.9078975196850392
21
-3.408841220472441
0
LINE
8
BLACK
6
CONTINUOUS
10
3.9078975196850392
20
-3.408841220472441
11
3.907364842519685
21
-3.4093738976377952
0
LINE
8
BLACK
6
CONTINUOUS
10
3.907364842519685
20
-3.4093738976377952
11
3.9069881889763778
21
-3.4094488188976375
0
LINE
8
BLACK
6
CONTINUOUS
10
3.9069881889763778
20
-3.4094488188976375
11
3.8243110236220472
21
-3.4094488188976375
0
LINE
8
BLACK
6
CONTINUOUS
10
3.8243110236220472
20
-3.4094488188976375
11
3.82393437007874
21
-3.4093738976377952
0
LINE
8
BLACK
6
CONTINUOUS
10
3.82393437007874
20
-3.4093738976377952
11
3.8234016929133858
21
-3.408841220472441
0
LINE
8
BLACK
6
CONTINUOUS
10
3.8234016929133858
20
-3.408841220472441
11
3.8233267716535431
21
-3.4084645669291338
0
LINE
8
BLACK
6
CONTINUOUS
10
3.8233267716535431
20
-3.4084645669291338
11
3.8233267716535431
21
-3.401574803149606
0
LINE
8
BLACK
6
CONTINUOUS
10
3.8233267716535431
20
-3.401574803149606
11
3.7849409448818898
21
-3.401574803149606
0
LINE
8
BLACK
6
CONTINUOUS
10
3.7849409448818898
20
-3.401574803149606
11
3.7845642913385826
21
-3.4014998818897637
0
LINE
8
BLACK
6
CONTINUOUS
10
3.7845642913385826
20
-3.4014998818897637
11
3.7840316141732284
21
-3.4009672047244095
0
LINE
8
BLACK
6
CONTINUOUS
10
3.7840316141732284
20
-3.4009672047244095
11
3.7839566929133857
21
-3.4005905511811023
0
LINE
8
BLACK
6
CONTINUOUS
10
3.7839566929133857
20
-3.4005905511811023
11
3.7839566929133857
21
-3.3568897637795274
0
LINE
8
BLACK
6
CONTINUOUS
10
3.7839566929133857
20
-3.3568897637795274
11
3.7840316141732284
21
-3.3565131102362202
0
LINE
8
BLACK
6
CONTINUOUS
10
3.7840316141732284
20
-3.3565131102362202
11
3.7845642913385826
21
-3.355980433070866
0
LINE
8
BLACK
6
CONTINUOUS
10
3.7845642913385826
20
-3.355980433070866
11
3.7849409448818898
21
-3.3559055118110237
0
LINE
8
BLACK
6
CONTINUOUS
10
3.7849409448818898
20
-3.3559055118110237
11
3.8233267716535431
21
-3.3559055118110237
0
LINE
8
BLACK
6
CONTINUOUS
10
3.8233267716535431
20
-3.3559055118110237
11
3.8233267716535431
21
-3.3271653543307087
0
LINE
8
BLACK
6
CONTINUOUS
10
3.8233267716535431
20
-3.3271653543307087
11
3.7849409448818898
21
-3.3271653543307087
0
LINE
8
BLACK
6
CONTINUOUS
10
3.7849409448818898
20
-3.3271653543307087
11
3.7845642913385826
21
-3.3270904330708659
0
LINE
8
BLACK
6
CONTINUOUS
10
3.7845642913385826
20
-3.3270904330708659
11
3.7840316141732284
21
-3.3265577559055117
0
LINE
8
BLACK
6
CONTINUOUS
10
3.7840316141732284
20
-3.3265577559055117
11
3.7839566929133857
21
-3.3261811023622045
0
LINE
8
BLACK
6
CONTINUOUS
10
3.7839566929133857
20
-3.3261811023622045
11
3.7839566929133857
21
-3.2824803149606296
0
LINE
8
BLACK
6
CONTINUOUS
10
3.7839566929133857
20
-3.2824803149606296
11
3.7840316141732284
21
-3.2821036614173229
0
LINE
8
BLACK
6
CONTINUOUS
10
3.7840316141732284
20
-3.2821036614173229
11
3.7845642913385826
21
-3.2815709842519682
0
LINE
8
BLACK
6
CONTINUOUS
10
3.7845642913385826
20
-3.2815709842519682
11
3.7849409448818898
21
-3.2814960629921259
0
LINE
8
BLACK
6
CONTINUOUS
10
3.7849409448818898
20
-3.2814960629921259
11
3.8233267716535431
21
-3.2814960629921259
0
LINE
8
BLACK
6
CONTINUOUS
10
3.8233267716535431
20
-3.2814960629921259
11
3.8233267716535431
21
-3.2746062992125982
0
LINE
8
BLACK
6
CONTINUOUS
10
3.8233267716535431
20
-3.2746062992125982
11
3.8234016929133858
21
-3.2742296456692914
0
LINE
8
BLACK
6
CONTINUOUS
10
3.8234016929133858
20
-3.2742296456692914
11
3.82393437007874
21
-3.2736969685039368
0
LINE
8
BLACK
6
CONTINUOUS
10
3.82393437007874
20
-3.2736969685039368
11
3.8243110236220472
21
-3.2736220472440944
0
LINE
8
BLACK
6
CONTINUOUS
10
3.8243110236220472
20
-3.2736220472440944
11
3.9069881889763778
21
-3.2736220472440944
0
LINE
8
BLACK
6
CONTINUOUS
10
3.9069881889763778
20
-3.2736220472440944
11
3.907364842519685
21
-3.2736969685039368
0
LINE
8
BLACK
6
CONTINUOUS
10
3.8252952755905509
20
-3.2755905511811023
11
3.8252952755905509
21
-3.2824803149606296
0
LINE
8
BLACK
6
CONTINUOUS
10
3.8252952755905509
20
-3.2824803149606296
11
3.8252203543307086
21
-3.2828569685039368
0
LINE
8
BLACK
6
CONTINUOUS
10
3.8252203543307086
20
-3.2828569685039368
11
3.8246876771653544
21
-3.2833896456692915
0
LINE
8
BLACK
6
CONTINUOUS
10
3.8246876771653544
20
-3.2833896456692915
11
3.8243110236220472
21
-3.2834645669291338
0
LINE
8
BLACK
6
CONTINUOUS
10
3.8243110236220472
20
-3.2834645669291338
11
3.7859251968503935
21
-3.2834645669291338
0
LINE
8
BLACK
6
CONTINUOUS
10
3.7859251968503935
20
-3.2834645669291338
11
3.7859251968503935
21
-3.3251968503937008
0
LINE
8
BLACK
6
CONTINUOUS
10
3.7859251968503935
20
-3.3251968503937008
11
3.8243110236220472
21
-3.3251968503937008
0
LINE
8
BLACK
6
CONTINUOUS
10
3.8243110236220472
20
-3.3251968503937008
11
3.8246876771653544
21
-3.3252717716535432
0
LINE
8
BLACK
6
CONTINUOUS
10
3.8246876771653544
20
-3.3252717716535432
11
3.8252203543307086
21
-3.3258044488188974
0
LINE
8
BLACK
6
CONTINUOUS
10
3.8252203543307086
20
-3.3258044488188974
11
3.8252952755905509
21
-3.3261811023622045
0
LINE
8
BLACK
6
CONTINUOUS
10
3.8252952755905509
20
-3.3261811023622045
11
3.8252952755905509
21
-3.3568897637795274
0
LINE
8
BLACK
6
CONTINUOUS
10
3.8252952755905509
20
-3.3568897637795274
11
3.8252203543307086
21
-3.3572664173228346
0
LINE
8
BLACK
6
CONTINUOUS
10
3.8252203543307086
20
-3.3572664173228346
11
3.8246876771653544
21
-3.3577990944881888
0
LINE
8
BLACK
6
CONTINUOUS
10
3.8246876771653544
20
-3.3577990944881888
11
3.8243110236220472
21
-3.3578740157480316
0
LINE
8
BLACK
6
CONTINUOUS
10
3.8243110236220472
20
-3.3578740157480316
11
3.7859251968503935
21
-3.3578740157480316
0
LINE
8
BLACK
6
CONTINUOUS
10
3.7859251968503935
20
-3.3578740157480316
11
3.7859251968503935
21
-3.3996062992125982
0
LINE
8
BLACK
6
CONTINUOUS
10
3.7859251968503935
20
-3.3996062992125982
11
3.8243110236220472
21
-3.3996062992125982
0
LINE
8
BLACK
6
CONTINUOUS
10
3.8243110236220472
20
-3.3996062992125982
11
3.8246876771653544
21
-3.3996812204724409
0
LINE
8
BLACK
6
CONTINUOUS
10
3.8246876771653544
20
-3.3996812204724409
11
3.8252203543307086
21
-3.4002138976377951
0
LINE
8
BLACK
6
CONTINUOUS
10
3.8252203543307086
20
-3.4002138976377951
11
3.8252952755905509
21
-3.4005905511811023
0
LINE
8
BLACK
6
CONTINUOUS
10
3.8252952755905509
20
-3.4005905511811023
11
3.8252952755905509
21
-3.4074803149606296
0
LINE
8
BLACK
6
CONTINUOUS
10
3.8252952755905509
20
-3.4074803149606296
11
3.9060039370078741
21
-3.4074803149606296
0
LINE
8
BLACK
6
CONTINUOUS
10
3.9060039370078741
20
-3.4074803149606296
11
3.9060039370078741
21
-3.3631889763779528
0
LINE
8
BLACK
6
CONTINUOUS
10
3.9060039370078741
20
-3.3631889763779528
11
3.9060788582677164
21
-3.3628123228346456
0
LINE
8
BLACK
6
CONTINUOUS
10
3.9060788582677164
20
-3.3628123228346456
11
3.9066115354330706
21
-3.3622796456692914
0
LINE
8
BLACK
6
CONTINUOUS
10
3.9066115354330706
20
-3.3622796456692914
11
3.9069881889763778
21
-3.3622047244094486
0
LINE
8
BLACK
6
CONTINUOUS
10
3.9069881889763778
20
-3.3622047244094486
11
3.9453740157480315
21
-3.3622047244094486
0
LINE
8
BLACK
6
CONTINUOUS
10
3.9453740157480315
20
-3.3622047244094486
11
3.9453740157480315
21
-3.3208661417322833
0
LINE
8
BLACK
6
CONTINUOUS
10
3.9453740157480315
20
-3.3208661417322833
11
3.9069881889763778
21
-3.3208661417322833
0
LINE
8
BLACK
6
CONTINUOUS
10
3.9069881889763778
20
-3.3208661417322833
11
3.9066115354330706
21
-3.320791220472441
0
LINE
8
BLACK
6
CONTINUOUS
10
3.9066115354330706
20
-3.320791220472441
11
3.9060788582677164
21
-3.3202585433070864
0
LINE
8
BLACK
6
CONTINUOUS
10
3.9060788582677164
20
-3.3202585433070864
11
3.9060039370078741
21
-3.3198818897637796
0
LINE
8
BLACK
6
CONTINUOUS
10
3.9060039370078741
20
-3.3198818897637796
11
3.9060039370078741
21
-3.2755905511811023
0
LINE
8
BLACK
6
CONTINUOUS
10
3.9060039370078741
20
-3.2755905511811023
11
3.8252952755905509
21
-3.2755905511811023
0
LINE
8
BLACK
6
CONTINUOUS
10
3.3302979133858268
20
-3.2439725590551181
11
3.330830590551181
21
-3.2445052362204723
0
LINE
8
BLACK
6
CONTINUOUS
10
3.330830590551181
20
-3.2445052362204723
11
3.3309055118110233
21
-3.2448818897637794
0
LINE
8
BLACK
6
CONTINUOUS
10
3.3309055118110233
20
-3.2448818897637794
11
3.3309055118110233
21
-3.3968503937007872
0
LINE
8
BLACK
6
CONTINUOUS
10
3.3309055118110233
20
-3.3968503937007872
11
3.330830590551181
21
-3.3972270472440944
0
LINE
8
BLACK
6
CONTINUOUS
10
3.330830590551181
20
-3.3972270472440944
11
3.3302979133858268
21
-3.3977597244094486
0
LINE
8
BLACK
6
CONTINUOUS
10
3.3302979133858268
20
-3.3977597244094486
11
3.3299212598425196
21
-3.3978346456692914
0
LINE
8
BLACK
6
CONTINUOUS
10
3.3299212598425196
20
-3.3978346456692914
11
3.0283464566929132
21
-3.3978346456692914
0
LINE
8
BLACK
6
CONTINUOUS
10
3.0283464566929132
20
-3.3978346456692914
11
3.0279698031496061
21
-3.3977597244094486
0
LINE
8
BLACK
6
CONTINUOUS
10
3.0279698031496061
20
-3.3977597244094486
11
3.0274371259842519
21
-3.3972270472440944
0
LINE
8
BLACK
6
CONTINUOUS
10
3.0274371259842519
20
-3.3972270472440944
11
3.0273622047244095
21
-3.3968503937007872
0
LINE
8
BLACK
6
CONTINUOUS
10
3.0273622047244095
20
-3.3968503937007872
11
3.0273622047244095
21
-3.2448818897637794
0
LINE
8
BLACK
6
CONTINUOUS
10
3.0273622047244095
20
-3.2448818897637794
11
3.0274371259842519
21
-3.2445052362204723
0
LINE
8
BLACK
6
CONTINUOUS
10
3.0274371259842519
20
-3.2445052362204723
11
3.0279698031496061
21
-3.2439725590551181
0
LINE
8
BLACK
6
CONTINUOUS
10
3.0279698031496061
20
-3.2439725590551181
11
3.0283464566929132
21
-3.2438976377952757
0
LINE
8
BLACK
6
CONTINUOUS
10
3.0283464566929132
20
-3.2438976377952757
11
3.3299212598425196
21
-3.2438976377952757
0
LINE
8
BLACK
6
CONTINUOUS
10
3.3299212598425196
20
-3.2438976377952757
11
3.3302979133858268
21
-3.2439725590551181
0
LINE
8
BLACK
6
CONTINUOUS
10
3.0293307086614174
20
-3.2458661417322836
11
3.0293307086614174
21
-3.3958661417322835
0
LINE
8
BLACK
6
CONTINUOUS
10
3.0293307086614174
20
-3.3958661417322835
11
3.3289370078740155
21
-3.3958661417322835
0
LINE
8
BLACK
6
CONTINUOUS
10
3.3289370078740155
20
-3.3958661417322835
11
3.3289370078740155
21
-3.2458661417322836
0
LINE
8
BLACK
6
CONTINUOUS
10
3.3289370078740155
20
-3.2458661417322836
11
3.0293307086614174
21
-3.2458661417322836
0
LINE
8
BLACK
6
CONTINUOUS
10
3.907364842519685
20
-3.0985001181102363
11
3.9078975196850392
21
-3.0990327952755905
0
LINE
8
BLACK
6
CONTINUOUS
10
3.9078975196850392
20
-3.0990327952755905
11
3.9079724409448819
21
-3.0994094488188977
0
LINE
8
BLACK
6
CONTINUOUS
10
3.9079724409448819
20
-3.0994094488188977
11
3.9079724409448819
21
-3.1437007874015745
0
LINE
8
BLACK
6
CONTINUOUS
10
3.9079724409448819
20
-3.1437007874015745
11
3.9463582677165352
21
-3.1437007874015745
0
LINE
8
BLACK
6
CONTINUOUS
10
3.9463582677165352
20
-3.1437007874015745
11
3.9467349212598424
21
-3.1437757086614173
0
LINE
8
BLACK
6
CONTINUOUS
10
3.9467349212598424
20
-3.1437757086614173
11
3.9472675984251966
21
-3.1443083858267715
0
LINE
8
BLACK
6
CONTINUOUS
10
3.9472675984251966
20
-3.1443083858267715
11
3.9473425196850394
21
-3.1446850393700787
0
LINE
8
BLACK
6
CONTINUOUS
10
3.9473425196850394
20
-3.1446850393700787
11
3.9473425196850394
21
-3.1879921259842519
0
LINE
8
BLACK
6
CONTINUOUS
10
3.9473425196850394
20
-3.1879921259842519
11
3.9472675984251966
21
-3.188368779527559
0
LINE
8
BLACK
6
CONTINUOUS
10
3.9472675984251966
20
-3.188368779527559
11
3.9467349212598424
21
-3.1889014566929132
0
LINE
8
BLACK
6
CONTINUOUS
10
3.9467349212598424
20
-3.1889014566929132
11
3.9463582677165352
21
-3.188976377952756
0
LINE
8
BLACK
6
CONTINUOUS
10
3.9463582677165352
20
-3.188976377952756
11
3.9079724409448819
21
-3.188976377952756
0
LINE
8
BLACK
6
CONTINUOUS
10
3.9079724409448819
20
-3.188976377952756
11
3.9079724409448819
21
-3.2332677165354329
0
LINE
8
BLACK
6
CONTINUOUS
10
3.9079724409448819
20
-3.2332677165354329
11
3.9078975196850392
21
-3.2336443700787401
0
LINE
8
BLACK
6
CONTINUOUS
10
3.9078975196850392
20
-3.2336443700787401
11
3.907364842519685
21
-3.2341770472440943
0
LINE
8
BLACK
6
CONTINUOUS
10
3.907364842519685
20
-3.2341770472440943
11
3.9069881889763778
21
-3.234251968503937
0
LINE
8
BLACK
6
CONTINUOUS
10
3.9069881889763778
20
-3.234251968503937
11
3.8243110236220472
21
-3.234251968503937
0
LINE
8
BLACK
6
CONTINUOUS
10
3.8243110236220472
20
-3.234251968503937
11
3.82393437007874
21
-3.2341770472440943
0
LINE
8
BLACK
6
CONTINUOUS
10
3.82393437007874
20
-3.2341770472440943
11
3.8234016929133858
21
-3.2336443700787401
0
LINE
8
BLACK
6
CONTINUOUS
10
3.8234016929133858
20
-3.2336443700787401
11
3.8233267716535431
21
-3.2332677165354329
0
LINE
8
BLACK
6
CONTINUOUS
10
3.8233267716535431
20
-3.2332677165354329
11
3.8233267716535431
21
-3.2263779527559056
0
LINE
8
BLACK
6
CONTINUOUS
10
3.8233267716535431
20
-3.2263779527559056
11
3.7849409448818898
21
-3.2263779527559056
0
LINE
8
BLACK
6
CONTINUOUS
10
3.7849409448818898
20
-3.2263779527559056
11
3.7845642913385826
21
-3.2263030314960628
0
LINE
8
BLACK
6
CONTINUOUS
10
3.7845642913385826
20
-3.2263030314960628
11
3.7840316141732284
21
-3.2257703543307086
0
LINE
8
BLACK
6
CONTINUOUS
10
3.7840316141732284
20
-3.2257703543307086
11
3.7839566929133857
21
-3.2253937007874014
0
LINE
8
BLACK
6
CONTINUOUS
10
3.7839566929133857
20
-3.2253937007874014
11
3.7839566929133857
21
-3.1816929133858265
0
LINE
8
BLACK
6
CONTINUOUS
10
3.7839566929133857
20
-3.1816929133858265
11
3.7840316141732284
21
-3.1813162598425198
0
LINE
8
BLACK
6
CONTINUOUS
10
3.7840316141732284
20
-3.1813162598425198
11
3.7845642913385826
21
-3.1807835826771651
0
LINE
8
BLACK
6
CONTINUOUS
10
3.7845642913385826
20
-3.1807835826771651
11
3.7849409448818898
21
-3.1807086614173228
0
LINE
8
BLACK
6
CONTINUOUS
10
3.7849409448818898
20
-3.1807086614173228
11
3.8233267716535431
21
-3.1807086614173228
0
LINE
8
BLACK
6
CONTINUOUS
10
3.8233267716535431
20
-3.1807086614173228
11
3.8233267716535431
21
-3.1519685039370078
0
LINE
8
BLACK
6
CONTINUOUS
10
3.8233267716535431
20
-3.1519685039370078
11
3.7849409448818898
21
-3.1519685039370078
0
LINE
8
BLACK
6
CONTINUOUS
10
3.7849409448818898
20
-3.1519685039370078
11
3.7845642913385826
21
-3.1518935826771655
0
LINE
8
BLACK
6
CONTINUOUS
10
3.7845642913385826
20
-3.1518935826771655
11
3.7840316141732284
21
-3.1513609055118108
0
LINE
8
BLACK
6
CONTINUOUS
10
3.7840316141732284
20
-3.1513609055118108
11
3.7839566929133857
21
-3.1509842519685041
0
LINE
8
BLACK
6
CONTINUOUS
10
3.7839566929133857
20
-3.1509842519685041
11
3.7839566929133857
21
-3.1072834645669292
0
LINE
8
BLACK
6
CONTINUOUS
10
3.7839566929133857
20
-3.1072834645669292
11
3.7840316141732284
21
-3.106906811023622
0
LINE
8
BLACK
6
CONTINUOUS
10
3.7840316141732284
20
-3.106906811023622
11
3.7845642913385826
21
-3.1063741338582678
0
LINE
8
BLACK
6
CONTINUOUS
10
3.7845642913385826
20
-3.1063741338582678
11
3.7849409448818898
21
-3.106299212598425
0
LINE
8
BLACK
6
CONTINUOUS
10
3.7849409448818898
20
-3.106299212598425
11
3.8233267716535431
21
-3.106299212598425
0
LINE
8
BLACK
6
CONTINUOUS
10
3.8233267716535431
20
-3.106299212598425
11
3.8233267716535431
21
-3.0994094488188977
0
LINE
8
BLACK
6
CONTINUOUS
10
3.8233267716535431
20
-3.0994094488188977
11
3.8234016929133858
21
-3.0990327952755905
0
LINE
8
BLACK
6
CONTINUOUS
10
3.8234016929133858
20
-3.0990327952755905
11
3.82393437007874
21
-3.0985001181102363
0
LINE
8
BLACK
6
CONTINUOUS
10
3.82393437007874
20
-3.0985001181102363
11
3.8243110236220472
21
-3.0984251968503935
0
LINE
8
BLACK
6
CONTINUOUS
10
3.8243110236220472
20
-3.0984251968503935
11
3.9069881889763778
21
-3.0984251968503935
0
LINE
8
BLACK
6
CONTINUOUS
10
3.9069881889763778
20
-3.0984251968503935
11
3.907364842519685
21
-3.0985001181102363
0
LINE
8
BLACK
6
CONTINUOUS
10
3.8252952755905509
20
-3.1003937007874014
11
3.8252952755905509
21
-3.1072834645669292
0
LINE
8
BLACK
6
CONTINUOUS
10
3.8252952755905509
20
-3.1072834645669292
11
3.8252203543307086
21
-3.1076601181102363
0
LINE
8
BLACK
6
CONTINUOUS
10
3.8252203543307086
20
-3.1076601181102363
11
3.8246876771653544
21
-3.1081927952755906
0
LINE
8
BLACK
6
CONTINUOUS
10
3.8246876771653544
20
-3.1081927952755906
11
3.8243110236220472
21
-3.1082677165354329
0
LINE
8
BLACK
6
CONTINUOUS
10
3.8243110236220472
20
-3.1082677165354329
11
3.7859251968503935
21
-3.1082677165354329
0
LINE
8
BLACK
6
CONTINUOUS
10
3.7859251968503935
20
-3.1082677165354329
11
3.7859251968503935
21
-3.1499999999999999
0
LINE
8
BLACK
6
CONTINUOUS
10
3.7859251968503935
20
-3.1499999999999999
11
3.8243110236220472
21
-3.1499999999999999
0
LINE
8
BLACK
6
CONTINUOUS
10
3.8243110236220472
20
-3.1499999999999999
11
3.8246876771653544
21
-3.1500749212598422
0
LINE
8
BLACK
6
CONTINUOUS
10
3.8246876771653544
20
-3.1500749212598422
11
3.8252203543307086
21
-3.1506075984251969
0
LINE
8
BLACK
6
CONTINUOUS
10
3.8252203543307086
20
-3.1506075984251969
11
3.8252952755905509
21
-3.1509842519685041
0
LINE
8
BLACK
6
CONTINUOUS
10
3.8252952755905509
20
-3.1509842519685041
11
3.8252952755905509
21
-3.1816929133858265
0
LINE
8
BLACK
6
CONTINUOUS
10
3.8252952755905509
20
-3.1816929133858265
11
3.8252203543307086
21
-3.1820695669291337
0
LINE
8
BLACK
6
CONTINUOUS
10
3.8252203543307086
20
-3.1820695669291337
11
3.8246876771653544
21
-3.1826022440944883
0
LINE
8
BLACK
6
CONTINUOUS
10
3.8246876771653544
20
-3.1826022440944883
11
3.8243110236220472
21
-3.1826771653543307
0
LINE
8
BLACK
6
CONTINUOUS
10
3.8243110236220472
20
-3.1826771653543307
11
3.7859251968503935
21
-3.1826771653543307
0
LINE
8
BLACK
6
CONTINUOUS
10
3.7859251968503935
20
-3.1826771653543307
11
3.7859251968503935
21
-3.2244094488188977
0
LINE
8
BLACK
6
CONTINUOUS
10
3.7859251968503935
20
-3.2244094488188977
11
3.8243110236220472
21
-3.2244094488188977
0
LINE
8
BLACK
6
CONTINUOUS
10
3.8243110236220472
20
-3.2244094488188977
11
3.8246876771653544
21
-3.22448437007874
0
LINE
8
BLACK
6
CONTINUOUS
10
3.8246876771653544
20
-3.22448437007874
11
3.8252203543307086
21
-3.2250170472440942
0
LINE
8
BLACK
6
CONTINUOUS
10
3.8252203543307086
20
-3.2250170472440942
11
3.8252952755905509
21
-3.2253937007874014
0
LINE
8
BLACK
6
CONTINUOUS
10
3.8252952755905509
20
-3.2253937007874014
11
3.8252952755905509
21
-3.2322834645669292
0
LINE
8
BLACK
6
CONTINUOUS
10
3.8252952755905509
20
-3.2322834645669292
11
3.9060039370078741
21
-3.2322834645669292
0
LINE
8
BLACK
6
CONTINUOUS
10
3.9060039370078741
20
-3.2322834645669292
11
3.9060039370078741
21
-3.1879921259842519
0
LINE
8
BLACK
6
CONTINUOUS
10
3.9060039370078741
20
-3.1879921259842519
11
3.9060788582677164
21
-3.1876154724409447
0
LINE
8
BLACK
6
CONTINUOUS
10
3.9060788582677164
20
-3.1876154724409447
11
3.9066115354330706
21
-3.1870827952755905
0
LINE
8
BLACK
6
CONTINUOUS
10
3.9066115354330706
20
-3.1870827952755905
11
3.9069881889763778
21
-3.1870078740157481
0
LINE
8
BLACK
6
CONTINUOUS
10
3.9069881889763778
20
-3.1870078740157481
11
3.9453740157480315
21
-3.1870078740157481
0
LINE
8
BLACK
6
CONTINUOUS
10
3.9453740157480315
20
-3.1870078740157481
11
3.9453740157480315
21
-3.1456692913385824
0
LINE
8
BLACK
6
CONTINUOUS
10
3.9453740157480315
20
-3.1456692913385824
11
3.9069881889763778
21
-3.1456692913385824
0
LINE
8
BLACK
6
CONTINUOUS
10
3.9069881889763778
20
-3.1456692913385824
11
3.9066115354330706
21
-3.1455943700787401
0
LINE
8
BLACK
6
CONTINUOUS
10
3.9066115354330706
20
-3.1455943700787401
11
3.9060788582677164
21
-3.1450616929133859
0
LINE
8
BLACK
6
CONTINUOUS
10
3.9060788582677164
20
-3.1450616929133859
11
3.9060039370078741
21
-3.1446850393700787
0
LINE
8
BLACK
6
CONTINUOUS
10
3.9060039370078741
20
-3.1446850393700787
11
3.9060039370078741
21
-3.1003937007874014
0
LINE
8
BLACK
6
CONTINUOUS
10
3.9060039370078741
20
-3.1003937007874014
11
3.8252952755905509
21
-3.1003937007874014
0
LINE
8
BLACK
6
CONTINUOUS
10
3.1736049999999998
20
-3.0476142913385824
11
3.1741376771653544
21
-3.0481469685039371
0
LINE
8
BLACK
6
CONTINUOUS
10
3.1741376771653544
20
-3.0481469685039371
11
3.1742125984251968
21
-3.0485236220472438
0
LINE
8
BLACK
6
CONTINUOUS
10
3.1742125984251968
20
-3.0485236220472438
11
3.1742125984251968
21
-3.1808070866141733
0
LINE
8
BLACK
6
CONTINUOUS
10
3.1742125984251968
20
-3.1808070866141733
11
3.1741376771653544
21
-3.1811837401574801
0
LINE
8
BLACK
6
CONTINUOUS
10
3.1741376771653544
20
-3.1811837401574801
11
3.1736049999999998
21
-3.1817164173228347
0
LINE
8
BLACK
6
CONTINUOUS
10
3.1736049999999998
20
-3.1817164173228347
11
3.173228346456693
21
-3.181791338582677
0
LINE
8
BLACK
6
CONTINUOUS
10
3.173228346456693
20
-3.181791338582677
11
3.0984251968503935
21
-3.181791338582677
0
LINE
8
BLACK
6
CONTINUOUS
10
3.0984251968503935
20
-3.181791338582677
11
3.0980485433070863
21
-3.1817164173228347
0
LINE
8
BLACK
6
CONTINUOUS
10
3.0980485433070863
20
-3.1817164173228347
11
3.0975158661417321
21
-3.1811837401574801
0
LINE
8
BLACK
6
CONTINUOUS
10
3.0975158661417321
20
-3.1811837401574801
11
3.0974409448818898
21
-3.1808070866141733
0
LINE
8
BLACK
6
CONTINUOUS
10
3.0974409448818898
20
-3.1808070866141733
11
3.0974409448818898
21
-3.0485236220472438
0
LINE
8
BLACK
6
CONTINUOUS
10
3.0974409448818898
20
-3.0485236220472438
11
3.0975158661417321
21
-3.0481469685039371
0
LINE
8
BLACK
6
CONTINUOUS
10
3.0975158661417321
20
-3.0481469685039371
11
3.0980485433070863
21
-3.0476142913385824
0
LINE
8
BLACK
6
CONTINUOUS
10
3.0980485433070863
20
-3.0476142913385824
11
3.0984251968503935
21
-3.0475393700787401
0
LINE
8
BLACK
6
CONTINUOUS
10
3.0984251968503935
20
-3.0475393700787401
11
3.173228346456693
21
-3.0475393700787401
0
LINE
8
BLACK
6
CONTINUOUS
10
3.173228346456693
20
-3.0475393700787401
11
3.1736049999999998
21
-3.0476142913385824
0
LINE
8
BLACK
6
CONTINUOUS
10
3.0994094488188977
20
-3.049507874015748
11
3.0994094488188977
21
-3.1798228346456692
0
LINE
8
BLACK
6
CONTINUOUS
10
3.0994094488188977
20
-3.1798228346456692
11
3.1722440944881889
21
-3.1798228346456692
0
LINE
8
BLACK
6
CONTINUOUS
10
3.1722440944881889
20
-3.1798228346456692
11
3.1722440944881889
21
-3.049507874015748
0
LINE
8
BLACK
6
CONTINUOUS
10
3.1722440944881889
20
-3.049507874015748
11
3.0994094488188977
21
-3.049507874015748
0
LINE
8
BLACK
6
CONTINUOUS
10
3.2602191732283465
20
-3.0471221653543306
11
3.2607518503937007
21
-3.0476548425196848
0
LINE
8
BLACK
6
CONTINUOUS
10
3.2607518503937007
20
-3.0476548425196848
11
3.2608267716535431
21
-3.048031496062992
0
LINE
8
BLACK
6
CONTINUOUS
10
3.2608267716535431
20
-3.048031496062992
11
3.2608267716535431
21
-3.180314960629921
0
LINE
8
BLACK
6
CONTINUOUS
10
3.2608267716535431
20
-3.180314960629921
11
3.2607518503937007
21
-3.1806916141732282
0
LINE
8
BLACK
6
CONTINUOUS
10
3.2607518503937007
20
-3.1806916141732282
11
3.2602191732283465
21
-3.1812242913385824
0
LINE
8
BLACK
6
CONTINUOUS
10
3.2602191732283465
20
-3.1812242913385824
11
3.2598425196850394
21
-3.1812992125984252
0
LINE
8
BLACK
6
CONTINUOUS
10
3.2598425196850394
20
-3.1812992125984252
11
3.1850393700787403
21
-3.1812992125984252
0
LINE
8
BLACK
6
CONTINUOUS
10
3.1850393700787403
20
-3.1812992125984252
11
3.1846627165354331
21
-3.1812242913385824
0
LINE
8
BLACK
6
CONTINUOUS
10
3.1846627165354331
20
-3.1812242913385824
11
3.1841300393700789
21
-3.1806916141732282
0
LINE
8
BLACK
6
CONTINUOUS
10
3.1841300393700789
20
-3.1806916141732282
11
3.1840551181102361
21
-3.180314960629921
0
LINE
8
BLACK
6
CONTINUOUS
10
3.1840551181102361
20
-3.180314960629921
11
3.1840551181102361
21
-3.048031496062992
0
LINE
8
BLACK
6
CONTINUOUS
10
3.1840551181102361
20
-3.048031496062992
11
3.1841300393700789
21
-3.0476548425196848
0
LINE
8
BLACK
6
CONTINUOUS
10
3.1841300393700789
20
-3.0476548425196848
11
3.1846627165354331
21
-3.0471221653543306
0
LINE
8
BLACK
6
CONTINUOUS
10
3.1846627165354331
20
-3.0471221653543306
11
3.1850393700787403
21
-3.0470472440944882
0
LINE
8
BLACK
6
CONTINUOUS
10
3.1850393700787403
20
-3.0470472440944882
11
3.2598425196850394
21
-3.0470472440944882
0
LINE
8
BLACK
6
CONTINUOUS
10
3.2598425196850394
20
-3.0470472440944882
11
3.2602191732283465
21
-3.0471221653543306
0
LINE
8
BLACK
6
CONTINUOUS
10
3.186023622047244
20
-3.0490157480314961
11
3.186023622047244
21
-3.1793307086614173
0
LINE
8
BLACK
6
CONTINUOUS
10
3.186023622047244
20
-3.1793307086614173
11
3.2588582677165352
21
-3.1793307086614173
0
LINE
8
BLACK
6
CONTINUOUS
10
3.2588582677165352
20
-3.1793307086614173
11
3.2588582677165352
21
-3.0490157480314961
0
LINE
8
BLACK
6
CONTINUOUS
10
3.2588582677165352
20
-3.0490157480314961
11
3.186023622047244
21
-3.0490157480314961
0
LINE
8
BLACK
6
CONTINUOUS
10
6.2430853149606298
20
-2.9468387007874015
11
6.2436179921259845
21
-2.9473713779527557
0
LINE
8
BLACK
6
CONTINUOUS
10
6.2436179921259845
20
-2.9473713779527557
11
6.2436929133858268
21
-2.9477480314960629
0
LINE
8
BLACK
6
CONTINUOUS
10
6.2436929133858268
20
-2.9477480314960629
11
6.2436929133858268
21
-3.1658582677165352
0
LINE
8
BLACK
6
CONTINUOUS
10
6.2436929133858268
20
-3.1658582677165352
11
6.2436179921259845
21
-3.1662349212598424
0
LINE
8
BLACK
6
CONTINUOUS
10
6.2436179921259845
20
-3.1662349212598424
11
6.2430853149606298
21
-3.1667675984251966
0
LINE
8
BLACK
6
CONTINUOUS
10
6.2430853149606298
20
-3.1667675984251966
11
6.2427086614173231
21
-3.1668425196850394
0
LINE
8
BLACK
6
CONTINUOUS
10
6.2427086614173231
20
-3.1668425196850394
11
5.8049133858267714
21
-3.1668425196850394
0
LINE
8
BLACK
6
CONTINUOUS
10
5.8049133858267714
20
-3.1668425196850394
11
5.8045367322834647
21
-3.1667675984251966
0
LINE
8
BLACK
6
CONTINUOUS
10
5.8045367322834647
20
-3.1667675984251966
11
5.80400405511811
21
-3.1662349212598424
0
LINE
8
BLACK
6
CONTINUOUS
10
5.80400405511811
20
-3.1662349212598424
11
5.8039291338582677
21
-3.1658582677165352
0
LINE
8
BLACK
6
CONTINUOUS
10
5.8039291338582677
20
-3.1658582677165352
11
5.8039291338582677
21
-2.9477480314960629
0
LINE
8
BLACK
6
CONTINUOUS
10
5.8039291338582677
20
-2.9477480314960629
11
5.80400405511811
21
-2.9473713779527557
0
LINE
8
BLACK
6
CONTINUOUS
10
5.80400405511811
20
-2.9473713779527557
11
5.8045367322834647
21
-2.9468387007874015
0
LINE
8
BLACK
6
CONTINUOUS
10
5.8045367322834647
20
-2.9468387007874015
11
5.8049133858267714
21
-2.9467637795275592
0
LINE
8
BLACK
6
CONTINUOUS
10
5.8049133858267714
20
-2.9467637795275592
11
6.2427086614173231
21
-2.9467637795275592
0
LINE
8
BLACK
6
CONTINUOUS
10
6.2427086614173231
20
-2.9467637795275592
11
6.2430853149606298
21
-2.9468387007874015
0
LINE
8
BLACK
6
CONTINUOUS
10
5.8058976377952751
20
-2.9487322834645671
11
5.8058976377952751
21
-3.1648740157480315
0
LINE
8
BLACK
6
CONTINUOUS
10
5.8058976377952751
20
-3.1648740157480315
11
6.2417244094488185
21
-3.1648740157480315
0
LINE
8
BLACK
6
CONTINUOUS
10
6.2417244094488185
20
-3.1648740157480315
11
6.2417244094488185
21
-2.9487322834645671
0
LINE
8
BLACK
6
CONTINUOUS
10
6.2417244094488185
20
-2.9487322834645671
11
5.8058976377952751
21
-2.9487322834645671
0
LINE
8
BLACK
6
CONTINUOUS
10
4.2269514566929134
20
-3.0079489370078738
11
4.227484133858268
21
-3.0084816141732285
0
LINE
8
BLACK
6
CONTINUOUS
10
4.227484133858268
20
-3.0084816141732285
11
4.2275590551181104
21
-3.0088582677165352
0
LINE
8
BLACK
6
CONTINUOUS
10
4.2275590551181104
20
-3.0088582677165352
11
4.2275590551181104
21
-3.0836614173228347
0
LINE
8
BLACK
6
CONTINUOUS
10
4.2275590551181104
20
-3.0836614173228347
11
4.227484133858268
21
-3.0840380708661415
0
LINE
8
BLACK
6
CONTINUOUS
10
4.227484133858268
20
-3.0840380708661415
11
4.2269514566929134
21
-3.0845707480314961
0
LINE
8
BLACK
6
CONTINUOUS
10
4.2269514566929134
20
-3.0845707480314961
11
4.2265748031496058
21
-3.0846456692913384
0
LINE
8
BLACK
6
CONTINUOUS
10
4.2265748031496058
20
-3.0846456692913384
11
4.0942913385826767
21
-3.0846456692913384
0
LINE
8
BLACK
6
CONTINUOUS
10
4.0942913385826767
20
-3.0846456692913384
11
4.0939146850393699
21
-3.0845707480314961
0
LINE
8
BLACK
6
CONTINUOUS
10
4.0939146850393699
20
-3.0845707480314961
11
4.0933820078740153
21
-3.0840380708661415
0
LINE
8
BLACK
6
CONTINUOUS
10
4.0933820078740153
20
-3.0840380708661415
11
4.093307086614173
21
-3.0836614173228347
0
LINE
8
BLACK
6
CONTINUOUS
10
4.093307086614173
20
-3.0836614173228347
11
4.093307086614173
21
-3.0088582677165352
0
LINE
8
BLACK
6
CONTINUOUS
10
4.093307086614173
20
-3.0088582677165352
11
4.0933820078740153
21
-3.0084816141732285
0
LINE
8
BLACK
6
CONTINUOUS
10
4.0933820078740153
20
-3.0084816141732285
11
4.0939146850393699
21
-3.0079489370078738
0
LINE
8
BLACK
6
CONTINUOUS
10
4.0939146850393699
20
-3.0079489370078738
11
4.0942913385826767
21
-3.0078740157480315
0
LINE
8
BLACK
6
CONTINUOUS
10
4.0942913385826767
20
-3.0078740157480315
11
4.2265748031496058
21
-3.0078740157480315
0
LINE
8
BLACK
6
CONTINUOUS
10
4.2265748031496058
20
-3.0078740157480315
11
4.2269514566929134
21
-3.0079489370078738
0
LINE
8
BLACK
6
CONTINUOUS
10
4.0952755905511813
20
-3.0098425196850394
11
4.0952755905511813
21
-3.0826771653543306
0
LINE
8
BLACK
6
CONTINUOUS
10
4.0952755905511813
20
-3.0826771653543306
11
4.2255905511811021
21
-3.0826771653543306
0
LINE
8
BLACK
6
CONTINUOUS
10
4.2255905511811021
20
-3.0826771653543306
11
4.2255905511811021
21
-3.0098425196850394
0
LINE
8
BLACK
6
CONTINUOUS
10
4.2255905511811021
20
-3.0098425196850394
11
4.0952755905511813
21
-3.0098425196850394
0
LINE
8
BLACK
6
CONTINUOUS
10
2.9708490944881891
20
-2.9664135039370079
11
2.9713817716535433
21
-2.9669461811023621
0
LINE
8
BLACK
6
CONTINUOUS
10
2.9713817716535433
20
-2.9669461811023621
11
2.9714566929133857
21
-2.9673228346456693
0
LINE
8
BLACK
6
CONTINUOUS
10
2.9714566929133857
20
-2.9673228346456693
11
2.9714566929133857
21
-3.044488188976378
0
LINE
8
BLACK
6
CONTINUOUS
10
2.9714566929133857
20
-3.044488188976378
11
2.9713817716535433
21
-3.0448648425196851
0
LINE
8
BLACK
6
CONTINUOUS
10
2.9713817716535433
20
-3.0448648425196851
11
2.9708490944881891
21
-3.0453975196850394
0
LINE
8
BLACK
6
CONTINUOUS
10
2.9708490944881891
20
-3.0453975196850394
11
2.9704724409448819
21
-3.0454724409448817
0
LINE
8
BLACK
6
CONTINUOUS
10
2.9704724409448819
20
-3.0454724409448817
11
2.8366141732283463
21
-3.0454724409448817
0
LINE
8
BLACK
6
CONTINUOUS
10
2.8366141732283463
20
-3.0454724409448817
11
2.8362375196850391
21
-3.0453975196850394
0
LINE
8
BLACK
6
CONTINUOUS
10
2.8362375196850391
20
-3.0453975196850394
11
2.8357048425196849
21
-3.0448648425196851
0
LINE
8
BLACK
6
CONTINUOUS
10
2.8357048425196849
20
-3.0448648425196851
11
2.8356299212598426
21
-3.044488188976378
0
LINE
8
BLACK
6
CONTINUOUS
10
2.8356299212598426
20
-3.044488188976378
11
2.8356299212598426
21
-2.9673228346456693
0
LINE
8
BLACK
6
CONTINUOUS
10
2.8356299212598426
20
-2.9673228346456693
11
2.8357048425196849
21
-2.9669461811023621
0
LINE
8
BLACK
6
CONTINUOUS
10
2.8357048425196849
20
-2.9669461811023621
11
2.8362375196850391
21
-2.9664135039370079
0
LINE
8
BLACK
6
CONTINUOUS
10
2.8362375196850391
20
-2.9664135039370079
11
2.8366141732283463
21
-2.9663385826771651
0
LINE
8
BLACK
6
CONTINUOUS
10
2.8366141732283463
20
-2.9663385826771651
11
2.9704724409448819
21
-2.9663385826771651
0
LINE
8
BLACK
6
CONTINUOUS
10
2.9704724409448819
20
-2.9663385826771651
11
2.9708490944881891
21
-2.9664135039370079
0
LINE
8
BLACK
6
CONTINUOUS
10
2.8375984251968505
20
-2.968307086614173
11
2.8375984251968505
21
-3.0435039370078738
0
LINE
8
BLACK
6
CONTINUOUS
10
2.8375984251968505
20
-3.0435039370078738
11
2.9694881889763778
21
-3.0435039370078738
0
LINE
8
BLACK
6
CONTINUOUS
10
2.9694881889763778
20
-3.0435039370078738
11
2.9694881889763778
21
-2.968307086614173
0
LINE
8
BLACK
6
CONTINUOUS
10
2.9694881889763778
20
-2.968307086614173
11
2.8375984251968505
21
-2.968307086614173
0
LINE
8
BLACK
6
CONTINUOUS
10
3.2464396456692914
20
-2.887673346456693
11
3.2469723228346457
21
-2.8882060236220473
0
LINE
8
BLACK
6
CONTINUOUS
10
3.2469723228346457
20
-2.8882060236220473
11
3.247047244094488
21
-2.8885826771653544
0
LINE
8
BLACK
6
CONTINUOUS
10
3.247047244094488
20
-2.8885826771653544
11
3.247047244094488
21
-2.9657480314960631
0
LINE
8
BLACK
6
CONTINUOUS
10
3.247047244094488
20
-2.9657480314960631
11
3.2469723228346457
21
-2.9661246850393699
0
LINE
8
BLACK
6
CONTINUOUS
10
3.2469723228346457
20
-2.9661246850393699
11
3.2467584251968504
21
-2.9663385826771651
0
LINE
8
BLACK
6
CONTINUOUS
10
3.2467584251968504
20
-2.9663385826771651
11
3.326771653543307
21
-2.9663385826771651
0
LINE
8
BLACK
6
CONTINUOUS
10
3.326771653543307
20
-2.9663385826771651
11
3.3271483070866141
21
-2.9664135039370079
0
LINE
8
BLACK
6
CONTINUOUS
10
3.3271483070866141
20
-2.9664135039370079
11
3.3276809842519683
21
-2.9669461811023621
0
LINE
8
BLACK
6
CONTINUOUS
10
3.3276809842519683
20
-2.9669461811023621
11
3.3277559055118111
21
-2.9673228346456693
0
LINE
8
BLACK
6
CONTINUOUS
10
3.3277559055118111
20
-2.9673228346456693
11
3.3277559055118111
21
-3.044488188976378
0
LINE
8
BLACK
6
CONTINUOUS
10
3.3277559055118111
20
-3.044488188976378
11
3.3276809842519683
21
-3.0448648425196851
0
LINE
8
BLACK
6
CONTINUOUS
10
3.3276809842519683
20
-3.0448648425196851
11
3.3271483070866141
21
-3.0453975196850394
0
LINE
8
BLACK
6
CONTINUOUS
10
3.3271483070866141
20
-3.0453975196850394
11
3.326771653543307
21
-3.0454724409448817
0
LINE
8
BLACK
6
CONTINUOUS
10
3.326771653543307
20
-3.0454724409448817
11
3.1929133858267718
21
-3.0454724409448817
0
LINE
8
BLACK
6
CONTINUOUS
10
3.1929133858267718
20
-3.0454724409448817
11
3.1925367322834646
21
-3.0453975196850394
0
LINE
8
BLACK
6
CONTINUOUS
10
3.1925367322834646
20
-3.0453975196850394
11
3.1920040551181104
21
-3.0448648425196851
0
LINE
8
BLACK
6
CONTINUOUS
10
3.1920040551181104
20
-3.0448648425196851
11
3.1919291338582676
21
-3.044488188976378
0
LINE
8
BLACK
6
CONTINUOUS
10
3.1919291338582676
20
-3.044488188976378
11
3.1919291338582676
21
-2.9673228346456693
0
LINE
8
BLACK
6
CONTINUOUS
10
3.1919291338582676
20
-2.9673228346456693
11
3.1920040551181104
21
-2.9669461811023621
0
LINE
8
BLACK
6
CONTINUOUS
10
3.1920040551181104
20
-2.9669461811023621
11
3.1922179527559056
21
-2.9667322834645669
0
LINE
8
BLACK
6
CONTINUOUS
10
3.1922179527559056
20
-2.9667322834645669
11
3.1680182677165352
21
-2.9667322834645669
0
LINE
8
BLACK
6
CONTINUOUS
10
3.1680182677165352
20
-2.9667322834645669
11
3.1682321653543308
21
-2.9669461811023621
0
LINE
8
BLACK
6
CONTINUOUS
10
3.1682321653543308
20
-2.9669461811023621
11
3.1683070866141732
21
-2.9673228346456693
0
LINE
8
BLACK
6
CONTINUOUS
10
3.1683070866141732
20
-2.9673228346456693
11
3.1683070866141732
21
-3.044488188976378
0
LINE
8
BLACK
6
CONTINUOUS
10
3.1683070866141732
20
-3.044488188976378
11
3.1682321653543308
21
-3.0448648425196851
0
LINE
8
BLACK
6
CONTINUOUS
10
3.1682321653543308
20
-3.0448648425196851
11
3.1676994881889762
21
-3.0453975196850394
0
LINE
8
BLACK
6
CONTINUOUS
10
3.1676994881889762
20
-3.0453975196850394
11
3.1673228346456694
21
-3.0454724409448817
0
LINE
8
BLACK
6
CONTINUOUS
10
3.1673228346456694
20
-3.0454724409448817
11
3.0334645669291338
21
-3.0454724409448817
0
LINE
8
BLACK
6
CONTINUOUS
10
3.0334645669291338
20
-3.0454724409448817
11
3.0330879133858266
21
-3.0453975196850394
0
LINE
8
BLACK
6
CONTINUOUS
10
3.0330879133858266
20
-3.0453975196850394
11
3.0325552362204724
21
-3.0448648425196851
0
LINE
8
BLACK
6
CONTINUOUS
10
3.0325552362204724
20
-3.0448648425196851
11
3.0324803149606296
21
-3.044488188976378
0
LINE
8
BLACK
6
CONTINUOUS
10
3.0324803149606296
20
-3.044488188976378
11
3.0324803149606296
21
-2.9673228346456693
0
LINE
8
BLACK
6
CONTINUOUS
10
3.0324803149606296
20
-2.9673228346456693
11
3.0325552362204724
21
-2.9669461811023621
0
LINE
8
BLACK
6
CONTINUOUS
10
3.0325552362204724
20
-2.9669461811023621
11
3.0330879133858266
21
-2.9664135039370079
0
LINE
8
BLACK
6
CONTINUOUS
10
3.0330879133858266
20
-2.9664135039370079
11
3.0334645669291338
21
-2.9663385826771651
0
LINE
8
BLACK
6
CONTINUOUS
10
3.0334645669291338
20
-2.9663385826771651
11
3.1115092913385825
21
-2.9663385826771651
0
LINE
8
BLACK
6
CONTINUOUS
10
3.1115092913385825
20
-2.9663385826771651
11
3.1112953937007872
21
-2.9661246850393699
0
LINE
8
BLACK
6
CONTINUOUS
10
3.1112953937007872
20
-2.9661246850393699
11
3.1112204724409449
21
-2.9657480314960631
0
LINE
8
BLACK
6
CONTINUOUS
10
3.1112204724409449
20
-2.9657480314960631
11
3.1112204724409449
21
-2.8885826771653544
0
LINE
8
BLACK
6
CONTINUOUS
10
3.1112204724409449
20
-2.8885826771653544
11
3.1112953937007872
21
-2.8882060236220473
0
LINE
8
BLACK
6
CONTINUOUS
10
3.1112953937007872
20
-2.8882060236220473
11
3.1118280708661419
21
-2.887673346456693
0
LINE
8
BLACK
6
CONTINUOUS
10
3.1118280708661419
20
-2.887673346456693
11
3.1122047244094486
21
-2.8875984251968503
0
LINE
8
BLACK
6
CONTINUOUS
10
3.1122047244094486
20
-2.8875984251968503
11
3.2460629921259843
21
-2.8875984251968503
0
LINE
8
BLACK
6
CONTINUOUS
10
3.2460629921259843
20
-2.8875984251968503
11
3.2464396456692914
21
-2.887673346456693
0
LINE
8
BLACK
6
CONTINUOUS
10
3.1938976377952755
20
-2.968307086614173
11
3.1938976377952755
21
-3.0435039370078738
0
LINE
8
BLACK
6
CONTINUOUS
10
3.1938976377952755
20
-3.0435039370078738
11
3.3257874015748032
21
-3.0435039370078738
0
LINE
8
BLACK
6
CONTINUOUS
10
3.3257874015748032
20
-3.0435039370078738
11
3.3257874015748032
21
-2.968307086614173
0
LINE
8
BLACK
6
CONTINUOUS
10
3.3257874015748032
20
-2.968307086614173
11
3.1938976377952755
21
-2.968307086614173
0
LINE
8
BLACK
6
CONTINUOUS
10
3.0344488188976375
20
-2.968307086614173
11
3.0344488188976375
21
-3.0435039370078738
0
LINE
8
BLACK
6
CONTINUOUS
10
3.0344488188976375
20
-3.0435039370078738
11
3.1663385826771653
21
-3.0435039370078738
0
LINE
8
BLACK
6
CONTINUOUS
10
3.1663385826771653
20
-3.0435039370078738
11
3.1663385826771653
21
-2.968307086614173
0
LINE
8
BLACK
6
CONTINUOUS
10
3.1663385826771653
20
-2.968307086614173
11
3.0344488188976375
21
-2.968307086614173
0
LINE
8
BLACK
6
CONTINUOUS
10
3.1131889763779528
20
-2.8895669291338582
11
3.1131889763779528
21
-2.964763779527559
0
LINE
8
BLACK
6
CONTINUOUS
10
3.1131889763779528
20
-2.964763779527559
11
3.2450787401574801
21
-2.964763779527559
0
LINE
8
BLACK
6
CONTINUOUS
10
3.2450787401574801
20
-2.964763779527559
11
3.2450787401574801
21
-2.8895669291338582
0
LINE
8
BLACK
6
CONTINUOUS
10
3.2450787401574801
20
-2.8895669291338582
11
3.1131889763779528
21
-2.8895669291338582
0
LINE
8
BLACK
6
CONTINUOUS
10
4.3711443700787402
20
-2.8868859448818895
11
4.371677047244094
21
-2.8874186220472442
0
LINE
8
BLACK
6
CONTINUOUS
10
4.371677047244094
20
-2.8874186220472442
11
4.3717519685039372
21
-2.8877952755905509
0
LINE
8
BLACK
6
CONTINUOUS
10
4.3717519685039372
20
-2.8877952755905509
11
4.3717519685039372
21
-2.9625984251968505
0
LINE
8
BLACK
6
CONTINUOUS
10
4.3717519685039372
20
-2.9625984251968505
11
4.371677047244094
21
-2.9629750787401572
0
LINE
8
BLACK
6
CONTINUOUS
10
4.371677047244094
20
-2.9629750787401572
11
4.3711443700787402
21
-2.9635077559055119
0
LINE
8
BLACK
6
CONTINUOUS
10
4.3711443700787402
20
-2.9635077559055119
11
4.3707677165354326
21
-2.9635826771653542
0
LINE
8
BLACK
6
CONTINUOUS
10
4.3707677165354326
20
-2.9635826771653542
11
4.2384842519685035
21
-2.9635826771653542
0
LINE
8
BLACK
6
CONTINUOUS
10
4.2384842519685035
20
-2.9635826771653542
11
4.2381075984251968
21
-2.9635077559055119
0
LINE
8
BLACK
6
CONTINUOUS
10
4.2381075984251968
20
-2.9635077559055119
11
4.2375749212598421
21
-2.9629750787401572
0
LINE
8
BLACK
6
CONTINUOUS
10
4.2375749212598421
20
-2.9629750787401572
11
4.2374999999999998
21
-2.9625984251968505
0
LINE
8
BLACK
6
CONTINUOUS
10
4.2374999999999998
20
-2.9625984251968505
11
4.2374999999999998
21
-2.8877952755905509
0
LINE
8
BLACK
6
CONTINUOUS
10
4.2374999999999998
20
-2.8877952755905509
11
4.2375749212598421
21
-2.8874186220472442
0
LINE
8
BLACK
6
CONTINUOUS
10
4.2375749212598421
20
-2.8874186220472442
11
4.2381075984251968
21
-2.8868859448818895
0
LINE
8
BLACK
6
CONTINUOUS
10
4.2381075984251968
20
-2.8868859448818895
11
4.2384842519685035
21
-2.8868110236220472
0
LINE
8
BLACK
6
CONTINUOUS
10
4.2384842519685035
20
-2.8868110236220472
11
4.3707677165354326
21
-2.8868110236220472
0
LINE
8
BLACK
6
CONTINUOUS
10
4.3707677165354326
20
-2.8868110236220472
11
4.3711443700787402
21
-2.8868859448818895
0
LINE
8
BLACK
6
CONTINUOUS
10
4.2394685039370081
20
-2.8887795275590551
11
4.2394685039370081
21
-2.9616141732283463
0
LINE
8
BLACK
6
CONTINUOUS
10
4.2394685039370081
20
-2.9616141732283463
11
4.3697834645669289
21
-2.9616141732283463
0
LINE
8
BLACK
6
CONTINUOUS
10
4.3697834645669289
20
-2.9616141732283463
11
4.3697834645669289
21
-2.8887795275590551
0
LINE
8
BLACK
6
CONTINUOUS
10
4.3697834645669289
20
-2.8887795275590551
11
4.2394685039370081
21
-2.8887795275590551
0
LINE
8
BLACK
6
CONTINUOUS
10
4.1426010629921262
20
-2.8772402755905513
11
4.1431337401574799
21
-2.8777729527559055
0
LINE
8
BLACK
6
CONTINUOUS
10
4.1431337401574799
20
-2.8777729527559055
11
4.1432086614173231
21
-2.8781496062992127
0
LINE
8
BLACK
6
CONTINUOUS
10
4.1432086614173231
20
-2.8781496062992127
11
4.1432086614173231
21
-2.9584645669291336
0
LINE
8
BLACK
6
CONTINUOUS
10
4.1432086614173231
20
-2.9584645669291336
11
4.1431337401574799
21
-2.9588412204724408
0
LINE
8
BLACK
6
CONTINUOUS
10
4.1431337401574799
20
-2.9588412204724408
11
4.1426010629921262
21
-2.959373897637795
0
LINE
8
BLACK
6
CONTINUOUS
10
4.1426010629921262
20
-2.959373897637795
11
4.1422244094488185
21
-2.9594488188976378
0
LINE
8
BLACK
6
CONTINUOUS
10
4.1422244094488185
20
-2.9594488188976378
11
4.0477362204724407
21
-2.9594488188976378
0
LINE
8
BLACK
6
CONTINUOUS
10
4.0477362204724407
20
-2.9594488188976378
11
4.047359566929134
21
-2.959373897637795
0
LINE
8
BLACK
6
CONTINUOUS
10
4.047359566929134
20
-2.959373897637795
11
4.0468268897637794
21
-2.9588412204724408
0
LINE
8
BLACK
6
CONTINUOUS
10
4.0468268897637794
20
-2.9588412204724408
11
4.046751968503937
21
-2.9584645669291336
0
LINE
8
BLACK
6
CONTINUOUS
10
4.046751968503937
20
-2.9584645669291336
11
4.046751968503937
21
-2.8781496062992127
0
LINE
8
BLACK
6
CONTINUOUS
10
4.046751968503937
20
-2.8781496062992127
11
4.0468268897637794
21
-2.8777729527559055
0
LINE
8
BLACK
6
CONTINUOUS
10
4.0468268897637794
20
-2.8777729527559055
11
4.047359566929134
21
-2.8772402755905513
0
LINE
8
BLACK
6
CONTINUOUS
10
4.047359566929134
20
-2.8772402755905513
11
4.0477362204724407
21
-2.8771653543307085
0
LINE
8
BLACK
6
CONTINUOUS
10
4.0477362204724407
20
-2.8771653543307085
11
4.1422244094488185
21
-2.8771653543307085
0
LINE
8
BLACK
6
CONTINUOUS
10
4.1422244094488185
20
-2.8771653543307085
11
4.1426010629921262
21
-2.8772402755905513
0
LINE
8
BLACK
6
CONTINUOUS
10
4.0487204724409445
20
-2.8791338582677164
11
4.0487204724409445
21
-2.9574803149606299
0
LINE
8
BLACK
6
CONTINUOUS
10
4.0487204724409445
20
-2.9574803149606299
11
4.1412401574803148
21
-2.9574803149606299
0
LINE
8
BLACK
6
CONTINUOUS
10
4.1412401574803148
20
-2.9574803149606299
11
4.1412401574803148
21
-2.8791338582677164
0
LINE
8
BLACK
6
CONTINUOUS
10
4.1412401574803148
20
-2.8791338582677164
11
4.0487204724409445
21
-2.8791338582677164
0
LINE
8
BLACK
6
CONTINUOUS
10
3.968388464566929
20
-2.8153308267716537
11
3.9689211417322832
21
-2.8158635039370079
0
LINE
8
BLACK
6
CONTINUOUS
10
3.9689211417322832
20
-2.8158635039370079
11
3.9689960629921259
21
-2.8162401574803151
0
LINE
8
BLACK
6
CONTINUOUS
10
3.9689960629921259
20
-2.8162401574803151
11
3.9689960629921259
21
-2.9485236220472442
0
LINE
8
BLACK
6
CONTINUOUS
10
3.9689960629921259
20
-2.9485236220472442
11
3.9689211417322832
21
-2.9489002755905509
0
LINE
8
BLACK
6
CONTINUOUS
10
3.9689211417322832
20
-2.9489002755905509
11
3.968388464566929
21
-2.9494329527559056
0
LINE
8
BLACK
6
CONTINUOUS
10
3.968388464566929
20
-2.9494329527559056
11
3.9680118110236218
21
-2.9495078740157479
0
LINE
8
BLACK
6
CONTINUOUS
10
3.9680118110236218
20
-2.9495078740157479
11
3.8932086614173227
21
-2.9495078740157479
0
LINE
8
BLACK
6
CONTINUOUS
10
3.8932086614173227
20
-2.9495078740157479
11
3.8928320078740155
21
-2.9494329527559056
0
LINE
8
BLACK
6
CONTINUOUS
10
3.8928320078740155
20
-2.9494329527559056
11
3.8922993307086613
21
-2.9489002755905509
0
LINE
8
BLACK
6
CONTINUOUS
10
3.8922993307086613
20
-2.9489002755905509
11
3.892224409448819
21
-2.9485236220472442
0
LINE
8
BLACK
6
CONTINUOUS
10
3.892224409448819
20
-2.9485236220472442
11
3.892224409448819
21
-2.8162401574803151
0
LINE
8
BLACK
6
CONTINUOUS
10
3.892224409448819
20
-2.8162401574803151
11
3.8922993307086613
21
-2.8158635039370079
0
LINE
8
BLACK
6
CONTINUOUS
10
3.8922993307086613
20
-2.8158635039370079
11
3.8928320078740155
21
-2.8153308267716537
0
LINE
8
BLACK
6
CONTINUOUS
10
3.8928320078740155
20
-2.8153308267716537
11
3.8932086614173227
21
-2.8152559055118109
0
LINE
8
BLACK
6
CONTINUOUS
10
3.8932086614173227
20
-2.8152559055118109
11
3.9680118110236218
21
-2.8152559055118109
0
LINE
8
BLACK
6
CONTINUOUS
10
3.9680118110236218
20
-2.8152559055118109
11
3.968388464566929
21
-2.8153308267716537
0
LINE
8
BLACK
6
CONTINUOUS
10
3.8941929133858268
20
-2.8172244094488188
11
3.8941929133858268
21
-2.94753937007874
0
LINE
8
BLACK
6
CONTINUOUS
10
3.8941929133858268
20
-2.94753937007874
11
3.9670275590551181
21
-2.94753937007874
0
LINE
8
BLACK
6
CONTINUOUS
10
3.9670275590551181
20
-2.94753937007874
11
3.9670275590551181
21
-2.8172244094488188
0
LINE
8
BLACK
6
CONTINUOUS
10
3.9670275590551181
20
-2.8172244094488188
11
3.8941929133858268
21
-2.8172244094488188
0
LINE
8
BLACK
6
CONTINUOUS
10
4.3731128740157477
20
-2.7490906692913386
11
4.3736455511811023
21
-2.7496233464566928
0
LINE
8
BLACK
6
CONTINUOUS
10
4.3736455511811023
20
-2.7496233464566928
11
4.3737204724409446
21
-2.75
0
LINE
8
BLACK
6
CONTINUOUS
10
4.3737204724409446
20
-2.75
11
4.3737204724409446
21
-2.8838582677165352
0
LINE
8
BLACK
6
CONTINUOUS
10
4.3737204724409446
20
-2.8838582677165352
11
4.3736455511811023
21
-2.8842349212598424
0
LINE
8
BLACK
6
CONTINUOUS
10
4.3736455511811023
20
-2.8842349212598424
11
4.3731128740157477
21
-2.8847675984251966
0
LINE
8
BLACK
6
CONTINUOUS
10
4.3731128740157477
20
-2.8847675984251966
11
4.3727362204724409
21
-2.8848425196850394
0
LINE
8
BLACK
6
CONTINUOUS
10
4.3727362204724409
20
-2.8848425196850394
11
4.2955708661417322
21
-2.8848425196850394
0
LINE
8
BLACK
6
CONTINUOUS
10
4.2955708661417322
20
-2.8848425196850394
11
4.2951942125984255
21
-2.8847675984251966
0
LINE
8
BLACK
6
CONTINUOUS
10
4.2951942125984255
20
-2.8847675984251966
11
4.2946615354330708
21
-2.8842349212598424
0
LINE
8
BLACK
6
CONTINUOUS
10
4.2946615354330708
20
-2.8842349212598424
11
4.2945866141732285
21
-2.8838582677165352
0
LINE
8
BLACK
6
CONTINUOUS
10
4.2945866141732285
20
-2.8838582677165352
11
4.2945866141732285
21
-2.75
0
LINE
8
BLACK
6
CONTINUOUS
10
4.2945866141732285
20
-2.75
11
4.2946615354330708
21
-2.7496233464566928
0
LINE
8
BLACK
6
CONTINUOUS
10
4.2946615354330708
20
-2.7496233464566928
11
4.2951942125984255
21
-2.7490906692913386
0
LINE
8
BLACK
6
CONTINUOUS
10
4.2951942125984255
20
-2.7490906692913386
11
4.2955708661417322
21
-2.7490157480314958
0
LINE
8
BLACK
6
CONTINUOUS
10
4.2955708661417322
20
-2.7490157480314958
11
4.3727362204724409
21
-2.7490157480314958
0
LINE
8
BLACK
6
CONTINUOUS
10
4.3727362204724409
20
-2.7490157480314958
11
4.3731128740157477
21
-2.7490906692913386
0
LINE
8
BLACK
6
CONTINUOUS
10
4.2965551181102359
20
-2.7509842519685037
11
4.2965551181102359
21
-2.8828740157480315
0
LINE
8
BLACK
6
CONTINUOUS
10
4.2965551181102359
20
-2.8828740157480315
11
4.3717519685039372
21
-2.8828740157480315
0
LINE
8
BLACK
6
CONTINUOUS
10
4.3717519685039372
20
-2.8828740157480315
11
4.3717519685039372
21
-2.7509842519685037
0
LINE
8
BLACK
6
CONTINUOUS
10
4.3717519685039372
20
-2.7509842519685037
11
4.2965551181102359
21
-2.7509842519685037
0
LINE
8
BLACK
6
CONTINUOUS
10
3.2503766535433072
20
-2.5640512992125983
11
3.2509093307086614
21
-2.5645839763779525
0
LINE
8
BLACK
6
CONTINUOUS
10
3.2509093307086614
20
-2.5645839763779525
11
3.2509842519685037
21
-2.5649606299212597
0
LINE
8
BLACK
6
CONTINUOUS
10
3.2509842519685037
20
-2.5649606299212597
11
3.2509842519685037
21
-2.8759842519685037
0
LINE
8
BLACK
6
CONTINUOUS
10
3.2509842519685037
20
-2.8759842519685037
11
3.2509093307086614
21
-2.8763609055118109
0
LINE
8
BLACK
6
CONTINUOUS
10
3.2509093307086614
20
-2.8763609055118109
11
3.2503766535433072
21
-2.8768935826771651
0
LINE
8
BLACK
6
CONTINUOUS
10
3.2503766535433072
20
-2.8768935826771651
11
3.25
21
-2.8769685039370079
0
LINE
8
BLACK
6
CONTINUOUS
10
3.25
20
-2.8769685039370079
11
3.0295275590551181
21
-2.8769685039370079
0
LINE
8
BLACK
6
CONTINUOUS
10
3.0295275590551181
20
-2.8769685039370079
11
3.0291509055118109
21
-2.8768935826771651
0
LINE
8
BLACK
6
CONTINUOUS
10
3.0291509055118109
20
-2.8768935826771651
11
3.0286182283464567
21
-2.8763609055118109
0
LINE
8
BLACK
6
CONTINUOUS
10
3.0286182283464567
20
-2.8763609055118109
11
3.0285433070866139
21
-2.8759842519685037
0
LINE
8
BLACK
6
CONTINUOUS
10
3.0285433070866139
20
-2.8759842519685037
11
3.0285433070866139
21
-2.5649606299212597
0
LINE
8
BLACK
6
CONTINUOUS
10
3.0285433070866139
20
-2.5649606299212597
11
3.0286182283464567
21
-2.5645839763779525
0
LINE
8
BLACK
6
CONTINUOUS
10
3.0286182283464567
20
-2.5645839763779525
11
3.0291509055118109
21
-2.5640512992125983
0
LINE
8
BLACK
6
CONTINUOUS
10
3.0291509055118109
20
-2.5640512992125983
11
3.0295275590551181
21
-2.563976377952756
0
LINE
8
BLACK
6
CONTINUOUS
10
3.0295275590551181
20
-2.563976377952756
11
3.25
21
-2.563976377952756
0
LINE
8
BLACK
6
CONTINUOUS
10
3.25
20
-2.563976377952756
11
3.2503766535433072
21
-2.5640512992125983
0
LINE
8
BLACK
6
CONTINUOUS
10
3.0305118110236218
20
-2.5659448818897639
11
3.0305118110236218
21
-2.875
0
LINE
8
BLACK
6
CONTINUOUS
10
3.0305118110236218
20
-2.875
11
3.2490157480314958
21
-2.875
0
LINE
8
BLACK
6
CONTINUOUS
10
3.2490157480314958
20
-2.875
11
3.2490157480314958
21
-2.5659448818897639
0
LINE
8
BLACK
6
CONTINUOUS
10
3.2490157480314958
20
-2.5659448818897639
11
3.0305118110236218
21
-2.5659448818897639
0
LINE
8
BLACK
6
CONTINUOUS
10
4.1742939763779523
20
-2.7323583858267715
11
4.174826653543307
21
-2.7328910629921261
0
LINE
8
BLACK
6
CONTINUOUS
10
4.174826653543307
20
-2.7328910629921261
11
4.1749015748031493
21
-2.7332677165354329
0
LINE
8
BLACK
6
CONTINUOUS
10
4.1749015748031493
20
-2.7332677165354329
11
4.1749015748031493
21
-2.8080708661417324
0
LINE
8
BLACK
6
CONTINUOUS
10
4.1749015748031493
20
-2.8080708661417324
11
4.174826653543307
21
-2.8084475196850391
0
LINE
8
BLACK
6
CONTINUOUS
10
4.174826653543307
20
-2.8084475196850391
11
4.1742939763779523
21
-2.8089801968503938
0
LINE
8
BLACK
6
CONTINUOUS
10
4.1742939763779523
20
-2.8089801968503938
11
4.1739173228346456
21
-2.8090551181102361
0
LINE
8
BLACK
6
CONTINUOUS
10
4.1739173228346456
20
-2.8090551181102361
11
4.0416338582677165
21
-2.8090551181102361
0
LINE
8
BLACK
6
CONTINUOUS
10
4.0416338582677165
20
-2.8090551181102361
11
4.0412572047244097
21
-2.8089801968503938
0
LINE
8
BLACK
6
CONTINUOUS
10
4.0412572047244097
20
-2.8089801968503938
11
4.0407245275590551
21
-2.8084475196850391
0
LINE
8
BLACK
6
CONTINUOUS
10
4.0407245275590551
20
-2.8084475196850391
11
4.0406496062992128
21
-2.8080708661417324
0
LINE
8
BLACK
6
CONTINUOUS
10
4.0406496062992128
20
-2.8080708661417324
11
4.0406496062992128
21
-2.7332677165354329
0
LINE
8
BLACK
6
CONTINUOUS
10
4.0406496062992128
20
-2.7332677165354329
11
4.0407245275590551
21
-2.7328910629921261
0
LINE
8
BLACK
6
CONTINUOUS
10
4.0407245275590551
20
-2.7328910629921261
11
4.0412572047244097
21
-2.7323583858267715
0
LINE
8
BLACK
6
CONTINUOUS
10
4.0412572047244097
20
-2.7323583858267715
11
4.0416338582677165
21
-2.7322834645669292
0
LINE
8
BLACK
6
CONTINUOUS
10
4.0416338582677165
20
-2.7322834645669292
11
4.1739173228346456
21
-2.7322834645669292
0
LINE
8
BLACK
6
CONTINUOUS
10
4.1739173228346456
20
-2.7322834645669292
11
4.1742939763779523
21
-2.7323583858267715
0
LINE
8
BLACK
6
CONTINUOUS
10
4.0426181102362202
20
-2.734251968503937
11
4.0426181102362202
21
-2.8070866141732282
0
LINE
8
BLACK
6
CONTINUOUS
10
4.0426181102362202
20
-2.8070866141732282
11
4.1729330708661418
21
-2.8070866141732282
0
LINE
8
BLACK
6
CONTINUOUS
10
4.1729330708661418
20
-2.8070866141732282
11
4.1729330708661418
21
-2.734251968503937
0
LINE
8
BLACK
6
CONTINUOUS
10
4.1729330708661418
20
-2.734251968503937
11
4.0426181102362202
21
-2.734251968503937
0
LINE
8
BLACK
6
CONTINUOUS
10
3.3362034251968504
20
-2.6506654724409446
11
3.3367361023622046
21
-2.6511981496062993
0
LINE
8
BLACK
6
CONTINUOUS
10
3.3367361023622046
20
-2.6511981496062993
11
3.336811023622047
21
-2.651574803149606
0
LINE
8
BLACK
6
CONTINUOUS
10
3.336811023622047
20
-2.651574803149606
11
3.336811023622047
21
-2.7854330708661417
0
LINE
8
BLACK
6
CONTINUOUS
10
3.336811023622047
20
-2.7854330708661417
11
3.3367361023622046
21
-2.7858097244094489
0
LINE
8
BLACK
6
CONTINUOUS
10
3.3367361023622046
20
-2.7858097244094489
11
3.3362034251968504
21
-2.7863424015748031
0
LINE
8
BLACK
6
CONTINUOUS
10
3.3362034251968504
20
-2.7863424015748031
11
3.3358267716535432
21
-2.7864173228346458
0
LINE
8
BLACK
6
CONTINUOUS
10
3.3358267716535432
20
-2.7864173228346458
11
3.2586614173228345
21
-2.7864173228346458
0
LINE
8
BLACK
6
CONTINUOUS
10
3.2586614173228345
20
-2.7864173228346458
11
3.2582847637795274
21
-2.7863424015748031
0
LINE
8
BLACK
6
CONTINUOUS
10
3.2582847637795274
20
-2.7863424015748031
11
3.2577520866141731
21
-2.7858097244094489
0
LINE
8
BLACK
6
CONTINUOUS
10
3.2577520866141731
20
-2.7858097244094489
11
3.2576771653543308
21
-2.7854330708661417
0
LINE
8
BLACK
6
CONTINUOUS
10
3.2576771653543308
20
-2.7854330708661417
11
3.2576771653543308
21
-2.651574803149606
0
LINE
8
BLACK
6
CONTINUOUS
10
3.2576771653543308
20
-2.651574803149606
11
3.2577520866141731
21
-2.6511981496062993
0
LINE
8
BLACK
6
CONTINUOUS
10
3.2577520866141731
20
-2.6511981496062993
11
3.2582847637795274
21
-2.6506654724409446
0
LINE
8
BLACK
6
CONTINUOUS
10
3.2582847637795274
20
-2.6506654724409446
11
3.2586614173228345
21
-2.6505905511811023
0
LINE
8
BLACK
6
CONTINUOUS
10
3.2586614173228345
20
-2.6505905511811023
11
3.3358267716535432
21
-2.6505905511811023
0
LINE
8
BLACK
6
CONTINUOUS
10
3.3358267716535432
20
-2.6505905511811023
11
3.3362034251968504
21
-2.6506654724409446
0
LINE
8
BLACK
6
CONTINUOUS
10
3.2596456692913387
20
-2.6525590551181102
11
3.2596456692913387
21
-2.7844488188976375
0
LINE
8
BLACK
6
CONTINUOUS
10
3.2596456692913387
20
-2.7844488188976375
11
3.3348425196850391
21
-2.7844488188976375
0
LINE
8
BLACK
6
CONTINUOUS
10
3.3348425196850391
20
-2.7844488188976375
11
3.3348425196850391
21
-2.6525590551181102
0
LINE
8
BLACK
6
CONTINUOUS
10
3.3348425196850391
20
-2.6525590551181102
11
3.2596456692913387
21
-2.6525590551181102
0
LINE
8
BLACK
6
CONTINUOUS
10
2.9334475196850391
20
-2.6211379133858266
11
2.9339801968503938
21
-2.6216705905511812
0
LINE
8
BLACK
6
CONTINUOUS
10
2.9339801968503938
20
-2.6216705905511812
11
2.9340551181102361
21
-2.622047244094488
0
LINE
8
BLACK
6
CONTINUOUS
10
2.9340551181102361
20
-2.622047244094488
11
2.9340551181102361
21
-2.7204724409448819
0
LINE
8
BLACK
6
CONTINUOUS
10
2.9340551181102361
20
-2.7204724409448819
11
2.9339801968503938
21
-2.7208490944881891
0
LINE
8
BLACK
6
CONTINUOUS
10
2.9339801968503938
20
-2.7208490944881891
11
2.9334475196850391
21
-2.7213817716535433
0
LINE
8
BLACK
6
CONTINUOUS
10
2.9334475196850391
20
-2.7213817716535433
11
2.9330708661417324
21
-2.7214566929133857
0
LINE
8
BLACK
6
CONTINUOUS
10
2.9330708661417324
20
-2.7214566929133857
11
2.7519685039370079
21
-2.7214566929133857
0
LINE
8
BLACK
6
CONTINUOUS
10
2.7519685039370079
20
-2.7214566929133857
11
2.7515918503937007
21
-2.7213817716535433
0
LINE
8
BLACK
6
CONTINUOUS
10
2.7515918503937007
20
-2.7213817716535433
11
2.7510591732283465
21
-2.7208490944881891
0
LINE
8
BLACK
6
CONTINUOUS
10
2.7510591732283465
20
-2.7208490944881891
11
2.7509842519685037
21
-2.7204724409448819
0
LINE
8
BLACK
6
CONTINUOUS
10
2.7509842519685037
20
-2.7204724409448819
11
2.7509842519685037
21
-2.622047244094488
0
LINE
8
BLACK
6
CONTINUOUS
10
2.7509842519685037
20
-2.622047244094488
11
2.7510591732283465
21
-2.6216705905511812
0
LINE
8
BLACK
6
CONTINUOUS
10
2.7510591732283465
20
-2.6216705905511812
11
2.7515918503937007
21
-2.6211379133858266
0
LINE
8
BLACK
6
CONTINUOUS
10
2.7515918503937007
20
-2.6211379133858266
11
2.7519685039370079
21
-2.6210629921259843
0
LINE
8
BLACK
6
CONTINUOUS
10
2.7519685039370079
20
-2.6210629921259843
11
2.9330708661417324
21
-2.6210629921259843
0
LINE
8
BLACK
6
CONTINUOUS
10
2.9330708661417324
20
-2.6210629921259843
11
2.9334475196850391
21
-2.6211379133858266
0
LINE
8
BLACK
6
CONTINUOUS
10
2.7529527559055116
20
-2.6230314960629921
11
2.7529527559055116
21
-2.7194881889763778
0
LINE
8
BLACK
6
CONTINUOUS
10
2.7529527559055116
20
-2.7194881889763778
11
2.9320866141732282
21
-2.7194881889763778
0
LINE
8
BLACK
6
CONTINUOUS
10
2.9320866141732282
20
-2.7194881889763778
11
2.9320866141732282
21
-2.6230314960629921
0
LINE
8
BLACK
6
CONTINUOUS
10
2.9320866141732282
20
-2.6230314960629921
11
2.7529527559055116
21
-2.6230314960629921
0
LINE
8
BLACK
6
CONTINUOUS
10
2.6683884645669291
20
-2.4459410629921261
11
2.6689211417322833
21
-2.4464737401574803
0
LINE
8
BLACK
6
CONTINUOUS
10
2.6689211417322833
20
-2.4464737401574803
11
2.6689960629921261
21
-2.4468503937007875
0
LINE
8
BLACK
6
CONTINUOUS
10
2.6689960629921261
20
-2.4468503937007875
11
2.6689960629921261
21
-2.5216535433070866
0
LINE
8
BLACK
6
CONTINUOUS
10
2.6689960629921261
20
-2.5216535433070866
11
2.6689211417322833
21
-2.5220301968503938
0
LINE
8
BLACK
6
CONTINUOUS
10
2.6689211417322833
20
-2.5220301968503938
11
2.6683884645669291
21
-2.522562874015748
0
LINE
8
BLACK
6
CONTINUOUS
10
2.6683884645669291
20
-2.522562874015748
11
2.6680118110236219
21
-2.5226377952755903
0
LINE
8
BLACK
6
CONTINUOUS
10
2.6680118110236219
20
-2.5226377952755903
11
2.5357283464566929
21
-2.5226377952755903
0
LINE
8
BLACK
6
CONTINUOUS
10
2.5357283464566929
20
-2.5226377952755903
11
2.5353516929133857
21
-2.522562874015748
0
LINE
8
BLACK
6
CONTINUOUS
10
2.5353516929133857
20
-2.522562874015748
11
2.5348190157480315
21
-2.5220301968503938
0
LINE
8
BLACK
6
CONTINUOUS
10
2.5348190157480315
20
-2.5220301968503938
11
2.5347440944881887
21
-2.5216535433070866
0
LINE
8
BLACK
6
CONTINUOUS
10
2.5347440944881887
20
-2.5216535433070866
11
2.5347440944881887
21
-2.4468503937007875
0
LINE
8
BLACK
6
CONTINUOUS
10
2.5347440944881887
20
-2.4468503937007875
11
2.5348190157480315
21
-2.4464737401574803
0
LINE
8
BLACK
6
CONTINUOUS
10
2.5348190157480315
20
-2.4464737401574803
11
2.5353516929133857
21
-2.4459410629921261
0
LINE
8
BLACK
6
CONTINUOUS
10
2.5353516929133857
20
-2.4459410629921261
11
2.5357283464566929
21
-2.4458661417322833
0
LINE
8
BLACK
6
CONTINUOUS
10
2.5357283464566929
20
-2.4458661417322833
11
2.6680118110236219
21
-2.4458661417322833
0
LINE
8
BLACK
6
CONTINUOUS
10
2.6680118110236219
20
-2.4458661417322833
11
2.6683884645669291
21
-2.4459410629921261
0
LINE
8
BLACK
6
CONTINUOUS
10
2.5367125984251966
20
-2.4478346456692912
11
2.5367125984251966
21
-2.5206692913385824
0
LINE
8
BLACK
6
CONTINUOUS
10
2.5367125984251966
20
-2.5206692913385824
11
2.6670275590551182
21
-2.5206692913385824
0
LINE
8
BLACK
6
CONTINUOUS
10
2.6670275590551182
20
-2.5206692913385824
11
2.6670275590551182
21
-2.4478346456692912
0
LINE
8
BLACK
6
CONTINUOUS
10
2.6670275590551182
20
-2.4478346456692912
11
2.5367125984251966
21
-2.4478346456692912
0
LINE
8
BLACK
6
CONTINUOUS
10
3.1787231102362203
20
-2.3829489370078738
11
3.1792557874015746
21
-2.3834816141732285
0
LINE
8
BLACK
6
CONTINUOUS
10
3.1792557874015746
20
-2.3834816141732285
11
3.1793307086614173
21
-2.3838582677165352
0
LINE
8
BLACK
6
CONTINUOUS
10
3.1793307086614173
20
-2.3838582677165352
11
3.1793307086614173
21
-2.5177165354330708
0
LINE
8
BLACK
6
CONTINUOUS
10
3.1793307086614173
20
-2.5177165354330708
11
3.1792557874015746
21
-2.518093188976378
0
LINE
8
BLACK
6
CONTINUOUS
10
3.1792557874015746
20
-2.518093188976378
11
3.1787231102362203
21
-2.5186258661417322
0
LINE
8
BLACK
6
CONTINUOUS
10
3.1787231102362203
20
-2.5186258661417322
11
3.1783464566929132
21
-2.5187007874015745
0
LINE
8
BLACK
6
CONTINUOUS
10
3.1783464566929132
20
-2.5187007874015745
11
3.1011811023622045
21
-2.5187007874015745
0
LINE
8
BLACK
6
CONTINUOUS
10
3.1011811023622045
20
-2.5187007874015745
11
3.1008044488188977
21
-2.5186258661417322
0
LINE
8
BLACK
6
CONTINUOUS
10
3.1008044488188977
20
-2.5186258661417322
11
3.1002717716535431
21
-2.518093188976378
0
LINE
8
BLACK
6
CONTINUOUS
10
3.1002717716535431
20
-2.518093188976378
11
3.1001968503937007
21
-2.5177165354330708
0
LINE
8
BLACK
6
CONTINUOUS
10
3.1001968503937007
20
-2.5177165354330708
11
3.1001968503937007
21
-2.3838582677165352
0
LINE
8
BLACK
6
CONTINUOUS
10
3.1001968503937007
20
-2.3838582677165352
11
3.1002717716535431
21
-2.3834816141732285
0
LINE
8
BLACK
6
CONTINUOUS
10
3.1002717716535431
20
-2.3834816141732285
11
3.1008044488188977
21
-2.3829489370078738
0
LINE
8
BLACK
6
CONTINUOUS
10
3.1008044488188977
20
-2.3829489370078738
11
3.1011811023622045
21
-2.3828740157480315
0
LINE
8
BLACK
6
CONTINUOUS
10
3.1011811023622045
20
-2.3828740157480315
11
3.1783464566929132
21
-2.3828740157480315
0
LINE
8
BLACK
6
CONTINUOUS
10
3.1783464566929132
20
-2.3828740157480315
11
3.1787231102362203
21
-2.3829489370078738
0
LINE
8
BLACK
6
CONTINUOUS
10
3.1021653543307086
20
-2.3848425196850394
11
3.1021653543307086
21
-2.5167322834645667
0
LINE
8
BLACK
6
CONTINUOUS
10
3.1021653543307086
20
-2.5167322834645667
11
3.1773622047244094
21
-2.5167322834645667
0
LINE
8
BLACK
6
CONTINUOUS
10
3.1773622047244094
20
-2.5167322834645667
11
3.1773622047244094
21
-2.3848425196850394
0
LINE
8
BLACK
6
CONTINUOUS
10
3.1773622047244094
20
-2.3848425196850394
11
3.1021653543307086
21
-2.3848425196850394
0
LINE
8
BLACK
6
CONTINUOUS
10
3.0196850393700787
20
-2.3841535433070864
11
3.0944881889763778
21
-2.3841535433070864
0
LINE
8
BLACK
6
CONTINUOUS
10
3.0944881889763778
20
-2.3841535433070864
11
3.094864842519685
21
-2.3842284645669292
0
LINE
8
BLACK
6
CONTINUOUS
10
3.094864842519685
20
-2.3842284645669292
11
3.0953975196850392
21
-2.3847611417322834
0
LINE
8
BLACK
6
CONTINUOUS
10
3.0953975196850392
20
-2.3847611417322834
11
3.0954724409448819
21
-2.3851377952755906
0
LINE
8
BLACK
6
CONTINUOUS
10
3.0954724409448819
20
-2.3851377952755906
11
3.0954724409448819
21
-2.5174212598425196
0
LINE
8
BLACK
6
CONTINUOUS
10
3.0954724409448819
20
-2.5174212598425196
11
3.0953975196850392
21
-2.5177979133858268
0
LINE
8
BLACK
6
CONTINUOUS
10
3.0953975196850392
20
-2.5177979133858268
11
3.094864842519685
21
-2.518330590551181
0
LINE
8
BLACK
6
CONTINUOUS
10
3.094864842519685
20
-2.518330590551181
11
3.0944881889763778
21
-2.5184055118110233
0
LINE
8
BLACK
6
CONTINUOUS
10
3.0944881889763778
20
-2.5184055118110233
11
3.0196850393700787
21
-2.5184055118110233
0
LINE
8
BLACK
6
CONTINUOUS
10
3.0196850393700787
20
-2.5184055118110233
11
2.9448818897637796
21
-2.5184055118110233
0
LINE
8
BLACK
6
CONTINUOUS
10
2.9448818897637796
20
-2.5184055118110233
11
2.9445052362204724
21
-2.518330590551181
0
LINE
8
BLACK
6
CONTINUOUS
10
2.9445052362204724
20
-2.518330590551181
11
2.9439725590551182
21
-2.5177979133858268
0
LINE
8
BLACK
6
CONTINUOUS
10
2.9439725590551182
20
-2.5177979133858268
11
2.9438976377952755
21
-2.5174212598425196
0
LINE
8
BLACK
6
CONTINUOUS
10
2.9438976377952755
20
-2.5174212598425196
11
2.9438976377952755
21
-2.3851377952755906
0
LINE
8
BLACK
6
CONTINUOUS
10
2.9438976377952755
20
-2.3851377952755906
11
2.9439725590551182
21
-2.3847611417322834
0
LINE
8
BLACK
6
CONTINUOUS
10
2.9439725590551182
20
-2.3847611417322834
11
2.9445052362204724
21
-2.3842284645669292
0
LINE
8
BLACK
6
CONTINUOUS
10
2.9445052362204724
20
-2.3842284645669292
11
2.9448818897637796
21
-2.3841535433070864
0
LINE
8
BLACK
6
CONTINUOUS
10
2.9448818897637796
20
-2.3841535433070864
11
3.0196850393700787
21
-2.3841535433070864
0
LINE
8
BLACK
6
CONTINUOUS
10
3.0206692913385824
20
-2.3861220472440943
11
3.0206692913385824
21
-2.5164370078740155
0
LINE
8
BLACK
6
CONTINUOUS
10
3.0206692913385824
20
-2.5164370078740155
11
3.0935039370078741
21
-2.5164370078740155
0
LINE
8
BLACK
6
CONTINUOUS
10
3.0935039370078741
20
-2.5164370078740155
11
3.0935039370078741
21
-2.3861220472440943
0
LINE
8
BLACK
6
CONTINUOUS
10
3.0935039370078741
20
-2.3861220472440943
11
3.0206692913385824
21
-2.3861220472440943
0
LINE
8
BLACK
6
CONTINUOUS
10
2.9458661417322833
20
-2.3861220472440943
11
2.9458661417322833
21
-2.5164370078740155
0
LINE
8
BLACK
6
CONTINUOUS
10
2.9458661417322833
20
-2.5164370078740155
11
3.0187007874015745
21
-2.5164370078740155
0
LINE
8
BLACK
6
CONTINUOUS
10
3.0187007874015745
20
-2.5164370078740155
11
3.0187007874015745
21
-2.3861220472440943
0
LINE
8
BLACK
6
CONTINUOUS
10
3.0187007874015745
20
-2.3861220472440943
11
2.9458661417322833
21
-2.3861220472440943
0
LINE
8
BLACK
6
CONTINUOUS
10
2.8040183858267715
20
-2.3770434251968502
11
2.8045510629921258
21
-2.3775761023622048
0
LINE
8
BLACK
6
CONTINUOUS
10
2.8045510629921258
20
-2.3775761023622048
11
2.8046259842519685
21
-2.3779527559055116
0
LINE
8
BLACK
6
CONTINUOUS
10
2.8046259842519685
20
-2.3779527559055116
11
2.8046259842519685
21
-2.4222440944881889
0
LINE
8
BLACK
6
CONTINUOUS
10
2.8046259842519685
20
-2.4222440944881889
11
2.8441929133858266
21
-2.4222440944881889
0
LINE
8
BLACK
6
CONTINUOUS
10
2.8441929133858266
20
-2.4222440944881889
11
2.8445695669291338
21
-2.4223190157480317
0
LINE
8
BLACK
6
CONTINUOUS
10
2.8445695669291338
20
-2.4223190157480317
11
2.845102244094488
21
-2.4228516929133859
0
LINE
8
BLACK
6
CONTINUOUS
10
2.845102244094488
20
-2.4228516929133859
11
2.8451771653543307
21
-2.423228346456693
0
LINE
8
BLACK
6
CONTINUOUS
10
2.8451771653543307
20
-2.423228346456693
11
2.8451771653543307
21
-2.4665354330708662
0
LINE
8
BLACK
6
CONTINUOUS
10
2.8451771653543307
20
-2.4665354330708662
11
2.845102244094488
21
-2.4669120866141734
0
LINE
8
BLACK
6
CONTINUOUS
10
2.845102244094488
20
-2.4669120866141734
11
2.8445695669291338
21
-2.4674447637795276
0
LINE
8
BLACK
6
CONTINUOUS
10
2.8445695669291338
20
-2.4674447637795276
11
2.8441929133858266
21
-2.4675196850393699
0
LINE
8
BLACK
6
CONTINUOUS
10
2.8441929133858266
20
-2.4675196850393699
11
2.8046259842519685
21
-2.4675196850393699
0
LINE
8
BLACK
6
CONTINUOUS
10
2.8046259842519685
20
-2.4675196850393699
11
2.8046259842519685
21
-2.5118110236220472
0
LINE
8
BLACK
6
CONTINUOUS
10
2.8046259842519685
20
-2.5118110236220472
11
2.8045510629921258
21
-2.5121876771653544
0
LINE
8
BLACK
6
CONTINUOUS
10
2.8045510629921258
20
-2.5121876771653544
11
2.8040183858267715
21
-2.5127203543307086
0
LINE
8
BLACK
6
CONTINUOUS
10
2.8040183858267715
20
-2.5127203543307086
11
2.8036417322834644
21
-2.5127952755905509
0
LINE
8
BLACK
6
CONTINUOUS
10
2.8036417322834644
20
-2.5127952755905509
11
2.732775590551181
21
-2.5127952755905509
0
LINE
8
BLACK
6
CONTINUOUS
10
2.732775590551181
20
-2.5127952755905509
11
2.7323989370078738
21
-2.5127203543307086
0
LINE
8
BLACK
6
CONTINUOUS
10
2.7323989370078738
20
-2.5127203543307086
11
2.7318662598425196
21
-2.5121876771653544
0
LINE
8
BLACK
6
CONTINUOUS
10
2.7318662598425196
20
-2.5121876771653544
11
2.7317913385826773
21
-2.5118110236220472
0
LINE
8
BLACK
6
CONTINUOUS
10
2.7317913385826773
20
-2.5118110236220472
11
2.7317913385826773
21
-2.5049212598425195
0
LINE
8
BLACK
6
CONTINUOUS
10
2.7317913385826773
20
-2.5049212598425195
11
2.6922244094488188
21
-2.5049212598425195
0
LINE
8
BLACK
6
CONTINUOUS
10
2.6922244094488188
20
-2.5049212598425195
11
2.6918477559055116
21
-2.5048463385826771
0
LINE
8
BLACK
6
CONTINUOUS
10
2.6918477559055116
20
-2.5048463385826771
11
2.6913150787401574
21
-2.5043136614173229
0
LINE
8
BLACK
6
CONTINUOUS
10
2.6913150787401574
20
-2.5043136614173229
11
2.6912401574803151
21
-2.5039370078740157
0
LINE
8
BLACK
6
CONTINUOUS
10
2.6912401574803151
20
-2.5039370078740157
11
2.6912401574803151
21
-2.4602362204724408
0
LINE
8
BLACK
6
CONTINUOUS
10
2.6912401574803151
20
-2.4602362204724408
11
2.6913150787401574
21
-2.4598595669291337
0
LINE
8
BLACK
6
CONTINUOUS
10
2.6913150787401574
20
-2.4598595669291337
11
2.6918477559055116
21
-2.4593268897637794
0
LINE
8
BLACK
6
CONTINUOUS
10
2.6918477559055116
20
-2.4593268897637794
11
2.6922244094488188
21
-2.4592519685039371
0
LINE
8
BLACK
6
CONTINUOUS
10
2.6922244094488188
20
-2.4592519685039371
11
2.7317913385826773
21
-2.4592519685039371
0
LINE
8
BLACK
6
CONTINUOUS
10
2.7317913385826773
20
-2.4592519685039371
11
2.7317913385826773
21
-2.4305118110236221
0
LINE
8
BLACK
6
CONTINUOUS
10
2.7317913385826773
20
-2.4305118110236221
11
2.6922244094488188
21
-2.4305118110236221
0
LINE
8
BLACK
6
CONTINUOUS
10
2.6922244094488188
20
-2.4305118110236221
11
2.6918477559055116
21
-2.4304368897637794
0
LINE
8
BLACK
6
CONTINUOUS
10
2.6918477559055116
20
-2.4304368897637794
11
2.6913150787401574
21
-2.4299042125984252
0
LINE
8
BLACK
6
CONTINUOUS
10
2.6913150787401574
20
-2.4299042125984252
11
2.6912401574803151
21
-2.429527559055118
0
LINE
8
BLACK
6
CONTINUOUS
10
2.6912401574803151
20
-2.429527559055118
11
2.6912401574803151
21
-2.3858267716535431
0
LINE
8
BLACK
6
CONTINUOUS
10
2.6912401574803151
20
-2.3858267716535431
11
2.6913150787401574
21
-2.3854501181102363
0
LINE
8
BLACK
6
CONTINUOUS
10
2.6913150787401574
20
-2.3854501181102363
11
2.6918477559055116
21
-2.3849174409448817
0
LINE
8
BLACK
6
CONTINUOUS
10
2.6918477559055116
20
-2.3849174409448817
11
2.6922244094488188
21
-2.3848425196850394
0
LINE
8
BLACK
6
CONTINUOUS
10
2.6922244094488188
20
-2.3848425196850394
11
2.7317913385826773
21
-2.3848425196850394
0
LINE
8
BLACK
6
CONTINUOUS
10
2.7317913385826773
20
-2.3848425196850394
11
2.7317913385826773
21
-2.3779527559055116
0
LINE
8
BLACK
6
CONTINUOUS
10
2.7317913385826773
20
-2.3779527559055116
11
2.7318662598425196
21
-2.3775761023622048
0
LINE
8
BLACK
6
CONTINUOUS
10
2.7318662598425196
20
-2.3775761023622048
11
2.7323989370078738
21
-2.3770434251968502
0
LINE
8
BLACK
6
CONTINUOUS
10
2.7323989370078738
20
-2.3770434251968502
11
2.732775590551181
21
-2.3769685039370079
0
LINE
8
BLACK
6
CONTINUOUS
10
2.732775590551181
20
-2.3769685039370079
11
2.8036417322834644
21
-2.3769685039370079
0
LINE
8
BLACK
6
CONTINUOUS
10
2.8036417322834644
20
-2.3769685039370079
11
2.8040183858267715
21
-2.3770434251968502
0
LINE
8
BLACK
6
CONTINUOUS
10
2.7337598425196852
20
-2.3789370078740157
11
2.7337598425196852
21
-2.3858267716535431
0
LINE
8
BLACK
6
CONTINUOUS
10
2.7337598425196852
20
-2.3858267716535431
11
2.7336849212598424
21
-2.3862034251968502
0
LINE
8
BLACK
6
CONTINUOUS
10
2.7336849212598424
20
-2.3862034251968502
11
2.7331522440944882
21
-2.3867361023622045
0
LINE
8
BLACK
6
CONTINUOUS
10
2.7331522440944882
20
-2.3867361023622045
11
2.732775590551181
21
-2.3868110236220472
0
LINE
8
BLACK
6
CONTINUOUS
10
2.732775590551181
20
-2.3868110236220472
11
2.693208661417323
21
-2.3868110236220472
0
LINE
8
BLACK
6
CONTINUOUS
10
2.693208661417323
20
-2.3868110236220472
11
2.693208661417323
21
-2.4285433070866143
0
LINE
8
BLACK
6
CONTINUOUS
10
2.693208661417323
20
-2.4285433070866143
11
2.732775590551181
21
-2.4285433070866143
0
LINE
8
BLACK
6
CONTINUOUS
10
2.732775590551181
20
-2.4285433070866143
11
2.7331522440944882
21
-2.4286182283464566
0
LINE
8
BLACK
6
CONTINUOUS
10
2.7331522440944882
20
-2.4286182283464566
11
2.7336849212598424
21
-2.4291509055118108
0
LINE
8
BLACK
6
CONTINUOUS
10
2.7336849212598424
20
-2.4291509055118108
11
2.7337598425196852
21
-2.429527559055118
0
LINE
8
BLACK
6
CONTINUOUS
10
2.7337598425196852
20
-2.429527559055118
11
2.7337598425196852
21
-2.4602362204724408
0
LINE
8
BLACK
6
CONTINUOUS
10
2.7337598425196852
20
-2.4602362204724408
11
2.7336849212598424
21
-2.460612874015748
0
LINE
8
BLACK
6
CONTINUOUS
10
2.7336849212598424
20
-2.460612874015748
11
2.7331522440944882
21
-2.4611455511811022
0
LINE
8
BLACK
6
CONTINUOUS
10
2.7331522440944882
20
-2.4611455511811022
11
2.732775590551181
21
-2.461220472440945
0
LINE
8
BLACK
6
CONTINUOUS
10
2.732775590551181
20
-2.461220472440945
11
2.693208661417323
21
-2.461220472440945
0
LINE
8
BLACK
6
CONTINUOUS
10
2.693208661417323
20
-2.461220472440945
11
2.693208661417323
21
-2.5029527559055116
0
LINE
8
BLACK
6
CONTINUOUS
10
2.693208661417323
20
-2.5029527559055116
11
2.732775590551181
21
-2.5029527559055116
0
LINE
8
BLACK
6
CONTINUOUS
10
2.732775590551181
20
-2.5029527559055116
11
2.7331522440944882
21
-2.5030276771653543
0
LINE
8
BLACK
6
CONTINUOUS
10
2.7331522440944882
20
-2.5030276771653543
11
2.7336849212598424
21
-2.5035603543307086
0
LINE
8
BLACK
6
CONTINUOUS
10
2.7336849212598424
20
-2.5035603543307086
11
2.7337598425196852
21
-2.5039370078740157
0
LINE
8
BLACK
6
CONTINUOUS
10
2.7337598425196852
20
-2.5039370078740157
11
2.7337598425196852
21
-2.5108267716535431
0
LINE
8
BLACK
6
CONTINUOUS
10
2.7337598425196852
20
-2.5108267716535431
11
2.8026574803149606
21
-2.5108267716535431
0
LINE
8
BLACK
6
CONTINUOUS
10
2.8026574803149606
20
-2.5108267716535431
11
2.8026574803149606
21
-2.4665354330708662
0
LINE
8
BLACK
6
CONTINUOUS
10
2.8026574803149606
20
-2.4665354330708662
11
2.802732401574803
21
-2.466158779527559
0
LINE
8
BLACK
6
CONTINUOUS
10
2.802732401574803
20
-2.466158779527559
11
2.8032650787401576
21
-2.4656261023622048
0
LINE
8
BLACK
6
CONTINUOUS
10
2.8032650787401576
20
-2.4656261023622048
11
2.8036417322834644
21
-2.465551181102362
0
LINE
8
BLACK
6
CONTINUOUS
10
2.8036417322834644
20
-2.465551181102362
11
2.8432086614173229
21
-2.465551181102362
0
LINE
8
BLACK
6
CONTINUOUS
10
2.8432086614173229
20
-2.465551181102362
11
2.8432086614173229
21
-2.4242125984251968
0
LINE
8
BLACK
6
CONTINUOUS
10
2.8432086614173229
20
-2.4242125984251968
11
2.8036417322834644
21
-2.4242125984251968
0
LINE
8
BLACK
6
CONTINUOUS
10
2.8036417322834644
20
-2.4242125984251968
11
2.8032650787401576
21
-2.4241376771653544
0
LINE
8
BLACK
6
CONTINUOUS
10
2.8032650787401576
20
-2.4241376771653544
11
2.802732401574803
21
-2.4236049999999998
0
LINE
8
BLACK
6
CONTINUOUS
10
2.802732401574803
20
-2.4236049999999998
11
2.8026574803149606
21
-2.423228346456693
0
LINE
8
BLACK
6
CONTINUOUS
10
2.8026574803149606
20
-2.423228346456693
11
2.8026574803149606
21
-2.3789370078740157
0
LINE
8
BLACK
6
CONTINUOUS
10
2.8026574803149606
20
-2.3789370078740157
11
2.7337598425196852
21
-2.3789370078740157
0
LINE
8
BLACK
6
CONTINUOUS
10
6.2450853149606296
20
-2.1848387007874015
11
6.2456179921259842
21
-2.1853713779527557
0
LINE
8
BLACK
6
CONTINUOUS
10
6.2456179921259842
20
-2.1853713779527557
11
6.2456929133858266
21
-2.1857480314960629
0
LINE
8
BLACK
6
CONTINUOUS
10
6.2456929133858266
20
-2.1857480314960629
11
6.2456929133858266
21
-2.4038582677165352
0
LINE
8
BLACK
6
CONTINUOUS
10
6.2456929133858266
20
-2.4038582677165352
11
6.2456179921259842
21
-2.4042349212598424
0
LINE
8
BLACK
6
CONTINUOUS
10
6.2456179921259842
20
-2.4042349212598424
11
6.2450853149606296
21
-2.4047675984251966
0
LINE
8
BLACK
6
CONTINUOUS
10
6.2450853149606296
20
-2.4047675984251966
11
6.2447086614173228
21
-2.4048425196850394
0
LINE
8
BLACK
6
CONTINUOUS
10
6.2447086614173228
20
-2.4048425196850394
11
5.8069133858267712
21
-2.4048425196850394
0
LINE
8
BLACK
6
CONTINUOUS
10
5.8069133858267712
20
-2.4048425196850394
11
5.8065367322834645
21
-2.4047675984251966
0
LINE
8
BLACK
6
CONTINUOUS
10
5.8065367322834645
20
-2.4047675984251966
11
5.8060040551181098
21
-2.4042349212598424
0
LINE
8
BLACK
6
CONTINUOUS
10
5.8060040551181098
20
-2.4042349212598424
11
5.8059291338582675
21
-2.4038582677165352
0
LINE
8
BLACK
6
CONTINUOUS
10
5.8059291338582675
20
-2.4038582677165352
11
5.8059291338582675
21
-2.1857480314960629
0
LINE
8
BLACK
6
CONTINUOUS
10
5.8059291338582675
20
-2.1857480314960629
11
5.8060040551181098
21
-2.1853713779527557
0
LINE
8
BLACK
6
CONTINUOUS
10
5.8060040551181098
20
-2.1853713779527557
11
5.8065367322834645
21
-2.1848387007874015
0
LINE
8
BLACK
6
CONTINUOUS
10
5.8065367322834645
20
-2.1848387007874015
11
5.8069133858267712
21
-2.1847637795275592
0
LINE
8
BLACK
6
CONTINUOUS
10
5.8069133858267712
20
-2.1847637795275592
11
6.2447086614173228
21
-2.1847637795275592
0
LINE
8
BLACK
6
CONTINUOUS
10
6.2447086614173228
20
-2.1847637795275592
11
6.2450853149606296
21
-2.1848387007874015
0
LINE
8
BLACK
6
CONTINUOUS
10
5.8078976377952758
20
-2.1867322834645671
11
5.8078976377952758
21
-2.4028740157480315
0
LINE
8
BLACK
6
CONTINUOUS
10
5.8078976377952758
20
-2.4028740157480315
11
6.2437244094488191
21
-2.4028740157480315
0
LINE
8
BLACK
6
CONTINUOUS
10
6.2437244094488191
20
-2.4028740157480315
11
6.2437244094488191
21
-2.1867322834645671
0
LINE
8
BLACK
6
CONTINUOUS
10
6.2437244094488191
20
-2.1867322834645671
11
5.8078976377952758
21
-2.1867322834645671
0
LINE
8
BLACK
6
CONTINUOUS
10
9.3875420078740159
20
-1.9694843700787401
11
9.3880746850393706
21
-1.9700170472440945
0
LINE
8
BLACK
6
CONTINUOUS
10
9.3880746850393706
20
-1.9700170472440945
11
9.388149606299212
21
-1.9703937007874015
0
LINE
8
BLACK
6
CONTINUOUS
10
9.388149606299212
20
-1.9703937007874015
11
9.388149606299212
21
-2.371968503937008
0
LINE
8
BLACK
6
CONTINUOUS
10
9.388149606299212
20
-2.371968503937008
11
9.3880746850393706
21
-2.3723451574803147
0
LINE
8
BLACK
6
CONTINUOUS
10
9.3880746850393706
20
-2.3723451574803147
11
9.3875420078740159
21
-2.3728778346456694
0
LINE
8
BLACK
6
CONTINUOUS
10
9.3875420078740159
20
-2.3728778346456694
11
9.3871653543307083
21
-2.3729527559055117
0
LINE
8
BLACK
6
CONTINUOUS
10
9.3871653543307083
20
-2.3729527559055117
11
9.0552755905511813
21
-2.3729527559055117
0
LINE
8
BLACK
6
CONTINUOUS
10
9.0552755905511813
20
-2.3729527559055117
11
9.0548989370078736
21
-2.3728778346456694
0
LINE
8
BLACK
6
CONTINUOUS
10
9.0548989370078736
20
-2.3728778346456694
11
9.054366259842519
21
-2.3723451574803147
0
LINE
8
BLACK
6
CONTINUOUS
10
9.054366259842519
20
-2.3723451574803147
11
9.0542913385826775
21
-2.371968503937008
0
LINE
8
BLACK
6
CONTINUOUS
10
9.0542913385826775
20
-2.371968503937008
11
9.0542913385826775
21
-1.9703937007874015
0
LINE
8
BLACK
6
CONTINUOUS
10
9.0542913385826775
20
-1.9703937007874015
11
9.054366259842519
21
-1.9700170472440945
0
LINE
8
BLACK
6
CONTINUOUS
10
9.054366259842519
20
-1.9700170472440945
11
9.0548989370078736
21
-1.9694843700787401
0
LINE
8
BLACK
6
CONTINUOUS
10
9.0548989370078736
20
-1.9694843700787401
11
9.0552755905511813
21
-1.9694094488188976
0
LINE
8
BLACK
6
CONTINUOUS
10
9.0552755905511813
20
-1.9694094488188976
11
9.3871653543307083
21
-1.9694094488188976
0
LINE
8
BLACK
6
CONTINUOUS
10
9.3871653543307083
20
-1.9694094488188976
11
9.3875420078740159
21
-1.9694843700787401
0
LINE
8
BLACK
6
CONTINUOUS
10
9.056259842519685
20
-1.9713779527559054
11
9.056259842519685
21
-2.3709842519685038
0
LINE
8
BLACK
6
CONTINUOUS
10
9.056259842519685
20
-2.3709842519685038
11
9.3861811023622046
21
-2.3709842519685038
0
LINE
8
BLACK
6
CONTINUOUS
10
9.3861811023622046
20
-2.3709842519685038
11
9.3861811023622046
21
-1.9713779527559054
0
LINE
8
BLACK
6
CONTINUOUS
10
9.3861811023622046
20
-1.9713779527559054
11
9.056259842519685
21
-1.9713779527559054
0
LINE
8
BLACK
6
CONTINUOUS
10
9.0117152362204731
20
-2.0353111417322833
11
9.012247913385826
21
-2.0358438188976375
0
LINE
8
BLACK
6
CONTINUOUS
10
9.012247913385826
20
-2.0358438188976375
11
9.0123228346456692
21
-2.0362204724409447
0
LINE
8
BLACK
6
CONTINUOUS
10
9.0123228346456692
20
-2.0362204724409447
11
9.0123228346456692
21
-2.1133858267716534
0
LINE
8
BLACK
6
CONTINUOUS
10
9.0123228346456692
20
-2.1133858267716534
11
9.012247913385826
21
-2.1137624803149606
0
LINE
8
BLACK
6
CONTINUOUS
10
9.012247913385826
20
-2.1137624803149606
11
9.0117152362204731
21
-2.1142951574803148
0
LINE
8
BLACK
6
CONTINUOUS
10
9.0117152362204731
20
-2.1142951574803148
11
9.0114481102362198
21
-2.1143482677165353
0
LINE
8
BLACK
6
CONTINUOUS
10
9.0114481102362198
20
-2.1143482677165353
11
9.0114481102362198
21
-2.1883772440944882
0
LINE
8
BLACK
6
CONTINUOUS
10
9.0114481102362198
20
-2.1883772440944882
11
9.0114164960629921
21
-2.188536023622047
0
LINE
8
BLACK
6
CONTINUOUS
10
9.0114164960629921
20
-2.188536023622047
11
9.0115983070866132
21
-2.188717834645669
0
LINE
8
BLACK
6
CONTINUOUS
10
9.0115983070866132
20
-2.188717834645669
11
9.0116732283464565
21
-2.1890944881889762
0
LINE
8
BLACK
6
CONTINUOUS
10
9.0116732283464565
20
-2.1890944881889762
11
9.0116732283464565
21
-2.2638976377952758
0
LINE
8
BLACK
6
CONTINUOUS
10
9.0116732283464565
20
-2.2638976377952758
11
9.0115983070866132
21
-2.2642742913385825
0
LINE
8
BLACK
6
CONTINUOUS
10
9.0115983070866132
20
-2.2642742913385825
11
9.0110656299212604
21
-2.2648069685039371
0
LINE
8
BLACK
6
CONTINUOUS
10
9.0110656299212604
20
-2.2648069685039371
11
9.0106889763779527
21
-2.2648818897637795
0
LINE
8
BLACK
6
CONTINUOUS
10
9.0106889763779527
20
-2.2648818897637795
11
8.8784055118110228
21
-2.2648818897637795
0
LINE
8
BLACK
6
CONTINUOUS
10
8.8784055118110228
20
-2.2648818897637795
11
8.8780288582677169
21
-2.2648069685039371
0
LINE
8
BLACK
6
CONTINUOUS
10
8.8780288582677169
20
-2.2648069685039371
11
8.8774961811023623
21
-2.2642742913385825
0
LINE
8
BLACK
6
CONTINUOUS
10
8.8774961811023623
20
-2.2642742913385825
11
8.8774212598425191
21
-2.2638976377952758
0
LINE
8
BLACK
6
CONTINUOUS
10
8.8774212598425191
20
-2.2638976377952758
11
8.8774212598425191
21
-2.1890944881889762
0
LINE
8
BLACK
6
CONTINUOUS
10
8.8774212598425191
20
-2.1890944881889762
11
8.8774528346456698
21
-2.1889356692913386
0
LINE
8
BLACK
6
CONTINUOUS
10
8.8774528346456698
20
-2.1889356692913386
11
8.8772710629921256
21
-2.1887538976377954
0
LINE
8
BLACK
6
CONTINUOUS
10
8.8772710629921256
20
-2.1887538976377954
11
8.8771961417322824
21
-2.1883772440944882
0
LINE
8
BLACK
6
CONTINUOUS
10
8.8771961417322824
20
-2.1883772440944882
11
8.8771961417322824
21
-2.1143135433070865
0
LINE
8
BLACK
6
CONTINUOUS
10
8.8771961417322824
20
-2.1143135433070865
11
8.8771036614173227
21
-2.1142951574803148
0
LINE
8
BLACK
6
CONTINUOUS
10
8.8771036614173227
20
-2.1142951574803148
11
8.876570984251968
21
-2.1137624803149606
0
LINE
8
BLACK
6
CONTINUOUS
10
8.876570984251968
20
-2.1137624803149606
11
8.8764960629921266
21
-2.1133858267716534
0
LINE
8
BLACK
6
CONTINUOUS
10
8.8764960629921266
20
-2.1133858267716534
11
8.8764960629921266
21
-2.0362204724409447
0
LINE
8
BLACK
6
CONTINUOUS
10
8.8764960629921266
20
-2.0362204724409447
11
8.876570984251968
21
-2.0358438188976375
0
LINE
8
BLACK
6
CONTINUOUS
10
8.876570984251968
20
-2.0358438188976375
11
8.8771036614173227
21
-2.0353111417322833
0
LINE
8
BLACK
6
CONTINUOUS
10
8.8771036614173227
20
-2.0353111417322833
11
8.8774803149606303
21
-2.035236220472441
0
LINE
8
BLACK
6
CONTINUOUS
10
8.8774803149606303
20
-2.035236220472441
11
9.0113385826771655
21
-2.035236220472441
0
LINE
8
BLACK
6
CONTINUOUS
10
9.0113385826771655
20
-2.035236220472441
11
9.0117152362204731
21
-2.0353111417322833
0
LINE
8
BLACK
6
CONTINUOUS
10
8.8793897637795265
20
-2.1900787401574804
11
8.8793897637795265
21
-2.2629133858267716
0
LINE
8
BLACK
6
CONTINUOUS
10
8.8793897637795265
20
-2.2629133858267716
11
9.009704724409449
21
-2.2629133858267716
0
LINE
8
BLACK
6
CONTINUOUS
10
9.009704724409449
20
-2.2629133858267716
11
9.009704724409449
21
-2.1900787401574804
0
LINE
8
BLACK
6
CONTINUOUS
10
9.009704724409449
20
-2.1900787401574804
11
8.8793897637795265
21
-2.1900787401574804
0
LINE
8
BLACK
6
CONTINUOUS
10
8.8791646456692916
20
-2.1145583464566928
11
8.8791646456692916
21
-2.187392992125984
0
LINE
8
BLACK
6
CONTINUOUS
10
8.8791646456692916
20
-2.187392992125984
11
9.0094796062992124
21
-2.187392992125984
0
LINE
8
BLACK
6
CONTINUOUS
10
9.0094796062992124
20
-2.187392992125984
11
9.0094796062992124
21
-2.1145583464566928
0
LINE
8
BLACK
6
CONTINUOUS
10
9.0094796062992124
20
-2.1145583464566928
11
8.8791646456692916
21
-2.1145583464566928
0
LINE
8
BLACK
6
CONTINUOUS
10
8.878464566929134
20
-2.0372047244094489
11
8.878464566929134
21
-2.1124015748031497
0
LINE
8
BLACK
6
CONTINUOUS
10
8.878464566929134
20
-2.1124015748031497
11
9.0103543307086618
21
-2.1124015748031497
0
LINE
8
BLACK
6
CONTINUOUS
10
9.0103543307086618
20
-2.1124015748031497
11
9.0103543307086618
21
-2.0372047244094489
0
LINE
8
BLACK
6
CONTINUOUS
10
9.0103543307086618
20
-2.0372047244094489
11
8.878464566929134
21
-2.0372047244094489
0
LINE
8
BLACK
6
CONTINUOUS
10
3.0121876771653544
20
-1.9042087795275591
11
3.0127203543307086
21
-1.9047414566929133
0
LINE
8
BLACK
6
CONTINUOUS
10
3.0127203543307086
20
-1.9047414566929133
11
3.0127952755905509
21
-1.9051181102362205
0
LINE
8
BLACK
6
CONTINUOUS
10
3.0127952755905509
20
-1.9051181102362205
11
3.0127952755905509
21
-1.9799212598425195
0
LINE
8
BLACK
6
CONTINUOUS
10
3.0127952755905509
20
-1.9799212598425195
11
3.0127203543307086
21
-1.9802979133858267
0
LINE
8
BLACK
6
CONTINUOUS
10
3.0127203543307086
20
-1.9802979133858267
11
3.0121876771653544
21
-1.9808305905511812
0
LINE
8
BLACK
6
CONTINUOUS
10
3.0121876771653544
20
-1.9808305905511812
11
3.0118110236220472
21
-1.9809055118110235
0
LINE
8
BLACK
6
CONTINUOUS
10
3.0118110236220472
20
-1.9809055118110235
11
2.8795275590551181
21
-1.9809055118110235
0
LINE
8
BLACK
6
CONTINUOUS
10
2.8795275590551181
20
-1.9809055118110235
11
2.879150905511811
21
-1.9808305905511812
0
LINE
8
BLACK
6
CONTINUOUS
10
2.879150905511811
20
-1.9808305905511812
11
2.8786182283464568
21
-1.9802979133858267
0
LINE
8
BLACK
6
CONTINUOUS
10
2.8786182283464568
20
-1.9802979133858267
11
2.878543307086614
21
-1.9799212598425195
0
LINE
8
BLACK
6
CONTINUOUS
10
2.878543307086614
20
-1.9799212598425195
11
2.878543307086614
21
-1.9051181102362205
0
LINE
8
BLACK
6
CONTINUOUS
10
2.878543307086614
20
-1.9051181102362205
11
2.8786182283464568
21
-1.9047414566929133
0
LINE
8
BLACK
6
CONTINUOUS
10
2.8786182283464568
20
-1.9047414566929133
11
2.879150905511811
21
-1.9042087795275591
0
LINE
8
BLACK
6
CONTINUOUS
10
2.879150905511811
20
-1.9042087795275591
11
2.8795275590551181
21
-1.9041338582677165
0
LINE
8
BLACK
6
CONTINUOUS
10
2.8795275590551181
20
-1.9041338582677165
11
3.0118110236220472
21
-1.9041338582677165
0
LINE
8
BLACK
6
CONTINUOUS
10
3.0118110236220472
20
-1.9041338582677165
11
3.0121876771653544
21
-1.9042087795275591
0
LINE
8
BLACK
6
CONTINUOUS
10
2.8805118110236219
20
-1.9061023622047244
11
2.8805118110236219
21
-1.9789370078740156
0
LINE
8
BLACK
6
CONTINUOUS
10
2.8805118110236219
20
-1.9789370078740156
11
3.0108267716535431
21
-1.9789370078740156
0
LINE
8
BLACK
6
CONTINUOUS
10
3.0108267716535431
20
-1.9789370078740156
11
3.0108267716535431
21
-1.9061023622047244
0
LINE
8
BLACK
6
CONTINUOUS
10
3.0108267716535431
20
-1.9061023622047244
11
2.8805118110236219
21
-1.9061023622047244
0
LINE
8
BLACK
6
CONTINUOUS
10
6.0925196850393704
20
-5.5901574803149607
11
6.0925196850393704
21
-5.6059055118110237
0
ARC
8
BLACK
10
6.1102362204724407
20
-5.6059055118110237
40
0.0177165354330709
50
-180.00000000
51
0.00000000
0
LINE
8
BLACK
6
CONTINUOUS
10
6.127952755905512
20
-5.6059055118110237
11
6.127952755905512
21
-5.5901574803149607
0
ARC
8
BLACK
10
6.1102362204724407
20
-5.5901574803149607
40
0.0177165354330709
50
0.00000000
51
180.00000000
0
LINE
8
BLACK
6
CONTINUOUS
10
6.2598425196850389
20
-5.5901574803149607
11
6.2598425196850389
21
-5.6059055118110237
0
ARC
8
BLACK
10
6.2775590551181102
20
-5.6059055118110237
40
0.0177165354330709
50
-180.00000000
51
0.00000000
0
LINE
8
BLACK
6
CONTINUOUS
10
6.2952755905511806
20
-5.6059055118110237
11
6.2952755905511806
21
-5.5901574803149607
0
ARC
8
BLACK
10
6.2775590551181102
20
-5.5901574803149607
40
0.0177165354330709
50
0.00000000
51
180.00000000
0
CIRCLE
8
BLACK
10
5.5651181102362202
20
-3.5463779527559054
40
0.0068897637795276
0
CIRCLE
8
BLACK
10
5.506062992125984
20
-1.4696062992125984
40
0.0068897637795276
0
CIRCLE
8
BLACK
10
9.1477952755905516
20
-3.507007874015748
40
0.0068897637795276
0
CIRCLE
8
BLACK
10
7.1354330708661413
20
-5.7086614173228343
40
0.0068897637795276
0
CIRCLE
8
BLACK
10
7.1354330708661413
20
-5.6086614173228346
40
0.0068897637795276
0
CIRCLE
8
BLACK
10
7.2354330708661418
20
-5.7086614173228343
40
0.0068897637795276
0
CIRCLE
8
BLACK
10
7.2354330708661418
20
-5.6086614173228346
40
0.0068897637795276
0
CIRCLE
8
BLACK
10
7.3354330708661415
20
-5.7086614173228343
40
0.0068897637795276
0
CIRCLE
8
BLACK
10
7.3354330708661415
20
-5.6086614173228346
40
0.0068897637795276
0
CIRCLE
8
BLACK
10
9.1576377952755905
20
-1.4696062992125984
40
0.0068897637795276
0
CIRCLE
8
BLACK
10
6.2204724409448815
20
-2.0964566929133857
40
0.0068897637795276
0
CIRCLE
8
BLACK
10
6.2204724409448815
20
-2.856299212598425
40
0.0068897637795276
0
CIRCLE
8
BLACK
10
8.4102362204724415
20
-2.0964566929133857
40
0.0068897637795276
0
CIRCLE
8
BLACK
10
8.4102362204724415
20
-2.856299212598425
40
0.0068897637795276
0
CIRCLE
8
BLACK
10
5.8862204724409448
20
-2.0964566929133857
40
0.0068897637795276
0
CIRCLE
8
BLACK
10
8.7444881889763781
20
-2.0964566929133857
40
0.0068897637795276
0
CIRCLE
8
BLACK
10
5.8862204724409448
20
-2.856299212598425
40
0.0068897637795276
0
CIRCLE
8
BLACK
10
8.7444881889763781
20
-2.856299212598425
40
0.0068897637795276
0
CIRCLE
8
BLACK
10
6.8334645669291341
20
-5.590551181102362
40
0.0068897637795276
0
CIRCLE
8
BLACK
10
6.7334645669291335
20
-5.590551181102362
40
0.0068897637795276
0
CIRCLE
8
BLACK
10
6.6334645669291339
20
-5.590551181102362
40
0.0068897637795276
0
CIRCLE
8
BLACK
10
6.5334645669291334
20
-5.590551181102362
40
0.0068897637795276
0
CIRCLE
8
BLACK
10
9.3123622047244101
20
-2.2849606299212599
40
0.0068897637795276
0
CIRCLE
8
BLACK
10
9.3123622047244101
20
-2.0574015748031496
40
0.0068897637795276
0
LINE
8
BLACK
6
CONTINUOUS
10
9.1477952755905516
20
-2.3609448818897638
11
9.187165354330709
21
-2.3609448818897638
0
ARC
8
BLACK
10
9.187165354330709
20
-2.3412598425196851
40
0.0196850393700787
50
-90.00000000
51
90.00000000
0
LINE
8
BLACK
6
CONTINUOUS
10
9.187165354330709
20
-2.3215748031496064
11
9.1477952755905516
21
-2.3215748031496064
0
ARC
8
BLACK
10
9.1477952755905516
20
-2.3412598425196851
40
0.0196850393700787
50
90.00000000
51
270.00000000
0
LINE
8
BLACK
6
CONTINUOUS
10
9.1477952755905516
20
-2.0207874015748031
11
9.187165354330709
21
-2.0207874015748031
0
ARC
8
BLACK
10
9.187165354330709
20
-2.0011023622047244
40
0.0196850393700787
50
-90.00000000
51
90.00000000
0
LINE
8
BLACK
6
CONTINUOUS
10
9.187165354330709
20
-1.9814173228346457
11
9.1477952755905516
21
-1.9814173228346457
0
ARC
8
BLACK
10
9.1477952755905516
20
-2.0011023622047244
40
0.0196850393700787
50
90.00000000
51
270.00000000
0
LINE
8
BLACK
6
CONTINUOUS
10
9.3113779527559046
20
-2.3619291338582675
11
9.3527165354330712
21
-2.3619291338582675
0
ARC
8
BLACK
10
9.3527165354330712
20
-2.3412598425196851
40
0.0206692913385827
50
-90.00000000
51
90.00000000
0
LINE
8
BLACK
6
CONTINUOUS
10
9.3527165354330712
20
-2.3205905511811022
11
9.3113779527559046
21
-2.3205905511811022
0
ARC
8
BLACK
10
9.3113779527559046
20
-2.3412598425196851
40
0.0206692913385827
50
90.00000000
51
270.00000000
0
LINE
8
BLACK
6
CONTINUOUS
10
9.3113779527559046
20
-2.0217716535433072
11
9.3527165354330712
21
-2.0217716535433072
0
ARC
8
BLACK
10
9.3527165354330712
20
-2.0011023622047244
40
0.0206692913385827
50
-90.00000000
51
90.00000000
0
LINE
8
BLACK
6
CONTINUOUS
10
9.3527165354330712
20
-1.9804330708661417
11
9.3113779527559046
21
-1.9804330708661417
0
ARC
8
BLACK
10
9.3113779527559046
20
-2.0011023622047244
40
0.0206692913385827
50
90.00000000
51
270.00000000
0
LINE
8
BLACK
6
CONTINUOUS
10
6.1003937007874018
20
-5.5901574803149607
11
6.1003937007874018
21
-5.6059055118110237
0
ARC
8
BLACK
10
6.1102362204724407
20
-5.6059055118110237
40
0.0098425196850394
50
-180.00000000
51
0.00000000
0
LINE
8
BLACK
6
CONTINUOUS
10
6.1200787401574805
20
-5.6059055118110237
11
6.1200787401574805
21
-5.5901574803149607
0
ARC
8
BLACK
10
6.1102362204724407
20
-5.5901574803149607
40
0.0098425196850394
50
0.00000000
51
180.00000000
0
LINE
8
BLACK
6
CONTINUOUS
10
6.2677165354330704
20
-5.5901574803149607
11
6.2677165354330704
21
-5.6059055118110237
0
ARC
8
BLACK
10
6.2775590551181102
20
-5.6059055118110237
40
0.0098425196850394
50
-180.00000000
51
0.00000000
0
LINE
8
BLACK
6
CONTINUOUS
10
6.2874015748031491
20
-5.6059055118110237
11
6.2874015748031491
21
-5.5901574803149607
0
ARC
8
BLACK
10
6.2775590551181102
20
-5.5901574803149607
40
0.0098425196850394
50
0.00000000
51
180.00000000
0
CIRCLE
8
BLACK
10
5.5651181102362202
20
-3.5463779527559054
40
0.0068897637795276
0
CIRCLE
8
BLACK
10
5.506062992125984
20
-1.4696062992125984
40
0.0068897637795276
0
CIRCLE
8
BLACK
10
9.1477952755905516
20
-3.507007874015748
40
0.0068897637795276
0
CIRCLE
8
BLACK
10
7.1354330708661413
20
-5.7086614173228343
40
0.0068897637795276
0
CIRCLE
8
BLACK
10
7.1354330708661413
20
-5.6086614173228346
40
0.0068897637795276
0
CIRCLE
8
BLACK
10
7.2354330708661418
20
-5.7086614173228343
40
0.0068897637795276
0
CIRCLE
8
BLACK
10
7.2354330708661418
20
-5.6086614173228346
40
0.0068897637795276
0
CIRCLE
8
BLACK
10
7.3354330708661415
20
-5.7086614173228343
40
0.0068897637795276
0
CIRCLE
8
BLACK
10
7.3354330708661415
20
-5.6086614173228346
40
0.0068897637795276
0
CIRCLE
8
BLACK
10
9.1576377952755905
20
-1.4696062992125984
40
0.0068897637795276
0
CIRCLE
8
BLACK
10
6.2204724409448815
20
-2.0964566929133857
40
0.0068897637795276
0
CIRCLE
8
BLACK
10
6.2204724409448815
20
-2.856299212598425
40
0.0068897637795276
0
CIRCLE
8
BLACK
10
8.4102362204724415
20
-2.0964566929133857
40
0.0068897637795276
0
CIRCLE
8
BLACK
10
8.4102362204724415
20
-2.856299212598425
40
0.0068897637795276
0
CIRCLE
8
BLACK
10
5.8862204724409448
20
-2.0964566929133857
40
0.0068897637795276
0
CIRCLE
8
BLACK
10
8.7444881889763781
20
-2.0964566929133857
40
0.0068897637795276
0
CIRCLE
8
BLACK
10
5.8862204724409448
20
-2.856299212598425
40
0.0068897637795276
0
CIRCLE
8
BLACK
10
8.7444881889763781
20
-2.856299212598425
40
0.0068897637795276
0
CIRCLE
8
BLACK
10
6.8334645669291341
20
-5.590551181102362
40
0.0068897637795276
0
CIRCLE
8
BLACK
10
6.7334645669291335
20
-5.590551181102362
40
0.0068897637795276
0
CIRCLE
8
BLACK
10
6.6334645669291339
20
-5.590551181102362
40
0.0068897637795276
0
CIRCLE
8
BLACK
10
6.5334645669291334
20
-5.590551181102362
40
0.0068897637795276
0
CIRCLE
8
BLACK
10
9.3123622047244101
20
-2.2849606299212599
40
0.0068897637795276
0
CIRCLE
8
BLACK
10
9.3123622047244101
20
-2.0574015748031496
40
0.0068897637795276
0
LINE
8
BLACK
6
CONTINUOUS
10
9.1517322834645665
20
-2.3530708661417323
11
9.1832283464566924
21
-2.3530708661417323
0
ARC
8
BLACK
10
9.1832283464566924
20
-2.3412598425196851
40
0.0118110236220472
50
-90.00000000
51
90.00000000
0
LINE
8
BLACK
6
CONTINUOUS
10
9.1832283464566924
20
-2.3294488188976379
11
9.1517322834645665
21
-2.3294488188976379
0
ARC
8
BLACK
10
9.1517322834645665
20
-2.3412598425196851
40
0.0118110236220472
50
90.00000000
51
270.00000000
0
LINE
8
BLACK
6
CONTINUOUS
10
9.1517322834645665
20
-2.0129133858267716
11
9.1832283464566924
21
-2.0129133858267716
0
ARC
8
BLACK
10
9.1832283464566924
20
-2.0011023622047244
40
0.0118110236220472
50
-90.00000000
51
90.00000000
0
LINE
8
BLACK
6
CONTINUOUS
10
9.1832283464566924
20
-1.9892913385826771
11
9.1517322834645665
21
-1.9892913385826771
0
ARC
8
BLACK
10
9.1517322834645665
20
-2.0011023622047244
40
0.0118110236220472
50
90.00000000
51
270.00000000
0
LINE
8
BLACK
6
CONTINUOUS
10
9.3103937007874009
20
-2.3530708661417323
11
9.353700787401575
21
-2.3530708661417323
0
ARC
8
BLACK
10
9.353700787401575
20
-2.3412598425196851
40
0.0118110236220472
50
-90.00000000
51
90.00000000
0
LINE
8
BLACK
6
CONTINUOUS
10
9.353700787401575
20
-2.3294488188976379
11
9.3103937007874009
21
-2.3294488188976379
0
ARC
8
BLACK
10
9.3103937007874009
20
-2.3412598425196851
40
0.0118110236220472
50
90.00000000
51
270.00000000
0
LINE
8
BLACK
6
CONTINUOUS
10
9.3103937007874009
20
-2.0129133858267716
11
9.353700787401575
21
-2.0129133858267716
0
ARC
8
BLACK
10
9.353700787401575
20
-2.0011023622047244
40
0.0118110236220472
50
-90.00000000
51
90.00000000
0
LINE
8
BLACK
6
CONTINUOUS
10
9.353700787401575
20
-1.9892913385826771
11
9.3103937007874009
21
-1.9892913385826771
0
ARC
8
BLACK
10
9.3103937007874009
20
-2.0011023622047244
40
0.0118110236220472
50
90.00000000
51
270.00000000
  0
ENDSEC
  0
EOF
