<!DOCTYPE svg PUBLIC "-//W3C//DTD SVG 1.1//EN" "http://www.w3.org/Graphics/SVG/1.1/DTD/svg11.dtd">
<svg xmlns="http://www.w3.org/2000/svg" version="1.1" width="307.0mm" height="220.0mm" viewBox="-302.0 -5.0 307.0 220.0">
            <title>Picture generated by PcbDraw </title>
            <desc>Picture generated by PcbDraw</desc>
        <defs><clipPath id="cut-off"><path d="" style="fill-rule: evenodd;"/></clipPath><mask id="pads-mask"><g style="fill:none;  stroke:#ffffff; stroke-width:0.9000; stroke-opacity:1;  stroke-linecap:round; stroke-linejoin:round;">
<path d="M140.8770 114.5460 L140.8770 114.9460 "/>
<path d="M145.1270 114.5460 L145.1270 114.9460 "/>
</g>
<g style="fill:#ffffff; fill-opacity:1.0000; stroke:none;">
<circle cx="88.7730" cy="88.6460" r="3.0000"/> 
</g>
<g style="fill:#ffffff; fill-opacity:1.0000; stroke:none;">
<circle cx="184.6550" cy="63.4040" r="0.3250"/> 
</g>
<g style="fill:#ffffff; fill-opacity:1.0000; stroke:none;">
<circle cx="184.6550" cy="69.1840" r="0.3250"/> 
</g>
<g style="fill:none;  stroke:#ffffff; stroke-width:1.0000; stroke-opacity:1;  stroke-linecap:round; stroke-linejoin:round;">
<path d="M181.4750 61.9740 L180.4750 61.9740 "/>
<path d="M181.4750 70.6140 L180.4750 70.6140 "/>
</g>
<g style="fill:none;  stroke:#ffffff; stroke-width:1.0500; stroke-opacity:1;  stroke-linecap:round; stroke-linejoin:round;">
<path d="M185.6800 61.9740 L184.6300 61.9740 "/>
<path d="M185.6800 70.6140 L184.6300 70.6140 "/>
</g>
<g style="fill:#ffffff; fill-opacity:1.0000; stroke:none;">
<circle cx="88.3920" cy="40.8940" r="3.0000"/> 
</g>
<g style="fill:#ffffff; fill-opacity:1.0000; stroke:none;">
<circle cx="182.6260" cy="88.1380" r="3.0000"/> 
<path style="fill:#ffffff; fill-opacity:1.0000; stroke:none;fill-rule:evenodd;" d="M 99.7340,119.2140 99.7340,117.5140 101.4340,117.5140 101.4340,119.2140 Z"/> 
</g>
<g style="fill:#ffffff; fill-opacity:1.0000; stroke:none;">
<circle cx="103.1240" cy="118.3640" r="0.8500"/> 
</g>
<g style="fill:#ffffff; fill-opacity:1.0000; stroke:none;">
<circle cx="100.5840" cy="120.9040" r="0.8500"/> 
</g>
<g style="fill:#ffffff; fill-opacity:1.0000; stroke:none;">
<circle cx="103.1240" cy="120.9040" r="0.8500"/> 
</g>
<g style="fill:#ffffff; fill-opacity:1.0000; stroke:none;">
<circle cx="100.5840" cy="123.4440" r="0.8500"/> 
</g>
<g style="fill:#ffffff; fill-opacity:1.0000; stroke:none;">
<circle cx="103.1240" cy="123.4440" r="0.8500"/> 
</g>
<g style="fill:#ffffff; fill-opacity:1.0000; stroke:none;">
<circle cx="183.1340" cy="40.6400" r="3.0000"/> 
</g>
<g style="fill:#ffffff; fill-opacity:1.0000; stroke:none;">
<circle cx="106.6460" cy="55.9220" r="1.6000"/> 
</g>
<g style="fill:#ffffff; fill-opacity:1.0000; stroke:none;">
<circle cx="106.6460" cy="75.2220" r="1.6000"/> 
</g>
<g style="fill:#ffffff; fill-opacity:1.0000; stroke:none;">
<circle cx="162.2660" cy="55.9220" r="1.6000"/> 
</g>
<g style="fill:#ffffff; fill-opacity:1.0000; stroke:none;">
<circle cx="162.2660" cy="75.2220" r="1.6000"/> 
<path style="fill:#ffffff; fill-opacity:1.0000; stroke:none;fill-rule:evenodd;" d="M 96.1560,57.9220 96.1560,53.9220 100.1560,53.9220 100.1560,57.9220 Z"/> 
<path style="fill:#ffffff; fill-opacity:1.0000; stroke:none;fill-rule:evenodd;" d="M 168.7560,57.9220 168.7560,53.9220 172.7560,53.9220 172.7560,57.9220 Z"/> 
<path style="fill:#ffffff; fill-opacity:1.0000; stroke:none;fill-rule:evenodd;" d="M 96.1560,77.2220 96.1560,73.2220 100.1560,73.2220 100.1560,77.2220 Z"/> 
<path style="fill:#ffffff; fill-opacity:1.0000; stroke:none;fill-rule:evenodd;" d="M 168.7560,77.2220 168.7560,73.2220 172.7560,73.2220 172.7560,77.2220 Z"/> 
<path style="fill:#ffffff; fill-opacity:1.0000; stroke:none;fill-rule:evenodd;" d="M 105.0680,128.4360 106.7680,128.4360 106.7680,130.1360 105.0680,130.1360 Z"/> 
</g>
<g style="fill:#ffffff; fill-opacity:1.0000; stroke:none;">
<circle cx="103.3780" cy="129.2860" r="0.8500"/> 
</g>
<g style="fill:#ffffff; fill-opacity:1.0000; stroke:none;">
<circle cx="100.8380" cy="129.2860" r="0.8500"/> 
</g>
<g style="fill:#ffffff; fill-opacity:1.0000; stroke:none;">
<circle cx="98.2980" cy="129.2860" r="0.8500"/> 
</g> 
</mask><mask id="pads-mask-silkscreen"><rect x="0.0" y="0.0" width="297.0" height="210.0" fill="white"/><g style="fill:none;  stroke:#000000; stroke-width:0.9000; stroke-opacity:1;  stroke-linecap:round; stroke-linejoin:round;">
<path d="M140.8770 114.5460 L140.8770 114.9460 "/>
<path d="M145.1270 114.5460 L145.1270 114.9460 "/>
</g>
<g style="fill:#000000; fill-opacity:1.0000; stroke:none;">
<circle cx="88.7730" cy="88.6460" r="3.0000"/> 
</g>
<g style="fill:#000000; fill-opacity:1.0000; stroke:none;">
<circle cx="184.6550" cy="63.4040" r="0.3250"/> 
</g>
<g style="fill:#000000; fill-opacity:1.0000; stroke:none;">
<circle cx="184.6550" cy="69.1840" r="0.3250"/> 
</g>
<g style="fill:none;  stroke:#000000; stroke-width:1.0000; stroke-opacity:1;  stroke-linecap:round; stroke-linejoin:round;">
<path d="M181.4750 61.9740 L180.4750 61.9740 "/>
<path d="M181.4750 70.6140 L180.4750 70.6140 "/>
</g>
<g style="fill:none;  stroke:#000000; stroke-width:1.0500; stroke-opacity:1;  stroke-linecap:round; stroke-linejoin:round;">
<path d="M185.6800 61.9740 L184.6300 61.9740 "/>
<path d="M185.6800 70.6140 L184.6300 70.6140 "/>
</g>
<g style="fill:#000000; fill-opacity:1.0000; stroke:none;">
<circle cx="88.3920" cy="40.8940" r="3.0000"/> 
</g>
<g style="fill:#000000; fill-opacity:1.0000; stroke:none;">
<circle cx="182.6260" cy="88.1380" r="3.0000"/> 
<path style="fill:#000000; fill-opacity:1.0000; stroke:none;fill-rule:evenodd;" d="M 99.7340,119.2140 99.7340,117.5140 101.4340,117.5140 101.4340,119.2140 Z"/> 
</g>
<g style="fill:#000000; fill-opacity:1.0000; stroke:none;">
<circle cx="103.1240" cy="118.3640" r="0.8500"/> 
</g>
<g style="fill:#000000; fill-opacity:1.0000; stroke:none;">
<circle cx="100.5840" cy="120.9040" r="0.8500"/> 
</g>
<g style="fill:#000000; fill-opacity:1.0000; stroke:none;">
<circle cx="103.1240" cy="120.9040" r="0.8500"/> 
</g>
<g style="fill:#000000; fill-opacity:1.0000; stroke:none;">
<circle cx="100.5840" cy="123.4440" r="0.8500"/> 
</g>
<g style="fill:#000000; fill-opacity:1.0000; stroke:none;">
<circle cx="103.1240" cy="123.4440" r="0.8500"/> 
</g>
<g style="fill:#000000; fill-opacity:1.0000; stroke:none;">
<circle cx="183.1340" cy="40.6400" r="3.0000"/> 
</g>
<g style="fill:#000000; fill-opacity:1.0000; stroke:none;">
<circle cx="106.6460" cy="55.9220" r="1.6000"/> 
</g>
<g style="fill:#000000; fill-opacity:1.0000; stroke:none;">
<circle cx="106.6460" cy="75.2220" r="1.6000"/> 
</g>
<g style="fill:#000000; fill-opacity:1.0000; stroke:none;">
<circle cx="162.2660" cy="55.9220" r="1.6000"/> 
</g>
<g style="fill:#000000; fill-opacity:1.0000; stroke:none;">
<circle cx="162.2660" cy="75.2220" r="1.6000"/> 
<path style="fill:#000000; fill-opacity:1.0000; stroke:none;fill-rule:evenodd;" d="M 96.1560,57.9220 96.1560,53.9220 100.1560,53.9220 100.1560,57.9220 Z"/> 
<path style="fill:#000000; fill-opacity:1.0000; stroke:none;fill-rule:evenodd;" d="M 168.7560,57.9220 168.7560,53.9220 172.7560,53.9220 172.7560,57.9220 Z"/> 
<path style="fill:#000000; fill-opacity:1.0000; stroke:none;fill-rule:evenodd;" d="M 96.1560,77.2220 96.1560,73.2220 100.1560,73.2220 100.1560,77.2220 Z"/> 
<path style="fill:#000000; fill-opacity:1.0000; stroke:none;fill-rule:evenodd;" d="M 168.7560,77.2220 168.7560,73.2220 172.7560,73.2220 172.7560,77.2220 Z"/> 
<path style="fill:#000000; fill-opacity:1.0000; stroke:none;fill-rule:evenodd;" d="M 105.0680,128.4360 106.7680,128.4360 106.7680,130.1360 105.0680,130.1360 Z"/> 
</g>
<g style="fill:#000000; fill-opacity:1.0000; stroke:none;">
<circle cx="103.3780" cy="129.2860" r="0.8500"/> 
</g>
<g style="fill:#000000; fill-opacity:1.0000; stroke:none;">
<circle cx="100.8380" cy="129.2860" r="0.8500"/> 
</g>
<g style="fill:#000000; fill-opacity:1.0000; stroke:none;">
<circle cx="98.2980" cy="129.2860" r="0.8500"/> 
</g> 
</mask><mask id="hole-mask"><g><rect x="0.0" y="0.0" fill="white" width="297.0" height="210.0"/><polyline stroke-linecap="round" stroke="black" stroke-width="0.5" points="0 -0.2 0 0.2" transform="translate(140.877 114.746) rotate(-0.0)"/><polyline stroke-linecap="round" stroke="black" stroke-width="0.5" points="0 -0.2 0 0.2" transform="translate(145.127 114.746) rotate(-0.0)"/><polyline stroke-linecap="round" stroke="black" stroke-width="3.0" points="-0.0 0 0.0 0" transform="translate(88.773 88.646) rotate(-0.0)"/><polyline stroke-linecap="round" stroke="black" stroke-width="0.65" points="-0.0 0 0.0 0" transform="translate(184.655 63.404) rotate(-270.0)"/><polyline stroke-linecap="round" stroke="black" stroke-width="0.65" points="-0.0 0 0.0 0" transform="translate(184.655 69.184) rotate(-270.0)"/><polyline stroke-linecap="round" stroke="black" stroke-width="0.6" points="0 -0.39999999999999997 0 0.39999999999999997" transform="translate(180.975 61.974) rotate(-270.0)"/><polyline stroke-linecap="round" stroke="black" stroke-width="0.6" points="0 -0.39999999999999997 0 0.39999999999999997" transform="translate(180.975 70.614) rotate(-270.0)"/><polyline stroke-linecap="round" stroke="black" stroke-width="0.6" points="0 -0.55 0 0.55" transform="translate(185.155 61.974) rotate(-270.0)"/><polyline stroke-linecap="round" stroke="black" stroke-width="0.6" points="0 -0.55 0 0.55" transform="translate(185.155 70.614) rotate(-270.0)"/><polyline stroke-linecap="round" stroke="black" stroke-width="3.0" points="-0.0 0 0.0 0" transform="translate(88.392 40.894) rotate(-0.0)"/><polyline stroke-linecap="round" stroke="black" stroke-width="3.0" points="-0.0 0 0.0 0" transform="translate(182.626 88.138) rotate(-0.0)"/><polyline stroke-linecap="round" stroke="black" stroke-width="1.0" points="-0.0 0 0.0 0" transform="translate(100.584 118.364) rotate(-0.0)"/><polyline stroke-linecap="round" stroke="black" stroke-width="1.0" points="-0.0 0 0.0 0" transform="translate(103.124 118.364) rotate(-0.0)"/><polyline stroke-linecap="round" stroke="black" stroke-width="1.0" points="-0.0 0 0.0 0" transform="translate(100.584 120.904) rotate(-0.0)"/><polyline stroke-linecap="round" stroke="black" stroke-width="1.0" points="-0.0 0 0.0 0" transform="translate(103.124 120.904) rotate(-0.0)"/><polyline stroke-linecap="round" stroke="black" stroke-width="1.0" points="-0.0 0 0.0 0" transform="translate(100.584 123.444) rotate(-0.0)"/><polyline stroke-linecap="round" stroke="black" stroke-width="1.0" points="-0.0 0 0.0 0" transform="translate(103.124 123.444) rotate(-0.0)"/><polyline stroke-linecap="round" stroke="black" stroke-width="3.0" points="-0.0 0 0.0 0" transform="translate(183.134 40.64) rotate(-0.0)"/><polyline stroke-linecap="round" stroke="black" stroke-width="3.2" points="-0.0 0 0.0 0" transform="translate(106.646 55.922) rotate(-0.0)"/><polyline stroke-linecap="round" stroke="black" stroke-width="3.2" points="-0.0 0 0.0 0" transform="translate(106.646 75.222) rotate(-0.0)"/><polyline stroke-linecap="round" stroke="black" stroke-width="3.2" points="-0.0 0 0.0 0" transform="translate(162.266 55.922) rotate(-0.0)"/><polyline stroke-linecap="round" stroke="black" stroke-width="3.2" points="-0.0 0 0.0 0" transform="translate(162.266 75.222) rotate(-0.0)"/><polyline stroke-linecap="round" stroke="black" stroke-width="1.6" points="-0.0 0 0.0 0" transform="translate(98.156 55.922) rotate(-0.0)"/><polyline stroke-linecap="round" stroke="black" stroke-width="1.6" points="-0.0 0 0.0 0" transform="translate(170.756 55.922) rotate(-0.0)"/><polyline stroke-linecap="round" stroke="black" stroke-width="1.6" points="-0.0 0 0.0 0" transform="translate(98.156 75.222) rotate(-0.0)"/><polyline stroke-linecap="round" stroke="black" stroke-width="1.6" points="-0.0 0 0.0 0" transform="translate(170.756 75.222) rotate(-0.0)"/><polyline stroke-linecap="round" stroke="black" stroke-width="1.0" points="-0.0 0 0.0 0" transform="translate(105.918 129.286) rotate(-270.0)"/><polyline stroke-linecap="round" stroke="black" stroke-width="1.0" points="-0.0 0 0.0 0" transform="translate(103.378 129.286) rotate(-270.0)"/><polyline stroke-linecap="round" stroke="black" stroke-width="1.0" points="-0.0 0 0.0 0" transform="translate(100.838 129.286) rotate(-270.0)"/><polyline stroke-linecap="round" stroke="black" stroke-width="1.0" points="-0.0 0 0.0 0" transform="translate(98.298 129.286) rotate(-270.0)"/></g></mask></defs><g transform="scale(-1,1)" id="boardContainer"><g id="substrate" clip-path="url(#cut-off)" mask="url(#hole-mask)"><g id="substrate-board" style="fill:#f1f4f3; stroke:#f1f4f3;"><path d="" style="fill-rule: evenodd;"/></g><g id="substrate-clad" style="fill:#72786c; stroke:#72786c;"><g style="fill: none;stroke: #72786c;stroke-width: 0.9000;stroke-opacity: 1;stroke-linecap: round;stroke-linejoin: round">
<path d="M140.8770 114.5460 L140.8770 114.9460 "/>
<path d="M145.1270 114.5460 L145.1270 114.9460 "/>
</g>
<g style="fill: #72786c;fill-opacity: 1.0000;stroke: none">
<circle cx="88.7730" cy="88.6460" r="3.0000"/> 
</g>
<g style="fill: #72786c;fill-opacity: 1.0000;stroke: none">
<circle cx="184.6550" cy="63.4040" r="0.3250"/> 
</g>
<g style="fill: #72786c;fill-opacity: 1.0000;stroke: none">
<circle cx="184.6550" cy="69.1840" r="0.3250"/> 
</g>
<g style="fill: none;stroke: #72786c;stroke-width: 1.0000;stroke-opacity: 1;stroke-linecap: round;stroke-linejoin: round">
<path d="M181.4750 61.9740 L180.4750 61.9740 "/>
<path d="M181.4750 70.6140 L180.4750 70.6140 "/>
</g>
<g style="fill: none;stroke: #72786c;stroke-width: 1.0500;stroke-opacity: 1;stroke-linecap: round;stroke-linejoin: round">
<path d="M185.6800 61.9740 L184.6300 61.9740 "/>
<path d="M185.6800 70.6140 L184.6300 70.6140 "/>
</g>
<g style="fill: #72786c;fill-opacity: 1.0000;stroke: none">
<circle cx="88.3920" cy="40.8940" r="3.0000"/> 
</g>
<g style="fill: #72786c;fill-opacity: 1.0000;stroke: none">
<circle cx="182.6260" cy="88.1380" r="3.0000"/> 
<path style="fill: #72786c;fill-opacity: 1.0000;stroke: none;fill-rule: evenodd" d="M 99.7340,119.2140 99.7340,117.5140 101.4340,117.5140 101.4340,119.2140 Z"/> 
</g>
<g style="fill: #72786c;fill-opacity: 1.0000;stroke: none">
<circle cx="103.1240" cy="118.3640" r="0.8500"/> 
</g>
<g style="fill: #72786c;fill-opacity: 1.0000;stroke: none">
<circle cx="100.5840" cy="120.9040" r="0.8500"/> 
</g>
<g style="fill: #72786c;fill-opacity: 1.0000;stroke: none">
<circle cx="103.1240" cy="120.9040" r="0.8500"/> 
</g>
<g style="fill: #72786c;fill-opacity: 1.0000;stroke: none">
<circle cx="100.5840" cy="123.4440" r="0.8500"/> 
</g>
<g style="fill: #72786c;fill-opacity: 1.0000;stroke: none">
<circle cx="103.1240" cy="123.4440" r="0.8500"/> 
</g>
<g style="fill: #72786c;fill-opacity: 1.0000;stroke: none">
<circle cx="183.1340" cy="40.6400" r="3.0000"/> 
</g>
<g style="fill: #72786c;fill-opacity: 1.0000;stroke: none">
<circle cx="106.6460" cy="55.9220" r="1.6000"/> 
</g>
<g style="fill: #72786c;fill-opacity: 1.0000;stroke: none">
<circle cx="106.6460" cy="75.2220" r="1.6000"/> 
</g>
<g style="fill: #72786c;fill-opacity: 1.0000;stroke: none">
<circle cx="162.2660" cy="55.9220" r="1.6000"/> 
</g>
<g style="fill: #72786c;fill-opacity: 1.0000;stroke: none">
<circle cx="162.2660" cy="75.2220" r="1.6000"/> 
<path style="fill: #72786c;fill-opacity: 1.0000;stroke: none;fill-rule: evenodd" d="M 96.1560,57.9220 96.1560,53.9220 100.1560,53.9220 100.1560,57.9220 Z"/> 
<path style="fill: #72786c;fill-opacity: 1.0000;stroke: none;fill-rule: evenodd" d="M 168.7560,57.9220 168.7560,53.9220 172.7560,53.9220 172.7560,57.9220 Z"/> 
<path style="fill: #72786c;fill-opacity: 1.0000;stroke: none;fill-rule: evenodd" d="M 96.1560,77.2220 96.1560,73.2220 100.1560,73.2220 100.1560,77.2220 Z"/> 
<path style="fill: #72786c;fill-opacity: 1.0000;stroke: none;fill-rule: evenodd" d="M 168.7560,77.2220 168.7560,73.2220 172.7560,73.2220 172.7560,77.2220 Z"/> 
<path style="fill: #72786c;fill-opacity: 1.0000;stroke: none;fill-rule: evenodd" d="M 105.0680,128.4360 106.7680,128.4360 106.7680,130.1360 105.0680,130.1360 Z"/> 
</g>
<g style="fill: #72786c;fill-opacity: 1.0000;stroke: none">
<circle cx="103.3780" cy="129.2860" r="0.8500"/> 
</g>
<g style="fill: #72786c;fill-opacity: 1.0000;stroke: none">
<circle cx="100.8380" cy="129.2860" r="0.8500"/> 
</g>
<g style="fill: #72786c;fill-opacity: 1.0000;stroke: none">
<circle cx="98.2980" cy="129.2860" r="0.8500"/> 
</g> 
</g><g id="substrate-copper" style="fill:#f8f8f7; stroke:#f8f8f7;"><g style="fill: none;stroke: #f8f8f7;stroke-width: 0.9000;stroke-opacity: 1;stroke-linecap: round;stroke-linejoin: round">
<path d="M140.8770 114.5460 L140.8770 114.9460 "/>
<path d="M145.1270 114.5460 L145.1270 114.9460 "/>
</g>
<g style="fill: #f8f8f7;fill-opacity: 1.0000;stroke: none">
<circle cx="88.7730" cy="88.6460" r="3.0000"/> 
</g>
<g style="fill: none;stroke: #f8f8f7;stroke-width: 1.0000;stroke-opacity: 1;stroke-linecap: round;stroke-linejoin: round">
<path d="M181.4750 61.9740 L180.4750 61.9740 "/>
<path d="M181.4750 70.6140 L180.4750 70.6140 "/>
</g>
<g style="fill: none;stroke: #f8f8f7;stroke-width: 1.0500;stroke-opacity: 1;stroke-linecap: round;stroke-linejoin: round">
<path d="M185.6800 61.9740 L184.6300 61.9740 "/>
<path d="M185.6800 70.6140 L184.6300 70.6140 "/>
</g>
<g style="fill: #f8f8f7;fill-opacity: 1.0000;stroke: none">
<circle cx="88.3920" cy="40.8940" r="3.0000"/> 
</g>
<g style="fill: #f8f8f7;fill-opacity: 1.0000;stroke: none">
<circle cx="182.6260" cy="88.1380" r="3.0000"/> 
<path style="fill: #f8f8f7;fill-opacity: 1.0000;stroke: none;fill-rule: evenodd" d="M 99.7340,119.2140 99.7340,117.5140 101.4340,117.5140 101.4340,119.2140 Z"/> 
</g>
<g style="fill: #f8f8f7;fill-opacity: 1.0000;stroke: none">
<circle cx="103.1240" cy="118.3640" r="0.8500"/> 
</g>
<g style="fill: #f8f8f7;fill-opacity: 1.0000;stroke: none">
<circle cx="100.5840" cy="120.9040" r="0.8500"/> 
</g>
<g style="fill: #f8f8f7;fill-opacity: 1.0000;stroke: none">
<circle cx="103.1240" cy="120.9040" r="0.8500"/> 
</g>
<g style="fill: #f8f8f7;fill-opacity: 1.0000;stroke: none">
<circle cx="100.5840" cy="123.4440" r="0.8500"/> 
</g>
<g style="fill: #f8f8f7;fill-opacity: 1.0000;stroke: none">
<circle cx="103.1240" cy="123.4440" r="0.8500"/> 
</g>
<g style="fill: #f8f8f7;fill-opacity: 1.0000;stroke: none">
<circle cx="183.1340" cy="40.6400" r="3.0000"/> 
<path style="fill: #f8f8f7;fill-opacity: 1.0000;stroke: none;fill-rule: evenodd" d="M 96.1560,57.9220 96.1560,53.9220 100.1560,53.9220 100.1560,57.9220 Z"/> 
<path style="fill: #f8f8f7;fill-opacity: 1.0000;stroke: none;fill-rule: evenodd" d="M 168.7560,57.9220 168.7560,53.9220 172.7560,53.9220 172.7560,57.9220 Z"/> 
<path style="fill: #f8f8f7;fill-opacity: 1.0000;stroke: none;fill-rule: evenodd" d="M 96.1560,77.2220 96.1560,73.2220 100.1560,73.2220 100.1560,77.2220 Z"/> 
<path style="fill: #f8f8f7;fill-opacity: 1.0000;stroke: none;fill-rule: evenodd" d="M 168.7560,77.2220 168.7560,73.2220 172.7560,73.2220 172.7560,77.2220 Z"/> 
<path style="fill: #f8f8f7;fill-opacity: 1.0000;stroke: none;fill-rule: evenodd" d="M 105.0680,128.4360 106.7680,128.4360 106.7680,130.1360 105.0680,130.1360 Z"/> 
</g>
<g style="fill: #f8f8f7;fill-opacity: 1.0000;stroke: none">
<circle cx="103.3780" cy="129.2860" r="0.8500"/> 
</g>
<g style="fill: #f8f8f7;fill-opacity: 1.0000;stroke: none">
<circle cx="100.8380" cy="129.2860" r="0.8500"/> 
</g>
<g style="fill: #f8f8f7;fill-opacity: 1.0000;stroke: none">
<circle cx="98.2980" cy="129.2860" r="0.8500"/> 
</g> 
</g><g id="substrate-pads" style="fill:#c4c1ba; stroke:#c4c1ba;" mask="url(#pads-mask)"><g style="fill: none;stroke: #c4c1ba;stroke-width: 0.9000;stroke-opacity: 1;stroke-linecap: round;stroke-linejoin: round">
<path d="M140.8770 114.5460 L140.8770 114.9460 "/>
<path d="M145.1270 114.5460 L145.1270 114.9460 "/>
</g>
<g style="fill: #c4c1ba;fill-opacity: 1.0000;stroke: none">
<circle cx="88.7730" cy="88.6460" r="3.0000"/> 
</g>
<g style="fill: none;stroke: #c4c1ba;stroke-width: 1.0000;stroke-opacity: 1;stroke-linecap: round;stroke-linejoin: round">
<path d="M181.4750 61.9740 L180.4750 61.9740 "/>
<path d="M181.4750 70.6140 L180.4750 70.6140 "/>
</g>
<g style="fill: none;stroke: #c4c1ba;stroke-width: 1.0500;stroke-opacity: 1;stroke-linecap: round;stroke-linejoin: round">
<path d="M185.6800 61.9740 L184.6300 61.9740 "/>
<path d="M185.6800 70.6140 L184.6300 70.6140 "/>
</g>
<g style="fill: #c4c1ba;fill-opacity: 1.0000;stroke: none">
<circle cx="88.3920" cy="40.8940" r="3.0000"/> 
</g>
<g style="fill: #c4c1ba;fill-opacity: 1.0000;stroke: none">
<circle cx="182.6260" cy="88.1380" r="3.0000"/> 
<path style="fill: #c4c1ba;fill-opacity: 1.0000;stroke: none;fill-rule: evenodd" d="M 99.7340,119.2140 99.7340,117.5140 101.4340,117.5140 101.4340,119.2140 Z"/> 
</g>
<g style="fill: #c4c1ba;fill-opacity: 1.0000;stroke: none">
<circle cx="103.1240" cy="118.3640" r="0.8500"/> 
</g>
<g style="fill: #c4c1ba;fill-opacity: 1.0000;stroke: none">
<circle cx="100.5840" cy="120.9040" r="0.8500"/> 
</g>
<g style="fill: #c4c1ba;fill-opacity: 1.0000;stroke: none">
<circle cx="103.1240" cy="120.9040" r="0.8500"/> 
</g>
<g style="fill: #c4c1ba;fill-opacity: 1.0000;stroke: none">
<circle cx="100.5840" cy="123.4440" r="0.8500"/> 
</g>
<g style="fill: #c4c1ba;fill-opacity: 1.0000;stroke: none">
<circle cx="103.1240" cy="123.4440" r="0.8500"/> 
</g>
<g style="fill: #c4c1ba;fill-opacity: 1.0000;stroke: none">
<circle cx="183.1340" cy="40.6400" r="3.0000"/> 
<path style="fill: #c4c1ba;fill-opacity: 1.0000;stroke: none;fill-rule: evenodd" d="M 96.1560,57.9220 96.1560,53.9220 100.1560,53.9220 100.1560,57.9220 Z"/> 
<path style="fill: #c4c1ba;fill-opacity: 1.0000;stroke: none;fill-rule: evenodd" d="M 168.7560,57.9220 168.7560,53.9220 172.7560,53.9220 172.7560,57.9220 Z"/> 
<path style="fill: #c4c1ba;fill-opacity: 1.0000;stroke: none;fill-rule: evenodd" d="M 96.1560,77.2220 96.1560,73.2220 100.1560,73.2220 100.1560,77.2220 Z"/> 
<path style="fill: #c4c1ba;fill-opacity: 1.0000;stroke: none;fill-rule: evenodd" d="M 168.7560,77.2220 168.7560,73.2220 172.7560,73.2220 172.7560,77.2220 Z"/> 
<path style="fill: #c4c1ba;fill-opacity: 1.0000;stroke: none;fill-rule: evenodd" d="M 105.0680,128.4360 106.7680,128.4360 106.7680,130.1360 105.0680,130.1360 Z"/> 
</g>
<g style="fill: #c4c1ba;fill-opacity: 1.0000;stroke: none">
<circle cx="103.3780" cy="129.2860" r="0.8500"/> 
</g>
<g style="fill: #c4c1ba;fill-opacity: 1.0000;stroke: none">
<circle cx="100.8380" cy="129.2860" r="0.8500"/> 
</g>
<g style="fill: #c4c1ba;fill-opacity: 1.0000;stroke: none">
<circle cx="98.2980" cy="129.2860" r="0.8500"/> 
</g> 
</g><g id="substrate-outline" style="fill:#000000; stroke:#000000; stroke-width: 0.15"><path d="M -0.25 0.2 A 0.25 0.25 0 1 1 0.25 0.2 L 0.25 -0.2 A 0.25 0.25 0 1 1 -0.25 -0.2 Z" transform="translate(140.877 114.746) rotate(-0.0)"/><path d="M -0.25 0.2 A 0.25 0.25 0 1 1 0.25 0.2 L 0.25 -0.2 A 0.25 0.25 0 1 1 -0.25 -0.2 Z" transform="translate(145.127 114.746) rotate(-0.0)"/><path d="M -1.5 0.0 A 1.5 1.5 0 1 1 1.5 0.0 L 1.5 -0.0 A 1.5 1.5 0 1 1 -1.5 -0.0 Z" transform="translate(88.773 88.646) rotate(-0.0)"/><path d="M -0.325 0.0 A 0.325 0.325 0 1 1 0.325 0.0 L 0.325 -0.0 A 0.325 0.325 0 1 1 -0.325 -0.0 Z" transform="translate(184.655 63.404) rotate(-270.0)"/><path d="M -0.325 0.0 A 0.325 0.325 0 1 1 0.325 0.0 L 0.325 -0.0 A 0.325 0.325 0 1 1 -0.325 -0.0 Z" transform="translate(184.655 69.184) rotate(-270.0)"/><path d="M -0.3 0.39999999999999997 A 0.3 0.3 0 1 1 0.3 0.39999999999999997 L 0.3 -0.39999999999999997 A 0.3 0.3 0 1 1 -0.3 -0.39999999999999997 Z" transform="translate(180.975 61.974) rotate(-270.0)"/><path d="M -0.3 0.39999999999999997 A 0.3 0.3 0 1 1 0.3 0.39999999999999997 L 0.3 -0.39999999999999997 A 0.3 0.3 0 1 1 -0.3 -0.39999999999999997 Z" transform="translate(180.975 70.614) rotate(-270.0)"/><path d="M -0.3 0.55 A 0.3 0.3 0 1 1 0.3 0.55 L 0.3 -0.55 A 0.3 0.3 0 1 1 -0.3 -0.55 Z" transform="translate(185.155 61.974) rotate(-270.0)"/><path d="M -0.3 0.55 A 0.3 0.3 0 1 1 0.3 0.55 L 0.3 -0.55 A 0.3 0.3 0 1 1 -0.3 -0.55 Z" transform="translate(185.155 70.614) rotate(-270.0)"/><path d="M -1.5 0.0 A 1.5 1.5 0 1 1 1.5 0.0 L 1.5 -0.0 A 1.5 1.5 0 1 1 -1.5 -0.0 Z" transform="translate(88.392 40.894) rotate(-0.0)"/><path d="M -1.5 0.0 A 1.5 1.5 0 1 1 1.5 0.0 L 1.5 -0.0 A 1.5 1.5 0 1 1 -1.5 -0.0 Z" transform="translate(182.626 88.138) rotate(-0.0)"/><path d="M -0.5 0.0 A 0.5 0.5 0 1 1 0.5 0.0 L 0.5 -0.0 A 0.5 0.5 0 1 1 -0.5 -0.0 Z" transform="translate(100.584 118.364) rotate(-0.0)"/><path d="M -0.5 0.0 A 0.5 0.5 0 1 1 0.5 0.0 L 0.5 -0.0 A 0.5 0.5 0 1 1 -0.5 -0.0 Z" transform="translate(103.124 118.364) rotate(-0.0)"/><path d="M -0.5 0.0 A 0.5 0.5 0 1 1 0.5 0.0 L 0.5 -0.0 A 0.5 0.5 0 1 1 -0.5 -0.0 Z" transform="translate(100.584 120.904) rotate(-0.0)"/><path d="M -0.5 0.0 A 0.5 0.5 0 1 1 0.5 0.0 L 0.5 -0.0 A 0.5 0.5 0 1 1 -0.5 -0.0 Z" transform="translate(103.124 120.904) rotate(-0.0)"/><path d="M -0.5 0.0 A 0.5 0.5 0 1 1 0.5 0.0 L 0.5 -0.0 A 0.5 0.5 0 1 1 -0.5 -0.0 Z" transform="translate(100.584 123.444) rotate(-0.0)"/><path d="M -0.5 0.0 A 0.5 0.5 0 1 1 0.5 0.0 L 0.5 -0.0 A 0.5 0.5 0 1 1 -0.5 -0.0 Z" transform="translate(103.124 123.444) rotate(-0.0)"/><path d="M -1.5 0.0 A 1.5 1.5 0 1 1 1.5 0.0 L 1.5 -0.0 A 1.5 1.5 0 1 1 -1.5 -0.0 Z" transform="translate(183.134 40.64) rotate(-0.0)"/><path d="M -1.6 0.0 A 1.6 1.6 0 1 1 1.6 0.0 L 1.6 -0.0 A 1.6 1.6 0 1 1 -1.6 -0.0 Z" transform="translate(106.646 55.922) rotate(-0.0)"/><path d="M -1.6 0.0 A 1.6 1.6 0 1 1 1.6 0.0 L 1.6 -0.0 A 1.6 1.6 0 1 1 -1.6 -0.0 Z" transform="translate(106.646 75.222) rotate(-0.0)"/><path d="M -1.6 0.0 A 1.6 1.6 0 1 1 1.6 0.0 L 1.6 -0.0 A 1.6 1.6 0 1 1 -1.6 -0.0 Z" transform="translate(162.266 55.922) rotate(-0.0)"/><path d="M -1.6 0.0 A 1.6 1.6 0 1 1 1.6 0.0 L 1.6 -0.0 A 1.6 1.6 0 1 1 -1.6 -0.0 Z" transform="translate(162.266 75.222) rotate(-0.0)"/><path d="M -0.8 0.0 A 0.8 0.8 0 1 1 0.8 0.0 L 0.8 -0.0 A 0.8 0.8 0 1 1 -0.8 -0.0 Z" transform="translate(98.156 55.922) rotate(-0.0)"/><path d="M -0.8 0.0 A 0.8 0.8 0 1 1 0.8 0.0 L 0.8 -0.0 A 0.8 0.8 0 1 1 -0.8 -0.0 Z" transform="translate(170.756 55.922) rotate(-0.0)"/><path d="M -0.8 0.0 A 0.8 0.8 0 1 1 0.8 0.0 L 0.8 -0.0 A 0.8 0.8 0 1 1 -0.8 -0.0 Z" transform="translate(98.156 75.222) rotate(-0.0)"/><path d="M -0.8 0.0 A 0.8 0.8 0 1 1 0.8 0.0 L 0.8 -0.0 A 0.8 0.8 0 1 1 -0.8 -0.0 Z" transform="translate(170.756 75.222) rotate(-0.0)"/><path d="M -0.5 0.0 A 0.5 0.5 0 1 1 0.5 0.0 L 0.5 -0.0 A 0.5 0.5 0 1 1 -0.5 -0.0 Z" transform="translate(105.918 129.286) rotate(-270.0)"/><path d="M -0.5 0.0 A 0.5 0.5 0 1 1 0.5 0.0 L 0.5 -0.0 A 0.5 0.5 0 1 1 -0.5 -0.0 Z" transform="translate(103.378 129.286) rotate(-270.0)"/><path d="M -0.5 0.0 A 0.5 0.5 0 1 1 0.5 0.0 L 0.5 -0.0 A 0.5 0.5 0 1 1 -0.5 -0.0 Z" transform="translate(100.838 129.286) rotate(-270.0)"/><path d="M -0.5 0.0 A 0.5 0.5 0 1 1 0.5 0.0 L 0.5 -0.0 A 0.5 0.5 0 1 1 -0.5 -0.0 Z" transform="translate(98.298 129.286) rotate(-270.0)"/></g></g></g><g transform="scale(-1,1)" id="componentContainer"><!--Fiducial:Fiducial_1mm_Mask2mm.back:FID2--><!--Capacitor_SMD:C_0805_2012Metric.back:C13--><!--Resistor_SMD:R_0805_2012Metric.back:R5--><!--Fiducial:Fiducial_1mm_Mask2mm.back:FID4--><g transform="translate(162.814 90.805) scale(0.9999995454526861, 0.9999995454675615) rotate(-0.0) translate(-0.09999550133943558 -0.10003144294023514)"><use xmlns:xlink="http://www.w3.org/1999/xlink" xlink:href="#pref_12_Fiducial__Fiducial_1mm_Mask2mmback_Fiducial"/></g><!--Resistor_SMD:R_0805_2012Metric.back:R18--><!--Resistor_SMD:R_0805_2012Metric.back:TH1--><!--Resistor_SMD:R_0805_2012Metric.back:R6--><!--Resistor_SMD:R_0805_2012Metric.back:R21--><!--Resistor_SMD:R_0805_2012Metric.back:R25--><!--Resistor_SMD:R_0805_2012Metric.back:R28--><g transform="translate(174.3475 109.474) scale(0.9999995454526861, 0.9999995454675615) rotate(-0.0) translate(-0.09999550133943558 -0.10003144294023514)"><use xmlns:xlink="http://www.w3.org/1999/xlink" xlink:href="#pref_12_Resistor_SMD__R_0805_2012Metricback_1k"/></g><!--Resistor_SMD:R_0805_2012Metric.back:R1--><!--Mlab_Mechanical:MountingHole_3mm.back:H3--><g transform="translate(88.773 88.646) scale(1.0, 1.0) rotate(-0.0) translate(-0.75 -0.75)"><g id="pref_12_Mlab_Mechanical__MountingHole_3mmback_M3"><defs xmlns:xlink="http://www.w3.org/1999/xlink" id="pref_22defs13">
    <linearGradient id="pref_22linearGradient3674">
      <stop style="stop-color:#2b2b2b;stop-opacity:1" offset="0" id="pref_22stop3666"/>
      <stop style="stop-color:#5e5e5e;stop-opacity:0.78431374" offset="0.48605427" id="pref_22stop4288"/>
      <stop style="stop-color:#838383;stop-opacity:0" offset="0.53796667" id="pref_22stop3668"/>
      <stop style="stop-color:#dcdcdc;stop-opacity:0" offset="0.76845002" id="pref_22stop3670"/>
      <stop style="stop-color:#e4e4e4;stop-opacity:0.88235301" offset="1" id="pref_22stop3672"/>
    </linearGradient>
    <linearGradient id="pref_22linearGradient2885">
      <stop style="stop-color:#8f8f8f;stop-opacity:1" offset="0" id="pref_22stop2881"/>
      <stop style="stop-color:#e5e5e5;stop-opacity:1" offset="1" id="pref_22stop2883"/>
    </linearGradient>
    <linearGradient id="pref_22linearGradient1894">
      <stop style="stop-color:#b2b2b2;stop-opacity:1" offset="0" id="pref_22stop1890"/>
      <stop style="stop-color:#838383;stop-opacity:1" offset="0.3359659" id="pref_22stop2785"/>
      <stop style="stop-color:#dcdcdc;stop-opacity:1" offset="0.76141548" id="pref_22stop2655"/>
      <stop style="stop-color:#bebebe;stop-opacity:1" offset="1" id="pref_22stop1892"/>
    </linearGradient>
    <linearGradient id="pref_22linearGradient3692-7">
      <stop style="stop-color:#d3d3d3;stop-opacity:1;" offset="0" id="pref_22stop3688"/>
      <stop style="stop-color:#b2b2b2;stop-opacity:1" offset="0.81006318" id="pref_22stop5318"/>
      <stop style="stop-color:#c8c8c8;stop-opacity:1" offset="0.87439835" id="pref_22stop4242"/>
      <stop style="stop-color:#b8b8b8;stop-opacity:1;" offset="0.94349736" id="pref_22stop4310"/>
      <stop style="stop-color:#aeaeae;stop-opacity:1" offset="1" id="pref_22stop3690"/>
    </linearGradient>
    <radialGradient xlink:href="#pref_22linearGradient3692-7" id="pref_22radialGradient1176" cx="0.75" cy="0.75" fx="0.75" fy="0.75" r="1.5" gradientUnits="userSpaceOnUse"/>
    <linearGradient xlink:href="#pref_22linearGradient1894" id="pref_22linearGradient1902" x1="-0.24704969" y1="-10.608996" x2="8.4657993" y2="-5.57863" gradientUnits="userSpaceOnUse"/>
    <linearGradient xlink:href="#pref_22linearGradient2885" id="pref_22linearGradient2887" x1="-0.24704971" y1="-8.0938129" x2="8.4657997" y2="-8.0938129" gradientUnits="userSpaceOnUse"/>
    <radialGradient xlink:href="#pref_22linearGradient3674" id="pref_22radialGradient3506" cx="4.109375" cy="-8.0938129" fx="4.109375" fy="-8.0938129" r="4.3564248" gradientTransform="matrix(1.1330715,0.01077876,-0.01098402,1.1546483,-0.63574335,1.2074004)" gradientUnits="userSpaceOnUse"/>
    <linearGradient xlink:href="#pref_22linearGradient1894" id="pref_22linearGradient1902-1" x1="-0.24704969" y1="-10.608996" x2="8.4657993" y2="-5.57863" gradientUnits="userSpaceOnUse"/>
    <linearGradient xlink:href="#pref_22linearGradient2885" id="pref_22linearGradient2887-3" x1="-0.2470497" y1="-8.0938129" x2="8.4657993" y2="-8.0938129" gradientUnits="userSpaceOnUse"/>
    <radialGradient xlink:href="#pref_22linearGradient3674" id="pref_22radialGradient3506-6" cx="4.109375" cy="-8.0938129" fx="4.109375" fy="-8.0938129" r="4.3564248" gradientTransform="matrix(1.1330715,0.01077876,-0.01098402,1.1546483,-0.63574335,1.2074004)" gradientUnits="userSpaceOnUse"/>
    <linearGradient xlink:href="#pref_22linearGradient3692" id="pref_22linearGradient6924" gradientUnits="userSpaceOnUse" x1="1.4987922" y1="4.3924975" x2="-1.0811033" y2="-3.0084407"/>
    <linearGradient id="pref_22linearGradient3692">
      <stop style="stop-color:#e4e4e4;stop-opacity:1" offset="0" id="pref_22stop6926"/>
      <stop style="stop-color:#e5e5e5;stop-opacity:1" offset="0.1656336" id="pref_22stop6928"/>
      <stop style="stop-color:#f5f5f5;stop-opacity:1" offset="0.29162589" id="pref_22stop6930"/>
      <stop style="stop-color:#c6c6c6;stop-opacity:1;" offset="0.38067153" id="pref_22stop6932"/>
      <stop style="stop-color:#dddddd;stop-opacity:1" offset="0.57577699" id="pref_22stop6934"/>
      <stop style="stop-color:#f2f2f2;stop-opacity:1" offset="0.66836077" id="pref_22stop6936"/>
      <stop style="stop-color:#ebebeb;stop-opacity:1" offset="0.79280978" id="pref_22stop6938"/>
      <stop style="stop-color:#efefef;stop-opacity:1" offset="1" id="pref_22stop6940"/>
    </linearGradient>
  </defs>
  <circle style="fill:url(#pref_22linearGradient6924);fill-opacity:1;stroke:#cecece;stroke-width:0.05;stroke-miterlimit:4;stroke-dasharray:none;stroke-opacity:1" id="pref_22path6642" cx="0.75" cy="0.75" r="3.5"/>
  <g xmlns:sodipodi="http://sodipodi.sourceforge.net/DTD/sodipodi-0.dtd" id="pref_22g5432-9" transform="rotate(16.945707,0.75000009,0.75000001)">
    <path sodipodi:type="star" style="opacity:1;fill:url(#pref_22linearGradient1902-1);fill-opacity:1;stroke:url(#pref_22linearGradient2887-3);stroke-width:0.0984229;stroke-linecap:round;stroke-linejoin:round;stroke-miterlimit:4;stroke-dasharray:none" id="pref_22path1634-2" sodipodi:sides="6" sodipodi:cx="4.109375" sodipodi:cy="-8.0938129" sodipodi:r1="5.0303659" sodipodi:r2="4.3564248" sodipodi:arg1="0.52359878" sodipodi:arg2="1.0471976" transform="matrix(0.47378978,0.39955401,-0.39955401,0.47378978,-4.4308952,2.9428486)" d="m 8.4657997,-5.57863 -4.3564247,2.515183 -4.35642471,-2.515183 2e-8,-5.030366 4.35642469,-2.515183 4.3564247,2.515183 z"/>
    <path sodipodi:type="star" style="opacity:1;fill:url(#pref_22radialGradient3506-6);fill-opacity:1;stroke:none;stroke-width:0.0984229;stroke-linecap:round;stroke-linejoin:round;stroke-miterlimit:4;stroke-dasharray:none" id="pref_22path1634-9-0" sodipodi:sides="6" sodipodi:cx="4.109375" sodipodi:cy="-8.0938129" sodipodi:r1="5.0303659" sodipodi:r2="4.3564248" sodipodi:arg1="0.52359878" sodipodi:arg2="1.0471976" transform="matrix(0.47378978,0.39955401,-0.39955401,0.47378978,-4.4308952,2.9428486)" d="m 8.4657997,-5.57863 -4.3564247,2.515183 -4.35642471,-2.515183 2e-8,-5.030366 4.35642469,-2.515183 4.3564247,2.515183 z"/>
  </g>
  <g xmlns:sodipodi="http://sodipodi.sourceforge.net/DTD/sodipodi-0.dtd" id="pref_22g5432">
    <path sodipodi:type="star" style="opacity:1;fill:url(#pref_22linearGradient1902);fill-opacity:1;stroke:url(#pref_22linearGradient2887);stroke-width:0.0984229;stroke-linecap:round;stroke-linejoin:round;stroke-miterlimit:4;stroke-dasharray:none" id="pref_22path1634" sodipodi:sides="6" sodipodi:cx="4.109375" sodipodi:cy="-8.0938129" sodipodi:r1="5.0303659" sodipodi:r2="4.3564248" sodipodi:arg1="0.52359878" sodipodi:arg2="1.0471976" d="m 8.4657997,-5.57863 -4.3564247,2.515183 -4.35642471,-2.515183 2e-8,-5.030366 4.35642469,-2.515183 4.3564247,2.515183 z" transform="matrix(0.47378978,0.39955401,-0.39955401,0.47378978,-4.4308952,2.9428486)"/>
    <path sodipodi:type="star" style="opacity:1;fill:url(#pref_22radialGradient3506);fill-opacity:1;stroke:none;stroke-width:0.0984229;stroke-linecap:round;stroke-linejoin:round;stroke-miterlimit:4;stroke-dasharray:none" id="pref_22path1634-9" sodipodi:sides="6" sodipodi:cx="4.109375" sodipodi:cy="-8.0938129" sodipodi:r1="5.0303659" sodipodi:r2="4.3564248" sodipodi:arg1="0.52359878" sodipodi:arg2="1.0471976" transform="matrix(0.47378978,0.39955401,-0.39955401,0.47378978,-4.4308952,2.9428486)" d="m 8.4657997,-5.57863 -4.3564247,2.515183 -4.35642471,-2.515183 2e-8,-5.030366 4.35642469,-2.515183 4.3564247,2.515183 z"/>
  </g>
  <circle style="opacity:1;fill:url(#pref_22radialGradient1176);fill-opacity:1;stroke-width:0.0202753;stroke:#848484;stroke-opacity:1" id="pref_22path1030" cx="0.75" cy="0.75" r="1.5"/>
</g></g><!--Capacitor_SMD:C_0805_2012Metric.back:C17--><!--Resistor_SMD:R_0805_2012Metric.back:R23--><!--Capacitor_SMD:C_0805_2012Metric.back:C7--><g transform="translate(119.89026 115.84978) scale(0.9999995454526861, 0.9999995454675615) rotate(-0.0) translate(-0.09999550133943558 -0.10003144294023514)"><use xmlns:xlink="http://www.w3.org/1999/xlink" xlink:href="#pref_12_Capacitor_SMD__C_0805_2012Metricback_10u"/></g><!--Resistor_SMD:R_0805_2012Metric.back:R24--><g transform="translate(111.05026 112.50978) scale(0.9999995454526861, 0.9999995454675615) rotate(-0.0) translate(-0.09999550133943558 -0.10003144294023514)"><use xmlns:xlink="http://www.w3.org/1999/xlink" xlink:href="#pref_12_Resistor_SMD__R_0805_2012Metricback_68R"/></g><!--Capacitor_SMD:C_0805_2012Metric.back:C2--><!--Resistor_SMD:R_0805_2012Metric.back:R11--><g transform="translate(102.23026 109.55978) scale(0.9999995454526861, 0.9999995454675615) rotate(-0.0) translate(-0.09999550133943558 -0.10003144294023514)"><use xmlns:xlink="http://www.w3.org/1999/xlink" xlink:href="#pref_12_Resistor_SMD__R_0805_2012Metricback_270R"/></g><!--Package_TO_SOT_SMD:SOT-23.back:Q1--><!--Capacitor_SMD:C_0805_2012Metric.back:C16--><!--Resistor_SMD:R_0805_2012Metric.back:R30--><!--Resistor_SMD:R_0805_2012Metric.back:TH2--><g transform="translate(115.46026 112.50978) scale(0.9999995454526861, 0.9999995454675615) rotate(-0.0) translate(-0.09999550133943558 -0.10003144294023514)"><use xmlns:xlink="http://www.w3.org/1999/xlink" xlink:href="#pref_12_Resistor_SMD__R_0805_2012Metricback_10kNTC"/></g><!--Fiducial:Fiducial_1mm_Mask2mm.back:FID1--><g transform="translate(137.795 92.583) scale(0.9999995454526861, 0.9999995454675615) rotate(-0.0) translate(-0.09999550133943558 -0.10003144294023514)"><use xmlns:xlink="http://www.w3.org/1999/xlink" xlink:href="#pref_12_Fiducial__Fiducial_1mm_Mask2mmback_Fiducial"/></g><!--Capacitor_SMD:C_0805_2012Metric.back:C19--><g transform="translate(128.79026 109.82978) scale(0.9999995454526861, 0.9999995454675615) rotate(-0.0) translate(-0.09999550133943558 -0.10003144294023514)"><use xmlns:xlink="http://www.w3.org/1999/xlink" xlink:href="#pref_12_Capacitor_SMD__C_0805_2012Metricback_100n"/></g><!--Capacitor_SMD:C_0805_2012Metric.back:C5--><!--Resistor_SMD:R_0805_2012Metric.back:R19--><g transform="translate(111.05026 97.75978) scale(0.9999995454526861, 0.9999995454675615) rotate(-0.0) translate(-0.09999550133943558 -0.10003144294023514)"><use xmlns:xlink="http://www.w3.org/1999/xlink" xlink:href="#pref_12_Resistor_SMD__R_0805_2012Metricback_68R"/></g><!--Capacitor_SMD:C_0805_2012Metric.back:C15--><!--Resistor_SMD:R_0805_2012Metric.back:R22--><g transform="translate(111.05026 106.60978) scale(0.9999995454526861, 0.9999995454675615) rotate(-0.0) translate(-0.09999550133943558 -0.10003144294023514)"><use xmlns:xlink="http://www.w3.org/1999/xlink" xlink:href="#pref_12_Resistor_SMD__R_0805_2012Metricback_1k"/></g><!--Mlab_Mechanical:MountingHole_3mm.back:H1--><g transform="translate(88.392 40.894) scale(1.0, 1.0) rotate(-0.0) translate(-0.75 -0.75)"><use xmlns:xlink="http://www.w3.org/1999/xlink" xlink:href="#pref_12_Mlab_Mechanical__MountingHole_3mmback_M3"/></g><!--Fiducial:Fiducial_1mm_Mask2mm.back:FID3--><g transform="translate(148.463 92.456) scale(0.9999995454526861, 0.9999995454675615) rotate(-0.0) translate(-0.09999550133943558 -0.10003144294023514)"><use xmlns:xlink="http://www.w3.org/1999/xlink" xlink:href="#pref_12_Fiducial__Fiducial_1mm_Mask2mmback_Fiducial"/></g><!--Resistor_SMD:R_0805_2012Metric.back:R29--><g transform="translate(174.3475 112.424) scale(0.9999995454526861, 0.9999995454675615) rotate(-0.0) translate(-0.09999550133943558 -0.10003144294023514)"><use xmlns:xlink="http://www.w3.org/1999/xlink" xlink:href="#pref_12_Resistor_SMD__R_0805_2012Metricback_1k"/></g><!--Resistor_SMD:R_0805_2012Metric.back:R9--><!--Resistor_SMD:R_0805_2012Metric.back:R7--><!--Resistor_SMD:R_0805_2012Metric.back:R13--><g transform="translate(106.64026 97.75978) scale(0.9999995454526861, 0.9999995454675615) rotate(-0.0) translate(-0.09999550133943558 -0.10003144294023514)"><use xmlns:xlink="http://www.w3.org/1999/xlink" xlink:href="#pref_12_Resistor_SMD__R_0805_2012Metricback_270R"/></g><!--Resistor_SMD:R_0805_2012Metric.back:R17--><g transform="translate(106.64026 109.55978) scale(0.9999995454526861, 0.9999995454675615) rotate(-0.0) translate(-0.09999550133943558 -0.10003144294023514)"><use xmlns:xlink="http://www.w3.org/1999/xlink" xlink:href="#pref_12_Resistor_SMD__R_0805_2012Metricback_68R"/></g><!--Resistor_SMD:R_0805_2012Metric.back:R8--><!--Capacitor_SMD:C_0805_2012Metric.back:C4--><g transform="translate(119.89026 106.81978) scale(0.9999995454526861, 0.9999995454675615) rotate(-0.0) translate(-0.09999550133943558 -0.10003144294023514)"><use xmlns:xlink="http://www.w3.org/1999/xlink" xlink:href="#pref_12_Capacitor_SMD__C_0805_2012Metricback_100n"/></g><!--Resistor_SMD:R_0805_2012Metric.back:R20--><g transform="translate(111.05026 100.70978) scale(0.9999995454526861, 0.9999995454675615) rotate(-0.0) translate(-0.09999550133943558 -0.10003144294023514)"><use xmlns:xlink="http://www.w3.org/1999/xlink" xlink:href="#pref_12_Resistor_SMD__R_0805_2012Metricback_68R"/></g><!--Capacitor_SMD:C_0805_2012Metric.back:C3--><!--Resistor_SMD:R_0805_2012Metric.back:R14--><g transform="translate(106.64026 100.70978) scale(0.9999995454526861, 0.9999995454675615) rotate(-0.0) translate(-0.09999550133943558 -0.10003144294023514)"><use xmlns:xlink="http://www.w3.org/1999/xlink" xlink:href="#pref_12_Resistor_SMD__R_0805_2012Metricback_270R"/></g><!--Mlab_Mechanical:MountingHole_3mm.back:H2--><g transform="translate(182.626 88.138) scale(1.0, 1.0) rotate(-0.0) translate(-0.75 -0.75)"><use xmlns:xlink="http://www.w3.org/1999/xlink" xlink:href="#pref_12_Mlab_Mechanical__MountingHole_3mmback_M3"/></g><!--Capacitor_SMD:C_0805_2012Metric.back:C9--><!--Resistor_SMD:R_0805_2012Metric.back:R31--><g transform="translate(115.46026 106.60978) scale(0.9999995454526861, 0.9999995454675615) rotate(-0.0) translate(-0.09999550133943558 -0.10003144294023514)"><use xmlns:xlink="http://www.w3.org/1999/xlink" xlink:href="#pref_12_Resistor_SMD__R_0805_2012Metricback_4k7"/></g><!--Resistor_SMD:R_0805_2012Metric.back:R15--><g transform="translate(106.64026 103.65978) scale(0.9999995454526861, 0.9999995454675615) rotate(-0.0) translate(-0.09999550133943558 -0.10003144294023514)"><use xmlns:xlink="http://www.w3.org/1999/xlink" xlink:href="#pref_12_Resistor_SMD__R_0805_2012Metricback_270R"/></g><!--Capacitor_SMD:C_0805_2012Metric.back:C6--><g transform="translate(119.89026 112.83978) scale(0.9999995454526861, 0.9999995454675615) rotate(-0.0) translate(-0.09999550133943558 -0.10003144294023514)"><use xmlns:xlink="http://www.w3.org/1999/xlink" xlink:href="#pref_12_Capacitor_SMD__C_0805_2012Metricback_22u"/></g><!--Resistor_SMD:R_0805_2012Metric.back:R16--><g transform="translate(106.64026 106.60978) scale(0.9999995454526861, 0.9999995454675615) rotate(-0.0) translate(-0.09999550133943558 -0.10003144294023514)"><use xmlns:xlink="http://www.w3.org/1999/xlink" xlink:href="#pref_12_Resistor_SMD__R_0805_2012Metricback_270R"/></g><!--Resistor_SMD:R_0805_2012Metric.back:R4--><g transform="translate(97.82026 106.60978) scale(0.9999995454526861, 0.9999995454675615) rotate(-0.0) translate(-0.09999550133943558 -0.10003144294023514)"><use xmlns:xlink="http://www.w3.org/1999/xlink" xlink:href="#pref_12_Resistor_SMD__R_0805_2012Metricback_100R"/></g><!--Resistor_SMD:R_0805_2012Metric.back:R10--><!--Capacitor_SMD:C_0805_2012Metric.back:C8--><g transform="translate(124.34026 97.78978) scale(0.9999995454526861, 0.9999995454675615) rotate(-0.0) translate(-0.09999550133943558 -0.10003144294023514)"><use xmlns:xlink="http://www.w3.org/1999/xlink" xlink:href="#pref_12_Capacitor_SMD__C_0805_2012Metricback_1u"/></g><!--Capacitor_SMD:C_0805_2012Metric.back:C11--><g transform="translate(124.34026 106.81978) scale(0.9999995454526861, 0.9999995454675615) rotate(-0.0) translate(-0.09999550133943558 -0.10003144294023514)"><use xmlns:xlink="http://www.w3.org/1999/xlink" xlink:href="#pref_12_Capacitor_SMD__C_0805_2012Metricback_100n"/></g><!--Capacitor_SMD:C_0805_2012Metric.back:C18--><g transform="translate(128.79026 106.81978) scale(0.9999995454526861, 0.9999995454675615) rotate(-0.0) translate(-0.09999550133943558 -0.10003144294023514)"><use xmlns:xlink="http://www.w3.org/1999/xlink" xlink:href="#pref_12_Capacitor_SMD__C_0805_2012Metricback_100n"/></g><!--Resistor_SMD:R_0805_2012Metric.back:R3--><g transform="translate(97.82026 103.65978) scale(0.9999995454526861, 0.9999995454675615) rotate(-0.0) translate(-0.09999550133943558 -0.10003144294023514)"><use xmlns:xlink="http://www.w3.org/1999/xlink" xlink:href="#pref_12_Resistor_SMD__R_0805_2012Metricback_5k1"/></g><!--Mlab_Mechanical:MountingHole_3mm.back:H4--><g transform="translate(183.134 40.64) scale(1.0, 1.0) rotate(-0.0) translate(-0.75 -0.75)"><use xmlns:xlink="http://www.w3.org/1999/xlink" xlink:href="#pref_12_Mlab_Mechanical__MountingHole_3mmback_M3"/></g><!--Resistor_SMD:R_0805_2012Metric.back:R2--><g transform="translate(97.82026 100.70978) scale(0.9999995454526861, 0.9999995454675615) rotate(-0.0) translate(-0.09999550133943558 -0.10003144294023514)"><use xmlns:xlink="http://www.w3.org/1999/xlink" xlink:href="#pref_12_Resistor_SMD__R_0805_2012Metricback_5k1"/></g><!--Resistor_SMD:R_0805_2012Metric.back:R27--><!--Capacitor_SMD:C_0805_2012Metric.back:C10--><g transform="translate(124.34026 103.80978) scale(0.9999995454526861, 0.9999995454675615) rotate(-0.0) translate(-0.09999550133943558 -0.10003144294023514)"><use xmlns:xlink="http://www.w3.org/1999/xlink" xlink:href="#pref_12_Capacitor_SMD__C_0805_2012Metricback_10u"/></g><!--Capacitor_SMD:C_0805_2012Metric.back:C14--><g transform="translate(124.34026 115.84978) scale(0.9999995454526861, 0.9999995454675615) rotate(-0.0) translate(-0.09999550133943558 -0.10003144294023514)"><use xmlns:xlink="http://www.w3.org/1999/xlink" xlink:href="#pref_12_Capacitor_SMD__C_0805_2012Metricback_100n"/></g><!--Capacitor_SMD:C_0805_2012Metric.back:C1--><g transform="translate(119.89026 97.78978) scale(0.9999995454526861, 0.9999995454675615) rotate(-0.0) translate(-0.09999550133943558 -0.10003144294023514)"><use xmlns:xlink="http://www.w3.org/1999/xlink" xlink:href="#pref_12_Capacitor_SMD__C_0805_2012Metricback_100n"/></g><!--Resistor_SMD:R_0805_2012Metric.back:R12--><g transform="translate(102.23026 112.50978) scale(0.9999995454526861, 0.9999995454675615) rotate(-0.0) translate(-0.09999550133943558 -0.10003144294023514)"><use xmlns:xlink="http://www.w3.org/1999/xlink" xlink:href="#pref_12_Resistor_SMD__R_0805_2012Metricback_1k"/></g><!--Capacitor_SMD:C_0805_2012Metric.back:C12--></g></svg>