%TF.GenerationSoftware,KiCad,Pcbnew,10.0.1-10.0.1~ubuntu25.10.1*%
%TF.CreationDate,2026-05-15T15:25:03+00:00*%
%TF.ProjectId,LION1CELL02,4c494f4e-3143-4454-9c4c-30322e6b6963,rev?*%
%TF.SameCoordinates,Original*%
%TF.FileFunction,Paste,Bot*%
%TF.FilePolarity,Positive*%
%FSLAX46Y46*%
G04 Gerber Fmt 4.6, Leading zero omitted, Abs format (unit mm)*
G04 Created by KiCad (PCBNEW 10.0.1-10.0.1~ubuntu25.10.1) date 2026-05-15 15:25:03*
%MOMM*%
%LPD*%
G01*
G04 APERTURE LIST*
G04 Aperture macros list*
%AMRoundRect*
0 Rectangle with rounded corners*
0 $1 Rounding radius*
0 $2 $3 $4 $5 $6 $7 $8 $9 X,Y pos of 4 corners*
0 Add a 4 corners polygon primitive as box body*
4,1,4,$2,$3,$4,$5,$6,$7,$8,$9,$2,$3,0*
0 Add four circle primitives for the rounded corners*
1,1,$1+$1,$2,$3*
1,1,$1+$1,$4,$5*
1,1,$1+$1,$6,$7*
1,1,$1+$1,$8,$9*
0 Add four rect primitives between the rounded corners*
20,1,$1+$1,$2,$3,$4,$5,0*
20,1,$1+$1,$4,$5,$6,$7,0*
20,1,$1+$1,$6,$7,$8,$9,0*
20,1,$1+$1,$8,$9,$2,$3,0*%
G04 Aperture macros list end*
%ADD10RoundRect,0.250000X0.475000X-0.250000X0.475000X0.250000X-0.475000X0.250000X-0.475000X-0.250000X0*%
%ADD11RoundRect,0.250000X0.450000X-0.262500X0.450000X0.262500X-0.450000X0.262500X-0.450000X-0.262500X0*%
%ADD12R,4.240000X3.810000*%
%ADD13RoundRect,0.250000X-0.850000X0.375000X-0.850000X-0.375000X0.850000X-0.375000X0.850000X0.375000X0*%
%ADD14RoundRect,0.250000X-0.262500X-0.450000X0.262500X-0.450000X0.262500X0.450000X-0.262500X0.450000X0*%
%ADD15RoundRect,0.050000X-0.285000X-0.100000X0.285000X-0.100000X0.285000X0.100000X-0.285000X0.100000X0*%
%ADD16RoundRect,0.250000X0.262500X0.450000X-0.262500X0.450000X-0.262500X-0.450000X0.262500X-0.450000X0*%
%ADD17RoundRect,0.250000X0.362500X1.425000X-0.362500X1.425000X-0.362500X-1.425000X0.362500X-1.425000X0*%
%ADD18RoundRect,0.150000X-0.512500X-0.150000X0.512500X-0.150000X0.512500X0.150000X-0.512500X0.150000X0*%
%ADD19RoundRect,0.250000X-0.250000X-0.475000X0.250000X-0.475000X0.250000X0.475000X-0.250000X0.475000X0*%
%ADD20RoundRect,0.250000X0.250000X0.475000X-0.250000X0.475000X-0.250000X-0.475000X0.250000X-0.475000X0*%
%ADD21RoundRect,0.050000X-0.337500X0.050000X-0.337500X-0.050000X0.337500X-0.050000X0.337500X0.050000X0*%
%ADD22RoundRect,0.050000X0.050000X0.337500X-0.050000X0.337500X-0.050000X-0.337500X0.050000X-0.337500X0*%
%ADD23RoundRect,0.050000X-0.262500X0.050000X-0.262500X-0.050000X0.262500X-0.050000X0.262500X0.050000X0*%
%ADD24RoundRect,0.050000X0.337500X-0.050000X0.337500X0.050000X-0.337500X0.050000X-0.337500X-0.050000X0*%
%ADD25RoundRect,0.050000X-0.050000X-0.262500X0.050000X-0.262500X0.050000X0.262500X-0.050000X0.262500X0*%
%ADD26RoundRect,0.050000X-0.050000X-0.450000X0.050000X-0.450000X0.050000X0.450000X-0.050000X0.450000X0*%
%ADD27RoundRect,0.050000X-0.050000X-0.337500X0.050000X-0.337500X0.050000X0.337500X-0.050000X0.337500X0*%
%ADD28RoundRect,0.050000X0.362500X-0.050000X0.362500X0.050000X-0.362500X0.050000X-0.362500X-0.050000X0*%
%ADD29RoundRect,0.050000X-0.362500X0.050000X-0.362500X-0.050000X0.362500X-0.050000X0.362500X0.050000X0*%
%ADD30RoundRect,0.150000X-0.587500X-0.150000X0.587500X-0.150000X0.587500X0.150000X-0.587500X0.150000X0*%
%ADD31R,0.450000X1.450000*%
%ADD32R,1.150000X0.600000*%
%ADD33R,1.150000X0.300000*%
%ADD34RoundRect,0.100000X-0.100000X0.637500X-0.100000X-0.637500X0.100000X-0.637500X0.100000X0.637500X0*%
%ADD35RoundRect,0.250000X-0.475000X0.250000X-0.475000X-0.250000X0.475000X-0.250000X0.475000X0.250000X0*%
%ADD36RoundRect,0.070000X0.355000X-0.070000X0.355000X0.070000X-0.355000X0.070000X-0.355000X-0.070000X0*%
%ADD37RoundRect,0.070000X0.305000X-0.070000X0.305000X0.070000X-0.305000X0.070000X-0.305000X-0.070000X0*%
%ADD38RoundRect,0.250000X-0.450000X0.262500X-0.450000X-0.262500X0.450000X-0.262500X0.450000X0.262500X0*%
%ADD39R,0.800100X1.000760*%
%ADD40RoundRect,0.250000X0.850000X-0.375000X0.850000X0.375000X-0.850000X0.375000X-0.850000X-0.375000X0*%
G04 APERTURE END LIST*
D10*
%TO.C,C13*%
X66200000Y-108850000D03*
X66200000Y-106950000D03*
%TD*%
D11*
%TO.C,R5*%
X68450000Y-109600000D03*
X68450000Y-107775000D03*
%TD*%
D12*
%TO.C,F1*%
X149819800Y-77642800D03*
X156189800Y-77642800D03*
%TD*%
D13*
%TO.C,L2*%
X91000000Y-109075000D03*
X91000000Y-111225000D03*
%TD*%
D14*
%TO.C,TH1*%
X73907500Y-49340000D03*
X75732500Y-49340000D03*
%TD*%
%TO.C,R6*%
X49500000Y-108250000D03*
X51325000Y-108250000D03*
%TD*%
D15*
%TO.C,U3*%
X93250000Y-110125000D03*
X93250000Y-109625000D03*
X93250000Y-109125000D03*
X93250000Y-108625000D03*
X94730000Y-108625000D03*
X94730000Y-109125000D03*
X94730000Y-109625000D03*
X94730000Y-110125000D03*
%TD*%
D16*
%TO.C,R25*%
X110250000Y-74300000D03*
X108425000Y-74300000D03*
%TD*%
D11*
%TO.C,R28*%
X99837500Y-74125000D03*
X99837500Y-72300000D03*
%TD*%
D17*
%TO.C,R26*%
X83712500Y-84350000D03*
X77787500Y-84350000D03*
%TD*%
D18*
%TO.C,Q5*%
X97050000Y-81375000D03*
X97050000Y-79475000D03*
X99325000Y-80425000D03*
%TD*%
D11*
%TO.C,R1*%
X81850000Y-80012500D03*
X81850000Y-78187500D03*
%TD*%
D19*
%TO.C,C17*%
X93250000Y-116250000D03*
X95150000Y-116250000D03*
%TD*%
D20*
%TO.C,C7*%
X72200000Y-107702000D03*
X70300000Y-107702000D03*
%TD*%
D19*
%TO.C,C2*%
X81850000Y-76350000D03*
X83750000Y-76350000D03*
%TD*%
D21*
%TO.C,U2*%
X70137500Y-111925000D03*
D22*
X70425000Y-112212500D03*
D23*
X70122500Y-111382000D03*
X70112500Y-110982000D03*
X70112500Y-110582000D03*
D22*
X70425000Y-109737500D03*
D24*
X70137500Y-110025000D03*
D25*
X70875000Y-109762500D03*
X71275000Y-109762500D03*
D26*
X71675000Y-109945000D03*
X72075000Y-109945000D03*
D27*
X72575000Y-109737500D03*
D28*
X72887500Y-110025000D03*
D23*
X72882500Y-110582000D03*
X72882500Y-110982000D03*
X72882500Y-111382000D03*
D27*
X72575000Y-112212500D03*
D29*
X72887500Y-111925000D03*
D26*
X72075000Y-112105000D03*
X71675000Y-112105000D03*
X71275000Y-112105000D03*
D25*
X70875000Y-112285000D03*
%TD*%
D18*
%TO.C,Q4*%
X97050000Y-85825000D03*
X97050000Y-83925000D03*
X99325000Y-84875000D03*
%TD*%
D11*
%TO.C,R11*%
X75750000Y-63175000D03*
X75750000Y-61350000D03*
%TD*%
D30*
%TO.C,Q1*%
X69375000Y-63050000D03*
X69375000Y-61150000D03*
X71250000Y-62100000D03*
%TD*%
D19*
%TO.C,C16*%
X93250000Y-114275000D03*
X95150000Y-114275000D03*
%TD*%
D31*
%TO.C,U1*%
X77800000Y-66150000D03*
X78450000Y-66150000D03*
X79100000Y-66150000D03*
X79750000Y-66150000D03*
X80400000Y-66150000D03*
X81050000Y-66150000D03*
X81700000Y-66150000D03*
X81700000Y-72050000D03*
X81050000Y-72050000D03*
X80400000Y-72050000D03*
X79750000Y-72050000D03*
X79100000Y-72050000D03*
X78450000Y-72050000D03*
X77800000Y-72050000D03*
%TD*%
D32*
%TO.C,J1*%
X237609000Y-58348000D03*
X237609000Y-57548000D03*
D33*
X237609000Y-56398000D03*
X237609000Y-55398000D03*
X237609000Y-54898000D03*
X237609000Y-53898000D03*
D32*
X237609000Y-51948000D03*
X237609000Y-52748000D03*
D33*
X237609000Y-53398000D03*
X237609000Y-54398000D03*
X237609000Y-55898000D03*
X237609000Y-56898000D03*
%TD*%
D14*
%TO.C,TH2*%
X49496200Y-110886200D03*
X51321200Y-110886200D03*
%TD*%
D10*
%TO.C,C19*%
X110087500Y-72500000D03*
X110087500Y-70600000D03*
%TD*%
D20*
%TO.C,C5*%
X72350000Y-114100000D03*
X70450000Y-114100000D03*
%TD*%
D34*
%TO.C,U4*%
X145750000Y-123887500D03*
X146400000Y-123887500D03*
X147050000Y-123887500D03*
X147700000Y-123887500D03*
X148350000Y-123887500D03*
X149000000Y-123887500D03*
X149650000Y-123887500D03*
X149650000Y-129612500D03*
X149000000Y-129612500D03*
X148350000Y-129612500D03*
X147700000Y-129612500D03*
X147050000Y-129612500D03*
X146400000Y-129612500D03*
X145750000Y-129612500D03*
%TD*%
D35*
%TO.C,C15*%
X96500000Y-108625000D03*
X96500000Y-110525000D03*
%TD*%
D36*
%TO.C,U5*%
X103487500Y-74625000D03*
D37*
X103437500Y-74125000D03*
X103437500Y-73625000D03*
X104587500Y-73625000D03*
X104587500Y-74125000D03*
X104587500Y-74625000D03*
%TD*%
D14*
%TO.C,R29*%
X103425000Y-70375000D03*
X105250000Y-70375000D03*
%TD*%
%TO.C,R9*%
X96650000Y-112325000D03*
X98475000Y-112325000D03*
%TD*%
D38*
%TO.C,R7*%
X66200000Y-110600000D03*
X66200000Y-112425000D03*
%TD*%
D14*
%TO.C,R8*%
X93275000Y-112325000D03*
X95100000Y-112325000D03*
%TD*%
D39*
%TO.C,D11*%
X103587500Y-81625000D03*
X105492500Y-81625000D03*
X104540000Y-83824640D03*
%TD*%
D20*
%TO.C,C4*%
X79700000Y-76350000D03*
X77800000Y-76350000D03*
%TD*%
%TO.C,C3*%
X228138000Y-52700000D03*
X226238000Y-52700000D03*
%TD*%
D35*
%TO.C,C9*%
X68450000Y-112350000D03*
X68450000Y-114250000D03*
%TD*%
D19*
%TO.C,C6*%
X73840800Y-107702000D03*
X75740800Y-107702000D03*
%TD*%
D11*
%TO.C,R4*%
X79650000Y-80025000D03*
X79650000Y-78200000D03*
%TD*%
D14*
%TO.C,R10*%
X65175000Y-63100000D03*
X67000000Y-63100000D03*
%TD*%
D35*
%TO.C,C8*%
X83750000Y-68100000D03*
X83750000Y-70000000D03*
%TD*%
D19*
%TO.C,C11*%
X71300000Y-116170000D03*
X73200000Y-116170000D03*
%TD*%
%TO.C,C18*%
X145750000Y-131750000D03*
X147650000Y-131750000D03*
%TD*%
D14*
%TO.C,R3*%
X226279000Y-56553000D03*
X228104000Y-56553000D03*
%TD*%
D12*
%TO.C,F2*%
X149870600Y-58288000D03*
X156240600Y-58288000D03*
%TD*%
D14*
%TO.C,R2*%
X226273282Y-54634782D03*
X228098282Y-54634782D03*
%TD*%
%TO.C,R27*%
X104762500Y-77375000D03*
X106587500Y-77375000D03*
%TD*%
D19*
%TO.C,C10*%
X71300000Y-118170000D03*
X73200000Y-118170000D03*
%TD*%
%TO.C,C14*%
X72800000Y-76350000D03*
X74700000Y-76350000D03*
%TD*%
D20*
%TO.C,C1*%
X81700000Y-74350000D03*
X79800000Y-74350000D03*
%TD*%
D38*
%TO.C,R12*%
X77650000Y-61350000D03*
X77650000Y-63175000D03*
%TD*%
D10*
%TO.C,C12*%
X79750000Y-63200000D03*
X79750000Y-61300000D03*
%TD*%
D40*
%TO.C,L1*%
X75700000Y-112000000D03*
X75700000Y-109850000D03*
%TD*%
M02*
