M48
; DRILL file {KiCad 9.0.6+1} date 2026-01-18T19:40:09+0000
; FORMAT={3:3/ absolute / metric / suppress leading zeros}
; #@! TF.CreationDate,2026-01-18T19:40:09+00:00
; #@! TF.GenerationSoftware,Kicad,Pcbnew,9.0.6+1
; #@! TF.FileFunction,Plated,1,2,PTH
FMAT,2
METRIC,TZ
; #@! TA.AperFunction,Plated,PTH,ComponentDrill
T1C0.500
; #@! TA.AperFunction,Plated,PTH,ComponentDrill
T2C0.600
; #@! TA.AperFunction,Plated,PTH,ComponentDrill
T3C1.000
; #@! TA.AperFunction,Plated,PTH,ComponentDrill
T4C1.600
; #@! TA.AperFunction,Plated,PTH,ComponentDrill
T5C3.000
%
G90
G05
T3
X107696Y-127635
X109160Y-116280
X109160Y-118820
X109160Y-121360
X110236Y-127635
X111700Y-116280
X111700Y-118820
X111700Y-121360
X112776Y-127635
X115316Y-127635
T4
X98156Y-55922
X98156Y-75222
X170756Y-55922
X170756Y-75222
T5
X88392Y-40894
X88773Y-88646
X182626Y-88138
X183134Y-40640
T1
G00X140877Y-114546
M15
G01X140877Y-114946
M16
G05
G00X145127Y-114546
M15
G01X145127Y-114946
M16
G05
T2
G00X96920Y-115360
M15
G01X96920Y-116460
M16
G05
G00X96920Y-119690
M15
G01X96920Y-120490
M16
G05
G00X105560Y-115360
M15
G01X105560Y-116460
M16
G05
G00X105560Y-119690
M15
G01X105560Y-120490
M16
G05
M30
