%TF.GenerationSoftware,KiCad,Pcbnew,10.0.1-10.0.1~ubuntu25.10.1*%
%TF.CreationDate,2026-05-22T08:14:05+00:00*%
%TF.ProjectId,LION1CELL02,4c494f4e-3143-4454-9c4c-30322e6b6963,rev?*%
%TF.SameCoordinates,Original*%
%TF.FileFunction,Paste,Top*%
%TF.FilePolarity,Positive*%
%FSLAX46Y46*%
G04 Gerber Fmt 4.6, Leading zero omitted, Abs format (unit mm)*
G04 Created by KiCad (PCBNEW 10.0.1-10.0.1~ubuntu25.10.1) date 2026-05-22 08:14:05*
%MOMM*%
%LPD*%
G01*
G04 APERTURE LIST*
G04 Aperture macros list*
%AMRoundRect*
0 Rectangle with rounded corners*
0 $1 Rounding radius*
0 $2 $3 $4 $5 $6 $7 $8 $9 X,Y pos of 4 corners*
0 Add a 4 corners polygon primitive as box body*
4,1,4,$2,$3,$4,$5,$6,$7,$8,$9,$2,$3,0*
0 Add four circle primitives for the rounded corners*
1,1,$1+$1,$2,$3*
1,1,$1+$1,$4,$5*
1,1,$1+$1,$6,$7*
1,1,$1+$1,$8,$9*
0 Add four rect primitives between the rounded corners*
20,1,$1+$1,$2,$3,$4,$5,0*
20,1,$1+$1,$4,$5,$6,$7,0*
20,1,$1+$1,$6,$7,$8,$9,0*
20,1,$1+$1,$8,$9,$2,$3,0*%
G04 Aperture macros list end*
%ADD10RoundRect,0.150000X0.512500X0.150000X-0.512500X0.150000X-0.512500X-0.150000X0.512500X-0.150000X0*%
%ADD11RoundRect,0.150000X-0.150000X-0.750000X0.150000X-0.750000X0.150000X0.750000X-0.150000X0.750000X0*%
%ADD12RoundRect,0.187500X-0.187500X-0.712500X0.187500X-0.712500X0.187500X0.712500X-0.187500X0.712500X0*%
%ADD13RoundRect,0.225000X-0.425000X-0.225000X0.425000X-0.225000X0.425000X0.225000X-0.425000X0.225000X0*%
%ADD14R,1.000000X0.900000*%
%ADD15RoundRect,0.250000X-0.262500X-0.450000X0.262500X-0.450000X0.262500X0.450000X-0.262500X0.450000X0*%
%ADD16RoundRect,0.250000X0.262500X0.450000X-0.262500X0.450000X-0.262500X-0.450000X0.262500X-0.450000X0*%
%ADD17RoundRect,0.250000X0.450000X-0.262500X0.450000X0.262500X-0.450000X0.262500X-0.450000X-0.262500X0*%
G04 APERTURE END LIST*
D10*
%TO.C,Q3*%
X142887500Y-147250000D03*
X142887500Y-145350000D03*
X140612500Y-146300000D03*
%TD*%
D11*
%TO.C,SW1*%
X157325000Y-141290000D03*
D12*
X156100000Y-141290000D03*
X158550000Y-141290000D03*
D13*
X155475000Y-143240000D03*
X159175000Y-143240000D03*
%TD*%
D10*
%TO.C,Q2*%
X144750000Y-153700000D03*
X144750000Y-151800000D03*
X142475000Y-152750000D03*
%TD*%
D14*
%TO.C,D2*%
X131125000Y-121600000D03*
X131125000Y-120000000D03*
%TD*%
D15*
%TO.C,R18*%
X132712500Y-132500000D03*
X134537500Y-132500000D03*
%TD*%
D14*
%TO.C,D9*%
X131375000Y-152500000D03*
X131375000Y-150900000D03*
%TD*%
%TO.C,D4*%
X131125000Y-127100000D03*
X131125000Y-125500000D03*
%TD*%
%TO.C,D10*%
X131250000Y-146500000D03*
X131250000Y-144900000D03*
%TD*%
%TO.C,D3*%
X131125000Y-124350000D03*
X131125000Y-122750000D03*
%TD*%
D16*
%TO.C,R21*%
X148412500Y-153700000D03*
X146587500Y-153700000D03*
%TD*%
D14*
%TO.C,D8*%
X131125000Y-138100000D03*
X131125000Y-136500000D03*
%TD*%
D16*
%TO.C,R23*%
X137000000Y-151950000D03*
X135175000Y-151950000D03*
%TD*%
%TO.C,R24*%
X136662500Y-145950000D03*
X134837500Y-145950000D03*
%TD*%
D17*
%TO.C,R30*%
X168450000Y-138412500D03*
X168450000Y-136587500D03*
%TD*%
D15*
%TO.C,R19*%
X132712500Y-135250000D03*
X134537500Y-135250000D03*
%TD*%
D16*
%TO.C,R22*%
X146662500Y-147200000D03*
X144837500Y-147200000D03*
%TD*%
D15*
%TO.C,R13*%
X132712500Y-118850000D03*
X134537500Y-118850000D03*
%TD*%
%TO.C,R17*%
X132712500Y-129750000D03*
X134537500Y-129750000D03*
%TD*%
D14*
%TO.C,D5*%
X131125000Y-129850000D03*
X131125000Y-128250000D03*
%TD*%
%TO.C,D1*%
X131450000Y-122375000D03*
X131450000Y-120775000D03*
%TD*%
D15*
%TO.C,R20*%
X132712500Y-138000000D03*
X134537500Y-138000000D03*
%TD*%
%TO.C,R14*%
X132712500Y-121500000D03*
X134537500Y-121500000D03*
%TD*%
D17*
%TO.C,R31*%
X171040000Y-138412500D03*
X171040000Y-136587500D03*
%TD*%
D15*
%TO.C,R15*%
X132875000Y-124250000D03*
X134700000Y-124250000D03*
%TD*%
%TO.C,R16*%
X132800000Y-127100000D03*
X134625000Y-127100000D03*
%TD*%
D14*
%TO.C,D6*%
X131125000Y-132600000D03*
X131125000Y-131000000D03*
%TD*%
%TO.C,D7*%
X131125000Y-135350000D03*
X131125000Y-133750000D03*
%TD*%
M02*
