M48
; DRILL file {KiCad 9.0.6+1} date 2026-01-25T22:10:45+0000
; FORMAT={3:3/ absolute / metric / suppress leading zeros}
; #@! TF.CreationDate,2026-01-25T22:10:45+00:00
; #@! TF.GenerationSoftware,Kicad,Pcbnew,9.0.6+1
; #@! TF.FileFunction,Plated,1,2,PTH
FMAT,2
METRIC,TZ
; #@! TA.AperFunction,Plated,PTH,ComponentDrill
T1C0.500
; #@! TA.AperFunction,Plated,PTH,ComponentDrill
T2C0.600
; #@! TA.AperFunction,Plated,PTH,ComponentDrill
T3C1.000
; #@! TA.AperFunction,Plated,PTH,ComponentDrill
T4C1.600
; #@! TA.AperFunction,Plated,PTH,ComponentDrill
T5C3.000
%
G90
G05
T3
X98298Y-129286
X100584Y-118364
X100584Y-120904
X100584Y-123444
X100838Y-129286
X103124Y-118364
X103124Y-120904
X103124Y-123444
X103378Y-129286
X105918Y-129286
T4
X98156Y-55922
X98156Y-75222
X170756Y-55922
X170756Y-75222
T5
X88392Y-40894
X88773Y-88646
X182626Y-88138
X183134Y-40640
T1
G00X140877Y-114546
M15
G01X140877Y-114946
M16
G05
G00X145127Y-114546
M15
G01X145127Y-114946
M16
G05
T2
G00X181375Y-61974
M15
G01X180575Y-61974
M16
G05
G00X181375Y-70614
M15
G01X180575Y-70614
M16
G05
G00X185705Y-61974
M15
G01X184605Y-61974
M16
G05
G00X185705Y-70614
M15
G01X184605Y-70614
M16
G05
M30
