M48
; DRILL file KiCad 10.0.1-10.0.1~ubuntu25.10.1 date 2026-05-15T15:25:04
; FORMAT={3:3/ absolute / metric / suppress leading zeros}
; #@! TF.CreationDate,2026-05-15T15:25:04+00:00
; #@! TF.GenerationSoftware,Kicad,Pcbnew,10.0.1-10.0.1~ubuntu25.10.1
; #@! TF.FileFunction,Plated,1,2,PTH
FMAT,2
METRIC,TZ
; #@! TA.AperFunction,Plated,PTH,ComponentDrill
T1C0.500
; #@! TA.AperFunction,Plated,PTH,ComponentDrill
T2C0.600
; #@! TA.AperFunction,Plated,PTH,ComponentDrill
T3C1.000
; #@! TA.AperFunction,Plated,PTH,ComponentDrill
T4C1.600
; #@! TA.AperFunction,Plated,PTH,ComponentDrill
T5C3.000
%
G90
G05
T3
X165950Y-142000
X168490Y-142000
X171030Y-142000
X173570Y-142000
X181240Y-142460
X181240Y-145000
X183780Y-142460
X183780Y-145000
X186320Y-142460
X186320Y-145000
T4
X149510Y-53250
X149510Y-72550
X222110Y-53250
X222110Y-72550
T5
X139854Y-37328
X141354Y-90078
X232354Y-89078
X232604Y-37328
T1
G00X155200Y-141990
M15
G01X155200Y-142390
M16
G05
G00X159450Y-141990
M15
G01X159450Y-142390
M16
G05
T2
G00X232454Y-50828
M15
G01X233254Y-50828
M16
G05
G00X232454Y-59468
M15
G01X233254Y-59468
M16
G05
G00X236484Y-50828
M15
G01X237584Y-50828
M16
G05
G00X236484Y-59468
M15
G01X237584Y-59468
M16
G05
M30
