%TF.GenerationSoftware,KiCad,Pcbnew,9.0.6+1*%
%TF.CreationDate,2026-01-18T19:40:09+00:00*%
%TF.ProjectId,LION1CELL02,4c494f4e-3143-4454-9c4c-30322e6b6963,rev?*%
%TF.SameCoordinates,Original*%
%TF.FileFunction,Legend,Top*%
%TF.FilePolarity,Positive*%
%FSLAX46Y46*%
G04 Gerber Fmt 4.6, Leading zero omitted, Abs format (unit mm)*
G04 Created by KiCad (PCBNEW 9.0.6+1) date 2026-01-18 19:40:09*
%MOMM*%
%LPD*%
G01*
G04 APERTURE LIST*
%ADD10C,0.150000*%
%ADD11C,0.100000*%
%ADD12C,0.200000*%
%ADD13C,0.120000*%
%ADD14C,0.127000*%
G04 APERTURE END LIST*
D10*
X133495021Y-101109837D02*
X133399783Y-101062218D01*
X133399783Y-101062218D02*
X133304545Y-100966980D01*
X133304545Y-100966980D02*
X133161688Y-100824122D01*
X133161688Y-100824122D02*
X133066450Y-100776503D01*
X133066450Y-100776503D02*
X132971212Y-100776503D01*
X133018831Y-101014599D02*
X132923593Y-100966980D01*
X132923593Y-100966980D02*
X132828355Y-100871741D01*
X132828355Y-100871741D02*
X132780736Y-100681265D01*
X132780736Y-100681265D02*
X132780736Y-100347932D01*
X132780736Y-100347932D02*
X132828355Y-100157456D01*
X132828355Y-100157456D02*
X132923593Y-100062218D01*
X132923593Y-100062218D02*
X133018831Y-100014599D01*
X133018831Y-100014599D02*
X133209307Y-100014599D01*
X133209307Y-100014599D02*
X133304545Y-100062218D01*
X133304545Y-100062218D02*
X133399783Y-100157456D01*
X133399783Y-100157456D02*
X133447402Y-100347932D01*
X133447402Y-100347932D02*
X133447402Y-100681265D01*
X133447402Y-100681265D02*
X133399783Y-100871741D01*
X133399783Y-100871741D02*
X133304545Y-100966980D01*
X133304545Y-100966980D02*
X133209307Y-101014599D01*
X133209307Y-101014599D02*
X133018831Y-101014599D01*
X133780736Y-100014599D02*
X134399783Y-100014599D01*
X134399783Y-100014599D02*
X134066450Y-100395551D01*
X134066450Y-100395551D02*
X134209307Y-100395551D01*
X134209307Y-100395551D02*
X134304545Y-100443170D01*
X134304545Y-100443170D02*
X134352164Y-100490789D01*
X134352164Y-100490789D02*
X134399783Y-100586027D01*
X134399783Y-100586027D02*
X134399783Y-100824122D01*
X134399783Y-100824122D02*
X134352164Y-100919360D01*
X134352164Y-100919360D02*
X134304545Y-100966980D01*
X134304545Y-100966980D02*
X134209307Y-101014599D01*
X134209307Y-101014599D02*
X133923593Y-101014599D01*
X133923593Y-101014599D02*
X133828355Y-100966980D01*
X133828355Y-100966980D02*
X133780736Y-100919360D01*
X143327571Y-90564009D02*
X142994238Y-90564009D01*
X142994238Y-91087819D02*
X142994238Y-90087819D01*
X142994238Y-90087819D02*
X143470428Y-90087819D01*
X143851381Y-91087819D02*
X143851381Y-90087819D01*
X144327571Y-91087819D02*
X144327571Y-90087819D01*
X144327571Y-90087819D02*
X144565666Y-90087819D01*
X144565666Y-90087819D02*
X144708523Y-90135438D01*
X144708523Y-90135438D02*
X144803761Y-90230676D01*
X144803761Y-90230676D02*
X144851380Y-90325914D01*
X144851380Y-90325914D02*
X144898999Y-90516390D01*
X144898999Y-90516390D02*
X144898999Y-90659247D01*
X144898999Y-90659247D02*
X144851380Y-90849723D01*
X144851380Y-90849723D02*
X144803761Y-90944961D01*
X144803761Y-90944961D02*
X144708523Y-91040200D01*
X144708523Y-91040200D02*
X144565666Y-91087819D01*
X144565666Y-91087819D02*
X144327571Y-91087819D01*
X145279952Y-90183057D02*
X145327571Y-90135438D01*
X145327571Y-90135438D02*
X145422809Y-90087819D01*
X145422809Y-90087819D02*
X145660904Y-90087819D01*
X145660904Y-90087819D02*
X145756142Y-90135438D01*
X145756142Y-90135438D02*
X145803761Y-90183057D01*
X145803761Y-90183057D02*
X145851380Y-90278295D01*
X145851380Y-90278295D02*
X145851380Y-90373533D01*
X145851380Y-90373533D02*
X145803761Y-90516390D01*
X145803761Y-90516390D02*
X145232333Y-91087819D01*
X145232333Y-91087819D02*
X145851380Y-91087819D01*
X123697402Y-111519360D02*
X123649783Y-111566980D01*
X123649783Y-111566980D02*
X123506926Y-111614599D01*
X123506926Y-111614599D02*
X123411688Y-111614599D01*
X123411688Y-111614599D02*
X123268831Y-111566980D01*
X123268831Y-111566980D02*
X123173593Y-111471741D01*
X123173593Y-111471741D02*
X123125974Y-111376503D01*
X123125974Y-111376503D02*
X123078355Y-111186027D01*
X123078355Y-111186027D02*
X123078355Y-111043170D01*
X123078355Y-111043170D02*
X123125974Y-110852694D01*
X123125974Y-110852694D02*
X123173593Y-110757456D01*
X123173593Y-110757456D02*
X123268831Y-110662218D01*
X123268831Y-110662218D02*
X123411688Y-110614599D01*
X123411688Y-110614599D02*
X123506926Y-110614599D01*
X123506926Y-110614599D02*
X123649783Y-110662218D01*
X123649783Y-110662218D02*
X123697402Y-110709837D01*
X124649783Y-111614599D02*
X124078355Y-111614599D01*
X124364069Y-111614599D02*
X124364069Y-110614599D01*
X124364069Y-110614599D02*
X124268831Y-110757456D01*
X124268831Y-110757456D02*
X124173593Y-110852694D01*
X124173593Y-110852694D02*
X124078355Y-110900313D01*
X124983117Y-110614599D02*
X125602164Y-110614599D01*
X125602164Y-110614599D02*
X125268831Y-110995551D01*
X125268831Y-110995551D02*
X125411688Y-110995551D01*
X125411688Y-110995551D02*
X125506926Y-111043170D01*
X125506926Y-111043170D02*
X125554545Y-111090789D01*
X125554545Y-111090789D02*
X125602164Y-111186027D01*
X125602164Y-111186027D02*
X125602164Y-111424122D01*
X125602164Y-111424122D02*
X125554545Y-111519360D01*
X125554545Y-111519360D02*
X125506926Y-111566980D01*
X125506926Y-111566980D02*
X125411688Y-111614599D01*
X125411688Y-111614599D02*
X125125974Y-111614599D01*
X125125974Y-111614599D02*
X125030736Y-111566980D01*
X125030736Y-111566980D02*
X124983117Y-111519360D01*
X97653593Y-108364599D02*
X97320260Y-107888408D01*
X97082165Y-108364599D02*
X97082165Y-107364599D01*
X97082165Y-107364599D02*
X97463117Y-107364599D01*
X97463117Y-107364599D02*
X97558355Y-107412218D01*
X97558355Y-107412218D02*
X97605974Y-107459837D01*
X97605974Y-107459837D02*
X97653593Y-107555075D01*
X97653593Y-107555075D02*
X97653593Y-107697932D01*
X97653593Y-107697932D02*
X97605974Y-107793170D01*
X97605974Y-107793170D02*
X97558355Y-107840789D01*
X97558355Y-107840789D02*
X97463117Y-107888408D01*
X97463117Y-107888408D02*
X97082165Y-107888408D01*
X98558355Y-107364599D02*
X98082165Y-107364599D01*
X98082165Y-107364599D02*
X98034546Y-107840789D01*
X98034546Y-107840789D02*
X98082165Y-107793170D01*
X98082165Y-107793170D02*
X98177403Y-107745551D01*
X98177403Y-107745551D02*
X98415498Y-107745551D01*
X98415498Y-107745551D02*
X98510736Y-107793170D01*
X98510736Y-107793170D02*
X98558355Y-107840789D01*
X98558355Y-107840789D02*
X98605974Y-107936027D01*
X98605974Y-107936027D02*
X98605974Y-108174122D01*
X98605974Y-108174122D02*
X98558355Y-108269360D01*
X98558355Y-108269360D02*
X98510736Y-108316980D01*
X98510736Y-108316980D02*
X98415498Y-108364599D01*
X98415498Y-108364599D02*
X98177403Y-108364599D01*
X98177403Y-108364599D02*
X98082165Y-108316980D01*
X98082165Y-108316980D02*
X98034546Y-108269360D01*
X152466926Y-108220789D02*
X152133593Y-108220789D01*
X152133593Y-108744599D02*
X152133593Y-107744599D01*
X152133593Y-107744599D02*
X152609783Y-107744599D01*
X153514545Y-108744599D02*
X152943117Y-108744599D01*
X153228831Y-108744599D02*
X153228831Y-107744599D01*
X153228831Y-107744599D02*
X153133593Y-107887456D01*
X153133593Y-107887456D02*
X153038355Y-107982694D01*
X153038355Y-107982694D02*
X152943117Y-108030313D01*
D11*
X145915400Y-112812932D02*
X145877304Y-112927218D01*
X145877304Y-112927218D02*
X145877304Y-113117694D01*
X145877304Y-113117694D02*
X145915400Y-113193885D01*
X145915400Y-113193885D02*
X145953495Y-113231980D01*
X145953495Y-113231980D02*
X146029685Y-113270075D01*
X146029685Y-113270075D02*
X146105876Y-113270075D01*
X146105876Y-113270075D02*
X146182066Y-113231980D01*
X146182066Y-113231980D02*
X146220161Y-113193885D01*
X146220161Y-113193885D02*
X146258257Y-113117694D01*
X146258257Y-113117694D02*
X146296352Y-112965313D01*
X146296352Y-112965313D02*
X146334447Y-112889123D01*
X146334447Y-112889123D02*
X146372542Y-112851028D01*
X146372542Y-112851028D02*
X146448733Y-112812932D01*
X146448733Y-112812932D02*
X146524923Y-112812932D01*
X146524923Y-112812932D02*
X146601114Y-112851028D01*
X146601114Y-112851028D02*
X146639209Y-112889123D01*
X146639209Y-112889123D02*
X146677304Y-112965313D01*
X146677304Y-112965313D02*
X146677304Y-113155790D01*
X146677304Y-113155790D02*
X146639209Y-113270075D01*
X146677304Y-113536742D02*
X145877304Y-113727218D01*
X145877304Y-113727218D02*
X146448733Y-113879599D01*
X146448733Y-113879599D02*
X145877304Y-114031980D01*
X145877304Y-114031980D02*
X146677304Y-114222457D01*
X145877304Y-114946266D02*
X145877304Y-114489123D01*
X145877304Y-114717695D02*
X146677304Y-114717695D01*
X146677304Y-114717695D02*
X146563019Y-114641504D01*
X146563019Y-114641504D02*
X146486828Y-114565314D01*
X146486828Y-114565314D02*
X146448733Y-114489123D01*
D10*
X133495021Y-96659837D02*
X133399783Y-96612218D01*
X133399783Y-96612218D02*
X133304545Y-96516980D01*
X133304545Y-96516980D02*
X133161688Y-96374122D01*
X133161688Y-96374122D02*
X133066450Y-96326503D01*
X133066450Y-96326503D02*
X132971212Y-96326503D01*
X133018831Y-96564599D02*
X132923593Y-96516980D01*
X132923593Y-96516980D02*
X132828355Y-96421741D01*
X132828355Y-96421741D02*
X132780736Y-96231265D01*
X132780736Y-96231265D02*
X132780736Y-95897932D01*
X132780736Y-95897932D02*
X132828355Y-95707456D01*
X132828355Y-95707456D02*
X132923593Y-95612218D01*
X132923593Y-95612218D02*
X133018831Y-95564599D01*
X133018831Y-95564599D02*
X133209307Y-95564599D01*
X133209307Y-95564599D02*
X133304545Y-95612218D01*
X133304545Y-95612218D02*
X133399783Y-95707456D01*
X133399783Y-95707456D02*
X133447402Y-95897932D01*
X133447402Y-95897932D02*
X133447402Y-96231265D01*
X133447402Y-96231265D02*
X133399783Y-96421741D01*
X133399783Y-96421741D02*
X133304545Y-96516980D01*
X133304545Y-96516980D02*
X133209307Y-96564599D01*
X133209307Y-96564599D02*
X133018831Y-96564599D01*
X133828355Y-95659837D02*
X133875974Y-95612218D01*
X133875974Y-95612218D02*
X133971212Y-95564599D01*
X133971212Y-95564599D02*
X134209307Y-95564599D01*
X134209307Y-95564599D02*
X134304545Y-95612218D01*
X134304545Y-95612218D02*
X134352164Y-95659837D01*
X134352164Y-95659837D02*
X134399783Y-95755075D01*
X134399783Y-95755075D02*
X134399783Y-95850313D01*
X134399783Y-95850313D02*
X134352164Y-95993170D01*
X134352164Y-95993170D02*
X133780736Y-96564599D01*
X133780736Y-96564599D02*
X134399783Y-96564599D01*
X162383593Y-100314599D02*
X161907403Y-100314599D01*
X161907403Y-100314599D02*
X161907403Y-99314599D01*
X162669308Y-99409837D02*
X162716927Y-99362218D01*
X162716927Y-99362218D02*
X162812165Y-99314599D01*
X162812165Y-99314599D02*
X163050260Y-99314599D01*
X163050260Y-99314599D02*
X163145498Y-99362218D01*
X163145498Y-99362218D02*
X163193117Y-99409837D01*
X163193117Y-99409837D02*
X163240736Y-99505075D01*
X163240736Y-99505075D02*
X163240736Y-99600313D01*
X163240736Y-99600313D02*
X163193117Y-99743170D01*
X163193117Y-99743170D02*
X162621689Y-100314599D01*
X162621689Y-100314599D02*
X163240736Y-100314599D01*
D11*
X140727165Y-102542199D02*
X140727165Y-101542199D01*
X140727165Y-101542199D02*
X140965260Y-101542199D01*
X140965260Y-101542199D02*
X141108117Y-101589818D01*
X141108117Y-101589818D02*
X141203355Y-101685056D01*
X141203355Y-101685056D02*
X141250974Y-101780294D01*
X141250974Y-101780294D02*
X141298593Y-101970770D01*
X141298593Y-101970770D02*
X141298593Y-102113627D01*
X141298593Y-102113627D02*
X141250974Y-102304103D01*
X141250974Y-102304103D02*
X141203355Y-102399341D01*
X141203355Y-102399341D02*
X141108117Y-102494580D01*
X141108117Y-102494580D02*
X140965260Y-102542199D01*
X140965260Y-102542199D02*
X140727165Y-102542199D01*
X141679546Y-101637437D02*
X141727165Y-101589818D01*
X141727165Y-101589818D02*
X141822403Y-101542199D01*
X141822403Y-101542199D02*
X142060498Y-101542199D01*
X142060498Y-101542199D02*
X142155736Y-101589818D01*
X142155736Y-101589818D02*
X142203355Y-101637437D01*
X142203355Y-101637437D02*
X142250974Y-101732675D01*
X142250974Y-101732675D02*
X142250974Y-101827913D01*
X142250974Y-101827913D02*
X142203355Y-101970770D01*
X142203355Y-101970770D02*
X141631927Y-102542199D01*
X141631927Y-102542199D02*
X142250974Y-102542199D01*
D10*
X152344571Y-89802009D02*
X152011238Y-89802009D01*
X152011238Y-90325819D02*
X152011238Y-89325819D01*
X152011238Y-89325819D02*
X152487428Y-89325819D01*
X152868381Y-90325819D02*
X152868381Y-89325819D01*
X153344571Y-90325819D02*
X153344571Y-89325819D01*
X153344571Y-89325819D02*
X153582666Y-89325819D01*
X153582666Y-89325819D02*
X153725523Y-89373438D01*
X153725523Y-89373438D02*
X153820761Y-89468676D01*
X153820761Y-89468676D02*
X153868380Y-89563914D01*
X153868380Y-89563914D02*
X153915999Y-89754390D01*
X153915999Y-89754390D02*
X153915999Y-89897247D01*
X153915999Y-89897247D02*
X153868380Y-90087723D01*
X153868380Y-90087723D02*
X153820761Y-90182961D01*
X153820761Y-90182961D02*
X153725523Y-90278200D01*
X153725523Y-90278200D02*
X153582666Y-90325819D01*
X153582666Y-90325819D02*
X153344571Y-90325819D01*
X154773142Y-89659152D02*
X154773142Y-90325819D01*
X154535047Y-89278200D02*
X154296952Y-89992485D01*
X154296952Y-89992485D02*
X154915999Y-89992485D01*
X105997402Y-111314599D02*
X105664069Y-110838408D01*
X105425974Y-111314599D02*
X105425974Y-110314599D01*
X105425974Y-110314599D02*
X105806926Y-110314599D01*
X105806926Y-110314599D02*
X105902164Y-110362218D01*
X105902164Y-110362218D02*
X105949783Y-110409837D01*
X105949783Y-110409837D02*
X105997402Y-110505075D01*
X105997402Y-110505075D02*
X105997402Y-110647932D01*
X105997402Y-110647932D02*
X105949783Y-110743170D01*
X105949783Y-110743170D02*
X105902164Y-110790789D01*
X105902164Y-110790789D02*
X105806926Y-110838408D01*
X105806926Y-110838408D02*
X105425974Y-110838408D01*
X106949783Y-111314599D02*
X106378355Y-111314599D01*
X106664069Y-111314599D02*
X106664069Y-110314599D01*
X106664069Y-110314599D02*
X106568831Y-110457456D01*
X106568831Y-110457456D02*
X106473593Y-110552694D01*
X106473593Y-110552694D02*
X106378355Y-110600313D01*
X107521212Y-110743170D02*
X107425974Y-110695551D01*
X107425974Y-110695551D02*
X107378355Y-110647932D01*
X107378355Y-110647932D02*
X107330736Y-110552694D01*
X107330736Y-110552694D02*
X107330736Y-110505075D01*
X107330736Y-110505075D02*
X107378355Y-110409837D01*
X107378355Y-110409837D02*
X107425974Y-110362218D01*
X107425974Y-110362218D02*
X107521212Y-110314599D01*
X107521212Y-110314599D02*
X107711688Y-110314599D01*
X107711688Y-110314599D02*
X107806926Y-110362218D01*
X107806926Y-110362218D02*
X107854545Y-110409837D01*
X107854545Y-110409837D02*
X107902164Y-110505075D01*
X107902164Y-110505075D02*
X107902164Y-110552694D01*
X107902164Y-110552694D02*
X107854545Y-110647932D01*
X107854545Y-110647932D02*
X107806926Y-110695551D01*
X107806926Y-110695551D02*
X107711688Y-110743170D01*
X107711688Y-110743170D02*
X107521212Y-110743170D01*
X107521212Y-110743170D02*
X107425974Y-110790789D01*
X107425974Y-110790789D02*
X107378355Y-110838408D01*
X107378355Y-110838408D02*
X107330736Y-110933646D01*
X107330736Y-110933646D02*
X107330736Y-111124122D01*
X107330736Y-111124122D02*
X107378355Y-111219360D01*
X107378355Y-111219360D02*
X107425974Y-111266980D01*
X107425974Y-111266980D02*
X107521212Y-111314599D01*
X107521212Y-111314599D02*
X107711688Y-111314599D01*
X107711688Y-111314599D02*
X107806926Y-111266980D01*
X107806926Y-111266980D02*
X107854545Y-111219360D01*
X107854545Y-111219360D02*
X107902164Y-111124122D01*
X107902164Y-111124122D02*
X107902164Y-110933646D01*
X107902164Y-110933646D02*
X107854545Y-110838408D01*
X107854545Y-110838408D02*
X107806926Y-110790789D01*
X107806926Y-110790789D02*
X107711688Y-110743170D01*
D11*
X144227165Y-108042199D02*
X144227165Y-107042199D01*
X144227165Y-107042199D02*
X144465260Y-107042199D01*
X144465260Y-107042199D02*
X144608117Y-107089818D01*
X144608117Y-107089818D02*
X144703355Y-107185056D01*
X144703355Y-107185056D02*
X144750974Y-107280294D01*
X144750974Y-107280294D02*
X144798593Y-107470770D01*
X144798593Y-107470770D02*
X144798593Y-107613627D01*
X144798593Y-107613627D02*
X144750974Y-107804103D01*
X144750974Y-107804103D02*
X144703355Y-107899341D01*
X144703355Y-107899341D02*
X144608117Y-107994580D01*
X144608117Y-107994580D02*
X144465260Y-108042199D01*
X144465260Y-108042199D02*
X144227165Y-108042199D01*
X145274784Y-108042199D02*
X145465260Y-108042199D01*
X145465260Y-108042199D02*
X145560498Y-107994580D01*
X145560498Y-107994580D02*
X145608117Y-107946960D01*
X145608117Y-107946960D02*
X145703355Y-107804103D01*
X145703355Y-107804103D02*
X145750974Y-107613627D01*
X145750974Y-107613627D02*
X145750974Y-107232675D01*
X145750974Y-107232675D02*
X145703355Y-107137437D01*
X145703355Y-107137437D02*
X145655736Y-107089818D01*
X145655736Y-107089818D02*
X145560498Y-107042199D01*
X145560498Y-107042199D02*
X145370022Y-107042199D01*
X145370022Y-107042199D02*
X145274784Y-107089818D01*
X145274784Y-107089818D02*
X145227165Y-107137437D01*
X145227165Y-107137437D02*
X145179546Y-107232675D01*
X145179546Y-107232675D02*
X145179546Y-107470770D01*
X145179546Y-107470770D02*
X145227165Y-107566008D01*
X145227165Y-107566008D02*
X145274784Y-107613627D01*
X145274784Y-107613627D02*
X145370022Y-107661246D01*
X145370022Y-107661246D02*
X145560498Y-107661246D01*
X145560498Y-107661246D02*
X145655736Y-107613627D01*
X145655736Y-107613627D02*
X145703355Y-107566008D01*
X145703355Y-107566008D02*
X145750974Y-107470770D01*
X140727165Y-108042199D02*
X140727165Y-107042199D01*
X140727165Y-107042199D02*
X140965260Y-107042199D01*
X140965260Y-107042199D02*
X141108117Y-107089818D01*
X141108117Y-107089818D02*
X141203355Y-107185056D01*
X141203355Y-107185056D02*
X141250974Y-107280294D01*
X141250974Y-107280294D02*
X141298593Y-107470770D01*
X141298593Y-107470770D02*
X141298593Y-107613627D01*
X141298593Y-107613627D02*
X141250974Y-107804103D01*
X141250974Y-107804103D02*
X141203355Y-107899341D01*
X141203355Y-107899341D02*
X141108117Y-107994580D01*
X141108117Y-107994580D02*
X140965260Y-108042199D01*
X140965260Y-108042199D02*
X140727165Y-108042199D01*
X142155736Y-107375532D02*
X142155736Y-108042199D01*
X141917641Y-106994580D02*
X141679546Y-107708865D01*
X141679546Y-107708865D02*
X142298593Y-107708865D01*
D10*
X114174546Y-107364599D02*
X114745974Y-107364599D01*
X114460260Y-108364599D02*
X114460260Y-107364599D01*
X115079308Y-108364599D02*
X115079308Y-107364599D01*
X115079308Y-107840789D02*
X115650736Y-107840789D01*
X115650736Y-108364599D02*
X115650736Y-107364599D01*
X116650736Y-108364599D02*
X116079308Y-108364599D01*
X116365022Y-108364599D02*
X116365022Y-107364599D01*
X116365022Y-107364599D02*
X116269784Y-107507456D01*
X116269784Y-107507456D02*
X116174546Y-107602694D01*
X116174546Y-107602694D02*
X116079308Y-107650313D01*
D11*
X143750974Y-110792199D02*
X143750974Y-109792199D01*
X143750974Y-109792199D02*
X143989069Y-109792199D01*
X143989069Y-109792199D02*
X144131926Y-109839818D01*
X144131926Y-109839818D02*
X144227164Y-109935056D01*
X144227164Y-109935056D02*
X144274783Y-110030294D01*
X144274783Y-110030294D02*
X144322402Y-110220770D01*
X144322402Y-110220770D02*
X144322402Y-110363627D01*
X144322402Y-110363627D02*
X144274783Y-110554103D01*
X144274783Y-110554103D02*
X144227164Y-110649341D01*
X144227164Y-110649341D02*
X144131926Y-110744580D01*
X144131926Y-110744580D02*
X143989069Y-110792199D01*
X143989069Y-110792199D02*
X143750974Y-110792199D01*
X145274783Y-110792199D02*
X144703355Y-110792199D01*
X144989069Y-110792199D02*
X144989069Y-109792199D01*
X144989069Y-109792199D02*
X144893831Y-109935056D01*
X144893831Y-109935056D02*
X144798593Y-110030294D01*
X144798593Y-110030294D02*
X144703355Y-110077913D01*
X145893831Y-109792199D02*
X145989069Y-109792199D01*
X145989069Y-109792199D02*
X146084307Y-109839818D01*
X146084307Y-109839818D02*
X146131926Y-109887437D01*
X146131926Y-109887437D02*
X146179545Y-109982675D01*
X146179545Y-109982675D02*
X146227164Y-110173151D01*
X146227164Y-110173151D02*
X146227164Y-110411246D01*
X146227164Y-110411246D02*
X146179545Y-110601722D01*
X146179545Y-110601722D02*
X146131926Y-110696960D01*
X146131926Y-110696960D02*
X146084307Y-110744580D01*
X146084307Y-110744580D02*
X145989069Y-110792199D01*
X145989069Y-110792199D02*
X145893831Y-110792199D01*
X145893831Y-110792199D02*
X145798593Y-110744580D01*
X145798593Y-110744580D02*
X145750974Y-110696960D01*
X145750974Y-110696960D02*
X145703355Y-110601722D01*
X145703355Y-110601722D02*
X145655736Y-110411246D01*
X145655736Y-110411246D02*
X145655736Y-110173151D01*
X145655736Y-110173151D02*
X145703355Y-109982675D01*
X145703355Y-109982675D02*
X145750974Y-109887437D01*
X145750974Y-109887437D02*
X145798593Y-109839818D01*
X145798593Y-109839818D02*
X145893831Y-109792199D01*
D10*
X97653593Y-111314599D02*
X97320260Y-110838408D01*
X97082165Y-111314599D02*
X97082165Y-110314599D01*
X97082165Y-110314599D02*
X97463117Y-110314599D01*
X97463117Y-110314599D02*
X97558355Y-110362218D01*
X97558355Y-110362218D02*
X97605974Y-110409837D01*
X97605974Y-110409837D02*
X97653593Y-110505075D01*
X97653593Y-110505075D02*
X97653593Y-110647932D01*
X97653593Y-110647932D02*
X97605974Y-110743170D01*
X97605974Y-110743170D02*
X97558355Y-110790789D01*
X97558355Y-110790789D02*
X97463117Y-110838408D01*
X97463117Y-110838408D02*
X97082165Y-110838408D01*
X98510736Y-110314599D02*
X98320260Y-110314599D01*
X98320260Y-110314599D02*
X98225022Y-110362218D01*
X98225022Y-110362218D02*
X98177403Y-110409837D01*
X98177403Y-110409837D02*
X98082165Y-110552694D01*
X98082165Y-110552694D02*
X98034546Y-110743170D01*
X98034546Y-110743170D02*
X98034546Y-111124122D01*
X98034546Y-111124122D02*
X98082165Y-111219360D01*
X98082165Y-111219360D02*
X98129784Y-111266980D01*
X98129784Y-111266980D02*
X98225022Y-111314599D01*
X98225022Y-111314599D02*
X98415498Y-111314599D01*
X98415498Y-111314599D02*
X98510736Y-111266980D01*
X98510736Y-111266980D02*
X98558355Y-111219360D01*
X98558355Y-111219360D02*
X98605974Y-111124122D01*
X98605974Y-111124122D02*
X98605974Y-110886027D01*
X98605974Y-110886027D02*
X98558355Y-110790789D01*
X98558355Y-110790789D02*
X98510736Y-110743170D01*
X98510736Y-110743170D02*
X98415498Y-110695551D01*
X98415498Y-110695551D02*
X98225022Y-110695551D01*
X98225022Y-110695551D02*
X98129784Y-110743170D01*
X98129784Y-110743170D02*
X98082165Y-110790789D01*
X98082165Y-110790789D02*
X98034546Y-110886027D01*
D11*
X140727165Y-105292199D02*
X140727165Y-104292199D01*
X140727165Y-104292199D02*
X140965260Y-104292199D01*
X140965260Y-104292199D02*
X141108117Y-104339818D01*
X141108117Y-104339818D02*
X141203355Y-104435056D01*
X141203355Y-104435056D02*
X141250974Y-104530294D01*
X141250974Y-104530294D02*
X141298593Y-104720770D01*
X141298593Y-104720770D02*
X141298593Y-104863627D01*
X141298593Y-104863627D02*
X141250974Y-105054103D01*
X141250974Y-105054103D02*
X141203355Y-105149341D01*
X141203355Y-105149341D02*
X141108117Y-105244580D01*
X141108117Y-105244580D02*
X140965260Y-105292199D01*
X140965260Y-105292199D02*
X140727165Y-105292199D01*
X141631927Y-104292199D02*
X142250974Y-104292199D01*
X142250974Y-104292199D02*
X141917641Y-104673151D01*
X141917641Y-104673151D02*
X142060498Y-104673151D01*
X142060498Y-104673151D02*
X142155736Y-104720770D01*
X142155736Y-104720770D02*
X142203355Y-104768389D01*
X142203355Y-104768389D02*
X142250974Y-104863627D01*
X142250974Y-104863627D02*
X142250974Y-105101722D01*
X142250974Y-105101722D02*
X142203355Y-105196960D01*
X142203355Y-105196960D02*
X142155736Y-105244580D01*
X142155736Y-105244580D02*
X142060498Y-105292199D01*
X142060498Y-105292199D02*
X141774784Y-105292199D01*
X141774784Y-105292199D02*
X141679546Y-105244580D01*
X141679546Y-105244580D02*
X141631927Y-105196960D01*
D10*
X110407402Y-102464599D02*
X110074069Y-101988408D01*
X109835974Y-102464599D02*
X109835974Y-101464599D01*
X109835974Y-101464599D02*
X110216926Y-101464599D01*
X110216926Y-101464599D02*
X110312164Y-101512218D01*
X110312164Y-101512218D02*
X110359783Y-101559837D01*
X110359783Y-101559837D02*
X110407402Y-101655075D01*
X110407402Y-101655075D02*
X110407402Y-101797932D01*
X110407402Y-101797932D02*
X110359783Y-101893170D01*
X110359783Y-101893170D02*
X110312164Y-101940789D01*
X110312164Y-101940789D02*
X110216926Y-101988408D01*
X110216926Y-101988408D02*
X109835974Y-101988408D01*
X110788355Y-101559837D02*
X110835974Y-101512218D01*
X110835974Y-101512218D02*
X110931212Y-101464599D01*
X110931212Y-101464599D02*
X111169307Y-101464599D01*
X111169307Y-101464599D02*
X111264545Y-101512218D01*
X111264545Y-101512218D02*
X111312164Y-101559837D01*
X111312164Y-101559837D02*
X111359783Y-101655075D01*
X111359783Y-101655075D02*
X111359783Y-101750313D01*
X111359783Y-101750313D02*
X111312164Y-101893170D01*
X111312164Y-101893170D02*
X110740736Y-102464599D01*
X110740736Y-102464599D02*
X111359783Y-102464599D01*
X112312164Y-102464599D02*
X111740736Y-102464599D01*
X112026450Y-102464599D02*
X112026450Y-101464599D01*
X112026450Y-101464599D02*
X111931212Y-101607456D01*
X111931212Y-101607456D02*
X111835974Y-101702694D01*
X111835974Y-101702694D02*
X111740736Y-101750313D01*
X159968355Y-119369599D02*
X159968355Y-120179122D01*
X159968355Y-120179122D02*
X160015974Y-120274360D01*
X160015974Y-120274360D02*
X160063593Y-120321980D01*
X160063593Y-120321980D02*
X160158831Y-120369599D01*
X160158831Y-120369599D02*
X160349307Y-120369599D01*
X160349307Y-120369599D02*
X160444545Y-120321980D01*
X160444545Y-120321980D02*
X160492164Y-120274360D01*
X160492164Y-120274360D02*
X160539783Y-120179122D01*
X160539783Y-120179122D02*
X160539783Y-119369599D01*
X160920736Y-119369599D02*
X161539783Y-119369599D01*
X161539783Y-119369599D02*
X161206450Y-119750551D01*
X161206450Y-119750551D02*
X161349307Y-119750551D01*
X161349307Y-119750551D02*
X161444545Y-119798170D01*
X161444545Y-119798170D02*
X161492164Y-119845789D01*
X161492164Y-119845789D02*
X161539783Y-119941027D01*
X161539783Y-119941027D02*
X161539783Y-120179122D01*
X161539783Y-120179122D02*
X161492164Y-120274360D01*
X161492164Y-120274360D02*
X161444545Y-120321980D01*
X161444545Y-120321980D02*
X161349307Y-120369599D01*
X161349307Y-120369599D02*
X161063593Y-120369599D01*
X161063593Y-120369599D02*
X160968355Y-120321980D01*
X160968355Y-120321980D02*
X160920736Y-120274360D01*
X114817402Y-96564599D02*
X114484069Y-96088408D01*
X114245974Y-96564599D02*
X114245974Y-95564599D01*
X114245974Y-95564599D02*
X114626926Y-95564599D01*
X114626926Y-95564599D02*
X114722164Y-95612218D01*
X114722164Y-95612218D02*
X114769783Y-95659837D01*
X114769783Y-95659837D02*
X114817402Y-95755075D01*
X114817402Y-95755075D02*
X114817402Y-95897932D01*
X114817402Y-95897932D02*
X114769783Y-95993170D01*
X114769783Y-95993170D02*
X114722164Y-96040789D01*
X114722164Y-96040789D02*
X114626926Y-96088408D01*
X114626926Y-96088408D02*
X114245974Y-96088408D01*
X115198355Y-95659837D02*
X115245974Y-95612218D01*
X115245974Y-95612218D02*
X115341212Y-95564599D01*
X115341212Y-95564599D02*
X115579307Y-95564599D01*
X115579307Y-95564599D02*
X115674545Y-95612218D01*
X115674545Y-95612218D02*
X115722164Y-95659837D01*
X115722164Y-95659837D02*
X115769783Y-95755075D01*
X115769783Y-95755075D02*
X115769783Y-95850313D01*
X115769783Y-95850313D02*
X115722164Y-95993170D01*
X115722164Y-95993170D02*
X115150736Y-96564599D01*
X115150736Y-96564599D02*
X115769783Y-96564599D01*
X116674545Y-95564599D02*
X116198355Y-95564599D01*
X116198355Y-95564599D02*
X116150736Y-96040789D01*
X116150736Y-96040789D02*
X116198355Y-95993170D01*
X116198355Y-95993170D02*
X116293593Y-95945551D01*
X116293593Y-95945551D02*
X116531688Y-95945551D01*
X116531688Y-95945551D02*
X116626926Y-95993170D01*
X116626926Y-95993170D02*
X116674545Y-96040789D01*
X116674545Y-96040789D02*
X116722164Y-96136027D01*
X116722164Y-96136027D02*
X116722164Y-96374122D01*
X116722164Y-96374122D02*
X116674545Y-96469360D01*
X116674545Y-96469360D02*
X116626926Y-96516980D01*
X116626926Y-96516980D02*
X116531688Y-96564599D01*
X116531688Y-96564599D02*
X116293593Y-96564599D01*
X116293593Y-96564599D02*
X116198355Y-96516980D01*
X116198355Y-96516980D02*
X116150736Y-96469360D01*
X162597402Y-115484599D02*
X162264069Y-115008408D01*
X162025974Y-115484599D02*
X162025974Y-114484599D01*
X162025974Y-114484599D02*
X162406926Y-114484599D01*
X162406926Y-114484599D02*
X162502164Y-114532218D01*
X162502164Y-114532218D02*
X162549783Y-114579837D01*
X162549783Y-114579837D02*
X162597402Y-114675075D01*
X162597402Y-114675075D02*
X162597402Y-114817932D01*
X162597402Y-114817932D02*
X162549783Y-114913170D01*
X162549783Y-114913170D02*
X162502164Y-114960789D01*
X162502164Y-114960789D02*
X162406926Y-115008408D01*
X162406926Y-115008408D02*
X162025974Y-115008408D01*
X162978355Y-114579837D02*
X163025974Y-114532218D01*
X163025974Y-114532218D02*
X163121212Y-114484599D01*
X163121212Y-114484599D02*
X163359307Y-114484599D01*
X163359307Y-114484599D02*
X163454545Y-114532218D01*
X163454545Y-114532218D02*
X163502164Y-114579837D01*
X163502164Y-114579837D02*
X163549783Y-114675075D01*
X163549783Y-114675075D02*
X163549783Y-114770313D01*
X163549783Y-114770313D02*
X163502164Y-114913170D01*
X163502164Y-114913170D02*
X162930736Y-115484599D01*
X162930736Y-115484599D02*
X163549783Y-115484599D01*
X164406926Y-114484599D02*
X164216450Y-114484599D01*
X164216450Y-114484599D02*
X164121212Y-114532218D01*
X164121212Y-114532218D02*
X164073593Y-114579837D01*
X164073593Y-114579837D02*
X163978355Y-114722694D01*
X163978355Y-114722694D02*
X163930736Y-114913170D01*
X163930736Y-114913170D02*
X163930736Y-115294122D01*
X163930736Y-115294122D02*
X163978355Y-115389360D01*
X163978355Y-115389360D02*
X164025974Y-115436980D01*
X164025974Y-115436980D02*
X164121212Y-115484599D01*
X164121212Y-115484599D02*
X164311688Y-115484599D01*
X164311688Y-115484599D02*
X164406926Y-115436980D01*
X164406926Y-115436980D02*
X164454545Y-115389360D01*
X164454545Y-115389360D02*
X164502164Y-115294122D01*
X164502164Y-115294122D02*
X164502164Y-115056027D01*
X164502164Y-115056027D02*
X164454545Y-114960789D01*
X164454545Y-114960789D02*
X164406926Y-114913170D01*
X164406926Y-114913170D02*
X164311688Y-114865551D01*
X164311688Y-114865551D02*
X164121212Y-114865551D01*
X164121212Y-114865551D02*
X164025974Y-114913170D01*
X164025974Y-114913170D02*
X163978355Y-114960789D01*
X163978355Y-114960789D02*
X163930736Y-115056027D01*
X133495021Y-110009837D02*
X133399783Y-109962218D01*
X133399783Y-109962218D02*
X133304545Y-109866980D01*
X133304545Y-109866980D02*
X133161688Y-109724122D01*
X133161688Y-109724122D02*
X133066450Y-109676503D01*
X133066450Y-109676503D02*
X132971212Y-109676503D01*
X133018831Y-109914599D02*
X132923593Y-109866980D01*
X132923593Y-109866980D02*
X132828355Y-109771741D01*
X132828355Y-109771741D02*
X132780736Y-109581265D01*
X132780736Y-109581265D02*
X132780736Y-109247932D01*
X132780736Y-109247932D02*
X132828355Y-109057456D01*
X132828355Y-109057456D02*
X132923593Y-108962218D01*
X132923593Y-108962218D02*
X133018831Y-108914599D01*
X133018831Y-108914599D02*
X133209307Y-108914599D01*
X133209307Y-108914599D02*
X133304545Y-108962218D01*
X133304545Y-108962218D02*
X133399783Y-109057456D01*
X133399783Y-109057456D02*
X133447402Y-109247932D01*
X133447402Y-109247932D02*
X133447402Y-109581265D01*
X133447402Y-109581265D02*
X133399783Y-109771741D01*
X133399783Y-109771741D02*
X133304545Y-109866980D01*
X133304545Y-109866980D02*
X133209307Y-109914599D01*
X133209307Y-109914599D02*
X133018831Y-109914599D01*
X134352164Y-108914599D02*
X133875974Y-108914599D01*
X133875974Y-108914599D02*
X133828355Y-109390789D01*
X133828355Y-109390789D02*
X133875974Y-109343170D01*
X133875974Y-109343170D02*
X133971212Y-109295551D01*
X133971212Y-109295551D02*
X134209307Y-109295551D01*
X134209307Y-109295551D02*
X134304545Y-109343170D01*
X134304545Y-109343170D02*
X134352164Y-109390789D01*
X134352164Y-109390789D02*
X134399783Y-109486027D01*
X134399783Y-109486027D02*
X134399783Y-109724122D01*
X134399783Y-109724122D02*
X134352164Y-109819360D01*
X134352164Y-109819360D02*
X134304545Y-109866980D01*
X134304545Y-109866980D02*
X134209307Y-109914599D01*
X134209307Y-109914599D02*
X133971212Y-109914599D01*
X133971212Y-109914599D02*
X133875974Y-109866980D01*
X133875974Y-109866980D02*
X133828355Y-109819360D01*
X97653593Y-96564599D02*
X97320260Y-96088408D01*
X97082165Y-96564599D02*
X97082165Y-95564599D01*
X97082165Y-95564599D02*
X97463117Y-95564599D01*
X97463117Y-95564599D02*
X97558355Y-95612218D01*
X97558355Y-95612218D02*
X97605974Y-95659837D01*
X97605974Y-95659837D02*
X97653593Y-95755075D01*
X97653593Y-95755075D02*
X97653593Y-95897932D01*
X97653593Y-95897932D02*
X97605974Y-95993170D01*
X97605974Y-95993170D02*
X97558355Y-96040789D01*
X97558355Y-96040789D02*
X97463117Y-96088408D01*
X97463117Y-96088408D02*
X97082165Y-96088408D01*
X98605974Y-96564599D02*
X98034546Y-96564599D01*
X98320260Y-96564599D02*
X98320260Y-95564599D01*
X98320260Y-95564599D02*
X98225022Y-95707456D01*
X98225022Y-95707456D02*
X98129784Y-95802694D01*
X98129784Y-95802694D02*
X98034546Y-95850313D01*
D11*
X144227165Y-105292199D02*
X144227165Y-104292199D01*
X144227165Y-104292199D02*
X144465260Y-104292199D01*
X144465260Y-104292199D02*
X144608117Y-104339818D01*
X144608117Y-104339818D02*
X144703355Y-104435056D01*
X144703355Y-104435056D02*
X144750974Y-104530294D01*
X144750974Y-104530294D02*
X144798593Y-104720770D01*
X144798593Y-104720770D02*
X144798593Y-104863627D01*
X144798593Y-104863627D02*
X144750974Y-105054103D01*
X144750974Y-105054103D02*
X144703355Y-105149341D01*
X144703355Y-105149341D02*
X144608117Y-105244580D01*
X144608117Y-105244580D02*
X144465260Y-105292199D01*
X144465260Y-105292199D02*
X144227165Y-105292199D01*
X145370022Y-104720770D02*
X145274784Y-104673151D01*
X145274784Y-104673151D02*
X145227165Y-104625532D01*
X145227165Y-104625532D02*
X145179546Y-104530294D01*
X145179546Y-104530294D02*
X145179546Y-104482675D01*
X145179546Y-104482675D02*
X145227165Y-104387437D01*
X145227165Y-104387437D02*
X145274784Y-104339818D01*
X145274784Y-104339818D02*
X145370022Y-104292199D01*
X145370022Y-104292199D02*
X145560498Y-104292199D01*
X145560498Y-104292199D02*
X145655736Y-104339818D01*
X145655736Y-104339818D02*
X145703355Y-104387437D01*
X145703355Y-104387437D02*
X145750974Y-104482675D01*
X145750974Y-104482675D02*
X145750974Y-104530294D01*
X145750974Y-104530294D02*
X145703355Y-104625532D01*
X145703355Y-104625532D02*
X145655736Y-104673151D01*
X145655736Y-104673151D02*
X145560498Y-104720770D01*
X145560498Y-104720770D02*
X145370022Y-104720770D01*
X145370022Y-104720770D02*
X145274784Y-104768389D01*
X145274784Y-104768389D02*
X145227165Y-104816008D01*
X145227165Y-104816008D02*
X145179546Y-104911246D01*
X145179546Y-104911246D02*
X145179546Y-105101722D01*
X145179546Y-105101722D02*
X145227165Y-105196960D01*
X145227165Y-105196960D02*
X145274784Y-105244580D01*
X145274784Y-105244580D02*
X145370022Y-105292199D01*
X145370022Y-105292199D02*
X145560498Y-105292199D01*
X145560498Y-105292199D02*
X145655736Y-105244580D01*
X145655736Y-105244580D02*
X145703355Y-105196960D01*
X145703355Y-105196960D02*
X145750974Y-105101722D01*
X145750974Y-105101722D02*
X145750974Y-104911246D01*
X145750974Y-104911246D02*
X145703355Y-104816008D01*
X145703355Y-104816008D02*
X145655736Y-104768389D01*
X145655736Y-104768389D02*
X145560498Y-104720770D01*
D10*
X128147402Y-102489360D02*
X128099783Y-102536980D01*
X128099783Y-102536980D02*
X127956926Y-102584599D01*
X127956926Y-102584599D02*
X127861688Y-102584599D01*
X127861688Y-102584599D02*
X127718831Y-102536980D01*
X127718831Y-102536980D02*
X127623593Y-102441741D01*
X127623593Y-102441741D02*
X127575974Y-102346503D01*
X127575974Y-102346503D02*
X127528355Y-102156027D01*
X127528355Y-102156027D02*
X127528355Y-102013170D01*
X127528355Y-102013170D02*
X127575974Y-101822694D01*
X127575974Y-101822694D02*
X127623593Y-101727456D01*
X127623593Y-101727456D02*
X127718831Y-101632218D01*
X127718831Y-101632218D02*
X127861688Y-101584599D01*
X127861688Y-101584599D02*
X127956926Y-101584599D01*
X127956926Y-101584599D02*
X128099783Y-101632218D01*
X128099783Y-101632218D02*
X128147402Y-101679837D01*
X129099783Y-102584599D02*
X128528355Y-102584599D01*
X128814069Y-102584599D02*
X128814069Y-101584599D01*
X128814069Y-101584599D02*
X128718831Y-101727456D01*
X128718831Y-101727456D02*
X128623593Y-101822694D01*
X128623593Y-101822694D02*
X128528355Y-101870313D01*
X129433117Y-101584599D02*
X130099783Y-101584599D01*
X130099783Y-101584599D02*
X129671212Y-102584599D01*
X110407402Y-108364599D02*
X110074069Y-107888408D01*
X109835974Y-108364599D02*
X109835974Y-107364599D01*
X109835974Y-107364599D02*
X110216926Y-107364599D01*
X110216926Y-107364599D02*
X110312164Y-107412218D01*
X110312164Y-107412218D02*
X110359783Y-107459837D01*
X110359783Y-107459837D02*
X110407402Y-107555075D01*
X110407402Y-107555075D02*
X110407402Y-107697932D01*
X110407402Y-107697932D02*
X110359783Y-107793170D01*
X110359783Y-107793170D02*
X110312164Y-107840789D01*
X110312164Y-107840789D02*
X110216926Y-107888408D01*
X110216926Y-107888408D02*
X109835974Y-107888408D01*
X110788355Y-107459837D02*
X110835974Y-107412218D01*
X110835974Y-107412218D02*
X110931212Y-107364599D01*
X110931212Y-107364599D02*
X111169307Y-107364599D01*
X111169307Y-107364599D02*
X111264545Y-107412218D01*
X111264545Y-107412218D02*
X111312164Y-107459837D01*
X111312164Y-107459837D02*
X111359783Y-107555075D01*
X111359783Y-107555075D02*
X111359783Y-107650313D01*
X111359783Y-107650313D02*
X111312164Y-107793170D01*
X111312164Y-107793170D02*
X110740736Y-108364599D01*
X110740736Y-108364599D02*
X111359783Y-108364599D01*
X111693117Y-107364599D02*
X112312164Y-107364599D01*
X112312164Y-107364599D02*
X111978831Y-107745551D01*
X111978831Y-107745551D02*
X112121688Y-107745551D01*
X112121688Y-107745551D02*
X112216926Y-107793170D01*
X112216926Y-107793170D02*
X112264545Y-107840789D01*
X112264545Y-107840789D02*
X112312164Y-107936027D01*
X112312164Y-107936027D02*
X112312164Y-108174122D01*
X112312164Y-108174122D02*
X112264545Y-108269360D01*
X112264545Y-108269360D02*
X112216926Y-108316980D01*
X112216926Y-108316980D02*
X112121688Y-108364599D01*
X112121688Y-108364599D02*
X111835974Y-108364599D01*
X111835974Y-108364599D02*
X111740736Y-108316980D01*
X111740736Y-108316980D02*
X111693117Y-108269360D01*
X119723593Y-114529360D02*
X119675974Y-114576980D01*
X119675974Y-114576980D02*
X119533117Y-114624599D01*
X119533117Y-114624599D02*
X119437879Y-114624599D01*
X119437879Y-114624599D02*
X119295022Y-114576980D01*
X119295022Y-114576980D02*
X119199784Y-114481741D01*
X119199784Y-114481741D02*
X119152165Y-114386503D01*
X119152165Y-114386503D02*
X119104546Y-114196027D01*
X119104546Y-114196027D02*
X119104546Y-114053170D01*
X119104546Y-114053170D02*
X119152165Y-113862694D01*
X119152165Y-113862694D02*
X119199784Y-113767456D01*
X119199784Y-113767456D02*
X119295022Y-113672218D01*
X119295022Y-113672218D02*
X119437879Y-113624599D01*
X119437879Y-113624599D02*
X119533117Y-113624599D01*
X119533117Y-113624599D02*
X119675974Y-113672218D01*
X119675974Y-113672218D02*
X119723593Y-113719837D01*
X120056927Y-113624599D02*
X120723593Y-113624599D01*
X120723593Y-113624599D02*
X120295022Y-114624599D01*
X110407402Y-111314599D02*
X110074069Y-110838408D01*
X109835974Y-111314599D02*
X109835974Y-110314599D01*
X109835974Y-110314599D02*
X110216926Y-110314599D01*
X110216926Y-110314599D02*
X110312164Y-110362218D01*
X110312164Y-110362218D02*
X110359783Y-110409837D01*
X110359783Y-110409837D02*
X110407402Y-110505075D01*
X110407402Y-110505075D02*
X110407402Y-110647932D01*
X110407402Y-110647932D02*
X110359783Y-110743170D01*
X110359783Y-110743170D02*
X110312164Y-110790789D01*
X110312164Y-110790789D02*
X110216926Y-110838408D01*
X110216926Y-110838408D02*
X109835974Y-110838408D01*
X110788355Y-110409837D02*
X110835974Y-110362218D01*
X110835974Y-110362218D02*
X110931212Y-110314599D01*
X110931212Y-110314599D02*
X111169307Y-110314599D01*
X111169307Y-110314599D02*
X111264545Y-110362218D01*
X111264545Y-110362218D02*
X111312164Y-110409837D01*
X111312164Y-110409837D02*
X111359783Y-110505075D01*
X111359783Y-110505075D02*
X111359783Y-110600313D01*
X111359783Y-110600313D02*
X111312164Y-110743170D01*
X111312164Y-110743170D02*
X110740736Y-111314599D01*
X110740736Y-111314599D02*
X111359783Y-111314599D01*
X112216926Y-110647932D02*
X112216926Y-111314599D01*
X111978831Y-110266980D02*
X111740736Y-110981265D01*
X111740736Y-110981265D02*
X112359783Y-110981265D01*
X119723593Y-99479360D02*
X119675974Y-99526980D01*
X119675974Y-99526980D02*
X119533117Y-99574599D01*
X119533117Y-99574599D02*
X119437879Y-99574599D01*
X119437879Y-99574599D02*
X119295022Y-99526980D01*
X119295022Y-99526980D02*
X119199784Y-99431741D01*
X119199784Y-99431741D02*
X119152165Y-99336503D01*
X119152165Y-99336503D02*
X119104546Y-99146027D01*
X119104546Y-99146027D02*
X119104546Y-99003170D01*
X119104546Y-99003170D02*
X119152165Y-98812694D01*
X119152165Y-98812694D02*
X119199784Y-98717456D01*
X119199784Y-98717456D02*
X119295022Y-98622218D01*
X119295022Y-98622218D02*
X119437879Y-98574599D01*
X119437879Y-98574599D02*
X119533117Y-98574599D01*
X119533117Y-98574599D02*
X119675974Y-98622218D01*
X119675974Y-98622218D02*
X119723593Y-98669837D01*
X120104546Y-98669837D02*
X120152165Y-98622218D01*
X120152165Y-98622218D02*
X120247403Y-98574599D01*
X120247403Y-98574599D02*
X120485498Y-98574599D01*
X120485498Y-98574599D02*
X120580736Y-98622218D01*
X120580736Y-98622218D02*
X120628355Y-98669837D01*
X120628355Y-98669837D02*
X120675974Y-98765075D01*
X120675974Y-98765075D02*
X120675974Y-98860313D01*
X120675974Y-98860313D02*
X120628355Y-99003170D01*
X120628355Y-99003170D02*
X120056927Y-99574599D01*
X120056927Y-99574599D02*
X120675974Y-99574599D01*
X141428355Y-118424599D02*
X141428355Y-119234122D01*
X141428355Y-119234122D02*
X141475974Y-119329360D01*
X141475974Y-119329360D02*
X141523593Y-119376980D01*
X141523593Y-119376980D02*
X141618831Y-119424599D01*
X141618831Y-119424599D02*
X141809307Y-119424599D01*
X141809307Y-119424599D02*
X141904545Y-119376980D01*
X141904545Y-119376980D02*
X141952164Y-119329360D01*
X141952164Y-119329360D02*
X141999783Y-119234122D01*
X141999783Y-119234122D02*
X141999783Y-118424599D01*
X142428355Y-118519837D02*
X142475974Y-118472218D01*
X142475974Y-118472218D02*
X142571212Y-118424599D01*
X142571212Y-118424599D02*
X142809307Y-118424599D01*
X142809307Y-118424599D02*
X142904545Y-118472218D01*
X142904545Y-118472218D02*
X142952164Y-118519837D01*
X142952164Y-118519837D02*
X142999783Y-118615075D01*
X142999783Y-118615075D02*
X142999783Y-118710313D01*
X142999783Y-118710313D02*
X142952164Y-118853170D01*
X142952164Y-118853170D02*
X142380736Y-119424599D01*
X142380736Y-119424599D02*
X142999783Y-119424599D01*
X133495021Y-105559837D02*
X133399783Y-105512218D01*
X133399783Y-105512218D02*
X133304545Y-105416980D01*
X133304545Y-105416980D02*
X133161688Y-105274122D01*
X133161688Y-105274122D02*
X133066450Y-105226503D01*
X133066450Y-105226503D02*
X132971212Y-105226503D01*
X133018831Y-105464599D02*
X132923593Y-105416980D01*
X132923593Y-105416980D02*
X132828355Y-105321741D01*
X132828355Y-105321741D02*
X132780736Y-105131265D01*
X132780736Y-105131265D02*
X132780736Y-104797932D01*
X132780736Y-104797932D02*
X132828355Y-104607456D01*
X132828355Y-104607456D02*
X132923593Y-104512218D01*
X132923593Y-104512218D02*
X133018831Y-104464599D01*
X133018831Y-104464599D02*
X133209307Y-104464599D01*
X133209307Y-104464599D02*
X133304545Y-104512218D01*
X133304545Y-104512218D02*
X133399783Y-104607456D01*
X133399783Y-104607456D02*
X133447402Y-104797932D01*
X133447402Y-104797932D02*
X133447402Y-105131265D01*
X133447402Y-105131265D02*
X133399783Y-105321741D01*
X133399783Y-105321741D02*
X133304545Y-105416980D01*
X133304545Y-105416980D02*
X133209307Y-105464599D01*
X133209307Y-105464599D02*
X133018831Y-105464599D01*
X134304545Y-104797932D02*
X134304545Y-105464599D01*
X134066450Y-104416980D02*
X133828355Y-105131265D01*
X133828355Y-105131265D02*
X134447402Y-105131265D01*
X101587402Y-108364599D02*
X101254069Y-107888408D01*
X101015974Y-108364599D02*
X101015974Y-107364599D01*
X101015974Y-107364599D02*
X101396926Y-107364599D01*
X101396926Y-107364599D02*
X101492164Y-107412218D01*
X101492164Y-107412218D02*
X101539783Y-107459837D01*
X101539783Y-107459837D02*
X101587402Y-107555075D01*
X101587402Y-107555075D02*
X101587402Y-107697932D01*
X101587402Y-107697932D02*
X101539783Y-107793170D01*
X101539783Y-107793170D02*
X101492164Y-107840789D01*
X101492164Y-107840789D02*
X101396926Y-107888408D01*
X101396926Y-107888408D02*
X101015974Y-107888408D01*
X102539783Y-108364599D02*
X101968355Y-108364599D01*
X102254069Y-108364599D02*
X102254069Y-107364599D01*
X102254069Y-107364599D02*
X102158831Y-107507456D01*
X102158831Y-107507456D02*
X102063593Y-107602694D01*
X102063593Y-107602694D02*
X101968355Y-107650313D01*
X103492164Y-108364599D02*
X102920736Y-108364599D01*
X103206450Y-108364599D02*
X103206450Y-107364599D01*
X103206450Y-107364599D02*
X103111212Y-107507456D01*
X103111212Y-107507456D02*
X103015974Y-107602694D01*
X103015974Y-107602694D02*
X102920736Y-107650313D01*
X162435021Y-104159837D02*
X162339783Y-104112218D01*
X162339783Y-104112218D02*
X162244545Y-104016980D01*
X162244545Y-104016980D02*
X162101688Y-103874122D01*
X162101688Y-103874122D02*
X162006450Y-103826503D01*
X162006450Y-103826503D02*
X161911212Y-103826503D01*
X161958831Y-104064599D02*
X161863593Y-104016980D01*
X161863593Y-104016980D02*
X161768355Y-103921741D01*
X161768355Y-103921741D02*
X161720736Y-103731265D01*
X161720736Y-103731265D02*
X161720736Y-103397932D01*
X161720736Y-103397932D02*
X161768355Y-103207456D01*
X161768355Y-103207456D02*
X161863593Y-103112218D01*
X161863593Y-103112218D02*
X161958831Y-103064599D01*
X161958831Y-103064599D02*
X162149307Y-103064599D01*
X162149307Y-103064599D02*
X162244545Y-103112218D01*
X162244545Y-103112218D02*
X162339783Y-103207456D01*
X162339783Y-103207456D02*
X162387402Y-103397932D01*
X162387402Y-103397932D02*
X162387402Y-103731265D01*
X162387402Y-103731265D02*
X162339783Y-103921741D01*
X162339783Y-103921741D02*
X162244545Y-104016980D01*
X162244545Y-104016980D02*
X162149307Y-104064599D01*
X162149307Y-104064599D02*
X161958831Y-104064599D01*
X163339783Y-104064599D02*
X162768355Y-104064599D01*
X163054069Y-104064599D02*
X163054069Y-103064599D01*
X163054069Y-103064599D02*
X162958831Y-103207456D01*
X162958831Y-103207456D02*
X162863593Y-103302694D01*
X162863593Y-103302694D02*
X162768355Y-103350313D01*
X128147402Y-99479360D02*
X128099783Y-99526980D01*
X128099783Y-99526980D02*
X127956926Y-99574599D01*
X127956926Y-99574599D02*
X127861688Y-99574599D01*
X127861688Y-99574599D02*
X127718831Y-99526980D01*
X127718831Y-99526980D02*
X127623593Y-99431741D01*
X127623593Y-99431741D02*
X127575974Y-99336503D01*
X127575974Y-99336503D02*
X127528355Y-99146027D01*
X127528355Y-99146027D02*
X127528355Y-99003170D01*
X127528355Y-99003170D02*
X127575974Y-98812694D01*
X127575974Y-98812694D02*
X127623593Y-98717456D01*
X127623593Y-98717456D02*
X127718831Y-98622218D01*
X127718831Y-98622218D02*
X127861688Y-98574599D01*
X127861688Y-98574599D02*
X127956926Y-98574599D01*
X127956926Y-98574599D02*
X128099783Y-98622218D01*
X128099783Y-98622218D02*
X128147402Y-98669837D01*
X129099783Y-99574599D02*
X128528355Y-99574599D01*
X128814069Y-99574599D02*
X128814069Y-98574599D01*
X128814069Y-98574599D02*
X128718831Y-98717456D01*
X128718831Y-98717456D02*
X128623593Y-98812694D01*
X128623593Y-98812694D02*
X128528355Y-98860313D01*
X129956926Y-98574599D02*
X129766450Y-98574599D01*
X129766450Y-98574599D02*
X129671212Y-98622218D01*
X129671212Y-98622218D02*
X129623593Y-98669837D01*
X129623593Y-98669837D02*
X129528355Y-98812694D01*
X129528355Y-98812694D02*
X129480736Y-99003170D01*
X129480736Y-99003170D02*
X129480736Y-99384122D01*
X129480736Y-99384122D02*
X129528355Y-99479360D01*
X129528355Y-99479360D02*
X129575974Y-99526980D01*
X129575974Y-99526980D02*
X129671212Y-99574599D01*
X129671212Y-99574599D02*
X129861688Y-99574599D01*
X129861688Y-99574599D02*
X129956926Y-99526980D01*
X129956926Y-99526980D02*
X130004545Y-99479360D01*
X130004545Y-99479360D02*
X130052164Y-99384122D01*
X130052164Y-99384122D02*
X130052164Y-99146027D01*
X130052164Y-99146027D02*
X130004545Y-99050789D01*
X130004545Y-99050789D02*
X129956926Y-99003170D01*
X129956926Y-99003170D02*
X129861688Y-98955551D01*
X129861688Y-98955551D02*
X129671212Y-98955551D01*
X129671212Y-98955551D02*
X129575974Y-99003170D01*
X129575974Y-99003170D02*
X129528355Y-99050789D01*
X129528355Y-99050789D02*
X129480736Y-99146027D01*
X114817402Y-102464599D02*
X114484069Y-101988408D01*
X114245974Y-102464599D02*
X114245974Y-101464599D01*
X114245974Y-101464599D02*
X114626926Y-101464599D01*
X114626926Y-101464599D02*
X114722164Y-101512218D01*
X114722164Y-101512218D02*
X114769783Y-101559837D01*
X114769783Y-101559837D02*
X114817402Y-101655075D01*
X114817402Y-101655075D02*
X114817402Y-101797932D01*
X114817402Y-101797932D02*
X114769783Y-101893170D01*
X114769783Y-101893170D02*
X114722164Y-101940789D01*
X114722164Y-101940789D02*
X114626926Y-101988408D01*
X114626926Y-101988408D02*
X114245974Y-101988408D01*
X115150736Y-101464599D02*
X115769783Y-101464599D01*
X115769783Y-101464599D02*
X115436450Y-101845551D01*
X115436450Y-101845551D02*
X115579307Y-101845551D01*
X115579307Y-101845551D02*
X115674545Y-101893170D01*
X115674545Y-101893170D02*
X115722164Y-101940789D01*
X115722164Y-101940789D02*
X115769783Y-102036027D01*
X115769783Y-102036027D02*
X115769783Y-102274122D01*
X115769783Y-102274122D02*
X115722164Y-102369360D01*
X115722164Y-102369360D02*
X115674545Y-102416980D01*
X115674545Y-102416980D02*
X115579307Y-102464599D01*
X115579307Y-102464599D02*
X115293593Y-102464599D01*
X115293593Y-102464599D02*
X115198355Y-102416980D01*
X115198355Y-102416980D02*
X115150736Y-102369360D01*
X116388831Y-101464599D02*
X116484069Y-101464599D01*
X116484069Y-101464599D02*
X116579307Y-101512218D01*
X116579307Y-101512218D02*
X116626926Y-101559837D01*
X116626926Y-101559837D02*
X116674545Y-101655075D01*
X116674545Y-101655075D02*
X116722164Y-101845551D01*
X116722164Y-101845551D02*
X116722164Y-102083646D01*
X116722164Y-102083646D02*
X116674545Y-102274122D01*
X116674545Y-102274122D02*
X116626926Y-102369360D01*
X116626926Y-102369360D02*
X116579307Y-102416980D01*
X116579307Y-102416980D02*
X116484069Y-102464599D01*
X116484069Y-102464599D02*
X116388831Y-102464599D01*
X116388831Y-102464599D02*
X116293593Y-102416980D01*
X116293593Y-102416980D02*
X116245974Y-102369360D01*
X116245974Y-102369360D02*
X116198355Y-102274122D01*
X116198355Y-102274122D02*
X116150736Y-102083646D01*
X116150736Y-102083646D02*
X116150736Y-101845551D01*
X116150736Y-101845551D02*
X116198355Y-101655075D01*
X116198355Y-101655075D02*
X116245974Y-101559837D01*
X116245974Y-101559837D02*
X116293593Y-101512218D01*
X116293593Y-101512218D02*
X116388831Y-101464599D01*
X121378355Y-116584599D02*
X121378355Y-117394122D01*
X121378355Y-117394122D02*
X121425974Y-117489360D01*
X121425974Y-117489360D02*
X121473593Y-117536980D01*
X121473593Y-117536980D02*
X121568831Y-117584599D01*
X121568831Y-117584599D02*
X121759307Y-117584599D01*
X121759307Y-117584599D02*
X121854545Y-117536980D01*
X121854545Y-117536980D02*
X121902164Y-117489360D01*
X121902164Y-117489360D02*
X121949783Y-117394122D01*
X121949783Y-117394122D02*
X121949783Y-116584599D01*
X122949783Y-117584599D02*
X122378355Y-117584599D01*
X122664069Y-117584599D02*
X122664069Y-116584599D01*
X122664069Y-116584599D02*
X122568831Y-116727456D01*
X122568831Y-116727456D02*
X122473593Y-116822694D01*
X122473593Y-116822694D02*
X122378355Y-116870313D01*
X114174546Y-110314599D02*
X114745974Y-110314599D01*
X114460260Y-111314599D02*
X114460260Y-110314599D01*
X115079308Y-111314599D02*
X115079308Y-110314599D01*
X115079308Y-110790789D02*
X115650736Y-110790789D01*
X115650736Y-111314599D02*
X115650736Y-110314599D01*
X116079308Y-110409837D02*
X116126927Y-110362218D01*
X116126927Y-110362218D02*
X116222165Y-110314599D01*
X116222165Y-110314599D02*
X116460260Y-110314599D01*
X116460260Y-110314599D02*
X116555498Y-110362218D01*
X116555498Y-110362218D02*
X116603117Y-110409837D01*
X116603117Y-110409837D02*
X116650736Y-110505075D01*
X116650736Y-110505075D02*
X116650736Y-110600313D01*
X116650736Y-110600313D02*
X116603117Y-110743170D01*
X116603117Y-110743170D02*
X116031689Y-111314599D01*
X116031689Y-111314599D02*
X116650736Y-111314599D01*
X136723571Y-90564009D02*
X136390238Y-90564009D01*
X136390238Y-91087819D02*
X136390238Y-90087819D01*
X136390238Y-90087819D02*
X136866428Y-90087819D01*
X137247381Y-91087819D02*
X137247381Y-90087819D01*
X137723571Y-91087819D02*
X137723571Y-90087819D01*
X137723571Y-90087819D02*
X137961666Y-90087819D01*
X137961666Y-90087819D02*
X138104523Y-90135438D01*
X138104523Y-90135438D02*
X138199761Y-90230676D01*
X138199761Y-90230676D02*
X138247380Y-90325914D01*
X138247380Y-90325914D02*
X138294999Y-90516390D01*
X138294999Y-90516390D02*
X138294999Y-90659247D01*
X138294999Y-90659247D02*
X138247380Y-90849723D01*
X138247380Y-90849723D02*
X138199761Y-90944961D01*
X138199761Y-90944961D02*
X138104523Y-91040200D01*
X138104523Y-91040200D02*
X137961666Y-91087819D01*
X137961666Y-91087819D02*
X137723571Y-91087819D01*
X139247380Y-91087819D02*
X138675952Y-91087819D01*
X138961666Y-91087819D02*
X138961666Y-90087819D01*
X138961666Y-90087819D02*
X138866428Y-90230676D01*
X138866428Y-90230676D02*
X138771190Y-90325914D01*
X138771190Y-90325914D02*
X138675952Y-90373533D01*
X128147402Y-108509360D02*
X128099783Y-108556980D01*
X128099783Y-108556980D02*
X127956926Y-108604599D01*
X127956926Y-108604599D02*
X127861688Y-108604599D01*
X127861688Y-108604599D02*
X127718831Y-108556980D01*
X127718831Y-108556980D02*
X127623593Y-108461741D01*
X127623593Y-108461741D02*
X127575974Y-108366503D01*
X127575974Y-108366503D02*
X127528355Y-108176027D01*
X127528355Y-108176027D02*
X127528355Y-108033170D01*
X127528355Y-108033170D02*
X127575974Y-107842694D01*
X127575974Y-107842694D02*
X127623593Y-107747456D01*
X127623593Y-107747456D02*
X127718831Y-107652218D01*
X127718831Y-107652218D02*
X127861688Y-107604599D01*
X127861688Y-107604599D02*
X127956926Y-107604599D01*
X127956926Y-107604599D02*
X128099783Y-107652218D01*
X128099783Y-107652218D02*
X128147402Y-107699837D01*
X129099783Y-108604599D02*
X128528355Y-108604599D01*
X128814069Y-108604599D02*
X128814069Y-107604599D01*
X128814069Y-107604599D02*
X128718831Y-107747456D01*
X128718831Y-107747456D02*
X128623593Y-107842694D01*
X128623593Y-107842694D02*
X128528355Y-107890313D01*
X129575974Y-108604599D02*
X129766450Y-108604599D01*
X129766450Y-108604599D02*
X129861688Y-108556980D01*
X129861688Y-108556980D02*
X129909307Y-108509360D01*
X129909307Y-108509360D02*
X130004545Y-108366503D01*
X130004545Y-108366503D02*
X130052164Y-108176027D01*
X130052164Y-108176027D02*
X130052164Y-107795075D01*
X130052164Y-107795075D02*
X130004545Y-107699837D01*
X130004545Y-107699837D02*
X129956926Y-107652218D01*
X129956926Y-107652218D02*
X129861688Y-107604599D01*
X129861688Y-107604599D02*
X129671212Y-107604599D01*
X129671212Y-107604599D02*
X129575974Y-107652218D01*
X129575974Y-107652218D02*
X129528355Y-107699837D01*
X129528355Y-107699837D02*
X129480736Y-107795075D01*
X129480736Y-107795075D02*
X129480736Y-108033170D01*
X129480736Y-108033170D02*
X129528355Y-108128408D01*
X129528355Y-108128408D02*
X129575974Y-108176027D01*
X129575974Y-108176027D02*
X129671212Y-108223646D01*
X129671212Y-108223646D02*
X129861688Y-108223646D01*
X129861688Y-108223646D02*
X129956926Y-108176027D01*
X129956926Y-108176027D02*
X130004545Y-108128408D01*
X130004545Y-108128408D02*
X130052164Y-108033170D01*
X119723593Y-108509360D02*
X119675974Y-108556980D01*
X119675974Y-108556980D02*
X119533117Y-108604599D01*
X119533117Y-108604599D02*
X119437879Y-108604599D01*
X119437879Y-108604599D02*
X119295022Y-108556980D01*
X119295022Y-108556980D02*
X119199784Y-108461741D01*
X119199784Y-108461741D02*
X119152165Y-108366503D01*
X119152165Y-108366503D02*
X119104546Y-108176027D01*
X119104546Y-108176027D02*
X119104546Y-108033170D01*
X119104546Y-108033170D02*
X119152165Y-107842694D01*
X119152165Y-107842694D02*
X119199784Y-107747456D01*
X119199784Y-107747456D02*
X119295022Y-107652218D01*
X119295022Y-107652218D02*
X119437879Y-107604599D01*
X119437879Y-107604599D02*
X119533117Y-107604599D01*
X119533117Y-107604599D02*
X119675974Y-107652218D01*
X119675974Y-107652218D02*
X119723593Y-107699837D01*
X120628355Y-107604599D02*
X120152165Y-107604599D01*
X120152165Y-107604599D02*
X120104546Y-108080789D01*
X120104546Y-108080789D02*
X120152165Y-108033170D01*
X120152165Y-108033170D02*
X120247403Y-107985551D01*
X120247403Y-107985551D02*
X120485498Y-107985551D01*
X120485498Y-107985551D02*
X120580736Y-108033170D01*
X120580736Y-108033170D02*
X120628355Y-108080789D01*
X120628355Y-108080789D02*
X120675974Y-108176027D01*
X120675974Y-108176027D02*
X120675974Y-108414122D01*
X120675974Y-108414122D02*
X120628355Y-108509360D01*
X120628355Y-108509360D02*
X120580736Y-108556980D01*
X120580736Y-108556980D02*
X120485498Y-108604599D01*
X120485498Y-108604599D02*
X120247403Y-108604599D01*
X120247403Y-108604599D02*
X120152165Y-108556980D01*
X120152165Y-108556980D02*
X120104546Y-108509360D01*
X110407402Y-96564599D02*
X110074069Y-96088408D01*
X109835974Y-96564599D02*
X109835974Y-95564599D01*
X109835974Y-95564599D02*
X110216926Y-95564599D01*
X110216926Y-95564599D02*
X110312164Y-95612218D01*
X110312164Y-95612218D02*
X110359783Y-95659837D01*
X110359783Y-95659837D02*
X110407402Y-95755075D01*
X110407402Y-95755075D02*
X110407402Y-95897932D01*
X110407402Y-95897932D02*
X110359783Y-95993170D01*
X110359783Y-95993170D02*
X110312164Y-96040789D01*
X110312164Y-96040789D02*
X110216926Y-96088408D01*
X110216926Y-96088408D02*
X109835974Y-96088408D01*
X111359783Y-96564599D02*
X110788355Y-96564599D01*
X111074069Y-96564599D02*
X111074069Y-95564599D01*
X111074069Y-95564599D02*
X110978831Y-95707456D01*
X110978831Y-95707456D02*
X110883593Y-95802694D01*
X110883593Y-95802694D02*
X110788355Y-95850313D01*
X111835974Y-96564599D02*
X112026450Y-96564599D01*
X112026450Y-96564599D02*
X112121688Y-96516980D01*
X112121688Y-96516980D02*
X112169307Y-96469360D01*
X112169307Y-96469360D02*
X112264545Y-96326503D01*
X112264545Y-96326503D02*
X112312164Y-96136027D01*
X112312164Y-96136027D02*
X112312164Y-95755075D01*
X112312164Y-95755075D02*
X112264545Y-95659837D01*
X112264545Y-95659837D02*
X112216926Y-95612218D01*
X112216926Y-95612218D02*
X112121688Y-95564599D01*
X112121688Y-95564599D02*
X111931212Y-95564599D01*
X111931212Y-95564599D02*
X111835974Y-95612218D01*
X111835974Y-95612218D02*
X111788355Y-95659837D01*
X111788355Y-95659837D02*
X111740736Y-95755075D01*
X111740736Y-95755075D02*
X111740736Y-95993170D01*
X111740736Y-95993170D02*
X111788355Y-96088408D01*
X111788355Y-96088408D02*
X111835974Y-96136027D01*
X111835974Y-96136027D02*
X111931212Y-96183646D01*
X111931212Y-96183646D02*
X112121688Y-96183646D01*
X112121688Y-96183646D02*
X112216926Y-96136027D01*
X112216926Y-96136027D02*
X112264545Y-96088408D01*
X112264545Y-96088408D02*
X112312164Y-95993170D01*
X162498355Y-107939599D02*
X162498355Y-108749122D01*
X162498355Y-108749122D02*
X162545974Y-108844360D01*
X162545974Y-108844360D02*
X162593593Y-108891980D01*
X162593593Y-108891980D02*
X162688831Y-108939599D01*
X162688831Y-108939599D02*
X162879307Y-108939599D01*
X162879307Y-108939599D02*
X162974545Y-108891980D01*
X162974545Y-108891980D02*
X163022164Y-108844360D01*
X163022164Y-108844360D02*
X163069783Y-108749122D01*
X163069783Y-108749122D02*
X163069783Y-107939599D01*
X163974545Y-108272932D02*
X163974545Y-108939599D01*
X163736450Y-107891980D02*
X163498355Y-108606265D01*
X163498355Y-108606265D02*
X164117402Y-108606265D01*
X128147402Y-96469360D02*
X128099783Y-96516980D01*
X128099783Y-96516980D02*
X127956926Y-96564599D01*
X127956926Y-96564599D02*
X127861688Y-96564599D01*
X127861688Y-96564599D02*
X127718831Y-96516980D01*
X127718831Y-96516980D02*
X127623593Y-96421741D01*
X127623593Y-96421741D02*
X127575974Y-96326503D01*
X127575974Y-96326503D02*
X127528355Y-96136027D01*
X127528355Y-96136027D02*
X127528355Y-95993170D01*
X127528355Y-95993170D02*
X127575974Y-95802694D01*
X127575974Y-95802694D02*
X127623593Y-95707456D01*
X127623593Y-95707456D02*
X127718831Y-95612218D01*
X127718831Y-95612218D02*
X127861688Y-95564599D01*
X127861688Y-95564599D02*
X127956926Y-95564599D01*
X127956926Y-95564599D02*
X128099783Y-95612218D01*
X128099783Y-95612218D02*
X128147402Y-95659837D01*
X129099783Y-96564599D02*
X128528355Y-96564599D01*
X128814069Y-96564599D02*
X128814069Y-95564599D01*
X128814069Y-95564599D02*
X128718831Y-95707456D01*
X128718831Y-95707456D02*
X128623593Y-95802694D01*
X128623593Y-95802694D02*
X128528355Y-95850313D01*
X130004545Y-95564599D02*
X129528355Y-95564599D01*
X129528355Y-95564599D02*
X129480736Y-96040789D01*
X129480736Y-96040789D02*
X129528355Y-95993170D01*
X129528355Y-95993170D02*
X129623593Y-95945551D01*
X129623593Y-95945551D02*
X129861688Y-95945551D01*
X129861688Y-95945551D02*
X129956926Y-95993170D01*
X129956926Y-95993170D02*
X130004545Y-96040789D01*
X130004545Y-96040789D02*
X130052164Y-96136027D01*
X130052164Y-96136027D02*
X130052164Y-96374122D01*
X130052164Y-96374122D02*
X130004545Y-96469360D01*
X130004545Y-96469360D02*
X129956926Y-96516980D01*
X129956926Y-96516980D02*
X129861688Y-96564599D01*
X129861688Y-96564599D02*
X129623593Y-96564599D01*
X129623593Y-96564599D02*
X129528355Y-96516980D01*
X129528355Y-96516980D02*
X129480736Y-96469360D01*
X110407402Y-105414599D02*
X110074069Y-104938408D01*
X109835974Y-105414599D02*
X109835974Y-104414599D01*
X109835974Y-104414599D02*
X110216926Y-104414599D01*
X110216926Y-104414599D02*
X110312164Y-104462218D01*
X110312164Y-104462218D02*
X110359783Y-104509837D01*
X110359783Y-104509837D02*
X110407402Y-104605075D01*
X110407402Y-104605075D02*
X110407402Y-104747932D01*
X110407402Y-104747932D02*
X110359783Y-104843170D01*
X110359783Y-104843170D02*
X110312164Y-104890789D01*
X110312164Y-104890789D02*
X110216926Y-104938408D01*
X110216926Y-104938408D02*
X109835974Y-104938408D01*
X110788355Y-104509837D02*
X110835974Y-104462218D01*
X110835974Y-104462218D02*
X110931212Y-104414599D01*
X110931212Y-104414599D02*
X111169307Y-104414599D01*
X111169307Y-104414599D02*
X111264545Y-104462218D01*
X111264545Y-104462218D02*
X111312164Y-104509837D01*
X111312164Y-104509837D02*
X111359783Y-104605075D01*
X111359783Y-104605075D02*
X111359783Y-104700313D01*
X111359783Y-104700313D02*
X111312164Y-104843170D01*
X111312164Y-104843170D02*
X110740736Y-105414599D01*
X110740736Y-105414599D02*
X111359783Y-105414599D01*
X111740736Y-104509837D02*
X111788355Y-104462218D01*
X111788355Y-104462218D02*
X111883593Y-104414599D01*
X111883593Y-104414599D02*
X112121688Y-104414599D01*
X112121688Y-104414599D02*
X112216926Y-104462218D01*
X112216926Y-104462218D02*
X112264545Y-104509837D01*
X112264545Y-104509837D02*
X112312164Y-104605075D01*
X112312164Y-104605075D02*
X112312164Y-104700313D01*
X112312164Y-104700313D02*
X112264545Y-104843170D01*
X112264545Y-104843170D02*
X111693117Y-105414599D01*
X111693117Y-105414599D02*
X112312164Y-105414599D01*
X147391571Y-90437009D02*
X147058238Y-90437009D01*
X147058238Y-90960819D02*
X147058238Y-89960819D01*
X147058238Y-89960819D02*
X147534428Y-89960819D01*
X147915381Y-90960819D02*
X147915381Y-89960819D01*
X148391571Y-90960819D02*
X148391571Y-89960819D01*
X148391571Y-89960819D02*
X148629666Y-89960819D01*
X148629666Y-89960819D02*
X148772523Y-90008438D01*
X148772523Y-90008438D02*
X148867761Y-90103676D01*
X148867761Y-90103676D02*
X148915380Y-90198914D01*
X148915380Y-90198914D02*
X148962999Y-90389390D01*
X148962999Y-90389390D02*
X148962999Y-90532247D01*
X148962999Y-90532247D02*
X148915380Y-90722723D01*
X148915380Y-90722723D02*
X148867761Y-90817961D01*
X148867761Y-90817961D02*
X148772523Y-90913200D01*
X148772523Y-90913200D02*
X148629666Y-90960819D01*
X148629666Y-90960819D02*
X148391571Y-90960819D01*
X149296333Y-89960819D02*
X149915380Y-89960819D01*
X149915380Y-89960819D02*
X149582047Y-90341771D01*
X149582047Y-90341771D02*
X149724904Y-90341771D01*
X149724904Y-90341771D02*
X149820142Y-90389390D01*
X149820142Y-90389390D02*
X149867761Y-90437009D01*
X149867761Y-90437009D02*
X149915380Y-90532247D01*
X149915380Y-90532247D02*
X149915380Y-90770342D01*
X149915380Y-90770342D02*
X149867761Y-90865580D01*
X149867761Y-90865580D02*
X149820142Y-90913200D01*
X149820142Y-90913200D02*
X149724904Y-90960819D01*
X149724904Y-90960819D02*
X149439190Y-90960819D01*
X149439190Y-90960819D02*
X149343952Y-90913200D01*
X149343952Y-90913200D02*
X149296333Y-90865580D01*
X163553355Y-119309599D02*
X163553355Y-120119122D01*
X163553355Y-120119122D02*
X163600974Y-120214360D01*
X163600974Y-120214360D02*
X163648593Y-120261980D01*
X163648593Y-120261980D02*
X163743831Y-120309599D01*
X163743831Y-120309599D02*
X163934307Y-120309599D01*
X163934307Y-120309599D02*
X164029545Y-120261980D01*
X164029545Y-120261980D02*
X164077164Y-120214360D01*
X164077164Y-120214360D02*
X164124783Y-120119122D01*
X164124783Y-120119122D02*
X164124783Y-119309599D01*
X165077164Y-119309599D02*
X164600974Y-119309599D01*
X164600974Y-119309599D02*
X164553355Y-119785789D01*
X164553355Y-119785789D02*
X164600974Y-119738170D01*
X164600974Y-119738170D02*
X164696212Y-119690551D01*
X164696212Y-119690551D02*
X164934307Y-119690551D01*
X164934307Y-119690551D02*
X165029545Y-119738170D01*
X165029545Y-119738170D02*
X165077164Y-119785789D01*
X165077164Y-119785789D02*
X165124783Y-119881027D01*
X165124783Y-119881027D02*
X165124783Y-120119122D01*
X165124783Y-120119122D02*
X165077164Y-120214360D01*
X165077164Y-120214360D02*
X165029545Y-120261980D01*
X165029545Y-120261980D02*
X164934307Y-120309599D01*
X164934307Y-120309599D02*
X164696212Y-120309599D01*
X164696212Y-120309599D02*
X164600974Y-120261980D01*
X164600974Y-120261980D02*
X164553355Y-120214360D01*
X102063593Y-102464599D02*
X101730260Y-101988408D01*
X101492165Y-102464599D02*
X101492165Y-101464599D01*
X101492165Y-101464599D02*
X101873117Y-101464599D01*
X101873117Y-101464599D02*
X101968355Y-101512218D01*
X101968355Y-101512218D02*
X102015974Y-101559837D01*
X102015974Y-101559837D02*
X102063593Y-101655075D01*
X102063593Y-101655075D02*
X102063593Y-101797932D01*
X102063593Y-101797932D02*
X102015974Y-101893170D01*
X102015974Y-101893170D02*
X101968355Y-101940789D01*
X101968355Y-101940789D02*
X101873117Y-101988408D01*
X101873117Y-101988408D02*
X101492165Y-101988408D01*
X102539784Y-102464599D02*
X102730260Y-102464599D01*
X102730260Y-102464599D02*
X102825498Y-102416980D01*
X102825498Y-102416980D02*
X102873117Y-102369360D01*
X102873117Y-102369360D02*
X102968355Y-102226503D01*
X102968355Y-102226503D02*
X103015974Y-102036027D01*
X103015974Y-102036027D02*
X103015974Y-101655075D01*
X103015974Y-101655075D02*
X102968355Y-101559837D01*
X102968355Y-101559837D02*
X102920736Y-101512218D01*
X102920736Y-101512218D02*
X102825498Y-101464599D01*
X102825498Y-101464599D02*
X102635022Y-101464599D01*
X102635022Y-101464599D02*
X102539784Y-101512218D01*
X102539784Y-101512218D02*
X102492165Y-101559837D01*
X102492165Y-101559837D02*
X102444546Y-101655075D01*
X102444546Y-101655075D02*
X102444546Y-101893170D01*
X102444546Y-101893170D02*
X102492165Y-101988408D01*
X102492165Y-101988408D02*
X102539784Y-102036027D01*
X102539784Y-102036027D02*
X102635022Y-102083646D01*
X102635022Y-102083646D02*
X102825498Y-102083646D01*
X102825498Y-102083646D02*
X102920736Y-102036027D01*
X102920736Y-102036027D02*
X102968355Y-101988408D01*
X102968355Y-101988408D02*
X103015974Y-101893170D01*
X102063593Y-96564599D02*
X101730260Y-96088408D01*
X101492165Y-96564599D02*
X101492165Y-95564599D01*
X101492165Y-95564599D02*
X101873117Y-95564599D01*
X101873117Y-95564599D02*
X101968355Y-95612218D01*
X101968355Y-95612218D02*
X102015974Y-95659837D01*
X102015974Y-95659837D02*
X102063593Y-95755075D01*
X102063593Y-95755075D02*
X102063593Y-95897932D01*
X102063593Y-95897932D02*
X102015974Y-95993170D01*
X102015974Y-95993170D02*
X101968355Y-96040789D01*
X101968355Y-96040789D02*
X101873117Y-96088408D01*
X101873117Y-96088408D02*
X101492165Y-96088408D01*
X102396927Y-95564599D02*
X103063593Y-95564599D01*
X103063593Y-95564599D02*
X102635022Y-96564599D01*
X105997402Y-96564599D02*
X105664069Y-96088408D01*
X105425974Y-96564599D02*
X105425974Y-95564599D01*
X105425974Y-95564599D02*
X105806926Y-95564599D01*
X105806926Y-95564599D02*
X105902164Y-95612218D01*
X105902164Y-95612218D02*
X105949783Y-95659837D01*
X105949783Y-95659837D02*
X105997402Y-95755075D01*
X105997402Y-95755075D02*
X105997402Y-95897932D01*
X105997402Y-95897932D02*
X105949783Y-95993170D01*
X105949783Y-95993170D02*
X105902164Y-96040789D01*
X105902164Y-96040789D02*
X105806926Y-96088408D01*
X105806926Y-96088408D02*
X105425974Y-96088408D01*
X106949783Y-96564599D02*
X106378355Y-96564599D01*
X106664069Y-96564599D02*
X106664069Y-95564599D01*
X106664069Y-95564599D02*
X106568831Y-95707456D01*
X106568831Y-95707456D02*
X106473593Y-95802694D01*
X106473593Y-95802694D02*
X106378355Y-95850313D01*
X107283117Y-95564599D02*
X107902164Y-95564599D01*
X107902164Y-95564599D02*
X107568831Y-95945551D01*
X107568831Y-95945551D02*
X107711688Y-95945551D01*
X107711688Y-95945551D02*
X107806926Y-95993170D01*
X107806926Y-95993170D02*
X107854545Y-96040789D01*
X107854545Y-96040789D02*
X107902164Y-96136027D01*
X107902164Y-96136027D02*
X107902164Y-96374122D01*
X107902164Y-96374122D02*
X107854545Y-96469360D01*
X107854545Y-96469360D02*
X107806926Y-96516980D01*
X107806926Y-96516980D02*
X107711688Y-96564599D01*
X107711688Y-96564599D02*
X107425974Y-96564599D01*
X107425974Y-96564599D02*
X107330736Y-96516980D01*
X107330736Y-96516980D02*
X107283117Y-96469360D01*
X105997402Y-108364599D02*
X105664069Y-107888408D01*
X105425974Y-108364599D02*
X105425974Y-107364599D01*
X105425974Y-107364599D02*
X105806926Y-107364599D01*
X105806926Y-107364599D02*
X105902164Y-107412218D01*
X105902164Y-107412218D02*
X105949783Y-107459837D01*
X105949783Y-107459837D02*
X105997402Y-107555075D01*
X105997402Y-107555075D02*
X105997402Y-107697932D01*
X105997402Y-107697932D02*
X105949783Y-107793170D01*
X105949783Y-107793170D02*
X105902164Y-107840789D01*
X105902164Y-107840789D02*
X105806926Y-107888408D01*
X105806926Y-107888408D02*
X105425974Y-107888408D01*
X106949783Y-108364599D02*
X106378355Y-108364599D01*
X106664069Y-108364599D02*
X106664069Y-107364599D01*
X106664069Y-107364599D02*
X106568831Y-107507456D01*
X106568831Y-107507456D02*
X106473593Y-107602694D01*
X106473593Y-107602694D02*
X106378355Y-107650313D01*
X107283117Y-107364599D02*
X107949783Y-107364599D01*
X107949783Y-107364599D02*
X107521212Y-108364599D01*
D11*
X140727165Y-110792199D02*
X140727165Y-109792199D01*
X140727165Y-109792199D02*
X140965260Y-109792199D01*
X140965260Y-109792199D02*
X141108117Y-109839818D01*
X141108117Y-109839818D02*
X141203355Y-109935056D01*
X141203355Y-109935056D02*
X141250974Y-110030294D01*
X141250974Y-110030294D02*
X141298593Y-110220770D01*
X141298593Y-110220770D02*
X141298593Y-110363627D01*
X141298593Y-110363627D02*
X141250974Y-110554103D01*
X141250974Y-110554103D02*
X141203355Y-110649341D01*
X141203355Y-110649341D02*
X141108117Y-110744580D01*
X141108117Y-110744580D02*
X140965260Y-110792199D01*
X140965260Y-110792199D02*
X140727165Y-110792199D01*
X142203355Y-109792199D02*
X141727165Y-109792199D01*
X141727165Y-109792199D02*
X141679546Y-110268389D01*
X141679546Y-110268389D02*
X141727165Y-110220770D01*
X141727165Y-110220770D02*
X141822403Y-110173151D01*
X141822403Y-110173151D02*
X142060498Y-110173151D01*
X142060498Y-110173151D02*
X142155736Y-110220770D01*
X142155736Y-110220770D02*
X142203355Y-110268389D01*
X142203355Y-110268389D02*
X142250974Y-110363627D01*
X142250974Y-110363627D02*
X142250974Y-110601722D01*
X142250974Y-110601722D02*
X142203355Y-110696960D01*
X142203355Y-110696960D02*
X142155736Y-110744580D01*
X142155736Y-110744580D02*
X142060498Y-110792199D01*
X142060498Y-110792199D02*
X141822403Y-110792199D01*
X141822403Y-110792199D02*
X141727165Y-110744580D01*
X141727165Y-110744580D02*
X141679546Y-110696960D01*
D10*
X102063593Y-99514599D02*
X101730260Y-99038408D01*
X101492165Y-99514599D02*
X101492165Y-98514599D01*
X101492165Y-98514599D02*
X101873117Y-98514599D01*
X101873117Y-98514599D02*
X101968355Y-98562218D01*
X101968355Y-98562218D02*
X102015974Y-98609837D01*
X102015974Y-98609837D02*
X102063593Y-98705075D01*
X102063593Y-98705075D02*
X102063593Y-98847932D01*
X102063593Y-98847932D02*
X102015974Y-98943170D01*
X102015974Y-98943170D02*
X101968355Y-98990789D01*
X101968355Y-98990789D02*
X101873117Y-99038408D01*
X101873117Y-99038408D02*
X101492165Y-99038408D01*
X102635022Y-98943170D02*
X102539784Y-98895551D01*
X102539784Y-98895551D02*
X102492165Y-98847932D01*
X102492165Y-98847932D02*
X102444546Y-98752694D01*
X102444546Y-98752694D02*
X102444546Y-98705075D01*
X102444546Y-98705075D02*
X102492165Y-98609837D01*
X102492165Y-98609837D02*
X102539784Y-98562218D01*
X102539784Y-98562218D02*
X102635022Y-98514599D01*
X102635022Y-98514599D02*
X102825498Y-98514599D01*
X102825498Y-98514599D02*
X102920736Y-98562218D01*
X102920736Y-98562218D02*
X102968355Y-98609837D01*
X102968355Y-98609837D02*
X103015974Y-98705075D01*
X103015974Y-98705075D02*
X103015974Y-98752694D01*
X103015974Y-98752694D02*
X102968355Y-98847932D01*
X102968355Y-98847932D02*
X102920736Y-98895551D01*
X102920736Y-98895551D02*
X102825498Y-98943170D01*
X102825498Y-98943170D02*
X102635022Y-98943170D01*
X102635022Y-98943170D02*
X102539784Y-98990789D01*
X102539784Y-98990789D02*
X102492165Y-99038408D01*
X102492165Y-99038408D02*
X102444546Y-99133646D01*
X102444546Y-99133646D02*
X102444546Y-99324122D01*
X102444546Y-99324122D02*
X102492165Y-99419360D01*
X102492165Y-99419360D02*
X102539784Y-99466980D01*
X102539784Y-99466980D02*
X102635022Y-99514599D01*
X102635022Y-99514599D02*
X102825498Y-99514599D01*
X102825498Y-99514599D02*
X102920736Y-99466980D01*
X102920736Y-99466980D02*
X102968355Y-99419360D01*
X102968355Y-99419360D02*
X103015974Y-99324122D01*
X103015974Y-99324122D02*
X103015974Y-99133646D01*
X103015974Y-99133646D02*
X102968355Y-99038408D01*
X102968355Y-99038408D02*
X102920736Y-98990789D01*
X102920736Y-98990789D02*
X102825498Y-98943170D01*
D11*
X140727165Y-99792199D02*
X140727165Y-98792199D01*
X140727165Y-98792199D02*
X140965260Y-98792199D01*
X140965260Y-98792199D02*
X141108117Y-98839818D01*
X141108117Y-98839818D02*
X141203355Y-98935056D01*
X141203355Y-98935056D02*
X141250974Y-99030294D01*
X141250974Y-99030294D02*
X141298593Y-99220770D01*
X141298593Y-99220770D02*
X141298593Y-99363627D01*
X141298593Y-99363627D02*
X141250974Y-99554103D01*
X141250974Y-99554103D02*
X141203355Y-99649341D01*
X141203355Y-99649341D02*
X141108117Y-99744580D01*
X141108117Y-99744580D02*
X140965260Y-99792199D01*
X140965260Y-99792199D02*
X140727165Y-99792199D01*
X142250974Y-99792199D02*
X141679546Y-99792199D01*
X141965260Y-99792199D02*
X141965260Y-98792199D01*
X141965260Y-98792199D02*
X141870022Y-98935056D01*
X141870022Y-98935056D02*
X141774784Y-99030294D01*
X141774784Y-99030294D02*
X141679546Y-99077913D01*
D10*
X119723593Y-105499360D02*
X119675974Y-105546980D01*
X119675974Y-105546980D02*
X119533117Y-105594599D01*
X119533117Y-105594599D02*
X119437879Y-105594599D01*
X119437879Y-105594599D02*
X119295022Y-105546980D01*
X119295022Y-105546980D02*
X119199784Y-105451741D01*
X119199784Y-105451741D02*
X119152165Y-105356503D01*
X119152165Y-105356503D02*
X119104546Y-105166027D01*
X119104546Y-105166027D02*
X119104546Y-105023170D01*
X119104546Y-105023170D02*
X119152165Y-104832694D01*
X119152165Y-104832694D02*
X119199784Y-104737456D01*
X119199784Y-104737456D02*
X119295022Y-104642218D01*
X119295022Y-104642218D02*
X119437879Y-104594599D01*
X119437879Y-104594599D02*
X119533117Y-104594599D01*
X119533117Y-104594599D02*
X119675974Y-104642218D01*
X119675974Y-104642218D02*
X119723593Y-104689837D01*
X120580736Y-104927932D02*
X120580736Y-105594599D01*
X120342641Y-104546980D02*
X120104546Y-105261265D01*
X120104546Y-105261265D02*
X120723593Y-105261265D01*
X110407402Y-99514599D02*
X110074069Y-99038408D01*
X109835974Y-99514599D02*
X109835974Y-98514599D01*
X109835974Y-98514599D02*
X110216926Y-98514599D01*
X110216926Y-98514599D02*
X110312164Y-98562218D01*
X110312164Y-98562218D02*
X110359783Y-98609837D01*
X110359783Y-98609837D02*
X110407402Y-98705075D01*
X110407402Y-98705075D02*
X110407402Y-98847932D01*
X110407402Y-98847932D02*
X110359783Y-98943170D01*
X110359783Y-98943170D02*
X110312164Y-98990789D01*
X110312164Y-98990789D02*
X110216926Y-99038408D01*
X110216926Y-99038408D02*
X109835974Y-99038408D01*
X110788355Y-98609837D02*
X110835974Y-98562218D01*
X110835974Y-98562218D02*
X110931212Y-98514599D01*
X110931212Y-98514599D02*
X111169307Y-98514599D01*
X111169307Y-98514599D02*
X111264545Y-98562218D01*
X111264545Y-98562218D02*
X111312164Y-98609837D01*
X111312164Y-98609837D02*
X111359783Y-98705075D01*
X111359783Y-98705075D02*
X111359783Y-98800313D01*
X111359783Y-98800313D02*
X111312164Y-98943170D01*
X111312164Y-98943170D02*
X110740736Y-99514599D01*
X110740736Y-99514599D02*
X111359783Y-99514599D01*
X111978831Y-98514599D02*
X112074069Y-98514599D01*
X112074069Y-98514599D02*
X112169307Y-98562218D01*
X112169307Y-98562218D02*
X112216926Y-98609837D01*
X112216926Y-98609837D02*
X112264545Y-98705075D01*
X112264545Y-98705075D02*
X112312164Y-98895551D01*
X112312164Y-98895551D02*
X112312164Y-99133646D01*
X112312164Y-99133646D02*
X112264545Y-99324122D01*
X112264545Y-99324122D02*
X112216926Y-99419360D01*
X112216926Y-99419360D02*
X112169307Y-99466980D01*
X112169307Y-99466980D02*
X112074069Y-99514599D01*
X112074069Y-99514599D02*
X111978831Y-99514599D01*
X111978831Y-99514599D02*
X111883593Y-99466980D01*
X111883593Y-99466980D02*
X111835974Y-99419360D01*
X111835974Y-99419360D02*
X111788355Y-99324122D01*
X111788355Y-99324122D02*
X111740736Y-99133646D01*
X111740736Y-99133646D02*
X111740736Y-98895551D01*
X111740736Y-98895551D02*
X111788355Y-98705075D01*
X111788355Y-98705075D02*
X111835974Y-98609837D01*
X111835974Y-98609837D02*
X111883593Y-98562218D01*
X111883593Y-98562218D02*
X111978831Y-98514599D01*
X119723593Y-102489360D02*
X119675974Y-102536980D01*
X119675974Y-102536980D02*
X119533117Y-102584599D01*
X119533117Y-102584599D02*
X119437879Y-102584599D01*
X119437879Y-102584599D02*
X119295022Y-102536980D01*
X119295022Y-102536980D02*
X119199784Y-102441741D01*
X119199784Y-102441741D02*
X119152165Y-102346503D01*
X119152165Y-102346503D02*
X119104546Y-102156027D01*
X119104546Y-102156027D02*
X119104546Y-102013170D01*
X119104546Y-102013170D02*
X119152165Y-101822694D01*
X119152165Y-101822694D02*
X119199784Y-101727456D01*
X119199784Y-101727456D02*
X119295022Y-101632218D01*
X119295022Y-101632218D02*
X119437879Y-101584599D01*
X119437879Y-101584599D02*
X119533117Y-101584599D01*
X119533117Y-101584599D02*
X119675974Y-101632218D01*
X119675974Y-101632218D02*
X119723593Y-101679837D01*
X120056927Y-101584599D02*
X120675974Y-101584599D01*
X120675974Y-101584599D02*
X120342641Y-101965551D01*
X120342641Y-101965551D02*
X120485498Y-101965551D01*
X120485498Y-101965551D02*
X120580736Y-102013170D01*
X120580736Y-102013170D02*
X120628355Y-102060789D01*
X120628355Y-102060789D02*
X120675974Y-102156027D01*
X120675974Y-102156027D02*
X120675974Y-102394122D01*
X120675974Y-102394122D02*
X120628355Y-102489360D01*
X120628355Y-102489360D02*
X120580736Y-102536980D01*
X120580736Y-102536980D02*
X120485498Y-102584599D01*
X120485498Y-102584599D02*
X120199784Y-102584599D01*
X120199784Y-102584599D02*
X120104546Y-102536980D01*
X120104546Y-102536980D02*
X120056927Y-102489360D01*
X105997402Y-99514599D02*
X105664069Y-99038408D01*
X105425974Y-99514599D02*
X105425974Y-98514599D01*
X105425974Y-98514599D02*
X105806926Y-98514599D01*
X105806926Y-98514599D02*
X105902164Y-98562218D01*
X105902164Y-98562218D02*
X105949783Y-98609837D01*
X105949783Y-98609837D02*
X105997402Y-98705075D01*
X105997402Y-98705075D02*
X105997402Y-98847932D01*
X105997402Y-98847932D02*
X105949783Y-98943170D01*
X105949783Y-98943170D02*
X105902164Y-98990789D01*
X105902164Y-98990789D02*
X105806926Y-99038408D01*
X105806926Y-99038408D02*
X105425974Y-99038408D01*
X106949783Y-99514599D02*
X106378355Y-99514599D01*
X106664069Y-99514599D02*
X106664069Y-98514599D01*
X106664069Y-98514599D02*
X106568831Y-98657456D01*
X106568831Y-98657456D02*
X106473593Y-98752694D01*
X106473593Y-98752694D02*
X106378355Y-98800313D01*
X107806926Y-98847932D02*
X107806926Y-99514599D01*
X107568831Y-98466980D02*
X107330736Y-99181265D01*
X107330736Y-99181265D02*
X107949783Y-99181265D01*
X110096926Y-113354599D02*
X110096926Y-114068884D01*
X110096926Y-114068884D02*
X110049307Y-114211741D01*
X110049307Y-114211741D02*
X109954069Y-114306980D01*
X109954069Y-114306980D02*
X109811212Y-114354599D01*
X109811212Y-114354599D02*
X109715974Y-114354599D01*
X110525498Y-113449837D02*
X110573117Y-113402218D01*
X110573117Y-113402218D02*
X110668355Y-113354599D01*
X110668355Y-113354599D02*
X110906450Y-113354599D01*
X110906450Y-113354599D02*
X111001688Y-113402218D01*
X111001688Y-113402218D02*
X111049307Y-113449837D01*
X111049307Y-113449837D02*
X111096926Y-113545075D01*
X111096926Y-113545075D02*
X111096926Y-113640313D01*
X111096926Y-113640313D02*
X111049307Y-113783170D01*
X111049307Y-113783170D02*
X110477879Y-114354599D01*
X110477879Y-114354599D02*
X111096926Y-114354599D01*
X124173593Y-99479360D02*
X124125974Y-99526980D01*
X124125974Y-99526980D02*
X123983117Y-99574599D01*
X123983117Y-99574599D02*
X123887879Y-99574599D01*
X123887879Y-99574599D02*
X123745022Y-99526980D01*
X123745022Y-99526980D02*
X123649784Y-99431741D01*
X123649784Y-99431741D02*
X123602165Y-99336503D01*
X123602165Y-99336503D02*
X123554546Y-99146027D01*
X123554546Y-99146027D02*
X123554546Y-99003170D01*
X123554546Y-99003170D02*
X123602165Y-98812694D01*
X123602165Y-98812694D02*
X123649784Y-98717456D01*
X123649784Y-98717456D02*
X123745022Y-98622218D01*
X123745022Y-98622218D02*
X123887879Y-98574599D01*
X123887879Y-98574599D02*
X123983117Y-98574599D01*
X123983117Y-98574599D02*
X124125974Y-98622218D01*
X124125974Y-98622218D02*
X124173593Y-98669837D01*
X124649784Y-99574599D02*
X124840260Y-99574599D01*
X124840260Y-99574599D02*
X124935498Y-99526980D01*
X124935498Y-99526980D02*
X124983117Y-99479360D01*
X124983117Y-99479360D02*
X125078355Y-99336503D01*
X125078355Y-99336503D02*
X125125974Y-99146027D01*
X125125974Y-99146027D02*
X125125974Y-98765075D01*
X125125974Y-98765075D02*
X125078355Y-98669837D01*
X125078355Y-98669837D02*
X125030736Y-98622218D01*
X125030736Y-98622218D02*
X124935498Y-98574599D01*
X124935498Y-98574599D02*
X124745022Y-98574599D01*
X124745022Y-98574599D02*
X124649784Y-98622218D01*
X124649784Y-98622218D02*
X124602165Y-98669837D01*
X124602165Y-98669837D02*
X124554546Y-98765075D01*
X124554546Y-98765075D02*
X124554546Y-99003170D01*
X124554546Y-99003170D02*
X124602165Y-99098408D01*
X124602165Y-99098408D02*
X124649784Y-99146027D01*
X124649784Y-99146027D02*
X124745022Y-99193646D01*
X124745022Y-99193646D02*
X124935498Y-99193646D01*
X124935498Y-99193646D02*
X125030736Y-99146027D01*
X125030736Y-99146027D02*
X125078355Y-99098408D01*
X125078355Y-99098408D02*
X125125974Y-99003170D01*
X114817402Y-105414599D02*
X114484069Y-104938408D01*
X114245974Y-105414599D02*
X114245974Y-104414599D01*
X114245974Y-104414599D02*
X114626926Y-104414599D01*
X114626926Y-104414599D02*
X114722164Y-104462218D01*
X114722164Y-104462218D02*
X114769783Y-104509837D01*
X114769783Y-104509837D02*
X114817402Y-104605075D01*
X114817402Y-104605075D02*
X114817402Y-104747932D01*
X114817402Y-104747932D02*
X114769783Y-104843170D01*
X114769783Y-104843170D02*
X114722164Y-104890789D01*
X114722164Y-104890789D02*
X114626926Y-104938408D01*
X114626926Y-104938408D02*
X114245974Y-104938408D01*
X115150736Y-104414599D02*
X115769783Y-104414599D01*
X115769783Y-104414599D02*
X115436450Y-104795551D01*
X115436450Y-104795551D02*
X115579307Y-104795551D01*
X115579307Y-104795551D02*
X115674545Y-104843170D01*
X115674545Y-104843170D02*
X115722164Y-104890789D01*
X115722164Y-104890789D02*
X115769783Y-104986027D01*
X115769783Y-104986027D02*
X115769783Y-105224122D01*
X115769783Y-105224122D02*
X115722164Y-105319360D01*
X115722164Y-105319360D02*
X115674545Y-105366980D01*
X115674545Y-105366980D02*
X115579307Y-105414599D01*
X115579307Y-105414599D02*
X115293593Y-105414599D01*
X115293593Y-105414599D02*
X115198355Y-105366980D01*
X115198355Y-105366980D02*
X115150736Y-105319360D01*
X116722164Y-105414599D02*
X116150736Y-105414599D01*
X116436450Y-105414599D02*
X116436450Y-104414599D01*
X116436450Y-104414599D02*
X116341212Y-104557456D01*
X116341212Y-104557456D02*
X116245974Y-104652694D01*
X116245974Y-104652694D02*
X116150736Y-104700313D01*
X105997402Y-102464599D02*
X105664069Y-101988408D01*
X105425974Y-102464599D02*
X105425974Y-101464599D01*
X105425974Y-101464599D02*
X105806926Y-101464599D01*
X105806926Y-101464599D02*
X105902164Y-101512218D01*
X105902164Y-101512218D02*
X105949783Y-101559837D01*
X105949783Y-101559837D02*
X105997402Y-101655075D01*
X105997402Y-101655075D02*
X105997402Y-101797932D01*
X105997402Y-101797932D02*
X105949783Y-101893170D01*
X105949783Y-101893170D02*
X105902164Y-101940789D01*
X105902164Y-101940789D02*
X105806926Y-101988408D01*
X105806926Y-101988408D02*
X105425974Y-101988408D01*
X106949783Y-102464599D02*
X106378355Y-102464599D01*
X106664069Y-102464599D02*
X106664069Y-101464599D01*
X106664069Y-101464599D02*
X106568831Y-101607456D01*
X106568831Y-101607456D02*
X106473593Y-101702694D01*
X106473593Y-101702694D02*
X106378355Y-101750313D01*
X107854545Y-101464599D02*
X107378355Y-101464599D01*
X107378355Y-101464599D02*
X107330736Y-101940789D01*
X107330736Y-101940789D02*
X107378355Y-101893170D01*
X107378355Y-101893170D02*
X107473593Y-101845551D01*
X107473593Y-101845551D02*
X107711688Y-101845551D01*
X107711688Y-101845551D02*
X107806926Y-101893170D01*
X107806926Y-101893170D02*
X107854545Y-101940789D01*
X107854545Y-101940789D02*
X107902164Y-102036027D01*
X107902164Y-102036027D02*
X107902164Y-102274122D01*
X107902164Y-102274122D02*
X107854545Y-102369360D01*
X107854545Y-102369360D02*
X107806926Y-102416980D01*
X107806926Y-102416980D02*
X107711688Y-102464599D01*
X107711688Y-102464599D02*
X107473593Y-102464599D01*
X107473593Y-102464599D02*
X107378355Y-102416980D01*
X107378355Y-102416980D02*
X107330736Y-102369360D01*
X119723593Y-111519360D02*
X119675974Y-111566980D01*
X119675974Y-111566980D02*
X119533117Y-111614599D01*
X119533117Y-111614599D02*
X119437879Y-111614599D01*
X119437879Y-111614599D02*
X119295022Y-111566980D01*
X119295022Y-111566980D02*
X119199784Y-111471741D01*
X119199784Y-111471741D02*
X119152165Y-111376503D01*
X119152165Y-111376503D02*
X119104546Y-111186027D01*
X119104546Y-111186027D02*
X119104546Y-111043170D01*
X119104546Y-111043170D02*
X119152165Y-110852694D01*
X119152165Y-110852694D02*
X119199784Y-110757456D01*
X119199784Y-110757456D02*
X119295022Y-110662218D01*
X119295022Y-110662218D02*
X119437879Y-110614599D01*
X119437879Y-110614599D02*
X119533117Y-110614599D01*
X119533117Y-110614599D02*
X119675974Y-110662218D01*
X119675974Y-110662218D02*
X119723593Y-110709837D01*
X120580736Y-110614599D02*
X120390260Y-110614599D01*
X120390260Y-110614599D02*
X120295022Y-110662218D01*
X120295022Y-110662218D02*
X120247403Y-110709837D01*
X120247403Y-110709837D02*
X120152165Y-110852694D01*
X120152165Y-110852694D02*
X120104546Y-111043170D01*
X120104546Y-111043170D02*
X120104546Y-111424122D01*
X120104546Y-111424122D02*
X120152165Y-111519360D01*
X120152165Y-111519360D02*
X120199784Y-111566980D01*
X120199784Y-111566980D02*
X120295022Y-111614599D01*
X120295022Y-111614599D02*
X120485498Y-111614599D01*
X120485498Y-111614599D02*
X120580736Y-111566980D01*
X120580736Y-111566980D02*
X120628355Y-111519360D01*
X120628355Y-111519360D02*
X120675974Y-111424122D01*
X120675974Y-111424122D02*
X120675974Y-111186027D01*
X120675974Y-111186027D02*
X120628355Y-111090789D01*
X120628355Y-111090789D02*
X120580736Y-111043170D01*
X120580736Y-111043170D02*
X120485498Y-110995551D01*
X120485498Y-110995551D02*
X120295022Y-110995551D01*
X120295022Y-110995551D02*
X120199784Y-111043170D01*
X120199784Y-111043170D02*
X120152165Y-111090789D01*
X120152165Y-111090789D02*
X120104546Y-111186027D01*
X105997402Y-105414599D02*
X105664069Y-104938408D01*
X105425974Y-105414599D02*
X105425974Y-104414599D01*
X105425974Y-104414599D02*
X105806926Y-104414599D01*
X105806926Y-104414599D02*
X105902164Y-104462218D01*
X105902164Y-104462218D02*
X105949783Y-104509837D01*
X105949783Y-104509837D02*
X105997402Y-104605075D01*
X105997402Y-104605075D02*
X105997402Y-104747932D01*
X105997402Y-104747932D02*
X105949783Y-104843170D01*
X105949783Y-104843170D02*
X105902164Y-104890789D01*
X105902164Y-104890789D02*
X105806926Y-104938408D01*
X105806926Y-104938408D02*
X105425974Y-104938408D01*
X106949783Y-105414599D02*
X106378355Y-105414599D01*
X106664069Y-105414599D02*
X106664069Y-104414599D01*
X106664069Y-104414599D02*
X106568831Y-104557456D01*
X106568831Y-104557456D02*
X106473593Y-104652694D01*
X106473593Y-104652694D02*
X106378355Y-104700313D01*
X107806926Y-104414599D02*
X107616450Y-104414599D01*
X107616450Y-104414599D02*
X107521212Y-104462218D01*
X107521212Y-104462218D02*
X107473593Y-104509837D01*
X107473593Y-104509837D02*
X107378355Y-104652694D01*
X107378355Y-104652694D02*
X107330736Y-104843170D01*
X107330736Y-104843170D02*
X107330736Y-105224122D01*
X107330736Y-105224122D02*
X107378355Y-105319360D01*
X107378355Y-105319360D02*
X107425974Y-105366980D01*
X107425974Y-105366980D02*
X107521212Y-105414599D01*
X107521212Y-105414599D02*
X107711688Y-105414599D01*
X107711688Y-105414599D02*
X107806926Y-105366980D01*
X107806926Y-105366980D02*
X107854545Y-105319360D01*
X107854545Y-105319360D02*
X107902164Y-105224122D01*
X107902164Y-105224122D02*
X107902164Y-104986027D01*
X107902164Y-104986027D02*
X107854545Y-104890789D01*
X107854545Y-104890789D02*
X107806926Y-104843170D01*
X107806926Y-104843170D02*
X107711688Y-104795551D01*
X107711688Y-104795551D02*
X107521212Y-104795551D01*
X107521212Y-104795551D02*
X107425974Y-104843170D01*
X107425974Y-104843170D02*
X107378355Y-104890789D01*
X107378355Y-104890789D02*
X107330736Y-104986027D01*
X97653593Y-105414599D02*
X97320260Y-104938408D01*
X97082165Y-105414599D02*
X97082165Y-104414599D01*
X97082165Y-104414599D02*
X97463117Y-104414599D01*
X97463117Y-104414599D02*
X97558355Y-104462218D01*
X97558355Y-104462218D02*
X97605974Y-104509837D01*
X97605974Y-104509837D02*
X97653593Y-104605075D01*
X97653593Y-104605075D02*
X97653593Y-104747932D01*
X97653593Y-104747932D02*
X97605974Y-104843170D01*
X97605974Y-104843170D02*
X97558355Y-104890789D01*
X97558355Y-104890789D02*
X97463117Y-104938408D01*
X97463117Y-104938408D02*
X97082165Y-104938408D01*
X98510736Y-104747932D02*
X98510736Y-105414599D01*
X98272641Y-104366980D02*
X98034546Y-105081265D01*
X98034546Y-105081265D02*
X98653593Y-105081265D01*
X101587402Y-105414599D02*
X101254069Y-104938408D01*
X101015974Y-105414599D02*
X101015974Y-104414599D01*
X101015974Y-104414599D02*
X101396926Y-104414599D01*
X101396926Y-104414599D02*
X101492164Y-104462218D01*
X101492164Y-104462218D02*
X101539783Y-104509837D01*
X101539783Y-104509837D02*
X101587402Y-104605075D01*
X101587402Y-104605075D02*
X101587402Y-104747932D01*
X101587402Y-104747932D02*
X101539783Y-104843170D01*
X101539783Y-104843170D02*
X101492164Y-104890789D01*
X101492164Y-104890789D02*
X101396926Y-104938408D01*
X101396926Y-104938408D02*
X101015974Y-104938408D01*
X102539783Y-105414599D02*
X101968355Y-105414599D01*
X102254069Y-105414599D02*
X102254069Y-104414599D01*
X102254069Y-104414599D02*
X102158831Y-104557456D01*
X102158831Y-104557456D02*
X102063593Y-104652694D01*
X102063593Y-104652694D02*
X101968355Y-104700313D01*
X103158831Y-104414599D02*
X103254069Y-104414599D01*
X103254069Y-104414599D02*
X103349307Y-104462218D01*
X103349307Y-104462218D02*
X103396926Y-104509837D01*
X103396926Y-104509837D02*
X103444545Y-104605075D01*
X103444545Y-104605075D02*
X103492164Y-104795551D01*
X103492164Y-104795551D02*
X103492164Y-105033646D01*
X103492164Y-105033646D02*
X103444545Y-105224122D01*
X103444545Y-105224122D02*
X103396926Y-105319360D01*
X103396926Y-105319360D02*
X103349307Y-105366980D01*
X103349307Y-105366980D02*
X103254069Y-105414599D01*
X103254069Y-105414599D02*
X103158831Y-105414599D01*
X103158831Y-105414599D02*
X103063593Y-105366980D01*
X103063593Y-105366980D02*
X103015974Y-105319360D01*
X103015974Y-105319360D02*
X102968355Y-105224122D01*
X102968355Y-105224122D02*
X102920736Y-105033646D01*
X102920736Y-105033646D02*
X102920736Y-104795551D01*
X102920736Y-104795551D02*
X102968355Y-104605075D01*
X102968355Y-104605075D02*
X103015974Y-104509837D01*
X103015974Y-104509837D02*
X103063593Y-104462218D01*
X103063593Y-104462218D02*
X103158831Y-104414599D01*
X124173593Y-96469360D02*
X124125974Y-96516980D01*
X124125974Y-96516980D02*
X123983117Y-96564599D01*
X123983117Y-96564599D02*
X123887879Y-96564599D01*
X123887879Y-96564599D02*
X123745022Y-96516980D01*
X123745022Y-96516980D02*
X123649784Y-96421741D01*
X123649784Y-96421741D02*
X123602165Y-96326503D01*
X123602165Y-96326503D02*
X123554546Y-96136027D01*
X123554546Y-96136027D02*
X123554546Y-95993170D01*
X123554546Y-95993170D02*
X123602165Y-95802694D01*
X123602165Y-95802694D02*
X123649784Y-95707456D01*
X123649784Y-95707456D02*
X123745022Y-95612218D01*
X123745022Y-95612218D02*
X123887879Y-95564599D01*
X123887879Y-95564599D02*
X123983117Y-95564599D01*
X123983117Y-95564599D02*
X124125974Y-95612218D01*
X124125974Y-95612218D02*
X124173593Y-95659837D01*
X124745022Y-95993170D02*
X124649784Y-95945551D01*
X124649784Y-95945551D02*
X124602165Y-95897932D01*
X124602165Y-95897932D02*
X124554546Y-95802694D01*
X124554546Y-95802694D02*
X124554546Y-95755075D01*
X124554546Y-95755075D02*
X124602165Y-95659837D01*
X124602165Y-95659837D02*
X124649784Y-95612218D01*
X124649784Y-95612218D02*
X124745022Y-95564599D01*
X124745022Y-95564599D02*
X124935498Y-95564599D01*
X124935498Y-95564599D02*
X125030736Y-95612218D01*
X125030736Y-95612218D02*
X125078355Y-95659837D01*
X125078355Y-95659837D02*
X125125974Y-95755075D01*
X125125974Y-95755075D02*
X125125974Y-95802694D01*
X125125974Y-95802694D02*
X125078355Y-95897932D01*
X125078355Y-95897932D02*
X125030736Y-95945551D01*
X125030736Y-95945551D02*
X124935498Y-95993170D01*
X124935498Y-95993170D02*
X124745022Y-95993170D01*
X124745022Y-95993170D02*
X124649784Y-96040789D01*
X124649784Y-96040789D02*
X124602165Y-96088408D01*
X124602165Y-96088408D02*
X124554546Y-96183646D01*
X124554546Y-96183646D02*
X124554546Y-96374122D01*
X124554546Y-96374122D02*
X124602165Y-96469360D01*
X124602165Y-96469360D02*
X124649784Y-96516980D01*
X124649784Y-96516980D02*
X124745022Y-96564599D01*
X124745022Y-96564599D02*
X124935498Y-96564599D01*
X124935498Y-96564599D02*
X125030736Y-96516980D01*
X125030736Y-96516980D02*
X125078355Y-96469360D01*
X125078355Y-96469360D02*
X125125974Y-96374122D01*
X125125974Y-96374122D02*
X125125974Y-96183646D01*
X125125974Y-96183646D02*
X125078355Y-96088408D01*
X125078355Y-96088408D02*
X125030736Y-96040789D01*
X125030736Y-96040789D02*
X124935498Y-95993170D01*
X123697402Y-105499360D02*
X123649783Y-105546980D01*
X123649783Y-105546980D02*
X123506926Y-105594599D01*
X123506926Y-105594599D02*
X123411688Y-105594599D01*
X123411688Y-105594599D02*
X123268831Y-105546980D01*
X123268831Y-105546980D02*
X123173593Y-105451741D01*
X123173593Y-105451741D02*
X123125974Y-105356503D01*
X123125974Y-105356503D02*
X123078355Y-105166027D01*
X123078355Y-105166027D02*
X123078355Y-105023170D01*
X123078355Y-105023170D02*
X123125974Y-104832694D01*
X123125974Y-104832694D02*
X123173593Y-104737456D01*
X123173593Y-104737456D02*
X123268831Y-104642218D01*
X123268831Y-104642218D02*
X123411688Y-104594599D01*
X123411688Y-104594599D02*
X123506926Y-104594599D01*
X123506926Y-104594599D02*
X123649783Y-104642218D01*
X123649783Y-104642218D02*
X123697402Y-104689837D01*
X124649783Y-105594599D02*
X124078355Y-105594599D01*
X124364069Y-105594599D02*
X124364069Y-104594599D01*
X124364069Y-104594599D02*
X124268831Y-104737456D01*
X124268831Y-104737456D02*
X124173593Y-104832694D01*
X124173593Y-104832694D02*
X124078355Y-104880313D01*
X125602164Y-105594599D02*
X125030736Y-105594599D01*
X125316450Y-105594599D02*
X125316450Y-104594599D01*
X125316450Y-104594599D02*
X125221212Y-104737456D01*
X125221212Y-104737456D02*
X125125974Y-104832694D01*
X125125974Y-104832694D02*
X125030736Y-104880313D01*
X128147402Y-105499360D02*
X128099783Y-105546980D01*
X128099783Y-105546980D02*
X127956926Y-105594599D01*
X127956926Y-105594599D02*
X127861688Y-105594599D01*
X127861688Y-105594599D02*
X127718831Y-105546980D01*
X127718831Y-105546980D02*
X127623593Y-105451741D01*
X127623593Y-105451741D02*
X127575974Y-105356503D01*
X127575974Y-105356503D02*
X127528355Y-105166027D01*
X127528355Y-105166027D02*
X127528355Y-105023170D01*
X127528355Y-105023170D02*
X127575974Y-104832694D01*
X127575974Y-104832694D02*
X127623593Y-104737456D01*
X127623593Y-104737456D02*
X127718831Y-104642218D01*
X127718831Y-104642218D02*
X127861688Y-104594599D01*
X127861688Y-104594599D02*
X127956926Y-104594599D01*
X127956926Y-104594599D02*
X128099783Y-104642218D01*
X128099783Y-104642218D02*
X128147402Y-104689837D01*
X129099783Y-105594599D02*
X128528355Y-105594599D01*
X128814069Y-105594599D02*
X128814069Y-104594599D01*
X128814069Y-104594599D02*
X128718831Y-104737456D01*
X128718831Y-104737456D02*
X128623593Y-104832694D01*
X128623593Y-104832694D02*
X128528355Y-104880313D01*
X129671212Y-105023170D02*
X129575974Y-104975551D01*
X129575974Y-104975551D02*
X129528355Y-104927932D01*
X129528355Y-104927932D02*
X129480736Y-104832694D01*
X129480736Y-104832694D02*
X129480736Y-104785075D01*
X129480736Y-104785075D02*
X129528355Y-104689837D01*
X129528355Y-104689837D02*
X129575974Y-104642218D01*
X129575974Y-104642218D02*
X129671212Y-104594599D01*
X129671212Y-104594599D02*
X129861688Y-104594599D01*
X129861688Y-104594599D02*
X129956926Y-104642218D01*
X129956926Y-104642218D02*
X130004545Y-104689837D01*
X130004545Y-104689837D02*
X130052164Y-104785075D01*
X130052164Y-104785075D02*
X130052164Y-104832694D01*
X130052164Y-104832694D02*
X130004545Y-104927932D01*
X130004545Y-104927932D02*
X129956926Y-104975551D01*
X129956926Y-104975551D02*
X129861688Y-105023170D01*
X129861688Y-105023170D02*
X129671212Y-105023170D01*
X129671212Y-105023170D02*
X129575974Y-105070789D01*
X129575974Y-105070789D02*
X129528355Y-105118408D01*
X129528355Y-105118408D02*
X129480736Y-105213646D01*
X129480736Y-105213646D02*
X129480736Y-105404122D01*
X129480736Y-105404122D02*
X129528355Y-105499360D01*
X129528355Y-105499360D02*
X129575974Y-105546980D01*
X129575974Y-105546980D02*
X129671212Y-105594599D01*
X129671212Y-105594599D02*
X129861688Y-105594599D01*
X129861688Y-105594599D02*
X129956926Y-105546980D01*
X129956926Y-105546980D02*
X130004545Y-105499360D01*
X130004545Y-105499360D02*
X130052164Y-105404122D01*
X130052164Y-105404122D02*
X130052164Y-105213646D01*
X130052164Y-105213646D02*
X130004545Y-105118408D01*
X130004545Y-105118408D02*
X129956926Y-105070789D01*
X129956926Y-105070789D02*
X129861688Y-105023170D01*
X135340666Y-119701819D02*
X135340666Y-120416104D01*
X135340666Y-120416104D02*
X135293047Y-120558961D01*
X135293047Y-120558961D02*
X135197809Y-120654200D01*
X135197809Y-120654200D02*
X135054952Y-120701819D01*
X135054952Y-120701819D02*
X134959714Y-120701819D01*
X135816857Y-120701819D02*
X135816857Y-119701819D01*
X135816857Y-119701819D02*
X136197809Y-119701819D01*
X136197809Y-119701819D02*
X136293047Y-119749438D01*
X136293047Y-119749438D02*
X136340666Y-119797057D01*
X136340666Y-119797057D02*
X136388285Y-119892295D01*
X136388285Y-119892295D02*
X136388285Y-120035152D01*
X136388285Y-120035152D02*
X136340666Y-120130390D01*
X136340666Y-120130390D02*
X136293047Y-120178009D01*
X136293047Y-120178009D02*
X136197809Y-120225628D01*
X136197809Y-120225628D02*
X135816857Y-120225628D01*
X137340666Y-120701819D02*
X136769238Y-120701819D01*
X137054952Y-120701819D02*
X137054952Y-119701819D01*
X137054952Y-119701819D02*
X136959714Y-119844676D01*
X136959714Y-119844676D02*
X136864476Y-119939914D01*
X136864476Y-119939914D02*
X136769238Y-119987533D01*
X97653593Y-102464599D02*
X97320260Y-101988408D01*
X97082165Y-102464599D02*
X97082165Y-101464599D01*
X97082165Y-101464599D02*
X97463117Y-101464599D01*
X97463117Y-101464599D02*
X97558355Y-101512218D01*
X97558355Y-101512218D02*
X97605974Y-101559837D01*
X97605974Y-101559837D02*
X97653593Y-101655075D01*
X97653593Y-101655075D02*
X97653593Y-101797932D01*
X97653593Y-101797932D02*
X97605974Y-101893170D01*
X97605974Y-101893170D02*
X97558355Y-101940789D01*
X97558355Y-101940789D02*
X97463117Y-101988408D01*
X97463117Y-101988408D02*
X97082165Y-101988408D01*
X97986927Y-101464599D02*
X98605974Y-101464599D01*
X98605974Y-101464599D02*
X98272641Y-101845551D01*
X98272641Y-101845551D02*
X98415498Y-101845551D01*
X98415498Y-101845551D02*
X98510736Y-101893170D01*
X98510736Y-101893170D02*
X98558355Y-101940789D01*
X98558355Y-101940789D02*
X98605974Y-102036027D01*
X98605974Y-102036027D02*
X98605974Y-102274122D01*
X98605974Y-102274122D02*
X98558355Y-102369360D01*
X98558355Y-102369360D02*
X98510736Y-102416980D01*
X98510736Y-102416980D02*
X98415498Y-102464599D01*
X98415498Y-102464599D02*
X98129784Y-102464599D01*
X98129784Y-102464599D02*
X98034546Y-102416980D01*
X98034546Y-102416980D02*
X97986927Y-102369360D01*
X152466926Y-114810789D02*
X152133593Y-114810789D01*
X152133593Y-115334599D02*
X152133593Y-114334599D01*
X152133593Y-114334599D02*
X152609783Y-114334599D01*
X152943117Y-114429837D02*
X152990736Y-114382218D01*
X152990736Y-114382218D02*
X153085974Y-114334599D01*
X153085974Y-114334599D02*
X153324069Y-114334599D01*
X153324069Y-114334599D02*
X153419307Y-114382218D01*
X153419307Y-114382218D02*
X153466926Y-114429837D01*
X153466926Y-114429837D02*
X153514545Y-114525075D01*
X153514545Y-114525075D02*
X153514545Y-114620313D01*
X153514545Y-114620313D02*
X153466926Y-114763170D01*
X153466926Y-114763170D02*
X152895498Y-115334599D01*
X152895498Y-115334599D02*
X153514545Y-115334599D01*
X97653593Y-99514599D02*
X97320260Y-99038408D01*
X97082165Y-99514599D02*
X97082165Y-98514599D01*
X97082165Y-98514599D02*
X97463117Y-98514599D01*
X97463117Y-98514599D02*
X97558355Y-98562218D01*
X97558355Y-98562218D02*
X97605974Y-98609837D01*
X97605974Y-98609837D02*
X97653593Y-98705075D01*
X97653593Y-98705075D02*
X97653593Y-98847932D01*
X97653593Y-98847932D02*
X97605974Y-98943170D01*
X97605974Y-98943170D02*
X97558355Y-98990789D01*
X97558355Y-98990789D02*
X97463117Y-99038408D01*
X97463117Y-99038408D02*
X97082165Y-99038408D01*
X98034546Y-98609837D02*
X98082165Y-98562218D01*
X98082165Y-98562218D02*
X98177403Y-98514599D01*
X98177403Y-98514599D02*
X98415498Y-98514599D01*
X98415498Y-98514599D02*
X98510736Y-98562218D01*
X98510736Y-98562218D02*
X98558355Y-98609837D01*
X98558355Y-98609837D02*
X98605974Y-98705075D01*
X98605974Y-98705075D02*
X98605974Y-98800313D01*
X98605974Y-98800313D02*
X98558355Y-98943170D01*
X98558355Y-98943170D02*
X97986927Y-99514599D01*
X97986927Y-99514599D02*
X98605974Y-99514599D01*
X133670285Y-62963009D02*
X133813142Y-63010628D01*
X133813142Y-63010628D02*
X133860761Y-63058247D01*
X133860761Y-63058247D02*
X133908380Y-63153485D01*
X133908380Y-63153485D02*
X133908380Y-63296342D01*
X133908380Y-63296342D02*
X133860761Y-63391580D01*
X133860761Y-63391580D02*
X133813142Y-63439200D01*
X133813142Y-63439200D02*
X133717904Y-63486819D01*
X133717904Y-63486819D02*
X133336952Y-63486819D01*
X133336952Y-63486819D02*
X133336952Y-62486819D01*
X133336952Y-62486819D02*
X133670285Y-62486819D01*
X133670285Y-62486819D02*
X133765523Y-62534438D01*
X133765523Y-62534438D02*
X133813142Y-62582057D01*
X133813142Y-62582057D02*
X133860761Y-62677295D01*
X133860761Y-62677295D02*
X133860761Y-62772533D01*
X133860761Y-62772533D02*
X133813142Y-62867771D01*
X133813142Y-62867771D02*
X133765523Y-62915390D01*
X133765523Y-62915390D02*
X133670285Y-62963009D01*
X133670285Y-62963009D02*
X133336952Y-62963009D01*
X134194095Y-62486819D02*
X134765523Y-62486819D01*
X134479809Y-63486819D02*
X134479809Y-62486819D01*
X135622666Y-63486819D02*
X135051238Y-63486819D01*
X135336952Y-63486819D02*
X135336952Y-62486819D01*
X135336952Y-62486819D02*
X135241714Y-62629676D01*
X135241714Y-62629676D02*
X135146476Y-62724914D01*
X135146476Y-62724914D02*
X135051238Y-62772533D01*
D12*
X156554095Y-75374933D02*
X158077905Y-75374933D01*
X156554095Y-56074933D02*
X158077905Y-56074933D01*
X110773996Y-75340489D02*
X112297806Y-75340489D01*
X111535901Y-76102394D02*
X111535901Y-74578584D01*
X110773996Y-56040489D02*
X112297806Y-56040489D01*
X111535901Y-56802394D02*
X111535901Y-55278584D01*
D10*
X114817402Y-99514599D02*
X114484069Y-99038408D01*
X114245974Y-99514599D02*
X114245974Y-98514599D01*
X114245974Y-98514599D02*
X114626926Y-98514599D01*
X114626926Y-98514599D02*
X114722164Y-98562218D01*
X114722164Y-98562218D02*
X114769783Y-98609837D01*
X114769783Y-98609837D02*
X114817402Y-98705075D01*
X114817402Y-98705075D02*
X114817402Y-98847932D01*
X114817402Y-98847932D02*
X114769783Y-98943170D01*
X114769783Y-98943170D02*
X114722164Y-98990789D01*
X114722164Y-98990789D02*
X114626926Y-99038408D01*
X114626926Y-99038408D02*
X114245974Y-99038408D01*
X115198355Y-98609837D02*
X115245974Y-98562218D01*
X115245974Y-98562218D02*
X115341212Y-98514599D01*
X115341212Y-98514599D02*
X115579307Y-98514599D01*
X115579307Y-98514599D02*
X115674545Y-98562218D01*
X115674545Y-98562218D02*
X115722164Y-98609837D01*
X115722164Y-98609837D02*
X115769783Y-98705075D01*
X115769783Y-98705075D02*
X115769783Y-98800313D01*
X115769783Y-98800313D02*
X115722164Y-98943170D01*
X115722164Y-98943170D02*
X115150736Y-99514599D01*
X115150736Y-99514599D02*
X115769783Y-99514599D01*
X116103117Y-98514599D02*
X116769783Y-98514599D01*
X116769783Y-98514599D02*
X116341212Y-99514599D01*
X123697402Y-102489360D02*
X123649783Y-102536980D01*
X123649783Y-102536980D02*
X123506926Y-102584599D01*
X123506926Y-102584599D02*
X123411688Y-102584599D01*
X123411688Y-102584599D02*
X123268831Y-102536980D01*
X123268831Y-102536980D02*
X123173593Y-102441741D01*
X123173593Y-102441741D02*
X123125974Y-102346503D01*
X123125974Y-102346503D02*
X123078355Y-102156027D01*
X123078355Y-102156027D02*
X123078355Y-102013170D01*
X123078355Y-102013170D02*
X123125974Y-101822694D01*
X123125974Y-101822694D02*
X123173593Y-101727456D01*
X123173593Y-101727456D02*
X123268831Y-101632218D01*
X123268831Y-101632218D02*
X123411688Y-101584599D01*
X123411688Y-101584599D02*
X123506926Y-101584599D01*
X123506926Y-101584599D02*
X123649783Y-101632218D01*
X123649783Y-101632218D02*
X123697402Y-101679837D01*
X124649783Y-102584599D02*
X124078355Y-102584599D01*
X124364069Y-102584599D02*
X124364069Y-101584599D01*
X124364069Y-101584599D02*
X124268831Y-101727456D01*
X124268831Y-101727456D02*
X124173593Y-101822694D01*
X124173593Y-101822694D02*
X124078355Y-101870313D01*
X125268831Y-101584599D02*
X125364069Y-101584599D01*
X125364069Y-101584599D02*
X125459307Y-101632218D01*
X125459307Y-101632218D02*
X125506926Y-101679837D01*
X125506926Y-101679837D02*
X125554545Y-101775075D01*
X125554545Y-101775075D02*
X125602164Y-101965551D01*
X125602164Y-101965551D02*
X125602164Y-102203646D01*
X125602164Y-102203646D02*
X125554545Y-102394122D01*
X125554545Y-102394122D02*
X125506926Y-102489360D01*
X125506926Y-102489360D02*
X125459307Y-102536980D01*
X125459307Y-102536980D02*
X125364069Y-102584599D01*
X125364069Y-102584599D02*
X125268831Y-102584599D01*
X125268831Y-102584599D02*
X125173593Y-102536980D01*
X125173593Y-102536980D02*
X125125974Y-102489360D01*
X125125974Y-102489360D02*
X125078355Y-102394122D01*
X125078355Y-102394122D02*
X125030736Y-102203646D01*
X125030736Y-102203646D02*
X125030736Y-101965551D01*
X125030736Y-101965551D02*
X125078355Y-101775075D01*
X125078355Y-101775075D02*
X125125974Y-101679837D01*
X125125974Y-101679837D02*
X125173593Y-101632218D01*
X125173593Y-101632218D02*
X125268831Y-101584599D01*
X123697402Y-114529360D02*
X123649783Y-114576980D01*
X123649783Y-114576980D02*
X123506926Y-114624599D01*
X123506926Y-114624599D02*
X123411688Y-114624599D01*
X123411688Y-114624599D02*
X123268831Y-114576980D01*
X123268831Y-114576980D02*
X123173593Y-114481741D01*
X123173593Y-114481741D02*
X123125974Y-114386503D01*
X123125974Y-114386503D02*
X123078355Y-114196027D01*
X123078355Y-114196027D02*
X123078355Y-114053170D01*
X123078355Y-114053170D02*
X123125974Y-113862694D01*
X123125974Y-113862694D02*
X123173593Y-113767456D01*
X123173593Y-113767456D02*
X123268831Y-113672218D01*
X123268831Y-113672218D02*
X123411688Y-113624599D01*
X123411688Y-113624599D02*
X123506926Y-113624599D01*
X123506926Y-113624599D02*
X123649783Y-113672218D01*
X123649783Y-113672218D02*
X123697402Y-113719837D01*
X124649783Y-114624599D02*
X124078355Y-114624599D01*
X124364069Y-114624599D02*
X124364069Y-113624599D01*
X124364069Y-113624599D02*
X124268831Y-113767456D01*
X124268831Y-113767456D02*
X124173593Y-113862694D01*
X124173593Y-113862694D02*
X124078355Y-113910313D01*
X125506926Y-113957932D02*
X125506926Y-114624599D01*
X125268831Y-113576980D02*
X125030736Y-114291265D01*
X125030736Y-114291265D02*
X125649783Y-114291265D01*
X119723593Y-96469360D02*
X119675974Y-96516980D01*
X119675974Y-96516980D02*
X119533117Y-96564599D01*
X119533117Y-96564599D02*
X119437879Y-96564599D01*
X119437879Y-96564599D02*
X119295022Y-96516980D01*
X119295022Y-96516980D02*
X119199784Y-96421741D01*
X119199784Y-96421741D02*
X119152165Y-96326503D01*
X119152165Y-96326503D02*
X119104546Y-96136027D01*
X119104546Y-96136027D02*
X119104546Y-95993170D01*
X119104546Y-95993170D02*
X119152165Y-95802694D01*
X119152165Y-95802694D02*
X119199784Y-95707456D01*
X119199784Y-95707456D02*
X119295022Y-95612218D01*
X119295022Y-95612218D02*
X119437879Y-95564599D01*
X119437879Y-95564599D02*
X119533117Y-95564599D01*
X119533117Y-95564599D02*
X119675974Y-95612218D01*
X119675974Y-95612218D02*
X119723593Y-95659837D01*
X120675974Y-96564599D02*
X120104546Y-96564599D01*
X120390260Y-96564599D02*
X120390260Y-95564599D01*
X120390260Y-95564599D02*
X120295022Y-95707456D01*
X120295022Y-95707456D02*
X120199784Y-95802694D01*
X120199784Y-95802694D02*
X120104546Y-95850313D01*
X117040819Y-132353333D02*
X117755104Y-132353333D01*
X117755104Y-132353333D02*
X117897961Y-132400952D01*
X117897961Y-132400952D02*
X117993200Y-132496190D01*
X117993200Y-132496190D02*
X118040819Y-132639047D01*
X118040819Y-132639047D02*
X118040819Y-132734285D01*
X117040819Y-131972380D02*
X117040819Y-131353333D01*
X117040819Y-131353333D02*
X117421771Y-131686666D01*
X117421771Y-131686666D02*
X117421771Y-131543809D01*
X117421771Y-131543809D02*
X117469390Y-131448571D01*
X117469390Y-131448571D02*
X117517009Y-131400952D01*
X117517009Y-131400952D02*
X117612247Y-131353333D01*
X117612247Y-131353333D02*
X117850342Y-131353333D01*
X117850342Y-131353333D02*
X117945580Y-131400952D01*
X117945580Y-131400952D02*
X117993200Y-131448571D01*
X117993200Y-131448571D02*
X118040819Y-131543809D01*
X118040819Y-131543809D02*
X118040819Y-131829523D01*
X118040819Y-131829523D02*
X117993200Y-131924761D01*
X117993200Y-131924761D02*
X117945580Y-131972380D01*
D11*
X144227165Y-99792199D02*
X144227165Y-98792199D01*
X144227165Y-98792199D02*
X144465260Y-98792199D01*
X144465260Y-98792199D02*
X144608117Y-98839818D01*
X144608117Y-98839818D02*
X144703355Y-98935056D01*
X144703355Y-98935056D02*
X144750974Y-99030294D01*
X144750974Y-99030294D02*
X144798593Y-99220770D01*
X144798593Y-99220770D02*
X144798593Y-99363627D01*
X144798593Y-99363627D02*
X144750974Y-99554103D01*
X144750974Y-99554103D02*
X144703355Y-99649341D01*
X144703355Y-99649341D02*
X144608117Y-99744580D01*
X144608117Y-99744580D02*
X144465260Y-99792199D01*
X144465260Y-99792199D02*
X144227165Y-99792199D01*
X145655736Y-98792199D02*
X145465260Y-98792199D01*
X145465260Y-98792199D02*
X145370022Y-98839818D01*
X145370022Y-98839818D02*
X145322403Y-98887437D01*
X145322403Y-98887437D02*
X145227165Y-99030294D01*
X145227165Y-99030294D02*
X145179546Y-99220770D01*
X145179546Y-99220770D02*
X145179546Y-99601722D01*
X145179546Y-99601722D02*
X145227165Y-99696960D01*
X145227165Y-99696960D02*
X145274784Y-99744580D01*
X145274784Y-99744580D02*
X145370022Y-99792199D01*
X145370022Y-99792199D02*
X145560498Y-99792199D01*
X145560498Y-99792199D02*
X145655736Y-99744580D01*
X145655736Y-99744580D02*
X145703355Y-99696960D01*
X145703355Y-99696960D02*
X145750974Y-99601722D01*
X145750974Y-99601722D02*
X145750974Y-99363627D01*
X145750974Y-99363627D02*
X145703355Y-99268389D01*
X145703355Y-99268389D02*
X145655736Y-99220770D01*
X145655736Y-99220770D02*
X145560498Y-99173151D01*
X145560498Y-99173151D02*
X145370022Y-99173151D01*
X145370022Y-99173151D02*
X145274784Y-99220770D01*
X145274784Y-99220770D02*
X145227165Y-99268389D01*
X145227165Y-99268389D02*
X145179546Y-99363627D01*
D10*
X101587402Y-111314599D02*
X101254069Y-110838408D01*
X101015974Y-111314599D02*
X101015974Y-110314599D01*
X101015974Y-110314599D02*
X101396926Y-110314599D01*
X101396926Y-110314599D02*
X101492164Y-110362218D01*
X101492164Y-110362218D02*
X101539783Y-110409837D01*
X101539783Y-110409837D02*
X101587402Y-110505075D01*
X101587402Y-110505075D02*
X101587402Y-110647932D01*
X101587402Y-110647932D02*
X101539783Y-110743170D01*
X101539783Y-110743170D02*
X101492164Y-110790789D01*
X101492164Y-110790789D02*
X101396926Y-110838408D01*
X101396926Y-110838408D02*
X101015974Y-110838408D01*
X102539783Y-111314599D02*
X101968355Y-111314599D01*
X102254069Y-111314599D02*
X102254069Y-110314599D01*
X102254069Y-110314599D02*
X102158831Y-110457456D01*
X102158831Y-110457456D02*
X102063593Y-110552694D01*
X102063593Y-110552694D02*
X101968355Y-110600313D01*
X102920736Y-110409837D02*
X102968355Y-110362218D01*
X102968355Y-110362218D02*
X103063593Y-110314599D01*
X103063593Y-110314599D02*
X103301688Y-110314599D01*
X103301688Y-110314599D02*
X103396926Y-110362218D01*
X103396926Y-110362218D02*
X103444545Y-110409837D01*
X103444545Y-110409837D02*
X103492164Y-110505075D01*
X103492164Y-110505075D02*
X103492164Y-110600313D01*
X103492164Y-110600313D02*
X103444545Y-110743170D01*
X103444545Y-110743170D02*
X102873117Y-111314599D01*
X102873117Y-111314599D02*
X103492164Y-111314599D01*
D11*
X144227165Y-102542199D02*
X144227165Y-101542199D01*
X144227165Y-101542199D02*
X144465260Y-101542199D01*
X144465260Y-101542199D02*
X144608117Y-101589818D01*
X144608117Y-101589818D02*
X144703355Y-101685056D01*
X144703355Y-101685056D02*
X144750974Y-101780294D01*
X144750974Y-101780294D02*
X144798593Y-101970770D01*
X144798593Y-101970770D02*
X144798593Y-102113627D01*
X144798593Y-102113627D02*
X144750974Y-102304103D01*
X144750974Y-102304103D02*
X144703355Y-102399341D01*
X144703355Y-102399341D02*
X144608117Y-102494580D01*
X144608117Y-102494580D02*
X144465260Y-102542199D01*
X144465260Y-102542199D02*
X144227165Y-102542199D01*
X145131927Y-101542199D02*
X145798593Y-101542199D01*
X145798593Y-101542199D02*
X145370022Y-102542199D01*
D10*
X123697402Y-108509360D02*
X123649783Y-108556980D01*
X123649783Y-108556980D02*
X123506926Y-108604599D01*
X123506926Y-108604599D02*
X123411688Y-108604599D01*
X123411688Y-108604599D02*
X123268831Y-108556980D01*
X123268831Y-108556980D02*
X123173593Y-108461741D01*
X123173593Y-108461741D02*
X123125974Y-108366503D01*
X123125974Y-108366503D02*
X123078355Y-108176027D01*
X123078355Y-108176027D02*
X123078355Y-108033170D01*
X123078355Y-108033170D02*
X123125974Y-107842694D01*
X123125974Y-107842694D02*
X123173593Y-107747456D01*
X123173593Y-107747456D02*
X123268831Y-107652218D01*
X123268831Y-107652218D02*
X123411688Y-107604599D01*
X123411688Y-107604599D02*
X123506926Y-107604599D01*
X123506926Y-107604599D02*
X123649783Y-107652218D01*
X123649783Y-107652218D02*
X123697402Y-107699837D01*
X124649783Y-108604599D02*
X124078355Y-108604599D01*
X124364069Y-108604599D02*
X124364069Y-107604599D01*
X124364069Y-107604599D02*
X124268831Y-107747456D01*
X124268831Y-107747456D02*
X124173593Y-107842694D01*
X124173593Y-107842694D02*
X124078355Y-107890313D01*
X125030736Y-107699837D02*
X125078355Y-107652218D01*
X125078355Y-107652218D02*
X125173593Y-107604599D01*
X125173593Y-107604599D02*
X125411688Y-107604599D01*
X125411688Y-107604599D02*
X125506926Y-107652218D01*
X125506926Y-107652218D02*
X125554545Y-107699837D01*
X125554545Y-107699837D02*
X125602164Y-107795075D01*
X125602164Y-107795075D02*
X125602164Y-107890313D01*
X125602164Y-107890313D02*
X125554545Y-108033170D01*
X125554545Y-108033170D02*
X124983117Y-108604599D01*
X124983117Y-108604599D02*
X125602164Y-108604599D01*
X162383593Y-96564599D02*
X161907403Y-96564599D01*
X161907403Y-96564599D02*
X161907403Y-95564599D01*
X163240736Y-96564599D02*
X162669308Y-96564599D01*
X162955022Y-96564599D02*
X162955022Y-95564599D01*
X162955022Y-95564599D02*
X162859784Y-95707456D01*
X162859784Y-95707456D02*
X162764546Y-95802694D01*
X162764546Y-95802694D02*
X162669308Y-95850313D01*
D13*
%TO.C,Q3*%
X132680260Y-101399780D02*
X134500260Y-101399780D01*
X132680260Y-101449780D02*
X132680260Y-101399780D01*
X132680260Y-103349780D02*
X132680260Y-102569780D01*
X132680260Y-104519780D02*
X132680260Y-104469780D01*
X134500260Y-101399780D02*
X134500260Y-102399780D01*
X134500260Y-103519780D02*
X134500260Y-104519780D01*
X134500260Y-104519780D02*
X132680260Y-104519780D01*
X132380260Y-102909780D02*
X131900260Y-102909780D01*
X132140260Y-102579780D01*
X132380260Y-102909780D01*
G36*
X132380260Y-102909780D02*
G01*
X131900260Y-102909780D01*
X132140260Y-102579780D01*
X132380260Y-102909780D01*
G37*
%TO.C,C13*%
X124079008Y-112104780D02*
X124601512Y-112104780D01*
X124079008Y-113574780D02*
X124601512Y-113574780D01*
%TO.C,R5*%
X97593196Y-108824780D02*
X98047324Y-108824780D01*
X97593196Y-110294780D02*
X98047324Y-110294780D01*
%TO.C,F1*%
X147825260Y-109164780D02*
X147825260Y-109624780D01*
X147825260Y-109164780D02*
X157775260Y-109164780D01*
X147825260Y-113954780D02*
X147825260Y-114414780D01*
X147825260Y-114414780D02*
X157775260Y-114414780D01*
X157775260Y-109164780D02*
X157775260Y-109624780D01*
X157775260Y-114414780D02*
X157775260Y-113954780D01*
D11*
%TO.C,SW1*%
X140752000Y-112566000D02*
X140752000Y-114046000D01*
X140752000Y-112566000D02*
X145252000Y-112566000D01*
X141902000Y-115946000D02*
X144102000Y-115946000D01*
X142002000Y-116771000D02*
X142002000Y-115146000D01*
X142002000Y-116796000D02*
X144002000Y-116796000D01*
X144002000Y-116771000D02*
X144002000Y-115146000D01*
X145252000Y-112566000D02*
X145252000Y-114046000D01*
D13*
%TO.C,Q2*%
X132680260Y-96949780D02*
X134500260Y-96949780D01*
X132680260Y-96999780D02*
X132680260Y-96949780D01*
X132680260Y-98899780D02*
X132680260Y-98119780D01*
X132680260Y-100069780D02*
X132680260Y-100019780D01*
X134500260Y-96949780D02*
X134500260Y-97949780D01*
X134500260Y-99069780D02*
X134500260Y-100069780D01*
X134500260Y-100069780D02*
X132680260Y-100069780D01*
X132380260Y-98459780D02*
X131900260Y-98459780D01*
X132140260Y-98129780D01*
X132380260Y-98459780D01*
G36*
X132380260Y-98459780D02*
G01*
X131900260Y-98459780D01*
X132140260Y-98129780D01*
X132380260Y-98459780D01*
G37*
%TO.C,L2*%
X162289008Y-100799780D02*
X162811512Y-100799780D01*
X162289008Y-103019780D02*
X162811512Y-103019780D01*
D11*
%TO.C,D2*%
X140265260Y-100184780D02*
X142665260Y-100184780D01*
X140965260Y-99584780D02*
X140765260Y-100184780D01*
D12*
X141265260Y-101184780D02*
X141265260Y-100384780D01*
D11*
X141965260Y-99584780D02*
X140965260Y-99584780D01*
X142165260Y-100184780D02*
X141965260Y-99584780D01*
D13*
%TO.C,R18*%
X106413196Y-111774780D02*
X106867324Y-111774780D01*
X106413196Y-113244780D02*
X106867324Y-113244780D01*
D11*
%TO.C,D9*%
X143765260Y-105684780D02*
X146165260Y-105684780D01*
X144465260Y-105084780D02*
X144265260Y-105684780D01*
D12*
X144765260Y-106684780D02*
X144765260Y-105884780D01*
D11*
X145465260Y-105084780D02*
X144465260Y-105084780D01*
X145665260Y-105684780D02*
X145465260Y-105084780D01*
%TO.C,D4*%
X140265260Y-105684780D02*
X142665260Y-105684780D01*
X140965260Y-105084780D02*
X140765260Y-105684780D01*
D12*
X141265260Y-106684780D02*
X141265260Y-105884780D01*
D11*
X141965260Y-105084780D02*
X140965260Y-105084780D01*
X142165260Y-105684780D02*
X141965260Y-105084780D01*
D13*
%TO.C,TH1*%
X115233196Y-108824780D02*
X115687324Y-108824780D01*
X115233196Y-110294780D02*
X115687324Y-110294780D01*
D11*
%TO.C,D10*%
X143765260Y-108434780D02*
X146165260Y-108434780D01*
X144465260Y-107834780D02*
X144265260Y-108434780D01*
D12*
X144765260Y-109434780D02*
X144765260Y-108634780D01*
D11*
X145465260Y-107834780D02*
X144465260Y-107834780D01*
X145665260Y-108434780D02*
X145465260Y-107834780D01*
D13*
%TO.C,R6*%
X97593196Y-111774780D02*
X98047324Y-111774780D01*
X97593196Y-113244780D02*
X98047324Y-113244780D01*
D11*
%TO.C,D3*%
X140265260Y-102934780D02*
X142665260Y-102934780D01*
X140965260Y-102334780D02*
X140765260Y-102934780D01*
D12*
X141265260Y-103934780D02*
X141265260Y-103134780D01*
D11*
X141965260Y-102334780D02*
X140965260Y-102334780D01*
X142165260Y-102934780D02*
X141965260Y-102334780D01*
D13*
%TO.C,R21*%
X110823196Y-102924780D02*
X111277324Y-102924780D01*
X110823196Y-104394780D02*
X111277324Y-104394780D01*
%TO.C,U3*%
X161380260Y-120954780D02*
X160330260Y-120954780D01*
X161380260Y-123274780D02*
X160080260Y-123274780D01*
X159970260Y-120954780D02*
X159690260Y-120954780D01*
X159970260Y-120674780D01*
X159970260Y-120954780D01*
G36*
X159970260Y-120954780D02*
G01*
X159690260Y-120954780D01*
X159970260Y-120674780D01*
X159970260Y-120954780D01*
G37*
%TO.C,R25*%
X115233196Y-97024780D02*
X115687324Y-97024780D01*
X115233196Y-98494780D02*
X115687324Y-98494780D01*
%TO.C,R26*%
X161063196Y-115949780D02*
X165417324Y-115949780D01*
X161063196Y-119369780D02*
X165417324Y-119369780D01*
%TO.C,Q5*%
X132680260Y-110299780D02*
X134500260Y-110299780D01*
X132680260Y-110349780D02*
X132680260Y-110299780D01*
X132680260Y-112249780D02*
X132680260Y-111469780D01*
X132680260Y-113419780D02*
X132680260Y-113369780D01*
X134500260Y-110299780D02*
X134500260Y-111299780D01*
X134500260Y-112419780D02*
X134500260Y-113419780D01*
X134500260Y-113419780D02*
X132680260Y-113419780D01*
X132380260Y-111809780D02*
X131900260Y-111809780D01*
X132140260Y-111479780D01*
X132380260Y-111809780D01*
G36*
X132380260Y-111809780D02*
G01*
X131900260Y-111809780D01*
X132140260Y-111479780D01*
X132380260Y-111809780D01*
G37*
%TO.C,R1*%
X97593196Y-97024780D02*
X98047324Y-97024780D01*
X97593196Y-98494780D02*
X98047324Y-98494780D01*
D11*
%TO.C,D8*%
X143765260Y-102934780D02*
X146165260Y-102934780D01*
X144465260Y-102334780D02*
X144265260Y-102934780D01*
D12*
X144765260Y-103934780D02*
X144765260Y-103134780D01*
D11*
X145465260Y-102334780D02*
X144465260Y-102334780D01*
X145665260Y-102934780D02*
X145465260Y-102334780D01*
D13*
%TO.C,C17*%
X128529008Y-103074780D02*
X129051512Y-103074780D01*
X128529008Y-104544780D02*
X129051512Y-104544780D01*
%TO.C,R23*%
X110823196Y-108824780D02*
X111277324Y-108824780D01*
X110823196Y-110294780D02*
X111277324Y-110294780D01*
%TO.C,C7*%
X119629008Y-115114780D02*
X120151512Y-115114780D01*
X119629008Y-116584780D02*
X120151512Y-116584780D01*
%TO.C,R24*%
X110823196Y-111774780D02*
X111277324Y-111774780D01*
X110823196Y-113244780D02*
X111277324Y-113244780D01*
%TO.C,C2*%
X119629008Y-100064780D02*
X120151512Y-100064780D01*
X119629008Y-101534780D02*
X120151512Y-101534780D01*
%TO.C,U2*%
X140490260Y-123209780D02*
X140490260Y-122709780D01*
X140990260Y-123209780D02*
X140490260Y-123209780D01*
X143390260Y-120149780D02*
X143890260Y-120149780D01*
X143400260Y-123209780D02*
X143900260Y-123209780D01*
X143890260Y-120149780D02*
X143890260Y-120649780D01*
X143900260Y-123209780D02*
X143900260Y-122709780D01*
D12*
X140600260Y-120149780D02*
G75*
G02*
X140400260Y-120149780I-100000J0D01*
G01*
X140400260Y-120149780D02*
G75*
G02*
X140600260Y-120149780I100000J0D01*
G01*
D13*
%TO.C,Q4*%
X132680260Y-105849780D02*
X134500260Y-105849780D01*
X132680260Y-105899780D02*
X132680260Y-105849780D01*
X132680260Y-107799780D02*
X132680260Y-107019780D01*
X132680260Y-108969780D02*
X132680260Y-108919780D01*
X134500260Y-105849780D02*
X134500260Y-106849780D01*
X134500260Y-107969780D02*
X134500260Y-108969780D01*
X134500260Y-108969780D02*
X132680260Y-108969780D01*
X132380260Y-107359780D02*
X131900260Y-107359780D01*
X132140260Y-107029780D01*
X132380260Y-107359780D01*
G36*
X132380260Y-107359780D02*
G01*
X131900260Y-107359780D01*
X132140260Y-107029780D01*
X132380260Y-107359780D01*
G37*
%TO.C,R11*%
X102003196Y-108824780D02*
X102457324Y-108824780D01*
X102003196Y-110294780D02*
X102457324Y-110294780D01*
%TO.C,Q1*%
X161770260Y-104449780D02*
X163290260Y-104449780D01*
X161770260Y-104499780D02*
X161770260Y-104449780D01*
X161770260Y-106399780D02*
X161770260Y-105619780D01*
X161770260Y-107569780D02*
X161770260Y-107519780D01*
X163290260Y-104449780D02*
X163290260Y-105449780D01*
X163290260Y-106569780D02*
X163290260Y-107569780D01*
X163290260Y-107569780D02*
X161770260Y-107569780D01*
X161470260Y-105959780D02*
X160990260Y-105959780D01*
X161230260Y-105629780D01*
X161470260Y-105959780D01*
G36*
X161470260Y-105959780D02*
G01*
X160990260Y-105959780D01*
X161230260Y-105629780D01*
X161470260Y-105959780D01*
G37*
%TO.C,C16*%
X128529008Y-100064780D02*
X129051512Y-100064780D01*
X128529008Y-101534780D02*
X129051512Y-101534780D01*
%TO.C,R30*%
X115233196Y-102924780D02*
X115687324Y-102924780D01*
X115233196Y-104394780D02*
X115687324Y-104394780D01*
D10*
%TO.C,U1*%
X119815260Y-118054780D02*
X119815260Y-118279780D01*
X119815260Y-118054780D02*
X124465260Y-118054780D01*
X119815260Y-118279780D02*
X118465260Y-118279780D01*
X119815260Y-123304780D02*
X119815260Y-123079780D01*
X119815260Y-123304780D02*
X124465260Y-123304780D01*
X124465260Y-118054780D02*
X124465260Y-118279780D01*
X124465260Y-123304780D02*
X124465260Y-123079780D01*
D12*
%TO.C,J1*%
X96450260Y-117439780D02*
X96450260Y-118689780D01*
X96450260Y-121409780D02*
X96450260Y-122689780D01*
X96450260Y-122689780D02*
X106030260Y-122689780D01*
X106030260Y-117439780D02*
X106030260Y-118689780D01*
X106030260Y-122689780D02*
X106030260Y-121409780D01*
D13*
%TO.C,TH2*%
X115233196Y-111774780D02*
X115687324Y-111774780D01*
X115233196Y-113244780D02*
X115687324Y-113244780D01*
%TO.C,C19*%
X128529008Y-109094780D02*
X129051512Y-109094780D01*
X128529008Y-110564780D02*
X129051512Y-110564780D01*
%TO.C,C5*%
X119629008Y-109094780D02*
X120151512Y-109094780D01*
X119629008Y-110564780D02*
X120151512Y-110564780D01*
%TO.C,R19*%
X110823196Y-97024780D02*
X111277324Y-97024780D01*
X110823196Y-98494780D02*
X111277324Y-98494780D01*
%TO.C,U4*%
X160950260Y-109324780D02*
X165570260Y-109324780D01*
X160950260Y-109524780D02*
X160950260Y-109324780D01*
X160950260Y-114544780D02*
X160950260Y-114344780D01*
X165570260Y-109324780D02*
X165570260Y-109524780D01*
X165570260Y-114344780D02*
X165570260Y-114544780D01*
X165570260Y-114544780D02*
X160950260Y-114544780D01*
X160310260Y-109524780D02*
X159970260Y-109054780D01*
X160650260Y-109054780D01*
X160310260Y-109524780D01*
G36*
X160310260Y-109524780D02*
G01*
X159970260Y-109054780D01*
X160650260Y-109054780D01*
X160310260Y-109524780D01*
G37*
%TO.C,C15*%
X128529008Y-97054780D02*
X129051512Y-97054780D01*
X128529008Y-98524780D02*
X129051512Y-98524780D01*
%TO.C,R22*%
X110823196Y-105874780D02*
X111277324Y-105874780D01*
X110823196Y-107344780D02*
X111277324Y-107344780D01*
%TO.C,U5*%
X163530260Y-122754780D02*
X165100260Y-122754780D01*
X163735260Y-120954780D02*
X165095260Y-120954780D01*
X163415260Y-120954780D02*
X163135260Y-120954780D01*
X163415260Y-120674780D01*
X163415260Y-120954780D01*
G36*
X163415260Y-120954780D02*
G01*
X163135260Y-120954780D01*
X163415260Y-120674780D01*
X163415260Y-120954780D01*
G37*
%TO.C,R9*%
X102003196Y-102924780D02*
X102457324Y-102924780D01*
X102003196Y-104394780D02*
X102457324Y-104394780D01*
%TO.C,R7*%
X102003196Y-97024780D02*
X102457324Y-97024780D01*
X102003196Y-98494780D02*
X102457324Y-98494780D01*
%TO.C,R13*%
X106413196Y-97024780D02*
X106867324Y-97024780D01*
X106413196Y-98494780D02*
X106867324Y-98494780D01*
%TO.C,R17*%
X106413196Y-108824780D02*
X106867324Y-108824780D01*
X106413196Y-110294780D02*
X106867324Y-110294780D01*
D11*
%TO.C,D5*%
X140265260Y-108434780D02*
X142665260Y-108434780D01*
X140965260Y-107834780D02*
X140765260Y-108434780D01*
D12*
X141265260Y-109434780D02*
X141265260Y-108634780D01*
D11*
X141965260Y-107834780D02*
X140965260Y-107834780D01*
X142165260Y-108434780D02*
X141965260Y-107834780D01*
D13*
%TO.C,R8*%
X102003196Y-99974780D02*
X102457324Y-99974780D01*
X102003196Y-101444780D02*
X102457324Y-101444780D01*
D11*
%TO.C,D1*%
X140265260Y-97434780D02*
X142665260Y-97434780D01*
X140965260Y-96834780D02*
X140765260Y-97434780D01*
D12*
X141265260Y-98434780D02*
X141265260Y-97634780D01*
D11*
X141965260Y-96834780D02*
X140965260Y-96834780D01*
X142165260Y-97434780D02*
X141965260Y-96834780D01*
D13*
%TO.C,C4*%
X119629008Y-106084780D02*
X120151512Y-106084780D01*
X119629008Y-107554780D02*
X120151512Y-107554780D01*
%TO.C,R20*%
X110823196Y-99974780D02*
X111277324Y-99974780D01*
X110823196Y-101444780D02*
X111277324Y-101444780D01*
%TO.C,C3*%
X119629008Y-103074780D02*
X120151512Y-103074780D01*
X119629008Y-104544780D02*
X120151512Y-104544780D01*
%TO.C,R14*%
X106413196Y-99974780D02*
X106867324Y-99974780D01*
X106413196Y-101444780D02*
X106867324Y-101444780D01*
%TO.C,J2*%
X107780260Y-114899780D02*
X109160260Y-114899780D01*
X107780260Y-116279780D02*
X107780260Y-114899780D01*
X107780260Y-117549780D02*
X107780260Y-122739780D01*
X107780260Y-117549780D02*
X110430260Y-117549780D01*
X107780260Y-122739780D02*
X113080260Y-122739780D01*
X110430260Y-114899780D02*
X113080260Y-114899780D01*
X110430260Y-117549780D02*
X110430260Y-114899780D01*
X113080260Y-114899780D02*
X113080260Y-122739780D01*
%TO.C,C9*%
X124079008Y-100064780D02*
X124601512Y-100064780D01*
X124079008Y-101534780D02*
X124601512Y-101534780D01*
%TO.C,R31*%
X115233196Y-105874780D02*
X115687324Y-105874780D01*
X115233196Y-107344780D02*
X115687324Y-107344780D01*
%TO.C,R15*%
X106413196Y-102924780D02*
X106867324Y-102924780D01*
X106413196Y-104394780D02*
X106867324Y-104394780D01*
%TO.C,C6*%
X119629008Y-112104780D02*
X120151512Y-112104780D01*
X119629008Y-113574780D02*
X120151512Y-113574780D01*
%TO.C,R16*%
X106413196Y-105874780D02*
X106867324Y-105874780D01*
X106413196Y-107344780D02*
X106867324Y-107344780D01*
%TO.C,R4*%
X97593196Y-105874780D02*
X98047324Y-105874780D01*
X97593196Y-107344780D02*
X98047324Y-107344780D01*
%TO.C,R10*%
X102003196Y-105874780D02*
X102457324Y-105874780D01*
X102003196Y-107344780D02*
X102457324Y-107344780D01*
%TO.C,C8*%
X124079008Y-97054780D02*
X124601512Y-97054780D01*
X124079008Y-98524780D02*
X124601512Y-98524780D01*
%TO.C,C11*%
X124079008Y-106084780D02*
X124601512Y-106084780D01*
X124079008Y-107554780D02*
X124601512Y-107554780D01*
%TO.C,C18*%
X128529008Y-106084780D02*
X129051512Y-106084780D01*
X128529008Y-107554780D02*
X129051512Y-107554780D01*
%TO.C,JP1*%
X134124000Y-122347000D02*
X134124000Y-121747000D01*
X134674000Y-123547000D02*
X135274000Y-123547000D01*
X134774000Y-121047000D02*
X137574000Y-121047000D01*
X134974000Y-123247000D02*
X134674000Y-123547000D01*
X134974000Y-123247000D02*
X135274000Y-123547000D01*
X137574000Y-123047000D02*
X134774000Y-123047000D01*
X138224000Y-121747000D02*
X138224000Y-122347000D01*
X134124000Y-121747000D02*
G75*
G02*
X134824000Y-121047000I699999J1D01*
G01*
X134824000Y-123047000D02*
G75*
G02*
X134124000Y-122347000I-1J699999D01*
G01*
X137524000Y-121047000D02*
G75*
G02*
X138224000Y-121747000I0J-700000D01*
G01*
X138224000Y-122347000D02*
G75*
G02*
X137524000Y-123047000I-700000J0D01*
G01*
%TO.C,R3*%
X97593196Y-102924780D02*
X98047324Y-102924780D01*
X97593196Y-104394780D02*
X98047324Y-104394780D01*
%TO.C,F2*%
X147825260Y-115754780D02*
X147825260Y-116214780D01*
X147825260Y-115754780D02*
X157775260Y-115754780D01*
X147825260Y-120544780D02*
X147825260Y-121004780D01*
X147825260Y-121004780D02*
X157775260Y-121004780D01*
X157775260Y-115754780D02*
X157775260Y-116214780D01*
X157775260Y-121004780D02*
X157775260Y-120544780D01*
%TO.C,R2*%
X97593196Y-99974780D02*
X98047324Y-99974780D01*
X97593196Y-101444780D02*
X98047324Y-101444780D01*
D14*
%TO.C,BT1*%
X95606000Y-45467000D02*
X173306000Y-45467000D01*
X95606000Y-85677000D02*
X95606000Y-45467000D01*
X173306000Y-45467000D02*
X173306000Y-85677000D01*
X173306000Y-85677000D02*
X95606000Y-85677000D01*
D13*
%TO.C,R27*%
X115233196Y-99974780D02*
X115687324Y-99974780D01*
X115233196Y-101444780D02*
X115687324Y-101444780D01*
%TO.C,C10*%
X124079008Y-103074780D02*
X124601512Y-103074780D01*
X124079008Y-104544780D02*
X124601512Y-104544780D01*
%TO.C,C14*%
X124079008Y-115114780D02*
X124601512Y-115114780D01*
X124079008Y-116584780D02*
X124601512Y-116584780D01*
%TO.C,C1*%
X119629008Y-97054780D02*
X120151512Y-97054780D01*
X119629008Y-98524780D02*
X120151512Y-98524780D01*
%TO.C,J3*%
X107266000Y-128712358D02*
X107266000Y-129025000D01*
X107266000Y-137785000D02*
X107266000Y-131785000D01*
X108126000Y-128712358D02*
X108126000Y-129025000D01*
X108126000Y-131785000D02*
X108126000Y-137785000D01*
X108126000Y-137785000D02*
X107266000Y-137785000D01*
X108966000Y-129025000D02*
X108966000Y-131785000D01*
X109806000Y-128712358D02*
X109806000Y-129025000D01*
X109806000Y-137785000D02*
X109806000Y-131785000D01*
X110666000Y-128712358D02*
X110666000Y-129025000D01*
X110666000Y-131785000D02*
X110666000Y-137785000D01*
X110666000Y-137785000D02*
X109806000Y-137785000D01*
X111506000Y-129025000D02*
X111506000Y-131785000D01*
X112346000Y-128712358D02*
X112346000Y-129025000D01*
X112346000Y-137785000D02*
X112346000Y-131785000D01*
X113206000Y-128712358D02*
X113206000Y-129025000D01*
X113206000Y-131785000D02*
X113206000Y-137785000D01*
X113206000Y-137785000D02*
X112346000Y-137785000D01*
X114046000Y-129025000D02*
X114046000Y-131785000D01*
X114886000Y-128795000D02*
X114886000Y-129025000D01*
X115316000Y-126365000D02*
X116586000Y-126365000D01*
X115746000Y-128795000D02*
X115746000Y-129025000D01*
X116586000Y-126365000D02*
X116586000Y-127635000D01*
X115746000Y-131785000D02*
X114886000Y-131785000D01*
X114886000Y-137785000D01*
X115746000Y-137785000D01*
X115746000Y-131785000D01*
G36*
X115746000Y-131785000D02*
G01*
X114886000Y-131785000D01*
X114886000Y-137785000D01*
X115746000Y-137785000D01*
X115746000Y-131785000D01*
G37*
X116696000Y-129025000D02*
X106316000Y-129025000D01*
X106316000Y-131785000D01*
X116696000Y-131785000D01*
X116696000Y-129025000D01*
D11*
%TO.C,D6*%
X143765260Y-97434780D02*
X146165260Y-97434780D01*
X144465260Y-96834780D02*
X144265260Y-97434780D01*
D12*
X144765260Y-98434780D02*
X144765260Y-97634780D01*
D11*
X145465260Y-96834780D02*
X144465260Y-96834780D01*
X145665260Y-97434780D02*
X145465260Y-96834780D01*
D13*
%TO.C,R12*%
X102003196Y-111774780D02*
X102457324Y-111774780D01*
X102003196Y-113244780D02*
X102457324Y-113244780D01*
D11*
%TO.C,D7*%
X143765260Y-100184780D02*
X146165260Y-100184780D01*
X144465260Y-99584780D02*
X144265260Y-100184780D01*
D12*
X144765260Y-101184780D02*
X144765260Y-100384780D01*
D11*
X145465260Y-99584780D02*
X144465260Y-99584780D01*
X145665260Y-100184780D02*
X145465260Y-99584780D01*
D13*
%TO.C,C12*%
X124079008Y-109094780D02*
X124601512Y-109094780D01*
X124079008Y-110564780D02*
X124601512Y-110564780D01*
%TO.C,L1*%
X162289008Y-97049780D02*
X162811512Y-97049780D01*
X162289008Y-99269780D02*
X162811512Y-99269780D01*
%TD*%
M02*
