%TF.GenerationSoftware,KiCad,Pcbnew,10.0.1-10.0.1~ubuntu25.10.1*%
%TF.CreationDate,2026-05-16T03:43:41+00:00*%
%TF.ProjectId,LION1CELL02,4c494f4e-3143-4454-9c4c-30322e6b6963,rev?*%
%TF.SameCoordinates,Original*%
%TF.FileFunction,Legend,Bot*%
%TF.FilePolarity,Positive*%
%FSLAX46Y46*%
G04 Gerber Fmt 4.6, Leading zero omitted, Abs format (unit mm)*
G04 Created by KiCad (PCBNEW 10.0.1-10.0.1~ubuntu25.10.1) date 2026-05-16 03:43:41*
%MOMM*%
%LPD*%
G01*
G04 APERTURE LIST*
%ADD10C,0.150000*%
%ADD11C,0.095250*%
%ADD12C,0.119380*%
%ADD13C,0.099060*%
%ADD14C,0.120000*%
%ADD15C,0.200000*%
G04 APERTURE END LIST*
D10*
X64809580Y-107207142D02*
X64857200Y-107159523D01*
X64857200Y-107159523D02*
X64904819Y-107016666D01*
X64904819Y-107016666D02*
X64904819Y-106921428D01*
X64904819Y-106921428D02*
X64857200Y-106778571D01*
X64857200Y-106778571D02*
X64761961Y-106683333D01*
X64761961Y-106683333D02*
X64666723Y-106635714D01*
X64666723Y-106635714D02*
X64476247Y-106588095D01*
X64476247Y-106588095D02*
X64333390Y-106588095D01*
X64333390Y-106588095D02*
X64142914Y-106635714D01*
X64142914Y-106635714D02*
X64047676Y-106683333D01*
X64047676Y-106683333D02*
X63952438Y-106778571D01*
X63952438Y-106778571D02*
X63904819Y-106921428D01*
X63904819Y-106921428D02*
X63904819Y-107016666D01*
X63904819Y-107016666D02*
X63952438Y-107159523D01*
X63952438Y-107159523D02*
X64000057Y-107207142D01*
X64904819Y-108159523D02*
X64904819Y-107588095D01*
X64904819Y-107873809D02*
X63904819Y-107873809D01*
X63904819Y-107873809D02*
X64047676Y-107778571D01*
X64047676Y-107778571D02*
X64142914Y-107683333D01*
X64142914Y-107683333D02*
X64190533Y-107588095D01*
X63904819Y-108492857D02*
X63904819Y-109111904D01*
X63904819Y-109111904D02*
X64285771Y-108778571D01*
X64285771Y-108778571D02*
X64285771Y-108921428D01*
X64285771Y-108921428D02*
X64333390Y-109016666D01*
X64333390Y-109016666D02*
X64381009Y-109064285D01*
X64381009Y-109064285D02*
X64476247Y-109111904D01*
X64476247Y-109111904D02*
X64714342Y-109111904D01*
X64714342Y-109111904D02*
X64809580Y-109064285D01*
X64809580Y-109064285D02*
X64857200Y-109016666D01*
X64857200Y-109016666D02*
X64904819Y-108921428D01*
X64904819Y-108921428D02*
X64904819Y-108635714D01*
X64904819Y-108635714D02*
X64857200Y-108540476D01*
X64857200Y-108540476D02*
X64809580Y-108492857D01*
X68854019Y-105978933D02*
X68377828Y-105645600D01*
X68854019Y-105407505D02*
X67854019Y-105407505D01*
X67854019Y-105407505D02*
X67854019Y-105788457D01*
X67854019Y-105788457D02*
X67901638Y-105883695D01*
X67901638Y-105883695D02*
X67949257Y-105931314D01*
X67949257Y-105931314D02*
X68044495Y-105978933D01*
X68044495Y-105978933D02*
X68187352Y-105978933D01*
X68187352Y-105978933D02*
X68282590Y-105931314D01*
X68282590Y-105931314D02*
X68330209Y-105883695D01*
X68330209Y-105883695D02*
X68377828Y-105788457D01*
X68377828Y-105788457D02*
X68377828Y-105407505D01*
X67854019Y-106883695D02*
X67854019Y-106407505D01*
X67854019Y-106407505D02*
X68330209Y-106359886D01*
X68330209Y-106359886D02*
X68282590Y-106407505D01*
X68282590Y-106407505D02*
X68234971Y-106502743D01*
X68234971Y-106502743D02*
X68234971Y-106740838D01*
X68234971Y-106740838D02*
X68282590Y-106836076D01*
X68282590Y-106836076D02*
X68330209Y-106883695D01*
X68330209Y-106883695D02*
X68425447Y-106931314D01*
X68425447Y-106931314D02*
X68663542Y-106931314D01*
X68663542Y-106931314D02*
X68758780Y-106883695D01*
X68758780Y-106883695D02*
X68806400Y-106836076D01*
X68806400Y-106836076D02*
X68854019Y-106740838D01*
X68854019Y-106740838D02*
X68854019Y-106502743D01*
X68854019Y-106502743D02*
X68806400Y-106407505D01*
X68806400Y-106407505D02*
X68758780Y-106359886D01*
X152671466Y-81211790D02*
X152338133Y-81211790D01*
X152338133Y-80687980D02*
X152338133Y-81687980D01*
X152338133Y-81687980D02*
X152814323Y-81687980D01*
X153719085Y-80687980D02*
X153147657Y-80687980D01*
X153433371Y-80687980D02*
X153433371Y-81687980D01*
X153433371Y-81687980D02*
X153338133Y-81545123D01*
X153338133Y-81545123D02*
X153242895Y-81449885D01*
X153242895Y-81449885D02*
X153147657Y-81402266D01*
X89404819Y-109983333D02*
X89404819Y-109507143D01*
X89404819Y-109507143D02*
X88404819Y-109507143D01*
X88500057Y-110269048D02*
X88452438Y-110316667D01*
X88452438Y-110316667D02*
X88404819Y-110411905D01*
X88404819Y-110411905D02*
X88404819Y-110650000D01*
X88404819Y-110650000D02*
X88452438Y-110745238D01*
X88452438Y-110745238D02*
X88500057Y-110792857D01*
X88500057Y-110792857D02*
X88595295Y-110840476D01*
X88595295Y-110840476D02*
X88690533Y-110840476D01*
X88690533Y-110840476D02*
X88833390Y-110792857D01*
X88833390Y-110792857D02*
X89404819Y-110221429D01*
X89404819Y-110221429D02*
X89404819Y-110840476D01*
X76105713Y-50444819D02*
X75534285Y-50444819D01*
X75819999Y-51444819D02*
X75819999Y-50444819D01*
X75200951Y-51444819D02*
X75200951Y-50444819D01*
X75200951Y-50921009D02*
X74629523Y-50921009D01*
X74629523Y-51444819D02*
X74629523Y-50444819D01*
X73629523Y-51444819D02*
X74200951Y-51444819D01*
X73915237Y-51444819D02*
X73915237Y-50444819D01*
X73915237Y-50444819D02*
X74010475Y-50587676D01*
X74010475Y-50587676D02*
X74105713Y-50682914D01*
X74105713Y-50682914D02*
X74200951Y-50730533D01*
X47785166Y-108730219D02*
X48118499Y-108254028D01*
X48356594Y-108730219D02*
X48356594Y-107730219D01*
X48356594Y-107730219D02*
X47975642Y-107730219D01*
X47975642Y-107730219D02*
X47880404Y-107777838D01*
X47880404Y-107777838D02*
X47832785Y-107825457D01*
X47832785Y-107825457D02*
X47785166Y-107920695D01*
X47785166Y-107920695D02*
X47785166Y-108063552D01*
X47785166Y-108063552D02*
X47832785Y-108158790D01*
X47832785Y-108158790D02*
X47880404Y-108206409D01*
X47880404Y-108206409D02*
X47975642Y-108254028D01*
X47975642Y-108254028D02*
X48356594Y-108254028D01*
X46928023Y-107730219D02*
X47118499Y-107730219D01*
X47118499Y-107730219D02*
X47213737Y-107777838D01*
X47213737Y-107777838D02*
X47261356Y-107825457D01*
X47261356Y-107825457D02*
X47356594Y-107968314D01*
X47356594Y-107968314D02*
X47404213Y-108158790D01*
X47404213Y-108158790D02*
X47404213Y-108539742D01*
X47404213Y-108539742D02*
X47356594Y-108634980D01*
X47356594Y-108634980D02*
X47308975Y-108682600D01*
X47308975Y-108682600D02*
X47213737Y-108730219D01*
X47213737Y-108730219D02*
X47023261Y-108730219D01*
X47023261Y-108730219D02*
X46928023Y-108682600D01*
X46928023Y-108682600D02*
X46880404Y-108634980D01*
X46880404Y-108634980D02*
X46832785Y-108539742D01*
X46832785Y-108539742D02*
X46832785Y-108301647D01*
X46832785Y-108301647D02*
X46880404Y-108206409D01*
X46880404Y-108206409D02*
X46928023Y-108158790D01*
X46928023Y-108158790D02*
X47023261Y-108111171D01*
X47023261Y-108111171D02*
X47213737Y-108111171D01*
X47213737Y-108111171D02*
X47308975Y-108158790D01*
X47308975Y-108158790D02*
X47356594Y-108206409D01*
X47356594Y-108206409D02*
X47404213Y-108301647D01*
X93128095Y-112120180D02*
X93128095Y-111310657D01*
X93128095Y-111310657D02*
X93175714Y-111215419D01*
X93175714Y-111215419D02*
X93223333Y-111167800D01*
X93223333Y-111167800D02*
X93318571Y-111120180D01*
X93318571Y-111120180D02*
X93509047Y-111120180D01*
X93509047Y-111120180D02*
X93604285Y-111167800D01*
X93604285Y-111167800D02*
X93651904Y-111215419D01*
X93651904Y-111215419D02*
X93699523Y-111310657D01*
X93699523Y-111310657D02*
X93699523Y-112120180D01*
X94080476Y-112120180D02*
X94699523Y-112120180D01*
X94699523Y-112120180D02*
X94366190Y-111739228D01*
X94366190Y-111739228D02*
X94509047Y-111739228D01*
X94509047Y-111739228D02*
X94604285Y-111691609D01*
X94604285Y-111691609D02*
X94651904Y-111643990D01*
X94651904Y-111643990D02*
X94699523Y-111548752D01*
X94699523Y-111548752D02*
X94699523Y-111310657D01*
X94699523Y-111310657D02*
X94651904Y-111215419D01*
X94651904Y-111215419D02*
X94604285Y-111167800D01*
X94604285Y-111167800D02*
X94509047Y-111120180D01*
X94509047Y-111120180D02*
X94223333Y-111120180D01*
X94223333Y-111120180D02*
X94128095Y-111167800D01*
X94128095Y-111167800D02*
X94080476Y-111215419D01*
X109980357Y-73104819D02*
X110313690Y-72628628D01*
X110551785Y-73104819D02*
X110551785Y-72104819D01*
X110551785Y-72104819D02*
X110170833Y-72104819D01*
X110170833Y-72104819D02*
X110075595Y-72152438D01*
X110075595Y-72152438D02*
X110027976Y-72200057D01*
X110027976Y-72200057D02*
X109980357Y-72295295D01*
X109980357Y-72295295D02*
X109980357Y-72438152D01*
X109980357Y-72438152D02*
X110027976Y-72533390D01*
X110027976Y-72533390D02*
X110075595Y-72581009D01*
X110075595Y-72581009D02*
X110170833Y-72628628D01*
X110170833Y-72628628D02*
X110551785Y-72628628D01*
X109599404Y-72200057D02*
X109551785Y-72152438D01*
X109551785Y-72152438D02*
X109456547Y-72104819D01*
X109456547Y-72104819D02*
X109218452Y-72104819D01*
X109218452Y-72104819D02*
X109123214Y-72152438D01*
X109123214Y-72152438D02*
X109075595Y-72200057D01*
X109075595Y-72200057D02*
X109027976Y-72295295D01*
X109027976Y-72295295D02*
X109027976Y-72390533D01*
X109027976Y-72390533D02*
X109075595Y-72533390D01*
X109075595Y-72533390D02*
X109647023Y-73104819D01*
X109647023Y-73104819D02*
X109027976Y-73104819D01*
X108123214Y-72104819D02*
X108599404Y-72104819D01*
X108599404Y-72104819D02*
X108647023Y-72581009D01*
X108647023Y-72581009D02*
X108599404Y-72533390D01*
X108599404Y-72533390D02*
X108504166Y-72485771D01*
X108504166Y-72485771D02*
X108266071Y-72485771D01*
X108266071Y-72485771D02*
X108170833Y-72533390D01*
X108170833Y-72533390D02*
X108123214Y-72581009D01*
X108123214Y-72581009D02*
X108075595Y-72676247D01*
X108075595Y-72676247D02*
X108075595Y-72914342D01*
X108075595Y-72914342D02*
X108123214Y-73009580D01*
X108123214Y-73009580D02*
X108170833Y-73057200D01*
X108170833Y-73057200D02*
X108266071Y-73104819D01*
X108266071Y-73104819D02*
X108504166Y-73104819D01*
X108504166Y-73104819D02*
X108599404Y-73057200D01*
X108599404Y-73057200D02*
X108647023Y-73009580D01*
X101942319Y-72569642D02*
X101466128Y-72236309D01*
X101942319Y-71998214D02*
X100942319Y-71998214D01*
X100942319Y-71998214D02*
X100942319Y-72379166D01*
X100942319Y-72379166D02*
X100989938Y-72474404D01*
X100989938Y-72474404D02*
X101037557Y-72522023D01*
X101037557Y-72522023D02*
X101132795Y-72569642D01*
X101132795Y-72569642D02*
X101275652Y-72569642D01*
X101275652Y-72569642D02*
X101370890Y-72522023D01*
X101370890Y-72522023D02*
X101418509Y-72474404D01*
X101418509Y-72474404D02*
X101466128Y-72379166D01*
X101466128Y-72379166D02*
X101466128Y-71998214D01*
X101037557Y-72950595D02*
X100989938Y-72998214D01*
X100989938Y-72998214D02*
X100942319Y-73093452D01*
X100942319Y-73093452D02*
X100942319Y-73331547D01*
X100942319Y-73331547D02*
X100989938Y-73426785D01*
X100989938Y-73426785D02*
X101037557Y-73474404D01*
X101037557Y-73474404D02*
X101132795Y-73522023D01*
X101132795Y-73522023D02*
X101228033Y-73522023D01*
X101228033Y-73522023D02*
X101370890Y-73474404D01*
X101370890Y-73474404D02*
X101942319Y-72902976D01*
X101942319Y-72902976D02*
X101942319Y-73522023D01*
X101370890Y-74093452D02*
X101323271Y-73998214D01*
X101323271Y-73998214D02*
X101275652Y-73950595D01*
X101275652Y-73950595D02*
X101180414Y-73902976D01*
X101180414Y-73902976D02*
X101132795Y-73902976D01*
X101132795Y-73902976D02*
X101037557Y-73950595D01*
X101037557Y-73950595D02*
X100989938Y-73998214D01*
X100989938Y-73998214D02*
X100942319Y-74093452D01*
X100942319Y-74093452D02*
X100942319Y-74283928D01*
X100942319Y-74283928D02*
X100989938Y-74379166D01*
X100989938Y-74379166D02*
X101037557Y-74426785D01*
X101037557Y-74426785D02*
X101132795Y-74474404D01*
X101132795Y-74474404D02*
X101180414Y-74474404D01*
X101180414Y-74474404D02*
X101275652Y-74426785D01*
X101275652Y-74426785D02*
X101323271Y-74379166D01*
X101323271Y-74379166D02*
X101370890Y-74283928D01*
X101370890Y-74283928D02*
X101370890Y-74093452D01*
X101370890Y-74093452D02*
X101418509Y-73998214D01*
X101418509Y-73998214D02*
X101466128Y-73950595D01*
X101466128Y-73950595D02*
X101561366Y-73902976D01*
X101561366Y-73902976D02*
X101751842Y-73902976D01*
X101751842Y-73902976D02*
X101847080Y-73950595D01*
X101847080Y-73950595D02*
X101894700Y-73998214D01*
X101894700Y-73998214D02*
X101942319Y-74093452D01*
X101942319Y-74093452D02*
X101942319Y-74283928D01*
X101942319Y-74283928D02*
X101894700Y-74379166D01*
X101894700Y-74379166D02*
X101847080Y-74426785D01*
X101847080Y-74426785D02*
X101751842Y-74474404D01*
X101751842Y-74474404D02*
X101561366Y-74474404D01*
X101561366Y-74474404D02*
X101466128Y-74426785D01*
X101466128Y-74426785D02*
X101418509Y-74379166D01*
X101418509Y-74379166D02*
X101370890Y-74283928D01*
X81392857Y-82174819D02*
X81726190Y-81698628D01*
X81964285Y-82174819D02*
X81964285Y-81174819D01*
X81964285Y-81174819D02*
X81583333Y-81174819D01*
X81583333Y-81174819D02*
X81488095Y-81222438D01*
X81488095Y-81222438D02*
X81440476Y-81270057D01*
X81440476Y-81270057D02*
X81392857Y-81365295D01*
X81392857Y-81365295D02*
X81392857Y-81508152D01*
X81392857Y-81508152D02*
X81440476Y-81603390D01*
X81440476Y-81603390D02*
X81488095Y-81651009D01*
X81488095Y-81651009D02*
X81583333Y-81698628D01*
X81583333Y-81698628D02*
X81964285Y-81698628D01*
X81011904Y-81270057D02*
X80964285Y-81222438D01*
X80964285Y-81222438D02*
X80869047Y-81174819D01*
X80869047Y-81174819D02*
X80630952Y-81174819D01*
X80630952Y-81174819D02*
X80535714Y-81222438D01*
X80535714Y-81222438D02*
X80488095Y-81270057D01*
X80488095Y-81270057D02*
X80440476Y-81365295D01*
X80440476Y-81365295D02*
X80440476Y-81460533D01*
X80440476Y-81460533D02*
X80488095Y-81603390D01*
X80488095Y-81603390D02*
X81059523Y-82174819D01*
X81059523Y-82174819D02*
X80440476Y-82174819D01*
X79583333Y-81174819D02*
X79773809Y-81174819D01*
X79773809Y-81174819D02*
X79869047Y-81222438D01*
X79869047Y-81222438D02*
X79916666Y-81270057D01*
X79916666Y-81270057D02*
X80011904Y-81412914D01*
X80011904Y-81412914D02*
X80059523Y-81603390D01*
X80059523Y-81603390D02*
X80059523Y-81984342D01*
X80059523Y-81984342D02*
X80011904Y-82079580D01*
X80011904Y-82079580D02*
X79964285Y-82127200D01*
X79964285Y-82127200D02*
X79869047Y-82174819D01*
X79869047Y-82174819D02*
X79678571Y-82174819D01*
X79678571Y-82174819D02*
X79583333Y-82127200D01*
X79583333Y-82127200D02*
X79535714Y-82079580D01*
X79535714Y-82079580D02*
X79488095Y-81984342D01*
X79488095Y-81984342D02*
X79488095Y-81746247D01*
X79488095Y-81746247D02*
X79535714Y-81651009D01*
X79535714Y-81651009D02*
X79583333Y-81603390D01*
X79583333Y-81603390D02*
X79678571Y-81555771D01*
X79678571Y-81555771D02*
X79869047Y-81555771D01*
X79869047Y-81555771D02*
X79964285Y-81603390D01*
X79964285Y-81603390D02*
X80011904Y-81651009D01*
X80011904Y-81651009D02*
X80059523Y-81746247D01*
X98282738Y-83375057D02*
X98377976Y-83327438D01*
X98377976Y-83327438D02*
X98473214Y-83232200D01*
X98473214Y-83232200D02*
X98616071Y-83089342D01*
X98616071Y-83089342D02*
X98711309Y-83041723D01*
X98711309Y-83041723D02*
X98806547Y-83041723D01*
X98758928Y-83279819D02*
X98854166Y-83232200D01*
X98854166Y-83232200D02*
X98949404Y-83136961D01*
X98949404Y-83136961D02*
X98997023Y-82946485D01*
X98997023Y-82946485D02*
X98997023Y-82613152D01*
X98997023Y-82613152D02*
X98949404Y-82422676D01*
X98949404Y-82422676D02*
X98854166Y-82327438D01*
X98854166Y-82327438D02*
X98758928Y-82279819D01*
X98758928Y-82279819D02*
X98568452Y-82279819D01*
X98568452Y-82279819D02*
X98473214Y-82327438D01*
X98473214Y-82327438D02*
X98377976Y-82422676D01*
X98377976Y-82422676D02*
X98330357Y-82613152D01*
X98330357Y-82613152D02*
X98330357Y-82946485D01*
X98330357Y-82946485D02*
X98377976Y-83136961D01*
X98377976Y-83136961D02*
X98473214Y-83232200D01*
X98473214Y-83232200D02*
X98568452Y-83279819D01*
X98568452Y-83279819D02*
X98758928Y-83279819D01*
X97425595Y-82279819D02*
X97901785Y-82279819D01*
X97901785Y-82279819D02*
X97949404Y-82756009D01*
X97949404Y-82756009D02*
X97901785Y-82708390D01*
X97901785Y-82708390D02*
X97806547Y-82660771D01*
X97806547Y-82660771D02*
X97568452Y-82660771D01*
X97568452Y-82660771D02*
X97473214Y-82708390D01*
X97473214Y-82708390D02*
X97425595Y-82756009D01*
X97425595Y-82756009D02*
X97377976Y-82851247D01*
X97377976Y-82851247D02*
X97377976Y-83089342D01*
X97377976Y-83089342D02*
X97425595Y-83184580D01*
X97425595Y-83184580D02*
X97473214Y-83232200D01*
X97473214Y-83232200D02*
X97568452Y-83279819D01*
X97568452Y-83279819D02*
X97806547Y-83279819D01*
X97806547Y-83279819D02*
X97901785Y-83232200D01*
X97901785Y-83232200D02*
X97949404Y-83184580D01*
X83954819Y-78933333D02*
X83478628Y-78600000D01*
X83954819Y-78361905D02*
X82954819Y-78361905D01*
X82954819Y-78361905D02*
X82954819Y-78742857D01*
X82954819Y-78742857D02*
X83002438Y-78838095D01*
X83002438Y-78838095D02*
X83050057Y-78885714D01*
X83050057Y-78885714D02*
X83145295Y-78933333D01*
X83145295Y-78933333D02*
X83288152Y-78933333D01*
X83288152Y-78933333D02*
X83383390Y-78885714D01*
X83383390Y-78885714D02*
X83431009Y-78838095D01*
X83431009Y-78838095D02*
X83478628Y-78742857D01*
X83478628Y-78742857D02*
X83478628Y-78361905D01*
X83954819Y-79885714D02*
X83954819Y-79314286D01*
X83954819Y-79600000D02*
X82954819Y-79600000D01*
X82954819Y-79600000D02*
X83097676Y-79504762D01*
X83097676Y-79504762D02*
X83192914Y-79409524D01*
X83192914Y-79409524D02*
X83240533Y-79314286D01*
X94842857Y-118289580D02*
X94890476Y-118337200D01*
X94890476Y-118337200D02*
X95033333Y-118384819D01*
X95033333Y-118384819D02*
X95128571Y-118384819D01*
X95128571Y-118384819D02*
X95271428Y-118337200D01*
X95271428Y-118337200D02*
X95366666Y-118241961D01*
X95366666Y-118241961D02*
X95414285Y-118146723D01*
X95414285Y-118146723D02*
X95461904Y-117956247D01*
X95461904Y-117956247D02*
X95461904Y-117813390D01*
X95461904Y-117813390D02*
X95414285Y-117622914D01*
X95414285Y-117622914D02*
X95366666Y-117527676D01*
X95366666Y-117527676D02*
X95271428Y-117432438D01*
X95271428Y-117432438D02*
X95128571Y-117384819D01*
X95128571Y-117384819D02*
X95033333Y-117384819D01*
X95033333Y-117384819D02*
X94890476Y-117432438D01*
X94890476Y-117432438D02*
X94842857Y-117480057D01*
X93890476Y-118384819D02*
X94461904Y-118384819D01*
X94176190Y-118384819D02*
X94176190Y-117384819D01*
X94176190Y-117384819D02*
X94271428Y-117527676D01*
X94271428Y-117527676D02*
X94366666Y-117622914D01*
X94366666Y-117622914D02*
X94461904Y-117670533D01*
X93557142Y-117384819D02*
X92890476Y-117384819D01*
X92890476Y-117384819D02*
X93319047Y-118384819D01*
X71416666Y-106381580D02*
X71464285Y-106429200D01*
X71464285Y-106429200D02*
X71607142Y-106476819D01*
X71607142Y-106476819D02*
X71702380Y-106476819D01*
X71702380Y-106476819D02*
X71845237Y-106429200D01*
X71845237Y-106429200D02*
X71940475Y-106333961D01*
X71940475Y-106333961D02*
X71988094Y-106238723D01*
X71988094Y-106238723D02*
X72035713Y-106048247D01*
X72035713Y-106048247D02*
X72035713Y-105905390D01*
X72035713Y-105905390D02*
X71988094Y-105714914D01*
X71988094Y-105714914D02*
X71940475Y-105619676D01*
X71940475Y-105619676D02*
X71845237Y-105524438D01*
X71845237Y-105524438D02*
X71702380Y-105476819D01*
X71702380Y-105476819D02*
X71607142Y-105476819D01*
X71607142Y-105476819D02*
X71464285Y-105524438D01*
X71464285Y-105524438D02*
X71416666Y-105572057D01*
X71083332Y-105476819D02*
X70416666Y-105476819D01*
X70416666Y-105476819D02*
X70845237Y-106476819D01*
X82966666Y-78389580D02*
X83014285Y-78437200D01*
X83014285Y-78437200D02*
X83157142Y-78484819D01*
X83157142Y-78484819D02*
X83252380Y-78484819D01*
X83252380Y-78484819D02*
X83395237Y-78437200D01*
X83395237Y-78437200D02*
X83490475Y-78341961D01*
X83490475Y-78341961D02*
X83538094Y-78246723D01*
X83538094Y-78246723D02*
X83585713Y-78056247D01*
X83585713Y-78056247D02*
X83585713Y-77913390D01*
X83585713Y-77913390D02*
X83538094Y-77722914D01*
X83538094Y-77722914D02*
X83490475Y-77627676D01*
X83490475Y-77627676D02*
X83395237Y-77532438D01*
X83395237Y-77532438D02*
X83252380Y-77484819D01*
X83252380Y-77484819D02*
X83157142Y-77484819D01*
X83157142Y-77484819D02*
X83014285Y-77532438D01*
X83014285Y-77532438D02*
X82966666Y-77580057D01*
X82585713Y-77580057D02*
X82538094Y-77532438D01*
X82538094Y-77532438D02*
X82442856Y-77484819D01*
X82442856Y-77484819D02*
X82204761Y-77484819D01*
X82204761Y-77484819D02*
X82109523Y-77532438D01*
X82109523Y-77532438D02*
X82061904Y-77580057D01*
X82061904Y-77580057D02*
X82014285Y-77675295D01*
X82014285Y-77675295D02*
X82014285Y-77770533D01*
X82014285Y-77770533D02*
X82061904Y-77913390D01*
X82061904Y-77913390D02*
X82633332Y-78484819D01*
X82633332Y-78484819D02*
X82014285Y-78484819D01*
D11*
X72080571Y-110685562D02*
X72080571Y-111302419D01*
X72080571Y-111302419D02*
X72044285Y-111374991D01*
X72044285Y-111374991D02*
X72008000Y-111411277D01*
X72008000Y-111411277D02*
X71935428Y-111447562D01*
X71935428Y-111447562D02*
X71790285Y-111447562D01*
X71790285Y-111447562D02*
X71717714Y-111411277D01*
X71717714Y-111411277D02*
X71681428Y-111374991D01*
X71681428Y-111374991D02*
X71645142Y-111302419D01*
X71645142Y-111302419D02*
X71645142Y-110685562D01*
X71318571Y-110758134D02*
X71282285Y-110721848D01*
X71282285Y-110721848D02*
X71209714Y-110685562D01*
X71209714Y-110685562D02*
X71028285Y-110685562D01*
X71028285Y-110685562D02*
X70955714Y-110721848D01*
X70955714Y-110721848D02*
X70919428Y-110758134D01*
X70919428Y-110758134D02*
X70883142Y-110830705D01*
X70883142Y-110830705D02*
X70883142Y-110903277D01*
X70883142Y-110903277D02*
X70919428Y-111012134D01*
X70919428Y-111012134D02*
X71354856Y-111447562D01*
X71354856Y-111447562D02*
X70883142Y-111447562D01*
D10*
X98282738Y-87825057D02*
X98377976Y-87777438D01*
X98377976Y-87777438D02*
X98473214Y-87682200D01*
X98473214Y-87682200D02*
X98616071Y-87539342D01*
X98616071Y-87539342D02*
X98711309Y-87491723D01*
X98711309Y-87491723D02*
X98806547Y-87491723D01*
X98758928Y-87729819D02*
X98854166Y-87682200D01*
X98854166Y-87682200D02*
X98949404Y-87586961D01*
X98949404Y-87586961D02*
X98997023Y-87396485D01*
X98997023Y-87396485D02*
X98997023Y-87063152D01*
X98997023Y-87063152D02*
X98949404Y-86872676D01*
X98949404Y-86872676D02*
X98854166Y-86777438D01*
X98854166Y-86777438D02*
X98758928Y-86729819D01*
X98758928Y-86729819D02*
X98568452Y-86729819D01*
X98568452Y-86729819D02*
X98473214Y-86777438D01*
X98473214Y-86777438D02*
X98377976Y-86872676D01*
X98377976Y-86872676D02*
X98330357Y-87063152D01*
X98330357Y-87063152D02*
X98330357Y-87396485D01*
X98330357Y-87396485D02*
X98377976Y-87586961D01*
X98377976Y-87586961D02*
X98473214Y-87682200D01*
X98473214Y-87682200D02*
X98568452Y-87729819D01*
X98568452Y-87729819D02*
X98758928Y-87729819D01*
X97473214Y-87063152D02*
X97473214Y-87729819D01*
X97711309Y-86682200D02*
X97949404Y-87396485D01*
X97949404Y-87396485D02*
X97330357Y-87396485D01*
X76104819Y-58282142D02*
X75628628Y-57948809D01*
X76104819Y-57710714D02*
X75104819Y-57710714D01*
X75104819Y-57710714D02*
X75104819Y-58091666D01*
X75104819Y-58091666D02*
X75152438Y-58186904D01*
X75152438Y-58186904D02*
X75200057Y-58234523D01*
X75200057Y-58234523D02*
X75295295Y-58282142D01*
X75295295Y-58282142D02*
X75438152Y-58282142D01*
X75438152Y-58282142D02*
X75533390Y-58234523D01*
X75533390Y-58234523D02*
X75581009Y-58186904D01*
X75581009Y-58186904D02*
X75628628Y-58091666D01*
X75628628Y-58091666D02*
X75628628Y-57710714D01*
X76104819Y-59234523D02*
X76104819Y-58663095D01*
X76104819Y-58948809D02*
X75104819Y-58948809D01*
X75104819Y-58948809D02*
X75247676Y-58853571D01*
X75247676Y-58853571D02*
X75342914Y-58758333D01*
X75342914Y-58758333D02*
X75390533Y-58663095D01*
X76104819Y-60186904D02*
X76104819Y-59615476D01*
X76104819Y-59901190D02*
X75104819Y-59901190D01*
X75104819Y-59901190D02*
X75247676Y-59805952D01*
X75247676Y-59805952D02*
X75342914Y-59710714D01*
X75342914Y-59710714D02*
X75390533Y-59615476D01*
X70407738Y-65050057D02*
X70502976Y-65002438D01*
X70502976Y-65002438D02*
X70598214Y-64907200D01*
X70598214Y-64907200D02*
X70741071Y-64764342D01*
X70741071Y-64764342D02*
X70836309Y-64716723D01*
X70836309Y-64716723D02*
X70931547Y-64716723D01*
X70883928Y-64954819D02*
X70979166Y-64907200D01*
X70979166Y-64907200D02*
X71074404Y-64811961D01*
X71074404Y-64811961D02*
X71122023Y-64621485D01*
X71122023Y-64621485D02*
X71122023Y-64288152D01*
X71122023Y-64288152D02*
X71074404Y-64097676D01*
X71074404Y-64097676D02*
X70979166Y-64002438D01*
X70979166Y-64002438D02*
X70883928Y-63954819D01*
X70883928Y-63954819D02*
X70693452Y-63954819D01*
X70693452Y-63954819D02*
X70598214Y-64002438D01*
X70598214Y-64002438D02*
X70502976Y-64097676D01*
X70502976Y-64097676D02*
X70455357Y-64288152D01*
X70455357Y-64288152D02*
X70455357Y-64621485D01*
X70455357Y-64621485D02*
X70502976Y-64811961D01*
X70502976Y-64811961D02*
X70598214Y-64907200D01*
X70598214Y-64907200D02*
X70693452Y-64954819D01*
X70693452Y-64954819D02*
X70883928Y-64954819D01*
X69502976Y-64954819D02*
X70074404Y-64954819D01*
X69788690Y-64954819D02*
X69788690Y-63954819D01*
X69788690Y-63954819D02*
X69883928Y-64097676D01*
X69883928Y-64097676D02*
X69979166Y-64192914D01*
X69979166Y-64192914D02*
X70074404Y-64240533D01*
X94842857Y-116314580D02*
X94890476Y-116362200D01*
X94890476Y-116362200D02*
X95033333Y-116409819D01*
X95033333Y-116409819D02*
X95128571Y-116409819D01*
X95128571Y-116409819D02*
X95271428Y-116362200D01*
X95271428Y-116362200D02*
X95366666Y-116266961D01*
X95366666Y-116266961D02*
X95414285Y-116171723D01*
X95414285Y-116171723D02*
X95461904Y-115981247D01*
X95461904Y-115981247D02*
X95461904Y-115838390D01*
X95461904Y-115838390D02*
X95414285Y-115647914D01*
X95414285Y-115647914D02*
X95366666Y-115552676D01*
X95366666Y-115552676D02*
X95271428Y-115457438D01*
X95271428Y-115457438D02*
X95128571Y-115409819D01*
X95128571Y-115409819D02*
X95033333Y-115409819D01*
X95033333Y-115409819D02*
X94890476Y-115457438D01*
X94890476Y-115457438D02*
X94842857Y-115505057D01*
X93890476Y-116409819D02*
X94461904Y-116409819D01*
X94176190Y-116409819D02*
X94176190Y-115409819D01*
X94176190Y-115409819D02*
X94271428Y-115552676D01*
X94271428Y-115552676D02*
X94366666Y-115647914D01*
X94366666Y-115647914D02*
X94461904Y-115695533D01*
X93033333Y-115409819D02*
X93223809Y-115409819D01*
X93223809Y-115409819D02*
X93319047Y-115457438D01*
X93319047Y-115457438D02*
X93366666Y-115505057D01*
X93366666Y-115505057D02*
X93461904Y-115647914D01*
X93461904Y-115647914D02*
X93509523Y-115838390D01*
X93509523Y-115838390D02*
X93509523Y-116219342D01*
X93509523Y-116219342D02*
X93461904Y-116314580D01*
X93461904Y-116314580D02*
X93414285Y-116362200D01*
X93414285Y-116362200D02*
X93319047Y-116409819D01*
X93319047Y-116409819D02*
X93128571Y-116409819D01*
X93128571Y-116409819D02*
X93033333Y-116362200D01*
X93033333Y-116362200D02*
X92985714Y-116314580D01*
X92985714Y-116314580D02*
X92938095Y-116219342D01*
X92938095Y-116219342D02*
X92938095Y-115981247D01*
X92938095Y-115981247D02*
X92985714Y-115886009D01*
X92985714Y-115886009D02*
X93033333Y-115838390D01*
X93033333Y-115838390D02*
X93128571Y-115790771D01*
X93128571Y-115790771D02*
X93319047Y-115790771D01*
X93319047Y-115790771D02*
X93414285Y-115838390D01*
X93414285Y-115838390D02*
X93461904Y-115886009D01*
X93461904Y-115886009D02*
X93509523Y-115981247D01*
X75654819Y-68338095D02*
X76464342Y-68338095D01*
X76464342Y-68338095D02*
X76559580Y-68385714D01*
X76559580Y-68385714D02*
X76607200Y-68433333D01*
X76607200Y-68433333D02*
X76654819Y-68528571D01*
X76654819Y-68528571D02*
X76654819Y-68719047D01*
X76654819Y-68719047D02*
X76607200Y-68814285D01*
X76607200Y-68814285D02*
X76559580Y-68861904D01*
X76559580Y-68861904D02*
X76464342Y-68909523D01*
X76464342Y-68909523D02*
X75654819Y-68909523D01*
X76654819Y-69909523D02*
X76654819Y-69338095D01*
X76654819Y-69623809D02*
X75654819Y-69623809D01*
X75654819Y-69623809D02*
X75797676Y-69528571D01*
X75797676Y-69528571D02*
X75892914Y-69433333D01*
X75892914Y-69433333D02*
X75940533Y-69338095D01*
X48546713Y-110442619D02*
X47975285Y-110442619D01*
X48260999Y-111442619D02*
X48260999Y-110442619D01*
X47641951Y-111442619D02*
X47641951Y-110442619D01*
X47641951Y-110918809D02*
X47070523Y-110918809D01*
X47070523Y-111442619D02*
X47070523Y-110442619D01*
X46641951Y-110537857D02*
X46594332Y-110490238D01*
X46594332Y-110490238D02*
X46499094Y-110442619D01*
X46499094Y-110442619D02*
X46260999Y-110442619D01*
X46260999Y-110442619D02*
X46165761Y-110490238D01*
X46165761Y-110490238D02*
X46118142Y-110537857D01*
X46118142Y-110537857D02*
X46070523Y-110633095D01*
X46070523Y-110633095D02*
X46070523Y-110728333D01*
X46070523Y-110728333D02*
X46118142Y-110871190D01*
X46118142Y-110871190D02*
X46689570Y-111442619D01*
X46689570Y-111442619D02*
X46070523Y-111442619D01*
X112127080Y-70907142D02*
X112174700Y-70859523D01*
X112174700Y-70859523D02*
X112222319Y-70716666D01*
X112222319Y-70716666D02*
X112222319Y-70621428D01*
X112222319Y-70621428D02*
X112174700Y-70478571D01*
X112174700Y-70478571D02*
X112079461Y-70383333D01*
X112079461Y-70383333D02*
X111984223Y-70335714D01*
X111984223Y-70335714D02*
X111793747Y-70288095D01*
X111793747Y-70288095D02*
X111650890Y-70288095D01*
X111650890Y-70288095D02*
X111460414Y-70335714D01*
X111460414Y-70335714D02*
X111365176Y-70383333D01*
X111365176Y-70383333D02*
X111269938Y-70478571D01*
X111269938Y-70478571D02*
X111222319Y-70621428D01*
X111222319Y-70621428D02*
X111222319Y-70716666D01*
X111222319Y-70716666D02*
X111269938Y-70859523D01*
X111269938Y-70859523D02*
X111317557Y-70907142D01*
X112222319Y-71859523D02*
X112222319Y-71288095D01*
X112222319Y-71573809D02*
X111222319Y-71573809D01*
X111222319Y-71573809D02*
X111365176Y-71478571D01*
X111365176Y-71478571D02*
X111460414Y-71383333D01*
X111460414Y-71383333D02*
X111508033Y-71288095D01*
X112222319Y-72335714D02*
X112222319Y-72526190D01*
X112222319Y-72526190D02*
X112174700Y-72621428D01*
X112174700Y-72621428D02*
X112127080Y-72669047D01*
X112127080Y-72669047D02*
X111984223Y-72764285D01*
X111984223Y-72764285D02*
X111793747Y-72811904D01*
X111793747Y-72811904D02*
X111412795Y-72811904D01*
X111412795Y-72811904D02*
X111317557Y-72764285D01*
X111317557Y-72764285D02*
X111269938Y-72716666D01*
X111269938Y-72716666D02*
X111222319Y-72621428D01*
X111222319Y-72621428D02*
X111222319Y-72430952D01*
X111222319Y-72430952D02*
X111269938Y-72335714D01*
X111269938Y-72335714D02*
X111317557Y-72288095D01*
X111317557Y-72288095D02*
X111412795Y-72240476D01*
X111412795Y-72240476D02*
X111650890Y-72240476D01*
X111650890Y-72240476D02*
X111746128Y-72288095D01*
X111746128Y-72288095D02*
X111793747Y-72335714D01*
X111793747Y-72335714D02*
X111841366Y-72430952D01*
X111841366Y-72430952D02*
X111841366Y-72621428D01*
X111841366Y-72621428D02*
X111793747Y-72716666D01*
X111793747Y-72716666D02*
X111746128Y-72764285D01*
X111746128Y-72764285D02*
X111650890Y-72811904D01*
X71566666Y-112779580D02*
X71614285Y-112827200D01*
X71614285Y-112827200D02*
X71757142Y-112874819D01*
X71757142Y-112874819D02*
X71852380Y-112874819D01*
X71852380Y-112874819D02*
X71995237Y-112827200D01*
X71995237Y-112827200D02*
X72090475Y-112731961D01*
X72090475Y-112731961D02*
X72138094Y-112636723D01*
X72138094Y-112636723D02*
X72185713Y-112446247D01*
X72185713Y-112446247D02*
X72185713Y-112303390D01*
X72185713Y-112303390D02*
X72138094Y-112112914D01*
X72138094Y-112112914D02*
X72090475Y-112017676D01*
X72090475Y-112017676D02*
X71995237Y-111922438D01*
X71995237Y-111922438D02*
X71852380Y-111874819D01*
X71852380Y-111874819D02*
X71757142Y-111874819D01*
X71757142Y-111874819D02*
X71614285Y-111922438D01*
X71614285Y-111922438D02*
X71566666Y-111970057D01*
X70661904Y-111874819D02*
X71138094Y-111874819D01*
X71138094Y-111874819D02*
X71185713Y-112351009D01*
X71185713Y-112351009D02*
X71138094Y-112303390D01*
X71138094Y-112303390D02*
X71042856Y-112255771D01*
X71042856Y-112255771D02*
X70804761Y-112255771D01*
X70804761Y-112255771D02*
X70709523Y-112303390D01*
X70709523Y-112303390D02*
X70661904Y-112351009D01*
X70661904Y-112351009D02*
X70614285Y-112446247D01*
X70614285Y-112446247D02*
X70614285Y-112684342D01*
X70614285Y-112684342D02*
X70661904Y-112779580D01*
X70661904Y-112779580D02*
X70709523Y-112827200D01*
X70709523Y-112827200D02*
X70804761Y-112874819D01*
X70804761Y-112874819D02*
X71042856Y-112874819D01*
X71042856Y-112874819D02*
X71138094Y-112827200D01*
X71138094Y-112827200D02*
X71185713Y-112779580D01*
X143704819Y-125988095D02*
X144514342Y-125988095D01*
X144514342Y-125988095D02*
X144609580Y-126035714D01*
X144609580Y-126035714D02*
X144657200Y-126083333D01*
X144657200Y-126083333D02*
X144704819Y-126178571D01*
X144704819Y-126178571D02*
X144704819Y-126369047D01*
X144704819Y-126369047D02*
X144657200Y-126464285D01*
X144657200Y-126464285D02*
X144609580Y-126511904D01*
X144609580Y-126511904D02*
X144514342Y-126559523D01*
X144514342Y-126559523D02*
X143704819Y-126559523D01*
X144038152Y-127464285D02*
X144704819Y-127464285D01*
X143657200Y-127226190D02*
X144371485Y-126988095D01*
X144371485Y-126988095D02*
X144371485Y-127607142D01*
X95179580Y-108932142D02*
X95227200Y-108884523D01*
X95227200Y-108884523D02*
X95274819Y-108741666D01*
X95274819Y-108741666D02*
X95274819Y-108646428D01*
X95274819Y-108646428D02*
X95227200Y-108503571D01*
X95227200Y-108503571D02*
X95131961Y-108408333D01*
X95131961Y-108408333D02*
X95036723Y-108360714D01*
X95036723Y-108360714D02*
X94846247Y-108313095D01*
X94846247Y-108313095D02*
X94703390Y-108313095D01*
X94703390Y-108313095D02*
X94512914Y-108360714D01*
X94512914Y-108360714D02*
X94417676Y-108408333D01*
X94417676Y-108408333D02*
X94322438Y-108503571D01*
X94322438Y-108503571D02*
X94274819Y-108646428D01*
X94274819Y-108646428D02*
X94274819Y-108741666D01*
X94274819Y-108741666D02*
X94322438Y-108884523D01*
X94322438Y-108884523D02*
X94370057Y-108932142D01*
X95274819Y-109884523D02*
X95274819Y-109313095D01*
X95274819Y-109598809D02*
X94274819Y-109598809D01*
X94274819Y-109598809D02*
X94417676Y-109503571D01*
X94417676Y-109503571D02*
X94512914Y-109408333D01*
X94512914Y-109408333D02*
X94560533Y-109313095D01*
X94274819Y-110789285D02*
X94274819Y-110313095D01*
X94274819Y-110313095D02*
X94751009Y-110265476D01*
X94751009Y-110265476D02*
X94703390Y-110313095D01*
X94703390Y-110313095D02*
X94655771Y-110408333D01*
X94655771Y-110408333D02*
X94655771Y-110646428D01*
X94655771Y-110646428D02*
X94703390Y-110741666D01*
X94703390Y-110741666D02*
X94751009Y-110789285D01*
X94751009Y-110789285D02*
X94846247Y-110836904D01*
X94846247Y-110836904D02*
X95084342Y-110836904D01*
X95084342Y-110836904D02*
X95179580Y-110789285D01*
X95179580Y-110789285D02*
X95227200Y-110741666D01*
X95227200Y-110741666D02*
X95274819Y-110646428D01*
X95274819Y-110646428D02*
X95274819Y-110408333D01*
X95274819Y-110408333D02*
X95227200Y-110313095D01*
X95227200Y-110313095D02*
X95179580Y-110265476D01*
X104774404Y-75579819D02*
X104774404Y-76389342D01*
X104774404Y-76389342D02*
X104726785Y-76484580D01*
X104726785Y-76484580D02*
X104679166Y-76532200D01*
X104679166Y-76532200D02*
X104583928Y-76579819D01*
X104583928Y-76579819D02*
X104393452Y-76579819D01*
X104393452Y-76579819D02*
X104298214Y-76532200D01*
X104298214Y-76532200D02*
X104250595Y-76484580D01*
X104250595Y-76484580D02*
X104202976Y-76389342D01*
X104202976Y-76389342D02*
X104202976Y-75579819D01*
X103250595Y-75579819D02*
X103726785Y-75579819D01*
X103726785Y-75579819D02*
X103774404Y-76056009D01*
X103774404Y-76056009D02*
X103726785Y-76008390D01*
X103726785Y-76008390D02*
X103631547Y-75960771D01*
X103631547Y-75960771D02*
X103393452Y-75960771D01*
X103393452Y-75960771D02*
X103298214Y-76008390D01*
X103298214Y-76008390D02*
X103250595Y-76056009D01*
X103250595Y-76056009D02*
X103202976Y-76151247D01*
X103202976Y-76151247D02*
X103202976Y-76389342D01*
X103202976Y-76389342D02*
X103250595Y-76484580D01*
X103250595Y-76484580D02*
X103298214Y-76532200D01*
X103298214Y-76532200D02*
X103393452Y-76579819D01*
X103393452Y-76579819D02*
X103631547Y-76579819D01*
X103631547Y-76579819D02*
X103726785Y-76532200D01*
X103726785Y-76532200D02*
X103774404Y-76484580D01*
X104980357Y-72479819D02*
X105313690Y-72003628D01*
X105551785Y-72479819D02*
X105551785Y-71479819D01*
X105551785Y-71479819D02*
X105170833Y-71479819D01*
X105170833Y-71479819D02*
X105075595Y-71527438D01*
X105075595Y-71527438D02*
X105027976Y-71575057D01*
X105027976Y-71575057D02*
X104980357Y-71670295D01*
X104980357Y-71670295D02*
X104980357Y-71813152D01*
X104980357Y-71813152D02*
X105027976Y-71908390D01*
X105027976Y-71908390D02*
X105075595Y-71956009D01*
X105075595Y-71956009D02*
X105170833Y-72003628D01*
X105170833Y-72003628D02*
X105551785Y-72003628D01*
X104599404Y-71575057D02*
X104551785Y-71527438D01*
X104551785Y-71527438D02*
X104456547Y-71479819D01*
X104456547Y-71479819D02*
X104218452Y-71479819D01*
X104218452Y-71479819D02*
X104123214Y-71527438D01*
X104123214Y-71527438D02*
X104075595Y-71575057D01*
X104075595Y-71575057D02*
X104027976Y-71670295D01*
X104027976Y-71670295D02*
X104027976Y-71765533D01*
X104027976Y-71765533D02*
X104075595Y-71908390D01*
X104075595Y-71908390D02*
X104647023Y-72479819D01*
X104647023Y-72479819D02*
X104027976Y-72479819D01*
X103551785Y-72479819D02*
X103361309Y-72479819D01*
X103361309Y-72479819D02*
X103266071Y-72432200D01*
X103266071Y-72432200D02*
X103218452Y-72384580D01*
X103218452Y-72384580D02*
X103123214Y-72241723D01*
X103123214Y-72241723D02*
X103075595Y-72051247D01*
X103075595Y-72051247D02*
X103075595Y-71670295D01*
X103075595Y-71670295D02*
X103123214Y-71575057D01*
X103123214Y-71575057D02*
X103170833Y-71527438D01*
X103170833Y-71527438D02*
X103266071Y-71479819D01*
X103266071Y-71479819D02*
X103456547Y-71479819D01*
X103456547Y-71479819D02*
X103551785Y-71527438D01*
X103551785Y-71527438D02*
X103599404Y-71575057D01*
X103599404Y-71575057D02*
X103647023Y-71670295D01*
X103647023Y-71670295D02*
X103647023Y-71908390D01*
X103647023Y-71908390D02*
X103599404Y-72003628D01*
X103599404Y-72003628D02*
X103551785Y-72051247D01*
X103551785Y-72051247D02*
X103456547Y-72098866D01*
X103456547Y-72098866D02*
X103266071Y-72098866D01*
X103266071Y-72098866D02*
X103170833Y-72051247D01*
X103170833Y-72051247D02*
X103123214Y-72003628D01*
X103123214Y-72003628D02*
X103075595Y-71908390D01*
X97729166Y-114429819D02*
X98062499Y-113953628D01*
X98300594Y-114429819D02*
X98300594Y-113429819D01*
X98300594Y-113429819D02*
X97919642Y-113429819D01*
X97919642Y-113429819D02*
X97824404Y-113477438D01*
X97824404Y-113477438D02*
X97776785Y-113525057D01*
X97776785Y-113525057D02*
X97729166Y-113620295D01*
X97729166Y-113620295D02*
X97729166Y-113763152D01*
X97729166Y-113763152D02*
X97776785Y-113858390D01*
X97776785Y-113858390D02*
X97824404Y-113906009D01*
X97824404Y-113906009D02*
X97919642Y-113953628D01*
X97919642Y-113953628D02*
X98300594Y-113953628D01*
X97252975Y-114429819D02*
X97062499Y-114429819D01*
X97062499Y-114429819D02*
X96967261Y-114382200D01*
X96967261Y-114382200D02*
X96919642Y-114334580D01*
X96919642Y-114334580D02*
X96824404Y-114191723D01*
X96824404Y-114191723D02*
X96776785Y-114001247D01*
X96776785Y-114001247D02*
X96776785Y-113620295D01*
X96776785Y-113620295D02*
X96824404Y-113525057D01*
X96824404Y-113525057D02*
X96872023Y-113477438D01*
X96872023Y-113477438D02*
X96967261Y-113429819D01*
X96967261Y-113429819D02*
X97157737Y-113429819D01*
X97157737Y-113429819D02*
X97252975Y-113477438D01*
X97252975Y-113477438D02*
X97300594Y-113525057D01*
X97300594Y-113525057D02*
X97348213Y-113620295D01*
X97348213Y-113620295D02*
X97348213Y-113858390D01*
X97348213Y-113858390D02*
X97300594Y-113953628D01*
X97300594Y-113953628D02*
X97252975Y-114001247D01*
X97252975Y-114001247D02*
X97157737Y-114048866D01*
X97157737Y-114048866D02*
X96967261Y-114048866D01*
X96967261Y-114048866D02*
X96872023Y-114001247D01*
X96872023Y-114001247D02*
X96824404Y-113953628D01*
X96824404Y-113953628D02*
X96776785Y-113858390D01*
X65004819Y-111345833D02*
X64528628Y-111012500D01*
X65004819Y-110774405D02*
X64004819Y-110774405D01*
X64004819Y-110774405D02*
X64004819Y-111155357D01*
X64004819Y-111155357D02*
X64052438Y-111250595D01*
X64052438Y-111250595D02*
X64100057Y-111298214D01*
X64100057Y-111298214D02*
X64195295Y-111345833D01*
X64195295Y-111345833D02*
X64338152Y-111345833D01*
X64338152Y-111345833D02*
X64433390Y-111298214D01*
X64433390Y-111298214D02*
X64481009Y-111250595D01*
X64481009Y-111250595D02*
X64528628Y-111155357D01*
X64528628Y-111155357D02*
X64528628Y-110774405D01*
X64004819Y-111679167D02*
X64004819Y-112345833D01*
X64004819Y-112345833D02*
X65004819Y-111917262D01*
X94354166Y-114429819D02*
X94687499Y-113953628D01*
X94925594Y-114429819D02*
X94925594Y-113429819D01*
X94925594Y-113429819D02*
X94544642Y-113429819D01*
X94544642Y-113429819D02*
X94449404Y-113477438D01*
X94449404Y-113477438D02*
X94401785Y-113525057D01*
X94401785Y-113525057D02*
X94354166Y-113620295D01*
X94354166Y-113620295D02*
X94354166Y-113763152D01*
X94354166Y-113763152D02*
X94401785Y-113858390D01*
X94401785Y-113858390D02*
X94449404Y-113906009D01*
X94449404Y-113906009D02*
X94544642Y-113953628D01*
X94544642Y-113953628D02*
X94925594Y-113953628D01*
X93782737Y-113858390D02*
X93877975Y-113810771D01*
X93877975Y-113810771D02*
X93925594Y-113763152D01*
X93925594Y-113763152D02*
X93973213Y-113667914D01*
X93973213Y-113667914D02*
X93973213Y-113620295D01*
X93973213Y-113620295D02*
X93925594Y-113525057D01*
X93925594Y-113525057D02*
X93877975Y-113477438D01*
X93877975Y-113477438D02*
X93782737Y-113429819D01*
X93782737Y-113429819D02*
X93592261Y-113429819D01*
X93592261Y-113429819D02*
X93497023Y-113477438D01*
X93497023Y-113477438D02*
X93449404Y-113525057D01*
X93449404Y-113525057D02*
X93401785Y-113620295D01*
X93401785Y-113620295D02*
X93401785Y-113667914D01*
X93401785Y-113667914D02*
X93449404Y-113763152D01*
X93449404Y-113763152D02*
X93497023Y-113810771D01*
X93497023Y-113810771D02*
X93592261Y-113858390D01*
X93592261Y-113858390D02*
X93782737Y-113858390D01*
X93782737Y-113858390D02*
X93877975Y-113906009D01*
X93877975Y-113906009D02*
X93925594Y-113953628D01*
X93925594Y-113953628D02*
X93973213Y-114048866D01*
X93973213Y-114048866D02*
X93973213Y-114239342D01*
X93973213Y-114239342D02*
X93925594Y-114334580D01*
X93925594Y-114334580D02*
X93877975Y-114382200D01*
X93877975Y-114382200D02*
X93782737Y-114429819D01*
X93782737Y-114429819D02*
X93592261Y-114429819D01*
X93592261Y-114429819D02*
X93497023Y-114382200D01*
X93497023Y-114382200D02*
X93449404Y-114334580D01*
X93449404Y-114334580D02*
X93401785Y-114239342D01*
X93401785Y-114239342D02*
X93401785Y-114048866D01*
X93401785Y-114048866D02*
X93449404Y-113953628D01*
X93449404Y-113953628D02*
X93497023Y-113906009D01*
X93497023Y-113906009D02*
X93592261Y-113858390D01*
D12*
X106885287Y-81898594D02*
X106123287Y-81898594D01*
X106123287Y-81898594D02*
X106123287Y-82080023D01*
X106123287Y-82080023D02*
X106159573Y-82188880D01*
X106159573Y-82188880D02*
X106232144Y-82261451D01*
X106232144Y-82261451D02*
X106304716Y-82297737D01*
X106304716Y-82297737D02*
X106449859Y-82334023D01*
X106449859Y-82334023D02*
X106558716Y-82334023D01*
X106558716Y-82334023D02*
X106703859Y-82297737D01*
X106703859Y-82297737D02*
X106776430Y-82261451D01*
X106776430Y-82261451D02*
X106849002Y-82188880D01*
X106849002Y-82188880D02*
X106885287Y-82080023D01*
X106885287Y-82080023D02*
X106885287Y-81898594D01*
X106885287Y-83059737D02*
X106885287Y-82624308D01*
X106885287Y-82842023D02*
X106123287Y-82842023D01*
X106123287Y-82842023D02*
X106232144Y-82769451D01*
X106232144Y-82769451D02*
X106304716Y-82696880D01*
X106304716Y-82696880D02*
X106341002Y-82624308D01*
X106885287Y-83785451D02*
X106885287Y-83350022D01*
X106885287Y-83567737D02*
X106123287Y-83567737D01*
X106123287Y-83567737D02*
X106232144Y-83495165D01*
X106232144Y-83495165D02*
X106304716Y-83422594D01*
X106304716Y-83422594D02*
X106341002Y-83350022D01*
D13*
X105699569Y-82689049D02*
X105628086Y-82712877D01*
X105628086Y-82712877D02*
X105604259Y-82736705D01*
X105604259Y-82736705D02*
X105580431Y-82784360D01*
X105580431Y-82784360D02*
X105580431Y-82855843D01*
X105580431Y-82855843D02*
X105604259Y-82903498D01*
X105604259Y-82903498D02*
X105628086Y-82927326D01*
X105628086Y-82927326D02*
X105675741Y-82951153D01*
X105675741Y-82951153D02*
X105866362Y-82951153D01*
X105866362Y-82951153D02*
X105866362Y-82450773D01*
X105866362Y-82450773D02*
X105699569Y-82450773D01*
X105699569Y-82450773D02*
X105651914Y-82474601D01*
X105651914Y-82474601D02*
X105628086Y-82498428D01*
X105628086Y-82498428D02*
X105604259Y-82546084D01*
X105604259Y-82546084D02*
X105604259Y-82593739D01*
X105604259Y-82593739D02*
X105628086Y-82641394D01*
X105628086Y-82641394D02*
X105651914Y-82665222D01*
X105651914Y-82665222D02*
X105699569Y-82689049D01*
X105699569Y-82689049D02*
X105866362Y-82689049D01*
X105389810Y-82808187D02*
X105151534Y-82808187D01*
X105437465Y-82951153D02*
X105270672Y-82450773D01*
X105270672Y-82450773D02*
X105103879Y-82951153D01*
X105008568Y-82450773D02*
X104722637Y-82450773D01*
X104865603Y-82951153D02*
X104865603Y-82450773D01*
X104317567Y-82450773D02*
X104555843Y-82450773D01*
X104555843Y-82450773D02*
X104579671Y-82689049D01*
X104579671Y-82689049D02*
X104555843Y-82665222D01*
X104555843Y-82665222D02*
X104508188Y-82641394D01*
X104508188Y-82641394D02*
X104389050Y-82641394D01*
X104389050Y-82641394D02*
X104341395Y-82665222D01*
X104341395Y-82665222D02*
X104317567Y-82689049D01*
X104317567Y-82689049D02*
X104293740Y-82736705D01*
X104293740Y-82736705D02*
X104293740Y-82855843D01*
X104293740Y-82855843D02*
X104317567Y-82903498D01*
X104317567Y-82903498D02*
X104341395Y-82927326D01*
X104341395Y-82927326D02*
X104389050Y-82951153D01*
X104389050Y-82951153D02*
X104508188Y-82951153D01*
X104508188Y-82951153D02*
X104555843Y-82927326D01*
X104555843Y-82927326D02*
X104579671Y-82903498D01*
X103864843Y-82617566D02*
X103864843Y-82951153D01*
X103983981Y-82426946D02*
X104103119Y-82784360D01*
X104103119Y-82784360D02*
X103793360Y-82784360D01*
X103316808Y-82903498D02*
X103340636Y-82927326D01*
X103340636Y-82927326D02*
X103412118Y-82951153D01*
X103412118Y-82951153D02*
X103459774Y-82951153D01*
X103459774Y-82951153D02*
X103531257Y-82927326D01*
X103531257Y-82927326D02*
X103578912Y-82879670D01*
X103578912Y-82879670D02*
X103602739Y-82832015D01*
X103602739Y-82832015D02*
X103626567Y-82736705D01*
X103626567Y-82736705D02*
X103626567Y-82665222D01*
X103626567Y-82665222D02*
X103602739Y-82569911D01*
X103602739Y-82569911D02*
X103578912Y-82522256D01*
X103578912Y-82522256D02*
X103531257Y-82474601D01*
X103531257Y-82474601D02*
X103459774Y-82450773D01*
X103459774Y-82450773D02*
X103412118Y-82450773D01*
X103412118Y-82450773D02*
X103340636Y-82474601D01*
X103340636Y-82474601D02*
X103316808Y-82498428D01*
D10*
X78916666Y-75029580D02*
X78964285Y-75077200D01*
X78964285Y-75077200D02*
X79107142Y-75124819D01*
X79107142Y-75124819D02*
X79202380Y-75124819D01*
X79202380Y-75124819D02*
X79345237Y-75077200D01*
X79345237Y-75077200D02*
X79440475Y-74981961D01*
X79440475Y-74981961D02*
X79488094Y-74886723D01*
X79488094Y-74886723D02*
X79535713Y-74696247D01*
X79535713Y-74696247D02*
X79535713Y-74553390D01*
X79535713Y-74553390D02*
X79488094Y-74362914D01*
X79488094Y-74362914D02*
X79440475Y-74267676D01*
X79440475Y-74267676D02*
X79345237Y-74172438D01*
X79345237Y-74172438D02*
X79202380Y-74124819D01*
X79202380Y-74124819D02*
X79107142Y-74124819D01*
X79107142Y-74124819D02*
X78964285Y-74172438D01*
X78964285Y-74172438D02*
X78916666Y-74220057D01*
X78059523Y-74458152D02*
X78059523Y-75124819D01*
X78297618Y-74077200D02*
X78535713Y-74791485D01*
X78535713Y-74791485D02*
X77916666Y-74791485D01*
X227354666Y-51379580D02*
X227402285Y-51427200D01*
X227402285Y-51427200D02*
X227545142Y-51474819D01*
X227545142Y-51474819D02*
X227640380Y-51474819D01*
X227640380Y-51474819D02*
X227783237Y-51427200D01*
X227783237Y-51427200D02*
X227878475Y-51331961D01*
X227878475Y-51331961D02*
X227926094Y-51236723D01*
X227926094Y-51236723D02*
X227973713Y-51046247D01*
X227973713Y-51046247D02*
X227973713Y-50903390D01*
X227973713Y-50903390D02*
X227926094Y-50712914D01*
X227926094Y-50712914D02*
X227878475Y-50617676D01*
X227878475Y-50617676D02*
X227783237Y-50522438D01*
X227783237Y-50522438D02*
X227640380Y-50474819D01*
X227640380Y-50474819D02*
X227545142Y-50474819D01*
X227545142Y-50474819D02*
X227402285Y-50522438D01*
X227402285Y-50522438D02*
X227354666Y-50570057D01*
X227021332Y-50474819D02*
X226402285Y-50474819D01*
X226402285Y-50474819D02*
X226735618Y-50855771D01*
X226735618Y-50855771D02*
X226592761Y-50855771D01*
X226592761Y-50855771D02*
X226497523Y-50903390D01*
X226497523Y-50903390D02*
X226449904Y-50951009D01*
X226449904Y-50951009D02*
X226402285Y-51046247D01*
X226402285Y-51046247D02*
X226402285Y-51284342D01*
X226402285Y-51284342D02*
X226449904Y-51379580D01*
X226449904Y-51379580D02*
X226497523Y-51427200D01*
X226497523Y-51427200D02*
X226592761Y-51474819D01*
X226592761Y-51474819D02*
X226878475Y-51474819D01*
X226878475Y-51474819D02*
X226973713Y-51427200D01*
X226973713Y-51427200D02*
X227021332Y-51379580D01*
X68616666Y-116209580D02*
X68664285Y-116257200D01*
X68664285Y-116257200D02*
X68807142Y-116304819D01*
X68807142Y-116304819D02*
X68902380Y-116304819D01*
X68902380Y-116304819D02*
X69045237Y-116257200D01*
X69045237Y-116257200D02*
X69140475Y-116161961D01*
X69140475Y-116161961D02*
X69188094Y-116066723D01*
X69188094Y-116066723D02*
X69235713Y-115876247D01*
X69235713Y-115876247D02*
X69235713Y-115733390D01*
X69235713Y-115733390D02*
X69188094Y-115542914D01*
X69188094Y-115542914D02*
X69140475Y-115447676D01*
X69140475Y-115447676D02*
X69045237Y-115352438D01*
X69045237Y-115352438D02*
X68902380Y-115304819D01*
X68902380Y-115304819D02*
X68807142Y-115304819D01*
X68807142Y-115304819D02*
X68664285Y-115352438D01*
X68664285Y-115352438D02*
X68616666Y-115400057D01*
X68140475Y-116304819D02*
X67949999Y-116304819D01*
X67949999Y-116304819D02*
X67854761Y-116257200D01*
X67854761Y-116257200D02*
X67807142Y-116209580D01*
X67807142Y-116209580D02*
X67711904Y-116066723D01*
X67711904Y-116066723D02*
X67664285Y-115876247D01*
X67664285Y-115876247D02*
X67664285Y-115495295D01*
X67664285Y-115495295D02*
X67711904Y-115400057D01*
X67711904Y-115400057D02*
X67759523Y-115352438D01*
X67759523Y-115352438D02*
X67854761Y-115304819D01*
X67854761Y-115304819D02*
X68045237Y-115304819D01*
X68045237Y-115304819D02*
X68140475Y-115352438D01*
X68140475Y-115352438D02*
X68188094Y-115400057D01*
X68188094Y-115400057D02*
X68235713Y-115495295D01*
X68235713Y-115495295D02*
X68235713Y-115733390D01*
X68235713Y-115733390D02*
X68188094Y-115828628D01*
X68188094Y-115828628D02*
X68140475Y-115876247D01*
X68140475Y-115876247D02*
X68045237Y-115923866D01*
X68045237Y-115923866D02*
X67854761Y-115923866D01*
X67854761Y-115923866D02*
X67759523Y-115876247D01*
X67759523Y-115876247D02*
X67711904Y-115828628D01*
X67711904Y-115828628D02*
X67664285Y-115733390D01*
X74957466Y-109741580D02*
X75005085Y-109789200D01*
X75005085Y-109789200D02*
X75147942Y-109836819D01*
X75147942Y-109836819D02*
X75243180Y-109836819D01*
X75243180Y-109836819D02*
X75386037Y-109789200D01*
X75386037Y-109789200D02*
X75481275Y-109693961D01*
X75481275Y-109693961D02*
X75528894Y-109598723D01*
X75528894Y-109598723D02*
X75576513Y-109408247D01*
X75576513Y-109408247D02*
X75576513Y-109265390D01*
X75576513Y-109265390D02*
X75528894Y-109074914D01*
X75528894Y-109074914D02*
X75481275Y-108979676D01*
X75481275Y-108979676D02*
X75386037Y-108884438D01*
X75386037Y-108884438D02*
X75243180Y-108836819D01*
X75243180Y-108836819D02*
X75147942Y-108836819D01*
X75147942Y-108836819D02*
X75005085Y-108884438D01*
X75005085Y-108884438D02*
X74957466Y-108932057D01*
X74100323Y-108836819D02*
X74290799Y-108836819D01*
X74290799Y-108836819D02*
X74386037Y-108884438D01*
X74386037Y-108884438D02*
X74433656Y-108932057D01*
X74433656Y-108932057D02*
X74528894Y-109074914D01*
X74528894Y-109074914D02*
X74576513Y-109265390D01*
X74576513Y-109265390D02*
X74576513Y-109646342D01*
X74576513Y-109646342D02*
X74528894Y-109741580D01*
X74528894Y-109741580D02*
X74481275Y-109789200D01*
X74481275Y-109789200D02*
X74386037Y-109836819D01*
X74386037Y-109836819D02*
X74195561Y-109836819D01*
X74195561Y-109836819D02*
X74100323Y-109789200D01*
X74100323Y-109789200D02*
X74052704Y-109741580D01*
X74052704Y-109741580D02*
X74005085Y-109646342D01*
X74005085Y-109646342D02*
X74005085Y-109408247D01*
X74005085Y-109408247D02*
X74052704Y-109313009D01*
X74052704Y-109313009D02*
X74100323Y-109265390D01*
X74100323Y-109265390D02*
X74195561Y-109217771D01*
X74195561Y-109217771D02*
X74386037Y-109217771D01*
X74386037Y-109217771D02*
X74481275Y-109265390D01*
X74481275Y-109265390D02*
X74528894Y-109313009D01*
X74528894Y-109313009D02*
X74576513Y-109408247D01*
X81754819Y-78945833D02*
X81278628Y-78612500D01*
X81754819Y-78374405D02*
X80754819Y-78374405D01*
X80754819Y-78374405D02*
X80754819Y-78755357D01*
X80754819Y-78755357D02*
X80802438Y-78850595D01*
X80802438Y-78850595D02*
X80850057Y-78898214D01*
X80850057Y-78898214D02*
X80945295Y-78945833D01*
X80945295Y-78945833D02*
X81088152Y-78945833D01*
X81088152Y-78945833D02*
X81183390Y-78898214D01*
X81183390Y-78898214D02*
X81231009Y-78850595D01*
X81231009Y-78850595D02*
X81278628Y-78755357D01*
X81278628Y-78755357D02*
X81278628Y-78374405D01*
X81088152Y-79802976D02*
X81754819Y-79802976D01*
X80707200Y-79564881D02*
X81421485Y-79326786D01*
X81421485Y-79326786D02*
X81421485Y-79945833D01*
X66730357Y-65204819D02*
X67063690Y-64728628D01*
X67301785Y-65204819D02*
X67301785Y-64204819D01*
X67301785Y-64204819D02*
X66920833Y-64204819D01*
X66920833Y-64204819D02*
X66825595Y-64252438D01*
X66825595Y-64252438D02*
X66777976Y-64300057D01*
X66777976Y-64300057D02*
X66730357Y-64395295D01*
X66730357Y-64395295D02*
X66730357Y-64538152D01*
X66730357Y-64538152D02*
X66777976Y-64633390D01*
X66777976Y-64633390D02*
X66825595Y-64681009D01*
X66825595Y-64681009D02*
X66920833Y-64728628D01*
X66920833Y-64728628D02*
X67301785Y-64728628D01*
X65777976Y-65204819D02*
X66349404Y-65204819D01*
X66063690Y-65204819D02*
X66063690Y-64204819D01*
X66063690Y-64204819D02*
X66158928Y-64347676D01*
X66158928Y-64347676D02*
X66254166Y-64442914D01*
X66254166Y-64442914D02*
X66349404Y-64490533D01*
X65158928Y-64204819D02*
X65063690Y-64204819D01*
X65063690Y-64204819D02*
X64968452Y-64252438D01*
X64968452Y-64252438D02*
X64920833Y-64300057D01*
X64920833Y-64300057D02*
X64873214Y-64395295D01*
X64873214Y-64395295D02*
X64825595Y-64585771D01*
X64825595Y-64585771D02*
X64825595Y-64823866D01*
X64825595Y-64823866D02*
X64873214Y-65014342D01*
X64873214Y-65014342D02*
X64920833Y-65109580D01*
X64920833Y-65109580D02*
X64968452Y-65157200D01*
X64968452Y-65157200D02*
X65063690Y-65204819D01*
X65063690Y-65204819D02*
X65158928Y-65204819D01*
X65158928Y-65204819D02*
X65254166Y-65157200D01*
X65254166Y-65157200D02*
X65301785Y-65109580D01*
X65301785Y-65109580D02*
X65349404Y-65014342D01*
X65349404Y-65014342D02*
X65397023Y-64823866D01*
X65397023Y-64823866D02*
X65397023Y-64585771D01*
X65397023Y-64585771D02*
X65349404Y-64395295D01*
X65349404Y-64395295D02*
X65301785Y-64300057D01*
X65301785Y-64300057D02*
X65254166Y-64252438D01*
X65254166Y-64252438D02*
X65158928Y-64204819D01*
X82429580Y-68883333D02*
X82477200Y-68835714D01*
X82477200Y-68835714D02*
X82524819Y-68692857D01*
X82524819Y-68692857D02*
X82524819Y-68597619D01*
X82524819Y-68597619D02*
X82477200Y-68454762D01*
X82477200Y-68454762D02*
X82381961Y-68359524D01*
X82381961Y-68359524D02*
X82286723Y-68311905D01*
X82286723Y-68311905D02*
X82096247Y-68264286D01*
X82096247Y-68264286D02*
X81953390Y-68264286D01*
X81953390Y-68264286D02*
X81762914Y-68311905D01*
X81762914Y-68311905D02*
X81667676Y-68359524D01*
X81667676Y-68359524D02*
X81572438Y-68454762D01*
X81572438Y-68454762D02*
X81524819Y-68597619D01*
X81524819Y-68597619D02*
X81524819Y-68692857D01*
X81524819Y-68692857D02*
X81572438Y-68835714D01*
X81572438Y-68835714D02*
X81620057Y-68883333D01*
X81953390Y-69454762D02*
X81905771Y-69359524D01*
X81905771Y-69359524D02*
X81858152Y-69311905D01*
X81858152Y-69311905D02*
X81762914Y-69264286D01*
X81762914Y-69264286D02*
X81715295Y-69264286D01*
X81715295Y-69264286D02*
X81620057Y-69311905D01*
X81620057Y-69311905D02*
X81572438Y-69359524D01*
X81572438Y-69359524D02*
X81524819Y-69454762D01*
X81524819Y-69454762D02*
X81524819Y-69645238D01*
X81524819Y-69645238D02*
X81572438Y-69740476D01*
X81572438Y-69740476D02*
X81620057Y-69788095D01*
X81620057Y-69788095D02*
X81715295Y-69835714D01*
X81715295Y-69835714D02*
X81762914Y-69835714D01*
X81762914Y-69835714D02*
X81858152Y-69788095D01*
X81858152Y-69788095D02*
X81905771Y-69740476D01*
X81905771Y-69740476D02*
X81953390Y-69645238D01*
X81953390Y-69645238D02*
X81953390Y-69454762D01*
X81953390Y-69454762D02*
X82001009Y-69359524D01*
X82001009Y-69359524D02*
X82048628Y-69311905D01*
X82048628Y-69311905D02*
X82143866Y-69264286D01*
X82143866Y-69264286D02*
X82334342Y-69264286D01*
X82334342Y-69264286D02*
X82429580Y-69311905D01*
X82429580Y-69311905D02*
X82477200Y-69359524D01*
X82477200Y-69359524D02*
X82524819Y-69454762D01*
X82524819Y-69454762D02*
X82524819Y-69645238D01*
X82524819Y-69645238D02*
X82477200Y-69740476D01*
X82477200Y-69740476D02*
X82429580Y-69788095D01*
X82429580Y-69788095D02*
X82334342Y-69835714D01*
X82334342Y-69835714D02*
X82143866Y-69835714D01*
X82143866Y-69835714D02*
X82048628Y-69788095D01*
X82048628Y-69788095D02*
X82001009Y-69740476D01*
X82001009Y-69740476D02*
X81953390Y-69645238D01*
X76092857Y-116529580D02*
X76140476Y-116577200D01*
X76140476Y-116577200D02*
X76283333Y-116624819D01*
X76283333Y-116624819D02*
X76378571Y-116624819D01*
X76378571Y-116624819D02*
X76521428Y-116577200D01*
X76521428Y-116577200D02*
X76616666Y-116481961D01*
X76616666Y-116481961D02*
X76664285Y-116386723D01*
X76664285Y-116386723D02*
X76711904Y-116196247D01*
X76711904Y-116196247D02*
X76711904Y-116053390D01*
X76711904Y-116053390D02*
X76664285Y-115862914D01*
X76664285Y-115862914D02*
X76616666Y-115767676D01*
X76616666Y-115767676D02*
X76521428Y-115672438D01*
X76521428Y-115672438D02*
X76378571Y-115624819D01*
X76378571Y-115624819D02*
X76283333Y-115624819D01*
X76283333Y-115624819D02*
X76140476Y-115672438D01*
X76140476Y-115672438D02*
X76092857Y-115720057D01*
X75140476Y-116624819D02*
X75711904Y-116624819D01*
X75426190Y-116624819D02*
X75426190Y-115624819D01*
X75426190Y-115624819D02*
X75521428Y-115767676D01*
X75521428Y-115767676D02*
X75616666Y-115862914D01*
X75616666Y-115862914D02*
X75711904Y-115910533D01*
X74188095Y-116624819D02*
X74759523Y-116624819D01*
X74473809Y-116624819D02*
X74473809Y-115624819D01*
X74473809Y-115624819D02*
X74569047Y-115767676D01*
X74569047Y-115767676D02*
X74664285Y-115862914D01*
X74664285Y-115862914D02*
X74759523Y-115910533D01*
X147342857Y-133789580D02*
X147390476Y-133837200D01*
X147390476Y-133837200D02*
X147533333Y-133884819D01*
X147533333Y-133884819D02*
X147628571Y-133884819D01*
X147628571Y-133884819D02*
X147771428Y-133837200D01*
X147771428Y-133837200D02*
X147866666Y-133741961D01*
X147866666Y-133741961D02*
X147914285Y-133646723D01*
X147914285Y-133646723D02*
X147961904Y-133456247D01*
X147961904Y-133456247D02*
X147961904Y-133313390D01*
X147961904Y-133313390D02*
X147914285Y-133122914D01*
X147914285Y-133122914D02*
X147866666Y-133027676D01*
X147866666Y-133027676D02*
X147771428Y-132932438D01*
X147771428Y-132932438D02*
X147628571Y-132884819D01*
X147628571Y-132884819D02*
X147533333Y-132884819D01*
X147533333Y-132884819D02*
X147390476Y-132932438D01*
X147390476Y-132932438D02*
X147342857Y-132980057D01*
X146390476Y-133884819D02*
X146961904Y-133884819D01*
X146676190Y-133884819D02*
X146676190Y-132884819D01*
X146676190Y-132884819D02*
X146771428Y-133027676D01*
X146771428Y-133027676D02*
X146866666Y-133122914D01*
X146866666Y-133122914D02*
X146961904Y-133170533D01*
X145819047Y-133313390D02*
X145914285Y-133265771D01*
X145914285Y-133265771D02*
X145961904Y-133218152D01*
X145961904Y-133218152D02*
X146009523Y-133122914D01*
X146009523Y-133122914D02*
X146009523Y-133075295D01*
X146009523Y-133075295D02*
X145961904Y-132980057D01*
X145961904Y-132980057D02*
X145914285Y-132932438D01*
X145914285Y-132932438D02*
X145819047Y-132884819D01*
X145819047Y-132884819D02*
X145628571Y-132884819D01*
X145628571Y-132884819D02*
X145533333Y-132932438D01*
X145533333Y-132932438D02*
X145485714Y-132980057D01*
X145485714Y-132980057D02*
X145438095Y-133075295D01*
X145438095Y-133075295D02*
X145438095Y-133122914D01*
X145438095Y-133122914D02*
X145485714Y-133218152D01*
X145485714Y-133218152D02*
X145533333Y-133265771D01*
X145533333Y-133265771D02*
X145628571Y-133313390D01*
X145628571Y-133313390D02*
X145819047Y-133313390D01*
X145819047Y-133313390D02*
X145914285Y-133361009D01*
X145914285Y-133361009D02*
X145961904Y-133408628D01*
X145961904Y-133408628D02*
X146009523Y-133503866D01*
X146009523Y-133503866D02*
X146009523Y-133694342D01*
X146009523Y-133694342D02*
X145961904Y-133789580D01*
X145961904Y-133789580D02*
X145914285Y-133837200D01*
X145914285Y-133837200D02*
X145819047Y-133884819D01*
X145819047Y-133884819D02*
X145628571Y-133884819D01*
X145628571Y-133884819D02*
X145533333Y-133837200D01*
X145533333Y-133837200D02*
X145485714Y-133789580D01*
X145485714Y-133789580D02*
X145438095Y-133694342D01*
X145438095Y-133694342D02*
X145438095Y-133503866D01*
X145438095Y-133503866D02*
X145485714Y-133408628D01*
X145485714Y-133408628D02*
X145533333Y-133361009D01*
X145533333Y-133361009D02*
X145628571Y-133313390D01*
X73033333Y-69104819D02*
X73033333Y-69819104D01*
X73033333Y-69819104D02*
X73080952Y-69961961D01*
X73080952Y-69961961D02*
X73176190Y-70057200D01*
X73176190Y-70057200D02*
X73319047Y-70104819D01*
X73319047Y-70104819D02*
X73414285Y-70104819D01*
X72557142Y-70104819D02*
X72557142Y-69104819D01*
X72557142Y-69104819D02*
X72176190Y-69104819D01*
X72176190Y-69104819D02*
X72080952Y-69152438D01*
X72080952Y-69152438D02*
X72033333Y-69200057D01*
X72033333Y-69200057D02*
X71985714Y-69295295D01*
X71985714Y-69295295D02*
X71985714Y-69438152D01*
X71985714Y-69438152D02*
X72033333Y-69533390D01*
X72033333Y-69533390D02*
X72080952Y-69581009D01*
X72080952Y-69581009D02*
X72176190Y-69628628D01*
X72176190Y-69628628D02*
X72557142Y-69628628D01*
X71033333Y-70104819D02*
X71604761Y-70104819D01*
X71319047Y-70104819D02*
X71319047Y-69104819D01*
X71319047Y-69104819D02*
X71414285Y-69247676D01*
X71414285Y-69247676D02*
X71509523Y-69342914D01*
X71509523Y-69342914D02*
X71604761Y-69390533D01*
X227358166Y-58657819D02*
X227691499Y-58181628D01*
X227929594Y-58657819D02*
X227929594Y-57657819D01*
X227929594Y-57657819D02*
X227548642Y-57657819D01*
X227548642Y-57657819D02*
X227453404Y-57705438D01*
X227453404Y-57705438D02*
X227405785Y-57753057D01*
X227405785Y-57753057D02*
X227358166Y-57848295D01*
X227358166Y-57848295D02*
X227358166Y-57991152D01*
X227358166Y-57991152D02*
X227405785Y-58086390D01*
X227405785Y-58086390D02*
X227453404Y-58134009D01*
X227453404Y-58134009D02*
X227548642Y-58181628D01*
X227548642Y-58181628D02*
X227929594Y-58181628D01*
X227024832Y-57657819D02*
X226405785Y-57657819D01*
X226405785Y-57657819D02*
X226739118Y-58038771D01*
X226739118Y-58038771D02*
X226596261Y-58038771D01*
X226596261Y-58038771D02*
X226501023Y-58086390D01*
X226501023Y-58086390D02*
X226453404Y-58134009D01*
X226453404Y-58134009D02*
X226405785Y-58229247D01*
X226405785Y-58229247D02*
X226405785Y-58467342D01*
X226405785Y-58467342D02*
X226453404Y-58562580D01*
X226453404Y-58562580D02*
X226501023Y-58610200D01*
X226501023Y-58610200D02*
X226596261Y-58657819D01*
X226596261Y-58657819D02*
X226881975Y-58657819D01*
X226881975Y-58657819D02*
X226977213Y-58610200D01*
X226977213Y-58610200D02*
X227024832Y-58562580D01*
X152722266Y-61856990D02*
X152388933Y-61856990D01*
X152388933Y-61333180D02*
X152388933Y-62333180D01*
X152388933Y-62333180D02*
X152865123Y-62333180D01*
X153198457Y-62237942D02*
X153246076Y-62285561D01*
X153246076Y-62285561D02*
X153341314Y-62333180D01*
X153341314Y-62333180D02*
X153579409Y-62333180D01*
X153579409Y-62333180D02*
X153674647Y-62285561D01*
X153674647Y-62285561D02*
X153722266Y-62237942D01*
X153722266Y-62237942D02*
X153769885Y-62142704D01*
X153769885Y-62142704D02*
X153769885Y-62047466D01*
X153769885Y-62047466D02*
X153722266Y-61904609D01*
X153722266Y-61904609D02*
X153150838Y-61333180D01*
X153150838Y-61333180D02*
X153769885Y-61333180D01*
X227352448Y-56739601D02*
X227685781Y-56263410D01*
X227923876Y-56739601D02*
X227923876Y-55739601D01*
X227923876Y-55739601D02*
X227542924Y-55739601D01*
X227542924Y-55739601D02*
X227447686Y-55787220D01*
X227447686Y-55787220D02*
X227400067Y-55834839D01*
X227400067Y-55834839D02*
X227352448Y-55930077D01*
X227352448Y-55930077D02*
X227352448Y-56072934D01*
X227352448Y-56072934D02*
X227400067Y-56168172D01*
X227400067Y-56168172D02*
X227447686Y-56215791D01*
X227447686Y-56215791D02*
X227542924Y-56263410D01*
X227542924Y-56263410D02*
X227923876Y-56263410D01*
X226971495Y-55834839D02*
X226923876Y-55787220D01*
X226923876Y-55787220D02*
X226828638Y-55739601D01*
X226828638Y-55739601D02*
X226590543Y-55739601D01*
X226590543Y-55739601D02*
X226495305Y-55787220D01*
X226495305Y-55787220D02*
X226447686Y-55834839D01*
X226447686Y-55834839D02*
X226400067Y-55930077D01*
X226400067Y-55930077D02*
X226400067Y-56025315D01*
X226400067Y-56025315D02*
X226447686Y-56168172D01*
X226447686Y-56168172D02*
X227019114Y-56739601D01*
X227019114Y-56739601D02*
X226400067Y-56739601D01*
X106317857Y-79479819D02*
X106651190Y-79003628D01*
X106889285Y-79479819D02*
X106889285Y-78479819D01*
X106889285Y-78479819D02*
X106508333Y-78479819D01*
X106508333Y-78479819D02*
X106413095Y-78527438D01*
X106413095Y-78527438D02*
X106365476Y-78575057D01*
X106365476Y-78575057D02*
X106317857Y-78670295D01*
X106317857Y-78670295D02*
X106317857Y-78813152D01*
X106317857Y-78813152D02*
X106365476Y-78908390D01*
X106365476Y-78908390D02*
X106413095Y-78956009D01*
X106413095Y-78956009D02*
X106508333Y-79003628D01*
X106508333Y-79003628D02*
X106889285Y-79003628D01*
X105936904Y-78575057D02*
X105889285Y-78527438D01*
X105889285Y-78527438D02*
X105794047Y-78479819D01*
X105794047Y-78479819D02*
X105555952Y-78479819D01*
X105555952Y-78479819D02*
X105460714Y-78527438D01*
X105460714Y-78527438D02*
X105413095Y-78575057D01*
X105413095Y-78575057D02*
X105365476Y-78670295D01*
X105365476Y-78670295D02*
X105365476Y-78765533D01*
X105365476Y-78765533D02*
X105413095Y-78908390D01*
X105413095Y-78908390D02*
X105984523Y-79479819D01*
X105984523Y-79479819D02*
X105365476Y-79479819D01*
X105032142Y-78479819D02*
X104365476Y-78479819D01*
X104365476Y-78479819D02*
X104794047Y-79479819D01*
X72892857Y-120529580D02*
X72940476Y-120577200D01*
X72940476Y-120577200D02*
X73083333Y-120624819D01*
X73083333Y-120624819D02*
X73178571Y-120624819D01*
X73178571Y-120624819D02*
X73321428Y-120577200D01*
X73321428Y-120577200D02*
X73416666Y-120481961D01*
X73416666Y-120481961D02*
X73464285Y-120386723D01*
X73464285Y-120386723D02*
X73511904Y-120196247D01*
X73511904Y-120196247D02*
X73511904Y-120053390D01*
X73511904Y-120053390D02*
X73464285Y-119862914D01*
X73464285Y-119862914D02*
X73416666Y-119767676D01*
X73416666Y-119767676D02*
X73321428Y-119672438D01*
X73321428Y-119672438D02*
X73178571Y-119624819D01*
X73178571Y-119624819D02*
X73083333Y-119624819D01*
X73083333Y-119624819D02*
X72940476Y-119672438D01*
X72940476Y-119672438D02*
X72892857Y-119720057D01*
X71940476Y-120624819D02*
X72511904Y-120624819D01*
X72226190Y-120624819D02*
X72226190Y-119624819D01*
X72226190Y-119624819D02*
X72321428Y-119767676D01*
X72321428Y-119767676D02*
X72416666Y-119862914D01*
X72416666Y-119862914D02*
X72511904Y-119910533D01*
X71321428Y-119624819D02*
X71226190Y-119624819D01*
X71226190Y-119624819D02*
X71130952Y-119672438D01*
X71130952Y-119672438D02*
X71083333Y-119720057D01*
X71083333Y-119720057D02*
X71035714Y-119815295D01*
X71035714Y-119815295D02*
X70988095Y-120005771D01*
X70988095Y-120005771D02*
X70988095Y-120243866D01*
X70988095Y-120243866D02*
X71035714Y-120434342D01*
X71035714Y-120434342D02*
X71083333Y-120529580D01*
X71083333Y-120529580D02*
X71130952Y-120577200D01*
X71130952Y-120577200D02*
X71226190Y-120624819D01*
X71226190Y-120624819D02*
X71321428Y-120624819D01*
X71321428Y-120624819D02*
X71416666Y-120577200D01*
X71416666Y-120577200D02*
X71464285Y-120529580D01*
X71464285Y-120529580D02*
X71511904Y-120434342D01*
X71511904Y-120434342D02*
X71559523Y-120243866D01*
X71559523Y-120243866D02*
X71559523Y-120005771D01*
X71559523Y-120005771D02*
X71511904Y-119815295D01*
X71511904Y-119815295D02*
X71464285Y-119720057D01*
X71464285Y-119720057D02*
X71416666Y-119672438D01*
X71416666Y-119672438D02*
X71321428Y-119624819D01*
X74392857Y-78389580D02*
X74440476Y-78437200D01*
X74440476Y-78437200D02*
X74583333Y-78484819D01*
X74583333Y-78484819D02*
X74678571Y-78484819D01*
X74678571Y-78484819D02*
X74821428Y-78437200D01*
X74821428Y-78437200D02*
X74916666Y-78341961D01*
X74916666Y-78341961D02*
X74964285Y-78246723D01*
X74964285Y-78246723D02*
X75011904Y-78056247D01*
X75011904Y-78056247D02*
X75011904Y-77913390D01*
X75011904Y-77913390D02*
X74964285Y-77722914D01*
X74964285Y-77722914D02*
X74916666Y-77627676D01*
X74916666Y-77627676D02*
X74821428Y-77532438D01*
X74821428Y-77532438D02*
X74678571Y-77484819D01*
X74678571Y-77484819D02*
X74583333Y-77484819D01*
X74583333Y-77484819D02*
X74440476Y-77532438D01*
X74440476Y-77532438D02*
X74392857Y-77580057D01*
X73440476Y-78484819D02*
X74011904Y-78484819D01*
X73726190Y-78484819D02*
X73726190Y-77484819D01*
X73726190Y-77484819D02*
X73821428Y-77627676D01*
X73821428Y-77627676D02*
X73916666Y-77722914D01*
X73916666Y-77722914D02*
X74011904Y-77770533D01*
X72583333Y-77818152D02*
X72583333Y-78484819D01*
X72821428Y-77437200D02*
X73059523Y-78151485D01*
X73059523Y-78151485D02*
X72440476Y-78151485D01*
X80916666Y-73029580D02*
X80964285Y-73077200D01*
X80964285Y-73077200D02*
X81107142Y-73124819D01*
X81107142Y-73124819D02*
X81202380Y-73124819D01*
X81202380Y-73124819D02*
X81345237Y-73077200D01*
X81345237Y-73077200D02*
X81440475Y-72981961D01*
X81440475Y-72981961D02*
X81488094Y-72886723D01*
X81488094Y-72886723D02*
X81535713Y-72696247D01*
X81535713Y-72696247D02*
X81535713Y-72553390D01*
X81535713Y-72553390D02*
X81488094Y-72362914D01*
X81488094Y-72362914D02*
X81440475Y-72267676D01*
X81440475Y-72267676D02*
X81345237Y-72172438D01*
X81345237Y-72172438D02*
X81202380Y-72124819D01*
X81202380Y-72124819D02*
X81107142Y-72124819D01*
X81107142Y-72124819D02*
X80964285Y-72172438D01*
X80964285Y-72172438D02*
X80916666Y-72220057D01*
X79964285Y-73124819D02*
X80535713Y-73124819D01*
X80249999Y-73124819D02*
X80249999Y-72124819D01*
X80249999Y-72124819D02*
X80345237Y-72267676D01*
X80345237Y-72267676D02*
X80440475Y-72362914D01*
X80440475Y-72362914D02*
X80535713Y-72410533D01*
X78104819Y-58282142D02*
X77628628Y-57948809D01*
X78104819Y-57710714D02*
X77104819Y-57710714D01*
X77104819Y-57710714D02*
X77104819Y-58091666D01*
X77104819Y-58091666D02*
X77152438Y-58186904D01*
X77152438Y-58186904D02*
X77200057Y-58234523D01*
X77200057Y-58234523D02*
X77295295Y-58282142D01*
X77295295Y-58282142D02*
X77438152Y-58282142D01*
X77438152Y-58282142D02*
X77533390Y-58234523D01*
X77533390Y-58234523D02*
X77581009Y-58186904D01*
X77581009Y-58186904D02*
X77628628Y-58091666D01*
X77628628Y-58091666D02*
X77628628Y-57710714D01*
X78104819Y-59234523D02*
X78104819Y-58663095D01*
X78104819Y-58948809D02*
X77104819Y-58948809D01*
X77104819Y-58948809D02*
X77247676Y-58853571D01*
X77247676Y-58853571D02*
X77342914Y-58758333D01*
X77342914Y-58758333D02*
X77390533Y-58663095D01*
X77200057Y-59615476D02*
X77152438Y-59663095D01*
X77152438Y-59663095D02*
X77104819Y-59758333D01*
X77104819Y-59758333D02*
X77104819Y-59996428D01*
X77104819Y-59996428D02*
X77152438Y-60091666D01*
X77152438Y-60091666D02*
X77200057Y-60139285D01*
X77200057Y-60139285D02*
X77295295Y-60186904D01*
X77295295Y-60186904D02*
X77390533Y-60186904D01*
X77390533Y-60186904D02*
X77533390Y-60139285D01*
X77533390Y-60139285D02*
X78104819Y-59567857D01*
X78104819Y-59567857D02*
X78104819Y-60186904D01*
X80109580Y-58357142D02*
X80157200Y-58309523D01*
X80157200Y-58309523D02*
X80204819Y-58166666D01*
X80204819Y-58166666D02*
X80204819Y-58071428D01*
X80204819Y-58071428D02*
X80157200Y-57928571D01*
X80157200Y-57928571D02*
X80061961Y-57833333D01*
X80061961Y-57833333D02*
X79966723Y-57785714D01*
X79966723Y-57785714D02*
X79776247Y-57738095D01*
X79776247Y-57738095D02*
X79633390Y-57738095D01*
X79633390Y-57738095D02*
X79442914Y-57785714D01*
X79442914Y-57785714D02*
X79347676Y-57833333D01*
X79347676Y-57833333D02*
X79252438Y-57928571D01*
X79252438Y-57928571D02*
X79204819Y-58071428D01*
X79204819Y-58071428D02*
X79204819Y-58166666D01*
X79204819Y-58166666D02*
X79252438Y-58309523D01*
X79252438Y-58309523D02*
X79300057Y-58357142D01*
X80204819Y-59309523D02*
X80204819Y-58738095D01*
X80204819Y-59023809D02*
X79204819Y-59023809D01*
X79204819Y-59023809D02*
X79347676Y-58928571D01*
X79347676Y-58928571D02*
X79442914Y-58833333D01*
X79442914Y-58833333D02*
X79490533Y-58738095D01*
X79300057Y-59690476D02*
X79252438Y-59738095D01*
X79252438Y-59738095D02*
X79204819Y-59833333D01*
X79204819Y-59833333D02*
X79204819Y-60071428D01*
X79204819Y-60071428D02*
X79252438Y-60166666D01*
X79252438Y-60166666D02*
X79300057Y-60214285D01*
X79300057Y-60214285D02*
X79395295Y-60261904D01*
X79395295Y-60261904D02*
X79490533Y-60261904D01*
X79490533Y-60261904D02*
X79633390Y-60214285D01*
X79633390Y-60214285D02*
X80204819Y-59642857D01*
X80204819Y-59642857D02*
X80204819Y-60261904D01*
X78204819Y-110758333D02*
X78204819Y-110282143D01*
X78204819Y-110282143D02*
X77204819Y-110282143D01*
X78204819Y-111615476D02*
X78204819Y-111044048D01*
X78204819Y-111329762D02*
X77204819Y-111329762D01*
X77204819Y-111329762D02*
X77347676Y-111234524D01*
X77347676Y-111234524D02*
X77442914Y-111139286D01*
X77442914Y-111139286D02*
X77490533Y-111044048D01*
%TO.C,C13*%
D14*
X65465000Y-108161252D02*
X65465000Y-107638748D01*
X66935000Y-108161252D02*
X66935000Y-107638748D01*
%TO.C,R5*%
X67715000Y-108914564D02*
X67715000Y-108460436D01*
X69185000Y-108914564D02*
X69185000Y-108460436D01*
%TO.C,F1*%
X148029800Y-75017800D02*
X157979800Y-75017800D01*
X148029800Y-75477800D02*
X148029800Y-75017800D01*
X148029800Y-80267800D02*
X148029800Y-79807800D01*
X148029800Y-80267800D02*
X157979800Y-80267800D01*
X157979800Y-75017800D02*
X157979800Y-75477800D01*
X157979800Y-80267800D02*
X157979800Y-79807800D01*
%TO.C,L2*%
X89890000Y-109888748D02*
X89890000Y-110411252D01*
X92110000Y-109888748D02*
X92110000Y-110411252D01*
%TO.C,TH1*%
X74592936Y-48605000D02*
X75047064Y-48605000D01*
X74592936Y-50075000D02*
X75047064Y-50075000D01*
%TO.C,R6*%
X50185436Y-107515000D02*
X50639564Y-107515000D01*
X50185436Y-108985000D02*
X50639564Y-108985000D01*
%TO.C,U3*%
X94640000Y-108215000D02*
X93340000Y-108215000D01*
X94640000Y-110535000D02*
X93590000Y-110535000D01*
X93230000Y-110815000D02*
X92950000Y-110535000D01*
X93230000Y-110535000D01*
X93230000Y-110815000D01*
G36*
X93230000Y-110815000D02*
G01*
X92950000Y-110535000D01*
X93230000Y-110535000D01*
X93230000Y-110815000D01*
G37*
%TO.C,R25*%
X109564564Y-73565000D02*
X109110436Y-73565000D01*
X109564564Y-75035000D02*
X109110436Y-75035000D01*
%TO.C,R28*%
X99102500Y-73439564D02*
X99102500Y-72985436D01*
X100572500Y-73439564D02*
X100572500Y-72985436D01*
%TO.C,R26*%
X82927064Y-82640000D02*
X78572936Y-82640000D01*
X82927064Y-86060000D02*
X78572936Y-86060000D01*
%TO.C,Q5*%
X97277500Y-78865000D02*
X97277500Y-78915000D01*
X97277500Y-80035000D02*
X97277500Y-80815000D01*
X97277500Y-81935000D02*
X97277500Y-81985000D01*
X97277500Y-81985000D02*
X99097500Y-81985000D01*
X99097500Y-78865000D02*
X97277500Y-78865000D01*
X99097500Y-79865000D02*
X99097500Y-78865000D01*
X99097500Y-81985000D02*
X99097500Y-80985000D01*
X96737500Y-80805000D02*
X96497500Y-80475000D01*
X96977500Y-80475000D01*
X96737500Y-80805000D01*
G36*
X96737500Y-80805000D02*
G01*
X96497500Y-80475000D01*
X96977500Y-80475000D01*
X96737500Y-80805000D01*
G37*
%TO.C,R1*%
X81115000Y-79327064D02*
X81115000Y-78872936D01*
X82585000Y-79327064D02*
X82585000Y-78872936D01*
%TO.C,C17*%
X93938748Y-115515000D02*
X94461252Y-115515000D01*
X93938748Y-116985000D02*
X94461252Y-116985000D01*
%TO.C,C7*%
X71511252Y-106967000D02*
X70988748Y-106967000D01*
X71511252Y-108437000D02*
X70988748Y-108437000D01*
%TO.C,C2*%
X82538748Y-75615000D02*
X83061252Y-75615000D01*
X82538748Y-77085000D02*
X83061252Y-77085000D01*
%TO.C,U2*%
X69800000Y-109435000D02*
X69800000Y-109935000D01*
X70300000Y-109435000D02*
X69800000Y-109435000D01*
X72700000Y-112495000D02*
X73200000Y-112495000D01*
X72710000Y-109435000D02*
X73210000Y-109435000D01*
X73200000Y-112495000D02*
X73200000Y-111995000D01*
X73210000Y-109435000D02*
X73210000Y-109935000D01*
D15*
X69910000Y-112495000D02*
G75*
G02*
X69710000Y-112495000I-100000J0D01*
G01*
X69710000Y-112495000D02*
G75*
G02*
X69910000Y-112495000I100000J0D01*
G01*
%TO.C,Q4*%
D14*
X97277500Y-83315000D02*
X97277500Y-83365000D01*
X97277500Y-84485000D02*
X97277500Y-85265000D01*
X97277500Y-86385000D02*
X97277500Y-86435000D01*
X97277500Y-86435000D02*
X99097500Y-86435000D01*
X99097500Y-83315000D02*
X97277500Y-83315000D01*
X99097500Y-84315000D02*
X99097500Y-83315000D01*
X99097500Y-86435000D02*
X99097500Y-85435000D01*
X96737500Y-85255000D02*
X96497500Y-84925000D01*
X96977500Y-84925000D01*
X96737500Y-85255000D01*
G36*
X96737500Y-85255000D02*
G01*
X96497500Y-84925000D01*
X96977500Y-84925000D01*
X96737500Y-85255000D01*
G37*
%TO.C,R11*%
X75015000Y-62489564D02*
X75015000Y-62035436D01*
X76485000Y-62489564D02*
X76485000Y-62035436D01*
%TO.C,Q1*%
X69552500Y-60540000D02*
X69552500Y-60590000D01*
X69552500Y-61710000D02*
X69552500Y-62490000D01*
X69552500Y-63610000D02*
X69552500Y-63660000D01*
X69552500Y-63660000D02*
X71072500Y-63660000D01*
X71072500Y-60540000D02*
X69552500Y-60540000D01*
X71072500Y-61540000D02*
X71072500Y-60540000D01*
X71072500Y-63660000D02*
X71072500Y-62660000D01*
X69012500Y-62480000D02*
X68772500Y-62150000D01*
X69252500Y-62150000D01*
X69012500Y-62480000D01*
G36*
X69012500Y-62480000D02*
G01*
X68772500Y-62150000D01*
X69252500Y-62150000D01*
X69012500Y-62480000D01*
G37*
%TO.C,C16*%
X93938748Y-113540000D02*
X94461252Y-113540000D01*
X93938748Y-115010000D02*
X94461252Y-115010000D01*
%TO.C,U1*%
D10*
X77125000Y-66775000D02*
X77125000Y-71425000D01*
X77125000Y-66775000D02*
X77350000Y-66775000D01*
X77125000Y-71425000D02*
X77350000Y-71425000D01*
X77350000Y-66775000D02*
X77350000Y-65425000D01*
X82375000Y-66775000D02*
X82150000Y-66775000D01*
X82375000Y-66775000D02*
X82375000Y-71425000D01*
X82375000Y-71425000D02*
X82150000Y-71425000D01*
%TO.C,J1*%
D15*
X230254000Y-50358000D02*
X231534000Y-50358000D01*
X230254000Y-59938000D02*
X230254000Y-50358000D01*
X231534000Y-59938000D02*
X230254000Y-59938000D01*
X235504000Y-50358000D02*
X234254000Y-50358000D01*
X235504000Y-59938000D02*
X234254000Y-59938000D01*
%TO.C,TH2*%
D14*
X50181636Y-110151200D02*
X50635764Y-110151200D01*
X50181636Y-111621200D02*
X50635764Y-111621200D01*
%TO.C,C19*%
X109352500Y-71811252D02*
X109352500Y-71288748D01*
X110822500Y-71811252D02*
X110822500Y-71288748D01*
%TO.C,C5*%
X71661252Y-113365000D02*
X71138748Y-113365000D01*
X71661252Y-114835000D02*
X71138748Y-114835000D01*
%TO.C,U4*%
X145090000Y-124440000D02*
X145090000Y-129060000D01*
X145090000Y-129060000D02*
X145290000Y-129060000D01*
X145290000Y-124440000D02*
X145090000Y-124440000D01*
X150110000Y-129060000D02*
X150310000Y-129060000D01*
X150310000Y-124440000D02*
X150110000Y-124440000D01*
X150310000Y-129060000D02*
X150310000Y-124440000D01*
X145290000Y-123800000D02*
X144820000Y-124140000D01*
X144820000Y-123460000D01*
X145290000Y-123800000D01*
G36*
X145290000Y-123800000D02*
G01*
X144820000Y-124140000D01*
X144820000Y-123460000D01*
X145290000Y-123800000D01*
G37*
%TO.C,C15*%
X95765000Y-109313748D02*
X95765000Y-109836252D01*
X97235000Y-109313748D02*
X97235000Y-109836252D01*
%TO.C,U5*%
X103227500Y-73225000D02*
X104797500Y-73225000D01*
X103432500Y-75025000D02*
X104792500Y-75025000D01*
X103112500Y-75305000D02*
X102832500Y-75025000D01*
X103112500Y-75025000D01*
X103112500Y-75305000D01*
G36*
X103112500Y-75305000D02*
G01*
X102832500Y-75025000D01*
X103112500Y-75025000D01*
X103112500Y-75305000D01*
G37*
%TO.C,R29*%
X104110436Y-69640000D02*
X104564564Y-69640000D01*
X104110436Y-71110000D02*
X104564564Y-71110000D01*
%TO.C,R9*%
X97335436Y-111590000D02*
X97789564Y-111590000D01*
X97335436Y-113060000D02*
X97789564Y-113060000D01*
%TO.C,R7*%
X65465000Y-111285436D02*
X65465000Y-111739564D01*
X66935000Y-111285436D02*
X66935000Y-111739564D01*
%TO.C,R8*%
X93960436Y-111590000D02*
X94414564Y-111590000D01*
X93960436Y-113060000D02*
X94414564Y-113060000D01*
%TO.C,D11*%
D10*
X103206500Y-83232820D02*
X103206500Y-82216820D01*
X103206500Y-83232820D02*
X105810000Y-83232820D01*
X105810000Y-82216820D02*
X103206500Y-82216820D01*
X105810000Y-83232820D02*
X105810000Y-82216820D01*
X103523050Y-82374300D02*
G75*
G02*
X103204910Y-82374300I-159070J0D01*
G01*
X103204910Y-82374300D02*
G75*
G02*
X103523050Y-82374300I159070J0D01*
G01*
%TO.C,C4*%
D14*
X79011252Y-75615000D02*
X78488748Y-75615000D01*
X79011252Y-77085000D02*
X78488748Y-77085000D01*
%TO.C,C3*%
X227449252Y-51965000D02*
X226926748Y-51965000D01*
X227449252Y-53435000D02*
X226926748Y-53435000D01*
%TO.C,C9*%
X67715000Y-113038748D02*
X67715000Y-113561252D01*
X69185000Y-113038748D02*
X69185000Y-113561252D01*
%TO.C,C6*%
X74529548Y-106967000D02*
X75052052Y-106967000D01*
X74529548Y-108437000D02*
X75052052Y-108437000D01*
%TO.C,R4*%
X78915000Y-79339564D02*
X78915000Y-78885436D01*
X80385000Y-79339564D02*
X80385000Y-78885436D01*
%TO.C,R10*%
X65860436Y-62365000D02*
X66314564Y-62365000D01*
X65860436Y-63835000D02*
X66314564Y-63835000D01*
%TO.C,C8*%
X83015000Y-68788748D02*
X83015000Y-69311252D01*
X84485000Y-68788748D02*
X84485000Y-69311252D01*
%TO.C,C11*%
X71988748Y-115435000D02*
X72511252Y-115435000D01*
X71988748Y-116905000D02*
X72511252Y-116905000D01*
%TO.C,C18*%
X146438748Y-131015000D02*
X146961252Y-131015000D01*
X146438748Y-132485000D02*
X146961252Y-132485000D01*
%TO.C,JP1*%
X70150000Y-67550000D02*
X70150000Y-68150000D01*
X70700000Y-66350000D02*
X71300000Y-66350000D01*
X70800000Y-68850000D02*
X73600000Y-68850000D01*
X71000000Y-66650000D02*
X70700000Y-66350000D01*
X71000000Y-66650000D02*
X71300000Y-66350000D01*
X73600000Y-66850000D02*
X70800000Y-66850000D01*
X74250000Y-68150000D02*
X74250000Y-67550000D01*
X70150000Y-67550000D02*
G75*
G02*
X70850000Y-66850000I699999J1D01*
G01*
X70850000Y-68850000D02*
G75*
G02*
X70150000Y-68150000I-1J699999D01*
G01*
X73550000Y-66850000D02*
G75*
G02*
X74250000Y-67550000I0J-700000D01*
G01*
X74250000Y-68150000D02*
G75*
G02*
X73550000Y-68850000I-700000J0D01*
G01*
%TO.C,R3*%
X226964436Y-55818000D02*
X227418564Y-55818000D01*
X226964436Y-57288000D02*
X227418564Y-57288000D01*
%TO.C,F2*%
X148080600Y-55663000D02*
X158030600Y-55663000D01*
X148080600Y-56123000D02*
X148080600Y-55663000D01*
X148080600Y-60913000D02*
X148080600Y-60453000D01*
X148080600Y-60913000D02*
X158030600Y-60913000D01*
X158030600Y-55663000D02*
X158030600Y-56123000D01*
X158030600Y-60913000D02*
X158030600Y-60453000D01*
%TO.C,R2*%
X226958718Y-53899782D02*
X227412846Y-53899782D01*
X226958718Y-55369782D02*
X227412846Y-55369782D01*
%TO.C,R27*%
X105447936Y-76640000D02*
X105902064Y-76640000D01*
X105447936Y-78110000D02*
X105902064Y-78110000D01*
%TO.C,C10*%
X71988748Y-117435000D02*
X72511252Y-117435000D01*
X71988748Y-118905000D02*
X72511252Y-118905000D01*
%TO.C,C14*%
X73488748Y-75615000D02*
X74011252Y-75615000D01*
X73488748Y-77085000D02*
X74011252Y-77085000D01*
%TO.C,C1*%
X81011252Y-73615000D02*
X80488748Y-73615000D01*
X81011252Y-75085000D02*
X80488748Y-75085000D01*
%TO.C,R12*%
X76915000Y-62035436D02*
X76915000Y-62489564D01*
X78385000Y-62035436D02*
X78385000Y-62489564D01*
%TO.C,C12*%
X79015000Y-62511252D02*
X79015000Y-61988748D01*
X80485000Y-62511252D02*
X80485000Y-61988748D01*
%TO.C,L1*%
X74590000Y-111186252D02*
X74590000Y-110663748D01*
X76810000Y-111186252D02*
X76810000Y-110663748D01*
%TD*%
M02*
