%TF.GenerationSoftware,KiCad,Pcbnew,9.0.6+1*%
%TF.CreationDate,2026-01-18T19:40:09+00:00*%
%TF.ProjectId,LION1CELL02,4c494f4e-3143-4454-9c4c-30322e6b6963,rev?*%
%TF.SameCoordinates,Original*%
%TF.FileFunction,Paste,Top*%
%TF.FilePolarity,Positive*%
%FSLAX46Y46*%
G04 Gerber Fmt 4.6, Leading zero omitted, Abs format (unit mm)*
G04 Created by KiCad (PCBNEW 9.0.6+1) date 2026-01-18 19:40:09*
%MOMM*%
%LPD*%
G01*
G04 APERTURE LIST*
G04 Aperture macros list*
%AMRoundRect*
0 Rectangle with rounded corners*
0 $1 Rounding radius*
0 $2 $3 $4 $5 $6 $7 $8 $9 X,Y pos of 4 corners*
0 Add a 4 corners polygon primitive as box body*
4,1,4,$2,$3,$4,$5,$6,$7,$8,$9,$2,$3,0*
0 Add four circle primitives for the rounded corners*
1,1,$1+$1,$2,$3*
1,1,$1+$1,$4,$5*
1,1,$1+$1,$6,$7*
1,1,$1+$1,$8,$9*
0 Add four rect primitives between the rounded corners*
20,1,$1+$1,$2,$3,$4,$5,0*
20,1,$1+$1,$4,$5,$6,$7,0*
20,1,$1+$1,$6,$7,$8,$9,0*
20,1,$1+$1,$8,$9,$2,$3,0*%
G04 Aperture macros list end*
%ADD10RoundRect,0.150000X-0.512500X-0.150000X0.512500X-0.150000X0.512500X0.150000X-0.512500X0.150000X0*%
%ADD11RoundRect,0.250000X-0.250000X-0.475000X0.250000X-0.475000X0.250000X0.475000X-0.250000X0.475000X0*%
%ADD12RoundRect,0.250000X-0.262500X-0.450000X0.262500X-0.450000X0.262500X0.450000X-0.262500X0.450000X0*%
%ADD13R,4.240000X3.810000*%
%ADD14RoundRect,0.150000X-0.150000X-0.750000X0.150000X-0.750000X0.150000X0.750000X-0.150000X0.750000X0*%
%ADD15RoundRect,0.187500X-0.187500X-0.712500X0.187500X-0.712500X0.187500X0.712500X-0.187500X0.712500X0*%
%ADD16RoundRect,0.225000X-0.425000X-0.225000X0.425000X-0.225000X0.425000X0.225000X-0.425000X0.225000X0*%
%ADD17RoundRect,0.250000X-0.375000X-0.850000X0.375000X-0.850000X0.375000X0.850000X-0.375000X0.850000X0*%
%ADD18R,0.900000X1.000000*%
%ADD19RoundRect,0.050000X-0.285000X-0.100000X0.285000X-0.100000X0.285000X0.100000X-0.285000X0.100000X0*%
%ADD20RoundRect,0.250000X-0.362500X-1.425000X0.362500X-1.425000X0.362500X1.425000X-0.362500X1.425000X0*%
%ADD21RoundRect,0.050000X0.337500X-0.050000X0.337500X0.050000X-0.337500X0.050000X-0.337500X-0.050000X0*%
%ADD22RoundRect,0.050000X0.050000X0.337500X-0.050000X0.337500X-0.050000X-0.337500X0.050000X-0.337500X0*%
%ADD23RoundRect,0.050000X0.262500X-0.050000X0.262500X0.050000X-0.262500X0.050000X-0.262500X-0.050000X0*%
%ADD24RoundRect,0.050000X-0.337500X0.050000X-0.337500X-0.050000X0.337500X-0.050000X0.337500X0.050000X0*%
%ADD25RoundRect,0.050000X-0.050000X-0.262500X0.050000X-0.262500X0.050000X0.262500X-0.050000X0.262500X0*%
%ADD26RoundRect,0.050000X-0.050000X-0.450000X0.050000X-0.450000X0.050000X0.450000X-0.050000X0.450000X0*%
%ADD27RoundRect,0.050000X-0.050000X-0.337500X0.050000X-0.337500X0.050000X0.337500X-0.050000X0.337500X0*%
%ADD28RoundRect,0.050000X-0.362500X0.050000X-0.362500X-0.050000X0.362500X-0.050000X0.362500X0.050000X0*%
%ADD29RoundRect,0.050000X0.362500X-0.050000X0.362500X0.050000X-0.362500X0.050000X-0.362500X-0.050000X0*%
%ADD30RoundRect,0.150000X-0.587500X-0.150000X0.587500X-0.150000X0.587500X0.150000X-0.587500X0.150000X0*%
%ADD31R,1.450000X0.450000*%
%ADD32R,0.600000X1.150000*%
%ADD33R,0.300000X1.150000*%
%ADD34RoundRect,0.100000X-0.637500X-0.100000X0.637500X-0.100000X0.637500X0.100000X-0.637500X0.100000X0*%
%ADD35RoundRect,0.070000X-0.355000X0.070000X-0.355000X-0.070000X0.355000X-0.070000X0.355000X0.070000X0*%
%ADD36RoundRect,0.070000X-0.305000X0.070000X-0.305000X-0.070000X0.305000X-0.070000X0.305000X0.070000X0*%
G04 APERTURE END LIST*
D10*
%TO.C,Q3*%
X132452760Y-102009780D03*
X132452760Y-103909780D03*
X134727760Y-102959780D03*
%TD*%
D11*
%TO.C,C13*%
X123390260Y-112839780D03*
X125290260Y-112839780D03*
%TD*%
D12*
%TO.C,R5*%
X96907760Y-109559780D03*
X98732760Y-109559780D03*
%TD*%
D13*
%TO.C,F1*%
X149615260Y-111789780D03*
X155985260Y-111789780D03*
%TD*%
D14*
%TO.C,SW1*%
X143002000Y-113846000D03*
D15*
X141777000Y-113846000D03*
X144227000Y-113846000D03*
D16*
X141152000Y-115796000D03*
X144852000Y-115796000D03*
%TD*%
D10*
%TO.C,Q2*%
X132452760Y-97559780D03*
X132452760Y-99459780D03*
X134727760Y-98509780D03*
%TD*%
D17*
%TO.C,L2*%
X161475260Y-101909780D03*
X163625260Y-101909780D03*
%TD*%
D18*
%TO.C,D2*%
X140665260Y-100784780D03*
X142265260Y-100784780D03*
%TD*%
D12*
%TO.C,R18*%
X105727760Y-112509780D03*
X107552760Y-112509780D03*
%TD*%
D18*
%TO.C,D9*%
X144165260Y-106284780D03*
X145765260Y-106284780D03*
%TD*%
%TO.C,D4*%
X140665260Y-106284780D03*
X142265260Y-106284780D03*
%TD*%
D12*
%TO.C,TH1*%
X114547760Y-109559780D03*
X116372760Y-109559780D03*
%TD*%
D18*
%TO.C,D10*%
X144165260Y-109034780D03*
X145765260Y-109034780D03*
%TD*%
D12*
%TO.C,R6*%
X96907760Y-112509780D03*
X98732760Y-112509780D03*
%TD*%
D18*
%TO.C,D3*%
X140665260Y-103534780D03*
X142265260Y-103534780D03*
%TD*%
D12*
%TO.C,R21*%
X110137760Y-103659780D03*
X111962760Y-103659780D03*
%TD*%
D19*
%TO.C,U3*%
X159990260Y-121364780D03*
X159990260Y-121864780D03*
X159990260Y-122364780D03*
X159990260Y-122864780D03*
X161470260Y-122864780D03*
X161470260Y-122364780D03*
X161470260Y-121864780D03*
X161470260Y-121364780D03*
%TD*%
D12*
%TO.C,R25*%
X114547760Y-97759780D03*
X116372760Y-97759780D03*
%TD*%
D20*
%TO.C,R26*%
X160277760Y-117659780D03*
X166202760Y-117659780D03*
%TD*%
D10*
%TO.C,Q5*%
X132452760Y-110909780D03*
X132452760Y-112809780D03*
X134727760Y-111859780D03*
%TD*%
D12*
%TO.C,R1*%
X96907760Y-97759780D03*
X98732760Y-97759780D03*
%TD*%
D18*
%TO.C,D8*%
X144165260Y-103534780D03*
X145765260Y-103534780D03*
%TD*%
D11*
%TO.C,C17*%
X127840260Y-103809780D03*
X129740260Y-103809780D03*
%TD*%
D12*
%TO.C,R23*%
X110137760Y-109559780D03*
X111962760Y-109559780D03*
%TD*%
D11*
%TO.C,C7*%
X118940260Y-115849780D03*
X120840260Y-115849780D03*
%TD*%
D12*
%TO.C,R24*%
X110137760Y-112509780D03*
X111962760Y-112509780D03*
%TD*%
D11*
%TO.C,C2*%
X118940260Y-100799780D03*
X120840260Y-100799780D03*
%TD*%
D21*
%TO.C,U2*%
X140827760Y-120719780D03*
D22*
X141115260Y-120432280D03*
D23*
X140812760Y-121262780D03*
X140802760Y-121662780D03*
X140802760Y-122062780D03*
D22*
X141115260Y-122907280D03*
D24*
X140827760Y-122619780D03*
D25*
X141565260Y-122882280D03*
X141965260Y-122882280D03*
D26*
X142365260Y-122699780D03*
X142765260Y-122699780D03*
D27*
X143265260Y-122907280D03*
D28*
X143577760Y-122619780D03*
D23*
X143572760Y-122062780D03*
X143572760Y-121662780D03*
X143572760Y-121262780D03*
D27*
X143265260Y-120432280D03*
D29*
X143577760Y-120719780D03*
D26*
X142765260Y-120539780D03*
X142365260Y-120539780D03*
X141965260Y-120539780D03*
D25*
X141565260Y-120359780D03*
%TD*%
D10*
%TO.C,Q4*%
X132452760Y-106459780D03*
X132452760Y-108359780D03*
X134727760Y-107409780D03*
%TD*%
D12*
%TO.C,R11*%
X101317760Y-109559780D03*
X103142760Y-109559780D03*
%TD*%
D30*
%TO.C,Q1*%
X161592760Y-105059780D03*
X161592760Y-106959780D03*
X163467760Y-106009780D03*
%TD*%
D11*
%TO.C,C16*%
X127840260Y-100799780D03*
X129740260Y-100799780D03*
%TD*%
D12*
%TO.C,R30*%
X114547760Y-103659780D03*
X116372760Y-103659780D03*
%TD*%
D31*
%TO.C,U1*%
X119190260Y-118729780D03*
X119190260Y-119379780D03*
X119190260Y-120029780D03*
X119190260Y-120679780D03*
X119190260Y-121329780D03*
X119190260Y-121979780D03*
X119190260Y-122629780D03*
X125090260Y-122629780D03*
X125090260Y-121979780D03*
X125090260Y-121329780D03*
X125090260Y-120679780D03*
X125090260Y-120029780D03*
X125090260Y-119379780D03*
X125090260Y-118729780D03*
%TD*%
D32*
%TO.C,J1*%
X98040260Y-115334780D03*
X98840260Y-115334780D03*
D33*
X99990260Y-115334780D03*
X100990260Y-115334780D03*
X101490260Y-115334780D03*
X102490260Y-115334780D03*
D32*
X104440260Y-115334780D03*
X103640260Y-115334780D03*
D33*
X102990260Y-115334780D03*
X101990260Y-115334780D03*
X100490260Y-115334780D03*
X99490260Y-115334780D03*
%TD*%
D12*
%TO.C,TH2*%
X114547760Y-112509780D03*
X116372760Y-112509780D03*
%TD*%
D11*
%TO.C,C19*%
X127840260Y-109829780D03*
X129740260Y-109829780D03*
%TD*%
%TO.C,C5*%
X118940260Y-109829780D03*
X120840260Y-109829780D03*
%TD*%
D12*
%TO.C,R19*%
X110137760Y-97759780D03*
X111962760Y-97759780D03*
%TD*%
D34*
%TO.C,U4*%
X160397760Y-109984780D03*
X160397760Y-110634780D03*
X160397760Y-111284780D03*
X160397760Y-111934780D03*
X160397760Y-112584780D03*
X160397760Y-113234780D03*
X160397760Y-113884780D03*
X166122760Y-113884780D03*
X166122760Y-113234780D03*
X166122760Y-112584780D03*
X166122760Y-111934780D03*
X166122760Y-111284780D03*
X166122760Y-110634780D03*
X166122760Y-109984780D03*
%TD*%
D11*
%TO.C,C15*%
X127840260Y-97789780D03*
X129740260Y-97789780D03*
%TD*%
D12*
%TO.C,R22*%
X110137760Y-106609780D03*
X111962760Y-106609780D03*
%TD*%
D35*
%TO.C,U5*%
X163790260Y-121354780D03*
D36*
X163740260Y-121854780D03*
X163740260Y-122354780D03*
X164890260Y-122354780D03*
X164890260Y-121854780D03*
X164890260Y-121354780D03*
%TD*%
D12*
%TO.C,R9*%
X101317760Y-103659780D03*
X103142760Y-103659780D03*
%TD*%
%TO.C,R7*%
X101317760Y-97759780D03*
X103142760Y-97759780D03*
%TD*%
%TO.C,R13*%
X105727760Y-97759780D03*
X107552760Y-97759780D03*
%TD*%
%TO.C,R17*%
X105727760Y-109559780D03*
X107552760Y-109559780D03*
%TD*%
D18*
%TO.C,D5*%
X140665260Y-109034780D03*
X142265260Y-109034780D03*
%TD*%
D12*
%TO.C,R8*%
X101317760Y-100709780D03*
X103142760Y-100709780D03*
%TD*%
D18*
%TO.C,D1*%
X140665260Y-98034780D03*
X142265260Y-98034780D03*
%TD*%
D11*
%TO.C,C4*%
X118940260Y-106819780D03*
X120840260Y-106819780D03*
%TD*%
D12*
%TO.C,R20*%
X110137760Y-100709780D03*
X111962760Y-100709780D03*
%TD*%
D11*
%TO.C,C3*%
X118940260Y-103809780D03*
X120840260Y-103809780D03*
%TD*%
D12*
%TO.C,R14*%
X105727760Y-100709780D03*
X107552760Y-100709780D03*
%TD*%
D11*
%TO.C,C9*%
X123390260Y-100799780D03*
X125290260Y-100799780D03*
%TD*%
D12*
%TO.C,R31*%
X114547760Y-106609780D03*
X116372760Y-106609780D03*
%TD*%
%TO.C,R15*%
X105727760Y-103659780D03*
X107552760Y-103659780D03*
%TD*%
D11*
%TO.C,C6*%
X118940260Y-112839780D03*
X120840260Y-112839780D03*
%TD*%
D12*
%TO.C,R16*%
X105727760Y-106609780D03*
X107552760Y-106609780D03*
%TD*%
%TO.C,R4*%
X96907760Y-106609780D03*
X98732760Y-106609780D03*
%TD*%
%TO.C,R10*%
X101317760Y-106609780D03*
X103142760Y-106609780D03*
%TD*%
D11*
%TO.C,C8*%
X123390260Y-97789780D03*
X125290260Y-97789780D03*
%TD*%
%TO.C,C11*%
X123390260Y-106819780D03*
X125290260Y-106819780D03*
%TD*%
%TO.C,C18*%
X127840260Y-106819780D03*
X129740260Y-106819780D03*
%TD*%
D12*
%TO.C,R3*%
X96907760Y-103659780D03*
X98732760Y-103659780D03*
%TD*%
D13*
%TO.C,F2*%
X149615260Y-118379780D03*
X155985260Y-118379780D03*
%TD*%
D12*
%TO.C,R2*%
X96907760Y-100709780D03*
X98732760Y-100709780D03*
%TD*%
%TO.C,R27*%
X114547760Y-100709780D03*
X116372760Y-100709780D03*
%TD*%
D11*
%TO.C,C10*%
X123390260Y-103809780D03*
X125290260Y-103809780D03*
%TD*%
%TO.C,C14*%
X123390260Y-115849780D03*
X125290260Y-115849780D03*
%TD*%
%TO.C,C1*%
X118940260Y-97789780D03*
X120840260Y-97789780D03*
%TD*%
D18*
%TO.C,D6*%
X144165260Y-98034780D03*
X145765260Y-98034780D03*
%TD*%
D12*
%TO.C,R12*%
X101317760Y-112509780D03*
X103142760Y-112509780D03*
%TD*%
D18*
%TO.C,D7*%
X144165260Y-100784780D03*
X145765260Y-100784780D03*
%TD*%
D11*
%TO.C,C12*%
X123390260Y-109829780D03*
X125290260Y-109829780D03*
%TD*%
D17*
%TO.C,L1*%
X161475260Y-98159780D03*
X163625260Y-98159780D03*
%TD*%
M02*
