%TF.GenerationSoftware,KiCad,Pcbnew,10.0.1-10.0.1~ubuntu25.10.1*%
%TF.CreationDate,2026-05-16T03:43:41+00:00*%
%TF.ProjectId,LION1CELL02,4c494f4e-3143-4454-9c4c-30322e6b6963,rev?*%
%TF.SameCoordinates,Original*%
%TF.FileFunction,Copper,L2,Bot*%
%TF.FilePolarity,Positive*%
%FSLAX46Y46*%
G04 Gerber Fmt 4.6, Leading zero omitted, Abs format (unit mm)*
G04 Created by KiCad (PCBNEW 10.0.1-10.0.1~ubuntu25.10.1) date 2026-05-16 03:43:41*
%MOMM*%
%LPD*%
G01*
G04 APERTURE LIST*
G04 Aperture macros list*
%AMRoundRect*
0 Rectangle with rounded corners*
0 $1 Rounding radius*
0 $2 $3 $4 $5 $6 $7 $8 $9 X,Y pos of 4 corners*
0 Add a 4 corners polygon primitive as box body*
4,1,4,$2,$3,$4,$5,$6,$7,$8,$9,$2,$3,0*
0 Add four circle primitives for the rounded corners*
1,1,$1+$1,$2,$3*
1,1,$1+$1,$4,$5*
1,1,$1+$1,$6,$7*
1,1,$1+$1,$8,$9*
0 Add four rect primitives between the rounded corners*
20,1,$1+$1,$2,$3,$4,$5,0*
20,1,$1+$1,$4,$5,$6,$7,0*
20,1,$1+$1,$6,$7,$8,$9,0*
20,1,$1+$1,$8,$9,$2,$3,0*%
%AMFreePoly0*
4,1,23,0.550000,-0.750000,0.000000,-0.750000,0.000000,-0.745722,-0.065263,-0.745722,-0.191342,-0.711940,-0.304381,-0.646677,-0.396677,-0.554381,-0.461940,-0.441342,-0.495722,-0.315263,-0.495722,-0.250000,-0.500000,-0.250000,-0.500000,0.250000,-0.495722,0.250000,-0.495722,0.315263,-0.461940,0.441342,-0.396677,0.554381,-0.304381,0.646677,-0.191342,0.711940,-0.065263,0.745722,0.000000,0.745722,
0.000000,0.750000,0.550000,0.750000,0.550000,-0.750000,0.550000,-0.750000,$1*%
%AMFreePoly1*
4,1,23,0.000000,0.745722,0.065263,0.745722,0.191342,0.711940,0.304381,0.646677,0.396677,0.554381,0.461940,0.441342,0.495722,0.315263,0.495722,0.250000,0.500000,0.250000,0.500000,-0.250000,0.495722,-0.250000,0.495722,-0.315263,0.461940,-0.441342,0.396677,-0.554381,0.304381,-0.646677,0.191342,-0.711940,0.065263,-0.745722,0.000000,-0.745722,0.000000,-0.750000,-0.550000,-0.750000,
-0.550000,0.750000,0.000000,0.750000,0.000000,0.745722,0.000000,0.745722,$1*%
G04 Aperture macros list end*
%TA.AperFunction,EtchedComponent*%
%ADD10C,0.000000*%
%TD*%
%TA.AperFunction,ComponentPad*%
%ADD11O,0.900000X1.300000*%
%TD*%
%TA.AperFunction,ComponentPad*%
%ADD12C,6.000000*%
%TD*%
%TA.AperFunction,ComponentPad*%
%ADD13R,1.700000X1.700000*%
%TD*%
%TA.AperFunction,ComponentPad*%
%ADD14C,1.700000*%
%TD*%
%TA.AperFunction,ComponentPad*%
%ADD15R,4.000000X4.000000*%
%TD*%
%TA.AperFunction,SMDPad,CuDef*%
%ADD16RoundRect,0.250000X0.475000X-0.250000X0.475000X0.250000X-0.475000X0.250000X-0.475000X-0.250000X0*%
%TD*%
%TA.AperFunction,SMDPad,CuDef*%
%ADD17RoundRect,0.250000X0.450000X-0.262500X0.450000X0.262500X-0.450000X0.262500X-0.450000X-0.262500X0*%
%TD*%
%TA.AperFunction,SMDPad,CuDef*%
%ADD18R,4.240000X3.810000*%
%TD*%
%TA.AperFunction,SMDPad,CuDef*%
%ADD19RoundRect,0.250000X-0.850000X0.375000X-0.850000X-0.375000X0.850000X-0.375000X0.850000X0.375000X0*%
%TD*%
%TA.AperFunction,SMDPad,CuDef*%
%ADD20RoundRect,0.250000X-0.262500X-0.450000X0.262500X-0.450000X0.262500X0.450000X-0.262500X0.450000X0*%
%TD*%
%TA.AperFunction,SMDPad,CuDef*%
%ADD21RoundRect,0.050000X-0.285000X-0.100000X0.285000X-0.100000X0.285000X0.100000X-0.285000X0.100000X0*%
%TD*%
%TA.AperFunction,SMDPad,CuDef*%
%ADD22RoundRect,0.250000X0.262500X0.450000X-0.262500X0.450000X-0.262500X-0.450000X0.262500X-0.450000X0*%
%TD*%
%TA.AperFunction,SMDPad,CuDef*%
%ADD23RoundRect,0.250000X0.362500X1.425000X-0.362500X1.425000X-0.362500X-1.425000X0.362500X-1.425000X0*%
%TD*%
%TA.AperFunction,SMDPad,CuDef*%
%ADD24RoundRect,0.150000X-0.512500X-0.150000X0.512500X-0.150000X0.512500X0.150000X-0.512500X0.150000X0*%
%TD*%
%TA.AperFunction,SMDPad,CuDef*%
%ADD25RoundRect,0.250000X-0.250000X-0.475000X0.250000X-0.475000X0.250000X0.475000X-0.250000X0.475000X0*%
%TD*%
%TA.AperFunction,SMDPad,CuDef*%
%ADD26RoundRect,0.250000X0.250000X0.475000X-0.250000X0.475000X-0.250000X-0.475000X0.250000X-0.475000X0*%
%TD*%
%TA.AperFunction,SMDPad,CuDef*%
%ADD27RoundRect,0.050000X-0.337500X0.050000X-0.337500X-0.050000X0.337500X-0.050000X0.337500X0.050000X0*%
%TD*%
%TA.AperFunction,SMDPad,CuDef*%
%ADD28RoundRect,0.050000X0.050000X0.337500X-0.050000X0.337500X-0.050000X-0.337500X0.050000X-0.337500X0*%
%TD*%
%TA.AperFunction,SMDPad,CuDef*%
%ADD29RoundRect,0.050000X-0.262500X0.050000X-0.262500X-0.050000X0.262500X-0.050000X0.262500X0.050000X0*%
%TD*%
%TA.AperFunction,SMDPad,CuDef*%
%ADD30RoundRect,0.050000X0.337500X-0.050000X0.337500X0.050000X-0.337500X0.050000X-0.337500X-0.050000X0*%
%TD*%
%TA.AperFunction,SMDPad,CuDef*%
%ADD31RoundRect,0.050000X-0.050000X-0.262500X0.050000X-0.262500X0.050000X0.262500X-0.050000X0.262500X0*%
%TD*%
%TA.AperFunction,SMDPad,CuDef*%
%ADD32RoundRect,0.050000X-0.050000X-0.450000X0.050000X-0.450000X0.050000X0.450000X-0.050000X0.450000X0*%
%TD*%
%TA.AperFunction,SMDPad,CuDef*%
%ADD33RoundRect,0.050000X-0.050000X-0.337500X0.050000X-0.337500X0.050000X0.337500X-0.050000X0.337500X0*%
%TD*%
%TA.AperFunction,SMDPad,CuDef*%
%ADD34RoundRect,0.050000X0.362500X-0.050000X0.362500X0.050000X-0.362500X0.050000X-0.362500X-0.050000X0*%
%TD*%
%TA.AperFunction,SMDPad,CuDef*%
%ADD35RoundRect,0.050000X-0.362500X0.050000X-0.362500X-0.050000X0.362500X-0.050000X0.362500X0.050000X0*%
%TD*%
%TA.AperFunction,SMDPad,CuDef*%
%ADD36RoundRect,0.150000X-0.587500X-0.150000X0.587500X-0.150000X0.587500X0.150000X-0.587500X0.150000X0*%
%TD*%
%TA.AperFunction,SMDPad,CuDef*%
%ADD37R,0.450000X1.450000*%
%TD*%
%TA.AperFunction,SMDPad,CuDef*%
%ADD38R,1.150000X0.600000*%
%TD*%
%TA.AperFunction,SMDPad,CuDef*%
%ADD39R,1.150000X0.300000*%
%TD*%
%TA.AperFunction,ComponentPad*%
%ADD40O,2.000000X1.000000*%
%TD*%
%TA.AperFunction,ComponentPad*%
%ADD41O,2.100000X1.050000*%
%TD*%
%TA.AperFunction,SMDPad,CuDef*%
%ADD42RoundRect,0.100000X-0.100000X0.637500X-0.100000X-0.637500X0.100000X-0.637500X0.100000X0.637500X0*%
%TD*%
%TA.AperFunction,SMDPad,CuDef*%
%ADD43RoundRect,0.250000X-0.475000X0.250000X-0.475000X-0.250000X0.475000X-0.250000X0.475000X0.250000X0*%
%TD*%
%TA.AperFunction,SMDPad,CuDef*%
%ADD44RoundRect,0.070000X0.355000X-0.070000X0.355000X0.070000X-0.355000X0.070000X-0.355000X-0.070000X0*%
%TD*%
%TA.AperFunction,SMDPad,CuDef*%
%ADD45RoundRect,0.070000X0.305000X-0.070000X0.305000X0.070000X-0.305000X0.070000X-0.305000X-0.070000X0*%
%TD*%
%TA.AperFunction,SMDPad,CuDef*%
%ADD46RoundRect,0.250000X-0.450000X0.262500X-0.450000X-0.262500X0.450000X-0.262500X0.450000X0.262500X0*%
%TD*%
%TA.AperFunction,SMDPad,CuDef*%
%ADD47C,0.500000*%
%TD*%
%TA.AperFunction,SMDPad,CuDef*%
%ADD48R,0.800100X1.000760*%
%TD*%
%TA.AperFunction,SMDPad,CuDef*%
%ADD49FreePoly0,0.000000*%
%TD*%
%TA.AperFunction,SMDPad,CuDef*%
%ADD50R,1.000000X1.500000*%
%TD*%
%TA.AperFunction,SMDPad,CuDef*%
%ADD51FreePoly1,0.000000*%
%TD*%
%TA.AperFunction,SMDPad,CuDef*%
%ADD52RoundRect,0.250000X0.850000X-0.375000X0.850000X0.375000X-0.850000X0.375000X-0.850000X-0.375000X0*%
%TD*%
G04 APERTURE END LIST*
D10*
%TA.AperFunction,EtchedComponent*%
%TO.C,NT2*%
G36*
X78750000Y-82100000D02*
G01*
X77750000Y-82100000D01*
X77750000Y-81600000D01*
X78750000Y-81600000D01*
X78750000Y-82100000D01*
G37*
%TD.AperFunction*%
%TA.AperFunction,EtchedComponent*%
%TO.C,JP1*%
G36*
X71800000Y-67650000D02*
G01*
X71300000Y-67650000D01*
X71300000Y-67250000D01*
X71800000Y-67250000D01*
X71800000Y-67650000D01*
G37*
%TD.AperFunction*%
%TA.AperFunction,EtchedComponent*%
G36*
X71800000Y-68450000D02*
G01*
X71300000Y-68450000D01*
X71300000Y-68050000D01*
X71800000Y-68050000D01*
X71800000Y-68450000D01*
G37*
%TD.AperFunction*%
%TA.AperFunction,EtchedComponent*%
%TO.C,NT1*%
G36*
X83750000Y-82100000D02*
G01*
X82750000Y-82100000D01*
X82750000Y-81600000D01*
X83750000Y-81600000D01*
X83750000Y-82100000D01*
G37*
%TD.AperFunction*%
%TD*%
D11*
%TO.P,SW1,GND,SHIELD_GND*%
%TO.N,GND*%
X155200000Y-142190000D03*
X159450000Y-142190000D03*
%TD*%
D12*
%TO.P,H3,1,1_1*%
%TO.N,GND*%
X141354000Y-90078000D03*
%TD*%
%TO.P,H1,1,1_1*%
%TO.N,GND*%
X139854000Y-37328000D03*
%TD*%
%TO.P,H2,1,1_1*%
%TO.N,GND*%
X232354000Y-89078000D03*
%TD*%
D13*
%TO.P,J2,1*%
%TO.N,GND*%
X181240000Y-145000000D03*
D14*
%TO.P,J2,2*%
X181240000Y-142460000D03*
%TO.P,J2,3*%
%TO.N,+BATT*%
X183780000Y-145000000D03*
%TO.P,J2,4*%
X183780000Y-142460000D03*
%TO.P,J2,5*%
%TO.N,GND*%
X186320000Y-145000000D03*
%TO.P,J2,6*%
X186320000Y-142460000D03*
%TD*%
D12*
%TO.P,H4,1,1_1*%
%TO.N,GND*%
X232604000Y-37328000D03*
%TD*%
D15*
%TO.P,BT1,1+,+_1+*%
%TO.N,Net-(BT1A-+)*%
X149510000Y-53250000D03*
%TO.P,BT1,1-,-_1-*%
%TO.N,Net-(BT1A--)*%
X222110000Y-53250000D03*
%TO.P,BT1,2+,+_2+*%
%TO.N,Net-(BT1B-+)*%
X149510000Y-72550000D03*
%TO.P,BT1,2-,-_2-*%
%TO.N,Net-(BT1A--)*%
X222110000Y-72550000D03*
%TD*%
D13*
%TO.P,J3,1*%
%TO.N,GND*%
X173570000Y-142000000D03*
D14*
%TO.P,J3,2*%
%TO.N,/SDA*%
X171030000Y-142000000D03*
%TO.P,J3,3*%
%TO.N,/SCL*%
X168490000Y-142000000D03*
%TO.P,J3,4*%
%TO.N,+3.3V*%
X165950000Y-142000000D03*
%TD*%
D16*
%TO.P,C13,1*%
%TO.N,Net-(U2-ILIM)*%
X66200000Y-108850000D03*
%TO.P,C13,2*%
%TO.N,GND*%
X66200000Y-106950000D03*
%TD*%
D17*
%TO.P,R5,1*%
%TO.N,Net-(U2-TS_BIAS)*%
X68450000Y-109600000D03*
%TO.P,R5,2*%
%TO.N,Net-(U2-TS)*%
X68450000Y-107775000D03*
%TD*%
D18*
%TO.P,F1,1*%
%TO.N,+BATT*%
X149819800Y-77642800D03*
%TO.P,F1,2*%
%TO.N,Net-(BT1B-+)*%
X156189800Y-77642800D03*
%TD*%
D19*
%TO.P,L2,1,1_1*%
%TO.N,Net-(U3-LX1)*%
X91000000Y-109075000D03*
%TO.P,L2,2,2_2*%
%TO.N,Net-(U3-LX2)*%
X91000000Y-111225000D03*
%TD*%
D20*
%TO.P,TH1,1*%
%TO.N,Net-(U1-REG25)*%
X73907500Y-49340000D03*
%TO.P,TH1,2*%
%TO.N,Net-(U1-P6{slash}TS)*%
X75732500Y-49340000D03*
%TD*%
%TO.P,R6,1*%
%TO.N,Net-(U2-TS)*%
X49500000Y-108250000D03*
%TO.P,R6,2*%
%TO.N,Net-(R6-Pad2)*%
X51325000Y-108250000D03*
%TD*%
D21*
%TO.P,U3,1,VOUT_1*%
%TO.N,+3.3V*%
X93250000Y-110125000D03*
%TO.P,U3,2,LX2_2*%
%TO.N,Net-(U3-LX2)*%
X93250000Y-109625000D03*
%TO.P,U3,3,LX1_3*%
%TO.N,Net-(U3-LX1)*%
X93250000Y-109125000D03*
%TO.P,U3,4,VIN_4*%
%TO.N,+VSW*%
X93250000Y-108625000D03*
%TO.P,U3,5,EN_5*%
X94730000Y-108625000D03*
%TO.P,U3,6,MODE_6*%
%TO.N,GND*%
X94730000Y-109125000D03*
%TO.P,U3,7,GND_7*%
X94730000Y-109625000D03*
%TO.P,U3,8,FB_8*%
%TO.N,/3v3i_FB*%
X94730000Y-110125000D03*
%TD*%
D22*
%TO.P,R25,1*%
%TO.N,+BATT*%
X110250000Y-74300000D03*
%TO.P,R25,2*%
%TO.N,Net-(U5-BAT)*%
X108425000Y-74300000D03*
%TD*%
D17*
%TO.P,R28,1*%
%TO.N,Net-(U5-Cout)*%
X99837500Y-74125000D03*
%TO.P,R28,2*%
%TO.N,Net-(Q4-G)*%
X99837500Y-72300000D03*
%TD*%
D23*
%TO.P,R26,1*%
%TO.N,Net-(Q4-S)*%
X83712500Y-84350000D03*
%TO.P,R26,2*%
%TO.N,GND*%
X77787500Y-84350000D03*
%TD*%
D24*
%TO.P,Q5,1,G_1*%
%TO.N,Net-(Q5-G)*%
X97050000Y-81375000D03*
%TO.P,Q5,2,D_2*%
%TO.N,Net-(Q4-D)*%
X97050000Y-79475000D03*
%TO.P,Q5,3,S_3*%
%TO.N,Net-(BT1A--)*%
X99325000Y-80425000D03*
%TD*%
D17*
%TO.P,R1,1*%
%TO.N,/GAUGE_SRP*%
X81850000Y-80012500D03*
%TO.P,R1,2*%
%TO.N,Net-(U1-SRP)*%
X81850000Y-78187500D03*
%TD*%
D25*
%TO.P,C17,1*%
%TO.N,+3.3V*%
X93250000Y-116250000D03*
%TO.P,C17,2*%
%TO.N,GND*%
X95150000Y-116250000D03*
%TD*%
D26*
%TO.P,C7,1*%
%TO.N,+BATT*%
X72200000Y-107702000D03*
%TO.P,C7,2*%
%TO.N,GND*%
X70300000Y-107702000D03*
%TD*%
D25*
%TO.P,C2,1*%
%TO.N,Net-(U1-SRP)*%
X81850000Y-76350000D03*
%TO.P,C2,2*%
%TO.N,GND*%
X83750000Y-76350000D03*
%TD*%
D27*
%TO.P,U2,1,BTST_1*%
%TO.N,Net-(U2-BTST)*%
X70137500Y-111925000D03*
D28*
X70425000Y-112212500D03*
D29*
%TO.P,U2,2,REGN_2*%
%TO.N,Net-(U2-REGN)*%
X70122500Y-111382000D03*
%TO.P,U2,3,~{PG}_3*%
%TO.N,/CH_PG*%
X70112500Y-110982000D03*
%TO.P,U2,4,ILIM_4*%
%TO.N,Net-(U2-ILIM)*%
X70112500Y-110582000D03*
D28*
%TO.P,U2,5,TS_BIAS_5*%
%TO.N,Net-(U2-TS_BIAS)*%
X70425000Y-109737500D03*
D30*
X70137500Y-110025000D03*
D31*
%TO.P,U2,6,TS_6*%
%TO.N,Net-(U2-TS)*%
X70875000Y-109762500D03*
%TO.P,U2,7,~{QON}_7*%
%TO.N,/RESET*%
X71275000Y-109762500D03*
D32*
%TO.P,U2,8,BAT_8*%
%TO.N,+BATT*%
X71675000Y-109945000D03*
%TO.P,U2,9,SYS_9*%
%TO.N,+VSW*%
X72075000Y-109945000D03*
D33*
%TO.P,U2,10,STAT_10*%
%TO.N,/CH_STAT*%
X72575000Y-109737500D03*
D34*
X72887500Y-110025000D03*
D29*
%TO.P,U2,11,~{INT}_11*%
%TO.N,unconnected-(U2-~{INT}-Pad11)*%
X72882500Y-110582000D03*
%TO.P,U2,12,SDA_12*%
%TO.N,/SDA*%
X72882500Y-110982000D03*
%TO.P,U2,13,SCL_13*%
%TO.N,/SCL*%
X72882500Y-111382000D03*
D33*
%TO.P,U2,14,~{CE}_14*%
%TO.N,GND*%
X72575000Y-112212500D03*
D35*
X72887500Y-111925000D03*
D32*
%TO.P,U2,15,GND_15*%
X72075000Y-112105000D03*
%TO.P,U2,16,SW_16*%
%TO.N,Net-(U2-SW)*%
X71675000Y-112105000D03*
%TO.P,U2,17,PMID_17*%
%TO.N,Net-(U2-PMID)*%
X71275000Y-112105000D03*
D31*
%TO.P,U2,18,VBUS_18*%
%TO.N,VBUS*%
X70875000Y-112285000D03*
%TD*%
D24*
%TO.P,Q4,1,G_1*%
%TO.N,Net-(Q4-G)*%
X97050000Y-85825000D03*
%TO.P,Q4,2,D_2*%
%TO.N,Net-(Q4-D)*%
X97050000Y-83925000D03*
%TO.P,Q4,3,S_3*%
%TO.N,Net-(Q4-S)*%
X99325000Y-84875000D03*
%TD*%
D17*
%TO.P,R11,1*%
%TO.N,/GAUGE_BTN_IN*%
X75750000Y-63175000D03*
%TO.P,R11,2*%
%TO.N,Net-(Q1-D)*%
X75750000Y-61350000D03*
%TD*%
D36*
%TO.P,Q1,1,G_1*%
%TO.N,Net-(Q1-G)*%
X69375000Y-63050000D03*
%TO.P,Q1,2,S_2*%
%TO.N,+3.3V*%
X69375000Y-61150000D03*
%TO.P,Q1,3,D_3*%
%TO.N,Net-(Q1-D)*%
X71250000Y-62100000D03*
%TD*%
D25*
%TO.P,C16,1*%
%TO.N,+3.3V*%
X93250000Y-114275000D03*
%TO.P,C16,2*%
%TO.N,GND*%
X95150000Y-114275000D03*
%TD*%
D37*
%TO.P,U1,1,P2_1*%
%TO.N,/P2*%
X77800000Y-66150000D03*
%TO.P,U1,2,VEN_2*%
%TO.N,/GAUGE_BTN_IN*%
X78450000Y-66150000D03*
%TO.P,U1,3,P1_3*%
%TO.N,/P1*%
X79100000Y-66150000D03*
%TO.P,U1,4,BAT_4*%
%TO.N,+BATT*%
X79750000Y-66150000D03*
%TO.P,U1,5,CE_5*%
%TO.N,Net-(JP1-C)*%
X80400000Y-66150000D03*
%TO.P,U1,6,REGIN_6*%
X81050000Y-66150000D03*
%TO.P,U1,7,REG25_7*%
%TO.N,Net-(U1-REG25)*%
X81700000Y-66150000D03*
%TO.P,U1,8,VSS_8*%
%TO.N,GND*%
X81700000Y-72050000D03*
%TO.P,U1,9,SRP_9*%
%TO.N,Net-(U1-SRP)*%
X81050000Y-72050000D03*
%TO.P,U1,10,SRN_10*%
%TO.N,Net-(U1-SRN)*%
X80400000Y-72050000D03*
%TO.P,U1,11,P6/TS_11*%
%TO.N,Net-(U1-P6{slash}TS)*%
X79750000Y-72050000D03*
%TO.P,U1,12,P5/HDQ_12*%
%TO.N,/ALERT*%
X79100000Y-72050000D03*
%TO.P,U1,13,P4/SCL_13*%
%TO.N,/SCL*%
X78450000Y-72050000D03*
%TO.P,U1,14,P3/SDA_14*%
%TO.N,/SDA*%
X77800000Y-72050000D03*
%TD*%
D38*
%TO.P,J1,A1/B12,GND_A1/B12*%
%TO.N,GND*%
X237609000Y-58348000D03*
%TO.P,J1,A4/B9,VBUS_A4/B9*%
%TO.N,VBUS*%
X237609000Y-57548000D03*
D39*
%TO.P,J1,A5,CC1_A5*%
%TO.N,Net-(J1-CC1)*%
X237609000Y-56398000D03*
%TO.P,J1,A6,D+_A6*%
%TO.N,unconnected-(J1-D+-PadA6)*%
X237609000Y-55398000D03*
%TO.P,J1,A7,D-_A7*%
%TO.N,unconnected-(J1-D--PadA7)*%
X237609000Y-54898000D03*
%TO.P,J1,A8,SBU1_A8*%
%TO.N,unconnected-(J1-SBU1-PadA8)*%
X237609000Y-53898000D03*
D38*
%TO.P,J1,B1/A12,GND_B1/A12*%
%TO.N,GND*%
X237609000Y-51948000D03*
%TO.P,J1,B4/A9,VBUS_B4/A9*%
%TO.N,VBUS*%
X237609000Y-52748000D03*
D39*
%TO.P,J1,B5,CC2_B5*%
%TO.N,Net-(J1-CC2)*%
X237609000Y-53398000D03*
%TO.P,J1,B6,D+_B6*%
%TO.N,unconnected-(J1-D+-PadB6)*%
X237609000Y-54398000D03*
%TO.P,J1,B7,D-_B7*%
%TO.N,unconnected-(J1-D--PadB7)*%
X237609000Y-55898000D03*
%TO.P,J1,B8,SBU2_B8*%
%TO.N,unconnected-(J1-SBU2-PadB8)*%
X237609000Y-56898000D03*
D40*
%TO.P,J1,G1,SHIELD_G1*%
%TO.N,GND*%
X232854000Y-59468000D03*
%TO.P,J1,G2,SHIELD_G2*%
X232854000Y-50828000D03*
D41*
%TO.P,J1,G3,SHIELD_G3*%
X237034000Y-59468000D03*
%TO.P,J1,G4,SHIELD_G4*%
X237034000Y-50828000D03*
%TD*%
D20*
%TO.P,TH2,1*%
%TO.N,Net-(U2-TS)*%
X49496200Y-110886200D03*
%TO.P,TH2,2*%
%TO.N,Net-(R6-Pad2)*%
X51321200Y-110886200D03*
%TD*%
D16*
%TO.P,C19,1*%
%TO.N,Net-(U5-BAT)*%
X110087500Y-72500000D03*
%TO.P,C19,2*%
%TO.N,Net-(BT1A--)*%
X110087500Y-70600000D03*
%TD*%
D26*
%TO.P,C5,1*%
%TO.N,Net-(U2-SW)*%
X72350000Y-114100000D03*
%TO.P,C5,2*%
%TO.N,Net-(U2-BTST)*%
X70450000Y-114100000D03*
%TD*%
D42*
%TO.P,U4,1,A_1*%
%TO.N,/P1*%
X145750000Y-123887500D03*
%TO.P,U4,2,B_2*%
X146400000Y-123887500D03*
%TO.P,U4,3,QA_3*%
%TO.N,/A*%
X147050000Y-123887500D03*
%TO.P,U4,4,QB_4*%
%TO.N,/B*%
X147700000Y-123887500D03*
%TO.P,U4,5,QC_5*%
%TO.N,/C*%
X148350000Y-123887500D03*
%TO.P,U4,6,QD_6*%
%TO.N,/D*%
X149000000Y-123887500D03*
%TO.P,U4,7,GND_7*%
%TO.N,GND*%
X149650000Y-123887500D03*
%TO.P,U4,8,CLK_8*%
%TO.N,/P2*%
X149650000Y-129612500D03*
%TO.P,U4,9,CLR_9*%
%TO.N,+3.3V*%
X149000000Y-129612500D03*
%TO.P,U4,10,QE_10*%
%TO.N,/E*%
X148350000Y-129612500D03*
%TO.P,U4,11,QF_11*%
%TO.N,/F*%
X147700000Y-129612500D03*
%TO.P,U4,12,QG_12*%
%TO.N,/G*%
X147050000Y-129612500D03*
%TO.P,U4,13,QH_13*%
%TO.N,/H*%
X146400000Y-129612500D03*
%TO.P,U4,14,VCC_14*%
%TO.N,+3.3V*%
X145750000Y-129612500D03*
%TD*%
D43*
%TO.P,C15,1*%
%TO.N,+VSW*%
X96500000Y-108625000D03*
%TO.P,C15,2*%
%TO.N,GND*%
X96500000Y-110525000D03*
%TD*%
D44*
%TO.P,U5,1,NC_1*%
%TO.N,unconnected-(U5-NC-Pad1)*%
X103487500Y-74625000D03*
D45*
%TO.P,U5,2,Cout_2*%
%TO.N,Net-(U5-Cout)*%
X103437500Y-74125000D03*
%TO.P,U5,3,Dout_3*%
%TO.N,Net-(U5-Dout)*%
X103437500Y-73625000D03*
%TO.P,U5,4,VSS_4*%
%TO.N,Net-(BT1A--)*%
X104587500Y-73625000D03*
%TO.P,U5,5,BAT_5*%
%TO.N,Net-(U5-BAT)*%
X104587500Y-74125000D03*
%TO.P,U5,6,V-_6*%
%TO.N,Net-(U5-V-)*%
X104587500Y-74625000D03*
%TD*%
D20*
%TO.P,R29,1*%
%TO.N,Net-(U5-Dout)*%
X103425000Y-70375000D03*
%TO.P,R29,2*%
%TO.N,Net-(Q5-G)*%
X105250000Y-70375000D03*
%TD*%
%TO.P,R9,1*%
%TO.N,/3v3i_FB*%
X96650000Y-112325000D03*
%TO.P,R9,2*%
%TO.N,GND*%
X98475000Y-112325000D03*
%TD*%
D46*
%TO.P,R7,1*%
%TO.N,Net-(U2-ILIM)*%
X66200000Y-110600000D03*
%TO.P,R7,2*%
%TO.N,GND*%
X66200000Y-112425000D03*
%TD*%
D47*
%TO.P,NT2,1,1_1*%
%TO.N,/GAUGE_SRN*%
X78750000Y-81850000D03*
%TO.P,NT2,2,2_2*%
%TO.N,GND*%
X77750000Y-81850000D03*
%TD*%
D20*
%TO.P,R8,1*%
%TO.N,+3.3V*%
X93275000Y-112325000D03*
%TO.P,R8,2*%
%TO.N,/3v3i_FB*%
X95100000Y-112325000D03*
%TD*%
D48*
%TO.P,D11,1,A_1*%
%TO.N,Net-(Q4-G)*%
X103587500Y-81625000D03*
%TO.P,D11,2,A_2*%
%TO.N,Net-(Q5-G)*%
X105492500Y-81625000D03*
%TO.P,D11,3,K_3*%
%TO.N,/ALERT*%
X104540000Y-83824640D03*
%TD*%
D26*
%TO.P,C4,1*%
%TO.N,Net-(U1-SRN)*%
X79700000Y-76350000D03*
%TO.P,C4,2*%
%TO.N,GND*%
X77800000Y-76350000D03*
%TD*%
%TO.P,C3,1*%
%TO.N,VBUS*%
X228138000Y-52700000D03*
%TO.P,C3,2*%
%TO.N,GND*%
X226238000Y-52700000D03*
%TD*%
D43*
%TO.P,C9,1*%
%TO.N,Net-(U2-REGN)*%
X68450000Y-112350000D03*
%TO.P,C9,2*%
%TO.N,GND*%
X68450000Y-114250000D03*
%TD*%
D25*
%TO.P,C6,1*%
%TO.N,+VSW*%
X73840800Y-107702000D03*
%TO.P,C6,2*%
%TO.N,GND*%
X75740800Y-107702000D03*
%TD*%
D17*
%TO.P,R4,1*%
%TO.N,/GAUGE_SRN*%
X79650000Y-80025000D03*
%TO.P,R4,2*%
%TO.N,Net-(U1-SRN)*%
X79650000Y-78200000D03*
%TD*%
D20*
%TO.P,R10,1*%
%TO.N,/RESET*%
X65175000Y-63100000D03*
%TO.P,R10,2*%
%TO.N,Net-(Q1-G)*%
X67000000Y-63100000D03*
%TD*%
D43*
%TO.P,C8,1*%
%TO.N,Net-(U1-REG25)*%
X83750000Y-68100000D03*
%TO.P,C8,2*%
%TO.N,GND*%
X83750000Y-70000000D03*
%TD*%
D25*
%TO.P,C11,1*%
%TO.N,Net-(U2-PMID)*%
X71300000Y-116170000D03*
%TO.P,C11,2*%
%TO.N,GND*%
X73200000Y-116170000D03*
%TD*%
%TO.P,C18,1*%
%TO.N,+3.3V*%
X145750000Y-131750000D03*
%TO.P,C18,2*%
%TO.N,GND*%
X147650000Y-131750000D03*
%TD*%
D49*
%TO.P,JP1,1,A_1*%
%TO.N,+3.3V*%
X70900000Y-67850000D03*
D50*
%TO.P,JP1,2,C_2*%
%TO.N,Net-(JP1-C)*%
X72200000Y-67850000D03*
D51*
%TO.P,JP1,3,B_3*%
%TO.N,+BATT*%
X73500000Y-67850000D03*
%TD*%
D20*
%TO.P,R3,1*%
%TO.N,GND*%
X226279000Y-56553000D03*
%TO.P,R3,2*%
%TO.N,Net-(J1-CC1)*%
X228104000Y-56553000D03*
%TD*%
D18*
%TO.P,F2,1*%
%TO.N,+BATT*%
X149870600Y-58288000D03*
%TO.P,F2,2*%
%TO.N,Net-(BT1A-+)*%
X156240600Y-58288000D03*
%TD*%
D20*
%TO.P,R2,1*%
%TO.N,GND*%
X226273282Y-54634782D03*
%TO.P,R2,2*%
%TO.N,Net-(J1-CC2)*%
X228098282Y-54634782D03*
%TD*%
%TO.P,R27,1*%
%TO.N,Net-(U5-V-)*%
X104762500Y-77375000D03*
%TO.P,R27,2*%
%TO.N,Net-(Q4-S)*%
X106587500Y-77375000D03*
%TD*%
D25*
%TO.P,C10,1*%
%TO.N,Net-(U2-PMID)*%
X71300000Y-118170000D03*
%TO.P,C10,2*%
%TO.N,GND*%
X73200000Y-118170000D03*
%TD*%
%TO.P,C14,1*%
%TO.N,Net-(JP1-C)*%
X72800000Y-76350000D03*
%TO.P,C14,2*%
%TO.N,GND*%
X74700000Y-76350000D03*
%TD*%
D26*
%TO.P,C1,1*%
%TO.N,Net-(U1-SRP)*%
X81700000Y-74350000D03*
%TO.P,C1,2*%
%TO.N,Net-(U1-SRN)*%
X79800000Y-74350000D03*
%TD*%
D46*
%TO.P,R12,1*%
%TO.N,GND*%
X77650000Y-61350000D03*
%TO.P,R12,2*%
%TO.N,/GAUGE_BTN_IN*%
X77650000Y-63175000D03*
%TD*%
D16*
%TO.P,C12,1*%
%TO.N,+BATT*%
X79750000Y-63200000D03*
%TO.P,C12,2*%
%TO.N,GND*%
X79750000Y-61300000D03*
%TD*%
D52*
%TO.P,L1,1,1_1*%
%TO.N,Net-(U2-SW)*%
X75700000Y-112000000D03*
%TO.P,L1,2,2_2*%
%TO.N,+VSW*%
X75700000Y-109850000D03*
%TD*%
D47*
%TO.P,NT1,1,1_1*%
%TO.N,/GAUGE_SRP*%
X82750000Y-81850000D03*
%TO.P,NT1,2,2_2*%
%TO.N,Net-(Q4-S)*%
X83750000Y-81850000D03*
%TD*%
M02*
