%TF.GenerationSoftware,KiCad,Pcbnew,10.0.1-10.0.1~ubuntu25.10.1*%
%TF.CreationDate,2026-05-15T15:03:33+00:00*%
%TF.ProjectId,LION1CELL02,4c494f4e-3143-4454-9c4c-30322e6b6963,rev?*%
%TF.SameCoordinates,Original*%
%TF.FileFunction,Copper,L1,Top*%
%TF.FilePolarity,Positive*%
%FSLAX46Y46*%
G04 Gerber Fmt 4.6, Leading zero omitted, Abs format (unit mm)*
G04 Created by KiCad (PCBNEW 10.0.1-10.0.1~ubuntu25.10.1) date 2026-05-15 15:03:33*
%MOMM*%
%LPD*%
G01*
G04 APERTURE LIST*
G04 Aperture macros list*
%AMRoundRect*
0 Rectangle with rounded corners*
0 $1 Rounding radius*
0 $2 $3 $4 $5 $6 $7 $8 $9 X,Y pos of 4 corners*
0 Add a 4 corners polygon primitive as box body*
4,1,4,$2,$3,$4,$5,$6,$7,$8,$9,$2,$3,0*
0 Add four circle primitives for the rounded corners*
1,1,$1+$1,$2,$3*
1,1,$1+$1,$4,$5*
1,1,$1+$1,$6,$7*
1,1,$1+$1,$8,$9*
0 Add four rect primitives between the rounded corners*
20,1,$1+$1,$2,$3,$4,$5,0*
20,1,$1+$1,$4,$5,$6,$7,0*
20,1,$1+$1,$6,$7,$8,$9,0*
20,1,$1+$1,$8,$9,$2,$3,0*%
G04 Aperture macros list end*
%TA.AperFunction,SMDPad,CuDef*%
%ADD10RoundRect,0.150000X0.512500X0.150000X-0.512500X0.150000X-0.512500X-0.150000X0.512500X-0.150000X0*%
%TD*%
%TA.AperFunction,SMDPad,CuDef*%
%ADD11C,1.000000*%
%TD*%
%TA.AperFunction,SMDPad,CuDef*%
%ADD12RoundRect,0.150000X-0.150000X-0.750000X0.150000X-0.750000X0.150000X0.750000X-0.150000X0.750000X0*%
%TD*%
%TA.AperFunction,SMDPad,CuDef*%
%ADD13RoundRect,0.187500X-0.187500X-0.712500X0.187500X-0.712500X0.187500X0.712500X-0.187500X0.712500X0*%
%TD*%
%TA.AperFunction,ComponentPad*%
%ADD14O,0.900000X1.300000*%
%TD*%
%TA.AperFunction,SMDPad,CuDef*%
%ADD15RoundRect,0.225000X-0.425000X-0.225000X0.425000X-0.225000X0.425000X0.225000X-0.425000X0.225000X0*%
%TD*%
%TA.AperFunction,SMDPad,CuDef*%
%ADD16R,1.000000X0.900000*%
%TD*%
%TA.AperFunction,SMDPad,CuDef*%
%ADD17RoundRect,0.250000X-0.262500X-0.450000X0.262500X-0.450000X0.262500X0.450000X-0.262500X0.450000X0*%
%TD*%
%TA.AperFunction,SMDPad,CuDef*%
%ADD18RoundRect,0.250000X0.262500X0.450000X-0.262500X0.450000X-0.262500X-0.450000X0.262500X-0.450000X0*%
%TD*%
%TA.AperFunction,ComponentPad*%
%ADD19C,6.000000*%
%TD*%
%TA.AperFunction,SMDPad,CuDef*%
%ADD20RoundRect,0.250000X0.450000X-0.262500X0.450000X0.262500X-0.450000X0.262500X-0.450000X-0.262500X0*%
%TD*%
%TA.AperFunction,ComponentPad*%
%ADD21R,1.700000X1.700000*%
%TD*%
%TA.AperFunction,ComponentPad*%
%ADD22C,1.700000*%
%TD*%
%TA.AperFunction,ComponentPad*%
%ADD23R,4.000000X4.000000*%
%TD*%
%TA.AperFunction,ComponentPad*%
%ADD24O,2.000000X1.000000*%
%TD*%
%TA.AperFunction,ComponentPad*%
%ADD25O,2.100000X1.050000*%
%TD*%
G04 APERTURE END LIST*
D10*
%TO.P,Q3,1,B_1*%
%TO.N,Net-(Q3-B)*%
X142887500Y-147250000D03*
%TO.P,Q3,2,E_2*%
%TO.N,+3.3V*%
X142887500Y-145350000D03*
%TO.P,Q3,3,C_3*%
%TO.N,Net-(Q3-C)*%
X140612500Y-146300000D03*
%TD*%
D11*
%TO.P,FID2,*%
%TO.N,*%
X247250000Y-161500000D03*
%TD*%
D12*
%TO.P,SW1,1,1_1*%
%TO.N,/RESET*%
X157325000Y-141290000D03*
D13*
%TO.P,SW1,2,2_2*%
%TO.N,GND*%
X156100000Y-141290000D03*
X158550000Y-141290000D03*
D14*
%TO.P,SW1,GND,SHIELD_GND*%
X155200000Y-142190000D03*
D15*
X155475000Y-143240000D03*
X159175000Y-143240000D03*
D14*
X159450000Y-142190000D03*
%TD*%
D10*
%TO.P,Q2,1,B_1*%
%TO.N,Net-(Q2-B)*%
X144750000Y-153700000D03*
%TO.P,Q2,2,E_2*%
%TO.N,+3.3V*%
X144750000Y-151800000D03*
%TO.P,Q2,3,C_3*%
%TO.N,Net-(Q2-C)*%
X142475000Y-152750000D03*
%TD*%
D16*
%TO.P,D2,1,K_1*%
%TO.N,Net-(D2-K)*%
X131125000Y-121600000D03*
%TO.P,D2,2,A_2*%
%TO.N,+3.3V*%
X131125000Y-120000000D03*
%TD*%
D11*
%TO.P,FID4,*%
%TO.N,*%
X257424560Y-160985380D03*
%TD*%
D17*
%TO.P,R18,1*%
%TO.N,Net-(D6-K)*%
X132712500Y-132500000D03*
%TO.P,R18,2*%
%TO.N,/F*%
X134537500Y-132500000D03*
%TD*%
D16*
%TO.P,D9,1,K_1*%
%TO.N,GND*%
X131375000Y-152500000D03*
%TO.P,D9,2,A_2*%
%TO.N,Net-(D9-A)*%
X131375000Y-150900000D03*
%TD*%
%TO.P,D4,1,K_1*%
%TO.N,Net-(D4-K)*%
X131125000Y-127100000D03*
%TO.P,D4,2,A_2*%
%TO.N,+3.3V*%
X131125000Y-125500000D03*
%TD*%
%TO.P,D10,1,K_1*%
%TO.N,GND*%
X131250000Y-146500000D03*
%TO.P,D10,2,A_2*%
%TO.N,Net-(D10-A)*%
X131250000Y-144900000D03*
%TD*%
%TO.P,D3,1,K_1*%
%TO.N,Net-(D3-K)*%
X131125000Y-124350000D03*
%TO.P,D3,2,A_2*%
%TO.N,+3.3V*%
X131125000Y-122750000D03*
%TD*%
D18*
%TO.P,R21,1*%
%TO.N,/CH_STAT*%
X148412500Y-153700000D03*
%TO.P,R21,2*%
%TO.N,Net-(Q2-B)*%
X146587500Y-153700000D03*
%TD*%
D19*
%TO.P,H3,1,1_1*%
%TO.N,GND*%
X141354000Y-90078000D03*
%TD*%
D16*
%TO.P,D8,1,K_1*%
%TO.N,Net-(D8-K)*%
X131125000Y-138100000D03*
%TO.P,D8,2,A_2*%
%TO.N,+3.3V*%
X131125000Y-136500000D03*
%TD*%
D18*
%TO.P,R23,1*%
%TO.N,Net-(Q2-C)*%
X137000000Y-151950000D03*
%TO.P,R23,2*%
%TO.N,Net-(D9-A)*%
X135175000Y-151950000D03*
%TD*%
%TO.P,R24,1*%
%TO.N,Net-(Q3-C)*%
X136662500Y-145950000D03*
%TO.P,R24,2*%
%TO.N,Net-(D10-A)*%
X134837500Y-145950000D03*
%TD*%
D20*
%TO.P,R30,1*%
%TO.N,/SCL*%
X168450000Y-138412500D03*
%TO.P,R30,2*%
%TO.N,+3.3V*%
X168450000Y-136587500D03*
%TD*%
D11*
%TO.P,FID1,*%
%TO.N,*%
X240646000Y-161500000D03*
%TD*%
D17*
%TO.P,R19,1*%
%TO.N,Net-(D7-K)*%
X132712500Y-135250000D03*
%TO.P,R19,2*%
%TO.N,/G*%
X134537500Y-135250000D03*
%TD*%
D18*
%TO.P,R22,1*%
%TO.N,/CH_PG*%
X146662500Y-147200000D03*
%TO.P,R22,2*%
%TO.N,Net-(Q3-B)*%
X144837500Y-147200000D03*
%TD*%
D19*
%TO.P,H1,1,1_1*%
%TO.N,GND*%
X139854000Y-37328000D03*
%TD*%
D11*
%TO.P,FID3,*%
%TO.N,*%
X251314000Y-161373000D03*
%TD*%
D17*
%TO.P,R13,1*%
%TO.N,Net-(D1-K)*%
X132712500Y-118850000D03*
%TO.P,R13,2*%
%TO.N,/A*%
X134537500Y-118850000D03*
%TD*%
%TO.P,R17,1*%
%TO.N,Net-(D5-K)*%
X132712500Y-129750000D03*
%TO.P,R17,2*%
%TO.N,/E*%
X134537500Y-129750000D03*
%TD*%
D16*
%TO.P,D5,1,K_1*%
%TO.N,Net-(D5-K)*%
X131125000Y-129850000D03*
%TO.P,D5,2,A_2*%
%TO.N,+3.3V*%
X131125000Y-128250000D03*
%TD*%
%TO.P,D1,1,K_1*%
%TO.N,Net-(D1-K)*%
X131450000Y-122375000D03*
%TO.P,D1,2,A_2*%
%TO.N,+3.3V*%
X131450000Y-120775000D03*
%TD*%
D17*
%TO.P,R20,1*%
%TO.N,Net-(D8-K)*%
X132712500Y-138000000D03*
%TO.P,R20,2*%
%TO.N,/H*%
X134537500Y-138000000D03*
%TD*%
%TO.P,R14,1*%
%TO.N,Net-(D2-K)*%
X132712500Y-121500000D03*
%TO.P,R14,2*%
%TO.N,/B*%
X134537500Y-121500000D03*
%TD*%
D19*
%TO.P,H2,1,1_1*%
%TO.N,GND*%
X232354000Y-89078000D03*
%TD*%
D21*
%TO.P,J2,1*%
%TO.N,GND*%
X181240000Y-145000000D03*
D22*
%TO.P,J2,2*%
X181240000Y-142460000D03*
%TO.P,J2,3*%
%TO.N,+BATT*%
X183780000Y-145000000D03*
%TO.P,J2,4*%
X183780000Y-142460000D03*
%TO.P,J2,5*%
%TO.N,GND*%
X186320000Y-145000000D03*
%TO.P,J2,6*%
X186320000Y-142460000D03*
%TD*%
D20*
%TO.P,R31,1*%
%TO.N,/SDA*%
X171040000Y-138412500D03*
%TO.P,R31,2*%
%TO.N,+3.3V*%
X171040000Y-136587500D03*
%TD*%
D17*
%TO.P,R15,1*%
%TO.N,Net-(D3-K)*%
X132875000Y-124250000D03*
%TO.P,R15,2*%
%TO.N,/C*%
X134700000Y-124250000D03*
%TD*%
%TO.P,R16,1*%
%TO.N,Net-(D4-K)*%
X132800000Y-127100000D03*
%TO.P,R16,2*%
%TO.N,/D*%
X134625000Y-127100000D03*
%TD*%
D19*
%TO.P,H4,1,1_1*%
%TO.N,GND*%
X232604000Y-37328000D03*
%TD*%
D23*
%TO.P,BT1,1+,+_1+*%
%TO.N,Net-(BT1A-+)*%
X149510000Y-53250000D03*
%TO.P,BT1,1-,-_1-*%
%TO.N,Net-(BT1A--)*%
X222110000Y-53250000D03*
%TO.P,BT1,2+,+_2+*%
%TO.N,Net-(BT1B-+)*%
X149510000Y-72550000D03*
%TO.P,BT1,2-,-_2-*%
%TO.N,Net-(BT1A--)*%
X222110000Y-72550000D03*
%TD*%
D21*
%TO.P,J3,1*%
%TO.N,GND*%
X173570000Y-142000000D03*
D22*
%TO.P,J3,2*%
%TO.N,/SDA*%
X171030000Y-142000000D03*
%TO.P,J3,3*%
%TO.N,/SCL*%
X168490000Y-142000000D03*
%TO.P,J3,4*%
%TO.N,+3.3V*%
X165950000Y-142000000D03*
%TD*%
D16*
%TO.P,D6,1,K_1*%
%TO.N,Net-(D6-K)*%
X131125000Y-132600000D03*
%TO.P,D6,2,A_2*%
%TO.N,+3.3V*%
X131125000Y-131000000D03*
%TD*%
%TO.P,D7,1,K_1*%
%TO.N,Net-(D7-K)*%
X131125000Y-135350000D03*
%TO.P,D7,2,A_2*%
%TO.N,+3.3V*%
X131125000Y-133750000D03*
%TD*%
D24*
%TO.P,J1,G1,SHIELD_G1*%
%TO.N,GND*%
X232854000Y-59468000D03*
%TO.P,J1,G2,SHIELD_G2*%
X232854000Y-50828000D03*
D25*
%TO.P,J1,G3,SHIELD_G3*%
X237034000Y-59468000D03*
%TO.P,J1,G4,SHIELD_G4*%
X237034000Y-50828000D03*
%TD*%
M02*
